# Blender 4.4.0
# www.blender.org
mtllib 1.mtl
o 1
v 0.062500 -0.375000 0.060000
v 0.062500 0.125000 0.060000
v -0.062500 0.125000 0.060000
v -0.062500 0.250000 0.060000
v 0.062500 0.250000 0.060000
v 0.062500 0.375000 0.060000
v 0.187500 0.375000 0.060000
v 0.187500 -0.375000 0.060000
v -0.187500 -0.000000 0.060000
v -0.187500 0.125000 0.060000
v -0.062500 0.125000 0.060000
v -0.062500 -0.000000 0.060000
v 0.062500 -0.375000 -0.060000
v 0.062500 0.125000 -0.060000
v -0.062500 0.125000 -0.060000
v -0.062500 0.250000 -0.060000
v 0.062500 0.250000 -0.060000
v 0.062500 0.375000 -0.060000
v 0.187500 0.375000 -0.060000
v 0.187500 -0.375000 -0.060000
v -0.187500 0.000000 -0.060000
v -0.187500 0.125000 -0.060000
v -0.062500 0.125000 -0.060000
v -0.062500 0.000000 -0.060000
v 0.062500 -0.375000 -0.060000
v 0.059410 -0.378090 -0.059511
v 0.056622 -0.380878 -0.058090
v 0.054410 -0.383090 -0.055878
v 0.052989 -0.384511 -0.053090
v 0.052500 -0.385000 -0.050000
v 0.052500 -0.385000 0.050000
v 0.052989 -0.384511 0.053090
v 0.054410 -0.383090 0.055878
v 0.056622 -0.380878 0.058090
v 0.059410 -0.378090 0.059511
v 0.062500 -0.375000 0.060000
v 0.062500 0.125000 -0.060000
v 0.059410 0.121910 -0.059511
v 0.056622 0.119122 -0.058090
v 0.054410 0.116910 -0.055878
v 0.052989 0.115489 -0.053090
v 0.052500 0.115000 -0.050000
v 0.052500 0.115000 0.050000
v 0.052989 0.115489 0.053090
v 0.054410 0.116910 0.055878
v 0.056622 0.119122 0.058090
v 0.059410 0.121910 0.059511
v 0.062500 0.125000 0.060000
v -0.062500 0.125000 -0.060000
v -0.065590 0.121910 -0.059511
v -0.068378 0.119122 -0.058090
v -0.070590 0.116910 -0.055878
v -0.072011 0.115489 -0.053090
v -0.072500 0.115000 -0.050000
v -0.072500 0.115000 0.050000
v -0.072011 0.115489 0.053090
v -0.070590 0.116910 0.055878
v -0.068378 0.119122 0.058090
v -0.065590 0.121910 0.059511
v -0.062500 0.125000 0.060000
v -0.062500 0.250000 -0.060000
v -0.065590 0.253090 -0.059511
v -0.068378 0.255878 -0.058090
v -0.070590 0.258090 -0.055878
v -0.072011 0.259511 -0.053090
v -0.072500 0.260000 -0.050000
v -0.072500 0.260000 0.050000
v -0.072011 0.259511 0.053090
v -0.070590 0.258090 0.055878
v -0.068378 0.255878 0.058090
v -0.065590 0.253090 0.059511
v -0.062500 0.250000 0.060000
v 0.062500 0.250000 -0.060000
v 0.059410 0.253090 -0.059511
v 0.056622 0.255878 -0.058090
v 0.054410 0.258090 -0.055878
v 0.052989 0.259511 -0.053090
v 0.052500 0.260000 -0.050000
v 0.052500 0.260000 0.050000
v 0.052989 0.259511 0.053090
v 0.054410 0.258090 0.055878
v 0.056622 0.255878 0.058090
v 0.059410 0.253090 0.059511
v 0.062500 0.250000 0.060000
v 0.062500 0.375000 -0.060000
v 0.059410 0.378090 -0.059511
v 0.056622 0.380878 -0.058090
v 0.054410 0.383090 -0.055878
v 0.052989 0.384511 -0.053090
v 0.052500 0.385000 -0.050000
v 0.052500 0.385000 0.050000
v 0.052989 0.384511 0.053090
v 0.054410 0.383090 0.055878
v 0.056622 0.380878 0.058090
v 0.059410 0.378090 0.059511
v 0.062500 0.375000 0.060000
v 0.187500 0.375000 -0.060000
v 0.190590 0.378090 -0.059511
v 0.193378 0.380878 -0.058090
v 0.195590 0.383090 -0.055878
v 0.197011 0.384511 -0.053090
v 0.197500 0.385000 -0.050000
v 0.197500 0.385000 0.050000
v 0.197011 0.384511 0.053090
v 0.195590 0.383090 0.055878
v 0.193378 0.380878 0.058090
v 0.190590 0.378090 0.059511
v 0.187500 0.375000 0.060000
v 0.187500 -0.375000 -0.060000
v 0.190590 -0.378090 -0.059511
v 0.193378 -0.380878 -0.058090
v 0.195590 -0.383090 -0.055878
v 0.197011 -0.384511 -0.053090
v 0.197500 -0.385000 -0.050000
v 0.197500 -0.385000 0.050000
v 0.197011 -0.384511 0.053090
v 0.195590 -0.383090 0.055878
v 0.193378 -0.380878 0.058090
v 0.190590 -0.378090 0.059511
v 0.187500 -0.375000 0.060000
v -0.187500 0.000000 -0.060000
v -0.190590 -0.003090 -0.059511
v -0.193378 -0.005878 -0.058090
v -0.195590 -0.008090 -0.055878
v -0.197011 -0.009511 -0.053090
v -0.197500 -0.010000 -0.050000
v -0.197500 -0.010000 0.050000
v -0.197011 -0.009511 0.053090
v -0.195590 -0.008090 0.055878
v -0.193378 -0.005878 0.058090
v -0.190590 -0.003090 0.059511
v -0.187500 -0.000000 0.060000
v -0.187500 0.125000 -0.060000
v -0.190590 0.128090 -0.059511
v -0.193378 0.130878 -0.058090
v -0.195590 0.133090 -0.055878
v -0.197011 0.134511 -0.053090
v -0.197500 0.135000 -0.050000
v -0.197500 0.135000 0.050000
v -0.197011 0.134511 0.053090
v -0.195590 0.133090 0.055878
v -0.193378 0.130878 0.058090
v -0.190590 0.128090 0.059511
v -0.187500 0.125000 0.060000
v -0.062500 0.125000 -0.060000
v -0.059410 0.128090 -0.059511
v -0.056622 0.130878 -0.058090
v -0.054410 0.133090 -0.055878
v -0.052989 0.134511 -0.053090
v -0.052500 0.135000 -0.050000
v -0.052500 0.135000 0.050000
v -0.052989 0.134511 0.053090
v -0.054410 0.133090 0.055878
v -0.056622 0.130878 0.058090
v -0.059410 0.128090 0.059511
v -0.062500 0.125000 0.060000
v -0.062500 0.000000 -0.060000
v -0.059410 -0.003090 -0.059511
v -0.056622 -0.005878 -0.058090
v -0.054410 -0.008090 -0.055878
v -0.052989 -0.009511 -0.053090
v -0.052500 -0.010000 -0.050000
v -0.052500 -0.010000 0.050000
v -0.052989 -0.009511 0.053090
v -0.054410 -0.008090 0.055878
v -0.056622 -0.005878 0.058090
v -0.059410 -0.003090 0.059511
v -0.062500 -0.000000 0.060000
vn -0.0000 -0.0000 1.0000
vn -0.0000 -0.0000 -1.0000
vn -0.1203 -0.1203 -0.9854
vn -0.0787 -0.0787 -0.9938
vn -0.1980 -0.1980 -0.9600
vn -0.2882 -0.2882 -0.9132
vn -0.3610 -0.3610 -0.8599
vn -0.4666 -0.4666 -0.7513
vn -0.5226 -0.5226 -0.6736
vn -0.6319 -0.6319 -0.4487
vn -0.6543 -0.6543 -0.3792
vn -0.7023 -0.7024 -0.1158
vn -0.7032 -0.7032 -0.1049
vn -0.7023 -0.7024 0.1158
vn -0.7032 -0.7032 0.1049
vn -0.6543 -0.6543 0.3792
vn -0.5226 -0.5226 0.6736
vn -0.6319 -0.6319 0.4487
vn -0.3610 -0.3610 0.8599
vn -0.4666 -0.4666 0.7513
vn -0.1980 -0.1980 0.9600
vn -0.2882 -0.2882 0.9132
vn -0.0787 -0.0787 0.9938
vn -0.1203 -0.1203 0.9854
vn -0.6543 -0.6543 -0.3793
vn -0.6543 -0.6543 0.3793
vn -0.1980 0.1980 -0.9600
vn -0.3610 0.3610 -0.8599
vn -0.5226 0.5226 -0.6736
vn -0.6543 0.6543 -0.3792
vn -0.7032 0.7032 -0.1049
vn -0.7032 0.7032 0.1049
vn -0.6543 0.6543 0.3792
vn -0.3610 0.3610 0.8599
vn -0.1980 0.1980 0.9600
vn -0.0787 0.0787 0.9938
vn -0.1203 0.1203 -0.9854
vn -0.0787 0.0787 -0.9938
vn -0.2882 0.2882 -0.9132
vn -0.4666 0.4666 -0.7513
vn -0.6319 0.6319 -0.4487
vn -0.7024 0.7024 -0.1158
vn -0.7024 0.7024 0.1158
vn -0.5226 0.5226 0.6736
vn -0.6319 0.6319 0.4487
vn -0.4666 0.4666 0.7513
vn -0.2882 0.2882 0.9132
vn -0.1203 0.1203 0.9854
vn 0.1980 0.1980 -0.9600
vn 0.3610 0.3610 -0.8599
vn 0.6543 0.6543 -0.3793
vn 0.7032 0.7032 0.1049
vn 0.6543 0.6543 0.3792
vn 0.5226 0.5226 0.6736
vn 0.3610 0.3610 0.8599
vn 0.1980 0.1980 0.9600
vn 0.0787 0.0787 0.9938
vn 0.1980 -0.1980 -0.9600
vn 0.0787 0.0787 -0.9938
vn 0.3610 -0.3610 -0.8599
vn 0.5226 -0.5226 -0.6736
vn 0.5226 0.5226 -0.6736
vn 0.6543 -0.6543 -0.3792
vn 0.7032 -0.7032 -0.1049
vn 0.7032 0.7032 -0.1049
vn 0.7032 -0.7032 0.1049
vn 0.6543 -0.6543 0.3793
vn 0.5226 -0.5226 0.6736
vn 0.3610 -0.3610 0.8599
vn 0.1980 -0.1980 0.9600
vn 0.0787 -0.0787 0.9938
vn 0.0787 -0.0787 -0.9938
vn -0.6543 0.6543 -0.3793
vn -0.6543 0.6543 0.3793
vn 0.6543 0.6543 0.3793
vn 0.6543 -0.6543 0.3792
vt 0.363636 0.000000
vt 0.545455 0.000000
vt 0.454545 0.000000
vt 0.636364 0.000000
vt 0.181818 0.000000
vt 0.272727 0.000000
vt 0.090909 0.000000
vt 0.727273 0.000000
vt 0.909091 0.000000
vt 0.818182 0.000000
vt 1.000000 0.000000
vt 0.000000 0.000000
vt 0.125000 0.090909
vt 0.000000 0.090909
vt 0.125000 0.181818
vt 0.000000 0.181818
vt 0.125000 0.272727
vt 0.000000 0.272727
vt 0.125000 0.363636
vt 0.000000 0.363636
vt 0.125000 0.454545
vt 0.000000 0.454545
vt 0.125000 0.545455
vt 0.000000 0.545455
vt 0.000000 0.636364
vt 0.000000 0.727273
vt 0.125000 0.636364
vt 0.000000 0.818182
vt 0.125000 0.727273
vt 0.000000 0.909091
vt 0.125000 0.818182
vt 0.000000 1.000000
vt 0.125000 0.909091
vt 0.250000 0.000000
vt 0.125000 0.000000
vt 0.250000 0.090909
vt 0.250000 0.181818
vt 0.250000 0.272727
vt 0.250000 0.363636
vt 0.250000 0.545455
vt 0.250000 0.636364
vt 0.250000 0.727273
vt 0.250000 0.818182
vt 0.250000 0.909091
vt 0.250000 1.000000
vt 0.125000 1.000000
vt 0.375000 0.090909
vt 0.375000 0.181818
vt 0.375000 0.272727
vt 0.375000 0.363636
vt 0.375000 0.454545
vt 0.250000 0.454545
vt 0.375000 0.545455
vt 0.375000 0.636364
vt 0.375000 0.818182
vt 0.375000 0.909091
vt 0.375000 1.000000
vt 0.500000 0.090909
vt 0.375000 0.000000
vt 0.500000 0.181818
vt 0.500000 0.272727
vt 0.500000 0.363636
vt 0.500000 0.454545
vt 0.500000 0.545455
vt 0.375000 0.727273
vt 0.500000 0.636364
vt 0.500000 0.727273
vt 0.500000 0.818182
vt 0.500000 0.909091
vt 0.625000 0.000000
vt 0.500000 0.000000
vt 0.625000 0.090909
vt 0.625000 0.181818
vt 0.625000 0.272727
vt 0.625000 0.363636
vt 0.625000 0.454545
vt 0.625000 0.636364
vt 0.625000 0.727273
vt 0.625000 0.818182
vt 0.625000 0.909091
vt 0.625000 1.000000
vt 0.500000 1.000000
vt 0.750000 0.090909
vt 0.750000 0.181818
vt 0.750000 0.363636
vt 0.750000 0.545455
vt 0.625000 0.545455
vt 0.750000 0.636364
vt 0.750000 0.727273
vt 0.750000 0.818182
vt 0.750000 0.909091
vt 0.750000 1.000000
vt 0.875000 0.090909
vt 0.750000 0.000000
vt 0.875000 0.181818
vt 0.875000 0.272727
vt 0.750000 0.272727
vt 0.875000 0.363636
vt 0.875000 0.454545
vt 0.750000 0.454545
vt 0.875000 0.545455
vt 0.875000 0.636364
vt 0.875000 0.727273
vt 0.875000 0.818182
vt 0.875000 0.909091
vt 0.875000 1.000000
vt 0.875000 0.000000
vt 1.000000 0.181818
vt 1.000000 0.272727
vt 1.000000 0.363636
vt 1.000000 0.454545
vt 1.000000 0.545455
vt 1.000000 0.636364
vt 1.000000 0.727273
vt 1.000000 0.818182
vt 1.000000 0.909091
vt 1.000000 1.000000
vt 1.000000 0.090909
s 0
usemtl マテリアル.001
f 5/1/1 7/2/1 6/3/1
f 5/1/1 8/4/1 7/2/1
f 3/5/1 5/1/1 4/6/1
f 3/5/1 2/7/1 5/1/1
f 2/7/1 8/4/1 5/1/1
f 9/8/1 11/9/1 10/10/1
f 9/8/1 12/11/1 11/9/1
f 1/12/1 8/4/1 2/7/1
f 17/1/2 18/3/2 19/2/2
f 17/1/2 19/2/2 20/4/2
f 15/5/2 16/6/2 17/1/2
f 15/5/2 17/1/2 14/7/2
f 14/7/2 17/1/2 20/4/2
f 21/8/2 22/10/2 23/9/2
f 21/8/2 23/9/2 24/11/2
f 13/12/2 14/7/2 20/4/2
s 1
f 38/13/3 25/12/4 26/14/5
f 39/15/6 26/14/5 27/16/7
f 40/17/8 27/16/7 28/18/9
f 41/19/10 28/18/9 29/20/11
f 42/21/12 29/20/11 30/22/13
f 43/23/14 30/22/13 31/24/15
f 32/25/16 43/23/14 31/24/15
f 33/26/17 44/27/18 32/25/16
f 34/28/19 45/29/20 33/26/17
f 35/30/21 46/31/22 34/28/19
f 36/32/23 47/33/24 35/30/21
f 38/13/3 49/34/4 37/35/4
f 39/15/6 50/36/5 38/13/3
f 40/17/8 51/37/7 39/15/6
f 41/19/10 52/38/9 40/17/8
f 42/21/12 53/39/25 41/19/10
f 55/40/15 42/21/12 43/23/14
f 56/41/26 43/23/14 44/27/18
f 57/42/17 44/27/18 45/29/20
f 58/43/19 45/29/20 46/31/22
f 59/44/21 46/31/22 47/33/24
f 60/45/23 47/33/24 48/46/23
f 62/47/27 49/34/4 50/36/5
f 63/48/28 50/36/5 51/37/7
f 64/49/29 51/37/7 52/38/9
f 65/50/30 52/38/9 53/39/25
f 66/51/31 53/39/25 54/52/13
f 67/53/32 54/52/13 55/40/15
f 56/41/26 67/53/32 55/40/15
f 57/42/17 68/54/33 56/41/26
f 70/55/34 57/42/17 58/43/19
f 71/56/35 58/43/19 59/44/21
f 72/57/36 59/44/21 60/45/23
f 74/58/37 61/59/38 62/47/27
f 75/60/39 62/47/27 63/48/28
f 76/61/40 63/48/28 64/49/29
f 77/62/41 64/49/29 65/50/30
f 78/63/42 65/50/30 66/51/31
f 79/64/43 66/51/31 67/53/32
f 68/54/33 79/64/43 67/53/32
f 69/65/44 80/66/45 68/54/33
f 70/55/34 81/67/46 69/65/44
f 71/56/35 82/68/47 70/55/34
f 72/57/36 83/69/48 71/56/35
f 74/58/37 85/70/38 73/71/38
f 75/60/39 86/72/27 74/58/37
f 76/61/40 87/73/28 75/60/39
f 77/62/41 88/74/29 76/61/40
f 78/63/42 89/75/30 77/62/41
f 79/64/43 90/76/31 78/63/42
f 92/77/33 79/64/43 80/66/45
f 93/78/44 80/66/45 81/67/46
f 94/79/34 81/67/46 82/68/47
f 95/80/35 82/68/47 83/69/48
f 96/81/36 83/69/48 84/82/36
f 98/83/49 85/70/38 86/72/27
f 99/84/50 86/72/27 87/73/28
f 88/74/29 99/84/50 87/73/28
f 101/85/51 88/74/29 89/75/30
f 90/76/31 101/85/51 89/75/30
f 103/86/52 90/76/31 91/87/32
f 104/88/53 91/87/32 92/77/33
f 105/89/54 92/77/33 93/78/44
f 106/90/55 93/78/44 94/79/34
f 107/91/56 94/79/34 95/80/35
f 108/92/57 95/80/35 96/81/36
f 110/93/58 97/94/59 98/83/49
f 111/95/60 98/83/49 99/84/50
f 112/96/61 99/84/50 100/97/62
f 113/98/63 100/97/62 101/85/51
f 114/99/64 101/85/51 102/100/65
f 115/101/66 102/100/65 103/86/52
f 116/102/67 103/86/52 104/88/53
f 117/103/68 104/88/53 105/89/54
f 118/104/69 105/89/54 106/90/55
f 119/105/70 106/90/55 107/91/56
f 120/106/71 107/91/56 108/92/57
f 110/93/58 25/11/4 109/107/72
f 27/108/7 110/93/58 111/95/60
f 28/109/9 111/95/60 112/96/61
f 29/110/11 112/96/61 113/98/63
f 30/111/13 113/98/63 114/99/64
f 31/112/15 114/99/64 115/101/66
f 32/113/16 115/101/66 116/102/67
f 33/114/17 116/102/67 117/103/68
f 34/115/19 117/103/68 118/104/69
f 35/116/21 118/104/69 119/105/70
f 36/117/23 119/105/70 120/106/71
f 134/36/27 121/12/4 122/14/5
f 135/37/28 122/14/5 123/16/7
f 136/38/29 123/16/7 124/18/9
f 137/39/73 124/18/9 125/20/25
f 138/52/31 125/20/25 126/22/13
f 127/24/15 138/52/31 126/22/13
f 140/41/74 127/24/15 128/25/26
f 141/42/44 128/25/26 129/26/17
f 142/43/34 129/26/17 130/28/19
f 143/44/35 130/28/19 131/30/21
f 144/45/36 131/30/21 132/32/23
f 146/58/49 133/34/38 134/36/27
f 147/60/50 134/36/27 135/37/28
f 136/38/29 147/60/50 135/37/28
f 149/62/51 136/38/29 137/39/73
f 150/63/65 137/39/73 138/52/31
f 151/64/52 138/52/31 139/40/32
f 152/66/75 139/40/32 140/41/74
f 153/67/54 140/41/74 141/42/44
f 154/68/55 141/42/44 142/43/34
f 155/69/56 142/43/34 143/44/35
f 156/82/57 143/44/35 144/45/36
f 158/83/58 145/71/59 146/58/49
f 159/84/60 146/58/49 147/60/50
f 160/97/61 147/60/50 148/61/62
f 149/62/51 160/97/61 148/61/62
f 162/100/64 149/62/51 150/63/65
f 163/86/66 150/63/65 151/64/52
f 164/88/76 151/64/52 152/66/75
f 165/89/68 152/66/75 153/67/54
f 166/90/69 153/67/54 154/68/55
f 167/91/70 154/68/55 155/69/56
f 168/92/71 155/69/56 156/82/57
f 122/118/5 157/94/72 158/83/58
f 123/108/7 158/83/58 159/84/60
f 124/109/9 159/84/60 160/97/61
f 161/85/63 124/109/9 160/97/61
f 162/100/64 125/110/25 161/85/63
f 127/112/15 162/100/64 163/86/66
f 128/113/26 163/86/66 164/88/76
f 129/114/17 164/88/76 165/89/68
f 130/115/19 165/89/68 166/90/69
f 131/116/21 166/90/69 167/91/70
f 132/117/23 167/91/70 168/92/71
f 38/13/3 37/35/4 25/12/4
f 39/15/6 38/13/3 26/14/5
f 40/17/8 39/15/6 27/16/7
f 41/19/10 40/17/8 28/18/9
f 42/21/12 41/19/10 29/20/11
f 43/23/14 42/21/12 30/22/13
f 32/25/16 44/27/18 43/23/14
f 33/26/17 45/29/20 44/27/18
f 34/28/19 46/31/22 45/29/20
f 35/30/21 47/33/24 46/31/22
f 36/32/23 48/46/23 47/33/24
f 38/13/3 50/36/5 49/34/4
f 39/15/6 51/37/7 50/36/5
f 40/17/8 52/38/9 51/37/7
f 41/19/10 53/39/25 52/38/9
f 42/21/12 54/52/13 53/39/25
f 55/40/15 54/52/13 42/21/12
f 56/41/26 55/40/15 43/23/14
f 57/42/17 56/41/26 44/27/18
f 58/43/19 57/42/17 45/29/20
f 59/44/21 58/43/19 46/31/22
f 60/45/23 59/44/21 47/33/24
f 62/47/27 61/59/38 49/34/4
f 63/48/28 62/47/27 50/36/5
f 64/49/29 63/48/28 51/37/7
f 65/50/30 64/49/29 52/38/9
f 66/51/31 65/50/30 53/39/25
f 67/53/32 66/51/31 54/52/13
f 56/41/26 68/54/33 67/53/32
f 57/42/17 69/65/44 68/54/33
f 70/55/34 69/65/44 57/42/17
f 71/56/35 70/55/34 58/43/19
f 72/57/36 71/56/35 59/44/21
f 74/58/37 73/71/38 61/59/38
f 75/60/39 74/58/37 62/47/27
f 76/61/40 75/60/39 63/48/28
f 77/62/41 76/61/40 64/49/29
f 78/63/42 77/62/41 65/50/30
f 79/64/43 78/63/42 66/51/31
f 68/54/33 80/66/45 79/64/43
f 69/65/44 81/67/46 80/66/45
f 70/55/34 82/68/47 81/67/46
f 71/56/35 83/69/48 82/68/47
f 72/57/36 84/82/36 83/69/48
f 74/58/37 86/72/27 85/70/38
f 75/60/39 87/73/28 86/72/27
f 76/61/40 88/74/29 87/73/28
f 77/62/41 89/75/30 88/74/29
f 78/63/42 90/76/31 89/75/30
f 79/64/43 91/87/32 90/76/31
f 92/77/33 91/87/32 79/64/43
f 93/78/44 92/77/33 80/66/45
f 94/79/34 93/78/44 81/67/46
f 95/80/35 94/79/34 82/68/47
f 96/81/36 95/80/35 83/69/48
f 98/83/49 97/94/59 85/70/38
f 99/84/50 98/83/49 86/72/27
f 88/74/29 100/97/62 99/84/50
f 101/85/51 100/97/62 88/74/29
f 90/76/31 102/100/65 101/85/51
f 103/86/52 102/100/65 90/76/31
f 104/88/53 103/86/52 91/87/32
f 105/89/54 104/88/53 92/77/33
f 106/90/55 105/89/54 93/78/44
f 107/91/56 106/90/55 94/79/34
f 108/92/57 107/91/56 95/80/35
f 110/93/58 109/107/72 97/94/59
f 111/95/60 110/93/58 98/83/49
f 112/96/61 111/95/60 99/84/50
f 113/98/63 112/96/61 100/97/62
f 114/99/64 113/98/63 101/85/51
f 115/101/66 114/99/64 102/100/65
f 116/102/67 115/101/66 103/86/52
f 117/103/68 116/102/67 104/88/53
f 118/104/69 117/103/68 105/89/54
f 119/105/70 118/104/69 106/90/55
f 120/106/71 119/105/70 107/91/56
f 110/93/58 26/118/5 25/11/4
f 27/108/7 26/118/5 110/93/58
f 28/109/9 27/108/7 111/95/60
f 29/110/11 28/109/9 112/96/61
f 30/111/13 29/110/11 113/98/63
f 31/112/15 30/111/13 114/99/64
f 32/113/16 31/112/15 115/101/66
f 33/114/17 32/113/16 116/102/67
f 34/115/19 33/114/17 117/103/68
f 35/116/21 34/115/19 118/104/69
f 36/117/23 35/116/21 119/105/70
f 134/36/27 133/34/38 121/12/4
f 135/37/28 134/36/27 122/14/5
f 136/38/29 135/37/28 123/16/7
f 137/39/73 136/38/29 124/18/9
f 138/52/31 137/39/73 125/20/25
f 127/24/15 139/40/32 138/52/31
f 140/41/74 139/40/32 127/24/15
f 141/42/44 140/41/74 128/25/26
f 142/43/34 141/42/44 129/26/17
f 143/44/35 142/43/34 130/28/19
f 144/45/36 143/44/35 131/30/21
f 146/58/49 145/71/59 133/34/38
f 147/60/50 146/58/49 134/36/27
f 136/38/29 148/61/62 147/60/50
f 149/62/51 148/61/62 136/38/29
f 150/63/65 149/62/51 137/39/73
f 151/64/52 150/63/65 138/52/31
f 152/66/75 151/64/52 139/40/32
f 153/67/54 152/66/75 140/41/74
f 154/68/55 153/67/54 141/42/44
f 155/69/56 154/68/55 142/43/34
f 156/82/57 155/69/56 143/44/35
f 158/83/58 157/94/72 145/71/59
f 159/84/60 158/83/58 146/58/49
f 160/97/61 159/84/60 147/60/50
f 149/62/51 161/85/63 160/97/61
f 162/100/64 161/85/63 149/62/51
f 163/86/66 162/100/64 150/63/65
f 164/88/76 163/86/66 151/64/52
f 165/89/68 164/88/76 152/66/75
f 166/90/69 165/89/68 153/67/54
f 167/91/70 166/90/69 154/68/55
f 168/92/71 167/91/70 155/69/56
f 122/118/5 121/11/4 157/94/72
f 123/108/7 122/118/5 158/83/58
f 124/109/9 123/108/7 159/84/60
f 161/85/63 125/110/25 124/109/9
f 162/100/64 126/111/13 125/110/25
f 127/112/15 126/111/13 162/100/64
f 128/113/26 127/112/15 163/86/66
f 129/114/17 128/113/26 164/88/76
f 130/115/19 129/114/17 165/89/68
f 131/116/21 130/115/19 166/90/69
f 132/117/23 131/116/21 167/91/70
