# Blender 4.4.0
# www.blender.org
mtllib 4.mtl
o テキスト.001
v -0.276926 -0.172462 0.052647
v -0.026926 -0.172462 -0.067353
v -0.026926 -0.172462 0.052647
v -0.276926 -0.172462 -0.067353
v -0.276926 0.202538 -0.067353
v -0.276926 0.202538 0.052647
v -0.151926 0.202538 -0.067353
v -0.151926 0.202538 0.052647
v -0.151926 0.327538 -0.067353
v -0.151926 0.327538 0.052647
v -0.026926 0.327538 -0.067353
v -0.026926 0.327538 0.052647
v -0.026926 0.452538 -0.067353
v -0.026926 0.452538 0.052647
v 0.098074 0.452538 -0.067353
v 0.098074 0.452538 0.052647
v 0.098074 -0.422462 -0.067353
v 0.098074 -0.422462 0.052647
v -0.026926 -0.422462 -0.067353
v -0.026926 -0.422462 0.052647
v -0.151926 -0.047462 -0.067353
v -0.151926 -0.047462 0.052647
v -0.026926 -0.047462 -0.067353
v -0.026926 -0.047462 0.052647
v -0.026926 0.202538 -0.067353
v -0.026926 0.202538 0.052647
v 0.098074 -0.047662 0.052647
v -0.026926 -0.047662 0.052647
v 0.044531 -0.047662 0.052647
v 0.098074 -0.173538 0.052647
v -0.026926 -0.173538 0.052647
v 0.062514 -0.173538 0.052647
v 0.098074 -0.047754 -0.067353
v 0.098074 -0.047701 0.001252
v 0.098074 -0.172033 -0.067353
v 0.098074 -0.173109 0.018450
v 0.218072 -0.047662 0.052647
v 0.218072 -0.173538 0.052647
v 0.218072 -0.047701 0.001252
v 0.218072 -0.047754 -0.067353
v 0.218072 -0.172033 -0.067353
v 0.218072 -0.173109 0.018450
vn -0.0000 -0.0000 1.0000
vn -0.0000 -1.0000 -0.0000
vn -1.0000 -0.0000 -0.0000
vn -0.0000 1.0000 -0.0000
vn 1.0000 -0.0000 -0.0000
vn -0.0000 -0.0000 -1.0000
vn -0.0000 -0.9999 -0.0125
vn -0.0000 1.0000 -0.0008
vt 0.743103 1.000000
vt 0.900000 1.000000
vt 0.800000 1.000000
vt 0.100000 1.000000
vt 0.000000 0.000000
vt 0.000000 1.000000
vt 0.200000 1.000000
vt 0.100000 0.000000
vt 0.300000 1.000000
vt 0.200000 0.000000
vt 0.400000 1.000000
vt 0.300000 0.000000
vt 0.500000 1.000000
vt 0.400000 0.000000
vt 0.600000 1.000000
vt 0.500000 0.000000
vt 0.700000 1.000000
vt 0.600000 0.000000
vt 0.771503 0.715026
vt 0.771552 1.000000
vt 0.800000 0.000000
vt 1.000000 1.000000
vt 0.900000 0.000000
vt 0.250000 1.000000
vt 0.250000 0.000000
vt 0.750000 1.000000
vt 0.750000 0.000000
vt 0.700000 0.000000
vt 1.000000 0.000000
vt 0.757176 0.000000
vt 0.771380 0.000000
vt 0.771497 1.000000
vt 0.714332 1.000000
vt 0.814655 1.000000
vt 0.757166 1.000000
vt 0.757170 0.571703
s 1
usemtl マテリアル.012
f 32/1/1 20/2/1 18/3/1
f 1/4/2 2/5/2 3/6/2
f 6/7/3 4/8/3 1/4/3
f 8/9/4 5/10/4 6/7/4
f 10/11/3 7/12/3 8/9/3
f 12/13/4 9/14/4 10/11/4
f 14/15/3 11/16/3 12/13/3
f 16/17/4 13/18/4 14/15/4
f 18/3/5 36/19/5 30/20/5
f 20/2/2 17/21/2 18/3/2
f 3/22/3 19/23/3 20/2/3
f 22/24/5 7/5/5 8/6/5
f 24/13/4 21/25/4 22/24/4
f 26/26/3 23/16/3 24/13/3
f 8/22/2 25/27/2 26/26/2
f 26/26/1 10/11/1 8/22/1
f 22/24/1 6/7/1 1/4/1
f 3/6/1 22/24/1 1/4/1
f 15/28/6 19/23/6 13/18/6
f 25/27/6 9/14/6 11/16/6
f 5/10/6 21/25/6 4/8/6
f 2/5/6 21/25/6 23/16/6
f 18/3/1 30/20/1 32/1/1
f 1/4/2 4/8/2 2/5/2
f 6/7/3 5/10/3 4/8/3
f 8/9/4 7/12/4 5/10/4
f 10/11/3 9/14/3 7/12/3
f 12/13/4 11/16/4 9/14/4
f 14/15/3 13/18/3 11/16/3
f 16/17/4 15/28/4 13/18/4
f 17/21/5 36/19/5 18/3/5
f 20/2/2 19/23/2 17/21/2
f 3/22/3 2/29/3 19/23/3
f 22/24/5 21/25/5 7/5/5
f 24/13/4 23/16/4 21/25/4
f 26/26/3 25/27/3 23/16/3
f 8/22/2 7/29/2 25/27/2
f 26/26/1 12/13/1 10/11/1
f 22/24/1 8/6/1 6/7/1
f 3/6/1 24/13/1 22/24/1
f 33/30/6 35/31/6 19/23/6
f 25/27/6 7/29/6 9/14/6
f 5/10/6 7/5/6 21/25/6
f 2/5/6 4/8/6 21/25/6
f 28/32/1 29/33/1 14/15/1
f 29/33/1 16/17/1 14/15/1
f 31/34/1 29/33/1 28/32/1
f 32/1/1 27/35/1 29/33/1
f 34/36/5 33/30/5 15/28/5
f 34/36/5 16/17/5 27/35/5
f 35/31/7 42/19/7 36/19/7
f 27/35/8 39/36/8 34/36/8
f 41/31/5 39/36/5 42/19/5
f 42/19/5 37/35/5 38/20/5
f 30/20/1 37/35/1 27/35/1
f 33/30/6 41/31/6 35/31/6
f 34/36/8 40/30/8 33/30/8
f 36/19/7 38/20/7 30/20/7
f 32/1/1 31/34/1 20/2/1
f 17/21/5 35/31/5 36/19/5
f 19/23/6 15/28/6 33/30/6
f 35/31/6 17/21/6 19/23/6
f 29/33/1 27/35/1 16/17/1
f 31/34/1 32/1/1 29/33/1
f 32/1/1 30/20/1 27/35/1
f 34/36/5 15/28/5 16/17/5
f 35/31/7 41/31/7 42/19/7
f 27/35/8 37/35/8 39/36/8
f 41/31/5 40/30/5 39/36/5
f 42/19/5 39/36/5 37/35/5
f 30/20/1 38/20/1 37/35/1
f 33/30/6 40/30/6 41/31/6
f 34/36/8 39/36/8 40/30/8
f 36/19/7 42/19/7 38/20/7
