# Blender 4.4.0
# www.blender.org
mtllib 5.mtl
o 5
v -0.187500 -0.375000 0.030000
v -0.187500 -0.250000 0.030000
v 0.062500 -0.250000 0.030000
v 0.062500 -0.000000 0.030000
v -0.187500 -0.000000 0.030000
v -0.187500 0.375000 0.030000
v 0.187500 0.375000 0.030000
v 0.187500 0.250000 0.030000
v -0.062500 0.250000 0.030000
v -0.062500 0.125000 0.030000
v 0.187500 0.125000 0.030000
v 0.187500 -0.375000 0.030000
v -0.187500 -0.375000 -0.030000
v -0.187500 -0.250000 -0.030000
v 0.062500 -0.250000 -0.030000
v 0.062500 0.000000 -0.030000
v -0.187500 0.000000 -0.030000
v -0.187500 0.375000 -0.030000
v 0.187500 0.375000 -0.030000
v 0.187500 0.250000 -0.030000
v -0.062500 0.250000 -0.030000
v -0.062500 0.125000 -0.030000
v 0.187500 0.125000 -0.030000
v 0.187500 -0.375000 -0.030000
v -0.187500 -0.375000 -0.030000
v -0.187500 -0.375000 0.030000
v -0.187500 -0.250000 -0.030000
v -0.187500 -0.250000 0.030000
v 0.062500 -0.250000 -0.030000
v 0.062500 -0.250000 0.030000
v 0.062500 0.000000 -0.030000
v 0.062500 -0.000000 0.030000
v -0.187500 0.000000 -0.030000
v -0.187500 -0.000000 0.030000
v -0.187500 0.375000 -0.030000
v -0.187500 0.375000 0.030000
v 0.187500 0.375000 -0.030000
v 0.187500 0.375000 0.030000
v 0.187500 0.250000 -0.030000
v 0.187500 0.250000 0.030000
v -0.062500 0.250000 -0.030000
v -0.062500 0.250000 0.030000
v -0.062500 0.125000 -0.030000
v -0.062500 0.125000 0.030000
v 0.187500 0.125000 -0.030000
v 0.187500 0.125000 0.030000
v 0.187500 -0.375000 -0.030000
v 0.187500 -0.375000 0.030000
vn -0.0000 -0.0000 1.0000
vn -0.0000 -0.0000 -1.0000
vn -0.7071 0.7071 -0.0000
vn -0.7071 -0.7071 -0.0000
vn 0.7071 0.7071 -0.0000
vn 0.7071 -0.7071 -0.0000
vt 0.363636 0.000000
vt 0.727273 0.000000
vt 0.454545 0.000000
vt 0.545455 0.000000
vt 0.636364 0.000000
vt 0.818182 0.000000
vt 0.909091 0.000000
vt 0.272727 0.000000
vt 1.000000 0.000000
vt 0.181818 0.000000
vt 0.000000 0.000000
vt 0.090909 0.000000
vt 0.083333 1.000000
vt 0.000000 1.000000
vt 0.166667 1.000000
vt 0.083333 0.000000
vt 0.250000 1.000000
vt 0.166667 0.000000
vt 0.333333 1.000000
vt 0.250000 0.000000
vt 0.416667 1.000000
vt 0.333333 0.000000
vt 0.500000 1.000000
vt 0.416667 0.000000
vt 0.583333 1.000000
vt 0.500000 0.000000
vt 0.666667 1.000000
vt 0.583333 0.000000
vt 0.750000 1.000000
vt 0.666667 0.000000
vt 0.833333 1.000000
vt 0.750000 0.000000
vt 0.916667 1.000000
vt 0.833333 0.000000
vt 1.000000 1.000000
vt 0.916667 0.000000
s 0
usemtl マテリアル.005
f 5/1/1 9/2/1 6/3/1
f 9/2/1 7/4/1 6/3/1
f 9/2/1 8/5/1 7/4/1
f 5/1/1 10/6/1 9/2/1
f 5/1/1 11/7/1 10/6/1
f 5/1/1 4/8/1 11/7/1
f 4/8/1 12/9/1 11/7/1
f 3/10/1 12/9/1 4/8/1
f 1/11/1 3/10/1 2/12/1
f 1/11/1 12/9/1 3/10/1
f 17/1/2 18/3/2 21/2/2
f 21/2/2 18/3/2 19/4/2
f 21/2/2 19/4/2 20/5/2
f 17/1/2 21/2/2 22/6/2
f 17/1/2 22/6/2 23/7/2
f 17/1/2 23/7/2 16/8/2
f 16/8/2 23/7/2 24/9/2
f 15/10/2 16/8/2 24/9/2
f 13/11/2 14/12/2 15/10/2
f 13/11/2 15/10/2 24/9/2
s 1
f 28/13/3 25/11/4 26/14/4
f 30/15/3 27/16/3 28/13/3
f 32/17/4 29/18/3 30/15/3
f 34/19/4 31/20/4 32/17/4
f 36/21/3 33/22/4 34/19/4
f 38/23/5 35/24/3 36/21/3
f 40/25/6 37/26/5 38/23/5
f 42/27/6 39/28/6 40/25/6
f 44/29/5 41/30/6 42/27/6
f 46/31/5 43/32/5 44/29/5
f 48/33/6 45/34/5 46/31/5
f 26/35/4 47/36/6 48/33/6
f 28/13/3 27/16/3 25/11/4
f 30/15/3 29/18/3 27/16/3
f 32/17/4 31/20/4 29/18/3
f 34/19/4 33/22/4 31/20/4
f 36/21/3 35/24/3 33/22/4
f 38/23/5 37/26/5 35/24/3
f 40/25/6 39/28/6 37/26/5
f 42/27/6 41/30/6 39/28/6
f 44/29/5 43/32/5 41/30/6
f 46/31/5 45/34/5 43/32/5
f 48/33/6 47/36/6 45/34/5
f 26/35/4 25/9/4 47/36/6
