# Blender 4.4.0
# www.blender.org
mtllib 8.mtl
o 8
v -0.187500 -0.375000 0.030000
v -0.187500 0.375000 0.030000
v 0.187500 0.375000 0.030000
v 0.187500 -0.375000 0.030000
v -0.062500 -0.250000 0.030000
v 0.062500 -0.250000 0.030000
v 0.062500 -0.000000 0.030000
v -0.062500 -0.000000 0.030000
v -0.062500 0.125000 0.030000
v 0.062500 0.125000 0.030000
v 0.062500 0.250000 0.030000
v -0.062500 0.250000 0.030000
v -0.187500 -0.375000 -0.030000
v -0.187500 0.375000 -0.030000
v 0.187500 0.375000 -0.030000
v 0.187500 -0.375000 -0.030000
v -0.062500 -0.250000 -0.030000
v 0.062500 -0.250000 -0.030000
v 0.062500 0.000000 -0.030000
v -0.062500 0.000000 -0.030000
v -0.062500 0.125000 -0.030000
v 0.062500 0.125000 -0.030000
v 0.062500 0.250000 -0.030000
v -0.062500 0.250000 -0.030000
v -0.187500 -0.375000 -0.030000
v -0.187500 -0.375000 0.030000
v -0.187500 0.375000 -0.030000
v -0.187500 0.375000 0.030000
v 0.187500 0.375000 -0.030000
v 0.187500 0.375000 0.030000
v 0.187500 -0.375000 -0.030000
v 0.187500 -0.375000 0.030000
v -0.062500 -0.250000 -0.030000
v -0.062500 -0.250000 0.030000
v 0.062500 -0.250000 -0.030000
v 0.062500 -0.250000 0.030000
v 0.062500 0.000000 -0.030000
v 0.062500 -0.000000 0.030000
v -0.062500 0.000000 -0.030000
v -0.062500 -0.000000 0.030000
v -0.062500 0.125000 -0.030000
v -0.062500 0.125000 0.030000
v 0.062500 0.125000 -0.030000
v 0.062500 0.125000 0.030000
v 0.062500 0.250000 -0.030000
v 0.062500 0.250000 0.030000
v -0.062500 0.250000 -0.030000
v -0.062500 0.250000 0.030000
vn -0.0000 -0.0000 1.0000
vn -0.0000 -0.0000 -1.0000
vn -0.7071 0.7071 -0.0000
vn -0.7071 -0.7071 -0.0000
vn 0.7071 0.7071 -0.0000
vn 0.7071 -0.7071 -0.0000
vt 0.000000 0.000000
vt 1.000000 0.000000
vt 0.090909 0.000000
vt 0.181818 0.000000
vt 0.909091 0.000000
vt 0.272727 0.000000
vt 0.727273 0.000000
vt 0.818182 0.000000
vt 0.636364 0.000000
vt 0.545455 0.000000
vt 0.363636 0.000000
vt 0.454545 0.000000
vt 0.250000 1.000000
vt 0.000000 1.000000
vt 0.500000 1.000000
vt 0.250000 0.000000
vt 0.750000 1.000000
vt 0.500000 0.000000
vt 1.000000 1.000000
vt 0.750000 0.000000
s 0
usemtl マテリアル.008
f 1/1/1 12/2/1 2/3/1
f 12/2/1 3/4/1 2/3/1
f 12/2/1 11/5/1 3/4/1
f 11/5/1 4/6/1 3/4/1
f 1/1/1 9/7/1 12/2/1
f 10/8/1 4/6/1 11/5/1
f 1/1/1 8/9/1 9/7/1
f 8/9/1 10/8/1 9/7/1
f 8/9/1 7/10/1 10/8/1
f 7/10/1 4/6/1 10/8/1
f 1/1/1 5/11/1 8/9/1
f 6/12/1 4/6/1 7/10/1
f 1/1/1 6/12/1 5/11/1
f 1/1/1 4/6/1 6/12/1
f 13/1/2 14/3/2 24/2/2
f 24/2/2 14/3/2 15/4/2
f 24/2/2 15/4/2 23/5/2
f 23/5/2 15/4/2 16/6/2
f 13/1/2 24/2/2 21/7/2
f 22/8/2 23/5/2 16/6/2
f 13/1/2 21/7/2 20/9/2
f 20/9/2 21/7/2 22/8/2
f 20/9/2 22/8/2 19/10/2
f 19/10/2 22/8/2 16/6/2
f 13/1/2 20/9/2 17/11/2
f 18/12/2 19/10/2 16/6/2
f 13/1/2 17/11/2 18/12/2
f 13/1/2 18/12/2 16/6/2
s 1
f 28/13/3 25/1/4 26/14/4
f 30/15/5 27/16/3 28/13/3
f 32/17/6 29/18/5 30/15/5
f 26/19/4 31/20/6 32/17/6
f 36/13/3 33/1/5 34/14/5
f 38/15/4 35/16/3 36/13/3
f 40/17/6 37/18/4 38/15/4
f 34/19/5 39/20/6 40/17/6
f 44/13/3 41/1/5 42/14/5
f 46/15/4 43/16/3 44/13/3
f 48/17/6 45/18/4 46/15/4
f 42/19/5 47/20/6 48/17/6
f 28/13/3 27/16/3 25/1/4
f 30/15/5 29/18/5 27/16/3
f 32/17/6 31/20/6 29/18/5
f 26/19/4 25/2/4 31/20/6
f 36/13/3 35/16/3 33/1/5
f 38/15/4 37/18/4 35/16/3
f 40/17/6 39/20/6 37/18/4
f 34/19/5 33/2/5 39/20/6
f 44/13/3 43/16/3 41/1/5
f 46/15/4 45/18/4 43/16/3
f 48/17/6 47/20/6 45/18/4
f 42/19/5 41/2/5 47/20/6
