# Blender 4.4.1
# www.blender.org
mtllib controlTextobj.mtl
o テキスト
v 0.781250 -0.437500 0.200000
v 0.781250 -0.125000 0.200000
v 1.531250 -0.125000 0.200000
v 1.531250 -0.000000 0.200000
v 0.781250 -0.000000 0.200000
v 0.781250 0.125000 0.200000
v 1.281250 0.125000 0.200000
v 1.281250 0.312500 0.200000
v 0.781250 0.312500 0.200000
v 0.781250 0.437500 0.200000
v 1.406250 0.437500 0.200000
v 1.406250 0.125000 0.200000
v 1.656250 0.125000 0.200000
v 1.656250 -0.437500 0.200000
v 0.906250 -0.312500 0.200000
v 1.531250 -0.312500 0.200000
v 1.531250 -0.250000 0.200000
v 0.906250 -0.250000 0.200000
v 0.031250 -0.437500 0.200000
v 0.031250 -0.125000 0.200000
v 0.406250 -0.125000 0.200000
v 0.406250 0.250000 0.200000
v 0.031250 0.250000 0.200000
v 0.031250 0.375000 0.200000
v 0.406250 0.375000 0.200000
v 0.406250 0.437500 0.200000
v 0.531250 0.437500 0.200000
v 0.531250 0.375000 0.200000
v 0.718750 0.375000 0.200000
v 0.718750 0.062500 0.200000
v 0.531250 0.062500 0.200000
v 0.531250 -0.125000 0.200000
v 0.718750 -0.125000 0.200000
v 0.718750 -0.250000 0.200000
v 0.531250 -0.250000 0.200000
v 0.531250 -0.437500 0.200000
v 0.156250 -0.312500 0.200000
v 0.406250 -0.312500 0.200000
v 0.406250 -0.250000 0.200000
v 0.156250 -0.250000 0.200000
v 0.531250 0.187500 0.200000
v 0.593750 0.187500 0.200000
v 0.593750 0.250000 0.200000
v 0.531250 0.250000 0.200000
v -0.156250 -0.437500 0.200000
v -0.156250 0.437500 0.200000
v -0.031250 0.437500 0.200000
v -0.031250 -0.437500 0.200000
v -0.718750 -0.437500 0.200000
v -0.718750 -0.250000 0.200000
v -0.656250 -0.250000 0.200000
v -0.656250 -0.312500 0.200000
v -0.343750 -0.312500 0.200000
v -0.343750 -0.000000 0.200000
v -0.781250 -0.000000 0.200000
v -0.781250 0.125000 0.200000
v -0.218750 0.125000 0.200000
v -0.218750 -0.437500 0.200000
v -1.593750 -0.437500 0.200000
v -1.593750 0.312500 0.200000
v -1.718750 0.312500 0.200000
v -1.718750 0.437500 0.200000
v -1.468750 0.437500 0.200000
v -1.468750 -0.312500 0.200000
v -1.093750 -0.312500 0.200000
v -1.093750 0.437500 0.200000
v -0.843750 0.437500 0.200000
v -0.843750 0.312500 0.200000
v -0.968750 0.312500 0.200000
v -0.968750 -0.437500 0.200000
v 0.781250 -0.437500 -0.200000
v 0.781250 -0.125000 -0.200000
v 1.531250 -0.125000 -0.200000
v 1.531250 0.000000 -0.200000
v 0.781250 0.000000 -0.200000
v 0.781250 0.125000 -0.200000
v 1.281250 0.125000 -0.200000
v 1.281250 0.312500 -0.200000
v 0.781250 0.312500 -0.200000
v 0.781250 0.437500 -0.200000
v 1.406250 0.437500 -0.200000
v 1.406250 0.125000 -0.200000
v 1.656250 0.125000 -0.200000
v 1.656250 -0.437500 -0.200000
v 0.906250 -0.312500 -0.200000
v 1.531250 -0.312500 -0.200000
v 1.531250 -0.250000 -0.200000
v 0.906250 -0.250000 -0.200000
v 0.031250 -0.437500 -0.200000
v 0.031250 -0.125000 -0.200000
v 0.406250 -0.125000 -0.200000
v 0.406250 0.250000 -0.200000
v 0.031250 0.250000 -0.200000
v 0.031250 0.375000 -0.200000
v 0.406250 0.375000 -0.200000
v 0.406250 0.437500 -0.200000
v 0.531250 0.437500 -0.200000
v 0.531250 0.375000 -0.200000
v 0.718750 0.375000 -0.200000
v 0.718750 0.062500 -0.200000
v 0.531250 0.062500 -0.200000
v 0.531250 -0.125000 -0.200000
v 0.718750 -0.125000 -0.200000
v 0.718750 -0.250000 -0.200000
v 0.531250 -0.250000 -0.200000
v 0.531250 -0.437500 -0.200000
v 0.156250 -0.312500 -0.200000
v 0.406250 -0.312500 -0.200000
v 0.406250 -0.250000 -0.200000
v 0.156250 -0.250000 -0.200000
v 0.531250 0.187500 -0.200000
v 0.593750 0.187500 -0.200000
v 0.593750 0.250000 -0.200000
v 0.531250 0.250000 -0.200000
v -0.156250 -0.437500 -0.200000
v -0.156250 0.437500 -0.200000
v -0.031250 0.437500 -0.200000
v -0.031250 -0.437500 -0.200000
v -0.718750 -0.437500 -0.200000
v -0.718750 -0.250000 -0.200000
v -0.656250 -0.250000 -0.200000
v -0.656250 -0.312500 -0.200000
v -0.343750 -0.312500 -0.200000
v -0.343750 0.000000 -0.200000
v -0.781250 0.000000 -0.200000
v -0.781250 0.125000 -0.200000
v -0.218750 0.125000 -0.200000
v -0.218750 -0.437500 -0.200000
v -1.593750 -0.437500 -0.200000
v -1.593750 0.312500 -0.200000
v -1.718750 0.312500 -0.200000
v -1.718750 0.437500 -0.200000
v -1.468750 0.437500 -0.200000
v -1.468750 -0.312500 -0.200000
v -1.093750 -0.312500 -0.200000
v -1.093750 0.437500 -0.200000
v -0.843750 0.437500 -0.200000
v -0.843750 0.312500 -0.200000
v -0.968750 0.312500 -0.200000
v -0.968750 -0.437500 -0.200000
v -1.593750 -0.437500 -0.200000
v -1.593750 -0.437500 0.200000
v -1.593750 0.312500 -0.200000
v -1.593750 0.312500 0.200000
v -1.718750 0.312500 -0.200000
v -1.718750 0.312500 0.200000
v -1.718750 0.437500 -0.200000
v -1.718750 0.437500 0.200000
v -1.468750 0.437500 -0.200000
v -1.468750 0.437500 0.200000
v -1.468750 -0.312500 -0.200000
v -1.468750 -0.312500 0.200000
v -1.093750 -0.312500 -0.200000
v -1.093750 -0.312500 0.200000
v -1.093750 0.437500 -0.200000
v -1.093750 0.437500 0.200000
v -0.843750 0.437500 -0.200000
v -0.843750 0.437500 0.200000
v -0.843750 0.312500 -0.200000
v -0.843750 0.312500 0.200000
v -0.968750 0.312500 -0.200000
v -0.968750 0.312500 0.200000
v -0.968750 -0.437500 -0.200000
v -0.968750 -0.437500 0.200000
v -0.718750 -0.437500 -0.200000
v -0.718750 -0.437500 0.200000
v -0.718750 -0.250000 -0.200000
v -0.718750 -0.250000 0.200000
v -0.656250 -0.250000 -0.200000
v -0.656250 -0.250000 0.200000
v -0.656250 -0.312500 -0.200000
v -0.656250 -0.312500 0.200000
v -0.343750 -0.312500 -0.200000
v -0.343750 -0.312500 0.200000
v -0.343750 0.000000 -0.200000
v -0.343750 -0.000000 0.200000
v -0.781250 0.000000 -0.200000
v -0.781250 -0.000000 0.200000
v -0.781250 0.125000 -0.200000
v -0.781250 0.125000 0.200000
v -0.218750 0.125000 -0.200000
v -0.218750 0.125000 0.200000
v -0.218750 -0.437500 -0.200000
v -0.218750 -0.437500 0.200000
v -0.156250 -0.437500 -0.200000
v -0.156250 -0.437500 0.200000
v -0.156250 0.437500 -0.200000
v -0.156250 0.437500 0.200000
v -0.031250 0.437500 -0.200000
v -0.031250 0.437500 0.200000
v -0.031250 -0.437500 -0.200000
v -0.031250 -0.437500 0.200000
v 0.031250 -0.437500 -0.200000
v 0.031250 -0.437500 0.200000
v 0.031250 -0.125000 -0.200000
v 0.031250 -0.125000 0.200000
v 0.406250 -0.125000 -0.200000
v 0.406250 -0.125000 0.200000
v 0.406250 0.250000 -0.200000
v 0.406250 0.250000 0.200000
v 0.031250 0.250000 -0.200000
v 0.031250 0.250000 0.200000
v 0.031250 0.375000 -0.200000
v 0.031250 0.375000 0.200000
v 0.406250 0.375000 -0.200000
v 0.406250 0.375000 0.200000
v 0.406250 0.437500 -0.200000
v 0.406250 0.437500 0.200000
v 0.531250 0.437500 -0.200000
v 0.531250 0.437500 0.200000
v 0.531250 0.375000 -0.200000
v 0.531250 0.375000 0.200000
v 0.718750 0.375000 -0.200000
v 0.718750 0.375000 0.200000
v 0.718750 0.062500 -0.200000
v 0.718750 0.062500 0.200000
v 0.531250 0.062500 -0.200000
v 0.531250 0.062500 0.200000
v 0.531250 -0.125000 -0.200000
v 0.531250 -0.125000 0.200000
v 0.718750 -0.125000 -0.200000
v 0.718750 -0.125000 0.200000
v 0.718750 -0.250000 -0.200000
v 0.718750 -0.250000 0.200000
v 0.531250 -0.250000 -0.200000
v 0.531250 -0.250000 0.200000
v 0.531250 -0.437500 -0.200000
v 0.531250 -0.437500 0.200000
v 0.156250 -0.312500 -0.200000
v 0.156250 -0.312500 0.200000
v 0.406250 -0.312500 -0.200000
v 0.406250 -0.312500 0.200000
v 0.406250 -0.250000 -0.200000
v 0.406250 -0.250000 0.200000
v 0.156250 -0.250000 -0.200000
v 0.156250 -0.250000 0.200000
v 0.531250 0.187500 -0.200000
v 0.531250 0.187500 0.200000
v 0.593750 0.187500 -0.200000
v 0.593750 0.187500 0.200000
v 0.593750 0.250000 -0.200000
v 0.593750 0.250000 0.200000
v 0.531250 0.250000 -0.200000
v 0.531250 0.250000 0.200000
v 0.781250 -0.437500 -0.200000
v 0.781250 -0.437500 0.200000
v 0.781250 -0.125000 -0.200000
v 0.781250 -0.125000 0.200000
v 1.531250 -0.125000 -0.200000
v 1.531250 -0.125000 0.200000
v 1.531250 0.000000 -0.200000
v 1.531250 -0.000000 0.200000
v 0.781250 0.000000 -0.200000
v 0.781250 -0.000000 0.200000
v 0.781250 0.125000 -0.200000
v 0.781250 0.125000 0.200000
v 1.281250 0.125000 -0.200000
v 1.281250 0.125000 0.200000
v 1.281250 0.312500 -0.200000
v 1.281250 0.312500 0.200000
v 0.781250 0.312500 -0.200000
v 0.781250 0.312500 0.200000
v 0.781250 0.437500 -0.200000
v 0.781250 0.437500 0.200000
v 1.406250 0.437500 -0.200000
v 1.406250 0.437500 0.200000
v 1.406250 0.125000 -0.200000
v 1.406250 0.125000 0.200000
v 1.656250 0.125000 -0.200000
v 1.656250 0.125000 0.200000
v 1.656250 -0.437500 -0.200000
v 1.656250 -0.437500 0.200000
v 0.906250 -0.312500 -0.200000
v 0.906250 -0.312500 0.200000
v 1.531250 -0.312500 -0.200000
v 1.531250 -0.312500 0.200000
v 1.531250 -0.250000 -0.200000
v 1.531250 -0.250000 0.200000
v 0.906250 -0.250000 -0.200000
v 0.906250 -0.250000 0.200000
vn -0.0000 -0.0000 1.0000
vn -0.0000 -0.0000 -1.0000
vn -0.7071 -0.7071 -0.0000
vn -0.7071 0.7071 -0.0000
vn 0.7071 0.7071 -0.0000
vn 0.7071 -0.7071 -0.0000
vt 0.470588 0.000000
vt 0.588235 0.000000
vt 0.529412 0.000000
vt 0.411765 0.000000
vt 0.647059 0.000000
vt 0.352941 0.000000
vt 0.235294 0.000000
vt 0.294118 0.000000
vt 0.705882 0.000000
vt 0.176471 0.000000
vt 0.764706 0.000000
vt 0.117647 0.000000
vt 0.000000 0.000000
vt 1.000000 0.000000
vt 0.058824 0.000000
vt 0.941176 0.000000
vt 0.823529 0.000000
vt 0.882353 0.000000
vt 0.896552 0.000000
vt 0.965517 0.000000
vt 0.931035 0.000000
vt 0.206897 0.000000
vt 0.275862 0.000000
vt 0.241379 0.000000
vt 0.310345 0.000000
vt 0.137931 0.000000
vt 0.172414 0.000000
vt 0.344828 0.000000
vt 0.103448 0.000000
vt 0.862069 0.000000
vt 0.827586 0.000000
vt 0.379310 0.000000
vt 0.068966 0.000000
vt 0.758621 0.000000
vt 0.793103 0.000000
vt 0.413793 0.000000
vt 0.448276 0.000000
vt 0.724138 0.000000
vt 0.034483 0.000000
vt 0.482759 0.000000
vt 0.517241 0.000000
vt 0.620690 0.000000
vt 0.689655 0.000000
vt 0.655172 0.000000
vt 0.551724 0.000000
vt 0.586207 0.000000
vt 0.666667 0.000000
vt 0.888889 0.000000
vt 0.777778 0.000000
vt 0.555556 0.000000
vt 0.444444 0.000000
vt 0.222222 0.000000
vt 0.111111 0.000000
vt 0.333333 0.000000
vt 0.181818 0.000000
vt 0.363636 0.000000
vt 0.272727 0.000000
vt 0.090909 0.000000
vt 0.454545 0.000000
vt 0.545455 0.000000
vt 0.909091 0.000000
vt 0.636364 0.000000
vt 0.727273 0.000000
vt 0.818182 0.000000
vt 0.000000 1.000000
vt 0.083333 1.000000
vt 0.083333 0.000000
vt 0.166667 1.000000
vt 0.166667 0.000000
vt 0.250000 1.000000
vt 0.250000 0.000000
vt 0.333333 1.000000
vt 0.416667 1.000000
vt 0.416667 0.000000
vt 0.500000 1.000000
vt 0.500000 0.000000
vt 0.583333 1.000000
vt 0.583333 0.000000
vt 0.666667 1.000000
vt 0.750000 1.000000
vt 0.750000 0.000000
vt 0.833333 1.000000
vt 0.833333 0.000000
vt 0.916667 1.000000
vt 0.916667 0.000000
vt 1.000000 1.000000
vt 0.100000 1.000000
vt 0.100000 0.000000
vt 0.200000 1.000000
vt 0.200000 0.000000
vt 0.300000 1.000000
vt 0.300000 0.000000
vt 0.400000 1.000000
vt 0.400000 0.000000
vt 0.600000 1.000000
vt 0.600000 0.000000
vt 0.700000 1.000000
vt 0.700000 0.000000
vt 0.800000 1.000000
vt 0.800000 0.000000
vt 0.900000 1.000000
vt 0.900000 0.000000
vt 0.055556 1.000000
vt 0.055556 0.000000
vt 0.111111 1.000000
vt 0.222222 1.000000
vt 0.277778 1.000000
vt 0.277778 0.000000
vt 0.388889 1.000000
vt 0.388889 0.000000
vt 0.444444 1.000000
vt 0.555556 1.000000
vt 0.611111 1.000000
vt 0.611111 0.000000
vt 0.722222 1.000000
vt 0.722222 0.000000
vt 0.777778 1.000000
vt 0.888889 1.000000
vt 0.944444 1.000000
vt 0.944444 0.000000
vt 0.071429 1.000000
vt 0.071429 0.000000
vt 0.142857 1.000000
vt 0.142857 0.000000
vt 0.214286 1.000000
vt 0.214286 0.000000
vt 0.285714 1.000000
vt 0.285714 0.000000
vt 0.357143 1.000000
vt 0.357143 0.000000
vt 0.428571 1.000000
vt 0.428571 0.000000
vt 0.571429 1.000000
vt 0.571429 0.000000
vt 0.642857 1.000000
vt 0.642857 0.000000
vt 0.714286 1.000000
vt 0.714286 0.000000
vt 0.785714 1.000000
vt 0.785714 0.000000
vt 0.857143 1.000000
vt 0.857143 0.000000
vt 0.928571 1.000000
vt 0.928571 0.000000
s 0
usemtl マテリアル
f 9/1/1 11/2/1 10/3/1
f 9/1/1 8/4/1 11/2/1
f 8/4/1 12/5/1 11/2/1
f 7/6/1 12/5/1 8/4/1
f 5/7/1 7/6/1 6/8/1
f 5/7/1 12/5/1 7/6/1
f 5/7/1 13/9/1 12/5/1
f 5/7/1 4/10/1 13/9/1
f 4/10/1 14/11/1 13/9/1
f 3/12/1 14/11/1 4/10/1
f 1/13/1 18/14/1 2/15/1
f 18/14/1 3/12/1 2/15/1
f 18/14/1 17/16/1 3/12/1
f 17/16/1 14/11/1 3/12/1
f 1/13/1 15/17/1 18/14/1
f 16/18/1 14/11/1 17/16/1
f 1/13/1 16/18/1 15/17/1
f 1/13/1 14/11/1 16/18/1
f 45/19/1 47/20/1 46/21/1
f 45/19/1 48/14/1 47/20/1
f 25/22/1 27/23/1 26/24/1
f 25/22/1 28/25/1 27/23/1
f 23/26/1 25/22/1 24/27/1
f 23/26/1 28/25/1 25/22/1
f 23/26/1 29/28/1 28/25/1
f 23/26/1 22/29/1 29/28/1
f 22/29/1 44/30/1 29/28/1
f 44/30/1 43/31/1 29/28/1
f 43/31/1 30/32/1 29/28/1
f 21/33/1 44/30/1 22/29/1
f 21/33/1 41/34/1 44/30/1
f 42/35/1 30/32/1 43/31/1
f 21/33/1 42/35/1 41/34/1
f 21/33/1 31/36/1 42/35/1
f 31/36/1 30/32/1 42/35/1
f 21/33/1 32/37/1 31/36/1
f 19/13/1 40/38/1 20/39/1
f 40/38/1 21/33/1 20/39/1
f 40/38/1 32/37/1 21/33/1
f 40/38/1 33/40/1 32/37/1
f 40/38/1 34/41/1 33/40/1
f 19/13/1 37/42/1 40/38/1
f 39/43/1 34/41/1 40/38/1
f 38/44/1 35/45/1 39/43/1
f 35/45/1 34/41/1 39/43/1
f 38/44/1 36/46/1 35/45/1
f 19/13/1 38/44/1 37/42/1
f 19/13/1 36/46/1 38/44/1
f 55/47/1 57/48/1 56/49/1
f 55/47/1 54/50/1 57/48/1
f 54/50/1 58/14/1 57/48/1
f 53/51/1 58/14/1 54/50/1
f 49/13/1 51/52/1 50/53/1
f 49/13/1 52/54/1 51/52/1
f 49/13/1 53/51/1 52/54/1
f 49/13/1 58/14/1 53/51/1
f 61/55/1 63/56/1 62/57/1
f 61/55/1 60/58/1 63/56/1
f 60/58/1 64/59/1 63/56/1
f 65/60/1 69/61/1 66/62/1
f 69/61/1 67/63/1 66/62/1
f 69/61/1 68/64/1 67/63/1
f 59/13/1 64/59/1 60/58/1
f 65/60/1 70/14/1 69/61/1
f 59/13/1 65/60/1 64/59/1
f 59/13/1 70/14/1 65/60/1
f 79/1/2 80/3/2 81/2/2
f 79/1/2 81/2/2 78/4/2
f 78/4/2 81/2/2 82/5/2
f 77/6/2 78/4/2 82/5/2
f 75/7/2 76/8/2 77/6/2
f 75/7/2 77/6/2 82/5/2
f 75/7/2 82/5/2 83/9/2
f 75/7/2 83/9/2 74/10/2
f 74/10/2 83/9/2 84/11/2
f 73/12/2 74/10/2 84/11/2
f 71/13/2 72/15/2 88/14/2
f 88/14/2 72/15/2 73/12/2
f 88/14/2 73/12/2 87/16/2
f 87/16/2 73/12/2 84/11/2
f 71/13/2 88/14/2 85/17/2
f 86/18/2 87/16/2 84/11/2
f 71/13/2 85/17/2 86/18/2
f 71/13/2 86/18/2 84/11/2
f 115/19/2 116/21/2 117/20/2
f 115/19/2 117/20/2 118/14/2
f 95/22/2 96/24/2 97/23/2
f 95/22/2 97/23/2 98/25/2
f 93/26/2 94/27/2 95/22/2
f 93/26/2 95/22/2 98/25/2
f 93/26/2 98/25/2 99/28/2
f 93/26/2 99/28/2 92/29/2
f 92/29/2 99/28/2 114/30/2
f 114/30/2 99/28/2 113/31/2
f 113/31/2 99/28/2 100/32/2
f 91/33/2 92/29/2 114/30/2
f 91/33/2 114/30/2 111/34/2
f 112/35/2 113/31/2 100/32/2
f 91/33/2 111/34/2 112/35/2
f 91/33/2 112/35/2 101/36/2
f 101/36/2 112/35/2 100/32/2
f 91/33/2 101/36/2 102/37/2
f 89/13/2 90/39/2 110/38/2
f 110/38/2 90/39/2 91/33/2
f 110/38/2 91/33/2 102/37/2
f 110/38/2 102/37/2 103/40/2
f 110/38/2 103/40/2 104/41/2
f 89/13/2 110/38/2 107/42/2
f 109/43/1 110/38/1 104/41/1
f 108/44/2 109/43/2 105/45/2
f 105/45/1 109/43/1 104/41/1
f 108/44/2 105/45/2 106/46/2
f 89/13/2 107/42/2 108/44/2
f 89/13/2 108/44/2 106/46/2
f 125/47/2 126/49/2 127/48/2
f 125/47/2 127/48/2 124/50/2
f 124/50/2 127/48/2 128/14/2
f 123/51/2 124/50/2 128/14/2
f 119/13/2 120/53/2 121/52/2
f 119/13/2 121/52/2 122/54/2
f 119/13/2 122/54/2 123/51/2
f 119/13/2 123/51/2 128/14/2
f 131/55/2 132/57/2 133/56/2
f 131/55/2 133/56/2 130/58/2
f 130/58/2 133/56/2 134/59/2
f 135/60/2 136/62/2 139/61/2
f 139/61/2 136/62/2 137/63/2
f 139/61/2 137/63/2 138/64/2
f 129/13/2 130/58/2 134/59/2
f 135/60/2 139/61/2 140/14/2
f 129/13/2 134/59/2 135/60/2
f 129/13/2 135/60/2 140/14/2
s 1
f 142/65/3 144/66/3 143/67/3 141/13/3
f 144/66/3 146/68/3 145/69/3 143/67/3
f 146/68/3 148/70/4 147/71/4 145/69/3
f 148/70/4 150/72/5 149/54/5 147/71/4
f 150/72/5 152/73/5 151/74/5 149/54/5
f 152/73/5 154/75/4 153/76/4 151/74/5
f 154/75/4 156/77/4 155/78/4 153/76/4
f 156/77/4 158/79/5 157/47/5 155/78/4
f 158/79/5 160/80/6 159/81/6 157/47/5
f 160/80/6 162/82/6 161/83/6 159/81/6
f 162/82/6 164/84/6 163/85/6 161/83/6
f 164/84/6 142/86/3 141/14/3 163/85/6
f 166/65/3 168/87/4 167/88/4 165/13/3
f 168/87/4 170/89/5 169/90/5 167/88/4
f 170/89/5 172/91/5 171/92/5 169/90/5
f 172/91/5 174/93/4 173/94/4 171/92/5
f 174/93/4 176/75/3 175/76/3 173/94/4
f 176/75/3 178/95/3 177/96/3 175/76/3
f 178/95/3 180/97/4 179/98/4 177/96/3
f 180/97/4 182/99/5 181/100/5 179/98/4
f 182/99/5 184/101/6 183/102/6 181/100/5
f 184/101/6 166/86/3 165/14/3 183/102/6
f 186/65/3 188/70/4 187/71/4 185/13/3
f 188/70/4 190/75/5 189/76/5 187/71/4
f 190/75/5 192/80/6 191/81/6 189/76/5
f 192/80/6 186/86/3 185/14/3 191/81/6
f 194/65/3 196/103/4 195/104/4 193/13/3
f 196/103/4 198/105/4 197/53/4 195/104/4
f 198/105/4 200/68/3 199/69/3 197/53/4
f 200/68/3 202/106/3 201/52/3 199/69/3
f 202/106/3 204/107/4 203/108/4 201/52/3
f 204/107/4 206/72/4 205/54/4 203/108/4
f 206/72/4 208/109/4 207/110/4 205/54/4
f 208/109/4 210/111/5 209/51/5 207/110/4
f 210/111/5 212/75/5 211/76/5 209/51/5
f 212/75/5 214/112/5 213/50/5 211/76/5
f 214/112/5 216/113/6 215/114/6 213/50/5
f 216/113/6 218/79/6 217/47/6 215/114/6
f 218/79/6 220/115/5 219/116/5 217/47/6
f 220/115/5 222/117/5 221/49/5 219/116/5
f 222/117/5 224/82/6 223/83/6 221/49/5
f 224/82/6 226/118/6 225/48/6 223/83/6
f 226/118/6 228/119/6 227/120/6 225/48/6
f 228/119/6 194/86/3 193/14/3 227/120/6
f 230/65/5 232/70/4 231/71/4 229/13/5
f 232/70/4 234/75/3 233/76/3 231/71/4
f 234/75/3 236/80/6 235/81/6 233/76/3
f 236/80/6 230/86/5 229/14/5 235/81/6
f 238/65/5 240/70/4 239/71/4 237/13/5
f 240/70/4 242/75/3 241/76/3 239/71/4
f 242/75/3 244/80/6 243/81/6 241/76/3
f 244/80/6 238/86/5 237/14/5 243/81/6
f 246/65/3 248/121/4 247/122/4 245/13/3
f 248/121/4 250/123/4 249/124/4 247/122/4
f 250/123/4 252/125/3 251/126/3 249/124/4
f 252/125/3 254/127/3 253/128/3 251/126/3
f 254/127/3 256/129/4 255/130/4 253/128/3
f 256/129/4 258/131/4 257/132/4 255/130/4
f 258/131/4 260/75/3 259/76/3 257/132/4
f 260/75/3 262/133/3 261/134/3 259/76/3
f 262/133/3 264/135/4 263/136/4 261/134/3
f 264/135/4 266/137/5 265/138/5 263/136/4
f 266/137/5 268/139/5 267/140/5 265/138/5
f 268/139/5 270/141/5 269/142/5 267/140/5
f 270/141/5 272/143/6 271/144/6 269/142/5
f 272/143/6 246/86/3 245/14/3 271/144/6
f 274/65/5 276/70/4 275/71/4 273/13/5
f 276/70/4 278/75/3 277/76/3 275/71/4
f 278/75/3 280/80/6 279/81/6 277/76/3
f 280/80/6 274/86/5 273/14/5 279/81/6
