# Blender 4.4.1
# www.blender.org
mtllib EnemyTurnobj.mtl
o テキスト
v 1.906250 -0.437500 0.200000
v 1.906250 -0.312500 0.200000
v 2.656250 -0.312500 0.200000
v 2.656250 0.437500 0.200000
v 2.781250 0.437500 0.200000
v 2.781250 -0.437500 0.200000
v 1.906250 0.312500 0.200000
v 1.906250 0.437500 0.200000
v 2.281250 0.437500 0.200000
v 2.281250 0.312500 0.200000
v 0.968750 -0.062500 0.200000
v 0.968750 0.062500 0.200000
v 1.843750 0.062500 0.200000
v 1.843750 -0.062500 0.200000
v 0.718750 -0.437500 0.200000
v 0.718750 -0.062500 0.200000
v 0.156250 -0.062500 0.200000
v 0.156250 0.062500 0.200000
v 0.718750 0.062500 0.200000
v 0.718750 0.312500 0.200000
v 0.093750 0.312500 0.200000
v 0.093750 -0.062500 0.200000
v -0.031250 -0.062500 0.200000
v -0.031250 0.437500 0.200000
v 0.843750 0.437500 0.200000
v 0.843750 -0.437500 0.200000
v -0.968750 -0.437500 0.200000
v -0.968750 0.437500 0.200000
v -0.093750 0.437500 0.200000
v -0.093750 -0.437500 0.200000
v -0.406250 -0.437500 0.200000
v -0.406250 -0.312500 0.200000
v -0.218750 -0.312500 0.200000
v -0.218750 0.312500 0.200000
v -0.468750 0.312500 0.200000
v -0.468750 -0.437500 0.200000
v -0.843750 -0.312500 0.200000
v -0.593750 -0.312500 0.200000
v -0.593750 0.312500 0.200000
v -0.843750 0.312500 0.200000
v -1.906250 -0.437500 0.200000
v -1.906250 -0.000000 0.200000
v -1.343750 -0.000000 0.200000
v -1.343750 0.062500 0.200000
v -1.906250 0.062500 0.200000
v -1.906250 0.187500 0.200000
v -1.343750 0.187500 0.200000
v -1.343750 0.250000 0.200000
v -1.906250 0.250000 0.200000
v -1.906250 0.375000 0.200000
v -1.343750 0.375000 0.200000
v -1.343750 0.437500 0.200000
v -1.218750 0.437500 0.200000
v -1.218750 0.375000 0.200000
v -1.031250 0.375000 0.200000
v -1.031250 0.250000 0.200000
v -1.218750 0.250000 0.200000
v -1.218750 0.187500 0.200000
v -1.031250 0.187500 0.200000
v -1.031250 0.062500 0.200000
v -1.218750 0.062500 0.200000
v -1.218750 -0.125000 0.200000
v -1.781250 -0.125000 0.200000
v -1.781250 -0.312500 0.200000
v -1.031250 -0.312500 0.200000
v -1.031250 -0.437500 0.200000
v -2.656250 -0.437500 0.200000
v -2.656250 0.125000 0.200000
v -2.093750 0.125000 0.200000
v -2.093750 0.312500 0.200000
v -2.843750 0.312500 0.200000
v -2.843750 0.437500 0.200000
v -1.968750 0.437500 0.200000
v -1.968750 -0.000000 0.200000
v -2.531250 -0.000000 0.200000
v -2.531250 -0.312500 0.200000
v -1.968750 -0.312500 0.200000
v -1.968750 -0.437500 0.200000
v 1.906250 -0.437500 -0.200000
v 1.906250 -0.312500 -0.200000
v 2.656250 -0.312500 -0.200000
v 2.656250 0.437500 -0.200000
v 2.781250 0.437500 -0.200000
v 2.781250 -0.437500 -0.200000
v 1.906250 0.312500 -0.200000
v 1.906250 0.437500 -0.200000
v 2.281250 0.437500 -0.200000
v 2.281250 0.312500 -0.200000
v 0.968750 -0.062500 -0.200000
v 0.968750 0.062500 -0.200000
v 1.843750 0.062500 -0.200000
v 1.843750 -0.062500 -0.200000
v 0.718750 -0.437500 -0.200000
v 0.718750 -0.062500 -0.200000
v 0.156250 -0.062500 -0.200000
v 0.156250 0.062500 -0.200000
v 0.718750 0.062500 -0.200000
v 0.718750 0.312500 -0.200000
v 0.093750 0.312500 -0.200000
v 0.093750 -0.062500 -0.200000
v -0.031250 -0.062500 -0.200000
v -0.031250 0.437500 -0.200000
v 0.843750 0.437500 -0.200000
v 0.843750 -0.437500 -0.200000
v -0.968750 -0.437500 -0.200000
v -0.968750 0.437500 -0.200000
v -0.093750 0.437500 -0.200000
v -0.093750 -0.437500 -0.200000
v -0.406250 -0.437500 -0.200000
v -0.406250 -0.312500 -0.200000
v -0.218750 -0.312500 -0.200000
v -0.218750 0.312500 -0.200000
v -0.468750 0.312500 -0.200000
v -0.468750 -0.437500 -0.200000
v -0.843750 -0.312500 -0.200000
v -0.593750 -0.312500 -0.200000
v -0.593750 0.312500 -0.200000
v -0.843750 0.312500 -0.200000
v -1.906250 -0.437500 -0.200000
v -1.906250 0.000000 -0.200000
v -1.343750 0.000000 -0.200000
v -1.343750 0.062500 -0.200000
v -1.906250 0.062500 -0.200000
v -1.906250 0.187500 -0.200000
v -1.343750 0.187500 -0.200000
v -1.343750 0.250000 -0.200000
v -1.906250 0.250000 -0.200000
v -1.906250 0.375000 -0.200000
v -1.343750 0.375000 -0.200000
v -1.343750 0.437500 -0.200000
v -1.218750 0.437500 -0.200000
v -1.218750 0.375000 -0.200000
v -1.031250 0.375000 -0.200000
v -1.031250 0.250000 -0.200000
v -1.218750 0.250000 -0.200000
v -1.218750 0.187500 -0.200000
v -1.031250 0.187500 -0.200000
v -1.031250 0.062500 -0.200000
v -1.218750 0.062500 -0.200000
v -1.218750 -0.125000 -0.200000
v -1.781250 -0.125000 -0.200000
v -1.781250 -0.312500 -0.200000
v -1.031250 -0.312500 -0.200000
v -1.031250 -0.437500 -0.200000
v -2.656250 -0.437500 -0.200000
v -2.656250 0.125000 -0.200000
v -2.093750 0.125000 -0.200000
v -2.093750 0.312500 -0.200000
v -2.843750 0.312500 -0.200000
v -2.843750 0.437500 -0.200000
v -1.968750 0.437500 -0.200000
v -1.968750 0.000000 -0.200000
v -2.531250 0.000000 -0.200000
v -2.531250 -0.312500 -0.200000
v -1.968750 -0.312500 -0.200000
v -1.968750 -0.437500 -0.200000
v -2.656250 -0.437500 -0.200000
v -2.656250 -0.437500 0.200000
v -2.656250 0.125000 -0.200000
v -2.656250 0.125000 0.200000
v -2.093750 0.125000 -0.200000
v -2.093750 0.125000 0.200000
v -2.093750 0.312500 -0.200000
v -2.093750 0.312500 0.200000
v -2.843750 0.312500 -0.200000
v -2.843750 0.312500 0.200000
v -2.843750 0.437500 -0.200000
v -2.843750 0.437500 0.200000
v -1.968750 0.437500 -0.200000
v -1.968750 0.437500 0.200000
v -1.968750 0.000000 -0.200000
v -1.968750 -0.000000 0.200000
v -2.531250 0.000000 -0.200000
v -2.531250 -0.000000 0.200000
v -2.531250 -0.312500 -0.200000
v -2.531250 -0.312500 0.200000
v -1.968750 -0.312500 -0.200000
v -1.968750 -0.312500 0.200000
v -1.968750 -0.437500 -0.200000
v -1.968750 -0.437500 0.200000
v -1.906250 -0.437500 -0.200000
v -1.906250 -0.437500 0.200000
v -1.906250 0.000000 -0.200000
v -1.906250 -0.000000 0.200000
v -1.343750 0.000000 -0.200000
v -1.343750 -0.000000 0.200000
v -1.343750 0.062500 -0.200000
v -1.343750 0.062500 0.200000
v -1.906250 0.062500 -0.200000
v -1.906250 0.062500 0.200000
v -1.906250 0.187500 -0.200000
v -1.906250 0.187500 0.200000
v -1.343750 0.187500 -0.200000
v -1.343750 0.187500 0.200000
v -1.343750 0.250000 -0.200000
v -1.343750 0.250000 0.200000
v -1.906250 0.250000 -0.200000
v -1.906250 0.250000 0.200000
v -1.906250 0.375000 -0.200000
v -1.906250 0.375000 0.200000
v -1.343750 0.375000 -0.200000
v -1.343750 0.375000 0.200000
v -1.343750 0.437500 -0.200000
v -1.343750 0.437500 0.200000
v -1.218750 0.437500 -0.200000
v -1.218750 0.437500 0.200000
v -1.218750 0.375000 -0.200000
v -1.218750 0.375000 0.200000
v -1.031250 0.375000 -0.200000
v -1.031250 0.375000 0.200000
v -1.031250 0.250000 -0.200000
v -1.031250 0.250000 0.200000
v -1.218750 0.250000 -0.200000
v -1.218750 0.250000 0.200000
v -1.218750 0.187500 -0.200000
v -1.218750 0.187500 0.200000
v -1.031250 0.187500 -0.200000
v -1.031250 0.187500 0.200000
v -1.031250 0.062500 -0.200000
v -1.031250 0.062500 0.200000
v -1.218750 0.062500 -0.200000
v -1.218750 0.062500 0.200000
v -1.218750 -0.125000 -0.200000
v -1.218750 -0.125000 0.200000
v -1.781250 -0.125000 -0.200000
v -1.781250 -0.125000 0.200000
v -1.781250 -0.312500 -0.200000
v -1.781250 -0.312500 0.200000
v -1.031250 -0.312500 -0.200000
v -1.031250 -0.312500 0.200000
v -1.031250 -0.437500 -0.200000
v -1.031250 -0.437500 0.200000
v -0.968750 -0.437500 -0.200000
v -0.968750 -0.437500 0.200000
v -0.968750 0.437500 -0.200000
v -0.968750 0.437500 0.200000
v -0.093750 0.437500 -0.200000
v -0.093750 0.437500 0.200000
v -0.093750 -0.437500 -0.200000
v -0.093750 -0.437500 0.200000
v -0.406250 -0.437500 -0.200000
v -0.406250 -0.437500 0.200000
v -0.406250 -0.312500 -0.200000
v -0.406250 -0.312500 0.200000
v -0.218750 -0.312500 -0.200000
v -0.218750 -0.312500 0.200000
v -0.218750 0.312500 -0.200000
v -0.218750 0.312500 0.200000
v -0.468750 0.312500 -0.200000
v -0.468750 0.312500 0.200000
v -0.468750 -0.437500 -0.200000
v -0.468750 -0.437500 0.200000
v -0.843750 -0.312500 -0.200000
v -0.843750 -0.312500 0.200000
v -0.593750 -0.312500 -0.200000
v -0.593750 -0.312500 0.200000
v -0.593750 0.312500 -0.200000
v -0.593750 0.312500 0.200000
v -0.843750 0.312500 -0.200000
v -0.843750 0.312500 0.200000
v 0.718750 -0.437500 -0.200000
v 0.718750 -0.437500 0.200000
v 0.718750 -0.062500 -0.200000
v 0.718750 -0.062500 0.200000
v 0.156250 -0.062500 -0.200000
v 0.156250 -0.062500 0.200000
v 0.156250 0.062500 -0.200000
v 0.156250 0.062500 0.200000
v 0.718750 0.062500 -0.200000
v 0.718750 0.062500 0.200000
v 0.718750 0.312500 -0.200000
v 0.718750 0.312500 0.200000
v 0.093750 0.312500 -0.200000
v 0.093750 0.312500 0.200000
v 0.093750 -0.062500 -0.200000
v 0.093750 -0.062500 0.200000
v -0.031250 -0.062500 -0.200000
v -0.031250 -0.062500 0.200000
v -0.031250 0.437500 -0.200000
v -0.031250 0.437500 0.200000
v 0.843750 0.437500 -0.200000
v 0.843750 0.437500 0.200000
v 0.843750 -0.437500 -0.200000
v 0.843750 -0.437500 0.200000
v 0.968750 -0.062500 -0.200000
v 0.968750 -0.062500 0.200000
v 0.968750 0.062500 -0.200000
v 0.968750 0.062500 0.200000
v 1.843750 0.062500 -0.200000
v 1.843750 0.062500 0.200000
v 1.843750 -0.062500 -0.200000
v 1.843750 -0.062500 0.200000
v 1.906250 -0.437500 -0.200000
v 1.906250 -0.437500 0.200000
v 1.906250 -0.312500 -0.200000
v 1.906250 -0.312500 0.200000
v 2.656250 -0.312500 -0.200000
v 2.656250 -0.312500 0.200000
v 2.656250 0.437500 -0.200000
v 2.656250 0.437500 0.200000
v 2.781250 0.437500 -0.200000
v 2.781250 0.437500 0.200000
v 2.781250 -0.437500 -0.200000
v 2.781250 -0.437500 0.200000
v 1.906250 0.312500 -0.200000
v 1.906250 0.312500 0.200000
v 1.906250 0.437500 -0.200000
v 1.906250 0.437500 0.200000
v 2.281250 0.437500 -0.200000
v 2.281250 0.437500 0.200000
v 2.281250 0.312500 -0.200000
v 2.281250 0.312500 0.200000
vn -0.0000 -0.0000 1.0000
vn -0.0000 -0.0000 -1.0000
vn -0.7071 -0.7071 -0.0000
vn -0.7071 0.7071 -0.0000
vn 0.7071 0.7071 -0.0000
vn 0.7071 -0.7071 -0.0000
vt 0.666667 0.000000
vt 0.888889 0.000000
vt 0.777778 0.000000
vt 1.000000 0.000000
vt 0.222222 0.000000
vt 0.444444 0.000000
vt 0.333333 0.000000
vt 0.555556 0.000000
vt 0.000000 0.000000
vt 0.111111 0.000000
vt 0.727273 0.000000
vt 0.545455 0.000000
vt 0.818182 0.000000
vt 0.909091 0.000000
vt 0.454545 0.000000
vt 0.636364 0.000000
vt 0.363636 0.000000
vt 0.181818 0.000000
vt 0.272727 0.000000
vt 0.090909 0.000000
vt 0.076923 0.000000
vt 0.153846 0.000000
vt 0.923077 0.000000
vt 0.615385 0.000000
vt 0.538462 0.000000
vt 0.230769 0.000000
vt 0.769231 0.000000
vt 0.846154 0.000000
vt 0.692308 0.000000
vt 0.461538 0.000000
vt 0.307692 0.000000
vt 0.384615 0.000000
vt 0.400000 0.000000
vt 0.480000 0.000000
vt 0.440000 0.000000
vt 0.520000 0.000000
vt 0.320000 0.000000
vt 0.360000 0.000000
vt 0.560000 0.000000
vt 0.600000 0.000000
vt 0.280000 0.000000
vt 0.240000 0.000000
vt 0.640000 0.000000
vt 0.680000 0.000000
vt 0.160000 0.000000
vt 0.200000 0.000000
vt 0.720000 0.000000
vt 0.760000 0.000000
vt 0.120000 0.000000
vt 0.080000 0.000000
vt 0.800000 0.000000
vt 0.840000 0.000000
vt 0.880000 0.000000
vt 0.040000 0.000000
vt 0.920000 0.000000
vt 0.960000 0.000000
vt 0.000000 1.000000
vt 0.083333 1.000000
vt 0.083333 0.000000
vt 0.166667 1.000000
vt 0.166667 0.000000
vt 0.250000 1.000000
vt 0.250000 0.000000
vt 0.333333 1.000000
vt 0.416667 1.000000
vt 0.416667 0.000000
vt 0.500000 1.000000
vt 0.500000 0.000000
vt 0.583333 1.000000
vt 0.583333 0.000000
vt 0.666667 1.000000
vt 0.750000 1.000000
vt 0.750000 0.000000
vt 0.833333 1.000000
vt 0.833333 0.000000
vt 0.916667 1.000000
vt 0.916667 0.000000
vt 1.000000 1.000000
vt 0.038462 1.000000
vt 0.038462 0.000000
vt 0.076923 1.000000
vt 0.115385 1.000000
vt 0.115385 0.000000
vt 0.153846 1.000000
vt 0.192308 1.000000
vt 0.192308 0.000000
vt 0.230769 1.000000
vt 0.269231 1.000000
vt 0.269231 0.000000
vt 0.307692 1.000000
vt 0.346154 1.000000
vt 0.346154 0.000000
vt 0.384615 1.000000
vt 0.423077 1.000000
vt 0.423077 0.000000
vt 0.461538 1.000000
vt 0.538462 1.000000
vt 0.576923 1.000000
vt 0.576923 0.000000
vt 0.615385 1.000000
vt 0.653846 1.000000
vt 0.653846 0.000000
vt 0.692308 1.000000
vt 0.730769 1.000000
vt 0.730769 0.000000
vt 0.769231 1.000000
vt 0.807692 1.000000
vt 0.807692 0.000000
vt 0.846154 1.000000
vt 0.884615 1.000000
vt 0.884615 0.000000
vt 0.923077 1.000000
vt 0.961538 1.000000
vt 0.961538 0.000000
vt 0.100000 1.000000
vt 0.100000 0.000000
vt 0.200000 1.000000
vt 0.300000 1.000000
vt 0.300000 0.000000
vt 0.400000 1.000000
vt 0.600000 1.000000
vt 0.700000 1.000000
vt 0.700000 0.000000
vt 0.800000 1.000000
vt 0.900000 1.000000
vt 0.900000 0.000000
s 0
usemtl マテリアル
f 7/1/1 9/2/1 8/3/1
f 7/1/1 10/4/1 9/2/1
f 3/5/1 5/6/1 4/7/1
f 3/5/1 6/8/1 5/6/1
f 1/9/1 3/5/1 2/10/1
f 1/9/1 6/8/1 3/5/1
f 11/9/1 13/1/1 12/7/1
f 11/9/1 14/4/1 13/1/1
f 23/11/1 21/12/1 24/13/1
f 21/12/1 25/14/1 24/13/1
f 21/12/1 20/15/1 25/14/1
f 20/15/1 26/4/1 25/14/1
f 23/11/1 22/16/1 21/12/1
f 19/17/1 26/4/1 20/15/1
f 17/18/1 19/17/1 18/19/1
f 17/18/1 16/20/1 19/17/1
f 16/20/1 26/4/1 19/17/1
f 15/9/1 26/4/1 16/20/1
f 27/9/1 40/4/1 28/21/1
f 40/4/1 29/22/1 28/21/1
f 40/4/1 39/23/1 29/22/1
f 39/23/1 35/24/1 29/22/1
f 35/24/1 34/25/1 29/22/1
f 34/25/1 30/26/1 29/22/1
f 27/9/1 37/27/1 40/4/1
f 38/28/1 35/24/1 39/23/1
f 38/28/1 36/29/1 35/24/1
f 33/30/1 30/26/1 34/25/1
f 27/9/1 38/28/1 37/27/1
f 27/9/1 36/29/1 38/28/1
f 31/31/1 33/30/1 32/32/1
f 31/31/1 30/26/1 33/30/1
f 51/33/1 53/34/1 52/35/1
f 51/33/1 54/36/1 53/34/1
f 49/37/1 51/33/1 50/38/1
f 49/37/1 54/36/1 51/33/1
f 49/37/1 55/39/1 54/36/1
f 49/37/1 56/40/1 55/39/1
f 48/41/1 56/40/1 49/37/1
f 47/42/1 57/43/1 48/41/1
f 57/43/1 56/40/1 48/41/1
f 47/42/1 58/44/1 57/43/1
f 45/45/1 47/42/1 46/46/1
f 45/45/1 58/44/1 47/42/1
f 45/45/1 59/47/1 58/44/1
f 45/45/1 60/48/1 59/47/1
f 44/49/1 60/48/1 45/45/1
f 43/50/1 61/51/1 44/49/1
f 61/51/1 60/48/1 44/49/1
f 43/50/1 62/52/1 61/51/1
f 41/9/1 63/53/1 42/54/1
f 63/53/1 43/50/1 42/54/1
f 63/53/1 62/52/1 43/50/1
f 41/9/1 64/55/1 63/53/1
f 41/9/1 65/56/1 64/55/1
f 41/9/1 66/4/1 65/56/1
f 71/17/1 73/12/1 72/15/1
f 71/17/1 70/19/1 73/12/1
f 70/19/1 74/16/1 73/12/1
f 69/18/1 74/16/1 70/19/1
f 67/9/1 75/11/1 68/20/1
f 75/11/1 69/18/1 68/20/1
f 75/11/1 74/16/1 69/18/1
f 67/9/1 76/13/1 75/11/1
f 67/9/1 77/14/1 76/13/1
f 67/9/1 78/4/1 77/14/1
f 85/1/2 86/3/2 87/2/2
f 85/1/2 87/2/2 88/4/2
f 81/5/2 82/7/2 83/6/2
f 81/5/2 83/6/2 84/8/2
f 79/9/2 80/10/2 81/5/2
f 79/9/2 81/5/2 84/8/2
f 89/9/2 90/7/2 91/1/2
f 89/9/2 91/1/2 92/4/2
f 101/11/2 102/13/2 99/12/2
f 99/12/2 102/13/2 103/14/2
f 99/12/2 103/14/2 98/15/2
f 98/15/2 103/14/2 104/4/2
f 101/11/2 99/12/2 100/16/2
f 97/17/2 98/15/2 104/4/2
f 95/18/2 96/19/2 97/17/2
f 95/18/2 97/17/2 94/20/2
f 94/20/2 97/17/2 104/4/2
f 93/9/2 94/20/2 104/4/2
f 105/9/2 106/21/2 118/4/2
f 118/4/2 106/21/2 107/22/2
f 118/4/2 107/22/2 117/23/2
f 117/23/2 107/22/2 113/24/2
f 113/24/2 107/22/2 112/25/2
f 112/25/2 107/22/2 108/26/2
f 105/9/2 118/4/2 115/27/2
f 116/28/2 117/23/2 113/24/2
f 116/28/2 113/24/2 114/29/2
f 111/30/2 112/25/2 108/26/2
f 105/9/2 115/27/2 116/28/2
f 105/9/2 116/28/2 114/29/2
f 109/31/2 110/32/2 111/30/2
f 109/31/2 111/30/2 108/26/2
f 129/33/2 130/35/2 131/34/2
f 129/33/2 131/34/2 132/36/2
f 127/37/2 128/38/2 129/33/2
f 127/37/2 129/33/2 132/36/2
f 127/37/2 132/36/2 133/39/2
f 127/37/2 133/39/2 134/40/2
f 126/41/1 127/37/1 134/40/1
f 125/42/2 126/41/2 135/43/2
f 135/43/1 126/41/1 134/40/1
f 125/42/2 135/43/2 136/44/2
f 123/45/2 124/46/2 125/42/2
f 123/45/2 125/42/2 136/44/2
f 123/45/2 136/44/2 137/47/2
f 123/45/2 137/47/2 138/48/2
f 122/49/1 123/45/1 138/48/1
f 121/50/2 122/49/2 139/51/2
f 139/51/1 122/49/1 138/48/1
f 121/50/2 139/51/2 140/52/2
f 119/9/2 120/54/2 141/53/2
f 141/53/2 120/54/2 121/50/2
f 141/53/2 121/50/2 140/52/2
f 119/9/2 141/53/2 142/55/2
f 119/9/2 142/55/2 143/56/2
f 119/9/2 143/56/2 144/4/2
f 149/17/2 150/15/2 151/12/2
f 149/17/2 151/12/2 148/19/2
f 148/19/2 151/12/2 152/16/2
f 147/18/2 148/19/2 152/16/2
f 145/9/2 146/20/2 153/11/2
f 153/11/2 146/20/2 147/18/2
f 153/11/2 147/18/2 152/16/2
f 145/9/2 153/11/2 154/13/2
f 145/9/2 154/13/2 155/14/2
f 145/9/2 155/14/2 156/4/2
s 1
f 158/57/3 160/58/4 159/59/4 157/9/3
f 160/58/4 162/60/4 161/61/4 159/59/4
f 162/60/4 164/62/3 163/63/3 161/61/4
f 164/62/3 166/64/3 165/7/3 163/63/3
f 166/64/3 168/65/4 167/66/4 165/7/3
f 168/65/4 170/67/5 169/68/5 167/66/4
f 170/67/5 172/69/6 171/70/6 169/68/5
f 172/69/6 174/71/6 173/1/6 171/70/6
f 174/71/6 176/72/5 175/73/5 173/1/6
f 176/72/5 178/74/5 177/75/5 175/73/5
f 178/74/5 180/76/6 179/77/6 177/75/5
f 180/76/6 158/78/3 157/4/3 179/77/6
f 182/57/3 184/79/4 183/80/4 181/9/3
f 184/79/4 186/81/4 185/21/4 183/80/4
f 186/81/4 188/82/3 187/83/3 185/21/4
f 188/82/3 190/84/3 189/22/3 187/83/3
f 190/84/3 192/85/4 191/86/4 189/22/3
f 192/85/4 194/87/4 193/26/4 191/86/4
f 194/87/4 196/88/3 195/89/3 193/26/4
f 196/88/3 198/90/3 197/31/3 195/89/3
f 198/90/3 200/91/4 199/92/4 197/31/3
f 200/91/4 202/93/4 201/32/4 199/92/4
f 202/93/4 204/94/4 203/95/4 201/32/4
f 204/94/4 206/96/5 205/30/5 203/95/4
f 206/96/5 208/67/5 207/68/5 205/30/5
f 208/67/5 210/97/5 209/25/5 207/68/5
f 210/97/5 212/98/6 211/99/6 209/25/5
f 212/98/6 214/100/6 213/24/6 211/99/6
f 214/100/6 216/101/5 215/102/5 213/24/6
f 216/101/5 218/103/5 217/29/5 215/102/5
f 218/103/5 220/104/6 219/105/6 217/29/5
f 220/104/6 222/106/6 221/27/6 219/105/6
f 222/106/6 224/107/6 223/108/6 221/27/6
f 224/107/6 226/109/6 225/28/6 223/108/6
f 226/109/6 228/110/5 227/111/5 225/28/6
f 228/110/5 230/112/5 229/23/5 227/111/5
f 230/112/5 232/113/6 231/114/6 229/23/5
f 232/113/6 182/78/3 181/4/3 231/114/6
f 234/57/3 236/115/4 235/116/4 233/9/3
f 236/115/4 238/117/5 237/46/5 235/116/4
f 238/117/5 240/118/6 239/119/6 237/46/5
f 240/118/6 242/120/3 241/33/3 239/119/6
f 242/120/3 244/67/4 243/68/4 241/33/3
f 244/67/4 246/121/4 245/40/4 243/68/4
f 246/121/4 248/122/3 247/123/3 245/40/4
f 248/122/3 250/124/6 249/51/6 247/123/3
f 250/124/6 252/125/6 251/126/6 249/51/6
f 252/125/6 234/78/3 233/4/3 251/126/6
f 254/57/5 256/62/4 255/63/4 253/9/5
f 256/62/4 258/67/3 257/68/3 255/63/4
f 258/67/3 260/72/6 259/73/6 257/68/3
f 260/72/6 254/78/5 253/4/5 259/73/6
f 262/57/3 264/58/3 263/59/3 261/9/3
f 264/58/3 266/60/3 265/61/3 263/59/3
f 266/60/3 268/62/4 267/63/4 265/61/3
f 268/62/4 270/64/4 269/7/4 267/63/4
f 270/64/4 272/65/3 271/66/3 269/7/4
f 272/65/3 274/67/6 273/68/6 271/66/3
f 274/67/6 276/69/6 275/70/6 273/68/6
f 276/69/6 278/71/3 277/1/3 275/70/6
f 278/71/3 280/72/4 279/73/4 277/1/3
f 280/72/4 282/74/5 281/75/5 279/73/4
f 282/74/5 284/76/6 283/77/6 281/75/5
f 284/76/6 262/78/3 261/4/3 283/77/6
f 286/57/3 288/62/4 287/63/4 285/9/3
f 288/62/4 290/67/5 289/68/5 287/63/4
f 290/67/5 292/72/6 291/73/6 289/68/5
f 292/72/6 286/78/3 285/4/3 291/73/6
f 294/57/3 296/60/4 295/61/4 293/9/3
f 296/60/4 298/64/4 297/7/4 295/61/4
f 298/64/4 300/67/4 299/68/4 297/7/4
f 300/67/4 302/71/5 301/1/5 299/68/4
f 302/71/5 304/74/6 303/75/6 301/1/5
f 304/74/6 294/78/3 293/4/3 303/75/6
f 306/57/3 308/62/4 307/63/4 305/9/3
f 308/62/4 310/67/5 309/68/5 307/63/4
f 310/67/5 312/72/6 311/73/6 309/68/5
f 312/72/6 306/78/3 305/4/3 311/73/6
