# Blender 4.4.1
# www.blender.org
mtllib StageText.mtl
o テキスト
v 1.718750 0.312500 0.200000
v 1.718750 0.437500 0.200000
v 1.843750 0.437500 0.200000
v 1.843750 0.312500 0.200000
v 0.968750 -0.437500 0.200000
v 0.968750 -0.312500 0.200000
v 1.718750 -0.312500 0.200000
v 1.718750 0.062500 0.200000
v 1.843750 0.062500 0.200000
v 1.843750 -0.437500 0.200000
v 0.968750 -0.062500 0.200000
v 0.968750 0.062500 0.200000
v 1.468750 0.062500 0.200000
v 1.468750 -0.062500 0.200000
v 0.968750 0.312500 0.200000
v 0.968750 0.437500 0.200000
v 1.468750 0.437500 0.200000
v 1.468750 0.312500 0.200000
v 1.531250 0.312500 0.200000
v 1.531250 0.437500 0.200000
v 1.656250 0.437500 0.200000
v 1.656250 0.312500 0.200000
v 0.031250 -0.062500 0.200000
v 0.031250 0.062500 0.200000
v 0.906250 0.062500 0.200000
v 0.906250 -0.062500 0.200000
v -0.968750 0.312500 0.200000
v -0.968750 0.437500 0.200000
v -0.093750 0.437500 0.200000
v -0.093750 0.312500 0.200000
v -0.968750 -0.437500 0.200000
v -0.968750 -0.312500 0.200000
v -0.593750 -0.312500 0.200000
v -0.593750 -0.062500 0.200000
v -0.968750 -0.062500 0.200000
v -0.968750 0.062500 0.200000
v -0.093750 0.062500 0.200000
v -0.093750 -0.062500 0.200000
v -0.468750 -0.062500 0.200000
v -0.468750 -0.437500 0.200000
v -1.906250 -0.437500 0.200000
v -1.906250 0.062500 0.200000
v -1.156250 0.062500 0.200000
v -1.156250 0.312500 0.200000
v -1.906250 0.312500 0.200000
v -1.906250 0.437500 0.200000
v -1.031250 0.437500 0.200000
v -1.031250 -0.062500 0.200000
v -1.343750 -0.062500 0.200000
v -1.343750 -0.312500 0.200000
v -1.031250 -0.312500 0.200000
v -1.031250 -0.437500 0.200000
v -1.468750 -0.437500 0.200000
v -1.468750 -0.062500 0.200000
v -1.781250 -0.062500 0.200000
v -1.781250 -0.437500 0.200000
v 1.718750 0.312500 -0.200000
v 1.718750 0.437500 -0.200000
v 1.843750 0.437500 -0.200000
v 1.843750 0.312500 -0.200000
v 0.968750 -0.437500 -0.200000
v 0.968750 -0.312500 -0.200000
v 1.718750 -0.312500 -0.200000
v 1.718750 0.062500 -0.200000
v 1.843750 0.062500 -0.200000
v 1.843750 -0.437500 -0.200000
v 0.968750 -0.062500 -0.200000
v 0.968750 0.062500 -0.200000
v 1.468750 0.062500 -0.200000
v 1.468750 -0.062500 -0.200000
v 0.968750 0.312500 -0.200000
v 0.968750 0.437500 -0.200000
v 1.468750 0.437500 -0.200000
v 1.468750 0.312500 -0.200000
v 1.531250 0.312500 -0.200000
v 1.531250 0.437500 -0.200000
v 1.656250 0.437500 -0.200000
v 1.656250 0.312500 -0.200000
v 0.031250 -0.062500 -0.200000
v 0.031250 0.062500 -0.200000
v 0.906250 0.062500 -0.200000
v 0.906250 -0.062500 -0.200000
v -0.968750 0.312500 -0.200000
v -0.968750 0.437500 -0.200000
v -0.093750 0.437500 -0.200000
v -0.093750 0.312500 -0.200000
v -0.968750 -0.437500 -0.200000
v -0.968750 -0.312500 -0.200000
v -0.593750 -0.312500 -0.200000
v -0.593750 -0.062500 -0.200000
v -0.968750 -0.062500 -0.200000
v -0.968750 0.062500 -0.200000
v -0.093750 0.062500 -0.200000
v -0.093750 -0.062500 -0.200000
v -0.468750 -0.062500 -0.200000
v -0.468750 -0.437500 -0.200000
v -1.906250 -0.437500 -0.200000
v -1.906250 0.062500 -0.200000
v -1.156250 0.062500 -0.200000
v -1.156250 0.312500 -0.200000
v -1.906250 0.312500 -0.200000
v -1.906250 0.437500 -0.200000
v -1.031250 0.437500 -0.200000
v -1.031250 -0.062500 -0.200000
v -1.343750 -0.062500 -0.200000
v -1.343750 -0.312500 -0.200000
v -1.031250 -0.312500 -0.200000
v -1.031250 -0.437500 -0.200000
v -1.468750 -0.437500 -0.200000
v -1.468750 -0.062500 -0.200000
v -1.781250 -0.062500 -0.200000
v -1.781250 -0.437500 -0.200000
v -1.906250 -0.437500 -0.200000
v -1.906250 -0.437500 0.200000
v -1.906250 0.062500 -0.200000
v -1.906250 0.062500 0.200000
v -1.156250 0.062500 -0.200000
v -1.156250 0.062500 0.200000
v -1.156250 0.312500 -0.200000
v -1.156250 0.312500 0.200000
v -1.906250 0.312500 -0.200000
v -1.906250 0.312500 0.200000
v -1.906250 0.437500 -0.200000
v -1.906250 0.437500 0.200000
v -1.031250 0.437500 -0.200000
v -1.031250 0.437500 0.200000
v -1.031250 -0.062500 -0.200000
v -1.031250 -0.062500 0.200000
v -1.343750 -0.062500 -0.200000
v -1.343750 -0.062500 0.200000
v -1.343750 -0.312500 -0.200000
v -1.343750 -0.312500 0.200000
v -1.031250 -0.312500 -0.200000
v -1.031250 -0.312500 0.200000
v -1.031250 -0.437500 -0.200000
v -1.031250 -0.437500 0.200000
v -1.468750 -0.437500 -0.200000
v -1.468750 -0.437500 0.200000
v -1.468750 -0.062500 -0.200000
v -1.468750 -0.062500 0.200000
v -1.781250 -0.062500 -0.200000
v -1.781250 -0.062500 0.200000
v -1.781250 -0.437500 -0.200000
v -1.781250 -0.437500 0.200000
v -0.968750 -0.437500 -0.200000
v -0.968750 -0.437500 0.200000
v -0.968750 -0.312500 -0.200000
v -0.968750 -0.312500 0.200000
v -0.593750 -0.312500 -0.200000
v -0.593750 -0.312500 0.200000
v -0.593750 -0.062500 -0.200000
v -0.593750 -0.062500 0.200000
v -0.968750 -0.062500 -0.200000
v -0.968750 -0.062500 0.200000
v -0.968750 0.062500 -0.200000
v -0.968750 0.062500 0.200000
v -0.093750 0.062500 -0.200000
v -0.093750 0.062500 0.200000
v -0.093750 -0.062500 -0.200000
v -0.093750 -0.062500 0.200000
v -0.468750 -0.062500 -0.200000
v -0.468750 -0.062500 0.200000
v -0.468750 -0.437500 -0.200000
v -0.468750 -0.437500 0.200000
v -0.968750 0.312500 -0.200000
v -0.968750 0.312500 0.200000
v -0.968750 0.437500 -0.200000
v -0.968750 0.437500 0.200000
v -0.093750 0.437500 -0.200000
v -0.093750 0.437500 0.200000
v -0.093750 0.312500 -0.200000
v -0.093750 0.312500 0.200000
v 0.031250 -0.062500 -0.200000
v 0.031250 -0.062500 0.200000
v 0.031250 0.062500 -0.200000
v 0.031250 0.062500 0.200000
v 0.906250 0.062500 -0.200000
v 0.906250 0.062500 0.200000
v 0.906250 -0.062500 -0.200000
v 0.906250 -0.062500 0.200000
v 0.968750 -0.437500 -0.200000
v 0.968750 -0.437500 0.200000
v 0.968750 -0.312500 -0.200000
v 0.968750 -0.312500 0.200000
v 1.718750 -0.312500 -0.200000
v 1.718750 -0.312500 0.200000
v 1.718750 0.062500 -0.200000
v 1.718750 0.062500 0.200000
v 1.843750 0.062500 -0.200000
v 1.843750 0.062500 0.200000
v 1.843750 -0.437500 -0.200000
v 1.843750 -0.437500 0.200000
v 0.968750 -0.062500 -0.200000
v 0.968750 -0.062500 0.200000
v 0.968750 0.062500 -0.200000
v 0.968750 0.062500 0.200000
v 1.468750 0.062500 -0.200000
v 1.468750 0.062500 0.200000
v 1.468750 -0.062500 -0.200000
v 1.468750 -0.062500 0.200000
v 0.968750 0.312500 -0.200000
v 0.968750 0.312500 0.200000
v 0.968750 0.437500 -0.200000
v 0.968750 0.437500 0.200000
v 1.468750 0.437500 -0.200000
v 1.468750 0.437500 0.200000
v 1.468750 0.312500 -0.200000
v 1.468750 0.312500 0.200000
v 1.531250 0.312500 -0.200000
v 1.531250 0.312500 0.200000
v 1.531250 0.437500 -0.200000
v 1.531250 0.437500 0.200000
v 1.656250 0.437500 -0.200000
v 1.656250 0.437500 0.200000
v 1.656250 0.312500 -0.200000
v 1.656250 0.312500 0.200000
v 1.718750 0.312500 -0.200000
v 1.718750 0.312500 0.200000
v 1.718750 0.437500 -0.200000
v 1.718750 0.437500 0.200000
v 1.843750 0.437500 -0.200000
v 1.843750 0.437500 0.200000
v 1.843750 0.312500 -0.200000
v 1.843750 0.312500 0.200000
vn -0.0000 -0.0000 1.0000
vn -0.0000 -0.0000 -1.0000
vn -0.7071 -0.7071 -0.0000
vn -0.7071 0.7071 -0.0000
vn 0.7071 0.7071 -0.0000
vn 0.7071 -0.7071 -0.0000
vt 0.476190 0.000000
vt 0.571429 0.000000
vt 0.523810 0.000000
vt 0.619048 0.000000
vt 0.285714 0.000000
vt 0.380952 0.000000
vt 0.333333 0.000000
vt 0.428571 0.000000
vt 0.190476 0.000000
vt 0.238095 0.000000
vt 0.666667 0.000000
vt 0.761905 0.000000
vt 0.714286 0.000000
vt 0.809524 0.000000
vt 0.857143 0.000000
vt 0.952381 0.000000
vt 0.904762 0.000000
vt 1.000000 0.000000
vt 0.000000 0.000000
vt 0.095238 0.000000
vt 0.047619 0.000000
vt 0.142857 0.000000
vt 0.615385 0.000000
vt 0.769231 0.000000
vt 0.692308 0.000000
vt 0.846154 0.000000
vt 0.538462 0.000000
vt 0.461538 0.000000
vt 0.923077 0.000000
vt 0.307692 0.000000
vt 0.384615 0.000000
vt 0.153846 0.000000
vt 0.076923 0.000000
vt 0.230769 0.000000
vt 0.266667 0.000000
vt 0.400000 0.000000
vt 0.200000 0.000000
vt 0.466667 0.000000
vt 0.133333 0.000000
vt 0.933333 0.000000
vt 0.066667 0.000000
vt 0.866667 0.000000
vt 0.800000 0.000000
vt 0.533333 0.000000
vt 0.600000 0.000000
vt 0.733333 0.000000
vt 0.000000 1.000000
vt 0.062500 1.000000
vt 0.062500 0.000000
vt 0.125000 1.000000
vt 0.125000 0.000000
vt 0.187500 1.000000
vt 0.187500 0.000000
vt 0.250000 1.000000
vt 0.250000 0.000000
vt 0.312500 1.000000
vt 0.312500 0.000000
vt 0.375000 1.000000
vt 0.375000 0.000000
vt 0.437500 1.000000
vt 0.437500 0.000000
vt 0.500000 1.000000
vt 0.500000 0.000000
vt 0.562500 1.000000
vt 0.562500 0.000000
vt 0.625000 1.000000
vt 0.625000 0.000000
vt 0.687500 1.000000
vt 0.687500 0.000000
vt 0.750000 1.000000
vt 0.750000 0.000000
vt 0.812500 1.000000
vt 0.812500 0.000000
vt 0.875000 1.000000
vt 0.875000 0.000000
vt 0.937500 1.000000
vt 0.937500 0.000000
vt 1.000000 1.000000
vt 0.100000 1.000000
vt 0.100000 0.000000
vt 0.200000 1.000000
vt 0.300000 1.000000
vt 0.300000 0.000000
vt 0.400000 1.000000
vt 0.600000 1.000000
vt 0.700000 1.000000
vt 0.700000 0.000000
vt 0.800000 1.000000
vt 0.900000 1.000000
vt 0.900000 0.000000
vt 0.166667 1.000000
vt 0.166667 0.000000
vt 0.333333 1.000000
vt 0.666667 1.000000
vt 0.833333 1.000000
vt 0.833333 0.000000
s 0
usemtl マテリアル
f 11/1/1 13/2/1 12/3/1
f 11/1/1 14/4/1 13/2/1
f 7/5/1 9/6/1 8/7/1
f 7/5/1 10/8/1 9/6/1
f 5/9/1 7/5/1 6/10/1
f 5/9/1 10/8/1 7/5/1
f 15/11/1 17/12/1 16/13/1
f 15/11/1 18/14/1 17/12/1
f 19/15/1 21/16/1 20/17/1
f 19/15/1 22/18/1 21/16/1
f 1/19/1 3/20/1 2/21/1
f 1/19/1 4/22/1 3/20/1
f 23/19/1 25/11/1 24/7/1
f 23/19/1 26/18/1 25/11/1
f 35/23/1 37/24/1 36/25/1
f 35/23/1 38/26/1 37/24/1
f 34/27/1 38/26/1 35/23/1
f 33/28/1 39/29/1 34/27/1
f 39/29/1 38/26/1 34/27/1
f 33/28/1 40/18/1 39/29/1
f 31/30/1 33/28/1 32/31/1
f 31/30/1 40/18/1 33/28/1
f 27/19/1 29/32/1 28/33/1
f 27/19/1 30/34/1 29/32/1
f 45/35/1 47/36/1 46/7/1
f 45/35/1 44/37/1 47/36/1
f 44/37/1 48/38/1 47/36/1
f 43/39/1 48/38/1 44/37/1
f 41/19/1 55/40/1 42/41/1
f 55/40/1 43/39/1 42/41/1
f 55/40/1 48/38/1 43/39/1
f 41/19/1 56/18/1 55/40/1
f 54/42/1 48/38/1 55/40/1
f 53/43/1 49/44/1 54/42/1
f 49/44/1 48/38/1 54/42/1
f 53/43/1 50/45/1 49/44/1
f 53/43/1 51/11/1 50/45/1
f 53/43/1 52/46/1 51/11/1
f 67/1/2 68/3/2 69/2/2
f 67/1/2 69/2/2 70/4/2
f 63/5/2 64/7/2 65/6/2
f 63/5/2 65/6/2 66/8/2
f 61/9/2 62/10/2 63/5/2
f 61/9/2 63/5/2 66/8/2
f 71/11/2 72/13/2 73/12/2
f 71/11/2 73/12/2 74/14/2
f 75/15/2 76/17/2 77/16/2
f 75/15/2 77/16/2 78/18/2
f 57/19/2 58/21/2 59/20/2
f 57/19/2 59/20/2 60/22/2
f 79/19/2 80/7/2 81/11/2
f 79/19/2 81/11/2 82/18/2
f 91/23/2 92/25/2 93/24/2
f 91/23/2 93/24/2 94/26/2
f 90/27/1 91/23/1 94/26/1
f 89/28/2 90/27/2 95/29/2
f 95/29/1 90/27/1 94/26/1
f 89/28/2 95/29/2 96/18/2
f 87/30/2 88/31/2 89/28/2
f 87/30/2 89/28/2 96/18/2
f 83/19/2 84/33/2 85/32/2
f 83/19/2 85/32/2 86/34/2
f 101/35/2 102/7/2 103/36/2
f 101/35/2 103/36/2 100/37/2
f 100/37/2 103/36/2 104/38/2
f 99/39/2 100/37/2 104/38/2
f 97/19/2 98/41/2 111/40/2
f 111/40/2 98/41/2 99/39/2
f 111/40/2 99/39/2 104/38/2
f 97/19/2 111/40/2 112/18/2
f 110/42/1 111/40/1 104/38/1
f 109/43/2 110/42/2 105/44/2
f 105/44/1 110/42/1 104/38/1
f 109/43/2 105/44/2 106/45/2
f 109/43/2 106/45/2 107/11/2
f 109/43/2 107/11/2 108/46/2
s 1
f 114/47/3 116/48/4 115/49/4 113/19/3
f 116/48/4 118/50/4 117/51/4 115/49/4
f 118/50/4 120/52/3 119/53/3 117/51/4
f 120/52/3 122/54/3 121/55/3 119/53/3
f 122/54/3 124/56/4 123/57/4 121/55/3
f 124/56/4 126/58/5 125/59/5 123/57/4
f 126/58/5 128/60/6 127/61/6 125/59/5
f 128/60/6 130/62/6 129/63/6 127/61/6
f 130/62/6 132/64/5 131/65/5 129/63/6
f 132/64/5 134/66/5 133/67/5 131/65/5
f 134/66/5 136/68/6 135/69/6 133/67/5
f 136/68/6 138/70/3 137/71/3 135/69/6
f 138/70/3 140/72/3 139/73/3 137/71/3
f 140/72/3 142/74/6 141/75/6 139/73/3
f 142/74/6 144/76/6 143/77/6 141/75/6
f 144/76/6 114/78/3 113/18/3 143/77/6
f 146/47/3 148/79/4 147/80/4 145/19/3
f 148/79/4 150/81/4 149/37/4 147/80/4
f 150/81/4 152/82/3 151/83/3 149/37/4
f 152/82/3 154/84/3 153/36/3 151/83/3
f 154/84/3 156/62/4 155/63/4 153/36/3
f 156/62/4 158/85/5 157/45/5 155/63/4
f 158/85/5 160/86/6 159/87/6 157/45/5
f 160/86/6 162/88/6 161/43/6 159/87/6
f 162/88/6 164/89/6 163/90/6 161/43/6
f 164/89/6 146/78/3 145/18/3 163/90/6
f 166/47/3 168/54/4 167/55/4 165/19/3
f 168/54/4 170/62/5 169/63/5 167/55/4
f 170/62/5 172/70/6 171/71/6 169/63/5
f 172/70/6 166/78/3 165/18/3 171/71/6
f 174/47/3 176/54/4 175/55/4 173/19/3
f 176/54/4 178/62/5 177/63/5 175/55/4
f 178/62/5 180/70/6 179/71/6 177/63/5
f 180/70/6 174/78/3 173/18/3 179/71/6
f 182/47/3 184/91/4 183/92/4 181/19/3
f 184/91/4 186/93/4 185/7/4 183/92/4
f 186/93/4 188/62/4 187/63/4 185/7/4
f 188/62/4 190/94/5 189/11/5 187/63/4
f 190/94/5 192/95/6 191/96/6 189/11/5
f 192/95/6 182/78/3 181/18/3 191/96/6
f 194/47/3 196/54/4 195/55/4 193/19/3
f 196/54/4 198/62/5 197/63/5 195/55/4
f 198/62/5 200/70/6 199/71/6 197/63/5
f 200/70/6 194/78/3 193/18/3 199/71/6
f 202/47/3 204/54/4 203/55/4 201/19/3
f 204/54/4 206/62/5 205/63/5 203/55/4
f 206/62/5 208/70/6 207/71/6 205/63/5
f 208/70/6 202/78/3 201/18/3 207/71/6
f 210/47/3 212/54/4 211/55/4 209/19/3
f 212/54/4 214/62/5 213/63/5 211/55/4
f 214/62/5 216/70/6 215/71/6 213/63/5
f 216/70/6 210/78/3 209/18/3 215/71/6
f 218/47/3 220/54/4 219/55/4 217/19/3
f 220/54/4 222/62/5 221/63/5 219/55/4
f 222/62/5 224/70/6 223/71/6 221/63/5
f 224/70/6 218/78/3 217/18/3 223/71/6
