# Blender 4.4.1
# www.blender.org
mtllib StageSelect.mtl
o テキスト
v 2.843750 -0.437500 0.100000
v 2.843750 0.437500 0.100000
v 2.968750 0.437500 0.100000
v 2.968750 0.062500 0.100000
v 3.718750 0.062500 0.100000
v 3.718750 -0.062500 0.100000
v 2.968750 -0.062500 0.100000
v 2.968750 -0.437500 0.100000
v 2.656250 -0.437500 0.100000
v 2.656250 0.187500 0.100000
v 2.031250 0.187500 0.100000
v 2.031250 -0.125000 0.100000
v 1.906250 -0.125000 0.100000
v 1.906250 0.437500 0.100000
v 2.031250 0.437500 0.100000
v 2.031250 0.312500 0.100000
v 2.781250 0.312500 0.100000
v 2.781250 -0.437500 0.100000
v 0.968750 -0.437500 0.100000
v 0.968750 0.437500 0.100000
v 1.093750 0.437500 0.100000
v 1.093750 -0.312500 0.100000
v 1.593750 -0.312500 0.100000
v 1.593750 -0.187500 0.100000
v 1.718750 -0.187500 0.100000
v 1.718750 -0.062500 0.100000
v 1.843750 -0.062500 0.100000
v 1.843750 -0.312500 0.100000
v 1.718750 -0.312500 0.100000
v 1.718750 -0.437500 0.100000
v 0.156250 -0.437500 0.100000
v 0.156250 0.187500 0.100000
v 0.031250 0.187500 0.100000
v 0.031250 0.312500 0.100000
v 0.156250 0.312500 0.100000
v 0.156250 0.437500 0.100000
v 0.281250 0.437500 0.100000
v 0.281250 0.312500 0.100000
v 0.906250 0.312500 0.100000
v 0.906250 -0.000000 0.100000
v 0.781250 -0.000000 0.100000
v 0.781250 0.187500 0.100000
v 0.281250 0.187500 0.100000
v 0.281250 -0.312500 0.100000
v 0.906250 -0.312500 0.100000
v 0.906250 -0.437500 0.100000
v -0.156250 0.312500 0.100000
v -0.156250 0.437500 0.100000
v -0.031250 0.437500 0.100000
v -0.031250 0.312500 0.100000
v -0.906250 -0.437500 0.100000
v -0.906250 -0.312500 0.100000
v -0.156250 -0.312500 0.100000
v -0.156250 0.062500 0.100000
v -0.031250 0.062500 0.100000
v -0.031250 -0.437500 0.100000
v -0.906250 -0.062500 0.100000
v -0.906250 0.062500 0.100000
v -0.406250 0.062500 0.100000
v -0.406250 -0.062500 0.100000
v -0.906250 0.312500 0.100000
v -0.906250 0.437500 0.100000
v -0.406250 0.437500 0.100000
v -0.406250 0.312500 0.100000
v -0.343750 0.312500 0.100000
v -0.343750 0.437500 0.100000
v -0.218750 0.437500 0.100000
v -0.218750 0.312500 0.100000
v -1.843750 -0.062500 0.100000
v -1.843750 0.062500 0.100000
v -0.968750 0.062500 0.100000
v -0.968750 -0.062500 0.100000
v -2.843750 0.312500 0.100000
v -2.843750 0.437500 0.100000
v -1.968750 0.437500 0.100000
v -1.968750 0.312500 0.100000
v -2.843750 -0.437500 0.100000
v -2.843750 -0.312500 0.100000
v -2.468750 -0.312500 0.100000
v -2.468750 -0.062500 0.100000
v -2.843750 -0.062500 0.100000
v -2.843750 0.062500 0.100000
v -1.968750 0.062500 0.100000
v -1.968750 -0.062500 0.100000
v -2.343750 -0.062500 0.100000
v -2.343750 -0.437500 0.100000
v -3.781250 -0.437500 0.100000
v -3.781250 0.062500 0.100000
v -3.031250 0.062500 0.100000
v -3.031250 0.312500 0.100000
v -3.781250 0.312500 0.100000
v -3.781250 0.437500 0.100000
v -2.906250 0.437500 0.100000
v -2.906250 -0.062500 0.100000
v -3.218750 -0.062500 0.100000
v -3.218750 -0.312500 0.100000
v -2.906250 -0.312500 0.100000
v -2.906250 -0.437500 0.100000
v -3.343750 -0.437500 0.100000
v -3.343750 -0.062500 0.100000
v -3.656250 -0.062500 0.100000
v -3.656250 -0.437500 0.100000
v 2.843750 -0.437500 -0.100000
v 2.843750 0.437500 -0.100000
v 2.968750 0.437500 -0.100000
v 2.968750 0.062500 -0.100000
v 3.718750 0.062500 -0.100000
v 3.718750 -0.062500 -0.100000
v 2.968750 -0.062500 -0.100000
v 2.968750 -0.437500 -0.100000
v 2.656250 -0.437500 -0.100000
v 2.656250 0.187500 -0.100000
v 2.031250 0.187500 -0.100000
v 2.031250 -0.125000 -0.100000
v 1.906250 -0.125000 -0.100000
v 1.906250 0.437500 -0.100000
v 2.031250 0.437500 -0.100000
v 2.031250 0.312500 -0.100000
v 2.781250 0.312500 -0.100000
v 2.781250 -0.437500 -0.100000
v 0.968750 -0.437500 -0.100000
v 0.968750 0.437500 -0.100000
v 1.093750 0.437500 -0.100000
v 1.093750 -0.312500 -0.100000
v 1.593750 -0.312500 -0.100000
v 1.593750 -0.187500 -0.100000
v 1.718750 -0.187500 -0.100000
v 1.718750 -0.062500 -0.100000
v 1.843750 -0.062500 -0.100000
v 1.843750 -0.312500 -0.100000
v 1.718750 -0.312500 -0.100000
v 1.718750 -0.437500 -0.100000
v 0.156250 -0.437500 -0.100000
v 0.156250 0.187500 -0.100000
v 0.031250 0.187500 -0.100000
v 0.031250 0.312500 -0.100000
v 0.156250 0.312500 -0.100000
v 0.156250 0.437500 -0.100000
v 0.281250 0.437500 -0.100000
v 0.281250 0.312500 -0.100000
v 0.906250 0.312500 -0.100000
v 0.906250 0.000000 -0.100000
v 0.781250 0.000000 -0.100000
v 0.781250 0.187500 -0.100000
v 0.281250 0.187500 -0.100000
v 0.281250 -0.312500 -0.100000
v 0.906250 -0.312500 -0.100000
v 0.906250 -0.437500 -0.100000
v -0.156250 0.312500 -0.100000
v -0.156250 0.437500 -0.100000
v -0.031250 0.437500 -0.100000
v -0.031250 0.312500 -0.100000
v -0.906250 -0.437500 -0.100000
v -0.906250 -0.312500 -0.100000
v -0.156250 -0.312500 -0.100000
v -0.156250 0.062500 -0.100000
v -0.031250 0.062500 -0.100000
v -0.031250 -0.437500 -0.100000
v -0.906250 -0.062500 -0.100000
v -0.906250 0.062500 -0.100000
v -0.406250 0.062500 -0.100000
v -0.406250 -0.062500 -0.100000
v -0.906250 0.312500 -0.100000
v -0.906250 0.437500 -0.100000
v -0.406250 0.437500 -0.100000
v -0.406250 0.312500 -0.100000
v -0.343750 0.312500 -0.100000
v -0.343750 0.437500 -0.100000
v -0.218750 0.437500 -0.100000
v -0.218750 0.312500 -0.100000
v -1.843750 -0.062500 -0.100000
v -1.843750 0.062500 -0.100000
v -0.968750 0.062500 -0.100000
v -0.968750 -0.062500 -0.100000
v -2.843750 0.312500 -0.100000
v -2.843750 0.437500 -0.100000
v -1.968750 0.437500 -0.100000
v -1.968750 0.312500 -0.100000
v -2.843750 -0.437500 -0.100000
v -2.843750 -0.312500 -0.100000
v -2.468750 -0.312500 -0.100000
v -2.468750 -0.062500 -0.100000
v -2.843750 -0.062500 -0.100000
v -2.843750 0.062500 -0.100000
v -1.968750 0.062500 -0.100000
v -1.968750 -0.062500 -0.100000
v -2.343750 -0.062500 -0.100000
v -2.343750 -0.437500 -0.100000
v -3.781250 -0.437500 -0.100000
v -3.781250 0.062500 -0.100000
v -3.031250 0.062500 -0.100000
v -3.031250 0.312500 -0.100000
v -3.781250 0.312500 -0.100000
v -3.781250 0.437500 -0.100000
v -2.906250 0.437500 -0.100000
v -2.906250 -0.062500 -0.100000
v -3.218750 -0.062500 -0.100000
v -3.218750 -0.312500 -0.100000
v -2.906250 -0.312500 -0.100000
v -2.906250 -0.437500 -0.100000
v -3.343750 -0.437500 -0.100000
v -3.343750 -0.062500 -0.100000
v -3.656250 -0.062500 -0.100000
v -3.656250 -0.437500 -0.100000
v -3.781250 -0.437500 -0.100000
v -3.781250 -0.437500 0.100000
v -3.781250 0.062500 -0.100000
v -3.781250 0.062500 0.100000
v -3.031250 0.062500 -0.100000
v -3.031250 0.062500 0.100000
v -3.031250 0.312500 -0.100000
v -3.031250 0.312500 0.100000
v -3.781250 0.312500 -0.100000
v -3.781250 0.312500 0.100000
v -3.781250 0.437500 -0.100000
v -3.781250 0.437500 0.100000
v -2.906250 0.437500 -0.100000
v -2.906250 0.437500 0.100000
v -2.906250 -0.062500 -0.100000
v -2.906250 -0.062500 0.100000
v -3.218750 -0.062500 -0.100000
v -3.218750 -0.062500 0.100000
v -3.218750 -0.312500 -0.100000
v -3.218750 -0.312500 0.100000
v -2.906250 -0.312500 -0.100000
v -2.906250 -0.312500 0.100000
v -2.906250 -0.437500 -0.100000
v -2.906250 -0.437500 0.100000
v -3.343750 -0.437500 -0.100000
v -3.343750 -0.437500 0.100000
v -3.343750 -0.062500 -0.100000
v -3.343750 -0.062500 0.100000
v -3.656250 -0.062500 -0.100000
v -3.656250 -0.062500 0.100000
v -3.656250 -0.437500 -0.100000
v -3.656250 -0.437500 0.100000
v -2.843750 -0.437500 -0.100000
v -2.843750 -0.437500 0.100000
v -2.843750 -0.312500 -0.100000
v -2.843750 -0.312500 0.100000
v -2.468750 -0.312500 -0.100000
v -2.468750 -0.312500 0.100000
v -2.468750 -0.062500 -0.100000
v -2.468750 -0.062500 0.100000
v -2.843750 -0.062500 -0.100000
v -2.843750 -0.062500 0.100000
v -2.843750 0.062500 -0.100000
v -2.843750 0.062500 0.100000
v -1.968750 0.062500 -0.100000
v -1.968750 0.062500 0.100000
v -1.968750 -0.062500 -0.100000
v -1.968750 -0.062500 0.100000
v -2.343750 -0.062500 -0.100000
v -2.343750 -0.062500 0.100000
v -2.343750 -0.437500 -0.100000
v -2.343750 -0.437500 0.100000
v -2.843750 0.312500 -0.100000
v -2.843750 0.312500 0.100000
v -2.843750 0.437500 -0.100000
v -2.843750 0.437500 0.100000
v -1.968750 0.437500 -0.100000
v -1.968750 0.437500 0.100000
v -1.968750 0.312500 -0.100000
v -1.968750 0.312500 0.100000
v -1.843750 -0.062500 -0.100000
v -1.843750 -0.062500 0.100000
v -1.843750 0.062500 -0.100000
v -1.843750 0.062500 0.100000
v -0.968750 0.062500 -0.100000
v -0.968750 0.062500 0.100000
v -0.968750 -0.062500 -0.100000
v -0.968750 -0.062500 0.100000
v -0.906250 -0.437500 -0.100000
v -0.906250 -0.437500 0.100000
v -0.906250 -0.312500 -0.100000
v -0.906250 -0.312500 0.100000
v -0.156250 -0.312500 -0.100000
v -0.156250 -0.312500 0.100000
v -0.156250 0.062500 -0.100000
v -0.156250 0.062500 0.100000
v -0.031250 0.062500 -0.100000
v -0.031250 0.062500 0.100000
v -0.031250 -0.437500 -0.100000
v -0.031250 -0.437500 0.100000
v -0.906250 -0.062500 -0.100000
v -0.906250 -0.062500 0.100000
v -0.906250 0.062500 -0.100000
v -0.906250 0.062500 0.100000
v -0.406250 0.062500 -0.100000
v -0.406250 0.062500 0.100000
v -0.406250 -0.062500 -0.100000
v -0.406250 -0.062500 0.100000
v -0.906250 0.312500 -0.100000
v -0.906250 0.312500 0.100000
v -0.906250 0.437500 -0.100000
v -0.906250 0.437500 0.100000
v -0.406250 0.437500 -0.100000
v -0.406250 0.437500 0.100000
v -0.406250 0.312500 -0.100000
v -0.406250 0.312500 0.100000
v -0.343750 0.312500 -0.100000
v -0.343750 0.312500 0.100000
v -0.343750 0.437500 -0.100000
v -0.343750 0.437500 0.100000
v -0.218750 0.437500 -0.100000
v -0.218750 0.437500 0.100000
v -0.218750 0.312500 -0.100000
v -0.218750 0.312500 0.100000
v -0.156250 0.312500 -0.100000
v -0.156250 0.312500 0.100000
v -0.156250 0.437500 -0.100000
v -0.156250 0.437500 0.100000
v -0.031250 0.437500 -0.100000
v -0.031250 0.437500 0.100000
v -0.031250 0.312500 -0.100000
v -0.031250 0.312500 0.100000
v 0.156250 -0.437500 -0.100000
v 0.156250 -0.437500 0.100000
v 0.156250 0.187500 -0.100000
v 0.156250 0.187500 0.100000
v 0.031250 0.187500 -0.100000
v 0.031250 0.187500 0.100000
v 0.031250 0.312500 -0.100000
v 0.031250 0.312500 0.100000
v 0.156250 0.312500 -0.100000
v 0.156250 0.312500 0.100000
v 0.156250 0.437500 -0.100000
v 0.156250 0.437500 0.100000
v 0.281250 0.437500 -0.100000
v 0.281250 0.437500 0.100000
v 0.281250 0.312500 -0.100000
v 0.281250 0.312500 0.100000
v 0.906250 0.312500 -0.100000
v 0.906250 0.312500 0.100000
v 0.906250 0.000000 -0.100000
v 0.906250 -0.000000 0.100000
v 0.781250 0.000000 -0.100000
v 0.781250 -0.000000 0.100000
v 0.781250 0.187500 -0.100000
v 0.781250 0.187500 0.100000
v 0.281250 0.187500 -0.100000
v 0.281250 0.187500 0.100000
v 0.281250 -0.312500 -0.100000
v 0.281250 -0.312500 0.100000
v 0.906250 -0.312500 -0.100000
v 0.906250 -0.312500 0.100000
v 0.906250 -0.437500 -0.100000
v 0.906250 -0.437500 0.100000
v 0.968750 -0.437500 -0.100000
v 0.968750 -0.437500 0.100000
v 0.968750 0.437500 -0.100000
v 0.968750 0.437500 0.100000
v 1.093750 0.437500 -0.100000
v 1.093750 0.437500 0.100000
v 1.093750 -0.312500 -0.100000
v 1.093750 -0.312500 0.100000
v 1.593750 -0.312500 -0.100000
v 1.593750 -0.312500 0.100000
v 1.593750 -0.187500 -0.100000
v 1.593750 -0.187500 0.100000
v 1.718750 -0.187500 -0.100000
v 1.718750 -0.187500 0.100000
v 1.718750 -0.062500 -0.100000
v 1.718750 -0.062500 0.100000
v 1.843750 -0.062500 -0.100000
v 1.843750 -0.062500 0.100000
v 1.843750 -0.312500 -0.100000
v 1.843750 -0.312500 0.100000
v 1.718750 -0.312500 -0.100000
v 1.718750 -0.312500 0.100000
v 1.718750 -0.437500 -0.100000
v 1.718750 -0.437500 0.100000
v 2.656250 -0.437500 -0.100000
v 2.656250 -0.437500 0.100000
v 2.656250 0.187500 -0.100000
v 2.656250 0.187500 0.100000
v 2.031250 0.187500 -0.100000
v 2.031250 0.187500 0.100000
v 2.031250 -0.125000 -0.100000
v 2.031250 -0.125000 0.100000
v 1.906250 -0.125000 -0.100000
v 1.906250 -0.125000 0.100000
v 1.906250 0.437500 -0.100000
v 1.906250 0.437500 0.100000
v 2.031250 0.437500 -0.100000
v 2.031250 0.437500 0.100000
v 2.031250 0.312500 -0.100000
v 2.031250 0.312500 0.100000
v 2.781250 0.312500 -0.100000
v 2.781250 0.312500 0.100000
v 2.781250 -0.437500 -0.100000
v 2.781250 -0.437500 0.100000
v 2.843750 -0.437500 -0.100000
v 2.843750 -0.437500 0.100000
v 2.843750 0.437500 -0.100000
v 2.843750 0.437500 0.100000
v 2.968750 0.437500 -0.100000
v 2.968750 0.437500 0.100000
v 2.968750 0.062500 -0.100000
v 2.968750 0.062500 0.100000
v 3.718750 0.062500 -0.100000
v 3.718750 0.062500 0.100000
v 3.718750 -0.062500 -0.100000
v 3.718750 -0.062500 0.100000
v 2.968750 -0.062500 -0.100000
v 2.968750 -0.062500 0.100000
v 2.968750 -0.437500 -0.100000
v 2.968750 -0.437500 0.100000
vn -0.0000 -0.0000 1.0000
vn -0.0000 -0.0000 -1.0000
vn -0.7071 -0.7071 -0.0000
vn -0.7071 0.7071 -0.0000
vn 0.7071 0.7071 -0.0000
vn 0.7071 -0.7071 -0.0000
vt 0.000000 0.000000
vt 0.285714 0.000000
vt 0.142857 0.000000
vt 0.428571 0.000000
vt 0.857143 0.000000
vt 0.571429 0.000000
vt 0.714286 0.000000
vt 1.000000 0.000000
vt 0.444444 0.000000
vt 0.666667 0.000000
vt 0.555556 0.000000
vt 0.777778 0.000000
vt 0.222222 0.000000
vt 0.888889 0.000000
vt 0.111111 0.000000
vt 0.333333 0.000000
vt 0.181818 0.000000
vt 0.090909 0.000000
vt 0.272727 0.000000
vt 0.545455 0.000000
vt 0.727273 0.000000
vt 0.636364 0.000000
vt 0.818182 0.000000
vt 0.363636 0.000000
vt 0.454545 0.000000
vt 0.909091 0.000000
vt 0.266667 0.000000
vt 0.400000 0.000000
vt 0.466667 0.000000
vt 0.133333 0.000000
vt 0.200000 0.000000
vt 0.533333 0.000000
vt 0.066667 0.000000
vt 0.800000 0.000000
vt 0.733333 0.000000
vt 0.600000 0.000000
vt 0.866667 0.000000
vt 0.933333 0.000000
vt 0.476190 0.000000
vt 0.523810 0.000000
vt 0.619048 0.000000
vt 0.380952 0.000000
vt 0.190476 0.000000
vt 0.238095 0.000000
vt 0.761905 0.000000
vt 0.809524 0.000000
vt 0.952381 0.000000
vt 0.904762 0.000000
vt 0.095238 0.000000
vt 0.047619 0.000000
vt 0.615385 0.000000
vt 0.769231 0.000000
vt 0.692308 0.000000
vt 0.846154 0.000000
vt 0.538462 0.000000
vt 0.461538 0.000000
vt 0.923077 0.000000
vt 0.307692 0.000000
vt 0.384615 0.000000
vt 0.153846 0.000000
vt 0.076923 0.000000
vt 0.230769 0.000000
vt 0.000000 1.000000
vt 0.062500 1.000000
vt 0.062500 0.000000
vt 0.125000 1.000000
vt 0.125000 0.000000
vt 0.187500 1.000000
vt 0.187500 0.000000
vt 0.250000 1.000000
vt 0.250000 0.000000
vt 0.312500 1.000000
vt 0.312500 0.000000
vt 0.375000 1.000000
vt 0.375000 0.000000
vt 0.437500 1.000000
vt 0.437500 0.000000
vt 0.500000 1.000000
vt 0.500000 0.000000
vt 0.562500 1.000000
vt 0.562500 0.000000
vt 0.625000 1.000000
vt 0.625000 0.000000
vt 0.687500 1.000000
vt 0.687500 0.000000
vt 0.750000 1.000000
vt 0.750000 0.000000
vt 0.812500 1.000000
vt 0.812500 0.000000
vt 0.875000 1.000000
vt 0.875000 0.000000
vt 0.937500 1.000000
vt 0.937500 0.000000
vt 1.000000 1.000000
vt 0.100000 1.000000
vt 0.100000 0.000000
vt 0.200000 1.000000
vt 0.300000 1.000000
vt 0.300000 0.000000
vt 0.400000 1.000000
vt 0.600000 1.000000
vt 0.700000 1.000000
vt 0.700000 0.000000
vt 0.800000 1.000000
vt 0.900000 1.000000
vt 0.900000 0.000000
vt 0.166667 1.000000
vt 0.166667 0.000000
vt 0.333333 1.000000
vt 0.666667 1.000000
vt 0.833333 1.000000
vt 0.833333 0.000000
vt 0.083333 1.000000
vt 0.083333 0.000000
vt 0.416667 1.000000
vt 0.416667 0.000000
vt 0.583333 1.000000
vt 0.583333 0.000000
vt 0.916667 1.000000
vt 0.916667 0.000000
s 0
usemtl マテリアル
f 1/1/1 3/2/1 2/3/1
f 1/1/1 4/4/1 3/2/1
f 1/1/1 7/5/1 4/4/1
f 7/5/1 5/6/1 4/4/1
f 7/5/1 6/7/1 5/6/1
f 1/1/1 8/8/1 7/5/1
f 13/9/1 15/10/1 14/11/1
f 13/9/1 16/12/1 15/10/1
f 13/9/1 11/13/1 16/12/1
f 11/13/1 17/14/1 16/12/1
f 11/13/1 10/15/1 17/14/1
f 10/15/1 18/8/1 17/14/1
f 13/9/1 12/16/1 11/13/1
f 9/1/1 18/8/1 10/15/1
f 19/1/1 21/17/1 20/18/1
f 19/1/1 22/19/1 21/17/1
f 25/20/1 27/21/1 26/22/1
f 25/20/1 28/23/1 27/21/1
f 23/24/1 25/20/1 24/25/1
f 23/24/1 28/23/1 25/20/1
f 19/1/1 23/24/1 22/19/1
f 19/1/1 29/26/1 23/24/1
f 29/26/1 28/23/1 23/24/1
f 19/1/1 30/8/1 29/26/1
f 35/27/1 37/28/1 36/16/1
f 35/27/1 38/29/1 37/28/1
f 33/30/1 35/27/1 34/31/1
f 33/30/1 38/29/1 35/27/1
f 33/30/1 39/32/1 38/29/1
f 33/30/1 32/33/1 39/32/1
f 32/33/1 43/34/1 39/32/1
f 43/34/1 42/35/1 39/32/1
f 42/35/1 40/36/1 39/32/1
f 31/1/1 43/34/1 32/33/1
f 31/1/1 44/37/1 43/34/1
f 41/10/1 40/36/1 42/35/1
f 31/1/1 45/38/1 44/37/1
f 31/1/1 46/8/1 45/38/1
f 57/39/1 59/6/1 58/40/1
f 57/39/1 60/41/1 59/6/1
f 53/2/1 55/42/1 54/16/1
f 53/2/1 56/4/1 55/42/1
f 51/43/1 53/2/1 52/44/1
f 51/43/1 56/4/1 53/2/1
f 61/10/1 63/45/1 62/7/1
f 61/10/1 64/46/1 63/45/1
f 65/5/1 67/47/1 66/48/1
f 65/5/1 68/8/1 67/47/1
f 47/1/1 49/49/1 48/50/1
f 47/1/1 50/3/1 49/49/1
f 69/1/1 71/10/1 70/16/1
f 69/1/1 72/8/1 71/10/1
f 81/51/1 83/52/1 82/53/1
f 81/51/1 84/54/1 83/52/1
f 80/55/1 84/54/1 81/51/1
f 79/56/1 85/57/1 80/55/1
f 85/57/1 84/54/1 80/55/1
f 79/56/1 86/8/1 85/57/1
f 77/58/1 79/56/1 78/59/1
f 77/58/1 86/8/1 79/56/1
f 73/1/1 75/60/1 74/61/1
f 73/1/1 76/62/1 75/60/1
f 91/27/1 93/28/1 92/16/1
f 91/27/1 90/31/1 93/28/1
f 90/31/1 94/29/1 93/28/1
f 89/30/1 94/29/1 90/31/1
f 87/1/1 101/38/1 88/33/1
f 101/38/1 89/30/1 88/33/1
f 101/38/1 94/29/1 89/30/1
f 87/1/1 102/8/1 101/38/1
f 100/37/1 94/29/1 101/38/1
f 99/34/1 95/32/1 100/37/1
f 95/32/1 94/29/1 100/37/1
f 99/34/1 96/36/1 95/32/1
f 99/34/1 97/10/1 96/36/1
f 99/34/1 98/35/1 97/10/1
f 103/1/2 104/3/2 105/2/2
f 103/1/2 105/2/2 106/4/2
f 103/1/2 106/4/2 109/5/2
f 109/5/2 106/4/2 107/6/2
f 109/5/2 107/6/2 108/7/2
f 103/1/2 109/5/2 110/8/2
f 115/9/2 116/11/2 117/10/2
f 115/9/2 117/10/2 118/12/2
f 115/9/2 118/12/2 113/13/2
f 113/13/2 118/12/2 119/14/2
f 113/13/2 119/14/2 112/15/2
f 112/15/2 119/14/2 120/8/2
f 115/9/2 113/13/2 114/16/2
f 111/1/2 112/15/2 120/8/2
f 121/1/2 122/18/2 123/17/2
f 121/1/2 123/17/2 124/19/2
f 127/20/2 128/22/2 129/21/2
f 127/20/2 129/21/2 130/23/2
f 125/24/2 126/25/2 127/20/2
f 125/24/2 127/20/2 130/23/2
f 121/1/2 124/19/2 125/24/2
f 121/1/2 125/24/2 131/26/2
f 131/26/1 125/24/1 130/23/1
f 121/1/2 131/26/2 132/8/2
f 137/27/2 138/16/2 139/28/2
f 137/27/2 139/28/2 140/29/2
f 135/30/2 136/31/2 137/27/2
f 135/30/2 137/27/2 140/29/2
f 135/30/2 140/29/2 141/32/2
f 135/30/2 141/32/2 134/33/2
f 134/33/2 141/32/2 145/34/2
f 145/34/2 141/32/2 144/35/2
f 144/35/2 141/32/2 142/36/2
f 133/1/2 134/33/2 145/34/2
f 133/1/2 145/34/2 146/37/2
f 143/10/2 144/35/2 142/36/2
f 133/1/2 146/37/2 147/38/2
f 133/1/2 147/38/2 148/8/2
f 159/39/2 160/40/2 161/6/2
f 159/39/2 161/6/2 162/41/2
f 155/2/2 156/16/2 157/42/2
f 155/2/2 157/42/2 158/4/2
f 153/43/2 154/44/2 155/2/2
f 153/43/2 155/2/2 158/4/2
f 163/10/2 164/7/2 165/45/2
f 163/10/2 165/45/2 166/46/2
f 167/5/2 168/48/2 169/47/2
f 167/5/2 169/47/2 170/8/2
f 149/1/2 150/50/2 151/49/2
f 149/1/2 151/49/2 152/3/2
f 171/1/2 172/16/2 173/10/2
f 171/1/2 173/10/2 174/8/2
f 183/51/2 184/53/2 185/52/2
f 183/51/2 185/52/2 186/54/2
f 182/55/1 183/51/1 186/54/1
f 181/56/2 182/55/2 187/57/2
f 187/57/1 182/55/1 186/54/1
f 181/56/2 187/57/2 188/8/2
f 179/58/2 180/59/2 181/56/2
f 179/58/2 181/56/2 188/8/2
f 175/1/2 176/61/2 177/60/2
f 175/1/2 177/60/2 178/62/2
f 193/27/2 194/16/2 195/28/2
f 193/27/2 195/28/2 192/31/2
f 192/31/2 195/28/2 196/29/2
f 191/30/2 192/31/2 196/29/2
f 189/1/2 190/33/2 203/38/2
f 203/38/2 190/33/2 191/30/2
f 203/38/2 191/30/2 196/29/2
f 189/1/2 203/38/2 204/8/2
f 202/37/1 203/38/1 196/29/1
f 201/34/2 202/37/2 197/32/2
f 197/32/1 202/37/1 196/29/1
f 201/34/2 197/32/2 198/36/2
f 201/34/2 198/36/2 199/10/2
f 201/34/2 199/10/2 200/35/2
s 1
f 206/63/3 208/64/4 207/65/4 205/1/3
f 208/64/4 210/66/4 209/67/4 207/65/4
f 210/66/4 212/68/3 211/69/3 209/67/4
f 212/68/3 214/70/3 213/71/3 211/69/3
f 214/70/3 216/72/4 215/73/4 213/71/3
f 216/72/4 218/74/5 217/75/5 215/73/4
f 218/74/5 220/76/6 219/77/6 217/75/5
f 220/76/6 222/78/6 221/79/6 219/77/6
f 222/78/6 224/80/5 223/81/5 221/79/6
f 224/80/5 226/82/5 225/83/5 223/81/5
f 226/82/5 228/84/6 227/85/6 225/83/5
f 228/84/6 230/86/3 229/87/3 227/85/6
f 230/86/3 232/88/3 231/89/3 229/87/3
f 232/88/3 234/90/6 233/91/6 231/89/3
f 234/90/6 236/92/6 235/93/6 233/91/6
f 236/92/6 206/94/3 205/8/3 235/93/6
f 238/63/3 240/95/4 239/96/4 237/1/3
f 240/95/4 242/97/4 241/31/4 239/96/4
f 242/97/4 244/98/3 243/99/3 241/31/4
f 244/98/3 246/100/3 245/28/3 243/99/3
f 246/100/3 248/78/4 247/79/4 245/28/3
f 248/78/4 250/101/5 249/36/5 247/79/4
f 250/101/5 252/102/6 251/103/6 249/36/5
f 252/102/6 254/104/6 253/34/6 251/103/6
f 254/104/6 256/105/6 255/106/6 253/34/6
f 256/105/6 238/94/3 237/8/3 255/106/6
f 258/63/3 260/70/4 259/71/4 257/1/3
f 260/70/4 262/78/5 261/79/5 259/71/4
f 262/78/5 264/86/6 263/87/6 261/79/5
f 264/86/6 258/94/3 257/8/3 263/87/6
f 266/63/3 268/70/4 267/71/4 265/1/3
f 268/70/4 270/78/5 269/79/5 267/71/4
f 270/78/5 272/86/6 271/87/6 269/79/5
f 272/86/6 266/94/3 265/8/3 271/87/6
f 274/63/3 276/107/4 275/108/4 273/1/3
f 276/107/4 278/109/4 277/16/4 275/108/4
f 278/109/4 280/78/4 279/79/4 277/16/4
f 280/78/4 282/110/5 281/10/5 279/79/4
f 282/110/5 284/111/6 283/112/6 281/10/5
f 284/111/6 274/94/3 273/8/3 283/112/6
f 286/63/3 288/70/4 287/71/4 285/1/3
f 288/70/4 290/78/5 289/79/5 287/71/4
f 290/78/5 292/86/6 291/87/6 289/79/5
f 292/86/6 286/94/3 285/8/3 291/87/6
f 294/63/3 296/70/4 295/71/4 293/1/3
f 296/70/4 298/78/5 297/79/5 295/71/4
f 298/78/5 300/86/6 299/87/6 297/79/5
f 300/86/6 294/94/3 293/8/3 299/87/6
f 302/63/3 304/70/4 303/71/4 301/1/3
f 304/70/4 306/78/5 305/79/5 303/71/4
f 306/78/5 308/86/6 307/87/6 305/79/5
f 308/86/6 302/94/3 301/8/3 307/87/6
f 310/63/3 312/70/4 311/71/4 309/1/3
f 312/70/4 314/78/5 313/79/5 311/71/4
f 314/78/5 316/86/6 315/87/6 313/79/5
f 316/86/6 310/94/3 309/8/3 315/87/6
f 318/63/3 320/64/3 319/65/3 317/1/3
f 320/64/3 322/66/3 321/67/3 319/65/3
f 322/66/3 324/68/4 323/69/4 321/67/3
f 324/68/4 326/70/4 325/71/4 323/69/4
f 326/70/4 328/72/4 327/73/4 325/71/4
f 328/72/4 330/74/5 329/75/5 327/73/4
f 330/74/5 332/76/5 331/77/5 329/75/5
f 332/76/5 334/78/5 333/79/5 331/77/5
f 334/78/5 336/80/6 335/81/6 333/79/5
f 336/80/6 338/82/3 337/83/3 335/81/6
f 338/82/3 340/84/3 339/85/3 337/83/3
f 340/84/3 342/86/6 341/87/6 339/85/3
f 342/86/6 344/88/5 343/89/5 341/87/6
f 344/88/5 346/90/5 345/91/5 343/89/5
f 346/90/5 348/92/6 347/93/6 345/91/5
f 348/92/6 318/94/3 317/8/3 347/93/6
f 350/63/3 352/113/4 351/114/4 349/1/3
f 352/113/4 354/107/5 353/108/5 351/114/4
f 354/107/5 356/70/5 355/71/5 353/108/5
f 356/70/5 358/109/4 357/16/4 355/71/5
f 358/109/4 360/115/4 359/116/4 357/16/4
f 360/115/4 362/78/4 361/79/4 359/116/4
f 362/78/4 364/117/4 363/118/4 361/79/4
f 364/117/4 366/110/5 365/10/5 363/118/4
f 366/110/5 368/86/6 367/87/6 365/10/5
f 368/86/6 370/111/6 369/112/6 367/87/6
f 370/111/6 372/119/6 371/120/6 369/112/6
f 372/119/6 350/94/3 349/8/3 371/120/6
f 374/63/3 376/95/3 375/96/3 373/1/3
f 376/95/3 378/97/6 377/31/6 375/96/3
f 378/97/6 380/98/6 379/99/6 377/31/6
f 380/98/6 382/100/3 381/28/3 379/99/6
f 382/100/3 384/78/4 383/79/4 381/28/3
f 384/78/4 386/101/5 385/36/5 383/79/4
f 386/101/5 388/102/5 387/103/5 385/36/5
f 388/102/5 390/104/5 389/34/5 387/103/5
f 390/104/5 392/105/6 391/106/6 389/34/5
f 392/105/6 374/94/3 373/8/3 391/106/6
f 394/63/3 396/66/4 395/67/4 393/1/3
f 396/66/4 398/70/5 397/71/5 395/67/4
f 398/70/5 400/74/5 399/75/5 397/71/5
f 400/74/5 402/78/5 401/79/5 399/75/5
f 402/78/5 404/82/6 403/83/6 401/79/5
f 404/82/6 406/86/6 405/87/6 403/83/6
f 406/86/6 408/90/6 407/91/6 405/87/6
f 408/90/6 394/94/3 393/8/3 407/91/6
