# Blender 4.4.1
# www.blender.org
mtllib startButton.mtl
o 立方体
v -0.389413 0.270434 -0.151103
v -0.389413 0.162260 -0.151103
v -0.389413 0.054087 -0.151103
v -0.389413 -0.054087 -0.151103
v -0.389413 -0.162260 -0.151103
v -0.389413 -0.270434 -0.151103
v -0.389413 -0.270434 0.151103
v -0.389413 -0.162260 0.151103
v -0.389413 -0.054087 0.151103
v -0.389413 0.054087 0.151103
v -0.389413 0.162260 0.151103
v -0.389413 0.270434 0.151103
v 0.389413 -0.270434 -0.151103
v 0.389413 -0.162260 -0.151103
v 0.389413 -0.054087 -0.151103
v 0.389413 0.054087 -0.151103
v 0.389413 0.162260 -0.151103
v 0.389413 0.270434 -0.151103
v 0.389413 0.270434 0.151103
v 0.389413 0.162260 0.151103
v 0.389413 0.054087 0.151103
v 0.389413 -0.054087 0.151103
v 0.389413 -0.162260 0.151103
v 0.389413 -0.270434 0.151103
v 0.250000 0.378608 -0.151103
v 0.000000 0.378608 -0.151103
v -0.250000 0.378608 -0.151103
v -0.250000 0.378608 0.151103
v 0.000000 0.378608 0.151103
v 0.250000 0.378608 0.151103
v -0.250000 -0.378608 -0.151103
v 0.000000 -0.378608 -0.151103
v 0.250000 -0.378608 -0.151103
v 0.250000 -0.378608 0.151103
v 0.000000 -0.378608 0.151103
v -0.250000 -0.378608 0.151103
v -0.250000 0.270434 0.151103
v 0.000000 0.270434 0.151103
v 0.250000 0.270434 0.151103
v -0.250000 0.162260 0.151103
v 0.000000 0.162260 0.151103
v 0.250000 0.162260 0.151103
v -0.250000 0.054087 0.151103
v 0.000000 0.054087 0.151103
v 0.250000 0.054087 0.151103
v -0.250000 -0.054087 0.151103
v 0.000000 -0.054087 0.151103
v 0.250000 -0.054087 0.151103
v -0.250000 -0.162260 0.151103
v 0.000000 -0.162260 0.151103
v 0.250000 -0.162260 0.151103
v -0.250000 -0.270434 0.151103
v 0.000000 -0.270434 0.151103
v 0.250000 -0.270434 0.151103
v 0.250000 0.270434 -0.151103
v 0.000000 0.270434 -0.151103
v -0.250000 0.270434 -0.151103
v 0.250000 0.162260 -0.151103
v 0.000000 0.162260 -0.151103
v -0.250000 0.162260 -0.151103
v 0.250000 0.054087 -0.151103
v 0.000000 0.054087 -0.151103
v -0.250000 0.054087 -0.151103
v 0.250000 -0.054087 -0.151103
v 0.000000 -0.054087 -0.151103
v -0.250000 -0.054087 -0.151103
v 0.250000 -0.162260 -0.151103
v 0.000000 -0.162260 -0.151103
v -0.250000 -0.162260 -0.151103
v 0.250000 -0.270434 -0.151103
v 0.000000 -0.270434 -0.151103
v -0.250000 -0.270434 -0.151103
v -0.250000 0.270434 0.208339
v 0.000000 0.270434 0.208339
v 0.250000 0.270434 0.208339
v -0.250000 0.162260 0.208339
v 0.000000 0.162260 0.208339
v 0.250000 0.162260 0.208339
v -0.250000 0.054087 0.208339
v 0.000000 0.054087 0.208339
v 0.250000 0.054087 0.208339
v -0.250000 -0.054087 0.208339
v 0.000000 -0.054087 0.208339
v 0.250000 -0.054087 0.208339
v -0.250000 -0.162260 0.208339
v 0.000000 -0.162260 0.208339
v 0.250000 -0.162260 0.208339
v -0.250000 -0.270434 0.208339
v 0.000000 -0.270434 0.208339
v 0.250000 -0.270434 0.208339
v -0.279273 -0.378608 -0.151103
v -0.389413 -0.295209 -0.151103
v -0.389413 -0.295209 0.151103
v -0.279273 -0.378608 0.151103
v -0.389413 0.295209 -0.151103
v -0.279273 0.378608 -0.151103
v -0.279273 0.378608 0.151103
v -0.389413 0.295209 0.151103
v 0.389413 -0.295209 -0.151103
v 0.279273 -0.378608 -0.151103
v 0.279273 -0.378608 0.151103
v 0.389413 -0.295209 0.151103
v 0.279273 0.378608 -0.151103
v 0.389413 0.295209 -0.151103
v 0.389413 0.295209 0.151103
v 0.279273 0.378608 0.151103
vn -0.0000 -0.0000 1.0000
vn 1.0000 -0.0000 -0.0000
vn -0.0000 1.0000 -0.0000
vn -0.0000 -1.0000 -0.0000
vn -0.0000 -0.0000 -1.0000
vn -1.0000 -0.0000 -0.0000
vn -0.6037 -0.7972 -0.0000
vn -0.6037 0.7972 -0.0000
vn 0.6037 0.7972 -0.0000
vn 0.6037 -0.7972 -0.0000
vt 0.812500 0.500000
vt 0.825624 0.500000
vt 0.875000 0.527535
vt 0.875000 0.535714
vt 0.812500 0.535714
vt 0.625000 0.527535
vt 0.674376 0.500000
vt 0.687500 0.500000
vt 0.687500 0.535714
vt 0.625000 0.535714
vt 0.625000 0.714286
vt 0.687500 0.714286
vt 0.687500 0.750000
vt 0.674376 0.750000
vt 0.625000 0.722465
vt 0.812500 0.714286
vt 0.875000 0.714286
vt 0.875000 0.722465
vt 0.825624 0.750000
vt 0.812500 0.750000
vt 0.375000 0.714286
vt 0.375000 0.722465
vt 0.375000 0.299377
vt 0.625000 0.299376
vt 0.625000 0.312500
vt 0.375000 0.312500
vt 0.375000 0.799377
vt 0.625000 0.799376
vt 0.625000 0.812500
vt 0.375000 0.812500
vt 0.875000 0.571429
vt 0.812500 0.571429
vt 0.875000 0.607143
vt 0.812500 0.607143
vt 0.875000 0.642857
vt 0.812500 0.642857
vt 0.875000 0.678571
vt 0.812500 0.678571
vt 0.375000 0.437500
vt 0.625000 0.437500
vt 0.625000 0.450624
vt 0.375000 0.450623
vt 0.312500 0.535714
vt 0.375000 0.535714
vt 0.375000 0.571429
vt 0.312500 0.571429
vt 0.375000 0.607143
vt 0.312500 0.607143
vt 0.375000 0.642857
vt 0.312500 0.642857
vt 0.375000 0.678571
vt 0.312500 0.678571
vt 0.312500 0.714286
vt 0.312500 0.500000
vt 0.325624 0.500000
vt 0.375000 0.527535
vt 0.625000 0.571429
vt 0.625000 0.607143
vt 0.625000 0.642857
vt 0.625000 0.678571
vt 0.375000 0.937500
vt 0.625000 0.937500
vt 0.625000 0.950624
vt 0.375000 0.950624
vt 0.375000 0.035714
vt 0.625000 0.035714
vt 0.625000 0.071429
vt 0.375000 0.071429
vt 0.625000 0.107143
vt 0.375000 0.107143
vt 0.625000 0.142857
vt 0.375000 0.142857
vt 0.625000 0.178571
vt 0.375000 0.178571
vt 0.625000 0.214286
vt 0.375000 0.214286
vt 0.125000 0.678571
vt 0.187500 0.678571
vt 0.187500 0.714286
vt 0.125000 0.714286
vt 0.250000 0.678571
vt 0.250000 0.714286
vt 0.125000 0.642857
vt 0.187500 0.642857
vt 0.250000 0.642857
vt 0.125000 0.607143
vt 0.187500 0.607143
vt 0.250000 0.607143
vt 0.125000 0.571429
vt 0.187500 0.571429
vt 0.250000 0.571429
vt 0.125000 0.535714
vt 0.187500 0.535714
vt 0.250000 0.535714
vt 0.625000 0.222465
vt 0.375000 0.222465
vt 0.187500 0.500000
vt 0.250000 0.500000
vt 0.687500 0.678571
vt 0.936770 0.786714
vt 0.936770 0.822429
vt 0.936770 0.965286
vt 0.874270 0.965286
vt 0.687500 0.642857
vt 0.750000 0.642857
vt 0.750000 0.678571
vt 0.687500 0.607143
vt 0.874270 0.786714
vt 0.811770 0.893857
vt 0.811770 0.858143
vt 0.687500 0.571429
vt 0.750000 0.571429
vt 0.750000 0.607143
vt 0.874270 0.858143
vt 0.936770 0.858143
vt 0.750000 0.500000
vt 0.750000 0.535714
vt 0.750000 0.714286
vt 0.750000 0.750000
vt 0.375000 0.027535
vt 0.625000 0.027535
vt 0.250000 0.750000
vt 0.187500 0.750000
vt 0.312500 0.750000
vt 0.325623 0.750000
vt 0.625000 0.875000
vt 0.375000 0.875000
vt 0.125000 0.527535
vt 0.174377 0.500000
vt 0.625000 0.375000
vt 0.375000 0.375000
vt 0.811770 0.929571
vt 0.874270 0.929571
vt 0.811770 0.965286
vt 0.936770 0.929571
vt 0.874270 0.893857
vt 0.936770 0.893857
vt 0.811770 0.786714
vt 0.874270 0.822429
vt 0.811770 0.822429
vt 0.375000 0.000000
vt 0.625000 0.000000
vt 0.174377 0.750000
vt 0.125000 0.722465
s 1
usemtl マテリアル
f 28/1/1 97/2/1 98/3/1 12/4/1 37/5/1
f 105/6/1 106/7/1 30/8/1 39/9/1 19/10/1
f 24/11/1 54/12/1 34/13/1 101/14/1 102/15/1
f 52/16/1 7/17/1 93/18/1 94/19/1 36/20/1
f 13/21/2 24/11/2 102/15/2 99/22/2
f 96/23/3 97/24/3 28/25/3 27/26/3
f 100/27/4 101/28/4 34/29/4 33/30/4
f 37/5/1 12/4/1 11/31/1 40/32/1
f 40/32/1 11/31/1 10/33/1 43/34/1
f 43/34/1 10/33/1 9/35/1 46/36/1
f 46/36/1 9/35/1 8/37/1 49/38/1
f 49/38/1 8/37/1 7/17/1 52/16/1
f 25/39/3 30/40/3 106/41/3 103/42/3
f 55/43/5 18/44/5 17/45/5 58/46/5
f 58/46/5 17/45/5 16/47/5 61/48/5
f 61/48/5 16/47/5 15/49/5 64/50/5
f 64/50/5 15/49/5 14/51/5 67/52/5
f 67/52/5 14/51/5 13/21/5 70/53/5
f 25/54/5 103/55/5 104/56/5 18/44/5 55/43/5
f 18/44/2 19/10/2 20/57/2 17/45/2
f 17/45/2 20/57/2 21/58/2 16/47/2
f 16/47/2 21/58/2 22/59/2 15/49/2
f 15/49/2 22/59/2 23/60/2 14/51/2
f 14/51/2 23/60/2 24/11/2 13/21/2
f 31/61/4 36/62/4 94/63/4 91/64/4
f 6/65/6 7/66/6 8/67/6 5/68/6
f 5/68/6 8/67/6 9/69/6 4/70/6
f 4/70/6 9/69/6 10/71/6 3/72/6
f 3/72/6 10/71/6 11/73/6 2/74/6
f 2/74/6 11/73/6 12/75/6 1/76/6
f 5/77/5 69/78/5 72/79/5 6/80/5
f 69/78/5 68/81/5 71/82/5 72/79/5
f 68/81/5 67/52/5 70/53/5 71/82/5
f 4/83/5 66/84/5 69/78/5 5/77/5
f 66/84/5 65/85/5 68/81/5 69/78/5
f 65/85/5 64/50/5 67/52/5 68/81/5
f 3/86/5 63/87/5 66/84/5 4/83/5
f 63/87/5 62/88/5 65/85/5 66/84/5
f 62/88/5 61/48/5 64/50/5 65/85/5
f 2/89/5 60/90/5 63/87/5 3/86/5
f 60/90/5 59/91/5 62/88/5 63/87/5
f 59/91/5 58/46/5 61/48/5 62/88/5
f 1/92/5 57/93/5 60/90/5 2/89/5
f 57/93/5 56/94/5 59/91/5 60/90/5
f 56/94/5 55/43/5 58/46/5 59/91/5
f 1/76/6 12/75/6 98/95/6 95/96/6
f 27/97/5 26/98/5 56/94/5 57/93/5
f 26/98/5 25/54/5 55/43/5 56/94/5
f 23/60/1 51/99/1 54/12/1 24/11/1
f 37/100/6 40/101/6 76/101/6 73/100/6
f 52/102/4 53/103/4 89/103/4 88/102/4
f 22/59/1 48/104/1 51/99/1 23/60/1
f 48/104/1 47/105/1 50/106/1 51/99/1
f 47/105/1 46/36/1 49/38/1 50/106/1
f 21/58/1 45/107/1 48/104/1 22/59/1
f 38/108/3 37/100/3 73/100/3 74/108/3
f 48/109/2 45/110/2 81/110/2 84/109/2
f 20/57/1 42/111/1 45/107/1 21/58/1
f 42/111/1 41/112/1 44/113/1 45/107/1
f 41/112/1 40/32/1 43/34/1 44/113/1
f 19/10/1 39/9/1 42/111/1 20/57/1
f 45/110/3 44/114/3 80/114/3 81/110/3
f 44/114/3 43/115/3 79/115/3 80/114/3
f 30/8/1 29/116/1 38/117/1 39/9/1
f 29/116/1 28/1/1 37/5/1 38/117/1
f 104/56/2 105/6/2 19/10/2 18/44/2
f 54/12/1 53/118/1 35/119/1 34/13/1
f 53/118/1 52/16/1 36/20/1 35/119/1
f 92/120/6 93/121/6 7/66/6 6/65/6
f 72/79/5 71/82/5 32/122/5 31/123/5
f 71/82/5 70/53/5 33/124/5 32/122/5
f 70/53/5 13/21/5 99/22/5 100/125/5 33/124/5
f 33/30/4 34/29/4 35/126/4 32/127/4
f 32/127/4 35/126/4 36/62/4 31/61/4
f 95/128/5 96/129/5 27/97/5 57/93/5 1/92/5
f 27/26/3 28/25/3 29/130/3 26/131/3
f 26/131/3 29/130/3 30/40/3 25/39/3
f 87/132/1 86/133/1 89/103/1 90/134/1
f 86/133/1 85/135/1 88/102/1 89/103/1
f 81/110/1 80/114/1 83/136/1 84/109/1
f 80/114/1 79/115/1 82/137/1 83/136/1
f 75/138/1 74/108/1 77/139/1 78/140/1
f 74/108/1 73/100/1 76/101/1 77/139/1
f 39/138/3 38/108/3 74/108/3 75/138/3
f 53/103/4 54/134/4 90/134/4 89/103/4
f 54/134/2 51/132/2 87/132/2 90/134/2
f 46/137/4 47/136/4 83/136/4 82/137/4
f 43/115/6 46/137/6 82/137/6 79/115/6
f 47/136/4 48/109/4 84/109/4 83/136/4
f 40/101/4 41/139/4 77/139/4 76/101/4
f 49/38/6 52/16/6 88/16/6 85/38/6
f 41/139/4 42/140/4 78/140/4 77/139/4
f 50/133/3 49/135/3 85/135/3 86/133/3
f 51/132/3 50/133/3 86/133/3 87/132/3
f 42/140/2 39/138/2 75/138/2 78/140/2
f 91/141/7 94/142/7 93/121/7 92/120/7
f 97/24/8 96/23/8 95/96/8 98/95/8
f 105/6/9 104/56/9 103/42/9 106/41/9
f 101/28/10 100/27/10 99/22/10 102/15/10
f 6/80/5 72/79/5 31/123/5 91/143/5 92/144/5
