# Blender 4.4.1
# www.blender.org
mtllib 0.mtl
o テキスト
v -0.200035 -0.134001 0.010000
v -0.201690 -0.125704 0.010000
v -0.203201 -0.117263 0.010000
v -0.204568 -0.108678 0.010000
v -0.205792 -0.099949 0.010000
v -0.206871 -0.091077 0.010000
v -0.207806 -0.082060 0.010000
v -0.208598 -0.072900 0.010000
v -0.209246 -0.063595 0.010000
v -0.209749 -0.054147 0.010000
v -0.210109 -0.044555 0.010000
v -0.210325 -0.034819 0.010000
v -0.210397 -0.024939 0.010000
v -0.210030 -0.001081 0.010000
v -0.208929 0.021553 0.010000
v -0.207093 0.042962 0.010000
v -0.204523 0.063146 0.010000
v -0.201219 0.082106 0.010000
v -0.197181 0.099842 0.010000
v -0.192409 0.116353 0.010000
v -0.186902 0.131640 0.010000
v -0.180662 0.145702 0.010000
v -0.173687 0.158539 0.010000
v -0.165978 0.170152 0.010000
v -0.157534 0.180541 0.010000
v -0.148340 0.189910 0.010000
v -0.138377 0.198464 0.010000
v -0.127645 0.206204 0.010000
v -0.116146 0.213129 0.010000
v -0.103878 0.219239 0.010000
v -0.090841 0.224535 0.010000
v -0.077036 0.229015 0.010000
v -0.062463 0.232682 0.010000
v -0.047122 0.235533 0.010000
v -0.031012 0.237570 0.010000
v -0.014134 0.238792 0.010000
v 0.003512 0.239199 0.010000
v 0.012047 0.239110 0.010000
v 0.020324 0.238843 0.010000
v 0.028341 0.238398 0.010000
v 0.036100 0.237775 0.010000
v 0.043601 0.236973 0.010000
v 0.050843 0.235994 0.010000
v 0.057826 0.234837 0.010000
v 0.064551 0.233501 0.010000
v 0.071018 0.231988 0.010000
v 0.077226 0.230296 0.010000
v 0.083175 0.228426 0.010000
v 0.088865 0.226379 0.010000
v 0.094342 0.224188 0.010000
v 0.099647 0.221891 0.010000
v 0.104781 0.219485 0.010000
v 0.109745 0.216973 0.010000
v 0.114538 0.214353 0.010000
v 0.119161 0.211626 0.010000
v 0.123612 0.208792 0.010000
v 0.127893 0.205850 0.010000
v 0.132003 0.202801 0.010000
v 0.135942 0.199645 0.010000
v 0.139711 0.196381 0.010000
v 0.143309 0.193010 0.010000
v 0.146759 0.189571 0.010000
v 0.150085 0.186102 0.010000
v 0.153286 0.182604 0.010000
v 0.156363 0.179077 0.010000
v 0.159316 0.175521 0.010000
v 0.162144 0.171935 0.010000
v 0.164848 0.168320 0.010000
v 0.167428 0.164676 0.010000
v 0.169883 0.161003 0.010000
v 0.172213 0.157300 0.010000
v 0.174420 0.153568 0.010000
v 0.176502 0.149807 0.010000
v 0.178488 0.145978 0.010000
v 0.180409 0.142045 0.010000
v 0.182264 0.138007 0.010000
v 0.184053 0.133864 0.010000
v 0.185777 0.129616 0.010000
v 0.187434 0.125263 0.010000
v 0.189026 0.120806 0.010000
v 0.190551 0.116243 0.010000
v 0.192011 0.111576 0.010000
v 0.193405 0.106803 0.010000
v 0.194734 0.101926 0.010000
v 0.195996 0.096944 0.010000
v 0.198296 0.087309 0.010000
v 0.200396 0.077606 0.010000
v 0.202296 0.067835 0.010000
v 0.203996 0.057995 0.010000
v 0.205497 0.048087 0.010000
v 0.206797 0.038110 0.010000
v 0.207897 0.028066 0.010000
v 0.208797 0.017953 0.010000
v 0.209497 0.007771 0.010000
v 0.209997 -0.002478 0.010000
v 0.210297 -0.012796 0.010000
v 0.210397 -0.023182 0.010000
v 0.210068 -0.046018 0.010000
v 0.209080 -0.067810 0.010000
v 0.207433 -0.088558 0.010000
v 0.205128 -0.108262 0.010000
v 0.202165 -0.126922 0.010000
v 0.198542 -0.144538 0.010000
v 0.194261 -0.161110 0.010000
v 0.189322 -0.176638 0.010000
v 0.183724 -0.191122 0.010000
v 0.177468 -0.204562 0.010000
v 0.170552 -0.216958 0.010000
v 0.162979 -0.228311 0.010000
v 0.154600 -0.238689 0.010000
v 0.145270 -0.248166 0.010000
v 0.134989 -0.256740 0.010000
v 0.123756 -0.264411 0.010000
v 0.111572 -0.271180 0.010000
v 0.098437 -0.277046 0.010000
v 0.084350 -0.282010 0.010000
v 0.069313 -0.286071 0.010000
v 0.053324 -0.289230 0.010000
v 0.036383 -0.291486 0.010000
v 0.018492 -0.292840 0.010000
v -0.000351 -0.293291 0.010000
v -0.011008 -0.293147 0.010000
v -0.021319 -0.292716 0.010000
v -0.031283 -0.291996 0.010000
v -0.040901 -0.290989 0.010000
v -0.050172 -0.289693 0.010000
v -0.059097 -0.288110 0.010000
v -0.067676 -0.286239 0.010000
v -0.075908 -0.284081 0.010000
v -0.083794 -0.281634 0.010000
v -0.091334 -0.278900 0.010000
v -0.098527 -0.275878 0.010000
v -0.105374 -0.272568 0.010000
v -0.111948 -0.268980 0.010000
v -0.118321 -0.265123 0.010000
v -0.124495 -0.260998 0.010000
v -0.130469 -0.256605 0.010000
v -0.136242 -0.251944 0.010000
v -0.141816 -0.247014 0.010000
v -0.147190 -0.241816 0.010000
v -0.152363 -0.236350 0.010000
v -0.157337 -0.230616 0.010000
v -0.162110 -0.224613 0.010000
v -0.166684 -0.218341 0.010000
v -0.171057 -0.211802 0.010000
v -0.174103 -0.206915 0.010000
v -0.177033 -0.201738 0.010000
v -0.179849 -0.196270 0.010000
v -0.182551 -0.190512 0.010000
v -0.185138 -0.184464 0.010000
v -0.187610 -0.178126 0.010000
v -0.189967 -0.171498 0.010000
v -0.192210 -0.164579 0.010000
v -0.194338 -0.157370 0.010000
v -0.196352 -0.149870 0.010000
v -0.198251 -0.142081 0.010000
v -0.052687 0.108008 0.010000
v -0.055212 0.101582 0.010000
v -0.057517 0.094305 0.010000
v -0.059602 0.086176 0.010000
v -0.061468 0.077196 0.010000
v -0.063115 0.067365 0.010000
v -0.064542 0.056682 0.010000
v -0.065749 0.045149 0.010000
v -0.066737 0.032764 0.010000
v -0.067505 0.019527 0.010000
v -0.068054 0.005439 0.010000
v -0.068383 -0.009500 0.010000
v -0.068493 -0.025290 0.010000
v -0.068372 -0.041248 0.010000
v -0.068010 -0.056341 0.010000
v -0.067406 -0.070568 0.010000
v -0.066561 -0.083929 0.010000
v -0.065475 -0.096423 0.010000
v -0.064146 -0.108052 0.010000
v -0.062577 -0.118815 0.010000
v -0.060766 -0.128712 0.010000
v -0.058713 -0.137744 0.010000
v -0.056419 -0.145909 0.010000
v -0.053883 -0.153208 0.010000
v -0.051106 -0.159642 0.010000
v -0.048100 -0.165392 0.010000
v -0.044877 -0.170643 0.010000
v -0.041436 -0.175393 0.010000
v -0.037779 -0.179643 0.010000
v -0.033904 -0.183394 0.010000
v -0.029812 -0.186644 0.010000
v -0.025503 -0.189394 0.010000
v -0.020977 -0.191644 0.010000
v -0.016234 -0.193394 0.010000
v -0.011274 -0.194644 0.010000
v -0.006097 -0.195395 0.010000
v -0.000703 -0.195645 0.010000
v 0.002887 -0.195538 0.010000
v 0.006396 -0.195220 0.010000
v 0.009824 -0.194690 0.010000
v 0.013172 -0.193947 0.010000
v 0.016439 -0.192992 0.010000
v 0.019626 -0.191825 0.010000
v 0.022732 -0.190445 0.010000
v 0.025758 -0.188854 0.010000
v 0.028703 -0.187050 0.010000
v 0.031568 -0.185034 0.010000
v 0.034353 -0.182806 0.010000
v 0.037057 -0.180365 0.010000
v 0.039662 -0.177696 0.010000
v 0.042150 -0.174779 0.010000
v 0.044521 -0.171617 0.010000
v 0.046774 -0.168208 0.010000
v 0.048911 -0.164553 0.010000
v 0.050931 -0.160652 0.010000
v 0.052833 -0.156504 0.010000
v 0.054619 -0.152109 0.010000
v 0.056287 -0.147469 0.010000
v 0.057839 -0.142582 0.010000
v 0.059273 -0.137449 0.010000
v 0.060590 -0.132069 0.010000
v 0.061796 -0.126310 0.010000
v 0.062898 -0.120039 0.010000
v 0.063894 -0.113255 0.010000
v 0.064786 -0.105959 0.010000
v 0.065572 -0.098152 0.010000
v 0.066254 -0.089831 0.010000
v 0.066831 -0.080999 0.010000
v 0.067303 -0.071654 0.010000
v 0.067670 -0.061798 0.010000
v 0.067932 -0.051428 0.010000
v 0.068089 -0.040547 0.010000
v 0.068142 -0.029153 0.010000
v 0.068021 -0.012527 0.010000
v 0.067659 0.003166 0.010000
v 0.067055 0.017925 0.010000
v 0.066210 0.031749 0.010000
v 0.065123 0.044639 0.010000
v 0.063795 0.056595 0.010000
v 0.062226 0.067616 0.010000
v 0.060414 0.077704 0.010000
v 0.058362 0.086857 0.010000
v 0.056068 0.095076 0.010000
v 0.053532 0.102360 0.010000
v 0.050755 0.108711 0.010000
v 0.047737 0.114349 0.010000
v 0.044477 0.119497 0.010000
v 0.040975 0.124155 0.010000
v 0.037232 0.128322 0.010000
v 0.033248 0.131999 0.010000
v 0.029022 0.135186 0.010000
v 0.024554 0.137883 0.010000
v 0.019845 0.140089 0.010000
v 0.014895 0.141805 0.010000
v 0.009703 0.143031 0.010000
v 0.004270 0.143766 0.010000
v -0.001405 0.144011 0.010000
v -0.007181 0.143761 0.010000
v -0.012684 0.143011 0.010000
v -0.017914 0.141761 0.010000
v -0.022870 0.140011 0.010000
v -0.027553 0.137761 0.010000
v -0.031963 0.135011 0.010000
v -0.036100 0.131760 0.010000
v -0.039964 0.128010 0.010000
v -0.043555 0.123760 0.010000
v -0.046872 0.119009 0.010000
v -0.049916 0.113759 0.010000
v -0.200035 -0.134001 -0.010000
v -0.201690 -0.125704 -0.010000
v -0.203201 -0.117263 -0.010000
v -0.204568 -0.108678 -0.010000
v -0.205792 -0.099949 -0.010000
v -0.206871 -0.091077 -0.010000
v -0.207806 -0.082060 -0.010000
v -0.208598 -0.072900 -0.010000
v -0.209246 -0.063595 -0.010000
v -0.209749 -0.054147 -0.010000
v -0.210109 -0.044555 -0.010000
v -0.210325 -0.034819 -0.010000
v -0.210397 -0.024939 -0.010000
v -0.210030 -0.001081 -0.010000
v -0.208929 0.021553 -0.010000
v -0.207093 0.042962 -0.010000
v -0.204523 0.063146 -0.010000
v -0.201219 0.082106 -0.010000
v -0.197181 0.099842 -0.010000
v -0.192409 0.116353 -0.010000
v -0.186902 0.131640 -0.010000
v -0.180662 0.145702 -0.010000
v -0.173687 0.158539 -0.010000
v -0.165978 0.170152 -0.010000
v -0.157534 0.180541 -0.010000
v -0.148340 0.189910 -0.010000
v -0.138377 0.198464 -0.010000
v -0.127645 0.206204 -0.010000
v -0.116146 0.213129 -0.010000
v -0.103878 0.219239 -0.010000
v -0.090841 0.224535 -0.010000
v -0.077036 0.229015 -0.010000
v -0.062463 0.232682 -0.010000
v -0.047122 0.235533 -0.010000
v -0.031012 0.237570 -0.010000
v -0.014134 0.238792 -0.010000
v 0.003512 0.239199 -0.010000
v 0.012047 0.239110 -0.010000
v 0.020324 0.238843 -0.010000
v 0.028341 0.238398 -0.010000
v 0.036100 0.237775 -0.010000
v 0.043601 0.236973 -0.010000
v 0.050843 0.235994 -0.010000
v 0.057826 0.234837 -0.010000
v 0.064551 0.233501 -0.010000
v 0.071018 0.231988 -0.010000
v 0.077226 0.230296 -0.010000
v 0.083175 0.228426 -0.010000
v 0.088865 0.226379 -0.010000
v 0.094342 0.224188 -0.010000
v 0.099647 0.221891 -0.010000
v 0.104781 0.219485 -0.010000
v 0.109745 0.216973 -0.010000
v 0.114538 0.214353 -0.010000
v 0.119161 0.211626 -0.010000
v 0.123612 0.208792 -0.010000
v 0.127893 0.205850 -0.010000
v 0.132003 0.202801 -0.010000
v 0.135942 0.199645 -0.010000
v 0.139711 0.196381 -0.010000
v 0.143309 0.193010 -0.010000
v 0.146759 0.189571 -0.010000
v 0.150085 0.186102 -0.010000
v 0.153286 0.182604 -0.010000
v 0.156363 0.179077 -0.010000
v 0.159316 0.175521 -0.010000
v 0.162144 0.171935 -0.010000
v 0.164848 0.168320 -0.010000
v 0.167428 0.164676 -0.010000
v 0.169883 0.161003 -0.010000
v 0.172213 0.157300 -0.010000
v 0.174420 0.153568 -0.010000
v 0.176502 0.149807 -0.010000
v 0.178488 0.145978 -0.010000
v 0.180409 0.142045 -0.010000
v 0.182264 0.138007 -0.010000
v 0.184053 0.133864 -0.010000
v 0.185777 0.129616 -0.010000
v 0.187434 0.125263 -0.010000
v 0.189026 0.120806 -0.010000
v 0.190551 0.116243 -0.010000
v 0.192011 0.111576 -0.010000
v 0.193405 0.106803 -0.010000
v 0.194734 0.101926 -0.010000
v 0.195996 0.096944 -0.010000
v 0.198296 0.087309 -0.010000
v 0.200396 0.077606 -0.010000
v 0.202296 0.067835 -0.010000
v 0.203996 0.057995 -0.010000
v 0.205497 0.048087 -0.010000
v 0.206797 0.038110 -0.010000
v 0.207897 0.028066 -0.010000
v 0.208797 0.017953 -0.010000
v 0.209497 0.007771 -0.010000
v 0.209997 -0.002478 -0.010000
v 0.210297 -0.012796 -0.010000
v 0.210397 -0.023182 -0.010000
v 0.210068 -0.046018 -0.010000
v 0.209080 -0.067810 -0.010000
v 0.207433 -0.088558 -0.010000
v 0.205128 -0.108262 -0.010000
v 0.202165 -0.126922 -0.010000
v 0.198542 -0.144538 -0.010000
v 0.194261 -0.161110 -0.010000
v 0.189322 -0.176638 -0.010000
v 0.183724 -0.191122 -0.010000
v 0.177468 -0.204562 -0.010000
v 0.170552 -0.216958 -0.010000
v 0.162979 -0.228311 -0.010000
v 0.154600 -0.238689 -0.010000
v 0.145270 -0.248166 -0.010000
v 0.134989 -0.256740 -0.010000
v 0.123756 -0.264411 -0.010000
v 0.111572 -0.271180 -0.010000
v 0.098437 -0.277046 -0.010000
v 0.084350 -0.282010 -0.010000
v 0.069313 -0.286071 -0.010000
v 0.053324 -0.289230 -0.010000
v 0.036383 -0.291486 -0.010000
v 0.018492 -0.292840 -0.010000
v -0.000351 -0.293291 -0.010000
v -0.011008 -0.293147 -0.010000
v -0.021319 -0.292716 -0.010000
v -0.031283 -0.291996 -0.010000
v -0.040901 -0.290989 -0.010000
v -0.050172 -0.289693 -0.010000
v -0.059097 -0.288110 -0.010000
v -0.067676 -0.286239 -0.010000
v -0.075908 -0.284081 -0.010000
v -0.083794 -0.281634 -0.010000
v -0.091334 -0.278900 -0.010000
v -0.098527 -0.275878 -0.010000
v -0.105374 -0.272568 -0.010000
v -0.111948 -0.268980 -0.010000
v -0.118321 -0.265123 -0.010000
v -0.124495 -0.260998 -0.010000
v -0.130469 -0.256605 -0.010000
v -0.136242 -0.251944 -0.010000
v -0.141816 -0.247014 -0.010000
v -0.147190 -0.241816 -0.010000
v -0.152363 -0.236350 -0.010000
v -0.157337 -0.230616 -0.010000
v -0.162110 -0.224613 -0.010000
v -0.166684 -0.218341 -0.010000
v -0.171057 -0.211802 -0.010000
v -0.174103 -0.206915 -0.010000
v -0.177033 -0.201738 -0.010000
v -0.179849 -0.196270 -0.010000
v -0.182551 -0.190512 -0.010000
v -0.185138 -0.184464 -0.010000
v -0.187610 -0.178126 -0.010000
v -0.189967 -0.171498 -0.010000
v -0.192210 -0.164579 -0.010000
v -0.194338 -0.157370 -0.010000
v -0.196352 -0.149870 -0.010000
v -0.198251 -0.142081 -0.010000
v -0.052687 0.108008 -0.010000
v -0.055212 0.101582 -0.010000
v -0.057517 0.094305 -0.010000
v -0.059602 0.086176 -0.010000
v -0.061468 0.077196 -0.010000
v -0.063115 0.067365 -0.010000
v -0.064542 0.056682 -0.010000
v -0.065749 0.045149 -0.010000
v -0.066737 0.032764 -0.010000
v -0.067505 0.019527 -0.010000
v -0.068054 0.005439 -0.010000
v -0.068383 -0.009500 -0.010000
v -0.068493 -0.025290 -0.010000
v -0.068372 -0.041248 -0.010000
v -0.068010 -0.056341 -0.010000
v -0.067406 -0.070568 -0.010000
v -0.066561 -0.083929 -0.010000
v -0.065475 -0.096423 -0.010000
v -0.064146 -0.108052 -0.010000
v -0.062577 -0.118815 -0.010000
v -0.060766 -0.128712 -0.010000
v -0.058713 -0.137744 -0.010000
v -0.056419 -0.145909 -0.010000
v -0.053883 -0.153208 -0.010000
v -0.051106 -0.159642 -0.010000
v -0.048100 -0.165392 -0.010000
v -0.044877 -0.170643 -0.010000
v -0.041436 -0.175393 -0.010000
v -0.037779 -0.179643 -0.010000
v -0.033904 -0.183394 -0.010000
v -0.029812 -0.186644 -0.010000
v -0.025503 -0.189394 -0.010000
v -0.020977 -0.191644 -0.010000
v -0.016234 -0.193394 -0.010000
v -0.011274 -0.194644 -0.010000
v -0.006097 -0.195395 -0.010000
v -0.000703 -0.195645 -0.010000
v 0.002887 -0.195538 -0.010000
v 0.006396 -0.195220 -0.010000
v 0.009824 -0.194690 -0.010000
v 0.013172 -0.193947 -0.010000
v 0.016439 -0.192992 -0.010000
v 0.019626 -0.191825 -0.010000
v 0.022732 -0.190445 -0.010000
v 0.025758 -0.188854 -0.010000
v 0.028703 -0.187050 -0.010000
v 0.031568 -0.185034 -0.010000
v 0.034353 -0.182806 -0.010000
v 0.037057 -0.180365 -0.010000
v 0.039662 -0.177696 -0.010000
v 0.042150 -0.174779 -0.010000
v 0.044521 -0.171617 -0.010000
v 0.046774 -0.168208 -0.010000
v 0.048911 -0.164553 -0.010000
v 0.050931 -0.160652 -0.010000
v 0.052833 -0.156504 -0.010000
v 0.054619 -0.152109 -0.010000
v 0.056287 -0.147469 -0.010000
v 0.057839 -0.142582 -0.010000
v 0.059273 -0.137449 -0.010000
v 0.060590 -0.132069 -0.010000
v 0.061796 -0.126310 -0.010000
v 0.062898 -0.120039 -0.010000
v 0.063894 -0.113255 -0.010000
v 0.064786 -0.105959 -0.010000
v 0.065572 -0.098152 -0.010000
v 0.066254 -0.089831 -0.010000
v 0.066831 -0.080999 -0.010000
v 0.067303 -0.071654 -0.010000
v 0.067670 -0.061798 -0.010000
v 0.067932 -0.051428 -0.010000
v 0.068089 -0.040547 -0.010000
v 0.068142 -0.029153 -0.010000
v 0.068021 -0.012527 -0.010000
v 0.067659 0.003166 -0.010000
v 0.067055 0.017925 -0.010000
v 0.066210 0.031749 -0.010000
v 0.065123 0.044639 -0.010000
v 0.063795 0.056595 -0.010000
v 0.062226 0.067616 -0.010000
v 0.060414 0.077704 -0.010000
v 0.058362 0.086857 -0.010000
v 0.056068 0.095076 -0.010000
v 0.053532 0.102360 -0.010000
v 0.050755 0.108711 -0.010000
v 0.047737 0.114349 -0.010000
v 0.044477 0.119497 -0.010000
v 0.040975 0.124155 -0.010000
v 0.037232 0.128322 -0.010000
v 0.033248 0.131999 -0.010000
v 0.029022 0.135186 -0.010000
v 0.024554 0.137883 -0.010000
v 0.019845 0.140089 -0.010000
v 0.014895 0.141805 -0.010000
v 0.009703 0.143031 -0.010000
v 0.004270 0.143766 -0.010000
v -0.001405 0.144011 -0.010000
v -0.007181 0.143761 -0.010000
v -0.012684 0.143011 -0.010000
v -0.017914 0.141761 -0.010000
v -0.022870 0.140011 -0.010000
v -0.027553 0.137761 -0.010000
v -0.031963 0.135011 -0.010000
v -0.036100 0.131760 -0.010000
v -0.039964 0.128010 -0.010000
v -0.043555 0.123760 -0.010000
v -0.046872 0.119009 -0.010000
v -0.049916 0.113759 -0.010000
v -0.200035 -0.134001 -0.010000
v -0.200035 -0.134001 0.010000
v -0.201690 -0.125704 -0.010000
v -0.201690 -0.125704 0.010000
v -0.203201 -0.117263 -0.010000
v -0.203201 -0.117263 0.010000
v -0.204568 -0.108678 -0.010000
v -0.204568 -0.108678 0.010000
v -0.205792 -0.099949 -0.010000
v -0.205792 -0.099949 0.010000
v -0.206871 -0.091077 -0.010000
v -0.206871 -0.091077 0.010000
v -0.207806 -0.082060 -0.010000
v -0.207806 -0.082060 0.010000
v -0.208598 -0.072900 -0.010000
v -0.208598 -0.072900 0.010000
v -0.209246 -0.063595 -0.010000
v -0.209246 -0.063595 0.010000
v -0.209749 -0.054147 -0.010000
v -0.209749 -0.054147 0.010000
v -0.210109 -0.044555 -0.010000
v -0.210109 -0.044555 0.010000
v -0.210325 -0.034819 -0.010000
v -0.210325 -0.034819 0.010000
v -0.210397 -0.024939 -0.010000
v -0.210397 -0.024939 0.010000
v -0.210030 -0.001081 -0.010000
v -0.210030 -0.001081 0.010000
v -0.208929 0.021553 -0.010000
v -0.208929 0.021553 0.010000
v -0.207093 0.042962 -0.010000
v -0.207093 0.042962 0.010000
v -0.204523 0.063146 -0.010000
v -0.204523 0.063146 0.010000
v -0.201219 0.082106 -0.010000
v -0.201219 0.082106 0.010000
v -0.197181 0.099842 -0.010000
v -0.197181 0.099842 0.010000
v -0.192409 0.116353 -0.010000
v -0.192409 0.116353 0.010000
v -0.186902 0.131640 -0.010000
v -0.186902 0.131640 0.010000
v -0.180662 0.145702 -0.010000
v -0.180662 0.145702 0.010000
v -0.173687 0.158539 -0.010000
v -0.173687 0.158539 0.010000
v -0.165978 0.170152 -0.010000
v -0.165978 0.170152 0.010000
v -0.157534 0.180541 -0.010000
v -0.157534 0.180541 0.010000
v -0.148340 0.189910 -0.010000
v -0.148340 0.189910 0.010000
v -0.138377 0.198464 -0.010000
v -0.138377 0.198464 0.010000
v -0.127645 0.206204 -0.010000
v -0.127645 0.206204 0.010000
v -0.116146 0.213129 -0.010000
v -0.116146 0.213129 0.010000
v -0.103878 0.219239 -0.010000
v -0.103878 0.219239 0.010000
v -0.090841 0.224535 -0.010000
v -0.090841 0.224535 0.010000
v -0.077036 0.229015 -0.010000
v -0.077036 0.229015 0.010000
v -0.062463 0.232682 -0.010000
v -0.062463 0.232682 0.010000
v -0.047122 0.235533 -0.010000
v -0.047122 0.235533 0.010000
v -0.031012 0.237570 -0.010000
v -0.031012 0.237570 0.010000
v -0.014134 0.238792 -0.010000
v -0.014134 0.238792 0.010000
v 0.003512 0.239199 -0.010000
v 0.003512 0.239199 0.010000
v 0.012047 0.239110 -0.010000
v 0.012047 0.239110 0.010000
v 0.020324 0.238843 -0.010000
v 0.020324 0.238843 0.010000
v 0.028341 0.238398 -0.010000
v 0.028341 0.238398 0.010000
v 0.036100 0.237775 -0.010000
v 0.036100 0.237775 0.010000
v 0.043601 0.236973 -0.010000
v 0.043601 0.236973 0.010000
v 0.050843 0.235994 -0.010000
v 0.050843 0.235994 0.010000
v 0.057826 0.234837 -0.010000
v 0.057826 0.234837 0.010000
v 0.064551 0.233501 -0.010000
v 0.064551 0.233501 0.010000
v 0.071018 0.231988 -0.010000
v 0.071018 0.231988 0.010000
v 0.077226 0.230296 -0.010000
v 0.077226 0.230296 0.010000
v 0.083175 0.228426 -0.010000
v 0.083175 0.228426 0.010000
v 0.088865 0.226379 -0.010000
v 0.088865 0.226379 0.010000
v 0.094342 0.224188 -0.010000
v 0.094342 0.224188 0.010000
v 0.099647 0.221891 -0.010000
v 0.099647 0.221891 0.010000
v 0.104781 0.219485 -0.010000
v 0.104781 0.219485 0.010000
v 0.109745 0.216973 -0.010000
v 0.109745 0.216973 0.010000
v 0.114538 0.214353 -0.010000
v 0.114538 0.214353 0.010000
v 0.119161 0.211626 -0.010000
v 0.119161 0.211626 0.010000
v 0.123612 0.208792 -0.010000
v 0.123612 0.208792 0.010000
v 0.127893 0.205850 -0.010000
v 0.127893 0.205850 0.010000
v 0.132003 0.202801 -0.010000
v 0.132003 0.202801 0.010000
v 0.135942 0.199645 -0.010000
v 0.135942 0.199645 0.010000
v 0.139711 0.196381 -0.010000
v 0.139711 0.196381 0.010000
v 0.143309 0.193010 -0.010000
v 0.143309 0.193010 0.010000
v 0.146759 0.189571 -0.010000
v 0.146759 0.189571 0.010000
v 0.150085 0.186102 -0.010000
v 0.150085 0.186102 0.010000
v 0.153286 0.182604 -0.010000
v 0.153286 0.182604 0.010000
v 0.156363 0.179077 -0.010000
v 0.156363 0.179077 0.010000
v 0.159316 0.175521 -0.010000
v 0.159316 0.175521 0.010000
v 0.162144 0.171935 -0.010000
v 0.162144 0.171935 0.010000
v 0.164848 0.168320 -0.010000
v 0.164848 0.168320 0.010000
v 0.167428 0.164676 -0.010000
v 0.167428 0.164676 0.010000
v 0.169883 0.161003 -0.010000
v 0.169883 0.161003 0.010000
v 0.172213 0.157300 -0.010000
v 0.172213 0.157300 0.010000
v 0.174420 0.153568 -0.010000
v 0.174420 0.153568 0.010000
v 0.176502 0.149807 -0.010000
v 0.176502 0.149807 0.010000
v 0.178488 0.145978 -0.010000
v 0.178488 0.145978 0.010000
v 0.180409 0.142045 -0.010000
v 0.180409 0.142045 0.010000
v 0.182264 0.138007 -0.010000
v 0.182264 0.138007 0.010000
v 0.184053 0.133864 -0.010000
v 0.184053 0.133864 0.010000
v 0.185777 0.129616 -0.010000
v 0.185777 0.129616 0.010000
v 0.187434 0.125263 -0.010000
v 0.187434 0.125263 0.010000
v 0.189026 0.120806 -0.010000
v 0.189026 0.120806 0.010000
v 0.190551 0.116243 -0.010000
v 0.190551 0.116243 0.010000
v 0.192011 0.111576 -0.010000
v 0.192011 0.111576 0.010000
v 0.193405 0.106803 -0.010000
v 0.193405 0.106803 0.010000
v 0.194734 0.101926 -0.010000
v 0.194734 0.101926 0.010000
v 0.195996 0.096944 -0.010000
v 0.195996 0.096944 0.010000
v 0.198296 0.087309 -0.010000
v 0.198296 0.087309 0.010000
v 0.200396 0.077606 -0.010000
v 0.200396 0.077606 0.010000
v 0.202296 0.067835 -0.010000
v 0.202296 0.067835 0.010000
v 0.203996 0.057995 -0.010000
v 0.203996 0.057995 0.010000
v 0.205497 0.048087 -0.010000
v 0.205497 0.048087 0.010000
v 0.206797 0.038110 -0.010000
v 0.206797 0.038110 0.010000
v 0.207897 0.028066 -0.010000
v 0.207897 0.028066 0.010000
v 0.208797 0.017953 -0.010000
v 0.208797 0.017953 0.010000
v 0.209497 0.007771 -0.010000
v 0.209497 0.007771 0.010000
v 0.209997 -0.002478 -0.010000
v 0.209997 -0.002478 0.010000
v 0.210297 -0.012796 -0.010000
v 0.210297 -0.012796 0.010000
v 0.210397 -0.023182 -0.010000
v 0.210397 -0.023182 0.010000
v 0.210068 -0.046018 -0.010000
v 0.210068 -0.046018 0.010000
v 0.209080 -0.067810 -0.010000
v 0.209080 -0.067810 0.010000
v 0.207433 -0.088558 -0.010000
v 0.207433 -0.088558 0.010000
v 0.205128 -0.108262 -0.010000
v 0.205128 -0.108262 0.010000
v 0.202165 -0.126922 -0.010000
v 0.202165 -0.126922 0.010000
v 0.198542 -0.144538 -0.010000
v 0.198542 -0.144538 0.010000
v 0.194261 -0.161110 -0.010000
v 0.194261 -0.161110 0.010000
v 0.189322 -0.176638 -0.010000
v 0.189322 -0.176638 0.010000
v 0.183724 -0.191122 -0.010000
v 0.183724 -0.191122 0.010000
v 0.177468 -0.204562 -0.010000
v 0.177468 -0.204562 0.010000
v 0.170552 -0.216958 -0.010000
v 0.170552 -0.216958 0.010000
v 0.162979 -0.228311 -0.010000
v 0.162979 -0.228311 0.010000
v 0.154600 -0.238689 -0.010000
v 0.154600 -0.238689 0.010000
v 0.145270 -0.248166 -0.010000
v 0.145270 -0.248166 0.010000
v 0.134989 -0.256740 -0.010000
v 0.134989 -0.256740 0.010000
v 0.123756 -0.264411 -0.010000
v 0.123756 -0.264411 0.010000
v 0.111572 -0.271180 -0.010000
v 0.111572 -0.271180 0.010000
v 0.098437 -0.277046 -0.010000
v 0.098437 -0.277046 0.010000
v 0.084350 -0.282010 -0.010000
v 0.084350 -0.282010 0.010000
v 0.069313 -0.286071 -0.010000
v 0.069313 -0.286071 0.010000
v 0.053324 -0.289230 -0.010000
v 0.053324 -0.289230 0.010000
v 0.036383 -0.291486 -0.010000
v 0.036383 -0.291486 0.010000
v 0.018492 -0.292840 -0.010000
v 0.018492 -0.292840 0.010000
v -0.000351 -0.293291 -0.010000
v -0.000351 -0.293291 0.010000
v -0.011008 -0.293147 -0.010000
v -0.011008 -0.293147 0.010000
v -0.021319 -0.292716 -0.010000
v -0.021319 -0.292716 0.010000
v -0.031283 -0.291996 -0.010000
v -0.031283 -0.291996 0.010000
v -0.040901 -0.290989 -0.010000
v -0.040901 -0.290989 0.010000
v -0.050172 -0.289693 -0.010000
v -0.050172 -0.289693 0.010000
v -0.059097 -0.288110 -0.010000
v -0.059097 -0.288110 0.010000
v -0.067676 -0.286239 -0.010000
v -0.067676 -0.286239 0.010000
v -0.075908 -0.284081 -0.010000
v -0.075908 -0.284081 0.010000
v -0.083794 -0.281634 -0.010000
v -0.083794 -0.281634 0.010000
v -0.091334 -0.278900 -0.010000
v -0.091334 -0.278900 0.010000
v -0.098527 -0.275878 -0.010000
v -0.098527 -0.275878 0.010000
v -0.105374 -0.272568 -0.010000
v -0.105374 -0.272568 0.010000
v -0.111948 -0.268980 -0.010000
v -0.111948 -0.268980 0.010000
v -0.118321 -0.265123 -0.010000
v -0.118321 -0.265123 0.010000
v -0.124495 -0.260998 -0.010000
v -0.124495 -0.260998 0.010000
v -0.130469 -0.256605 -0.010000
v -0.130469 -0.256605 0.010000
v -0.136242 -0.251944 -0.010000
v -0.136242 -0.251944 0.010000
v -0.141816 -0.247014 -0.010000
v -0.141816 -0.247014 0.010000
v -0.147190 -0.241816 -0.010000
v -0.147190 -0.241816 0.010000
v -0.152363 -0.236350 -0.010000
v -0.152363 -0.236350 0.010000
v -0.157337 -0.230616 -0.010000
v -0.157337 -0.230616 0.010000
v -0.162110 -0.224613 -0.010000
v -0.162110 -0.224613 0.010000
v -0.166684 -0.218341 -0.010000
v -0.166684 -0.218341 0.010000
v -0.171057 -0.211802 -0.010000
v -0.171057 -0.211802 0.010000
v -0.174103 -0.206915 -0.010000
v -0.174103 -0.206915 0.010000
v -0.177033 -0.201738 -0.010000
v -0.177033 -0.201738 0.010000
v -0.179849 -0.196270 -0.010000
v -0.179849 -0.196270 0.010000
v -0.182551 -0.190512 -0.010000
v -0.182551 -0.190512 0.010000
v -0.185138 -0.184464 -0.010000
v -0.185138 -0.184464 0.010000
v -0.187610 -0.178126 -0.010000
v -0.187610 -0.178126 0.010000
v -0.189967 -0.171498 -0.010000
v -0.189967 -0.171498 0.010000
v -0.192210 -0.164579 -0.010000
v -0.192210 -0.164579 0.010000
v -0.194338 -0.157370 -0.010000
v -0.194338 -0.157370 0.010000
v -0.196352 -0.149870 -0.010000
v -0.196352 -0.149870 0.010000
v -0.198251 -0.142081 -0.010000
v -0.198251 -0.142081 0.010000
v -0.052687 0.108008 -0.010000
v -0.052687 0.108008 0.010000
v -0.055212 0.101582 -0.010000
v -0.055212 0.101582 0.010000
v -0.057517 0.094305 -0.010000
v -0.057517 0.094305 0.010000
v -0.059602 0.086176 -0.010000
v -0.059602 0.086176 0.010000
v -0.061468 0.077196 -0.010000
v -0.061468 0.077196 0.010000
v -0.063115 0.067365 -0.010000
v -0.063115 0.067365 0.010000
v -0.064542 0.056682 -0.010000
v -0.064542 0.056682 0.010000
v -0.065749 0.045149 -0.010000
v -0.065749 0.045149 0.010000
v -0.066737 0.032764 -0.010000
v -0.066737 0.032764 0.010000
v -0.067505 0.019527 -0.010000
v -0.067505 0.019527 0.010000
v -0.068054 0.005439 -0.010000
v -0.068054 0.005439 0.010000
v -0.068383 -0.009500 -0.010000
v -0.068383 -0.009500 0.010000
v -0.068493 -0.025290 -0.010000
v -0.068493 -0.025290 0.010000
v -0.068372 -0.041248 -0.010000
v -0.068372 -0.041248 0.010000
v -0.068010 -0.056341 -0.010000
v -0.068010 -0.056341 0.010000
v -0.067406 -0.070568 -0.010000
v -0.067406 -0.070568 0.010000
v -0.066561 -0.083929 -0.010000
v -0.066561 -0.083929 0.010000
v -0.065475 -0.096423 -0.010000
v -0.065475 -0.096423 0.010000
v -0.064146 -0.108052 -0.010000
v -0.064146 -0.108052 0.010000
v -0.062577 -0.118815 -0.010000
v -0.062577 -0.118815 0.010000
v -0.060766 -0.128712 -0.010000
v -0.060766 -0.128712 0.010000
v -0.058713 -0.137744 -0.010000
v -0.058713 -0.137744 0.010000
v -0.056419 -0.145909 -0.010000
v -0.056419 -0.145909 0.010000
v -0.053883 -0.153208 -0.010000
v -0.053883 -0.153208 0.010000
v -0.051106 -0.159642 -0.010000
v -0.051106 -0.159642 0.010000
v -0.048100 -0.165392 -0.010000
v -0.048100 -0.165392 0.010000
v -0.044877 -0.170643 -0.010000
v -0.044877 -0.170643 0.010000
v -0.041436 -0.175393 -0.010000
v -0.041436 -0.175393 0.010000
v -0.037779 -0.179643 -0.010000
v -0.037779 -0.179643 0.010000
v -0.033904 -0.183394 -0.010000
v -0.033904 -0.183394 0.010000
v -0.029812 -0.186644 -0.010000
v -0.029812 -0.186644 0.010000
v -0.025503 -0.189394 -0.010000
v -0.025503 -0.189394 0.010000
v -0.020977 -0.191644 -0.010000
v -0.020977 -0.191644 0.010000
v -0.016234 -0.193394 -0.010000
v -0.016234 -0.193394 0.010000
v -0.011274 -0.194644 -0.010000
v -0.011274 -0.194644 0.010000
v -0.006097 -0.195395 -0.010000
v -0.006097 -0.195395 0.010000
v -0.000703 -0.195645 -0.010000
v -0.000703 -0.195645 0.010000
v 0.002887 -0.195538 -0.010000
v 0.002887 -0.195538 0.010000
v 0.006396 -0.195220 -0.010000
v 0.006396 -0.195220 0.010000
v 0.009824 -0.194690 -0.010000
v 0.009824 -0.194690 0.010000
v 0.013172 -0.193947 -0.010000
v 0.013172 -0.193947 0.010000
v 0.016439 -0.192992 -0.010000
v 0.016439 -0.192992 0.010000
v 0.019626 -0.191825 -0.010000
v 0.019626 -0.191825 0.010000
v 0.022732 -0.190445 -0.010000
v 0.022732 -0.190445 0.010000
v 0.025758 -0.188854 -0.010000
v 0.025758 -0.188854 0.010000
v 0.028703 -0.187050 -0.010000
v 0.028703 -0.187050 0.010000
v 0.031568 -0.185034 -0.010000
v 0.031568 -0.185034 0.010000
v 0.034353 -0.182806 -0.010000
v 0.034353 -0.182806 0.010000
v 0.037057 -0.180365 -0.010000
v 0.037057 -0.180365 0.010000
v 0.039662 -0.177696 -0.010000
v 0.039662 -0.177696 0.010000
v 0.042150 -0.174779 -0.010000
v 0.042150 -0.174779 0.010000
v 0.044521 -0.171617 -0.010000
v 0.044521 -0.171617 0.010000
v 0.046774 -0.168208 -0.010000
v 0.046774 -0.168208 0.010000
v 0.048911 -0.164553 -0.010000
v 0.048911 -0.164553 0.010000
v 0.050931 -0.160652 -0.010000
v 0.050931 -0.160652 0.010000
v 0.052833 -0.156504 -0.010000
v 0.052833 -0.156504 0.010000
v 0.054619 -0.152109 -0.010000
v 0.054619 -0.152109 0.010000
v 0.056287 -0.147469 -0.010000
v 0.056287 -0.147469 0.010000
v 0.057839 -0.142582 -0.010000
v 0.057839 -0.142582 0.010000
v 0.059273 -0.137449 -0.010000
v 0.059273 -0.137449 0.010000
v 0.060590 -0.132069 -0.010000
v 0.060590 -0.132069 0.010000
v 0.061796 -0.126310 -0.010000
v 0.061796 -0.126310 0.010000
v 0.062898 -0.120039 -0.010000
v 0.062898 -0.120039 0.010000
v 0.063894 -0.113255 -0.010000
v 0.063894 -0.113255 0.010000
v 0.064786 -0.105959 -0.010000
v 0.064786 -0.105959 0.010000
v 0.065572 -0.098152 -0.010000
v 0.065572 -0.098152 0.010000
v 0.066254 -0.089831 -0.010000
v 0.066254 -0.089831 0.010000
v 0.066831 -0.080999 -0.010000
v 0.066831 -0.080999 0.010000
v 0.067303 -0.071654 -0.010000
v 0.067303 -0.071654 0.010000
v 0.067670 -0.061798 -0.010000
v 0.067670 -0.061798 0.010000
v 0.067932 -0.051428 -0.010000
v 0.067932 -0.051428 0.010000
v 0.068089 -0.040547 -0.010000
v 0.068089 -0.040547 0.010000
v 0.068142 -0.029153 -0.010000
v 0.068142 -0.029153 0.010000
v 0.068021 -0.012527 -0.010000
v 0.068021 -0.012527 0.010000
v 0.067659 0.003166 -0.010000
v 0.067659 0.003166 0.010000
v 0.067055 0.017925 -0.010000
v 0.067055 0.017925 0.010000
v 0.066210 0.031749 -0.010000
v 0.066210 0.031749 0.010000
v 0.065123 0.044639 -0.010000
v 0.065123 0.044639 0.010000
v 0.063795 0.056595 -0.010000
v 0.063795 0.056595 0.010000
v 0.062226 0.067616 -0.010000
v 0.062226 0.067616 0.010000
v 0.060414 0.077704 -0.010000
v 0.060414 0.077704 0.010000
v 0.058362 0.086857 -0.010000
v 0.058362 0.086857 0.010000
v 0.056068 0.095076 -0.010000
v 0.056068 0.095076 0.010000
v 0.053532 0.102360 -0.010000
v 0.053532 0.102360 0.010000
v 0.050755 0.108711 -0.010000
v 0.050755 0.108711 0.010000
v 0.047737 0.114349 -0.010000
v 0.047737 0.114349 0.010000
v 0.044477 0.119497 -0.010000
v 0.044477 0.119497 0.010000
v 0.040975 0.124155 -0.010000
v 0.040975 0.124155 0.010000
v 0.037232 0.128322 -0.010000
v 0.037232 0.128322 0.010000
v 0.033248 0.131999 -0.010000
v 0.033248 0.131999 0.010000
v 0.029022 0.135186 -0.010000
v 0.029022 0.135186 0.010000
v 0.024554 0.137883 -0.010000
v 0.024554 0.137883 0.010000
v 0.019845 0.140089 -0.010000
v 0.019845 0.140089 0.010000
v 0.014895 0.141805 -0.010000
v 0.014895 0.141805 0.010000
v 0.009703 0.143031 -0.010000
v 0.009703 0.143031 0.010000
v 0.004270 0.143766 -0.010000
v 0.004270 0.143766 0.010000
v -0.001405 0.144011 -0.010000
v -0.001405 0.144011 0.010000
v -0.007181 0.143761 -0.010000
v -0.007181 0.143761 0.010000
v -0.012684 0.143011 -0.010000
v -0.012684 0.143011 0.010000
v -0.017914 0.141761 -0.010000
v -0.017914 0.141761 0.010000
v -0.022870 0.140011 -0.010000
v -0.022870 0.140011 0.010000
v -0.027553 0.137761 -0.010000
v -0.027553 0.137761 0.010000
v -0.031963 0.135011 -0.010000
v -0.031963 0.135011 0.010000
v -0.036100 0.131760 -0.010000
v -0.036100 0.131760 0.010000
v -0.039964 0.128010 -0.010000
v -0.039964 0.128010 0.010000
v -0.043555 0.123760 -0.010000
v -0.043555 0.123760 0.010000
v -0.046872 0.119009 -0.010000
v -0.046872 0.119009 0.010000
v -0.049916 0.113759 -0.010000
v -0.049916 0.113759 0.010000
vn -0.0000 -0.0000 1.0000
vn -0.0000 -0.0000 -1.0000
vn -0.9826 -0.1859 -0.0000
vn -0.9786 -0.2056 -0.0000
vn -0.9860 -0.1668 -0.0000
vn -0.9890 -0.1480 -0.0000
vn -0.9915 -0.1298 -0.0000
vn -0.9937 -0.1120 -0.0000
vn -0.9955 -0.0946 -0.0000
vn -0.9970 -0.0778 -0.0000
vn -0.9981 -0.0613 -0.0000
vn -0.9990 -0.0454 -0.0000
vn -0.9996 -0.0298 -0.0000
vn -0.9999 -0.0147 -0.0000
vn -1.0000 0.0041 -0.0000
vn -0.9995 0.0320 -0.0000
vn -0.9978 0.0670 -0.0000
vn -0.9944 0.1059 -0.0000
vn -0.9888 0.1490 -0.0000
vn -0.9804 0.1969 -0.0000
vn -0.9683 0.2499 -0.0000
vn -0.9512 0.3084 -0.0000
vn -0.9280 0.3725 -0.0000
vn -0.8971 0.4419 -0.0000
vn -0.8567 0.5157 -0.0000
vn -0.8055 0.5926 -0.0000
vn -0.7457 0.6663 -0.0000
vn -0.6832 0.7302 -0.0000
vn -0.6187 0.7856 -0.0000
vn -0.5509 0.8346 -0.0000
vn -0.4812 0.8766 -0.0000
vn -0.4114 0.9115 -0.0000
vn -0.3428 0.9394 -0.0000
vn -0.2765 0.9610 -0.0000
vn -0.2135 0.9770 -0.0000
vn -0.1541 0.9880 -0.0000
vn -0.0989 0.9951 -0.0000
vn -0.0477 0.9989 -0.0000
vn -0.0063 1.0000 -0.0000
vn 0.0213 0.9998 -0.0000
vn 0.0438 0.9990 -0.0000
vn 0.0678 0.9977 -0.0000
vn 0.0932 0.9957 -0.0000
vn 0.1201 0.9928 -0.0000
vn 0.1488 0.9889 -0.0000
vn 0.1792 0.9838 -0.0000
vn 0.2114 0.9774 -0.0000
vn 0.2454 0.9694 -0.0000
vn 0.2814 0.9596 -0.0000
vn 0.3193 0.9477 -0.0000
vn 0.3550 0.9349 -0.0000
vn 0.3844 0.9231 -0.0000
vn 0.4109 0.9117 -0.0000
vn 0.4379 0.8990 -0.0000
vn 0.4108 0.9117 -0.0000
vn 0.4657 0.8850 -0.0000
vn 0.4939 0.8695 -0.0000
vn 0.5227 0.8525 -0.0000
vn 0.5518 0.8340 -0.0000
vn 0.5812 0.8138 -0.0000
vn 0.6106 0.7919 -0.0000
vn 0.6401 0.7683 -0.0000
vn 0.6693 0.7430 -0.0000
vn 0.6949 0.7191 -0.0000
vn 0.7139 0.7002 -0.0000
vn 0.7298 0.6837 -0.0000
vn 0.7457 0.6663 -0.0000
vn 0.7615 0.6481 -0.0000
vn 0.7773 0.6291 -0.0000
vn 0.7930 0.6092 -0.0000
vn 0.8086 0.5884 -0.0000
vn 0.8239 0.5668 -0.0000
vn 0.8389 0.5442 -0.0000
vn 0.8536 0.5208 -0.0000
vn 0.8680 0.4966 -0.0000
vn 0.8536 0.5209 -0.0000
vn 0.8813 0.4725 -0.0000
vn 0.8931 0.4498 -0.0000
vn 0.9037 0.4282 -0.0000
vn 0.9134 0.4070 -0.0000
vn 0.9224 0.3862 -0.0000
vn 0.9306 0.3659 -0.0000
vn 0.9382 0.3461 -0.0000
vn 0.9451 0.3267 -0.0000
vn 0.9514 0.3078 -0.0000
vn 0.9572 0.2895 -0.0000
vn 0.9624 0.2716 -0.0000
vn 0.9672 0.2542 -0.0000
vn 0.9710 0.2389 -0.0000
vn 0.9751 0.2219 -0.0000
vn 0.9795 0.2012 -0.0000
vn 0.9836 0.1806 -0.0000
vn 0.9871 0.1600 -0.0000
vn 0.9902 0.1395 -0.0000
vn 0.9929 0.1191 -0.0000
vn 0.9951 0.0988 -0.0000
vn 0.9969 0.0786 -0.0000
vn 0.9983 0.0587 -0.0000
vn 0.9992 0.0389 -0.0000
vn 0.9998 0.0193 -0.0000
vn 1.0000 -0.0024 -0.0000
vn 0.9996 -0.0299 -0.0000
vn 0.9981 -0.0622 -0.0000
vn 0.9952 -0.0977 -0.0000
vn 0.9906 -0.1366 -0.0000
vn 0.9838 -0.1792 -0.0000
vn 0.9742 -0.2258 -0.0000
vn 0.9609 -0.2767 -0.0000
vn 0.9433 -0.3320 -0.0000
vn 0.9202 -0.3915 -0.0000
vn 0.8905 -0.4549 -0.0000
vn 0.8533 -0.5215 -0.0000
vn 0.8058 -0.5922 -0.0000
vn 0.7462 -0.6657 -0.0000
vn 0.6773 -0.7357 -0.0000
vn 0.6029 -0.7978 -0.0000
vn 0.5254 -0.8509 -0.0000
vn 0.4471 -0.8945 -0.0000
vn 0.3704 -0.9289 -0.0000
vn 0.2968 -0.9550 -0.0000
vn 0.2274 -0.9738 -0.0000
vn 0.2967 -0.9550 -0.0000
vn 0.1630 -0.9866 -0.0000
vn 0.1038 -0.9946 -0.0000
vn 0.0497 -0.9988 -0.0000
vn 0.0052 -1.0000 -0.0000
vn -0.0277 -0.9996 -0.0000
vn -0.0569 -0.9984 -0.0000
vn -0.0881 -0.9961 -0.0000
vn -0.1213 -0.9926 -0.0000
vn -0.1565 -0.9877 -0.0000
vn -0.1939 -0.9810 -0.0000
vn -0.2334 -0.9724 -0.0000
vn -0.2750 -0.9614 -0.0000
vn -0.3187 -0.9479 -0.0000
vn -0.3643 -0.9313 -0.0000
vn -0.4114 -0.9114 -0.0000
vn -0.4573 -0.8893 -0.0000
vn -0.4985 -0.8669 -0.0000
vn -0.5367 -0.8437 -0.0000
vn -0.5741 -0.8188 -0.0000
vn -0.5367 -0.8438 -0.0000
vn -0.6105 -0.7920 -0.0000
vn -0.6455 -0.7638 -0.0000
vn -0.6791 -0.7341 -0.0000
vn -0.7109 -0.7032 -0.0000
vn -0.7410 -0.6715 -0.0000
vn -0.7693 -0.6389 -0.0000
vn -0.7955 -0.6060 -0.0000
vn -0.7692 -0.6389 -0.0000
vn -0.8198 -0.5727 -0.0000
vn -0.8401 -0.5425 -0.0000
vn -0.8597 -0.5109 -0.0000
vn -0.8798 -0.4754 -0.0000
vn -0.8973 -0.4414 -0.0000
vn -0.8798 -0.4753 -0.0000
vn -0.9125 -0.4091 -0.0000
vn -0.9257 -0.3784 -0.0000
vn -0.9370 -0.3493 -0.0000
vn -0.9468 -0.3218 -0.0000
vn -0.9553 -0.2958 -0.0000
vn -0.9625 -0.2712 -0.0000
vn -0.9687 -0.2481 -0.0000
vn -0.9741 -0.2263 -0.0000
vn 0.9426 -0.3340 -0.0000
vn 0.9164 -0.4002 -0.0000
vn 0.9613 -0.2753 -0.0000
vn 0.9741 -0.2260 -0.0000
vn 0.9829 -0.1843 -0.0000
vn 0.9889 -0.1488 -0.0000
vn 0.9930 -0.1183 -0.0000
vn 0.9958 -0.0918 -0.0000
vn 0.9976 -0.0687 -0.0000
vn 0.9988 -0.0484 -0.0000
vn 0.9995 -0.0305 -0.0000
vn 0.9999 -0.0145 -0.0000
vn 1.0000 0.0003 -0.0000
vn 0.9999 0.0158 -0.0000
vn 0.9994 0.0332 -0.0000
vn 0.9986 0.0528 -0.0000
vn 0.9972 0.0749 -0.0000
vn 0.9950 0.1001 -0.0000
vn 0.9917 0.1289 -0.0000
vn 0.9868 0.1622 -0.0000
vn 0.9796 0.2009 -0.0000
vn 0.9692 0.2461 -0.0000
vn 0.9541 0.2994 -0.0000
vn 0.9320 0.3625 -0.0000
vn 0.9028 0.4301 -0.0000
vn 0.8697 0.4935 -0.0000
vn 0.8317 0.5553 -0.0000
vn 0.7846 0.6200 -0.0000
vn 0.7275 0.6861 -0.0000
vn 0.6595 0.7517 -0.0000
vn 0.5808 0.8141 -0.0000
vn 0.4923 0.8704 -0.0000
vn 0.3963 0.9181 -0.0000
vn 0.2957 0.9553 -0.0000
vn 0.1941 0.9810 -0.0000
vn 0.0949 0.9955 -0.0000
vn 0.0084 1.0000 -0.0000
vn 0.0950 0.9955 -0.0000
vn -0.0600 0.9982 -0.0000
vn -0.1217 0.9926 -0.0000
vn -0.1849 0.9828 -0.0000
vn -0.2487 0.9686 -0.0000
vn -0.3124 0.9500 -0.0000
vn -0.3751 0.9270 -0.0000
vn -0.4359 0.9000 -0.0000
vn -0.4942 0.8694 -0.0000
vn -0.5492 0.8357 -0.0000
vn -0.6004 0.7997 -0.0000
vn -0.6477 0.7619 -0.0000
vn -0.6932 0.7207 -0.0000
vn -0.7386 0.6741 -0.0000
vn -0.7808 0.6248 -0.0000
vn -0.8175 0.5759 -0.0000
vn -0.8491 0.5283 -0.0000
vn -0.8760 0.4824 -0.0000
vn -0.8988 0.4384 -0.0000
vn -0.9179 0.3968 -0.0000
vn -0.9339 0.3575 -0.0000
vn -0.9472 0.3205 -0.0000
vn -0.9583 0.2859 -0.0000
vn -0.9673 0.2535 -0.0000
vn -0.9752 0.2214 -0.0000
vn -0.9820 0.1890 -0.0000
vn -0.9873 0.1592 -0.0000
vn -0.9911 0.1333 -0.0000
vn -0.9938 0.1108 -0.0000
vn -0.9959 0.0910 -0.0000
vn -0.9973 0.0734 -0.0000
vn -0.9983 0.0578 -0.0000
vn -0.9990 0.0438 -0.0000
vn -0.9995 0.0312 -0.0000
vn -0.9998 0.0199 -0.0000
vn -1.0000 0.0095 -0.0000
vn -1.0000 -0.0013 -0.0000
vn -0.9999 -0.0152 -0.0000
vn -0.9995 -0.0320 -0.0000
vn -0.9987 -0.0509 -0.0000
vn -0.9974 -0.0725 -0.0000
vn -0.9987 -0.0510 -0.0000
vn -0.9953 -0.0972 -0.0000
vn -0.9921 -0.1257 -0.0000
vn -0.9873 -0.1589 -0.0000
vn -0.9802 -0.1978 -0.0000
vn -0.9698 -0.2439 -0.0000
vn -0.9543 -0.2989 -0.0000
vn -0.9310 -0.3650 -0.0000
vn -0.8996 -0.4367 -0.0000
vn -0.8638 -0.5038 -0.0000
vn -0.8227 -0.5684 -0.0000
vn -0.7724 -0.6352 -0.0000
vn -0.7119 -0.7023 -0.0000
vn -0.6409 -0.7676 -0.0000
vn -0.5602 -0.8284 -0.0000
vn -0.4712 -0.8820 -0.0000
vn -0.3764 -0.9265 -0.0000
vn -0.2790 -0.9603 -0.0000
vn -0.1822 -0.9833 -0.0000
vn -0.0887 -0.9961 -0.0000
vn -0.0000 -1.0000 -0.0000
vn 0.0892 -0.9960 -0.0000
vn 0.1840 -0.9829 -0.0000
vn 0.2831 -0.9591 -0.0000
vn 0.3836 -0.9235 -0.0000
vn 0.4818 -0.8763 -0.0000
vn 0.5743 -0.8186 -0.0000
vn 0.6580 -0.7530 -0.0000
vn 0.7311 -0.6823 -0.0000
vn 0.7927 -0.6096 -0.0000
vn 0.8432 -0.5375 -0.0000
vn 0.8836 -0.4682 -0.0000
vt 0.133080 0.000000
vt 0.140684 0.000000
vt 0.136882 0.000000
vt 0.144487 0.000000
vt 0.148289 0.000000
vt 0.129278 0.000000
vt 0.152091 0.000000
vt 0.155894 0.000000
vt 0.125475 0.000000
vt 0.159696 0.000000
vt 0.163498 0.000000
vt 0.121673 0.000000
vt 0.167300 0.000000
vt 0.171103 0.000000
vt 0.117871 0.000000
vt 0.174905 0.000000
vt 0.178707 0.000000
vt 0.114068 0.000000
vt 0.182510 0.000000
vt 0.186312 0.000000
vt 0.110266 0.000000
vt 0.190114 0.000000
vt 0.193916 0.000000
vt 0.197719 0.000000
vt 0.106464 0.000000
vt 0.201521 0.000000
vt 0.205323 0.000000
vt 0.102662 0.000000
vt 0.209125 0.000000
vt 0.212928 0.000000
vt 0.098859 0.000000
vt 0.216730 0.000000
vt 0.220532 0.000000
vt 0.224335 0.000000
vt 0.095057 0.000000
vt 0.228137 0.000000
vt 0.231939 0.000000
vt 0.091255 0.000000
vt 0.235741 0.000000
vt 0.239544 0.000000
vt 0.243346 0.000000
vt 0.087452 0.000000
vt 0.247148 0.000000
vt 0.250951 0.000000
vt 0.254753 0.000000
vt 0.083650 0.000000
vt 0.258555 0.000000
vt 0.262357 0.000000
vt 0.266160 0.000000
vt 0.079848 0.000000
vt 0.269962 0.000000
vt 0.273764 0.000000
vt 0.277567 0.000000
vt 0.958175 0.000000
vt 0.281369 0.000000
vt 0.076046 0.000000
vt 0.961977 0.000000
vt 0.954373 0.000000
vt 0.950570 0.000000
vt 0.965779 0.000000
vt 0.946768 0.000000
vt 0.969582 0.000000
vt 0.285171 0.000000
vt 0.942966 0.000000
vt 0.973384 0.000000
vt 0.939164 0.000000
vt 0.977186 0.000000
vt 0.288973 0.000000
vt 0.935361 0.000000
vt 0.980989 0.000000
vt 0.931559 0.000000
vt 0.984791 0.000000
vt 0.292776 0.000000
vt 0.927757 0.000000
vt 0.988593 0.000000
vt 0.072243 0.000000
vt 0.296578 0.000000
vt 0.923954 0.000000
vt 0.992395 0.000000
vt 0.300380 0.000000
vt 0.920152 0.000000
vt 0.996198 0.000000
vt 0.304182 0.000000
vt 0.916350 0.000000
vt 1.000000 0.000000
vt 0.068441 0.000000
vt 0.307985 0.000000
vt 0.912548 0.000000
vt 0.593156 0.000000
vt 0.311787 0.000000
vt 0.908745 0.000000
vt 0.596958 0.000000
vt 0.315589 0.000000
vt 0.904943 0.000000
vt 0.319392 0.000000
vt 0.600760 0.000000
vt 0.064639 0.000000
vt 0.323194 0.000000
vt 0.901141 0.000000
vt 0.604563 0.000000
vt 0.326996 0.000000
vt 0.897338 0.000000
vt 0.608365 0.000000
vt 0.060837 0.000000
vt 0.893536 0.000000
vt 0.330798 0.000000
vt 0.612167 0.000000
vt 0.334601 0.000000
vt 0.889734 0.000000
vt 0.615970 0.000000
vt 0.057034 0.000000
vt 0.338403 0.000000
vt 0.619772 0.000000
vt 0.885932 0.000000
vt 0.342205 0.000000
vt 0.623574 0.000000
vt 0.882129 0.000000
vt 0.053232 0.000000
vt 0.346008 0.000000
vt 0.627376 0.000000
vt 0.878327 0.000000
vt 0.349810 0.000000
vt 0.049430 0.000000
vt 0.631179 0.000000
vt 0.353612 0.000000
vt 0.874525 0.000000
vt 0.357414 0.000000
vt 0.634981 0.000000
vt 0.870722 0.000000
vt 0.045627 0.000000
vt 0.361217 0.000000
vt 0.638783 0.000000
vt 0.866920 0.000000
vt 0.365019 0.000000
vt 0.368821 0.000000
vt 0.041825 0.000000
vt 0.642586 0.000000
vt 0.863118 0.000000
vt 0.038023 0.000000
vt 0.859316 0.000000
vt 0.646388 0.000000
vt 0.034221 0.000000
vt 0.372624 0.000000
vt 0.855513 0.000000
vt 0.030418 0.000000
vt 0.650190 0.000000
vt 0.851711 0.000000
vt 0.026616 0.000000
vt 0.376426 0.000000
vt 0.653992 0.000000
vt 0.847909 0.000000
vt 0.022814 0.000000
vt 0.844106 0.000000
vt 0.019011 0.000000
vt 0.657795 0.000000
vt 0.380228 0.000000
vt 0.840304 0.000000
vt 0.015209 0.000000
vt 0.661597 0.000000
vt 0.836502 0.000000
vt 0.011407 0.000000
vt 0.832700 0.000000
vt 0.665399 0.000000
vt 0.384030 0.000000
vt 0.007605 0.000000
vt 0.828897 0.000000
vt 0.003802 0.000000
vt 0.669201 0.000000
vt 0.825095 0.000000
vt 0.000000 0.000000
vt 0.821293 0.000000
vt 0.387833 0.000000
vt 0.673004 0.000000
vt 0.817491 0.000000
vt 0.589354 0.000000
vt 0.813688 0.000000
vt 0.676806 0.000000
vt 0.585551 0.000000
vt 0.809886 0.000000
vt 0.391635 0.000000
vt 0.680608 0.000000
vt 0.806084 0.000000
vt 0.581749 0.000000
vt 0.802281 0.000000
vt 0.684411 0.000000
vt 0.798479 0.000000
vt 0.577947 0.000000
vt 0.688213 0.000000
vt 0.794677 0.000000
vt 0.395437 0.000000
vt 0.790875 0.000000
vt 0.574144 0.000000
vt 0.692015 0.000000
vt 0.787072 0.000000
vt 0.695817 0.000000
vt 0.570342 0.000000
vt 0.783270 0.000000
vt 0.779468 0.000000
vt 0.699620 0.000000
vt 0.399240 0.000000
vt 0.775665 0.000000
vt 0.566540 0.000000
vt 0.703422 0.000000
vt 0.771863 0.000000
vt 0.768061 0.000000
vt 0.707224 0.000000
vt 0.562738 0.000000
vt 0.764259 0.000000
vt 0.711027 0.000000
vt 0.760456 0.000000
vt 0.756654 0.000000
vt 0.714829 0.000000
vt 0.752852 0.000000
vt 0.558935 0.000000
vt 0.403042 0.000000
vt 0.718631 0.000000
vt 0.749049 0.000000
vt 0.745247 0.000000
vt 0.722433 0.000000
vt 0.741445 0.000000
vt 0.726236 0.000000
vt 0.737643 0.000000
vt 0.733840 0.000000
vt 0.730038 0.000000
vt 0.555133 0.000000
vt 0.551331 0.000000
vt 0.406844 0.000000
vt 0.547529 0.000000
vt 0.543726 0.000000
vt 0.410646 0.000000
vt 0.539924 0.000000
vt 0.536122 0.000000
vt 0.414449 0.000000
vt 0.532319 0.000000
vt 0.528517 0.000000
vt 0.418251 0.000000
vt 0.524715 0.000000
vt 0.520913 0.000000
vt 0.422053 0.000000
vt 0.517110 0.000000
vt 0.513308 0.000000
vt 0.425856 0.000000
vt 0.509506 0.000000
vt 0.429658 0.000000
vt 0.505703 0.000000
vt 0.501901 0.000000
vt 0.433460 0.000000
vt 0.498099 0.000000
vt 0.494297 0.000000
vt 0.437262 0.000000
vt 0.490494 0.000000
vt 0.486692 0.000000
vt 0.441065 0.000000
vt 0.482890 0.000000
vt 0.444867 0.000000
vt 0.479087 0.000000
vt 0.475285 0.000000
vt 0.448669 0.000000
vt 0.471483 0.000000
vt 0.467681 0.000000
vt 0.452471 0.000000
vt 0.463878 0.000000
vt 0.460076 0.000000
vt 0.456274 0.000000
vt 0.006410 1.000000
vt 0.000000 1.000000
vt 0.012821 1.000000
vt 0.006410 0.000000
vt 0.019231 1.000000
vt 0.012821 0.000000
vt 0.025641 1.000000
vt 0.019231 0.000000
vt 0.032051 1.000000
vt 0.025641 0.000000
vt 0.038462 1.000000
vt 0.032051 0.000000
vt 0.044872 1.000000
vt 0.038462 0.000000
vt 0.051282 1.000000
vt 0.044872 0.000000
vt 0.057692 1.000000
vt 0.051282 0.000000
vt 0.064103 1.000000
vt 0.057692 0.000000
vt 0.070513 1.000000
vt 0.064103 0.000000
vt 0.076923 1.000000
vt 0.070513 0.000000
vt 0.083333 1.000000
vt 0.076923 0.000000
vt 0.089744 1.000000
vt 0.083333 0.000000
vt 0.096154 1.000000
vt 0.089744 0.000000
vt 0.102564 1.000000
vt 0.096154 0.000000
vt 0.108974 1.000000
vt 0.102564 0.000000
vt 0.115385 1.000000
vt 0.108974 0.000000
vt 0.121795 1.000000
vt 0.115385 0.000000
vt 0.128205 1.000000
vt 0.121795 0.000000
vt 0.134615 1.000000
vt 0.128205 0.000000
vt 0.141026 1.000000
vt 0.134615 0.000000
vt 0.147436 1.000000
vt 0.141026 0.000000
vt 0.153846 1.000000
vt 0.147436 0.000000
vt 0.160256 1.000000
vt 0.153846 0.000000
vt 0.166667 1.000000
vt 0.160256 0.000000
vt 0.173077 1.000000
vt 0.166667 0.000000
vt 0.179487 1.000000
vt 0.173077 0.000000
vt 0.185897 1.000000
vt 0.179487 0.000000
vt 0.192308 1.000000
vt 0.185897 0.000000
vt 0.198718 1.000000
vt 0.192308 0.000000
vt 0.205128 1.000000
vt 0.198718 0.000000
vt 0.211538 1.000000
vt 0.205128 0.000000
vt 0.217949 1.000000
vt 0.211538 0.000000
vt 0.224359 1.000000
vt 0.217949 0.000000
vt 0.230769 1.000000
vt 0.224359 0.000000
vt 0.237179 1.000000
vt 0.230769 0.000000
vt 0.243590 1.000000
vt 0.237179 0.000000
vt 0.250000 1.000000
vt 0.243590 0.000000
vt 0.256410 1.000000
vt 0.250000 0.000000
vt 0.262821 1.000000
vt 0.256410 0.000000
vt 0.269231 1.000000
vt 0.262821 0.000000
vt 0.275641 1.000000
vt 0.269231 0.000000
vt 0.282051 1.000000
vt 0.275641 0.000000
vt 0.288462 1.000000
vt 0.282051 0.000000
vt 0.294872 1.000000
vt 0.288462 0.000000
vt 0.301282 1.000000
vt 0.294872 0.000000
vt 0.307692 1.000000
vt 0.301282 0.000000
vt 0.314103 1.000000
vt 0.307692 0.000000
vt 0.320513 1.000000
vt 0.314103 0.000000
vt 0.326923 1.000000
vt 0.320513 0.000000
vt 0.333333 1.000000
vt 0.326923 0.000000
vt 0.339744 1.000000
vt 0.333333 0.000000
vt 0.346154 1.000000
vt 0.339744 0.000000
vt 0.352564 1.000000
vt 0.346154 0.000000
vt 0.358974 1.000000
vt 0.352564 0.000000
vt 0.365385 1.000000
vt 0.358974 0.000000
vt 0.371795 1.000000
vt 0.365385 0.000000
vt 0.378205 1.000000
vt 0.371795 0.000000
vt 0.384615 1.000000
vt 0.378205 0.000000
vt 0.391026 1.000000
vt 0.384615 0.000000
vt 0.397436 1.000000
vt 0.391026 0.000000
vt 0.403846 1.000000
vt 0.397436 0.000000
vt 0.410256 1.000000
vt 0.403846 0.000000
vt 0.416667 1.000000
vt 0.410256 0.000000
vt 0.423077 1.000000
vt 0.416667 0.000000
vt 0.429487 1.000000
vt 0.423077 0.000000
vt 0.435897 1.000000
vt 0.429487 0.000000
vt 0.442308 1.000000
vt 0.435897 0.000000
vt 0.448718 1.000000
vt 0.442308 0.000000
vt 0.455128 1.000000
vt 0.448718 0.000000
vt 0.461538 1.000000
vt 0.455128 0.000000
vt 0.467949 1.000000
vt 0.461538 0.000000
vt 0.474359 1.000000
vt 0.467949 0.000000
vt 0.480769 1.000000
vt 0.474359 0.000000
vt 0.487179 1.000000
vt 0.480769 0.000000
vt 0.493590 1.000000
vt 0.487179 0.000000
vt 0.500000 1.000000
vt 0.493590 0.000000
vt 0.506410 1.000000
vt 0.500000 0.000000
vt 0.512821 1.000000
vt 0.506410 0.000000
vt 0.519231 1.000000
vt 0.512821 0.000000
vt 0.525641 1.000000
vt 0.519231 0.000000
vt 0.532051 1.000000
vt 0.525641 0.000000
vt 0.538462 1.000000
vt 0.532051 0.000000
vt 0.544872 1.000000
vt 0.538462 0.000000
vt 0.551282 1.000000
vt 0.544872 0.000000
vt 0.557692 1.000000
vt 0.551282 0.000000
vt 0.564103 1.000000
vt 0.557692 0.000000
vt 0.570513 1.000000
vt 0.564103 0.000000
vt 0.576923 1.000000
vt 0.570513 0.000000
vt 0.583333 1.000000
vt 0.576923 0.000000
vt 0.589744 1.000000
vt 0.583333 0.000000
vt 0.596154 1.000000
vt 0.589744 0.000000
vt 0.602564 1.000000
vt 0.596154 0.000000
vt 0.608974 1.000000
vt 0.602564 0.000000
vt 0.615385 1.000000
vt 0.608974 0.000000
vt 0.621795 1.000000
vt 0.615385 0.000000
vt 0.628205 1.000000
vt 0.621795 0.000000
vt 0.634615 1.000000
vt 0.628205 0.000000
vt 0.641026 1.000000
vt 0.634615 0.000000
vt 0.647436 1.000000
vt 0.641026 0.000000
vt 0.653846 1.000000
vt 0.647436 0.000000
vt 0.660256 1.000000
vt 0.653846 0.000000
vt 0.666667 1.000000
vt 0.660256 0.000000
vt 0.673077 1.000000
vt 0.666667 0.000000
vt 0.679487 1.000000
vt 0.673077 0.000000
vt 0.685897 1.000000
vt 0.679487 0.000000
vt 0.692308 1.000000
vt 0.685897 0.000000
vt 0.698718 1.000000
vt 0.692308 0.000000
vt 0.705128 1.000000
vt 0.698718 0.000000
vt 0.711538 1.000000
vt 0.705128 0.000000
vt 0.717949 1.000000
vt 0.711538 0.000000
vt 0.724359 1.000000
vt 0.717949 0.000000
vt 0.730769 1.000000
vt 0.724359 0.000000
vt 0.737179 1.000000
vt 0.730769 0.000000
vt 0.743590 1.000000
vt 0.737179 0.000000
vt 0.750000 1.000000
vt 0.743590 0.000000
vt 0.756410 1.000000
vt 0.750000 0.000000
vt 0.762821 1.000000
vt 0.756410 0.000000
vt 0.769231 1.000000
vt 0.762821 0.000000
vt 0.775641 1.000000
vt 0.769231 0.000000
vt 0.782051 1.000000
vt 0.775641 0.000000
vt 0.788462 1.000000
vt 0.782051 0.000000
vt 0.794872 1.000000
vt 0.788462 0.000000
vt 0.801282 1.000000
vt 0.794872 0.000000
vt 0.807692 1.000000
vt 0.801282 0.000000
vt 0.814103 1.000000
vt 0.807692 0.000000
vt 0.820513 1.000000
vt 0.814103 0.000000
vt 0.826923 1.000000
vt 0.820513 0.000000
vt 0.833333 1.000000
vt 0.826923 0.000000
vt 0.839744 1.000000
vt 0.833333 0.000000
vt 0.846154 1.000000
vt 0.839744 0.000000
vt 0.852564 1.000000
vt 0.846154 0.000000
vt 0.858974 1.000000
vt 0.852564 0.000000
vt 0.865385 1.000000
vt 0.858974 0.000000
vt 0.871795 1.000000
vt 0.865385 0.000000
vt 0.878205 1.000000
vt 0.871795 0.000000
vt 0.884615 1.000000
vt 0.878205 0.000000
vt 0.891026 1.000000
vt 0.884615 0.000000
vt 0.897436 1.000000
vt 0.891026 0.000000
vt 0.903846 1.000000
vt 0.897436 0.000000
vt 0.910256 1.000000
vt 0.903846 0.000000
vt 0.916667 1.000000
vt 0.910256 0.000000
vt 0.923077 1.000000
vt 0.916667 0.000000
vt 0.929487 1.000000
vt 0.923077 0.000000
vt 0.935897 1.000000
vt 0.929487 0.000000
vt 0.942308 1.000000
vt 0.935897 0.000000
vt 0.948718 1.000000
vt 0.942308 0.000000
vt 0.955128 1.000000
vt 0.948718 0.000000
vt 0.961538 1.000000
vt 0.955128 0.000000
vt 0.967949 1.000000
vt 0.961538 0.000000
vt 0.974359 1.000000
vt 0.967949 0.000000
vt 0.980769 1.000000
vt 0.974359 0.000000
vt 0.987179 1.000000
vt 0.980769 0.000000
vt 0.993590 1.000000
vt 0.987179 0.000000
vt 1.000000 1.000000
vt 0.993590 0.000000
vt 0.009259 1.000000
vt 0.018519 1.000000
vt 0.009259 0.000000
vt 0.027778 1.000000
vt 0.018519 0.000000
vt 0.037037 1.000000
vt 0.027778 0.000000
vt 0.046296 1.000000
vt 0.037037 0.000000
vt 0.055556 1.000000
vt 0.046296 0.000000
vt 0.064815 1.000000
vt 0.055556 0.000000
vt 0.074074 1.000000
vt 0.064815 0.000000
vt 0.074074 0.000000
vt 0.092593 1.000000
vt 0.101852 1.000000
vt 0.092593 0.000000
vt 0.111111 1.000000
vt 0.101852 0.000000
vt 0.120370 1.000000
vt 0.111111 0.000000
vt 0.129630 1.000000
vt 0.120370 0.000000
vt 0.138889 1.000000
vt 0.129630 0.000000
vt 0.148148 1.000000
vt 0.138889 0.000000
vt 0.157407 1.000000
vt 0.148148 0.000000
vt 0.157407 0.000000
vt 0.175926 1.000000
vt 0.185185 1.000000
vt 0.175926 0.000000
vt 0.194444 1.000000
vt 0.185185 0.000000
vt 0.203704 1.000000
vt 0.194444 0.000000
vt 0.212963 1.000000
vt 0.203704 0.000000
vt 0.222222 1.000000
vt 0.212963 0.000000
vt 0.231481 1.000000
vt 0.222222 0.000000
vt 0.240741 1.000000
vt 0.231481 0.000000
vt 0.240741 0.000000
vt 0.259259 1.000000
vt 0.268519 1.000000
vt 0.259259 0.000000
vt 0.277778 1.000000
vt 0.268519 0.000000
vt 0.287037 1.000000
vt 0.277778 0.000000
vt 0.296296 1.000000
vt 0.287037 0.000000
vt 0.305556 1.000000
vt 0.296296 0.000000
vt 0.314815 1.000000
vt 0.305556 0.000000
vt 0.324074 1.000000
vt 0.314815 0.000000
vt 0.324074 0.000000
vt 0.342593 1.000000
vt 0.351852 1.000000
vt 0.342593 0.000000
vt 0.361111 1.000000
vt 0.351852 0.000000
vt 0.370370 1.000000
vt 0.361111 0.000000
vt 0.379630 1.000000
vt 0.370370 0.000000
vt 0.388889 1.000000
vt 0.379630 0.000000
vt 0.398148 1.000000
vt 0.388889 0.000000
vt 0.407407 1.000000
vt 0.398148 0.000000
vt 0.407407 0.000000
vt 0.425926 1.000000
vt 0.435185 1.000000
vt 0.425926 0.000000
vt 0.444444 1.000000
vt 0.435185 0.000000
vt 0.453704 1.000000
vt 0.444444 0.000000
vt 0.462963 1.000000
vt 0.453704 0.000000
vt 0.472222 1.000000
vt 0.462963 0.000000
vt 0.481481 1.000000
vt 0.472222 0.000000
vt 0.490741 1.000000
vt 0.481481 0.000000
vt 0.490741 0.000000
vt 0.509259 1.000000
vt 0.518519 1.000000
vt 0.509259 0.000000
vt 0.527778 1.000000
vt 0.518519 0.000000
vt 0.537037 1.000000
vt 0.527778 0.000000
vt 0.546296 1.000000
vt 0.537037 0.000000
vt 0.555556 1.000000
vt 0.546296 0.000000
vt 0.564815 1.000000
vt 0.555556 0.000000
vt 0.574074 1.000000
vt 0.564815 0.000000
vt 0.574074 0.000000
vt 0.592593 1.000000
vt 0.601852 1.000000
vt 0.592593 0.000000
vt 0.611111 1.000000
vt 0.601852 0.000000
vt 0.620370 1.000000
vt 0.611111 0.000000
vt 0.629630 1.000000
vt 0.620370 0.000000
vt 0.638889 1.000000
vt 0.629630 0.000000
vt 0.648148 1.000000
vt 0.638889 0.000000
vt 0.657407 1.000000
vt 0.648148 0.000000
vt 0.657407 0.000000
vt 0.675926 1.000000
vt 0.685185 1.000000
vt 0.675926 0.000000
vt 0.694444 1.000000
vt 0.685185 0.000000
vt 0.703704 1.000000
vt 0.694444 0.000000
vt 0.712963 1.000000
vt 0.703704 0.000000
vt 0.722222 1.000000
vt 0.712963 0.000000
vt 0.731481 1.000000
vt 0.722222 0.000000
vt 0.740741 1.000000
vt 0.731481 0.000000
vt 0.740741 0.000000
vt 0.759259 1.000000
vt 0.768519 1.000000
vt 0.759259 0.000000
vt 0.777778 1.000000
vt 0.768519 0.000000
vt 0.787037 1.000000
vt 0.777778 0.000000
vt 0.796296 1.000000
vt 0.787037 0.000000
vt 0.805556 1.000000
vt 0.796296 0.000000
vt 0.814815 1.000000
vt 0.805556 0.000000
vt 0.824074 1.000000
vt 0.814815 0.000000
vt 0.824074 0.000000
vt 0.842593 1.000000
vt 0.851852 1.000000
vt 0.842593 0.000000
vt 0.861111 1.000000
vt 0.851852 0.000000
vt 0.870370 1.000000
vt 0.861111 0.000000
vt 0.879630 1.000000
vt 0.870370 0.000000
vt 0.888889 1.000000
vt 0.879630 0.000000
vt 0.898148 1.000000
vt 0.888889 0.000000
vt 0.907407 1.000000
vt 0.898148 0.000000
vt 0.907407 0.000000
vt 0.925926 1.000000
vt 0.935185 1.000000
vt 0.925926 0.000000
vt 0.944444 1.000000
vt 0.935185 0.000000
vt 0.953704 1.000000
vt 0.944444 0.000000
vt 0.962963 1.000000
vt 0.953704 0.000000
vt 0.972222 1.000000
vt 0.962963 0.000000
vt 0.981481 1.000000
vt 0.972222 0.000000
vt 0.990741 1.000000
vt 0.981481 0.000000
vt 0.990741 0.000000
s 0
usemtl マテリアル
f 36/1/1 38/2/1 37/3/1
f 36/1/1 39/4/1 38/2/1
f 36/1/1 40/5/1 39/4/1
f 35/6/1 40/5/1 36/1/1
f 35/6/1 41/7/1 40/5/1
f 35/6/1 42/8/1 41/7/1
f 34/9/1 42/8/1 35/6/1
f 34/9/1 43/10/1 42/8/1
f 34/9/1 44/11/1 43/10/1
f 33/12/1 44/11/1 34/9/1
f 33/12/1 45/13/1 44/11/1
f 33/12/1 46/14/1 45/13/1
f 32/15/1 46/14/1 33/12/1
f 32/15/1 47/16/1 46/14/1
f 32/15/1 48/17/1 47/16/1
f 31/18/1 48/17/1 32/15/1
f 31/18/1 49/19/1 48/17/1
f 31/18/1 50/20/1 49/19/1
f 30/21/1 50/20/1 31/18/1
f 30/21/1 51/22/1 50/20/1
f 30/21/1 52/23/1 51/22/1
f 30/21/1 53/24/1 52/23/1
f 29/25/1 53/24/1 30/21/1
f 29/25/1 54/26/1 53/24/1
f 29/25/1 55/27/1 54/26/1
f 28/28/1 55/27/1 29/25/1
f 28/28/1 56/29/1 55/27/1
f 28/28/1 57/30/1 56/29/1
f 27/31/1 57/30/1 28/28/1
f 27/31/1 58/32/1 57/30/1
f 27/31/1 59/33/1 58/32/1
f 27/31/1 60/34/1 59/33/1
f 26/35/1 60/34/1 27/31/1
f 26/35/1 61/36/1 60/34/1
f 26/35/1 62/37/1 61/36/1
f 25/38/1 62/37/1 26/35/1
f 25/38/1 63/39/1 62/37/1
f 25/38/1 64/40/1 63/39/1
f 25/38/1 65/41/1 64/40/1
f 24/42/1 65/41/1 25/38/1
f 24/42/1 66/43/1 65/41/1
f 24/42/1 67/44/1 66/43/1
f 24/42/1 68/45/1 67/44/1
f 23/46/1 68/45/1 24/42/1
f 23/46/1 69/47/1 68/45/1
f 23/46/1 70/48/1 69/47/1
f 23/46/1 71/49/1 70/48/1
f 22/50/1 71/49/1 23/46/1
f 22/50/1 72/51/1 71/49/1
f 22/50/1 73/52/1 72/51/1
f 22/50/1 74/53/1 73/52/1
f 22/50/1 253/54/1 74/53/1
f 253/54/1 75/55/1 74/53/1
f 21/56/1 254/57/1 22/50/1
f 254/57/1 253/54/1 22/50/1
f 252/58/1 75/55/1 253/54/1
f 251/59/1 75/55/1 252/58/1
f 21/56/1 255/60/1 254/57/1
f 250/61/1 75/55/1 251/59/1
f 21/56/1 256/62/1 255/60/1
f 250/61/1 76/63/1 75/55/1
f 249/64/1 76/63/1 250/61/1
f 21/56/1 257/65/1 256/62/1
f 248/66/1 76/63/1 249/64/1
f 21/56/1 258/67/1 257/65/1
f 248/66/1 77/68/1 76/63/1
f 247/69/1 77/68/1 248/66/1
f 21/56/1 259/70/1 258/67/1
f 246/71/1 77/68/1 247/69/1
f 21/56/1 260/72/1 259/70/1
f 246/71/1 78/73/1 77/68/1
f 245/74/1 78/73/1 246/71/1
f 21/56/1 261/75/1 260/72/1
f 20/76/1 261/75/1 21/56/1
f 245/74/1 79/77/1 78/73/1
f 244/78/1 79/77/1 245/74/1
f 20/76/1 262/79/1 261/75/1
f 244/78/1 80/80/1 79/77/1
f 243/81/1 80/80/1 244/78/1
f 20/76/1 263/82/1 262/79/1
f 243/81/1 81/83/1 80/80/1
f 242/84/1 81/83/1 243/81/1
f 20/76/1 264/85/1 263/82/1
f 19/86/1 264/85/1 20/76/1
f 242/84/1 82/87/1 81/83/1
f 241/88/1 82/87/1 242/84/1
f 19/86/1 157/89/1 264/85/1
f 241/88/1 83/90/1 82/87/1
f 240/91/1 83/90/1 241/88/1
f 19/86/1 158/92/1 157/89/1
f 240/91/1 84/93/1 83/90/1
f 239/94/1 84/93/1 240/91/1
f 239/94/1 85/95/1 84/93/1
f 19/86/1 159/96/1 158/92/1
f 18/97/1 159/96/1 19/86/1
f 239/94/1 86/98/1 85/95/1
f 238/99/1 86/98/1 239/94/1
f 18/97/1 160/100/1 159/96/1
f 238/99/1 87/101/1 86/98/1
f 237/102/1 87/101/1 238/99/1
f 18/97/1 161/103/1 160/100/1
f 17/104/1 161/103/1 18/97/1
f 236/105/1 87/101/1 237/102/1
f 236/105/1 88/106/1 87/101/1
f 17/104/1 162/107/1 161/103/1
f 236/105/1 89/108/1 88/106/1
f 235/109/1 89/108/1 236/105/1
f 17/104/1 163/110/1 162/107/1
f 16/111/1 163/110/1 17/104/1
f 235/109/1 90/112/1 89/108/1
f 16/111/1 164/113/1 163/110/1
f 234/114/1 90/112/1 235/109/1
f 234/114/1 91/115/1 90/112/1
f 16/111/1 165/116/1 164/113/1
f 233/117/1 91/115/1 234/114/1
f 15/118/1 165/116/1 16/111/1
f 233/117/1 92/119/1 91/115/1
f 15/118/1 166/120/1 165/116/1
f 232/121/1 92/119/1 233/117/1
f 232/121/1 93/122/1 92/119/1
f 14/123/1 166/120/1 15/118/1
f 14/123/1 167/124/1 166/120/1
f 232/121/1 94/125/1 93/122/1
f 231/126/1 94/125/1 232/121/1
f 231/126/1 95/127/1 94/125/1
f 14/123/1 168/128/1 167/124/1
f 230/129/1 95/127/1 231/126/1
f 13/130/1 168/128/1 14/123/1
f 230/129/1 96/131/1 95/127/1
f 13/130/1 169/132/1 168/128/1
f 229/133/1 96/131/1 230/129/1
f 229/133/1 97/134/1 96/131/1
f 229/133/1 98/135/1 97/134/1
f 12/136/1 169/132/1 13/130/1
f 12/136/1 170/137/1 169/132/1
f 228/138/1 98/135/1 229/133/1
f 11/139/1 170/137/1 12/136/1
f 227/140/1 98/135/1 228/138/1
f 11/139/1 171/141/1 170/137/1
f 10/142/1 171/141/1 11/139/1
f 227/140/1 99/143/1 98/135/1
f 226/144/1 99/143/1 227/140/1
f 9/145/1 171/141/1 10/142/1
f 9/145/1 172/146/1 171/141/1
f 225/147/1 99/143/1 226/144/1
f 8/148/1 172/146/1 9/145/1
f 225/147/1 100/149/1 99/143/1
f 8/148/1 173/150/1 172/146/1
f 224/151/1 100/149/1 225/147/1
f 7/152/1 173/150/1 8/148/1
f 223/153/1 100/149/1 224/151/1
f 6/154/1 173/150/1 7/152/1
f 6/154/1 174/155/1 173/150/1
f 223/153/1 101/156/1 100/149/1
f 222/157/1 101/156/1 223/153/1
f 5/158/1 174/155/1 6/154/1
f 5/158/1 175/159/1 174/155/1
f 221/160/1 101/156/1 222/157/1
f 4/161/1 175/159/1 5/158/1
f 220/162/1 101/156/1 221/160/1
f 4/161/1 176/163/1 175/159/1
f 220/162/1 102/164/1 101/156/1
f 3/165/1 176/163/1 4/161/1
f 219/166/1 102/164/1 220/162/1
f 2/167/1 176/163/1 3/165/1
f 2/167/1 177/168/1 176/163/1
f 218/169/1 102/164/1 219/166/1
f 1/170/1 177/168/1 2/167/1
f 217/171/1 102/164/1 218/169/1
f 217/171/1 103/172/1 102/164/1
f 1/170/1 178/173/1 177/168/1
f 216/174/1 103/172/1 217/171/1
f 156/175/1 178/173/1 1/170/1
f 215/176/1 103/172/1 216/174/1
f 156/175/1 179/177/1 178/173/1
f 155/178/1 179/177/1 156/175/1
f 214/179/1 103/172/1 215/176/1
f 214/179/1 104/180/1 103/172/1
f 155/178/1 180/181/1 179/177/1
f 213/182/1 104/180/1 214/179/1
f 154/183/1 180/181/1 155/178/1
f 212/184/1 104/180/1 213/182/1
f 154/183/1 181/185/1 180/181/1
f 211/186/1 104/180/1 212/184/1
f 153/187/1 181/185/1 154/183/1
f 153/187/1 182/188/1 181/185/1
f 210/189/1 104/180/1 211/186/1
f 210/189/1 105/190/1 104/180/1
f 209/191/1 105/190/1 210/189/1
f 152/192/1 182/188/1 153/187/1
f 152/192/1 183/193/1 182/188/1
f 208/194/1 105/190/1 209/191/1
f 152/192/1 184/195/1 183/193/1
f 151/196/1 184/195/1 152/192/1
f 207/197/1 105/190/1 208/194/1
f 206/198/1 105/190/1 207/197/1
f 151/196/1 185/199/1 184/195/1
f 206/198/1 106/200/1 105/190/1
f 205/201/1 106/200/1 206/198/1
f 150/202/1 185/199/1 151/196/1
f 150/202/1 186/203/1 185/199/1
f 204/204/1 106/200/1 205/201/1
f 203/205/1 106/200/1 204/204/1
f 150/202/1 187/206/1 186/203/1
f 149/207/1 187/206/1 150/202/1
f 202/208/1 106/200/1 203/205/1
f 149/207/1 188/209/1 187/206/1
f 201/210/1 106/200/1 202/208/1
f 200/211/1 106/200/1 201/210/1
f 149/207/1 189/212/1 188/209/1
f 199/213/1 106/200/1 200/211/1
f 148/214/1 189/212/1 149/207/1
f 199/213/1 107/215/1 106/200/1
f 148/214/1 190/216/1 189/212/1
f 198/217/1 107/215/1 199/213/1
f 197/218/1 107/215/1 198/217/1
f 148/214/1 191/219/1 190/216/1
f 196/220/1 107/215/1 197/218/1
f 148/214/1 192/221/1 191/219/1
f 195/222/1 107/215/1 196/220/1
f 194/223/1 107/215/1 195/222/1
f 148/214/1 193/224/1 192/221/1
f 193/224/1 107/215/1 194/223/1
f 148/214/1 107/215/1 193/224/1
f 147/225/1 107/215/1 148/214/1
f 146/226/1 107/215/1 147/225/1
f 146/226/1 108/227/1 107/215/1
f 145/228/1 108/227/1 146/226/1
f 144/229/1 108/227/1 145/228/1
f 144/229/1 109/230/1 108/227/1
f 143/231/1 109/230/1 144/229/1
f 142/232/1 109/230/1 143/231/1
f 142/232/1 110/233/1 109/230/1
f 141/234/1 110/233/1 142/232/1
f 140/235/1 110/233/1 141/234/1
f 140/235/1 111/236/1 110/233/1
f 139/237/1 111/236/1 140/235/1
f 138/238/1 111/236/1 139/237/1
f 138/238/1 112/239/1 111/236/1
f 137/240/1 112/239/1 138/238/1
f 136/241/1 112/239/1 137/240/1
f 136/241/1 113/242/1 112/239/1
f 135/243/1 113/242/1 136/241/1
f 135/243/1 114/244/1 113/242/1
f 134/245/1 114/244/1 135/243/1
f 133/246/1 114/244/1 134/245/1
f 133/246/1 115/247/1 114/244/1
f 132/248/1 115/247/1 133/246/1
f 131/249/1 115/247/1 132/248/1
f 131/249/1 116/250/1 115/247/1
f 130/251/1 116/250/1 131/249/1
f 129/252/1 116/250/1 130/251/1
f 129/252/1 117/253/1 116/250/1
f 128/254/1 117/253/1 129/252/1
f 128/254/1 118/255/1 117/253/1
f 127/256/1 118/255/1 128/254/1
f 126/257/1 118/255/1 127/256/1
f 126/257/1 119/258/1 118/255/1
f 125/259/1 119/258/1 126/257/1
f 124/260/1 119/258/1 125/259/1
f 124/260/1 120/261/1 119/258/1
f 123/262/1 120/261/1 124/260/1
f 122/263/1 120/261/1 123/262/1
f 122/263/1 121/264/1 120/261/1
f 300/1/2 301/3/2 302/2/2
f 300/1/2 302/2/2 303/4/2
f 300/1/2 303/4/2 304/5/2
f 299/6/2 300/1/2 304/5/2
f 299/6/2 304/5/2 305/7/2
f 299/6/2 305/7/2 306/8/2
f 298/9/2 299/6/2 306/8/2
f 298/9/2 306/8/2 307/10/2
f 298/9/2 307/10/2 308/11/2
f 297/12/2 298/9/2 308/11/2
f 297/12/2 308/11/2 309/13/2
f 297/12/2 309/13/2 310/14/2
f 296/15/2 297/12/2 310/14/2
f 296/15/2 310/14/2 311/16/2
f 296/15/2 311/16/2 312/17/2
f 295/18/2 296/15/2 312/17/2
f 295/18/2 312/17/2 313/19/2
f 295/18/2 313/19/2 314/20/2
f 294/21/2 295/18/2 314/20/2
f 294/21/2 314/20/2 315/22/2
f 294/21/2 315/22/2 316/23/2
f 294/21/2 316/23/2 317/24/2
f 293/25/2 294/21/2 317/24/2
f 293/25/2 317/24/2 318/26/2
f 293/25/2 318/26/2 319/27/2
f 292/28/2 293/25/2 319/27/2
f 292/28/2 319/27/2 320/29/2
f 292/28/2 320/29/2 321/30/2
f 291/31/2 292/28/2 321/30/2
f 291/31/2 321/30/2 322/32/2
f 291/31/2 322/32/2 323/33/2
f 291/31/2 323/33/2 324/34/2
f 290/35/2 291/31/2 324/34/2
f 290/35/2 324/34/2 325/36/2
f 290/35/2 325/36/2 326/37/2
f 289/38/2 290/35/2 326/37/2
f 289/38/2 326/37/2 327/39/2
f 289/38/2 327/39/2 328/40/2
f 289/38/2 328/40/2 329/41/2
f 288/42/2 289/38/2 329/41/2
f 288/42/2 329/41/2 330/43/2
f 288/42/2 330/43/2 331/44/2
f 288/42/2 331/44/2 332/45/2
f 287/46/2 288/42/2 332/45/2
f 287/46/2 332/45/2 333/47/2
f 287/46/2 333/47/2 334/48/2
f 287/46/2 334/48/2 335/49/2
f 286/50/2 287/46/2 335/49/2
f 286/50/2 335/49/2 336/51/2
f 286/50/2 336/51/2 337/52/2
f 286/50/2 337/52/2 338/53/2
f 286/50/2 338/53/2 517/54/2
f 517/54/2 338/53/2 339/55/2
f 285/56/2 286/50/2 518/57/2
f 518/57/2 286/50/2 517/54/2
f 516/58/2 517/54/2 339/55/2
f 515/59/2 516/58/2 339/55/2
f 285/56/2 518/57/2 519/60/2
f 514/61/2 515/59/2 339/55/2
f 285/56/2 519/60/2 520/62/2
f 514/61/2 339/55/2 340/63/2
f 513/64/2 514/61/2 340/63/2
f 285/56/2 520/62/2 521/65/2
f 512/66/2 513/64/2 340/63/2
f 285/56/2 521/65/2 522/67/2
f 512/66/2 340/63/2 341/68/2
f 511/69/2 512/66/2 341/68/2
f 285/56/2 522/67/2 523/70/2
f 510/71/2 511/69/2 341/68/2
f 285/56/2 523/70/2 524/72/2
f 510/71/2 341/68/2 342/73/2
f 509/74/2 510/71/2 342/73/2
f 285/56/2 524/72/2 525/75/2
f 284/76/2 285/56/2 525/75/2
f 509/74/2 342/73/2 343/77/2
f 508/78/2 509/74/2 343/77/2
f 284/76/2 525/75/2 526/79/2
f 508/78/2 343/77/2 344/80/2
f 507/81/2 508/78/2 344/80/2
f 284/76/2 526/79/2 527/82/2
f 507/81/2 344/80/2 345/83/2
f 506/84/2 507/81/2 345/83/2
f 284/76/2 527/82/2 528/85/2
f 283/86/2 284/76/2 528/85/2
f 506/84/2 345/83/2 346/87/2
f 505/88/2 506/84/2 346/87/2
f 283/86/2 528/85/2 421/89/2
f 505/88/2 346/87/2 347/90/2
f 504/91/2 505/88/2 347/90/2
f 283/86/2 421/89/2 422/92/2
f 504/91/2 347/90/2 348/93/2
f 503/94/2 504/91/2 348/93/2
f 503/94/2 348/93/2 349/95/2
f 283/86/2 422/92/2 423/96/2
f 282/97/2 283/86/2 423/96/2
f 503/94/2 349/95/2 350/98/2
f 502/99/2 503/94/2 350/98/2
f 282/97/2 423/96/2 424/100/2
f 502/99/2 350/98/2 351/101/2
f 501/102/2 502/99/2 351/101/2
f 282/97/2 424/100/2 425/103/2
f 281/104/2 282/97/2 425/103/2
f 500/105/2 501/102/2 351/101/2
f 500/105/2 351/101/2 352/106/2
f 281/104/2 425/103/2 426/107/2
f 500/105/2 352/106/2 353/108/2
f 499/109/2 500/105/2 353/108/2
f 281/104/2 426/107/2 427/110/2
f 280/111/2 281/104/2 427/110/2
f 499/109/2 353/108/2 354/112/2
f 280/111/2 427/110/2 428/113/2
f 498/114/2 499/109/2 354/112/2
f 498/114/2 354/112/2 355/115/2
f 280/111/2 428/113/2 429/116/2
f 497/117/2 498/114/2 355/115/2
f 279/118/2 280/111/2 429/116/2
f 497/117/2 355/115/2 356/119/2
f 279/118/2 429/116/2 430/120/2
f 496/121/2 497/117/2 356/119/2
f 496/121/2 356/119/2 357/122/2
f 278/123/2 279/118/2 430/120/2
f 278/123/2 430/120/2 431/124/2
f 496/121/2 357/122/2 358/125/2
f 495/126/2 496/121/2 358/125/2
f 495/126/2 358/125/2 359/127/2
f 278/123/2 431/124/2 432/128/2
f 494/129/2 495/126/2 359/127/2
f 277/130/2 278/123/2 432/128/2
f 494/129/2 359/127/2 360/131/2
f 277/130/2 432/128/2 433/132/2
f 493/133/2 494/129/2 360/131/2
f 493/133/2 360/131/2 361/134/2
f 493/133/2 361/134/2 362/135/2
f 276/136/2 277/130/2 433/132/2
f 276/136/2 433/132/2 434/137/2
f 492/138/2 493/133/2 362/135/2
f 275/139/2 276/136/2 434/137/2
f 491/140/2 492/138/2 362/135/2
f 275/139/2 434/137/2 435/141/2
f 274/142/2 275/139/2 435/141/2
f 491/140/2 362/135/2 363/143/2
f 490/144/2 491/140/2 363/143/2
f 273/145/2 274/142/2 435/141/2
f 273/145/2 435/141/2 436/146/2
f 489/147/2 490/144/2 363/143/2
f 272/148/2 273/145/2 436/146/2
f 489/147/2 363/143/2 364/149/2
f 272/148/2 436/146/2 437/150/2
f 488/151/2 489/147/2 364/149/2
f 271/152/2 272/148/2 437/150/2
f 487/153/2 488/151/2 364/149/2
f 270/154/2 271/152/2 437/150/2
f 270/154/2 437/150/2 438/155/2
f 487/153/2 364/149/2 365/156/2
f 486/157/2 487/153/2 365/156/2
f 269/158/2 270/154/2 438/155/2
f 269/158/2 438/155/2 439/159/2
f 485/160/2 486/157/2 365/156/2
f 268/161/2 269/158/2 439/159/2
f 484/162/2 485/160/2 365/156/2
f 268/161/2 439/159/2 440/163/2
f 484/162/2 365/156/2 366/164/2
f 267/165/2 268/161/2 440/163/2
f 483/166/2 484/162/2 366/164/2
f 266/167/2 267/165/2 440/163/2
f 266/167/2 440/163/2 441/168/2
f 482/169/2 483/166/2 366/164/2
f 265/170/2 266/167/2 441/168/2
f 481/171/2 482/169/2 366/164/2
f 481/171/2 366/164/2 367/172/2
f 265/170/2 441/168/2 442/173/2
f 480/174/2 481/171/2 367/172/2
f 420/175/2 265/170/2 442/173/2
f 479/176/2 480/174/2 367/172/2
f 420/175/2 442/173/2 443/177/2
f 419/178/2 420/175/2 443/177/2
f 478/179/2 479/176/2 367/172/2
f 478/179/2 367/172/2 368/180/2
f 419/178/2 443/177/2 444/181/2
f 477/182/2 478/179/2 368/180/2
f 418/183/2 419/178/2 444/181/2
f 476/184/2 477/182/2 368/180/2
f 418/183/2 444/181/2 445/185/2
f 475/186/2 476/184/2 368/180/2
f 417/187/2 418/183/2 445/185/2
f 417/187/2 445/185/2 446/188/2
f 474/189/2 475/186/2 368/180/2
f 474/189/2 368/180/2 369/190/2
f 473/191/2 474/189/2 369/190/2
f 416/192/2 417/187/2 446/188/2
f 416/192/2 446/188/2 447/193/2
f 472/194/2 473/191/2 369/190/2
f 416/192/2 447/193/2 448/195/2
f 415/196/2 416/192/2 448/195/2
f 471/197/2 472/194/2 369/190/2
f 470/198/2 471/197/2 369/190/2
f 415/196/2 448/195/2 449/199/2
f 470/198/2 369/190/2 370/200/2
f 469/201/2 470/198/2 370/200/2
f 414/202/2 415/196/2 449/199/2
f 414/202/2 449/199/2 450/203/2
f 468/204/2 469/201/2 370/200/2
f 467/205/2 468/204/2 370/200/2
f 414/202/2 450/203/2 451/206/2
f 413/207/2 414/202/2 451/206/2
f 466/208/2 467/205/2 370/200/2
f 413/207/2 451/206/2 452/209/2
f 465/210/2 466/208/2 370/200/2
f 464/211/2 465/210/2 370/200/2
f 413/207/2 452/209/2 453/212/2
f 463/213/2 464/211/2 370/200/2
f 412/214/2 413/207/2 453/212/2
f 463/213/2 370/200/2 371/215/2
f 412/214/2 453/212/2 454/216/2
f 462/217/2 463/213/2 371/215/2
f 461/218/2 462/217/2 371/215/2
f 412/214/2 454/216/2 455/219/2
f 460/220/2 461/218/2 371/215/2
f 412/214/2 455/219/2 456/221/2
f 459/222/2 460/220/2 371/215/2
f 458/223/2 459/222/2 371/215/2
f 412/214/2 456/221/2 457/224/2
f 457/224/2 458/223/2 371/215/2
f 412/214/2 457/224/2 371/215/2
f 411/225/2 412/214/2 371/215/2
f 410/226/2 411/225/2 371/215/2
f 410/226/2 371/215/2 372/227/2
f 409/228/2 410/226/2 372/227/2
f 408/229/2 409/228/2 372/227/2
f 408/229/2 372/227/2 373/230/2
f 407/231/2 408/229/2 373/230/2
f 406/232/2 407/231/2 373/230/2
f 406/232/2 373/230/2 374/233/2
f 405/234/2 406/232/2 374/233/2
f 404/235/2 405/234/2 374/233/2
f 404/235/2 374/233/2 375/236/2
f 403/237/2 404/235/2 375/236/2
f 402/238/2 403/237/2 375/236/2
f 402/238/2 375/236/2 376/239/2
f 401/240/2 402/238/2 376/239/2
f 400/241/2 401/240/2 376/239/2
f 400/241/2 376/239/2 377/242/2
f 399/243/2 400/241/2 377/242/2
f 399/243/2 377/242/2 378/244/2
f 398/245/2 399/243/2 378/244/2
f 397/246/2 398/245/2 378/244/2
f 397/246/2 378/244/2 379/247/2
f 396/248/2 397/246/2 379/247/2
f 395/249/2 396/248/2 379/247/2
f 395/249/2 379/247/2 380/250/2
f 394/251/2 395/249/2 380/250/2
f 393/252/2 394/251/2 380/250/2
f 393/252/2 380/250/2 381/253/2
f 392/254/2 393/252/2 381/253/2
f 392/254/2 381/253/2 382/255/2
f 391/256/2 392/254/2 382/255/2
f 390/257/2 391/256/2 382/255/2
f 390/257/2 382/255/2 383/258/2
f 389/259/2 390/257/2 383/258/2
f 388/260/2 389/259/2 383/258/2
f 388/260/2 383/258/2 384/261/2
f 387/262/2 388/260/2 384/261/2
f 386/263/2 387/262/2 384/261/2
f 386/263/2 384/261/2 385/264/2
s 1
f 532/265/3 529/170/4 530/266/4
f 534/267/5 531/268/3 532/265/3
f 536/269/6 533/270/5 534/267/5
f 538/271/7 535/272/6 536/269/6
f 540/273/8 537/274/7 538/271/7
f 542/275/9 539/276/8 540/273/8
f 544/277/10 541/278/9 542/275/9
f 546/279/11 543/280/10 544/277/10
f 548/281/12 545/282/11 546/279/11
f 550/283/13 547/284/12 548/281/12
f 552/285/14 549/286/13 550/283/13
f 554/287/15 551/288/14 552/285/14
f 556/289/16 553/290/15 554/287/15
f 558/291/17 555/292/16 556/289/16
f 560/293/18 557/294/17 558/291/17
f 562/295/19 559/296/18 560/293/18
f 564/297/20 561/298/19 562/295/19
f 566/299/21 563/300/20 564/297/20
f 568/301/22 565/302/21 566/299/21
f 570/303/23 567/304/22 568/301/22
f 572/305/24 569/306/23 570/303/23
f 574/307/25 571/308/24 572/305/24
f 576/309/26 573/310/25 574/307/25
f 578/311/27 575/312/26 576/309/26
f 580/313/28 577/314/27 578/311/27
f 582/315/29 579/316/28 580/313/28
f 584/317/30 581/318/29 582/315/29
f 586/319/31 583/320/30 584/317/30
f 588/321/32 585/322/31 586/319/31
f 590/323/33 587/324/32 588/321/32
f 592/325/34 589/326/33 590/323/33
f 594/327/35 591/328/34 592/325/34
f 596/329/36 593/330/35 594/327/35
f 598/331/37 595/332/36 596/329/36
f 600/333/38 597/334/37 598/331/37
f 602/335/39 599/336/38 600/333/38
f 604/337/40 601/338/39 602/335/39
f 606/339/41 603/340/40 604/337/40
f 608/341/42 605/342/41 606/339/41
f 610/343/43 607/344/42 608/341/42
f 612/345/44 609/346/43 610/343/43
f 614/347/45 611/348/44 612/345/44
f 616/349/46 613/350/45 614/347/45
f 618/351/47 615/352/46 616/349/46
f 620/353/48 617/354/47 618/351/47
f 622/355/49 619/356/48 620/353/48
f 624/357/50 621/358/49 622/355/49
f 626/359/51 623/360/50 624/357/50
f 628/361/52 625/362/51 626/359/51
f 630/363/53 627/364/52 628/361/52
f 632/365/54 629/366/55 630/363/53
f 634/367/56 631/368/54 632/365/54
f 636/369/57 633/370/56 634/367/56
f 638/371/58 635/372/57 636/369/57
f 640/373/59 637/374/58 638/371/58
f 642/375/60 639/376/59 640/373/59
f 644/377/61 641/378/60 642/375/60
f 646/379/62 643/380/61 644/377/61
f 648/381/63 645/382/62 646/379/62
f 650/383/64 647/384/63 648/381/63
f 652/385/65 649/386/64 650/383/64
f 654/387/66 651/388/65 652/385/65
f 656/389/67 653/390/66 654/387/66
f 658/391/68 655/392/67 656/389/67
f 660/393/69 657/394/68 658/391/68
f 662/395/70 659/396/69 660/393/69
f 664/397/71 661/398/70 662/395/70
f 666/399/72 663/400/71 664/397/71
f 668/401/73 665/402/72 666/399/72
f 670/403/74 667/404/73 668/401/73
f 672/405/75 669/406/76 670/403/74
f 674/407/77 671/408/75 672/405/75
f 676/409/78 673/410/77 674/407/77
f 678/411/79 675/412/78 676/409/78
f 680/413/80 677/414/79 678/411/79
f 682/415/81 679/416/80 680/413/80
f 684/417/82 681/418/81 682/415/81
f 686/419/83 683/420/82 684/417/82
f 688/421/84 685/422/83 686/419/83
f 690/423/85 687/424/84 688/421/84
f 692/425/86 689/426/85 690/423/85
f 694/427/87 691/428/86 692/425/86
f 696/429/88 693/430/87 694/427/87
f 698/431/89 695/432/88 696/429/88
f 700/433/90 697/434/89 698/431/89
f 702/435/91 699/436/90 700/433/90
f 704/437/92 701/438/91 702/435/91
f 706/439/93 703/440/92 704/437/92
f 708/441/94 705/442/93 706/439/93
f 710/443/95 707/444/94 708/441/94
f 712/445/96 709/446/95 710/443/95
f 714/447/97 711/448/96 712/445/96
f 716/449/98 713/450/97 714/447/97
f 718/451/99 715/452/98 716/449/98
f 720/453/100 717/454/99 718/451/99
f 722/455/101 719/456/100 720/453/100
f 724/457/102 721/458/101 722/455/101
f 726/459/103 723/460/102 724/457/102
f 728/461/104 725/462/103 726/459/103
f 730/463/105 727/464/104 728/461/104
f 732/465/106 729/466/105 730/463/105
f 734/467/107 731/468/106 732/465/106
f 736/469/108 733/470/107 734/467/107
f 738/471/109 735/472/108 736/469/108
f 740/473/110 737/474/109 738/471/109
f 742/475/111 739/476/110 740/473/110
f 744/477/112 741/478/111 742/475/111
f 746/479/113 743/480/112 744/477/112
f 748/481/114 745/482/113 746/479/113
f 750/483/115 747/484/114 748/481/114
f 752/485/116 749/486/115 750/483/115
f 754/487/117 751/488/116 752/485/116
f 756/489/118 753/490/117 754/487/117
f 758/491/119 755/492/118 756/489/118
f 760/493/120 757/494/119 758/491/119
f 762/495/121 759/496/122 760/493/120
f 764/497/123 761/498/121 762/495/121
f 766/499/124 763/500/123 764/497/123
f 768/501/125 765/502/124 766/499/124
f 770/503/126 767/504/125 768/501/125
f 772/505/127 769/506/126 770/503/126
f 774/507/128 771/508/127 772/505/127
f 776/509/129 773/510/128 774/507/128
f 778/511/130 775/512/129 776/509/129
f 780/513/131 777/514/130 778/511/130
f 782/515/132 779/516/131 780/513/131
f 784/517/133 781/518/132 782/515/132
f 786/519/134 783/520/133 784/517/133
f 788/521/135 785/522/134 786/519/134
f 790/523/136 787/524/135 788/521/135
f 792/525/137 789/526/136 790/523/136
f 794/527/138 791/528/137 792/525/137
f 796/529/139 793/530/138 794/527/138
f 798/531/140 795/532/139 796/529/139
f 800/533/141 797/534/142 798/531/140
f 802/535/143 799/536/141 800/533/141
f 804/537/144 801/538/143 802/535/143
f 806/539/145 803/540/144 804/537/144
f 808/541/146 805/542/145 806/539/145
f 810/543/147 807/544/146 808/541/146
f 812/545/148 809/546/147 810/543/147
f 814/547/149 811/548/150 812/545/148
f 816/549/151 813/550/149 814/547/149
f 818/551/152 815/552/151 816/549/151
f 820/553/153 817/554/152 818/551/152
f 822/555/154 819/556/153 820/553/153
f 824/557/155 821/558/156 822/555/154
f 826/559/157 823/560/155 824/557/155
f 828/561/158 825/562/157 826/559/157
f 830/563/159 827/564/158 828/561/158
f 832/565/160 829/566/159 830/563/159
f 834/567/161 831/568/160 832/565/160
f 836/569/162 833/570/161 834/567/161
f 838/571/163 835/572/162 836/569/162
f 840/573/164 837/574/163 838/571/163
f 530/575/4 839/576/164 840/573/164
f 844/577/165 841/170/166 842/266/166
f 846/578/167 843/579/165 844/577/165
f 848/580/168 845/581/167 846/578/167
f 850/582/169 847/583/168 848/580/168
f 852/584/170 849/585/169 850/582/169
f 854/586/171 851/587/170 852/584/170
f 856/588/172 853/589/171 854/586/171
f 858/590/173 855/591/172 856/588/172
f 860/289/174 857/592/173 858/590/173
f 862/593/175 859/292/174 860/289/174
f 864/594/176 861/595/175 862/593/175
f 866/596/177 863/597/176 864/594/176
f 868/598/178 865/599/177 866/596/177
f 870/600/179 867/601/178 868/598/178
f 872/602/180 869/603/179 870/600/179
f 874/604/181 871/605/180 872/602/180
f 876/606/182 873/607/181 874/604/181
f 878/315/183 875/608/182 876/606/182
f 880/609/184 877/318/183 878/315/183
f 882/610/185 879/611/184 880/609/184
f 884/612/186 881/613/185 882/610/185
f 886/614/187 883/615/186 884/612/186
f 888/616/188 885/617/187 886/614/187
f 890/618/189 887/619/188 888/616/188
f 892/620/190 889/621/189 890/618/189
f 894/622/191 891/623/190 892/620/190
f 896/341/192 893/624/191 894/622/191
f 898/625/193 895/344/192 896/341/192
f 900/626/194 897/627/193 898/625/193
f 902/628/195 899/629/194 900/626/194
f 904/630/196 901/631/195 902/628/195
f 906/632/197 903/633/196 904/630/196
f 908/634/198 905/635/197 906/632/197
f 910/636/199 907/637/198 908/634/198
f 912/638/200 909/639/199 910/636/199
f 914/367/201 911/640/202 912/638/200
f 916/641/203 913/370/201 914/367/201
f 918/642/204 915/643/203 916/641/203
f 920/644/205 917/645/204 918/642/204
f 922/646/206 919/647/205 920/644/205
f 924/648/207 921/649/206 922/646/206
f 926/650/208 923/651/207 924/648/207
f 928/652/209 925/653/208 926/650/208
f 930/654/210 927/655/209 928/652/209
f 932/393/211 929/656/210 930/654/210
f 934/657/212 931/396/211 932/393/211
f 936/658/213 933/659/212 934/657/212
f 938/660/214 935/661/213 936/658/213
f 940/662/215 937/663/214 938/660/214
f 942/664/216 939/665/215 940/662/215
f 944/666/217 941/667/216 942/664/216
f 946/668/218 943/669/217 944/666/217
f 948/670/219 945/671/218 946/668/218
f 950/419/220 947/672/219 948/670/219
f 952/673/221 949/422/220 950/419/220
f 954/674/222 951/675/221 952/673/221
f 956/676/223 953/677/222 954/674/222
f 958/678/224 955/679/223 956/676/223
f 960/680/225 957/681/224 958/678/224
f 962/682/226 959/683/225 960/680/225
f 964/684/227 961/685/226 962/682/226
f 966/686/228 963/687/227 964/684/227
f 968/445/229 965/688/228 966/686/228
f 970/689/230 967/448/229 968/445/229
f 972/690/231 969/691/230 970/689/230
f 974/692/232 971/693/231 972/690/231
f 976/694/233 973/695/232 974/692/232
f 978/696/234 975/697/233 976/694/233
f 980/698/235 977/699/234 978/696/234
f 982/700/236 979/701/235 980/698/235
f 984/702/237 981/703/236 982/700/236
f 986/471/238 983/704/237 984/702/237
f 988/705/239 985/474/238 986/471/238
f 990/706/240 987/707/239 988/705/239
f 992/708/241 989/709/240 990/706/240
f 994/710/242 991/711/243 992/708/241
f 996/712/244 993/713/242 994/710/242
f 998/714/245 995/715/244 996/712/244
f 1000/716/246 997/717/245 998/714/245
f 1002/718/247 999/719/246 1000/716/246
f 1004/497/248 1001/720/247 1002/718/247
f 1006/721/249 1003/500/248 1004/497/248
f 1008/722/250 1005/723/249 1006/721/249
f 1010/724/251 1007/725/250 1008/722/250
f 1012/726/252 1009/727/251 1010/724/251
f 1014/728/253 1011/729/252 1012/726/252
f 1016/730/254 1013/731/253 1014/728/253
f 1018/732/255 1015/733/254 1016/730/254
f 1020/734/256 1017/735/255 1018/732/255
f 1022/523/257 1019/736/256 1020/734/256
f 1024/737/258 1021/526/257 1022/523/257
f 1026/738/259 1023/739/258 1024/737/258
f 1028/740/260 1025/741/259 1026/738/259
f 1030/742/261 1027/743/260 1028/740/260
f 1032/744/262 1029/745/261 1030/742/261
f 1034/746/263 1031/747/262 1032/744/262
f 1036/748/264 1033/749/263 1034/746/263
f 1038/750/265 1035/751/264 1036/748/264
f 1040/549/266 1037/752/265 1038/750/265
f 1042/753/267 1039/552/266 1040/549/266
f 1044/754/268 1041/755/267 1042/753/267
f 1046/756/269 1043/757/268 1044/754/268
f 1048/758/270 1045/759/269 1046/756/269
f 1050/760/271 1047/761/270 1048/758/270
f 1052/762/272 1049/763/271 1050/760/271
f 1054/764/273 1051/765/272 1052/762/272
f 1056/766/274 1053/767/273 1054/764/273
f 842/575/166 1055/768/274 1056/766/274
f 532/265/3 531/268/3 529/170/4
f 534/267/5 533/270/5 531/268/3
f 536/269/6 535/272/6 533/270/5
f 538/271/7 537/274/7 535/272/6
f 540/273/8 539/276/8 537/274/7
f 542/275/9 541/278/9 539/276/8
f 544/277/10 543/280/10 541/278/9
f 546/279/11 545/282/11 543/280/10
f 548/281/12 547/284/12 545/282/11
f 550/283/13 549/286/13 547/284/12
f 552/285/14 551/288/14 549/286/13
f 554/287/15 553/290/15 551/288/14
f 556/289/16 555/292/16 553/290/15
f 558/291/17 557/294/17 555/292/16
f 560/293/18 559/296/18 557/294/17
f 562/295/19 561/298/19 559/296/18
f 564/297/20 563/300/20 561/298/19
f 566/299/21 565/302/21 563/300/20
f 568/301/22 567/304/22 565/302/21
f 570/303/23 569/306/23 567/304/22
f 572/305/24 571/308/24 569/306/23
f 574/307/25 573/310/25 571/308/24
f 576/309/26 575/312/26 573/310/25
f 578/311/27 577/314/27 575/312/26
f 580/313/28 579/316/28 577/314/27
f 582/315/29 581/318/29 579/316/28
f 584/317/30 583/320/30 581/318/29
f 586/319/31 585/322/31 583/320/30
f 588/321/32 587/324/32 585/322/31
f 590/323/33 589/326/33 587/324/32
f 592/325/34 591/328/34 589/326/33
f 594/327/35 593/330/35 591/328/34
f 596/329/36 595/332/36 593/330/35
f 598/331/37 597/334/37 595/332/36
f 600/333/38 599/336/38 597/334/37
f 602/335/39 601/338/39 599/336/38
f 604/337/40 603/340/40 601/338/39
f 606/339/41 605/342/41 603/340/40
f 608/341/42 607/344/42 605/342/41
f 610/343/43 609/346/43 607/344/42
f 612/345/44 611/348/44 609/346/43
f 614/347/45 613/350/45 611/348/44
f 616/349/46 615/352/46 613/350/45
f 618/351/47 617/354/47 615/352/46
f 620/353/48 619/356/48 617/354/47
f 622/355/49 621/358/49 619/356/48
f 624/357/50 623/360/50 621/358/49
f 626/359/51 625/362/51 623/360/50
f 628/361/52 627/364/52 625/362/51
f 630/363/53 629/366/55 627/364/52
f 632/365/54 631/368/54 629/366/55
f 634/367/56 633/370/56 631/368/54
f 636/369/57 635/372/57 633/370/56
f 638/371/58 637/374/58 635/372/57
f 640/373/59 639/376/59 637/374/58
f 642/375/60 641/378/60 639/376/59
f 644/377/61 643/380/61 641/378/60
f 646/379/62 645/382/62 643/380/61
f 648/381/63 647/384/63 645/382/62
f 650/383/64 649/386/64 647/384/63
f 652/385/65 651/388/65 649/386/64
f 654/387/66 653/390/66 651/388/65
f 656/389/67 655/392/67 653/390/66
f 658/391/68 657/394/68 655/392/67
f 660/393/69 659/396/69 657/394/68
f 662/395/70 661/398/70 659/396/69
f 664/397/71 663/400/71 661/398/70
f 666/399/72 665/402/72 663/400/71
f 668/401/73 667/404/73 665/402/72
f 670/403/74 669/406/76 667/404/73
f 672/405/75 671/408/75 669/406/76
f 674/407/77 673/410/77 671/408/75
f 676/409/78 675/412/78 673/410/77
f 678/411/79 677/414/79 675/412/78
f 680/413/80 679/416/80 677/414/79
f 682/415/81 681/418/81 679/416/80
f 684/417/82 683/420/82 681/418/81
f 686/419/83 685/422/83 683/420/82
f 688/421/84 687/424/84 685/422/83
f 690/423/85 689/426/85 687/424/84
f 692/425/86 691/428/86 689/426/85
f 694/427/87 693/430/87 691/428/86
f 696/429/88 695/432/88 693/430/87
f 698/431/89 697/434/89 695/432/88
f 700/433/90 699/436/90 697/434/89
f 702/435/91 701/438/91 699/436/90
f 704/437/92 703/440/92 701/438/91
f 706/439/93 705/442/93 703/440/92
f 708/441/94 707/444/94 705/442/93
f 710/443/95 709/446/95 707/444/94
f 712/445/96 711/448/96 709/446/95
f 714/447/97 713/450/97 711/448/96
f 716/449/98 715/452/98 713/450/97
f 718/451/99 717/454/99 715/452/98
f 720/453/100 719/456/100 717/454/99
f 722/455/101 721/458/101 719/456/100
f 724/457/102 723/460/102 721/458/101
f 726/459/103 725/462/103 723/460/102
f 728/461/104 727/464/104 725/462/103
f 730/463/105 729/466/105 727/464/104
f 732/465/106 731/468/106 729/466/105
f 734/467/107 733/470/107 731/468/106
f 736/469/108 735/472/108 733/470/107
f 738/471/109 737/474/109 735/472/108
f 740/473/110 739/476/110 737/474/109
f 742/475/111 741/478/111 739/476/110
f 744/477/112 743/480/112 741/478/111
f 746/479/113 745/482/113 743/480/112
f 748/481/114 747/484/114 745/482/113
f 750/483/115 749/486/115 747/484/114
f 752/485/116 751/488/116 749/486/115
f 754/487/117 753/490/117 751/488/116
f 756/489/118 755/492/118 753/490/117
f 758/491/119 757/494/119 755/492/118
f 760/493/120 759/496/122 757/494/119
f 762/495/121 761/498/121 759/496/122
f 764/497/123 763/500/123 761/498/121
f 766/499/124 765/502/124 763/500/123
f 768/501/125 767/504/125 765/502/124
f 770/503/126 769/506/126 767/504/125
f 772/505/127 771/508/127 769/506/126
f 774/507/128 773/510/128 771/508/127
f 776/509/129 775/512/129 773/510/128
f 778/511/130 777/514/130 775/512/129
f 780/513/131 779/516/131 777/514/130
f 782/515/132 781/518/132 779/516/131
f 784/517/133 783/520/133 781/518/132
f 786/519/134 785/522/134 783/520/133
f 788/521/135 787/524/135 785/522/134
f 790/523/136 789/526/136 787/524/135
f 792/525/137 791/528/137 789/526/136
f 794/527/138 793/530/138 791/528/137
f 796/529/139 795/532/139 793/530/138
f 798/531/140 797/534/142 795/532/139
f 800/533/141 799/536/141 797/534/142
f 802/535/143 801/538/143 799/536/141
f 804/537/144 803/540/144 801/538/143
f 806/539/145 805/542/145 803/540/144
f 808/541/146 807/544/146 805/542/145
f 810/543/147 809/546/147 807/544/146
f 812/545/148 811/548/150 809/546/147
f 814/547/149 813/550/149 811/548/150
f 816/549/151 815/552/151 813/550/149
f 818/551/152 817/554/152 815/552/151
f 820/553/153 819/556/153 817/554/152
f 822/555/154 821/558/156 819/556/153
f 824/557/155 823/560/155 821/558/156
f 826/559/157 825/562/157 823/560/155
f 828/561/158 827/564/158 825/562/157
f 830/563/159 829/566/159 827/564/158
f 832/565/160 831/568/160 829/566/159
f 834/567/161 833/570/161 831/568/160
f 836/569/162 835/572/162 833/570/161
f 838/571/163 837/574/163 835/572/162
f 840/573/164 839/576/164 837/574/163
f 530/575/4 529/85/4 839/576/164
f 844/577/165 843/579/165 841/170/166
f 846/578/167 845/581/167 843/579/165
f 848/580/168 847/583/168 845/581/167
f 850/582/169 849/585/169 847/583/168
f 852/584/170 851/587/170 849/585/169
f 854/586/171 853/589/171 851/587/170
f 856/588/172 855/591/172 853/589/171
f 858/590/173 857/592/173 855/591/172
f 860/289/174 859/292/174 857/592/173
f 862/593/175 861/595/175 859/292/174
f 864/594/176 863/597/176 861/595/175
f 866/596/177 865/599/177 863/597/176
f 868/598/178 867/601/178 865/599/177
f 870/600/179 869/603/179 867/601/178
f 872/602/180 871/605/180 869/603/179
f 874/604/181 873/607/181 871/605/180
f 876/606/182 875/608/182 873/607/181
f 878/315/183 877/318/183 875/608/182
f 880/609/184 879/611/184 877/318/183
f 882/610/185 881/613/185 879/611/184
f 884/612/186 883/615/186 881/613/185
f 886/614/187 885/617/187 883/615/186
f 888/616/188 887/619/188 885/617/187
f 890/618/189 889/621/189 887/619/188
f 892/620/190 891/623/190 889/621/189
f 894/622/191 893/624/191 891/623/190
f 896/341/192 895/344/192 893/624/191
f 898/625/193 897/627/193 895/344/192
f 900/626/194 899/629/194 897/627/193
f 902/628/195 901/631/195 899/629/194
f 904/630/196 903/633/196 901/631/195
f 906/632/197 905/635/197 903/633/196
f 908/634/198 907/637/198 905/635/197
f 910/636/199 909/639/199 907/637/198
f 912/638/200 911/640/202 909/639/199
f 914/367/201 913/370/201 911/640/202
f 916/641/203 915/643/203 913/370/201
f 918/642/204 917/645/204 915/643/203
f 920/644/205 919/647/205 917/645/204
f 922/646/206 921/649/206 919/647/205
f 924/648/207 923/651/207 921/649/206
f 926/650/208 925/653/208 923/651/207
f 928/652/209 927/655/209 925/653/208
f 930/654/210 929/656/210 927/655/209
f 932/393/211 931/396/211 929/656/210
f 934/657/212 933/659/212 931/396/211
f 936/658/213 935/661/213 933/659/212
f 938/660/214 937/663/214 935/661/213
f 940/662/215 939/665/215 937/663/214
f 942/664/216 941/667/216 939/665/215
f 944/666/217 943/669/217 941/667/216
f 946/668/218 945/671/218 943/669/217
f 948/670/219 947/672/219 945/671/218
f 950/419/220 949/422/220 947/672/219
f 952/673/221 951/675/221 949/422/220
f 954/674/222 953/677/222 951/675/221
f 956/676/223 955/679/223 953/677/222
f 958/678/224 957/681/224 955/679/223
f 960/680/225 959/683/225 957/681/224
f 962/682/226 961/685/226 959/683/225
f 964/684/227 963/687/227 961/685/226
f 966/686/228 965/688/228 963/687/227
f 968/445/229 967/448/229 965/688/228
f 970/689/230 969/691/230 967/448/229
f 972/690/231 971/693/231 969/691/230
f 974/692/232 973/695/232 971/693/231
f 976/694/233 975/697/233 973/695/232
f 978/696/234 977/699/234 975/697/233
f 980/698/235 979/701/235 977/699/234
f 982/700/236 981/703/236 979/701/235
f 984/702/237 983/704/237 981/703/236
f 986/471/238 985/474/238 983/704/237
f 988/705/239 987/707/239 985/474/238
f 990/706/240 989/709/240 987/707/239
f 992/708/241 991/711/243 989/709/240
f 994/710/242 993/713/242 991/711/243
f 996/712/244 995/715/244 993/713/242
f 998/714/245 997/717/245 995/715/244
f 1000/716/246 999/719/246 997/717/245
f 1002/718/247 1001/720/247 999/719/246
f 1004/497/248 1003/500/248 1001/720/247
f 1006/721/249 1005/723/249 1003/500/248
f 1008/722/250 1007/725/250 1005/723/249
f 1010/724/251 1009/727/251 1007/725/250
f 1012/726/252 1011/729/252 1009/727/251
f 1014/728/253 1013/731/253 1011/729/252
f 1016/730/254 1015/733/254 1013/731/253
f 1018/732/255 1017/735/255 1015/733/254
f 1020/734/256 1019/736/256 1017/735/255
f 1022/523/257 1021/526/257 1019/736/256
f 1024/737/258 1023/739/258 1021/526/257
f 1026/738/259 1025/741/259 1023/739/258
f 1028/740/260 1027/743/260 1025/741/259
f 1030/742/261 1029/745/261 1027/743/260
f 1032/744/262 1031/747/262 1029/745/261
f 1034/746/263 1033/749/263 1031/747/262
f 1036/748/264 1035/751/264 1033/749/263
f 1038/750/265 1037/752/265 1035/751/264
f 1040/549/266 1039/552/266 1037/752/265
f 1042/753/267 1041/755/267 1039/552/266
f 1044/754/268 1043/757/268 1041/755/267
f 1046/756/269 1045/759/269 1043/757/268
f 1048/758/270 1047/761/270 1045/759/269
f 1050/760/271 1049/763/271 1047/761/270
f 1052/762/272 1051/765/272 1049/763/271
f 1054/764/273 1053/767/273 1051/765/272
f 1056/766/274 1055/768/274 1053/767/273
f 842/575/166 841/85/166 1055/768/274
