# Blender 4.4.1
# www.blender.org
mtllib 1.mtl
o テキスト
v -0.004566 0.239199 0.010000
v 0.113804 0.239199 0.010000
v 0.113804 -0.284510 0.010000
v -0.030910 -0.284510 0.010000
v -0.030910 0.058658 0.010000
v -0.036748 0.054280 0.010000
v -0.042555 0.050043 0.010000
v -0.048329 0.045947 0.010000
v -0.054073 0.041994 0.010000
v -0.059784 0.038181 0.010000
v -0.065464 0.034510 0.010000
v -0.071112 0.030980 0.010000
v -0.076728 0.027592 0.010000
v -0.082313 0.024346 0.010000
v -0.087865 0.021241 0.010000
v -0.093387 0.018277 0.010000
v -0.098876 0.015455 0.010000
v -0.104465 0.012713 0.010000
v -0.110287 0.009991 0.010000
v -0.116340 0.007288 0.010000
v -0.122624 0.004605 0.010000
v -0.129141 0.001942 0.010000
v -0.135889 -0.000702 0.010000
v -0.142868 -0.003327 0.010000
v -0.150080 -0.005932 0.010000
v -0.157523 -0.008518 0.010000
v -0.165198 -0.011084 0.010000
v -0.173105 -0.013630 0.010000
v -0.181243 -0.016157 0.010000
v -0.181243 0.101159 0.010000
v -0.169294 0.105147 0.010000
v -0.157798 0.109267 0.010000
v -0.146755 0.113519 0.010000
v -0.136167 0.117902 0.010000
v -0.126032 0.122417 0.010000
v -0.116351 0.127064 0.010000
v -0.107123 0.131842 0.010000
v -0.098349 0.136752 0.010000
v -0.090029 0.141794 0.010000
v -0.082163 0.146968 0.010000
v -0.074750 0.152273 0.010000
v -0.067791 0.157710 0.010000
v -0.061180 0.163320 0.010000
v -0.054814 0.169145 0.010000
v -0.048692 0.175184 0.010000
v -0.042813 0.181439 0.010000
v -0.037179 0.187907 0.010000
v -0.031788 0.194591 0.010000
v -0.026641 0.201489 0.010000
v -0.021738 0.208602 0.010000
v -0.017079 0.215929 0.010000
v -0.012664 0.223471 0.010000
v -0.008493 0.231228 0.010000
v -0.004566 0.239199 -0.010000
v 0.113804 0.239199 -0.010000
v 0.113804 -0.284510 -0.010000
v -0.030910 -0.284510 -0.010000
v -0.030910 0.058658 -0.010000
v -0.036748 0.054280 -0.010000
v -0.042555 0.050043 -0.010000
v -0.048329 0.045947 -0.010000
v -0.054073 0.041994 -0.010000
v -0.059784 0.038181 -0.010000
v -0.065464 0.034510 -0.010000
v -0.071112 0.030980 -0.010000
v -0.076728 0.027592 -0.010000
v -0.082313 0.024346 -0.010000
v -0.087865 0.021241 -0.010000
v -0.093387 0.018277 -0.010000
v -0.098876 0.015455 -0.010000
v -0.104465 0.012713 -0.010000
v -0.110287 0.009991 -0.010000
v -0.116340 0.007288 -0.010000
v -0.122624 0.004605 -0.010000
v -0.129141 0.001942 -0.010000
v -0.135889 -0.000702 -0.010000
v -0.142868 -0.003327 -0.010000
v -0.150080 -0.005932 -0.010000
v -0.157523 -0.008518 -0.010000
v -0.165198 -0.011084 -0.010000
v -0.173105 -0.013630 -0.010000
v -0.181243 -0.016157 -0.010000
v -0.181243 0.101159 -0.010000
v -0.169294 0.105147 -0.010000
v -0.157798 0.109267 -0.010000
v -0.146755 0.113519 -0.010000
v -0.136167 0.117902 -0.010000
v -0.126032 0.122417 -0.010000
v -0.116351 0.127064 -0.010000
v -0.107123 0.131842 -0.010000
v -0.098349 0.136752 -0.010000
v -0.090029 0.141794 -0.010000
v -0.082163 0.146968 -0.010000
v -0.074750 0.152273 -0.010000
v -0.067791 0.157710 -0.010000
v -0.061180 0.163320 -0.010000
v -0.054814 0.169145 -0.010000
v -0.048692 0.175184 -0.010000
v -0.042813 0.181439 -0.010000
v -0.037179 0.187907 -0.010000
v -0.031788 0.194591 -0.010000
v -0.026641 0.201489 -0.010000
v -0.021738 0.208602 -0.010000
v -0.017079 0.215929 -0.010000
v -0.012664 0.223471 -0.010000
v -0.008493 0.231228 -0.010000
v -0.004566 0.239199 -0.010000
v -0.004566 0.239199 0.010000
v 0.113804 0.239199 -0.010000
v 0.113804 0.239199 0.010000
v 0.113804 -0.284510 -0.010000
v 0.113804 -0.284510 0.010000
v -0.030910 -0.284510 -0.010000
v -0.030910 -0.284510 0.010000
v -0.030910 0.058658 -0.010000
v -0.030910 0.058658 0.010000
v -0.036748 0.054280 -0.010000
v -0.036748 0.054280 0.010000
v -0.042555 0.050043 -0.010000
v -0.042555 0.050043 0.010000
v -0.048329 0.045947 -0.010000
v -0.048329 0.045947 0.010000
v -0.054073 0.041994 -0.010000
v -0.054073 0.041994 0.010000
v -0.059784 0.038181 -0.010000
v -0.059784 0.038181 0.010000
v -0.065464 0.034510 -0.010000
v -0.065464 0.034510 0.010000
v -0.071112 0.030980 -0.010000
v -0.071112 0.030980 0.010000
v -0.076728 0.027592 -0.010000
v -0.076728 0.027592 0.010000
v -0.082313 0.024346 -0.010000
v -0.082313 0.024346 0.010000
v -0.087865 0.021241 -0.010000
v -0.087865 0.021241 0.010000
v -0.093387 0.018277 -0.010000
v -0.093387 0.018277 0.010000
v -0.098876 0.015455 -0.010000
v -0.098876 0.015455 0.010000
v -0.104465 0.012713 -0.010000
v -0.104465 0.012713 0.010000
v -0.110287 0.009991 -0.010000
v -0.110287 0.009991 0.010000
v -0.116340 0.007288 -0.010000
v -0.116340 0.007288 0.010000
v -0.122624 0.004605 -0.010000
v -0.122624 0.004605 0.010000
v -0.129141 0.001942 -0.010000
v -0.129141 0.001942 0.010000
v -0.135889 -0.000702 -0.010000
v -0.135889 -0.000702 0.010000
v -0.142868 -0.003327 -0.010000
v -0.142868 -0.003327 0.010000
v -0.150080 -0.005932 -0.010000
v -0.150080 -0.005932 0.010000
v -0.157523 -0.008518 -0.010000
v -0.157523 -0.008518 0.010000
v -0.165198 -0.011084 -0.010000
v -0.165198 -0.011084 0.010000
v -0.173105 -0.013630 -0.010000
v -0.173105 -0.013630 0.010000
v -0.181243 -0.016157 -0.010000
v -0.181243 -0.016157 0.010000
v -0.181243 0.101159 -0.010000
v -0.181243 0.101159 0.010000
v -0.169294 0.105147 -0.010000
v -0.169294 0.105147 0.010000
v -0.157798 0.109267 -0.010000
v -0.157798 0.109267 0.010000
v -0.146755 0.113519 -0.010000
v -0.146755 0.113519 0.010000
v -0.136167 0.117902 -0.010000
v -0.136167 0.117902 0.010000
v -0.126032 0.122417 -0.010000
v -0.126032 0.122417 0.010000
v -0.116351 0.127064 -0.010000
v -0.116351 0.127064 0.010000
v -0.107123 0.131842 -0.010000
v -0.107123 0.131842 0.010000
v -0.098349 0.136752 -0.010000
v -0.098349 0.136752 0.010000
v -0.090029 0.141794 -0.010000
v -0.090029 0.141794 0.010000
v -0.082163 0.146968 -0.010000
v -0.082163 0.146968 0.010000
v -0.074750 0.152273 -0.010000
v -0.074750 0.152273 0.010000
v -0.067791 0.157710 -0.010000
v -0.067791 0.157710 0.010000
v -0.061180 0.163320 -0.010000
v -0.061180 0.163320 0.010000
v -0.054814 0.169145 -0.010000
v -0.054814 0.169145 0.010000
v -0.048692 0.175184 -0.010000
v -0.048692 0.175184 0.010000
v -0.042813 0.181439 -0.010000
v -0.042813 0.181439 0.010000
v -0.037179 0.187907 -0.010000
v -0.037179 0.187907 0.010000
v -0.031788 0.194591 -0.010000
v -0.031788 0.194591 0.010000
v -0.026641 0.201489 -0.010000
v -0.026641 0.201489 0.010000
v -0.021738 0.208602 -0.010000
v -0.021738 0.208602 0.010000
v -0.017079 0.215929 -0.010000
v -0.017079 0.215929 0.010000
v -0.012664 0.223471 -0.010000
v -0.012664 0.223471 0.010000
v -0.008493 0.231228 -0.010000
v -0.008493 0.231228 0.010000
vn -0.0000 -0.0000 1.0000
vn -0.0000 -0.0000 -1.0000
vn 0.7071 0.7071 -0.0000
vn -0.5282 0.8491 -0.0000
vn 0.7071 -0.7071 -0.0000
vn -0.7071 -0.7071 -0.0000
vn -0.4472 -0.8944 -0.0000
vn 0.5947 -0.8039 -0.0000
vn -0.4473 -0.8944 -0.0000
vn 0.5840 -0.8118 -0.0000
vn 0.5728 -0.8197 -0.0000
vn 0.5611 -0.8277 -0.0000
vn 0.5490 -0.8358 -0.0000
vn 0.5364 -0.8440 -0.0000
vn 0.5233 -0.8522 -0.0000
vn 0.5096 -0.8604 -0.0000
vn 0.4953 -0.8687 -0.0000
vn 0.4805 -0.8770 -0.0000
vn 0.4651 -0.8853 -0.0000
vn 0.4488 -0.8936 -0.0000
vn 0.4320 -0.9019 -0.0000
vn 0.4157 -0.9095 -0.0000
vn 0.4002 -0.9164 -0.0000
vn 0.3855 -0.9227 -0.0000
vn 0.3716 -0.9284 -0.0000
vn 0.3584 -0.9336 -0.0000
vn 0.3459 -0.9383 -0.0000
vn 0.3339 -0.9426 -0.0000
vn 0.3226 -0.9465 -0.0000
vn 0.3340 -0.9426 -0.0000
vn 0.3118 -0.9501 -0.0000
vn 0.3016 -0.9534 -0.0000
vn -0.5931 -0.8051 -0.0000
vn -0.8113 0.5846 -0.0000
vn -0.5931 -0.8052 -0.0000
vn -0.3270 0.9450 -0.0000
vn -0.3484 0.9374 -0.0000
vn -0.3709 0.9287 -0.0000
vn -0.3947 0.9188 -0.0000
vn -0.4199 0.9076 -0.0000
vn -0.4463 0.8949 -0.0000
vn -0.4742 0.8804 -0.0000
vn -0.5034 0.8641 -0.0000
vn -0.5340 0.8455 -0.0000
vn -0.5659 0.8245 -0.0000
vn -0.5990 0.8008 -0.0000
vn -0.6315 0.7754 -0.0000
vn -0.6612 0.7502 -0.0000
vn -0.6888 0.7250 -0.0000
vn -0.7156 0.6985 -0.0000
vn -0.7415 0.6710 -0.0000
vn -0.7663 0.6424 -0.0000
vn -0.7901 0.6130 -0.0000
vn -0.8126 0.5829 -0.0000
vn -0.8338 0.5521 -0.0000
vn -0.8536 0.5210 -0.0000
vn -0.8720 0.4895 -0.0000
vn -0.8890 0.4578 -0.0000
vt 1.000000 0.000000
vt 0.019231 0.000000
vt 0.000000 0.000000
vt 0.038462 0.000000
vt 0.980769 0.000000
vt 0.961538 0.000000
vt 0.942308 0.000000
vt 0.923077 0.000000
vt 0.903846 0.000000
vt 0.884615 0.000000
vt 0.865385 0.000000
vt 0.846154 0.000000
vt 0.826923 0.000000
vt 0.807692 0.000000
vt 0.788462 0.000000
vt 0.769231 0.000000
vt 0.076923 0.000000
vt 0.750000 0.000000
vt 0.730769 0.000000
vt 0.711538 0.000000
vt 0.692308 0.000000
vt 0.673077 0.000000
vt 0.653846 0.000000
vt 0.634615 0.000000
vt 0.615385 0.000000
vt 0.596154 0.000000
vt 0.576923 0.000000
vt 0.557692 0.000000
vt 0.538462 0.000000
vt 0.096154 0.000000
vt 0.057692 0.000000
vt 0.115385 0.000000
vt 0.134615 0.000000
vt 0.153846 0.000000
vt 0.173077 0.000000
vt 0.192308 0.000000
vt 0.211538 0.000000
vt 0.230769 0.000000
vt 0.250000 0.000000
vt 0.269231 0.000000
vt 0.288462 0.000000
vt 0.307692 0.000000
vt 0.326923 0.000000
vt 0.346154 0.000000
vt 0.365385 0.000000
vt 0.384615 0.000000
vt 0.403846 0.000000
vt 0.423077 0.000000
vt 0.442308 0.000000
vt 0.461538 0.000000
vt 0.480769 0.000000
vt 0.500000 0.000000
vt 0.519231 0.000000
vt 0.018868 1.000000
vt 0.000000 1.000000
vt 0.037736 1.000000
vt 0.018868 0.000000
vt 0.056604 1.000000
vt 0.037736 0.000000
vt 0.075472 1.000000
vt 0.056604 0.000000
vt 0.094340 1.000000
vt 0.075472 0.000000
vt 0.113208 1.000000
vt 0.094340 0.000000
vt 0.132075 1.000000
vt 0.113208 0.000000
vt 0.150943 1.000000
vt 0.132075 0.000000
vt 0.169811 1.000000
vt 0.150943 0.000000
vt 0.188679 1.000000
vt 0.169811 0.000000
vt 0.207547 1.000000
vt 0.188679 0.000000
vt 0.226415 1.000000
vt 0.207547 0.000000
vt 0.245283 1.000000
vt 0.226415 0.000000
vt 0.264151 1.000000
vt 0.245283 0.000000
vt 0.283019 1.000000
vt 0.264151 0.000000
vt 0.301887 1.000000
vt 0.283019 0.000000
vt 0.320755 1.000000
vt 0.301887 0.000000
vt 0.339623 1.000000
vt 0.320755 0.000000
vt 0.358491 1.000000
vt 0.339623 0.000000
vt 0.377358 1.000000
vt 0.358491 0.000000
vt 0.396226 1.000000
vt 0.377358 0.000000
vt 0.415094 1.000000
vt 0.396226 0.000000
vt 0.433962 1.000000
vt 0.415094 0.000000
vt 0.452830 1.000000
vt 0.433962 0.000000
vt 0.471698 1.000000
vt 0.452830 0.000000
vt 0.490566 1.000000
vt 0.471698 0.000000
vt 0.509434 1.000000
vt 0.490566 0.000000
vt 0.528302 1.000000
vt 0.509434 0.000000
vt 0.547170 1.000000
vt 0.528302 0.000000
vt 0.566038 1.000000
vt 0.547170 0.000000
vt 0.584906 1.000000
vt 0.566038 0.000000
vt 0.603774 1.000000
vt 0.584906 0.000000
vt 0.622642 1.000000
vt 0.603774 0.000000
vt 0.641509 1.000000
vt 0.622642 0.000000
vt 0.660377 1.000000
vt 0.641509 0.000000
vt 0.679245 1.000000
vt 0.660377 0.000000
vt 0.698113 1.000000
vt 0.679245 0.000000
vt 0.716981 1.000000
vt 0.698113 0.000000
vt 0.735849 1.000000
vt 0.716981 0.000000
vt 0.754717 1.000000
vt 0.735849 0.000000
vt 0.773585 1.000000
vt 0.754717 0.000000
vt 0.792453 1.000000
vt 0.773585 0.000000
vt 0.811321 1.000000
vt 0.792453 0.000000
vt 0.830189 1.000000
vt 0.811321 0.000000
vt 0.849057 1.000000
vt 0.830189 0.000000
vt 0.867925 1.000000
vt 0.849057 0.000000
vt 0.886792 1.000000
vt 0.867925 0.000000
vt 0.905660 1.000000
vt 0.886792 0.000000
vt 0.924528 1.000000
vt 0.905660 0.000000
vt 0.943396 1.000000
vt 0.924528 0.000000
vt 0.962264 1.000000
vt 0.943396 0.000000
vt 0.981132 1.000000
vt 0.962264 0.000000
vt 1.000000 1.000000
vt 0.981132 0.000000
s 0
usemtl マテリアル
f 53/1/1 2/2/1 1/3/1
f 53/1/1 3/4/1 2/2/1
f 52/5/1 3/4/1 53/1/1
f 51/6/1 3/4/1 52/5/1
f 50/7/1 3/4/1 51/6/1
f 49/8/1 3/4/1 50/7/1
f 48/9/1 3/4/1 49/8/1
f 47/10/1 3/4/1 48/9/1
f 46/11/1 3/4/1 47/10/1
f 45/12/1 3/4/1 46/11/1
f 44/13/1 3/4/1 45/12/1
f 43/14/1 3/4/1 44/13/1
f 42/15/1 3/4/1 43/14/1
f 41/16/1 5/17/1 42/15/1
f 5/17/1 3/4/1 42/15/1
f 40/18/1 5/17/1 41/16/1
f 39/19/1 5/17/1 40/18/1
f 38/20/1 5/17/1 39/19/1
f 37/21/1 5/17/1 38/20/1
f 36/22/1 5/17/1 37/21/1
f 35/23/1 5/17/1 36/22/1
f 34/24/1 5/17/1 35/23/1
f 33/25/1 5/17/1 34/24/1
f 32/26/1 5/17/1 33/25/1
f 31/27/1 5/17/1 32/26/1
f 30/28/1 5/17/1 31/27/1
f 29/29/1 5/17/1 30/28/1
f 29/29/1 6/30/1 5/17/1
f 4/31/1 3/4/1 5/17/1
f 29/29/1 7/32/1 6/30/1
f 29/29/1 8/33/1 7/32/1
f 29/29/1 9/34/1 8/33/1
f 29/29/1 10/35/1 9/34/1
f 29/29/1 11/36/1 10/35/1
f 29/29/1 12/37/1 11/36/1
f 29/29/1 13/38/1 12/37/1
f 29/29/1 14/39/1 13/38/1
f 29/29/1 15/40/1 14/39/1
f 29/29/1 16/41/1 15/40/1
f 29/29/1 17/42/1 16/41/1
f 29/29/1 18/43/1 17/42/1
f 29/29/1 19/44/1 18/43/1
f 29/29/1 20/45/1 19/44/1
f 29/29/1 21/46/1 20/45/1
f 29/29/1 22/47/1 21/46/1
f 29/29/1 23/48/1 22/47/1
f 29/29/1 24/49/1 23/48/1
f 29/29/1 25/50/1 24/49/1
f 29/29/1 26/51/1 25/50/1
f 29/29/1 27/52/1 26/51/1
f 29/29/1 28/53/1 27/52/1
f 106/1/2 54/3/2 55/2/2
f 106/1/2 55/2/2 56/4/2
f 105/5/2 106/1/2 56/4/2
f 104/6/2 105/5/2 56/4/2
f 103/7/2 104/6/2 56/4/2
f 102/8/2 103/7/2 56/4/2
f 101/9/2 102/8/2 56/4/2
f 100/10/2 101/9/2 56/4/2
f 99/11/2 100/10/2 56/4/2
f 98/12/2 99/11/2 56/4/2
f 97/13/2 98/12/2 56/4/2
f 96/14/2 97/13/2 56/4/2
f 95/15/2 96/14/2 56/4/2
f 94/16/2 95/15/2 58/17/2
f 58/17/2 95/15/2 56/4/2
f 93/18/2 94/16/2 58/17/2
f 92/19/2 93/18/2 58/17/2
f 91/20/2 92/19/2 58/17/2
f 90/21/2 91/20/2 58/17/2
f 89/22/2 90/21/2 58/17/2
f 88/23/2 89/22/2 58/17/2
f 87/24/2 88/23/2 58/17/2
f 86/25/2 87/24/2 58/17/2
f 85/26/2 86/25/2 58/17/2
f 84/27/2 85/26/2 58/17/2
f 83/28/2 84/27/2 58/17/2
f 82/29/2 83/28/2 58/17/2
f 82/29/2 58/17/2 59/30/2
f 57/31/2 58/17/2 56/4/2
f 82/29/2 59/30/2 60/32/2
f 82/29/2 60/32/2 61/33/2
f 82/29/2 61/33/2 62/34/2
f 82/29/2 62/34/2 63/35/2
f 82/29/2 63/35/2 64/36/2
f 82/29/2 64/36/2 65/37/2
f 82/29/2 65/37/2 66/38/2
f 82/29/2 66/38/2 67/39/2
f 82/29/2 67/39/2 68/40/2
f 82/29/2 68/40/2 69/41/2
f 82/29/2 69/41/2 70/42/2
f 82/29/2 70/42/2 71/43/2
f 82/29/2 71/43/2 72/44/2
f 82/29/2 72/44/2 73/45/2
f 82/29/2 73/45/2 74/46/2
f 82/29/2 74/46/2 75/47/2
f 82/29/2 75/47/2 76/48/2
f 82/29/2 76/48/2 77/49/2
f 82/29/2 77/49/2 78/50/2
f 82/29/2 78/50/2 79/51/2
f 82/29/2 79/51/2 80/52/2
f 82/29/2 80/52/2 81/53/2
s 1
f 110/54/3 107/3/4 108/55/4
f 112/56/5 109/57/3 110/54/3
f 114/58/6 111/59/5 112/56/5
f 116/60/7 113/61/6 114/58/6
f 118/62/8 115/63/9 116/60/7
f 120/64/10 117/65/8 118/62/8
f 122/66/11 119/67/10 120/64/10
f 124/68/12 121/69/11 122/66/11
f 126/70/13 123/71/12 124/68/12
f 128/72/14 125/73/13 126/70/13
f 130/74/15 127/75/14 128/72/14
f 132/76/16 129/77/15 130/74/15
f 134/78/17 131/79/16 132/76/16
f 136/80/18 133/81/17 134/78/17
f 138/82/19 135/83/18 136/80/18
f 140/84/20 137/85/19 138/82/19
f 142/86/21 139/87/20 140/84/20
f 144/88/22 141/89/21 142/86/21
f 146/90/23 143/91/22 144/88/22
f 148/92/24 145/93/23 146/90/23
f 150/94/25 147/95/24 148/92/24
f 152/96/26 149/97/25 150/94/25
f 154/98/27 151/99/26 152/96/26
f 156/100/28 153/101/27 154/98/27
f 158/102/29 155/103/30 156/100/28
f 160/104/31 157/105/29 158/102/29
f 162/106/32 159/107/31 160/104/31
f 164/108/33 161/109/32 162/106/32
f 166/110/34 163/111/35 164/108/33
f 168/112/36 165/113/34 166/110/34
f 170/114/37 167/115/36 168/112/36
f 172/116/38 169/117/37 170/114/37
f 174/118/39 171/119/38 172/116/38
f 176/120/40 173/121/39 174/118/39
f 178/122/41 175/123/40 176/120/40
f 180/124/42 177/125/41 178/122/41
f 182/126/43 179/127/42 180/124/42
f 184/128/44 181/129/43 182/126/43
f 186/130/45 183/131/44 184/128/44
f 188/132/46 185/133/45 186/130/45
f 190/134/47 187/135/46 188/132/46
f 192/136/48 189/137/47 190/134/47
f 194/138/49 191/139/48 192/136/48
f 196/140/50 193/141/49 194/138/49
f 198/142/51 195/143/50 196/140/50
f 200/144/52 197/145/51 198/142/51
f 202/146/53 199/147/52 200/144/52
f 204/148/54 201/149/53 202/146/53
f 206/150/55 203/151/54 204/148/54
f 208/152/56 205/153/55 206/150/55
f 210/154/57 207/155/56 208/152/56
f 212/156/58 209/157/57 210/154/57
f 108/158/4 211/159/58 212/156/58
f 110/54/3 109/57/3 107/3/4
f 112/56/5 111/59/5 109/57/3
f 114/58/6 113/61/6 111/59/5
f 116/60/7 115/63/9 113/61/6
f 118/62/8 117/65/8 115/63/9
f 120/64/10 119/67/10 117/65/8
f 122/66/11 121/69/11 119/67/10
f 124/68/12 123/71/12 121/69/11
f 126/70/13 125/73/13 123/71/12
f 128/72/14 127/75/14 125/73/13
f 130/74/15 129/77/15 127/75/14
f 132/76/16 131/79/16 129/77/15
f 134/78/17 133/81/17 131/79/16
f 136/80/18 135/83/18 133/81/17
f 138/82/19 137/85/19 135/83/18
f 140/84/20 139/87/20 137/85/19
f 142/86/21 141/89/21 139/87/20
f 144/88/22 143/91/22 141/89/21
f 146/90/23 145/93/23 143/91/22
f 148/92/24 147/95/24 145/93/23
f 150/94/25 149/97/25 147/95/24
f 152/96/26 151/99/26 149/97/25
f 154/98/27 153/101/27 151/99/26
f 156/100/28 155/103/30 153/101/27
f 158/102/29 157/105/29 155/103/30
f 160/104/31 159/107/31 157/105/29
f 162/106/32 161/109/32 159/107/31
f 164/108/33 163/111/35 161/109/32
f 166/110/34 165/113/34 163/111/35
f 168/112/36 167/115/36 165/113/34
f 170/114/37 169/117/37 167/115/36
f 172/116/38 171/119/38 169/117/37
f 174/118/39 173/121/39 171/119/38
f 176/120/40 175/123/40 173/121/39
f 178/122/41 177/125/41 175/123/40
f 180/124/42 179/127/42 177/125/41
f 182/126/43 181/129/43 179/127/42
f 184/128/44 183/131/44 181/129/43
f 186/130/45 185/133/45 183/131/44
f 188/132/46 187/135/46 185/133/45
f 190/134/47 189/137/47 187/135/46
f 192/136/48 191/139/48 189/137/47
f 194/138/49 193/141/49 191/139/48
f 196/140/50 195/143/50 193/141/49
f 198/142/51 197/145/51 195/143/50
f 200/144/52 199/147/52 197/145/51
f 202/146/53 201/149/53 199/147/52
f 204/148/54 203/151/54 201/149/53
f 206/150/55 205/153/55 203/151/54
f 208/152/56 207/155/56 205/153/55
f 210/154/57 209/157/57 207/155/56
f 212/156/58 211/159/58 209/157/57
f 108/158/4 107/1/4 211/159/58
