# Blender 4.4.1
# www.blender.org
mtllib 2.mtl
o テキスト
v 0.208289 -0.167896 0.010000
v 0.208289 -0.284510 0.010000
v -0.220934 -0.284510 0.010000
v -0.219496 -0.273967 0.010000
v -0.217641 -0.263528 0.010000
v -0.215369 -0.253194 0.010000
v -0.212680 -0.242965 0.010000
v -0.209574 -0.232841 0.010000
v -0.206050 -0.222822 0.010000
v -0.202110 -0.212908 0.010000
v -0.197752 -0.203099 0.010000
v -0.192977 -0.193394 0.010000
v -0.187785 -0.183795 0.010000
v -0.182176 -0.174300 0.010000
v -0.176150 -0.164910 0.010000
v -0.169461 -0.155433 0.010000
v -0.161861 -0.145675 0.010000
v -0.153352 -0.135636 0.010000
v -0.143933 -0.125317 0.010000
v -0.133604 -0.114717 0.010000
v -0.122366 -0.103837 0.010000
v -0.110217 -0.092677 0.010000
v -0.097159 -0.081236 0.010000
v -0.083191 -0.069514 0.010000
v -0.068313 -0.057512 0.010000
v -0.052525 -0.045229 0.010000
v -0.035827 -0.032666 0.010000
v -0.025663 -0.025036 0.010000
v -0.016128 -0.017718 0.010000
v -0.007223 -0.010713 0.010000
v 0.001054 -0.004020 0.010000
v 0.008701 0.002361 0.010000
v 0.015718 0.008430 0.010000
v 0.022107 0.014186 0.010000
v 0.027866 0.019631 0.010000
v 0.032995 0.024763 0.010000
v 0.037496 0.029583 0.010000
v 0.041367 0.034090 0.010000
v 0.044608 0.038286 0.010000
v 0.047413 0.042308 0.010000
v 0.049975 0.046296 0.010000
v 0.052292 0.050250 0.010000
v 0.054365 0.054170 0.010000
v 0.056195 0.058056 0.010000
v 0.057780 0.061907 0.010000
v 0.059122 0.065725 0.010000
v 0.060219 0.069508 0.010000
v 0.061073 0.073257 0.010000
v 0.061683 0.076972 0.010000
v 0.062049 0.080653 0.010000
v 0.062171 0.084299 0.010000
v 0.062050 0.088174 0.010000
v 0.061688 0.091954 0.010000
v 0.061084 0.095638 0.010000
v 0.060239 0.099227 0.010000
v 0.059152 0.102721 0.010000
v 0.057824 0.106120 0.010000
v 0.056254 0.109424 0.010000
v 0.054443 0.112633 0.010000
v 0.052391 0.115747 0.010000
v 0.050097 0.118765 0.010000
v 0.047561 0.121689 0.010000
v 0.044784 0.124517 0.010000
v 0.041824 0.127182 0.010000
v 0.038740 0.129615 0.010000
v 0.035531 0.131816 0.010000
v 0.032198 0.133786 0.010000
v 0.028740 0.135524 0.010000
v 0.025158 0.137030 0.010000
v 0.021452 0.138305 0.010000
v 0.017621 0.139347 0.010000
v 0.013666 0.140159 0.010000
v 0.009586 0.140738 0.010000
v 0.005382 0.141085 0.010000
v 0.001054 0.141201 0.010000
v -0.003443 0.141082 0.010000
v -0.007801 0.140723 0.010000
v -0.012019 0.140126 0.010000
v -0.016099 0.139289 0.010000
v -0.020039 0.138213 0.010000
v -0.023841 0.136898 0.010000
v -0.027503 0.135345 0.010000
v -0.031027 0.133552 0.010000
v -0.034411 0.131520 0.010000
v -0.037657 0.129249 0.010000
v -0.040763 0.126739 0.010000
v -0.043730 0.123990 0.010000
v -0.046549 0.120939 0.010000
v -0.049209 0.117521 0.010000
v -0.051710 0.113738 0.010000
v -0.054053 0.109589 0.010000
v -0.056237 0.105074 0.010000
v -0.058263 0.100193 0.010000
v -0.060130 0.094946 0.010000
v -0.061839 0.089334 0.010000
v -0.063389 0.083355 0.010000
v -0.064781 0.077011 0.010000
v -0.066014 0.070301 0.010000
v -0.067088 0.063224 0.010000
v -0.210397 0.074816 0.010000
v -0.208894 0.084701 0.010000
v -0.207197 0.094217 0.010000
v -0.205304 0.103365 0.010000
v -0.203216 0.112145 0.010000
v -0.200933 0.120557 0.010000
v -0.198455 0.128600 0.010000
v -0.195781 0.136275 0.010000
v -0.192913 0.143582 0.010000
v -0.189849 0.150520 0.010000
v -0.186590 0.157090 0.010000
v -0.183136 0.163292 0.010000
v -0.179487 0.169125 0.010000
v -0.175612 0.174665 0.010000
v -0.171482 0.179985 0.010000
v -0.167095 0.185085 0.010000
v -0.162452 0.189966 0.010000
v -0.157553 0.194627 0.010000
v -0.152397 0.199069 0.010000
v -0.146986 0.203291 0.010000
v -0.141318 0.207294 0.010000
v -0.135395 0.211077 0.010000
v -0.129215 0.214641 0.010000
v -0.122779 0.217985 0.010000
v -0.116087 0.221110 0.010000
v -0.109049 0.223999 0.010000
v -0.101574 0.226637 0.010000
v -0.093662 0.229024 0.010000
v -0.085314 0.231160 0.010000
v -0.076529 0.233044 0.010000
v -0.067308 0.234677 0.010000
v -0.057650 0.236059 0.010000
v -0.047555 0.237189 0.010000
v -0.037024 0.238069 0.010000
v -0.026056 0.238697 0.010000
v -0.014651 0.239074 0.010000
v -0.002810 0.239199 0.010000
v 0.009543 0.239080 0.010000
v 0.021431 0.238721 0.010000
v 0.032853 0.238123 0.010000
v 0.043808 0.237287 0.010000
v 0.054298 0.236211 0.010000
v 0.064322 0.234896 0.010000
v 0.073880 0.233343 0.010000
v 0.082972 0.231550 0.010000
v 0.091599 0.229518 0.010000
v 0.099759 0.227247 0.010000
v 0.107454 0.224737 0.010000
v 0.114682 0.221988 0.010000
v 0.121553 0.218992 0.010000
v 0.128176 0.215739 0.010000
v 0.134550 0.212230 0.010000
v 0.140674 0.208465 0.010000
v 0.146550 0.204444 0.010000
v 0.152178 0.200167 0.010000
v 0.157556 0.195634 0.010000
v 0.162686 0.190844 0.010000
v 0.167567 0.185799 0.010000
v 0.172199 0.180497 0.010000
v 0.176582 0.174939 0.010000
v 0.180717 0.169125 0.010000
v 0.184560 0.163124 0.010000
v 0.188068 0.157003 0.010000
v 0.191243 0.150762 0.010000
v 0.194083 0.144402 0.010000
v 0.196590 0.137922 0.010000
v 0.198762 0.131322 0.010000
v 0.200600 0.124604 0.010000
v 0.202104 0.117765 0.010000
v 0.203273 0.110807 0.010000
v 0.204109 0.103730 0.010000
v 0.204610 0.096533 0.010000
v 0.204777 0.089217 0.010000
v 0.204585 0.081401 0.010000
v 0.204011 0.073645 0.010000
v 0.203054 0.065947 0.010000
v 0.201713 0.058307 0.010000
v 0.199990 0.050726 0.010000
v 0.197884 0.043203 0.010000
v 0.195395 0.035739 0.010000
v 0.192522 0.028334 0.010000
v 0.189267 0.020987 0.010000
v 0.185629 0.013699 0.010000
v 0.181608 0.006469 0.010000
v 0.177204 -0.000703 0.010000
v 0.172295 -0.007903 0.010000
v 0.166759 -0.015221 0.010000
v 0.160597 -0.022655 0.010000
v 0.153807 -0.030207 0.010000
v 0.146391 -0.037876 0.010000
v 0.138347 -0.045662 0.010000
v 0.129677 -0.053565 0.010000
v 0.120380 -0.061585 0.010000
v 0.110456 -0.069723 0.010000
v 0.099905 -0.077977 0.010000
v 0.088728 -0.086348 0.010000
v 0.076923 -0.094837 0.010000
v 0.069921 -0.099688 0.010000
v 0.063317 -0.104291 0.010000
v 0.057111 -0.108645 0.010000
v 0.051302 -0.112750 0.010000
v 0.045890 -0.116607 0.010000
v 0.040876 -0.120214 0.010000
v 0.036260 -0.123573 0.010000
v 0.032042 -0.126683 0.010000
v 0.028221 -0.129544 0.010000
v 0.024797 -0.132157 0.010000
v 0.021771 -0.134520 0.010000
v 0.019143 -0.136635 0.010000
v 0.016678 -0.138677 0.010000
v 0.014143 -0.140821 0.010000
v 0.011536 -0.143067 0.010000
v 0.008859 -0.145416 0.010000
v 0.006111 -0.147868 0.010000
v 0.003293 -0.150421 0.010000
v 0.000404 -0.153078 0.010000
v -0.002556 -0.155837 0.010000
v -0.005587 -0.158698 0.010000
v -0.008688 -0.161661 0.010000
v -0.011861 -0.164727 0.010000
v -0.015104 -0.167896 0.010000
v 0.208289 -0.167896 -0.010000
v 0.208289 -0.284510 -0.010000
v -0.220934 -0.284510 -0.010000
v -0.219496 -0.273967 -0.010000
v -0.217641 -0.263528 -0.010000
v -0.215369 -0.253194 -0.010000
v -0.212680 -0.242965 -0.010000
v -0.209574 -0.232841 -0.010000
v -0.206050 -0.222822 -0.010000
v -0.202110 -0.212908 -0.010000
v -0.197752 -0.203099 -0.010000
v -0.192977 -0.193394 -0.010000
v -0.187785 -0.183795 -0.010000
v -0.182176 -0.174300 -0.010000
v -0.176150 -0.164910 -0.010000
v -0.169461 -0.155433 -0.010000
v -0.161861 -0.145675 -0.010000
v -0.153352 -0.135636 -0.010000
v -0.143933 -0.125317 -0.010000
v -0.133604 -0.114717 -0.010000
v -0.122366 -0.103837 -0.010000
v -0.110217 -0.092677 -0.010000
v -0.097159 -0.081236 -0.010000
v -0.083191 -0.069514 -0.010000
v -0.068313 -0.057512 -0.010000
v -0.052525 -0.045229 -0.010000
v -0.035827 -0.032666 -0.010000
v -0.025663 -0.025036 -0.010000
v -0.016128 -0.017718 -0.010000
v -0.007223 -0.010713 -0.010000
v 0.001054 -0.004020 -0.010000
v 0.008701 0.002361 -0.010000
v 0.015718 0.008430 -0.010000
v 0.022107 0.014186 -0.010000
v 0.027866 0.019631 -0.010000
v 0.032995 0.024763 -0.010000
v 0.037496 0.029583 -0.010000
v 0.041367 0.034090 -0.010000
v 0.044608 0.038286 -0.010000
v 0.047413 0.042308 -0.010000
v 0.049975 0.046296 -0.010000
v 0.052292 0.050250 -0.010000
v 0.054365 0.054170 -0.010000
v 0.056195 0.058056 -0.010000
v 0.057780 0.061907 -0.010000
v 0.059122 0.065725 -0.010000
v 0.060219 0.069508 -0.010000
v 0.061073 0.073257 -0.010000
v 0.061683 0.076972 -0.010000
v 0.062049 0.080653 -0.010000
v 0.062171 0.084299 -0.010000
v 0.062050 0.088174 -0.010000
v 0.061688 0.091954 -0.010000
v 0.061084 0.095638 -0.010000
v 0.060239 0.099227 -0.010000
v 0.059152 0.102721 -0.010000
v 0.057824 0.106120 -0.010000
v 0.056254 0.109424 -0.010000
v 0.054443 0.112633 -0.010000
v 0.052391 0.115747 -0.010000
v 0.050097 0.118765 -0.010000
v 0.047561 0.121689 -0.010000
v 0.044784 0.124517 -0.010000
v 0.041824 0.127182 -0.010000
v 0.038740 0.129615 -0.010000
v 0.035531 0.131816 -0.010000
v 0.032198 0.133786 -0.010000
v 0.028740 0.135524 -0.010000
v 0.025158 0.137030 -0.010000
v 0.021452 0.138305 -0.010000
v 0.017621 0.139347 -0.010000
v 0.013666 0.140159 -0.010000
v 0.009586 0.140738 -0.010000
v 0.005382 0.141085 -0.010000
v 0.001054 0.141201 -0.010000
v -0.003443 0.141082 -0.010000
v -0.007801 0.140723 -0.010000
v -0.012019 0.140126 -0.010000
v -0.016099 0.139289 -0.010000
v -0.020039 0.138213 -0.010000
v -0.023841 0.136898 -0.010000
v -0.027503 0.135345 -0.010000
v -0.031027 0.133552 -0.010000
v -0.034411 0.131520 -0.010000
v -0.037657 0.129249 -0.010000
v -0.040763 0.126739 -0.010000
v -0.043730 0.123990 -0.010000
v -0.046549 0.120939 -0.010000
v -0.049209 0.117521 -0.010000
v -0.051710 0.113738 -0.010000
v -0.054053 0.109589 -0.010000
v -0.056237 0.105074 -0.010000
v -0.058263 0.100193 -0.010000
v -0.060130 0.094946 -0.010000
v -0.061839 0.089334 -0.010000
v -0.063389 0.083355 -0.010000
v -0.064781 0.077011 -0.010000
v -0.066014 0.070301 -0.010000
v -0.067088 0.063224 -0.010000
v -0.210397 0.074816 -0.010000
v -0.208894 0.084701 -0.010000
v -0.207197 0.094217 -0.010000
v -0.205304 0.103365 -0.010000
v -0.203216 0.112145 -0.010000
v -0.200933 0.120557 -0.010000
v -0.198455 0.128600 -0.010000
v -0.195781 0.136275 -0.010000
v -0.192913 0.143582 -0.010000
v -0.189849 0.150520 -0.010000
v -0.186590 0.157090 -0.010000
v -0.183136 0.163292 -0.010000
v -0.179487 0.169125 -0.010000
v -0.175612 0.174665 -0.010000
v -0.171482 0.179985 -0.010000
v -0.167095 0.185085 -0.010000
v -0.162452 0.189966 -0.010000
v -0.157553 0.194627 -0.010000
v -0.152397 0.199069 -0.010000
v -0.146986 0.203291 -0.010000
v -0.141318 0.207294 -0.010000
v -0.135395 0.211077 -0.010000
v -0.129215 0.214641 -0.010000
v -0.122779 0.217985 -0.010000
v -0.116087 0.221110 -0.010000
v -0.109049 0.223999 -0.010000
v -0.101574 0.226637 -0.010000
v -0.093662 0.229024 -0.010000
v -0.085314 0.231160 -0.010000
v -0.076529 0.233044 -0.010000
v -0.067308 0.234677 -0.010000
v -0.057650 0.236059 -0.010000
v -0.047555 0.237189 -0.010000
v -0.037024 0.238069 -0.010000
v -0.026056 0.238697 -0.010000
v -0.014651 0.239074 -0.010000
v -0.002810 0.239199 -0.010000
v 0.009543 0.239080 -0.010000
v 0.021431 0.238721 -0.010000
v 0.032853 0.238123 -0.010000
v 0.043808 0.237287 -0.010000
v 0.054298 0.236211 -0.010000
v 0.064322 0.234896 -0.010000
v 0.073880 0.233343 -0.010000
v 0.082972 0.231550 -0.010000
v 0.091599 0.229518 -0.010000
v 0.099759 0.227247 -0.010000
v 0.107454 0.224737 -0.010000
v 0.114682 0.221988 -0.010000
v 0.121553 0.218992 -0.010000
v 0.128176 0.215739 -0.010000
v 0.134550 0.212230 -0.010000
v 0.140674 0.208465 -0.010000
v 0.146550 0.204444 -0.010000
v 0.152178 0.200167 -0.010000
v 0.157556 0.195634 -0.010000
v 0.162686 0.190844 -0.010000
v 0.167567 0.185799 -0.010000
v 0.172199 0.180497 -0.010000
v 0.176582 0.174939 -0.010000
v 0.180717 0.169125 -0.010000
v 0.184560 0.163124 -0.010000
v 0.188068 0.157003 -0.010000
v 0.191243 0.150762 -0.010000
v 0.194083 0.144402 -0.010000
v 0.196590 0.137922 -0.010000
v 0.198762 0.131322 -0.010000
v 0.200600 0.124604 -0.010000
v 0.202104 0.117765 -0.010000
v 0.203273 0.110807 -0.010000
v 0.204109 0.103730 -0.010000
v 0.204610 0.096533 -0.010000
v 0.204777 0.089217 -0.010000
v 0.204585 0.081401 -0.010000
v 0.204011 0.073645 -0.010000
v 0.203054 0.065947 -0.010000
v 0.201713 0.058307 -0.010000
v 0.199990 0.050726 -0.010000
v 0.197884 0.043203 -0.010000
v 0.195395 0.035739 -0.010000
v 0.192522 0.028334 -0.010000
v 0.189267 0.020987 -0.010000
v 0.185629 0.013699 -0.010000
v 0.181608 0.006469 -0.010000
v 0.177204 -0.000702 -0.010000
v 0.172295 -0.007903 -0.010000
v 0.166759 -0.015221 -0.010000
v 0.160597 -0.022655 -0.010000
v 0.153807 -0.030207 -0.010000
v 0.146391 -0.037876 -0.010000
v 0.138347 -0.045662 -0.010000
v 0.129677 -0.053565 -0.010000
v 0.120380 -0.061585 -0.010000
v 0.110456 -0.069723 -0.010000
v 0.099905 -0.077977 -0.010000
v 0.088728 -0.086348 -0.010000
v 0.076923 -0.094837 -0.010000
v 0.069921 -0.099688 -0.010000
v 0.063317 -0.104291 -0.010000
v 0.057111 -0.108645 -0.010000
v 0.051302 -0.112750 -0.010000
v 0.045890 -0.116607 -0.010000
v 0.040876 -0.120214 -0.010000
v 0.036260 -0.123573 -0.010000
v 0.032042 -0.126683 -0.010000
v 0.028221 -0.129544 -0.010000
v 0.024797 -0.132157 -0.010000
v 0.021771 -0.134520 -0.010000
v 0.019143 -0.136635 -0.010000
v 0.016678 -0.138677 -0.010000
v 0.014143 -0.140821 -0.010000
v 0.011536 -0.143067 -0.010000
v 0.008859 -0.145416 -0.010000
v 0.006111 -0.147868 -0.010000
v 0.003293 -0.150421 -0.010000
v 0.000404 -0.153078 -0.010000
v -0.002556 -0.155837 -0.010000
v -0.005587 -0.158698 -0.010000
v -0.008688 -0.161661 -0.010000
v -0.011861 -0.164727 -0.010000
v -0.015104 -0.167896 -0.010000
v 0.208289 -0.167896 -0.010000
v 0.208289 -0.167896 0.010000
v 0.208289 -0.284510 -0.010000
v 0.208289 -0.284510 0.010000
v -0.220934 -0.284510 -0.010000
v -0.220934 -0.284510 0.010000
v -0.219496 -0.273967 -0.010000
v -0.219496 -0.273967 0.010000
v -0.217641 -0.263528 -0.010000
v -0.217641 -0.263528 0.010000
v -0.215369 -0.253194 -0.010000
v -0.215369 -0.253194 0.010000
v -0.212680 -0.242965 -0.010000
v -0.212680 -0.242965 0.010000
v -0.209574 -0.232841 -0.010000
v -0.209574 -0.232841 0.010000
v -0.206050 -0.222822 -0.010000
v -0.206050 -0.222822 0.010000
v -0.202110 -0.212908 -0.010000
v -0.202110 -0.212908 0.010000
v -0.197752 -0.203099 -0.010000
v -0.197752 -0.203099 0.010000
v -0.192977 -0.193394 -0.010000
v -0.192977 -0.193394 0.010000
v -0.187785 -0.183795 -0.010000
v -0.187785 -0.183795 0.010000
v -0.182176 -0.174300 -0.010000
v -0.182176 -0.174300 0.010000
v -0.176150 -0.164910 -0.010000
v -0.176150 -0.164910 0.010000
v -0.169461 -0.155433 -0.010000
v -0.169461 -0.155433 0.010000
v -0.161861 -0.145675 -0.010000
v -0.161861 -0.145675 0.010000
v -0.153352 -0.135636 -0.010000
v -0.153352 -0.135636 0.010000
v -0.143933 -0.125317 -0.010000
v -0.143933 -0.125317 0.010000
v -0.133604 -0.114717 -0.010000
v -0.133604 -0.114717 0.010000
v -0.122366 -0.103837 -0.010000
v -0.122366 -0.103837 0.010000
v -0.110217 -0.092677 -0.010000
v -0.110217 -0.092677 0.010000
v -0.097159 -0.081236 -0.010000
v -0.097159 -0.081236 0.010000
v -0.083191 -0.069514 -0.010000
v -0.083191 -0.069514 0.010000
v -0.068313 -0.057512 -0.010000
v -0.068313 -0.057512 0.010000
v -0.052525 -0.045229 -0.010000
v -0.052525 -0.045229 0.010000
v -0.035827 -0.032666 -0.010000
v -0.035827 -0.032666 0.010000
v -0.025663 -0.025036 -0.010000
v -0.025663 -0.025036 0.010000
v -0.016128 -0.017718 -0.010000
v -0.016128 -0.017718 0.010000
v -0.007223 -0.010713 -0.010000
v -0.007223 -0.010713 0.010000
v 0.001054 -0.004020 -0.010000
v 0.001054 -0.004020 0.010000
v 0.008701 0.002361 -0.010000
v 0.008701 0.002361 0.010000
v 0.015718 0.008430 -0.010000
v 0.015718 0.008430 0.010000
v 0.022107 0.014186 -0.010000
v 0.022107 0.014186 0.010000
v 0.027866 0.019631 -0.010000
v 0.027866 0.019631 0.010000
v 0.032995 0.024763 -0.010000
v 0.032995 0.024763 0.010000
v 0.037496 0.029583 -0.010000
v 0.037496 0.029583 0.010000
v 0.041367 0.034090 -0.010000
v 0.041367 0.034090 0.010000
v 0.044608 0.038286 -0.010000
v 0.044608 0.038286 0.010000
v 0.047413 0.042308 -0.010000
v 0.047413 0.042308 0.010000
v 0.049975 0.046296 -0.010000
v 0.049975 0.046296 0.010000
v 0.052292 0.050250 -0.010000
v 0.052292 0.050250 0.010000
v 0.054365 0.054170 -0.010000
v 0.054365 0.054170 0.010000
v 0.056195 0.058056 -0.010000
v 0.056195 0.058056 0.010000
v 0.057780 0.061907 -0.010000
v 0.057780 0.061907 0.010000
v 0.059122 0.065725 -0.010000
v 0.059122 0.065725 0.010000
v 0.060219 0.069508 -0.010000
v 0.060219 0.069508 0.010000
v 0.061073 0.073257 -0.010000
v 0.061073 0.073257 0.010000
v 0.061683 0.076972 -0.010000
v 0.061683 0.076972 0.010000
v 0.062049 0.080653 -0.010000
v 0.062049 0.080653 0.010000
v 0.062171 0.084299 -0.010000
v 0.062171 0.084299 0.010000
v 0.062050 0.088174 -0.010000
v 0.062050 0.088174 0.010000
v 0.061688 0.091954 -0.010000
v 0.061688 0.091954 0.010000
v 0.061084 0.095638 -0.010000
v 0.061084 0.095638 0.010000
v 0.060239 0.099227 -0.010000
v 0.060239 0.099227 0.010000
v 0.059152 0.102721 -0.010000
v 0.059152 0.102721 0.010000
v 0.057824 0.106120 -0.010000
v 0.057824 0.106120 0.010000
v 0.056254 0.109424 -0.010000
v 0.056254 0.109424 0.010000
v 0.054443 0.112633 -0.010000
v 0.054443 0.112633 0.010000
v 0.052391 0.115747 -0.010000
v 0.052391 0.115747 0.010000
v 0.050097 0.118765 -0.010000
v 0.050097 0.118765 0.010000
v 0.047561 0.121689 -0.010000
v 0.047561 0.121689 0.010000
v 0.044784 0.124517 -0.010000
v 0.044784 0.124517 0.010000
v 0.041824 0.127182 -0.010000
v 0.041824 0.127182 0.010000
v 0.038740 0.129615 -0.010000
v 0.038740 0.129615 0.010000
v 0.035531 0.131816 -0.010000
v 0.035531 0.131816 0.010000
v 0.032198 0.133786 -0.010000
v 0.032198 0.133786 0.010000
v 0.028740 0.135524 -0.010000
v 0.028740 0.135524 0.010000
v 0.025158 0.137030 -0.010000
v 0.025158 0.137030 0.010000
v 0.021452 0.138305 -0.010000
v 0.021452 0.138305 0.010000
v 0.017621 0.139347 -0.010000
v 0.017621 0.139347 0.010000
v 0.013666 0.140159 -0.010000
v 0.013666 0.140159 0.010000
v 0.009586 0.140738 -0.010000
v 0.009586 0.140738 0.010000
v 0.005382 0.141085 -0.010000
v 0.005382 0.141085 0.010000
v 0.001054 0.141201 -0.010000
v 0.001054 0.141201 0.010000
v -0.003443 0.141082 -0.010000
v -0.003443 0.141082 0.010000
v -0.007801 0.140723 -0.010000
v -0.007801 0.140723 0.010000
v -0.012019 0.140126 -0.010000
v -0.012019 0.140126 0.010000
v -0.016099 0.139289 -0.010000
v -0.016099 0.139289 0.010000
v -0.020039 0.138213 -0.010000
v -0.020039 0.138213 0.010000
v -0.023841 0.136898 -0.010000
v -0.023841 0.136898 0.010000
v -0.027503 0.135345 -0.010000
v -0.027503 0.135345 0.010000
v -0.031027 0.133552 -0.010000
v -0.031027 0.133552 0.010000
v -0.034411 0.131520 -0.010000
v -0.034411 0.131520 0.010000
v -0.037657 0.129249 -0.010000
v -0.037657 0.129249 0.010000
v -0.040763 0.126739 -0.010000
v -0.040763 0.126739 0.010000
v -0.043730 0.123990 -0.010000
v -0.043730 0.123990 0.010000
v -0.046549 0.120939 -0.010000
v -0.046549 0.120939 0.010000
v -0.049209 0.117521 -0.010000
v -0.049209 0.117521 0.010000
v -0.051710 0.113738 -0.010000
v -0.051710 0.113738 0.010000
v -0.054053 0.109589 -0.010000
v -0.054053 0.109589 0.010000
v -0.056237 0.105074 -0.010000
v -0.056237 0.105074 0.010000
v -0.058263 0.100193 -0.010000
v -0.058263 0.100193 0.010000
v -0.060130 0.094946 -0.010000
v -0.060130 0.094946 0.010000
v -0.061839 0.089334 -0.010000
v -0.061839 0.089334 0.010000
v -0.063389 0.083355 -0.010000
v -0.063389 0.083355 0.010000
v -0.064781 0.077011 -0.010000
v -0.064781 0.077011 0.010000
v -0.066014 0.070301 -0.010000
v -0.066014 0.070301 0.010000
v -0.067088 0.063224 -0.010000
v -0.067088 0.063224 0.010000
v -0.210397 0.074816 -0.010000
v -0.210397 0.074816 0.010000
v -0.208894 0.084701 -0.010000
v -0.208894 0.084701 0.010000
v -0.207197 0.094217 -0.010000
v -0.207197 0.094217 0.010000
v -0.205304 0.103365 -0.010000
v -0.205304 0.103365 0.010000
v -0.203216 0.112145 -0.010000
v -0.203216 0.112145 0.010000
v -0.200933 0.120557 -0.010000
v -0.200933 0.120557 0.010000
v -0.198455 0.128600 -0.010000
v -0.198455 0.128600 0.010000
v -0.195781 0.136275 -0.010000
v -0.195781 0.136275 0.010000
v -0.192913 0.143582 -0.010000
v -0.192913 0.143582 0.010000
v -0.189849 0.150520 -0.010000
v -0.189849 0.150520 0.010000
v -0.186590 0.157090 -0.010000
v -0.186590 0.157090 0.010000
v -0.183136 0.163292 -0.010000
v -0.183136 0.163292 0.010000
v -0.179487 0.169125 -0.010000
v -0.179487 0.169125 0.010000
v -0.175612 0.174665 -0.010000
v -0.175612 0.174665 0.010000
v -0.171482 0.179985 -0.010000
v -0.171482 0.179985 0.010000
v -0.167095 0.185085 -0.010000
v -0.167095 0.185085 0.010000
v -0.162452 0.189966 -0.010000
v -0.162452 0.189966 0.010000
v -0.157553 0.194627 -0.010000
v -0.157553 0.194627 0.010000
v -0.152397 0.199069 -0.010000
v -0.152397 0.199069 0.010000
v -0.146986 0.203291 -0.010000
v -0.146986 0.203291 0.010000
v -0.141318 0.207294 -0.010000
v -0.141318 0.207294 0.010000
v -0.135395 0.211077 -0.010000
v -0.135395 0.211077 0.010000
v -0.129215 0.214641 -0.010000
v -0.129215 0.214641 0.010000
v -0.122779 0.217985 -0.010000
v -0.122779 0.217985 0.010000
v -0.116087 0.221110 -0.010000
v -0.116087 0.221110 0.010000
v -0.109049 0.223999 -0.010000
v -0.109049 0.223999 0.010000
v -0.101574 0.226637 -0.010000
v -0.101574 0.226637 0.010000
v -0.093662 0.229024 -0.010000
v -0.093662 0.229024 0.010000
v -0.085314 0.231160 -0.010000
v -0.085314 0.231160 0.010000
v -0.076529 0.233044 -0.010000
v -0.076529 0.233044 0.010000
v -0.067308 0.234677 -0.010000
v -0.067308 0.234677 0.010000
v -0.057650 0.236059 -0.010000
v -0.057650 0.236059 0.010000
v -0.047555 0.237189 -0.010000
v -0.047555 0.237189 0.010000
v -0.037024 0.238069 -0.010000
v -0.037024 0.238069 0.010000
v -0.026056 0.238697 -0.010000
v -0.026056 0.238697 0.010000
v -0.014651 0.239074 -0.010000
v -0.014651 0.239074 0.010000
v -0.002810 0.239199 -0.010000
v -0.002810 0.239199 0.010000
v 0.009543 0.239080 -0.010000
v 0.009543 0.239080 0.010000
v 0.021431 0.238721 -0.010000
v 0.021431 0.238721 0.010000
v 0.032853 0.238123 -0.010000
v 0.032853 0.238123 0.010000
v 0.043808 0.237287 -0.010000
v 0.043808 0.237287 0.010000
v 0.054298 0.236211 -0.010000
v 0.054298 0.236211 0.010000
v 0.064322 0.234896 -0.010000
v 0.064322 0.234896 0.010000
v 0.073880 0.233343 -0.010000
v 0.073880 0.233343 0.010000
v 0.082972 0.231550 -0.010000
v 0.082972 0.231550 0.010000
v 0.091599 0.229518 -0.010000
v 0.091599 0.229518 0.010000
v 0.099759 0.227247 -0.010000
v 0.099759 0.227247 0.010000
v 0.107454 0.224737 -0.010000
v 0.107454 0.224737 0.010000
v 0.114682 0.221988 -0.010000
v 0.114682 0.221988 0.010000
v 0.121553 0.218992 -0.010000
v 0.121553 0.218992 0.010000
v 0.128176 0.215739 -0.010000
v 0.128176 0.215739 0.010000
v 0.134550 0.212230 -0.010000
v 0.134550 0.212230 0.010000
v 0.140674 0.208465 -0.010000
v 0.140674 0.208465 0.010000
v 0.146550 0.204444 -0.010000
v 0.146550 0.204444 0.010000
v 0.152178 0.200167 -0.010000
v 0.152178 0.200167 0.010000
v 0.157556 0.195634 -0.010000
v 0.157556 0.195634 0.010000
v 0.162686 0.190844 -0.010000
v 0.162686 0.190844 0.010000
v 0.167567 0.185799 -0.010000
v 0.167567 0.185799 0.010000
v 0.172199 0.180497 -0.010000
v 0.172199 0.180497 0.010000
v 0.176582 0.174939 -0.010000
v 0.176582 0.174939 0.010000
v 0.180717 0.169125 -0.010000
v 0.180717 0.169125 0.010000
v 0.184560 0.163124 -0.010000
v 0.184560 0.163124 0.010000
v 0.188068 0.157003 -0.010000
v 0.188068 0.157003 0.010000
v 0.191243 0.150762 -0.010000
v 0.191243 0.150762 0.010000
v 0.194083 0.144402 -0.010000
v 0.194083 0.144402 0.010000
v 0.196590 0.137922 -0.010000
v 0.196590 0.137922 0.010000
v 0.198762 0.131322 -0.010000
v 0.198762 0.131322 0.010000
v 0.200600 0.124604 -0.010000
v 0.200600 0.124604 0.010000
v 0.202104 0.117765 -0.010000
v 0.202104 0.117765 0.010000
v 0.203273 0.110807 -0.010000
v 0.203273 0.110807 0.010000
v 0.204109 0.103730 -0.010000
v 0.204109 0.103730 0.010000
v 0.204610 0.096533 -0.010000
v 0.204610 0.096533 0.010000
v 0.204777 0.089217 -0.010000
v 0.204777 0.089217 0.010000
v 0.204585 0.081401 -0.010000
v 0.204585 0.081401 0.010000
v 0.204011 0.073645 -0.010000
v 0.204011 0.073645 0.010000
v 0.203054 0.065947 -0.010000
v 0.203054 0.065947 0.010000
v 0.201713 0.058307 -0.010000
v 0.201713 0.058307 0.010000
v 0.199990 0.050726 -0.010000
v 0.199990 0.050726 0.010000
v 0.197884 0.043203 -0.010000
v 0.197884 0.043203 0.010000
v 0.195395 0.035739 -0.010000
v 0.195395 0.035739 0.010000
v 0.192522 0.028334 -0.010000
v 0.192522 0.028334 0.010000
v 0.189267 0.020987 -0.010000
v 0.189267 0.020987 0.010000
v 0.185629 0.013699 -0.010000
v 0.185629 0.013699 0.010000
v 0.181608 0.006469 -0.010000
v 0.181608 0.006469 0.010000
v 0.177204 -0.000702 -0.010000
v 0.177204 -0.000703 0.010000
v 0.172295 -0.007903 -0.010000
v 0.172295 -0.007903 0.010000
v 0.166759 -0.015221 -0.010000
v 0.166759 -0.015221 0.010000
v 0.160597 -0.022655 -0.010000
v 0.160597 -0.022655 0.010000
v 0.153807 -0.030207 -0.010000
v 0.153807 -0.030207 0.010000
v 0.146391 -0.037876 -0.010000
v 0.146391 -0.037876 0.010000
v 0.138347 -0.045662 -0.010000
v 0.138347 -0.045662 0.010000
v 0.129677 -0.053565 -0.010000
v 0.129677 -0.053565 0.010000
v 0.120380 -0.061585 -0.010000
v 0.120380 -0.061585 0.010000
v 0.110456 -0.069723 -0.010000
v 0.110456 -0.069723 0.010000
v 0.099905 -0.077977 -0.010000
v 0.099905 -0.077977 0.010000
v 0.088728 -0.086348 -0.010000
v 0.088728 -0.086348 0.010000
v 0.076923 -0.094837 -0.010000
v 0.076923 -0.094837 0.010000
v 0.069921 -0.099688 -0.010000
v 0.069921 -0.099688 0.010000
v 0.063317 -0.104291 -0.010000
v 0.063317 -0.104291 0.010000
v 0.057111 -0.108645 -0.010000
v 0.057111 -0.108645 0.010000
v 0.051302 -0.112750 -0.010000
v 0.051302 -0.112750 0.010000
v 0.045890 -0.116607 -0.010000
v 0.045890 -0.116607 0.010000
v 0.040876 -0.120214 -0.010000
v 0.040876 -0.120214 0.010000
v 0.036260 -0.123573 -0.010000
v 0.036260 -0.123573 0.010000
v 0.032042 -0.126683 -0.010000
v 0.032042 -0.126683 0.010000
v 0.028221 -0.129544 -0.010000
v 0.028221 -0.129544 0.010000
v 0.024797 -0.132157 -0.010000
v 0.024797 -0.132157 0.010000
v 0.021771 -0.134520 -0.010000
v 0.021771 -0.134520 0.010000
v 0.019143 -0.136635 -0.010000
v 0.019143 -0.136635 0.010000
v 0.016678 -0.138677 -0.010000
v 0.016678 -0.138677 0.010000
v 0.014143 -0.140821 -0.010000
v 0.014143 -0.140821 0.010000
v 0.011536 -0.143067 -0.010000
v 0.011536 -0.143067 0.010000
v 0.008859 -0.145416 -0.010000
v 0.008859 -0.145416 0.010000
v 0.006111 -0.147868 -0.010000
v 0.006111 -0.147868 0.010000
v 0.003293 -0.150421 -0.010000
v 0.003293 -0.150421 0.010000
v 0.000404 -0.153078 -0.010000
v 0.000404 -0.153078 0.010000
v -0.002556 -0.155837 -0.010000
v -0.002556 -0.155837 0.010000
v -0.005587 -0.158698 -0.010000
v -0.005587 -0.158698 0.010000
v -0.008688 -0.161661 -0.010000
v -0.008688 -0.161661 0.010000
v -0.011861 -0.164727 -0.010000
v -0.011861 -0.164727 0.010000
v -0.015104 -0.167896 -0.010000
v -0.015104 -0.167896 0.010000
vn -0.0000 -0.0000 1.0000
vn -0.0000 -0.0000 -1.0000
vn 0.7071 -0.7071 -0.0000
vn 0.7071 0.7071 -0.0000
vn -0.7534 -0.6576 -0.0000
vn -0.9879 0.1551 -0.0000
vn -0.9808 0.1949 -0.0000
vn -0.9721 0.2346 -0.0000
vn -0.9618 0.2739 -0.0000
vn -0.9499 0.3126 -0.0000
vn -0.9365 0.3506 -0.0000
vn -0.9218 0.3877 -0.0000
vn -0.9058 0.4238 -0.0000
vn -0.8886 0.4587 -0.0000
vn -0.8704 0.4923 -0.0000
vn -0.8514 0.5245 -0.0000
vn -0.8295 0.5585 -0.0000
vn -0.8032 0.5957 -0.0000
vn -0.7761 0.6307 -0.0000
vn -0.7508 0.6605 -0.0000
vn -0.7275 0.6861 -0.0000
vn -0.7059 0.7083 -0.0000
vn -0.6861 0.7275 -0.0000
vn -0.6678 0.7443 -0.0000
vn -0.6509 0.7591 -0.0000
vn -0.6354 0.7722 -0.0000
vn -0.6210 0.7838 -0.0000
vn -0.6077 0.7942 -0.0000
vn -0.6008 0.7994 -0.0000
vn -0.6046 0.7965 -0.0000
vn -0.6136 0.7896 -0.0000
vn -0.6236 0.7818 -0.0000
vn -0.6348 0.7727 -0.0000
vn -0.6474 0.7621 -0.0000
vn -0.6618 0.7497 -0.0000
vn -0.6782 0.7348 -0.0000
vn -0.6972 0.7169 -0.0000
vn -0.7192 0.6948 -0.0000
vn -0.7449 0.6671 -0.0000
vn -0.7752 0.6317 -0.0000
vn -0.8060 0.5919 -0.0000
vn -0.8310 0.5563 -0.0000
vn -0.8523 0.5231 -0.0000
vn -0.8736 0.4867 -0.0000
vn -0.8946 0.4469 -0.0000
vn -0.9150 0.4034 -0.0000
vn -0.9344 0.3562 -0.0000
vn -0.9523 0.3052 -0.0000
vn -0.9681 0.2504 -0.0000
vn -0.9814 0.1921 -0.0000
vn -0.9914 0.1305 -0.0000
vn -0.9978 0.0662 -0.0000
vn -1.0000 0.0011 -0.0000
vn -0.9980 -0.0633 -0.0000
vn -0.9917 -0.1286 -0.0000
vn -0.9807 -0.1956 -0.0000
vn -0.9647 -0.2632 -0.0000
vn -0.9437 -0.3307 -0.0000
vn -0.9179 -0.3968 -0.0000
vn -0.8876 -0.4606 -0.0000
vn -0.8534 -0.5213 -0.0000
vn -0.8160 -0.5781 -0.0000
vn -0.7762 -0.6305 -0.0000
vn -0.7348 -0.6782 -0.0000
vn -0.6916 -0.7222 -0.0000
vn -0.6446 -0.7646 -0.0000
vn -0.5929 -0.8053 -0.0000
vn -0.5375 -0.8432 -0.0000
vn -0.4792 -0.8777 -0.0000
vn -0.4186 -0.9082 -0.0000
vn -0.3566 -0.9343 -0.0000
vn -0.2941 -0.9558 -0.0000
vn -0.2319 -0.9727 -0.0000
vn -0.1708 -0.9853 -0.0000
vn -0.1115 -0.9938 -0.0000
vn -0.0546 -0.9985 -0.0000
vn -0.0001 -1.0000 -0.0000
vn 0.0543 -0.9985 -0.0000
vn 0.1112 -0.9938 -0.0000
vn 0.1707 -0.9853 -0.0000
vn 0.2322 -0.9727 -0.0000
vn 0.2953 -0.9554 -0.0000
vn 0.3589 -0.9334 -0.0000
vn 0.4223 -0.9065 -0.0000
vn 0.4844 -0.8748 -0.0000
vn 0.5444 -0.8389 -0.0000
vn 0.6013 -0.7991 -0.0000
vn 0.6544 -0.7561 -0.0000
vn 0.7076 -0.7066 -0.0000
vn 0.7625 -0.6469 -0.0000
vn 0.8122 -0.5833 -0.0000
vn 0.8530 -0.5219 -0.0000
vn 0.8859 -0.4638 -0.0000
vn 0.9123 -0.4096 -0.0000
vn 0.9332 -0.3594 -0.0000
vn 0.9496 -0.3133 -0.0000
vn 0.9625 -0.2712 -0.0000
vn 0.9726 -0.2327 -0.0000
vn 0.9803 -0.1975 -0.0000
vn 0.9862 -0.1654 -0.0000
vn 0.6207 -0.7840 -0.0000
vn -0.7841 -0.6207 -0.0000
vn 0.6208 -0.7840 -0.0000
vn -0.9866 0.1630 -0.0000
vn -0.7840 -0.6207 -0.0000
vn -0.9820 0.1891 -0.0000
vn -0.9762 0.2170 -0.0000
vn -0.9691 0.2467 -0.0000
vn -0.9605 0.2782 -0.0000
vn -0.9502 0.3117 -0.0000
vn -0.9378 0.3473 -0.0000
vn -0.9230 0.3848 -0.0000
vn -0.9055 0.4242 -0.0000
vn -0.8850 0.4656 -0.0000
vn -0.8610 0.5086 -0.0000
vn -0.8339 0.5519 -0.0000
vn -0.8049 0.5934 -0.0000
vn -0.7742 0.6329 -0.0000
vn -0.7416 0.6709 -0.0000
vn -0.7071 0.7071 -0.0000
vn -0.6712 0.7413 -0.0000
vn -0.6341 0.7732 -0.0000
vn -0.5962 0.8028 -0.0000
vn -0.5577 0.8300 -0.0000
vn -0.5190 0.8547 -0.0000
vn -0.4804 0.8770 -0.0000
vn -0.4422 0.8969 -0.0000
vn -0.4015 0.9158 -0.0000
vn -0.3564 0.9343 -0.0000
vn -0.3109 0.9504 -0.0000
vn -0.2684 0.9633 -0.0000
vn -0.2288 0.9735 -0.0000
vn -0.1921 0.9814 -0.0000
vn -0.1580 0.9874 -0.0000
vn -0.1265 0.9920 -0.0000
vn -0.0973 0.9953 -0.0000
vn -0.0702 0.9975 -0.0000
vn -0.0451 0.9990 -0.0000
vn -0.0218 0.9998 -0.0000
vn -0.0005 1.0000 -0.0000
vn 0.0199 0.9998 -0.0000
vn 0.0412 0.9992 -0.0000
vn 0.0642 0.9979 -0.0000
vn 0.0891 0.9960 -0.0000
vn 0.1160 0.9932 -0.0000
vn 0.1453 0.9894 -0.0000
vn 0.1770 0.9842 -0.0000
vn 0.2114 0.9774 -0.0000
vn 0.2487 0.9686 -0.0000
vn 0.2892 0.9573 -0.0000
vn 0.3329 0.9430 -0.0000
vn 0.3777 0.9259 -0.0000
vn 0.4204 0.9073 -0.0000
vn 0.4617 0.8870 -0.0000
vn 0.5031 0.8642 -0.0000
vn 0.5444 0.8388 -0.0000
vn 0.5851 0.8110 -0.0000
vn 0.6250 0.7806 -0.0000
vn 0.6637 0.7480 -0.0000
vn 0.7008 0.7133 -0.0000
vn 0.7361 0.6768 -0.0000
vn 0.7694 0.6388 -0.0000
vn 0.8003 0.5996 -0.0000
vn 0.8288 0.5596 -0.0000
vn 0.8551 0.5184 -0.0000
vn 0.8797 0.4755 -0.0000
vn 0.9025 0.4307 -0.0000
vn 0.9232 0.3844 -0.0000
vn 0.9416 0.3368 -0.0000
vn 0.9575 0.2883 -0.0000
vn 0.9709 0.2394 -0.0000
vn 0.9817 0.1903 -0.0000
vn 0.9899 0.1415 -0.0000
vn 0.9956 0.0934 -0.0000
vn 0.9989 0.0462 -0.0000
vn 1.0000 -0.0008 -0.0000
vn 0.9988 -0.0492 -0.0000
vn 0.9951 -0.0987 -0.0000
vn 0.9890 -0.1482 -0.0000
vn 0.9803 -0.1973 -0.0000
vn 0.9693 -0.2457 -0.0000
vn 0.9561 -0.2931 -0.0000
vn 0.9408 -0.3391 -0.0000
vn 0.9236 -0.3834 -0.0000
vn 0.9047 -0.4260 -0.0000
vn 0.8845 -0.4665 -0.0000
vn 0.8632 -0.5048 -0.0000
vn 0.8394 -0.5435 -0.0000
vn 0.8121 -0.5835 -0.0000
vn 0.7839 -0.6209 -0.0000
vn 0.7569 -0.6535 -0.0000
vn 0.7314 -0.6820 -0.0000
vn 0.7073 -0.7069 -0.0000
vn 0.6847 -0.7289 -0.0000
vn 0.6635 -0.7482 -0.0000
vn 0.6437 -0.7653 -0.0000
vn 0.6252 -0.7805 -0.0000
vn 0.6078 -0.7941 -0.0000
vn 0.5917 -0.8062 -0.0000
vn 0.5767 -0.8170 -0.0000
vn 0.5707 -0.8212 -0.0000
vn 0.5730 -0.8195 -0.0000
vn 0.5757 -0.8177 -0.0000
vn 0.5787 -0.8155 -0.0000
vn 0.5822 -0.8130 -0.0000
vn 0.5862 -0.8102 -0.0000
vn 0.5909 -0.8068 -0.0000
vn 0.5964 -0.8027 -0.0000
vn 0.6030 -0.7977 -0.0000
vn 0.6111 -0.7915 -0.0000
vn 0.6213 -0.7836 -0.0000
vn 0.6324 -0.7746 -0.0000
vn 0.6418 -0.7669 -0.0000
vn 0.6493 -0.7605 -0.0000
vn 0.6562 -0.7546 -0.0000
vn 0.6626 -0.7489 -0.0000
vn 0.6686 -0.7436 -0.0000
vn 0.6741 -0.7386 -0.0000
vn 0.6793 -0.7339 -0.0000
vn 0.6841 -0.7293 -0.0000
vn 0.6887 -0.7251 -0.0000
vn 0.6929 -0.7210 -0.0000
vn 0.6969 -0.7171 -0.0000
vn 0.9261 0.3774 -0.0000
vn 0.9261 0.3773 -0.0000
vt 0.611872 0.000000
vt 0.621005 0.000000
vt 0.616438 0.000000
vt 0.625571 0.000000
vt 0.607306 0.000000
vt 0.630137 0.000000
vt 0.602740 0.000000
vt 0.634703 0.000000
vt 0.598173 0.000000
vt 0.639269 0.000000
vt 0.593607 0.000000
vt 0.643836 0.000000
vt 0.589041 0.000000
vt 0.648402 0.000000
vt 0.584475 0.000000
vt 0.652968 0.000000
vt 0.579909 0.000000
vt 0.657534 0.000000
vt 0.575342 0.000000
vt 0.662100 0.000000
vt 0.570776 0.000000
vt 0.666667 0.000000
vt 0.566210 0.000000
vt 0.671233 0.000000
vt 0.561644 0.000000
vt 0.675799 0.000000
vt 0.557078 0.000000
vt 0.680365 0.000000
vt 0.552511 0.000000
vt 0.684932 0.000000
vt 0.547945 0.000000
vt 0.689498 0.000000
vt 0.543379 0.000000
vt 0.694064 0.000000
vt 0.538813 0.000000
vt 0.698630 0.000000
vt 0.534247 0.000000
vt 0.703196 0.000000
vt 0.529680 0.000000
vt 0.707763 0.000000
vt 0.525114 0.000000
vt 0.712329 0.000000
vt 0.520548 0.000000
vt 0.716895 0.000000
vt 0.515982 0.000000
vt 0.721461 0.000000
vt 0.511416 0.000000
vt 0.726027 0.000000
vt 0.506849 0.000000
vt 0.502283 0.000000
vt 0.730594 0.000000
vt 0.497717 0.000000
vt 0.735160 0.000000
vt 0.493151 0.000000
vt 0.739726 0.000000
vt 0.744292 0.000000
vt 0.488584 0.000000
vt 0.337900 0.000000
vt 0.748858 0.000000
vt 0.484018 0.000000
vt 0.342466 0.000000
vt 0.333333 0.000000
vt 0.328767 0.000000
vt 0.347032 0.000000
vt 0.324201 0.000000
vt 0.351598 0.000000
vt 0.319635 0.000000
vt 0.356164 0.000000
vt 0.315068 0.000000
vt 0.360731 0.000000
vt 0.310502 0.000000
vt 0.365297 0.000000
vt 0.753425 0.000000
vt 0.305936 0.000000
vt 0.369863 0.000000
vt 0.479452 0.000000
vt 0.301370 0.000000
vt 0.374429 0.000000
vt 0.296804 0.000000
vt 0.378995 0.000000
vt 0.292237 0.000000
vt 0.383562 0.000000
vt 0.757991 0.000000
vt 0.287671 0.000000
vt 0.388128 0.000000
vt 0.474886 0.000000
vt 0.283105 0.000000
vt 0.392694 0.000000
vt 0.762557 0.000000
vt 0.278539 0.000000
vt 0.397260 0.000000
vt 0.273973 0.000000
vt 0.401826 0.000000
vt 0.470320 0.000000
vt 0.269406 0.000000
vt 0.767123 0.000000
vt 0.406393 0.000000
vt 0.264840 0.000000
vt 0.410959 0.000000
vt 0.260274 0.000000
vt 0.465753 0.000000
vt 0.771689 0.000000
vt 0.415525 0.000000
vt 0.255708 0.000000
vt 0.251142 0.000000
vt 0.420091 0.000000
vt 0.776256 0.000000
vt 0.461187 0.000000
vt 0.246575 0.000000
vt 0.424658 0.000000
vt 0.242009 0.000000
vt 0.780822 0.000000
vt 0.237443 0.000000
vt 0.429224 0.000000
vt 0.456621 0.000000
vt 0.232877 0.000000
vt 0.433790 0.000000
vt 0.785388 0.000000
vt 0.228310 0.000000
vt 0.452055 0.000000
vt 0.223744 0.000000
vt 0.438356 0.000000
vt 0.789954 0.000000
vt 0.219178 0.000000
vt 0.442922 0.000000
vt 0.214612 0.000000
vt 0.447489 0.000000
vt 0.794521 0.000000
vt 0.210046 0.000000
vt 0.205479 0.000000
vt 0.799087 0.000000
vt 0.200913 0.000000
vt 0.196347 0.000000
vt 0.803653 0.000000
vt 0.191781 0.000000
vt 0.187215 0.000000
vt 0.808219 0.000000
vt 0.182648 0.000000
vt 0.178082 0.000000
vt 0.812785 0.000000
vt 0.173516 0.000000
vt 0.168950 0.000000
vt 0.817352 0.000000
vt 0.164384 0.000000
vt 0.159817 0.000000
vt 0.821918 0.000000
vt 0.155251 0.000000
vt 0.826484 0.000000
vt 0.150685 0.000000
vt 0.146119 0.000000
vt 0.831050 0.000000
vt 0.141553 0.000000
vt 0.835616 0.000000
vt 0.136986 0.000000
vt 0.840183 0.000000
vt 0.132420 0.000000
vt 0.844749 0.000000
vt 0.127854 0.000000
vt 0.849315 0.000000
vt 0.123288 0.000000
vt 0.853881 0.000000
vt 0.118721 0.000000
vt 0.858447 0.000000
vt 0.114155 0.000000
vt 0.863014 0.000000
vt 0.109589 0.000000
vt 0.867580 0.000000
vt 0.872146 0.000000
vt 0.105023 0.000000
vt 0.876712 0.000000
vt 0.100457 0.000000
vt 0.881279 0.000000
vt 0.885845 0.000000
vt 0.095890 0.000000
vt 0.890411 0.000000
vt 0.091324 0.000000
vt 0.894977 0.000000
vt 0.899543 0.000000
vt 0.086758 0.000000
vt 0.904110 0.000000
vt 0.908676 0.000000
vt 0.913242 0.000000
vt 0.082192 0.000000
vt 0.917808 0.000000
vt 0.922374 0.000000
vt 0.926941 0.000000
vt 0.077626 0.000000
vt 0.931507 0.000000
vt 0.936073 0.000000
vt 0.940639 0.000000
vt 0.945205 0.000000
vt 0.073059 0.000000
vt 0.949772 0.000000
vt 0.954338 0.000000
vt 0.958904 0.000000
vt 0.963470 0.000000
vt 0.968037 0.000000
vt 0.068493 0.000000
vt 0.972603 0.000000
vt 0.977169 0.000000
vt 0.981735 0.000000
vt 0.063927 0.000000
vt 0.986301 0.000000
vt 0.990868 0.000000
vt 0.995434 0.000000
vt 1.000000 0.000000
vt 0.059361 0.000000
vt 0.000000 0.000000
vt 0.004566 0.000000
vt 0.054795 0.000000
vt 0.050228 0.000000
vt 0.045662 0.000000
vt 0.041096 0.000000
vt 0.036530 0.000000
vt 0.031963 0.000000
vt 0.027397 0.000000
vt 0.022831 0.000000
vt 0.018265 0.000000
vt 0.013699 0.000000
vt 0.009132 0.000000
vt 0.004545 1.000000
vt 0.000000 1.000000
vt 0.009091 1.000000
vt 0.004545 0.000000
vt 0.013636 1.000000
vt 0.009091 0.000000
vt 0.018182 1.000000
vt 0.013636 0.000000
vt 0.022727 1.000000
vt 0.018182 0.000000
vt 0.027273 1.000000
vt 0.022727 0.000000
vt 0.031818 1.000000
vt 0.027273 0.000000
vt 0.036364 1.000000
vt 0.031818 0.000000
vt 0.040909 1.000000
vt 0.036364 0.000000
vt 0.045455 1.000000
vt 0.040909 0.000000
vt 0.050000 1.000000
vt 0.045455 0.000000
vt 0.054545 1.000000
vt 0.050000 0.000000
vt 0.059091 1.000000
vt 0.054545 0.000000
vt 0.063636 1.000000
vt 0.059091 0.000000
vt 0.068182 1.000000
vt 0.063636 0.000000
vt 0.072727 1.000000
vt 0.068182 0.000000
vt 0.077273 1.000000
vt 0.072727 0.000000
vt 0.081818 1.000000
vt 0.077273 0.000000
vt 0.086364 1.000000
vt 0.081818 0.000000
vt 0.090909 1.000000
vt 0.086364 0.000000
vt 0.095455 1.000000
vt 0.090909 0.000000
vt 0.100000 1.000000
vt 0.095455 0.000000
vt 0.104545 1.000000
vt 0.100000 0.000000
vt 0.109091 1.000000
vt 0.104545 0.000000
vt 0.113636 1.000000
vt 0.109091 0.000000
vt 0.118182 1.000000
vt 0.113636 0.000000
vt 0.122727 1.000000
vt 0.118182 0.000000
vt 0.127273 1.000000
vt 0.122727 0.000000
vt 0.131818 1.000000
vt 0.127273 0.000000
vt 0.136364 1.000000
vt 0.131818 0.000000
vt 0.140909 1.000000
vt 0.136364 0.000000
vt 0.145455 1.000000
vt 0.140909 0.000000
vt 0.150000 1.000000
vt 0.145455 0.000000
vt 0.154545 1.000000
vt 0.150000 0.000000
vt 0.159091 1.000000
vt 0.154545 0.000000
vt 0.163636 1.000000
vt 0.159091 0.000000
vt 0.168182 1.000000
vt 0.163636 0.000000
vt 0.172727 1.000000
vt 0.168182 0.000000
vt 0.177273 1.000000
vt 0.172727 0.000000
vt 0.181818 1.000000
vt 0.177273 0.000000
vt 0.186364 1.000000
vt 0.181818 0.000000
vt 0.190909 1.000000
vt 0.186364 0.000000
vt 0.195455 1.000000
vt 0.190909 0.000000
vt 0.200000 1.000000
vt 0.195455 0.000000
vt 0.204545 1.000000
vt 0.200000 0.000000
vt 0.209091 1.000000
vt 0.204545 0.000000
vt 0.213636 1.000000
vt 0.209091 0.000000
vt 0.218182 1.000000
vt 0.213636 0.000000
vt 0.222727 1.000000
vt 0.218182 0.000000
vt 0.227273 1.000000
vt 0.222727 0.000000
vt 0.231818 1.000000
vt 0.227273 0.000000
vt 0.236364 1.000000
vt 0.231818 0.000000
vt 0.240909 1.000000
vt 0.236364 0.000000
vt 0.245455 1.000000
vt 0.240909 0.000000
vt 0.250000 1.000000
vt 0.245455 0.000000
vt 0.254545 1.000000
vt 0.250000 0.000000
vt 0.259091 1.000000
vt 0.254545 0.000000
vt 0.263636 1.000000
vt 0.259091 0.000000
vt 0.268182 1.000000
vt 0.263636 0.000000
vt 0.272727 1.000000
vt 0.268182 0.000000
vt 0.277273 1.000000
vt 0.272727 0.000000
vt 0.281818 1.000000
vt 0.277273 0.000000
vt 0.286364 1.000000
vt 0.281818 0.000000
vt 0.290909 1.000000
vt 0.286364 0.000000
vt 0.295455 1.000000
vt 0.290909 0.000000
vt 0.300000 1.000000
vt 0.295455 0.000000
vt 0.304545 1.000000
vt 0.300000 0.000000
vt 0.309091 1.000000
vt 0.304545 0.000000
vt 0.313636 1.000000
vt 0.309091 0.000000
vt 0.318182 1.000000
vt 0.313636 0.000000
vt 0.322727 1.000000
vt 0.318182 0.000000
vt 0.327273 1.000000
vt 0.322727 0.000000
vt 0.331818 1.000000
vt 0.327273 0.000000
vt 0.336364 1.000000
vt 0.331818 0.000000
vt 0.340909 1.000000
vt 0.336364 0.000000
vt 0.345455 1.000000
vt 0.340909 0.000000
vt 0.350000 1.000000
vt 0.345455 0.000000
vt 0.354545 1.000000
vt 0.350000 0.000000
vt 0.359091 1.000000
vt 0.354545 0.000000
vt 0.363636 1.000000
vt 0.359091 0.000000
vt 0.368182 1.000000
vt 0.363636 0.000000
vt 0.372727 1.000000
vt 0.368182 0.000000
vt 0.377273 1.000000
vt 0.372727 0.000000
vt 0.381818 1.000000
vt 0.377273 0.000000
vt 0.386364 1.000000
vt 0.381818 0.000000
vt 0.390909 1.000000
vt 0.386364 0.000000
vt 0.395455 1.000000
vt 0.390909 0.000000
vt 0.400000 1.000000
vt 0.395455 0.000000
vt 0.404545 1.000000
vt 0.400000 0.000000
vt 0.409091 1.000000
vt 0.404545 0.000000
vt 0.413636 1.000000
vt 0.409091 0.000000
vt 0.418182 1.000000
vt 0.413636 0.000000
vt 0.422727 1.000000
vt 0.418182 0.000000
vt 0.427273 1.000000
vt 0.422727 0.000000
vt 0.431818 1.000000
vt 0.427273 0.000000
vt 0.436364 1.000000
vt 0.431818 0.000000
vt 0.440909 1.000000
vt 0.436364 0.000000
vt 0.445455 1.000000
vt 0.440909 0.000000
vt 0.450000 1.000000
vt 0.445455 0.000000
vt 0.454545 1.000000
vt 0.450000 0.000000
vt 0.459091 1.000000
vt 0.454545 0.000000
vt 0.463636 1.000000
vt 0.459091 0.000000
vt 0.468182 1.000000
vt 0.463636 0.000000
vt 0.472727 1.000000
vt 0.468182 0.000000
vt 0.477273 1.000000
vt 0.472727 0.000000
vt 0.481818 1.000000
vt 0.477273 0.000000
vt 0.486364 1.000000
vt 0.481818 0.000000
vt 0.490909 1.000000
vt 0.486364 0.000000
vt 0.495455 1.000000
vt 0.490909 0.000000
vt 0.500000 1.000000
vt 0.495455 0.000000
vt 0.504545 1.000000
vt 0.500000 0.000000
vt 0.509091 1.000000
vt 0.504545 0.000000
vt 0.513636 1.000000
vt 0.509091 0.000000
vt 0.518182 1.000000
vt 0.513636 0.000000
vt 0.522727 1.000000
vt 0.518182 0.000000
vt 0.527273 1.000000
vt 0.522727 0.000000
vt 0.531818 1.000000
vt 0.527273 0.000000
vt 0.536364 1.000000
vt 0.531818 0.000000
vt 0.540909 1.000000
vt 0.536364 0.000000
vt 0.545455 1.000000
vt 0.540909 0.000000
vt 0.550000 1.000000
vt 0.545455 0.000000
vt 0.554545 1.000000
vt 0.550000 0.000000
vt 0.559091 1.000000
vt 0.554545 0.000000
vt 0.563636 1.000000
vt 0.559091 0.000000
vt 0.568182 1.000000
vt 0.563636 0.000000
vt 0.572727 1.000000
vt 0.568182 0.000000
vt 0.577273 1.000000
vt 0.572727 0.000000
vt 0.581818 1.000000
vt 0.577273 0.000000
vt 0.586364 1.000000
vt 0.581818 0.000000
vt 0.590909 1.000000
vt 0.586364 0.000000
vt 0.595455 1.000000
vt 0.590909 0.000000
vt 0.600000 1.000000
vt 0.595455 0.000000
vt 0.604545 1.000000
vt 0.600000 0.000000
vt 0.609091 1.000000
vt 0.604545 0.000000
vt 0.613636 1.000000
vt 0.609091 0.000000
vt 0.618182 1.000000
vt 0.613636 0.000000
vt 0.622727 1.000000
vt 0.618182 0.000000
vt 0.627273 1.000000
vt 0.622727 0.000000
vt 0.631818 1.000000
vt 0.627273 0.000000
vt 0.636364 1.000000
vt 0.631818 0.000000
vt 0.640909 1.000000
vt 0.636364 0.000000
vt 0.645455 1.000000
vt 0.640909 0.000000
vt 0.650000 1.000000
vt 0.645455 0.000000
vt 0.654545 1.000000
vt 0.650000 0.000000
vt 0.659091 1.000000
vt 0.654545 0.000000
vt 0.663636 1.000000
vt 0.659091 0.000000
vt 0.668182 1.000000
vt 0.663636 0.000000
vt 0.672727 1.000000
vt 0.668182 0.000000
vt 0.677273 1.000000
vt 0.672727 0.000000
vt 0.681818 1.000000
vt 0.677273 0.000000
vt 0.686364 1.000000
vt 0.681818 0.000000
vt 0.690909 1.000000
vt 0.686364 0.000000
vt 0.695455 1.000000
vt 0.690909 0.000000
vt 0.700000 1.000000
vt 0.695455 0.000000
vt 0.704545 1.000000
vt 0.700000 0.000000
vt 0.709091 1.000000
vt 0.704545 0.000000
vt 0.713636 1.000000
vt 0.709091 0.000000
vt 0.718182 1.000000
vt 0.713636 0.000000
vt 0.722727 1.000000
vt 0.718182 0.000000
vt 0.727273 1.000000
vt 0.722727 0.000000
vt 0.731818 1.000000
vt 0.727273 0.000000
vt 0.736364 1.000000
vt 0.731818 0.000000
vt 0.740909 1.000000
vt 0.736364 0.000000
vt 0.745455 1.000000
vt 0.740909 0.000000
vt 0.750000 1.000000
vt 0.745455 0.000000
vt 0.754545 1.000000
vt 0.750000 0.000000
vt 0.759091 1.000000
vt 0.754545 0.000000
vt 0.763636 1.000000
vt 0.759091 0.000000
vt 0.768182 1.000000
vt 0.763636 0.000000
vt 0.772727 1.000000
vt 0.768182 0.000000
vt 0.777273 1.000000
vt 0.772727 0.000000
vt 0.781818 1.000000
vt 0.777273 0.000000
vt 0.786364 1.000000
vt 0.781818 0.000000
vt 0.790909 1.000000
vt 0.786364 0.000000
vt 0.795455 1.000000
vt 0.790909 0.000000
vt 0.800000 1.000000
vt 0.795455 0.000000
vt 0.804545 1.000000
vt 0.800000 0.000000
vt 0.809091 1.000000
vt 0.804545 0.000000
vt 0.813636 1.000000
vt 0.809091 0.000000
vt 0.818182 1.000000
vt 0.813636 0.000000
vt 0.822727 1.000000
vt 0.818182 0.000000
vt 0.827273 1.000000
vt 0.822727 0.000000
vt 0.831818 1.000000
vt 0.827273 0.000000
vt 0.836364 1.000000
vt 0.831818 0.000000
vt 0.840909 1.000000
vt 0.836364 0.000000
vt 0.845455 1.000000
vt 0.840909 0.000000
vt 0.850000 1.000000
vt 0.845455 0.000000
vt 0.854545 1.000000
vt 0.850000 0.000000
vt 0.859091 1.000000
vt 0.854545 0.000000
vt 0.863636 1.000000
vt 0.859091 0.000000
vt 0.868182 1.000000
vt 0.863636 0.000000
vt 0.872727 1.000000
vt 0.868182 0.000000
vt 0.877273 1.000000
vt 0.872727 0.000000
vt 0.881818 1.000000
vt 0.877273 0.000000
vt 0.886364 1.000000
vt 0.881818 0.000000
vt 0.890909 1.000000
vt 0.886364 0.000000
vt 0.895455 1.000000
vt 0.890909 0.000000
vt 0.900000 1.000000
vt 0.895455 0.000000
vt 0.904545 1.000000
vt 0.900000 0.000000
vt 0.909091 1.000000
vt 0.904545 0.000000
vt 0.913636 1.000000
vt 0.909091 0.000000
vt 0.918182 1.000000
vt 0.913636 0.000000
vt 0.922727 1.000000
vt 0.918182 0.000000
vt 0.927273 1.000000
vt 0.922727 0.000000
vt 0.931818 1.000000
vt 0.927273 0.000000
vt 0.936364 1.000000
vt 0.931818 0.000000
vt 0.940909 1.000000
vt 0.936364 0.000000
vt 0.945455 1.000000
vt 0.940909 0.000000
vt 0.950000 1.000000
vt 0.945455 0.000000
vt 0.954545 1.000000
vt 0.950000 0.000000
vt 0.959091 1.000000
vt 0.954545 0.000000
vt 0.963636 1.000000
vt 0.959091 0.000000
vt 0.968182 1.000000
vt 0.963636 0.000000
vt 0.972727 1.000000
vt 0.968182 0.000000
vt 0.977273 1.000000
vt 0.972727 0.000000
vt 0.981818 1.000000
vt 0.977273 0.000000
vt 0.986364 1.000000
vt 0.981818 0.000000
vt 0.990909 1.000000
vt 0.986364 0.000000
vt 0.995455 1.000000
vt 0.990909 0.000000
vt 1.000000 1.000000
vt 0.995455 0.000000
s 0
usemtl マテリアル
f 135/1/1 137/2/1 136/3/1
f 135/1/1 138/4/1 137/2/1
f 134/5/1 138/4/1 135/1/1
f 134/5/1 139/6/1 138/4/1
f 133/7/1 139/6/1 134/5/1
f 133/7/1 140/8/1 139/6/1
f 132/9/1 140/8/1 133/7/1
f 132/9/1 141/10/1 140/8/1
f 131/11/1 141/10/1 132/9/1
f 131/11/1 142/12/1 141/10/1
f 130/13/1 142/12/1 131/11/1
f 130/13/1 143/14/1 142/12/1
f 129/15/1 143/14/1 130/13/1
f 129/15/1 144/16/1 143/14/1
f 128/17/1 144/16/1 129/15/1
f 128/17/1 145/18/1 144/16/1
f 127/19/1 145/18/1 128/17/1
f 127/19/1 146/20/1 145/18/1
f 126/21/1 146/20/1 127/19/1
f 126/21/1 147/22/1 146/20/1
f 125/23/1 147/22/1 126/21/1
f 125/23/1 148/24/1 147/22/1
f 124/25/1 148/24/1 125/23/1
f 124/25/1 149/26/1 148/24/1
f 123/27/1 149/26/1 124/25/1
f 123/27/1 150/28/1 149/26/1
f 122/29/1 150/28/1 123/27/1
f 122/29/1 151/30/1 150/28/1
f 121/31/1 151/30/1 122/29/1
f 121/31/1 152/32/1 151/30/1
f 120/33/1 152/32/1 121/31/1
f 120/33/1 153/34/1 152/32/1
f 119/35/1 153/34/1 120/33/1
f 119/35/1 154/36/1 153/34/1
f 118/37/1 154/36/1 119/35/1
f 118/37/1 155/38/1 154/36/1
f 117/39/1 155/38/1 118/37/1
f 117/39/1 156/40/1 155/38/1
f 116/41/1 156/40/1 117/39/1
f 116/41/1 157/42/1 156/40/1
f 115/43/1 157/42/1 116/41/1
f 115/43/1 158/44/1 157/42/1
f 114/45/1 158/44/1 115/43/1
f 114/45/1 159/46/1 158/44/1
f 113/47/1 159/46/1 114/45/1
f 113/47/1 160/48/1 159/46/1
f 112/49/1 160/48/1 113/47/1
f 111/50/1 160/48/1 112/49/1
f 111/50/1 161/51/1 160/48/1
f 110/52/1 161/51/1 111/50/1
f 110/52/1 162/53/1 161/51/1
f 109/54/1 162/53/1 110/52/1
f 109/54/1 163/55/1 162/53/1
f 109/54/1 164/56/1 163/55/1
f 108/57/1 164/56/1 109/54/1
f 108/57/1 75/58/1 164/56/1
f 75/58/1 165/59/1 164/56/1
f 107/60/1 75/58/1 108/57/1
f 107/60/1 76/61/1 75/58/1
f 74/62/1 165/59/1 75/58/1
f 73/63/1 165/59/1 74/62/1
f 107/60/1 77/64/1 76/61/1
f 72/65/1 165/59/1 73/63/1
f 107/60/1 78/66/1 77/64/1
f 71/67/1 165/59/1 72/65/1
f 107/60/1 79/68/1 78/66/1
f 70/69/1 165/59/1 71/67/1
f 107/60/1 80/70/1 79/68/1
f 69/71/1 165/59/1 70/69/1
f 107/60/1 81/72/1 80/70/1
f 69/71/1 166/73/1 165/59/1
f 68/74/1 166/73/1 69/71/1
f 107/60/1 82/75/1 81/72/1
f 106/76/1 82/75/1 107/60/1
f 67/77/1 166/73/1 68/74/1
f 106/76/1 83/78/1 82/75/1
f 66/79/1 166/73/1 67/77/1
f 106/76/1 84/80/1 83/78/1
f 65/81/1 166/73/1 66/79/1
f 106/76/1 85/82/1 84/80/1
f 65/81/1 167/83/1 166/73/1
f 64/84/1 167/83/1 65/81/1
f 106/76/1 86/85/1 85/82/1
f 105/86/1 86/85/1 106/76/1
f 63/87/1 167/83/1 64/84/1
f 105/86/1 87/88/1 86/85/1
f 63/87/1 168/89/1 167/83/1
f 62/90/1 168/89/1 63/87/1
f 105/86/1 88/91/1 87/88/1
f 61/92/1 168/89/1 62/90/1
f 105/86/1 89/93/1 88/91/1
f 104/94/1 89/93/1 105/86/1
f 60/95/1 168/89/1 61/92/1
f 60/95/1 169/96/1 168/89/1
f 104/94/1 90/97/1 89/93/1
f 59/98/1 169/96/1 60/95/1
f 104/94/1 91/99/1 90/97/1
f 58/100/1 169/96/1 59/98/1
f 103/101/1 91/99/1 104/94/1
f 58/100/1 170/102/1 169/96/1
f 103/101/1 92/103/1 91/99/1
f 57/104/1 170/102/1 58/100/1
f 56/105/1 170/102/1 57/104/1
f 103/101/1 93/106/1 92/103/1
f 56/105/1 171/107/1 170/102/1
f 102/108/1 93/106/1 103/101/1
f 55/109/1 171/107/1 56/105/1
f 102/108/1 94/110/1 93/106/1
f 54/111/1 171/107/1 55/109/1
f 54/111/1 172/112/1 171/107/1
f 53/113/1 172/112/1 54/111/1
f 102/108/1 95/114/1 94/110/1
f 101/115/1 95/114/1 102/108/1
f 52/116/1 172/112/1 53/113/1
f 101/115/1 96/117/1 95/114/1
f 52/116/1 173/118/1 172/112/1
f 51/119/1 173/118/1 52/116/1
f 100/120/1 96/117/1 101/115/1
f 50/121/1 173/118/1 51/119/1
f 100/120/1 97/122/1 96/117/1
f 50/121/1 174/123/1 173/118/1
f 49/124/1 174/123/1 50/121/1
f 100/120/1 98/125/1 97/122/1
f 48/126/1 174/123/1 49/124/1
f 99/127/1 98/125/1 100/120/1
f 48/126/1 175/128/1 174/123/1
f 47/129/1 175/128/1 48/126/1
f 46/130/1 175/128/1 47/129/1
f 46/130/1 176/131/1 175/128/1
f 45/132/1 176/131/1 46/130/1
f 44/133/1 176/131/1 45/132/1
f 44/133/1 177/134/1 176/131/1
f 43/135/1 177/134/1 44/133/1
f 42/136/1 177/134/1 43/135/1
f 42/136/1 178/137/1 177/134/1
f 41/138/1 178/137/1 42/136/1
f 40/139/1 178/137/1 41/138/1
f 40/139/1 179/140/1 178/137/1
f 39/141/1 179/140/1 40/139/1
f 38/142/1 179/140/1 39/141/1
f 38/142/1 180/143/1 179/140/1
f 37/144/1 180/143/1 38/142/1
f 36/145/1 180/143/1 37/144/1
f 36/145/1 181/146/1 180/143/1
f 35/147/1 181/146/1 36/145/1
f 35/147/1 182/148/1 181/146/1
f 34/149/1 182/148/1 35/147/1
f 33/150/1 182/148/1 34/149/1
f 33/150/1 183/151/1 182/148/1
f 32/152/1 183/151/1 33/150/1
f 32/152/1 184/153/1 183/151/1
f 31/154/1 184/153/1 32/152/1
f 31/154/1 185/155/1 184/153/1
f 30/156/1 185/155/1 31/154/1
f 30/156/1 186/157/1 185/155/1
f 29/158/1 186/157/1 30/156/1
f 29/158/1 187/159/1 186/157/1
f 28/160/1 187/159/1 29/158/1
f 28/160/1 188/161/1 187/159/1
f 27/162/1 188/161/1 28/160/1
f 27/162/1 189/163/1 188/161/1
f 26/164/1 189/163/1 27/162/1
f 26/164/1 190/165/1 189/163/1
f 25/166/1 190/165/1 26/164/1
f 25/166/1 191/167/1 190/165/1
f 25/166/1 192/168/1 191/167/1
f 24/169/1 192/168/1 25/166/1
f 24/169/1 193/170/1 192/168/1
f 23/171/1 193/170/1 24/169/1
f 23/171/1 194/172/1 193/170/1
f 23/171/1 195/173/1 194/172/1
f 22/174/1 195/173/1 23/171/1
f 22/174/1 196/175/1 195/173/1
f 21/176/1 196/175/1 22/174/1
f 21/176/1 197/177/1 196/175/1
f 21/176/1 198/178/1 197/177/1
f 20/179/1 198/178/1 21/176/1
f 20/179/1 199/180/1 198/178/1
f 20/179/1 200/181/1 199/180/1
f 20/179/1 201/182/1 200/181/1
f 19/183/1 201/182/1 20/179/1
f 19/183/1 202/184/1 201/182/1
f 19/183/1 203/185/1 202/184/1
f 19/183/1 204/186/1 203/185/1
f 18/187/1 204/186/1 19/183/1
f 18/187/1 205/188/1 204/186/1
f 18/187/1 206/189/1 205/188/1
f 18/187/1 207/190/1 206/189/1
f 18/187/1 208/191/1 207/190/1
f 17/192/1 208/191/1 18/187/1
f 17/192/1 209/193/1 208/191/1
f 17/192/1 210/194/1 209/193/1
f 17/192/1 211/195/1 210/194/1
f 17/192/1 212/196/1 211/195/1
f 17/192/1 213/197/1 212/196/1
f 16/198/1 213/197/1 17/192/1
f 16/198/1 214/199/1 213/197/1
f 16/198/1 215/200/1 214/199/1
f 16/198/1 216/201/1 215/200/1
f 15/202/1 216/201/1 16/198/1
f 15/202/1 217/203/1 216/201/1
f 15/202/1 218/204/1 217/203/1
f 15/202/1 219/205/1 218/204/1
f 15/202/1 220/206/1 219/205/1
f 14/207/1 220/206/1 15/202/1
f 14/207/1 1/208/1 220/206/1
f 14/207/1 2/209/1 1/208/1
f 13/210/1 2/209/1 14/207/1
f 12/211/1 2/209/1 13/210/1
f 11/212/1 2/209/1 12/211/1
f 10/213/1 2/209/1 11/212/1
f 9/214/1 2/209/1 10/213/1
f 8/215/1 2/209/1 9/214/1
f 7/216/1 2/209/1 8/215/1
f 6/217/1 2/209/1 7/216/1
f 5/218/1 2/209/1 6/217/1
f 4/219/1 2/209/1 5/218/1
f 3/220/1 2/209/1 4/219/1
f 355/1/2 356/3/2 357/2/2
f 355/1/2 357/2/2 358/4/2
f 354/5/2 355/1/2 358/4/2
f 354/5/2 358/4/2 359/6/2
f 353/7/2 354/5/2 359/6/2
f 353/7/2 359/6/2 360/8/2
f 352/9/2 353/7/2 360/8/2
f 352/9/2 360/8/2 361/10/2
f 351/11/2 352/9/2 361/10/2
f 351/11/2 361/10/2 362/12/2
f 350/13/2 351/11/2 362/12/2
f 350/13/2 362/12/2 363/14/2
f 349/15/2 350/13/2 363/14/2
f 349/15/2 363/14/2 364/16/2
f 348/17/2 349/15/2 364/16/2
f 348/17/2 364/16/2 365/18/2
f 347/19/2 348/17/2 365/18/2
f 347/19/2 365/18/2 366/20/2
f 346/21/2 347/19/2 366/20/2
f 346/21/2 366/20/2 367/22/2
f 345/23/2 346/21/2 367/22/2
f 345/23/2 367/22/2 368/24/2
f 344/25/2 345/23/2 368/24/2
f 344/25/2 368/24/2 369/26/2
f 343/27/2 344/25/2 369/26/2
f 343/27/2 369/26/2 370/28/2
f 342/29/2 343/27/2 370/28/2
f 342/29/2 370/28/2 371/30/2
f 341/31/2 342/29/2 371/30/2
f 341/31/2 371/30/2 372/32/2
f 340/33/2 341/31/2 372/32/2
f 340/33/2 372/32/2 373/34/2
f 339/35/2 340/33/2 373/34/2
f 339/35/2 373/34/2 374/36/2
f 338/37/2 339/35/2 374/36/2
f 338/37/2 374/36/2 375/38/2
f 337/39/2 338/37/2 375/38/2
f 337/39/2 375/38/2 376/40/2
f 336/41/2 337/39/2 376/40/2
f 336/41/2 376/40/2 377/42/2
f 335/43/2 336/41/2 377/42/2
f 335/43/2 377/42/2 378/44/2
f 334/45/2 335/43/2 378/44/2
f 334/45/2 378/44/2 379/46/2
f 333/47/2 334/45/2 379/46/2
f 333/47/2 379/46/2 380/48/2
f 332/49/2 333/47/2 380/48/2
f 331/50/2 332/49/2 380/48/2
f 331/50/2 380/48/2 381/51/2
f 330/52/2 331/50/2 381/51/2
f 330/52/2 381/51/2 382/53/2
f 329/54/2 330/52/2 382/53/2
f 329/54/2 382/53/2 383/55/2
f 329/54/2 383/55/2 384/56/2
f 328/57/2 329/54/2 384/56/2
f 328/57/2 384/56/2 295/58/2
f 295/58/2 384/56/2 385/59/2
f 327/60/2 328/57/2 295/58/2
f 327/60/2 295/58/2 296/61/2
f 294/62/2 295/58/2 385/59/2
f 293/63/2 294/62/2 385/59/2
f 327/60/2 296/61/2 297/64/2
f 292/65/2 293/63/2 385/59/2
f 327/60/2 297/64/2 298/66/2
f 291/67/2 292/65/2 385/59/2
f 327/60/2 298/66/2 299/68/2
f 290/69/2 291/67/2 385/59/2
f 327/60/2 299/68/2 300/70/2
f 289/71/2 290/69/2 385/59/2
f 327/60/2 300/70/2 301/72/2
f 289/71/2 385/59/2 386/73/2
f 288/74/2 289/71/2 386/73/2
f 327/60/2 301/72/2 302/75/2
f 326/76/2 327/60/2 302/75/2
f 287/77/2 288/74/2 386/73/2
f 326/76/2 302/75/2 303/78/2
f 286/79/2 287/77/2 386/73/2
f 326/76/2 303/78/2 304/80/2
f 285/81/2 286/79/2 386/73/2
f 326/76/2 304/80/2 305/82/2
f 285/81/2 386/73/2 387/83/2
f 284/84/2 285/81/2 387/83/2
f 326/76/2 305/82/2 306/85/2
f 325/86/2 326/76/2 306/85/2
f 283/87/2 284/84/2 387/83/2
f 325/86/2 306/85/2 307/88/2
f 283/87/2 387/83/2 388/89/2
f 282/90/2 283/87/2 388/89/2
f 325/86/2 307/88/2 308/91/2
f 281/92/2 282/90/2 388/89/2
f 325/86/2 308/91/2 309/93/2
f 324/94/2 325/86/2 309/93/2
f 280/95/2 281/92/2 388/89/2
f 280/95/2 388/89/2 389/96/2
f 324/94/2 309/93/2 310/97/2
f 279/98/2 280/95/2 389/96/2
f 324/94/2 310/97/2 311/99/2
f 278/100/2 279/98/2 389/96/2
f 323/101/2 324/94/2 311/99/2
f 278/100/2 389/96/2 390/102/2
f 323/101/2 311/99/2 312/103/2
f 277/104/2 278/100/2 390/102/2
f 276/105/2 277/104/2 390/102/2
f 323/101/2 312/103/2 313/106/2
f 276/105/2 390/102/2 391/107/2
f 322/108/2 323/101/2 313/106/2
f 275/109/2 276/105/2 391/107/2
f 322/108/2 313/106/2 314/110/2
f 274/111/2 275/109/2 391/107/2
f 274/111/2 391/107/2 392/112/2
f 273/113/2 274/111/2 392/112/2
f 322/108/2 314/110/2 315/114/2
f 321/115/2 322/108/2 315/114/2
f 272/116/2 273/113/2 392/112/2
f 321/115/2 315/114/2 316/117/2
f 272/116/2 392/112/2 393/118/2
f 271/119/2 272/116/2 393/118/2
f 320/120/2 321/115/2 316/117/2
f 270/121/2 271/119/2 393/118/2
f 320/120/2 316/117/2 317/122/2
f 270/121/2 393/118/2 394/123/2
f 269/124/2 270/121/2 394/123/2
f 320/120/2 317/122/2 318/125/2
f 268/126/2 269/124/2 394/123/2
f 319/127/2 320/120/2 318/125/2
f 268/126/2 394/123/2 395/128/2
f 267/129/2 268/126/2 395/128/2
f 266/130/2 267/129/2 395/128/2
f 266/130/2 395/128/2 396/131/2
f 265/132/2 266/130/2 396/131/2
f 264/133/2 265/132/2 396/131/2
f 264/133/2 396/131/2 397/134/2
f 263/135/2 264/133/2 397/134/2
f 262/136/2 263/135/2 397/134/2
f 262/136/2 397/134/2 398/137/2
f 261/138/2 262/136/2 398/137/2
f 260/139/2 261/138/2 398/137/2
f 260/139/2 398/137/2 399/140/2
f 259/141/2 260/139/2 399/140/2
f 258/142/2 259/141/2 399/140/2
f 258/142/2 399/140/2 400/143/2
f 257/144/2 258/142/2 400/143/2
f 256/145/2 257/144/2 400/143/2
f 256/145/2 400/143/2 401/146/2
f 255/147/2 256/145/2 401/146/2
f 255/147/2 401/146/2 402/148/2
f 254/149/2 255/147/2 402/148/2
f 253/150/2 254/149/2 402/148/2
f 253/150/2 402/148/2 403/151/2
f 252/152/2 253/150/2 403/151/2
f 252/152/2 403/151/2 404/153/2
f 251/154/2 252/152/2 404/153/2
f 251/154/2 404/153/2 405/155/2
f 250/156/2 251/154/2 405/155/2
f 250/156/2 405/155/2 406/157/2
f 249/158/2 250/156/2 406/157/2
f 249/158/2 406/157/2 407/159/2
f 248/160/2 249/158/2 407/159/2
f 248/160/2 407/159/2 408/161/2
f 247/162/2 248/160/2 408/161/2
f 247/162/2 408/161/2 409/163/2
f 246/164/2 247/162/2 409/163/2
f 246/164/2 409/163/2 410/165/2
f 245/166/2 246/164/2 410/165/2
f 245/166/2 410/165/2 411/167/2
f 245/166/2 411/167/2 412/168/2
f 244/169/2 245/166/2 412/168/2
f 244/169/2 412/168/2 413/170/2
f 243/171/2 244/169/2 413/170/2
f 243/171/2 413/170/2 414/172/2
f 243/171/2 414/172/2 415/173/2
f 242/174/2 243/171/2 415/173/2
f 242/174/2 415/173/2 416/175/2
f 241/176/2 242/174/2 416/175/2
f 241/176/2 416/175/2 417/177/2
f 241/176/2 417/177/2 418/178/2
f 240/179/2 241/176/2 418/178/2
f 240/179/2 418/178/2 419/180/2
f 240/179/2 419/180/2 420/181/2
f 240/179/2 420/181/2 421/182/2
f 239/183/2 240/179/2 421/182/2
f 239/183/2 421/182/2 422/184/2
f 239/183/2 422/184/2 423/185/2
f 239/183/2 423/185/2 424/186/2
f 238/187/2 239/183/2 424/186/2
f 238/187/2 424/186/2 425/188/2
f 238/187/2 425/188/2 426/189/2
f 238/187/2 426/189/2 427/190/2
f 238/187/2 427/190/2 428/191/2
f 237/192/2 238/187/2 428/191/2
f 237/192/2 428/191/2 429/193/2
f 237/192/2 429/193/2 430/194/2
f 237/192/2 430/194/2 431/195/2
f 237/192/2 431/195/2 432/196/2
f 237/192/2 432/196/2 433/197/2
f 236/198/2 237/192/2 433/197/2
f 236/198/2 433/197/2 434/199/2
f 236/198/2 434/199/2 435/200/2
f 236/198/2 435/200/2 436/201/2
f 235/202/2 236/198/2 436/201/2
f 235/202/2 436/201/2 437/203/2
f 235/202/2 437/203/2 438/204/2
f 235/202/2 438/204/2 439/205/2
f 235/202/2 439/205/2 440/206/2
f 234/207/2 235/202/2 440/206/2
f 234/207/2 440/206/2 221/208/2
f 234/207/2 221/208/2 222/209/2
f 233/210/2 234/207/2 222/209/2
f 232/211/2 233/210/2 222/209/2
f 231/212/2 232/211/2 222/209/2
f 230/213/2 231/212/2 222/209/2
f 229/214/2 230/213/2 222/209/2
f 228/215/2 229/214/2 222/209/2
f 227/216/2 228/215/2 222/209/2
f 226/217/2 227/216/2 222/209/2
f 225/218/2 226/217/2 222/209/2
f 224/219/2 225/218/2 222/209/2
f 223/220/2 224/219/2 222/209/2
s 1
f 444/221/3 441/208/4 442/222/4
f 446/223/5 443/224/3 444/221/3
f 448/225/6 445/226/5 446/223/5
f 450/227/7 447/228/6 448/225/6
f 452/229/8 449/230/7 450/227/7
f 454/231/9 451/232/8 452/229/8
f 456/233/10 453/234/9 454/231/9
f 458/235/11 455/236/10 456/233/10
f 460/237/12 457/238/11 458/235/11
f 462/239/13 459/240/12 460/237/12
f 464/241/14 461/242/13 462/239/13
f 466/243/15 463/244/14 464/241/14
f 468/245/16 465/246/15 466/243/15
f 470/247/17 467/248/16 468/245/16
f 472/249/18 469/250/17 470/247/17
f 474/251/19 471/252/18 472/249/18
f 476/253/20 473/254/19 474/251/19
f 478/255/21 475/256/20 476/253/20
f 480/257/22 477/258/21 478/255/21
f 482/259/23 479/260/22 480/257/22
f 484/261/24 481/262/23 482/259/23
f 486/263/25 483/264/24 484/261/24
f 488/265/26 485/266/25 486/263/25
f 490/267/27 487/268/26 488/265/26
f 492/269/28 489/270/27 490/267/27
f 494/271/29 491/272/28 492/269/28
f 496/273/30 493/274/29 494/271/29
f 498/275/31 495/276/30 496/273/30
f 500/277/32 497/278/31 498/275/31
f 502/279/33 499/280/32 500/277/32
f 504/281/34 501/282/33 502/279/33
f 506/283/35 503/284/34 504/281/34
f 508/285/36 505/286/35 506/283/35
f 510/287/37 507/288/36 508/285/36
f 512/289/38 509/290/37 510/287/37
f 514/291/39 511/292/38 512/289/38
f 516/293/40 513/294/39 514/291/39
f 518/295/41 515/296/40 516/293/40
f 520/297/42 517/298/41 518/295/41
f 522/299/43 519/300/42 520/297/42
f 524/301/44 521/302/43 522/299/43
f 526/303/45 523/304/44 524/301/44
f 528/305/46 525/306/45 526/303/45
f 530/307/47 527/308/46 528/305/46
f 532/309/48 529/310/47 530/307/47
f 534/311/49 531/312/48 532/309/48
f 536/313/50 533/314/49 534/311/49
f 538/315/51 535/316/50 536/313/50
f 540/317/52 537/318/51 538/315/51
f 542/319/53 539/320/52 540/317/52
f 544/321/54 541/322/53 542/319/53
f 546/323/55 543/324/54 544/321/54
f 548/325/56 545/326/55 546/323/55
f 550/327/57 547/328/56 548/325/56
f 552/329/58 549/330/57 550/327/57
f 554/331/59 551/332/58 552/329/58
f 556/333/60 553/334/59 554/331/59
f 558/335/61 555/336/60 556/333/60
f 560/337/62 557/338/61 558/335/61
f 562/339/63 559/340/62 560/337/62
f 564/341/64 561/342/63 562/339/63
f 566/343/65 563/344/64 564/341/64
f 568/345/66 565/346/65 566/343/65
f 570/347/67 567/348/66 568/345/66
f 572/349/68 569/350/67 570/347/67
f 574/351/69 571/352/68 572/349/68
f 576/353/70 573/354/69 574/351/69
f 578/355/71 575/356/70 576/353/70
f 580/357/72 577/358/71 578/355/71
f 582/359/73 579/360/72 580/357/72
f 584/361/74 581/362/73 582/359/73
f 586/363/75 583/364/74 584/361/74
f 588/365/76 585/366/75 586/363/75
f 590/367/77 587/368/76 588/365/76
f 592/369/78 589/370/77 590/367/77
f 594/371/79 591/372/78 592/369/78
f 596/373/80 593/374/79 594/371/79
f 598/375/81 595/376/80 596/373/80
f 600/377/82 597/378/81 598/375/81
f 602/379/83 599/380/82 600/377/82
f 604/381/84 601/382/83 602/379/83
f 606/383/85 603/384/84 604/381/84
f 608/385/86 605/386/85 606/383/85
f 610/387/87 607/388/86 608/385/86
f 612/389/88 609/390/87 610/387/87
f 614/391/89 611/392/88 612/389/88
f 616/393/90 613/394/89 614/391/89
f 618/395/91 615/396/90 616/393/90
f 620/397/92 617/398/91 618/395/91
f 622/399/93 619/400/92 620/397/92
f 624/401/94 621/402/93 622/399/93
f 626/403/95 623/404/94 624/401/94
f 628/405/96 625/406/95 626/403/95
f 630/407/97 627/408/96 628/405/96
f 632/409/98 629/410/97 630/407/97
f 634/411/99 631/412/98 632/409/98
f 636/413/100 633/414/99 634/411/99
f 638/415/101 635/416/100 636/413/100
f 640/417/102 637/418/103 638/415/101
f 642/419/104 639/420/105 640/417/102
f 644/421/106 641/422/104 642/419/104
f 646/423/107 643/424/106 644/421/106
f 648/425/108 645/426/107 646/423/107
f 650/427/109 647/428/108 648/425/108
f 652/429/110 649/430/109 650/427/109
f 654/431/111 651/432/110 652/429/110
f 656/433/112 653/434/111 654/431/111
f 658/435/113 655/436/112 656/433/112
f 660/437/114 657/438/113 658/435/113
f 662/439/115 659/440/114 660/437/114
f 664/441/116 661/442/115 662/439/115
f 666/443/117 663/444/116 664/441/116
f 668/445/118 665/446/117 666/443/117
f 670/447/119 667/448/118 668/445/118
f 672/449/120 669/450/119 670/447/119
f 674/451/121 671/452/120 672/449/120
f 676/453/122 673/454/121 674/451/121
f 678/455/123 675/456/122 676/453/122
f 680/457/124 677/458/123 678/455/123
f 682/459/125 679/460/124 680/457/124
f 684/461/126 681/462/125 682/459/125
f 686/463/127 683/464/126 684/461/126
f 688/465/128 685/466/127 686/463/127
f 690/467/129 687/468/128 688/465/128
f 692/469/130 689/470/129 690/467/129
f 694/471/131 691/472/130 692/469/130
f 696/473/132 693/474/131 694/471/131
f 698/475/133 695/476/132 696/473/132
f 700/477/134 697/478/133 698/475/133
f 702/479/135 699/480/134 700/477/134
f 704/481/136 701/482/135 702/479/135
f 706/483/137 703/484/136 704/481/136
f 708/485/138 705/486/137 706/483/137
f 710/487/139 707/488/138 708/485/138
f 712/489/140 709/490/139 710/487/139
f 714/491/141 711/492/140 712/489/140
f 716/493/142 713/494/141 714/491/141
f 718/495/143 715/496/142 716/493/142
f 720/497/144 717/498/143 718/495/143
f 722/499/145 719/500/144 720/497/144
f 724/501/146 721/502/145 722/499/145
f 726/503/147 723/504/146 724/501/146
f 728/505/148 725/506/147 726/503/147
f 730/507/149 727/508/148 728/505/148
f 732/509/150 729/510/149 730/507/149
f 734/511/151 731/512/150 732/509/150
f 736/513/152 733/514/151 734/511/151
f 738/515/153 735/516/152 736/513/152
f 740/517/154 737/518/153 738/515/153
f 742/519/155 739/520/154 740/517/154
f 744/521/156 741/522/155 742/519/155
f 746/523/157 743/524/156 744/521/156
f 748/525/158 745/526/157 746/523/157
f 750/527/159 747/528/158 748/525/158
f 752/529/160 749/530/159 750/527/159
f 754/531/161 751/532/160 752/529/160
f 756/533/162 753/534/161 754/531/161
f 758/535/163 755/536/162 756/533/162
f 760/537/164 757/538/163 758/535/163
f 762/539/165 759/540/164 760/537/164
f 764/541/166 761/542/165 762/539/165
f 766/543/167 763/544/166 764/541/166
f 768/545/168 765/546/167 766/543/167
f 770/547/169 767/548/168 768/545/168
f 772/549/170 769/550/169 770/547/169
f 774/551/171 771/552/170 772/549/170
f 776/553/172 773/554/171 774/551/171
f 778/555/173 775/556/172 776/553/172
f 780/557/174 777/558/173 778/555/173
f 782/559/175 779/560/174 780/557/174
f 784/561/176 781/562/175 782/559/175
f 786/563/177 783/564/176 784/561/176
f 788/565/178 785/566/177 786/563/177
f 790/567/179 787/568/178 788/565/178
f 792/569/180 789/570/179 790/567/179
f 794/571/181 791/572/180 792/569/180
f 796/573/182 793/574/181 794/571/181
f 798/575/183 795/576/182 796/573/182
f 800/577/184 797/578/183 798/575/183
f 802/579/185 799/580/184 800/577/184
f 804/581/186 801/582/185 802/579/185
f 806/583/187 803/584/186 804/581/186
f 808/585/188 805/586/187 806/583/187
f 810/587/189 807/588/188 808/585/188
f 812/589/190 809/590/189 810/587/189
f 814/591/191 811/592/190 812/589/190
f 816/593/192 813/594/191 814/591/191
f 818/595/193 815/596/192 816/593/192
f 820/597/194 817/598/193 818/595/193
f 822/599/195 819/600/194 820/597/194
f 824/601/196 821/602/195 822/599/195
f 826/603/197 823/604/196 824/601/196
f 828/605/198 825/606/197 826/603/197
f 830/607/199 827/608/198 828/605/198
f 832/609/200 829/610/199 830/607/199
f 834/611/201 831/612/200 832/609/200
f 836/613/202 833/614/201 834/611/201
f 838/615/203 835/616/202 836/613/202
f 840/617/204 837/618/203 838/615/203
f 842/619/205 839/620/204 840/617/204
f 844/621/206 841/622/205 842/619/205
f 846/623/207 843/624/206 844/621/206
f 848/625/208 845/626/207 846/623/207
f 850/627/209 847/628/208 848/625/208
f 852/629/210 849/630/209 850/627/209
f 854/631/211 851/632/210 852/629/210
f 856/633/212 853/634/211 854/631/211
f 858/635/213 855/636/212 856/633/212
f 860/637/214 857/638/213 858/635/213
f 862/639/215 859/640/214 860/637/214
f 864/641/216 861/642/215 862/639/215
f 866/643/217 863/644/216 864/641/216
f 868/645/218 865/646/217 866/643/217
f 870/647/219 867/648/218 868/645/218
f 872/649/220 869/650/219 870/647/219
f 874/651/221 871/652/220 872/649/220
f 876/653/222 873/654/221 874/651/221
f 878/655/223 875/656/222 876/653/222
f 880/657/224 877/658/223 878/655/223
f 442/659/4 879/660/225 880/657/224
f 444/221/3 443/224/3 441/208/4
f 446/223/5 445/226/5 443/224/3
f 448/225/6 447/228/6 445/226/5
f 450/227/7 449/230/7 447/228/6
f 452/229/8 451/232/8 449/230/7
f 454/231/9 453/234/9 451/232/8
f 456/233/10 455/236/10 453/234/9
f 458/235/11 457/238/11 455/236/10
f 460/237/12 459/240/12 457/238/11
f 462/239/13 461/242/13 459/240/12
f 464/241/14 463/244/14 461/242/13
f 466/243/15 465/246/15 463/244/14
f 468/245/16 467/248/16 465/246/15
f 470/247/17 469/250/17 467/248/16
f 472/249/18 471/252/18 469/250/17
f 474/251/19 473/254/19 471/252/18
f 476/253/20 475/256/20 473/254/19
f 478/255/21 477/258/21 475/256/20
f 480/257/22 479/260/22 477/258/21
f 482/259/23 481/262/23 479/260/22
f 484/261/24 483/264/24 481/262/23
f 486/263/25 485/266/25 483/264/24
f 488/265/26 487/268/26 485/266/25
f 490/267/27 489/270/27 487/268/26
f 492/269/28 491/272/28 489/270/27
f 494/271/29 493/274/29 491/272/28
f 496/273/30 495/276/30 493/274/29
f 498/275/31 497/278/31 495/276/30
f 500/277/32 499/280/32 497/278/31
f 502/279/33 501/282/33 499/280/32
f 504/281/34 503/284/34 501/282/33
f 506/283/35 505/286/35 503/284/34
f 508/285/36 507/288/36 505/286/35
f 510/287/37 509/290/37 507/288/36
f 512/289/38 511/292/38 509/290/37
f 514/291/39 513/294/39 511/292/38
f 516/293/40 515/296/40 513/294/39
f 518/295/41 517/298/41 515/296/40
f 520/297/42 519/300/42 517/298/41
f 522/299/43 521/302/43 519/300/42
f 524/301/44 523/304/44 521/302/43
f 526/303/45 525/306/45 523/304/44
f 528/305/46 527/308/46 525/306/45
f 530/307/47 529/310/47 527/308/46
f 532/309/48 531/312/48 529/310/47
f 534/311/49 533/314/49 531/312/48
f 536/313/50 535/316/50 533/314/49
f 538/315/51 537/318/51 535/316/50
f 540/317/52 539/320/52 537/318/51
f 542/319/53 541/322/53 539/320/52
f 544/321/54 543/324/54 541/322/53
f 546/323/55 545/326/55 543/324/54
f 548/325/56 547/328/56 545/326/55
f 550/327/57 549/330/57 547/328/56
f 552/329/58 551/332/58 549/330/57
f 554/331/59 553/334/59 551/332/58
f 556/333/60 555/336/60 553/334/59
f 558/335/61 557/338/61 555/336/60
f 560/337/62 559/340/62 557/338/61
f 562/339/63 561/342/63 559/340/62
f 564/341/64 563/344/64 561/342/63
f 566/343/65 565/346/65 563/344/64
f 568/345/66 567/348/66 565/346/65
f 570/347/67 569/350/67 567/348/66
f 572/349/68 571/352/68 569/350/67
f 574/351/69 573/354/69 571/352/68
f 576/353/70 575/356/70 573/354/69
f 578/355/71 577/358/71 575/356/70
f 580/357/72 579/360/72 577/358/71
f 582/359/73 581/362/73 579/360/72
f 584/361/74 583/364/74 581/362/73
f 586/363/75 585/366/75 583/364/74
f 588/365/76 587/368/76 585/366/75
f 590/367/77 589/370/77 587/368/76
f 592/369/78 591/372/78 589/370/77
f 594/371/79 593/374/79 591/372/78
f 596/373/80 595/376/80 593/374/79
f 598/375/81 597/378/81 595/376/80
f 600/377/82 599/380/82 597/378/81
f 602/379/83 601/382/83 599/380/82
f 604/381/84 603/384/84 601/382/83
f 606/383/85 605/386/85 603/384/84
f 608/385/86 607/388/86 605/386/85
f 610/387/87 609/390/87 607/388/86
f 612/389/88 611/392/88 609/390/87
f 614/391/89 613/394/89 611/392/88
f 616/393/90 615/396/90 613/394/89
f 618/395/91 617/398/91 615/396/90
f 620/397/92 619/400/92 617/398/91
f 622/399/93 621/402/93 619/400/92
f 624/401/94 623/404/94 621/402/93
f 626/403/95 625/406/95 623/404/94
f 628/405/96 627/408/96 625/406/95
f 630/407/97 629/410/97 627/408/96
f 632/409/98 631/412/98 629/410/97
f 634/411/99 633/414/99 631/412/98
f 636/413/100 635/416/100 633/414/99
f 638/415/101 637/418/103 635/416/100
f 640/417/102 639/420/105 637/418/103
f 642/419/104 641/422/104 639/420/105
f 644/421/106 643/424/106 641/422/104
f 646/423/107 645/426/107 643/424/106
f 648/425/108 647/428/108 645/426/107
f 650/427/109 649/430/109 647/428/108
f 652/429/110 651/432/110 649/430/109
f 654/431/111 653/434/111 651/432/110
f 656/433/112 655/436/112 653/434/111
f 658/435/113 657/438/113 655/436/112
f 660/437/114 659/440/114 657/438/113
f 662/439/115 661/442/115 659/440/114
f 664/441/116 663/444/116 661/442/115
f 666/443/117 665/446/117 663/444/116
f 668/445/118 667/448/118 665/446/117
f 670/447/119 669/450/119 667/448/118
f 672/449/120 671/452/120 669/450/119
f 674/451/121 673/454/121 671/452/120
f 676/453/122 675/456/122 673/454/121
f 678/455/123 677/458/123 675/456/122
f 680/457/124 679/460/124 677/458/123
f 682/459/125 681/462/125 679/460/124
f 684/461/126 683/464/126 681/462/125
f 686/463/127 685/466/127 683/464/126
f 688/465/128 687/468/128 685/466/127
f 690/467/129 689/470/129 687/468/128
f 692/469/130 691/472/130 689/470/129
f 694/471/131 693/474/131 691/472/130
f 696/473/132 695/476/132 693/474/131
f 698/475/133 697/478/133 695/476/132
f 700/477/134 699/480/134 697/478/133
f 702/479/135 701/482/135 699/480/134
f 704/481/136 703/484/136 701/482/135
f 706/483/137 705/486/137 703/484/136
f 708/485/138 707/488/138 705/486/137
f 710/487/139 709/490/139 707/488/138
f 712/489/140 711/492/140 709/490/139
f 714/491/141 713/494/141 711/492/140
f 716/493/142 715/496/142 713/494/141
f 718/495/143 717/498/143 715/496/142
f 720/497/144 719/500/144 717/498/143
f 722/499/145 721/502/145 719/500/144
f 724/501/146 723/504/146 721/502/145
f 726/503/147 725/506/147 723/504/146
f 728/505/148 727/508/148 725/506/147
f 730/507/149 729/510/149 727/508/148
f 732/509/150 731/512/150 729/510/149
f 734/511/151 733/514/151 731/512/150
f 736/513/152 735/516/152 733/514/151
f 738/515/153 737/518/153 735/516/152
f 740/517/154 739/520/154 737/518/153
f 742/519/155 741/522/155 739/520/154
f 744/521/156 743/524/156 741/522/155
f 746/523/157 745/526/157 743/524/156
f 748/525/158 747/528/158 745/526/157
f 750/527/159 749/530/159 747/528/158
f 752/529/160 751/532/160 749/530/159
f 754/531/161 753/534/161 751/532/160
f 756/533/162 755/536/162 753/534/161
f 758/535/163 757/538/163 755/536/162
f 760/537/164 759/540/164 757/538/163
f 762/539/165 761/542/165 759/540/164
f 764/541/166 763/544/166 761/542/165
f 766/543/167 765/546/167 763/544/166
f 768/545/168 767/548/168 765/546/167
f 770/547/169 769/550/169 767/548/168
f 772/549/170 771/552/170 769/550/169
f 774/551/171 773/554/171 771/552/170
f 776/553/172 775/556/172 773/554/171
f 778/555/173 777/558/173 775/556/172
f 780/557/174 779/560/174 777/558/173
f 782/559/175 781/562/175 779/560/174
f 784/561/176 783/564/176 781/562/175
f 786/563/177 785/566/177 783/564/176
f 788/565/178 787/568/178 785/566/177
f 790/567/179 789/570/179 787/568/178
f 792/569/180 791/572/180 789/570/179
f 794/571/181 793/574/181 791/572/180
f 796/573/182 795/576/182 793/574/181
f 798/575/183 797/578/183 795/576/182
f 800/577/184 799/580/184 797/578/183
f 802/579/185 801/582/185 799/580/184
f 804/581/186 803/584/186 801/582/185
f 806/583/187 805/586/187 803/584/186
f 808/585/188 807/588/188 805/586/187
f 810/587/189 809/590/189 807/588/188
f 812/589/190 811/592/190 809/590/189
f 814/591/191 813/594/191 811/592/190
f 816/593/192 815/596/192 813/594/191
f 818/595/193 817/598/193 815/596/192
f 820/597/194 819/600/194 817/598/193
f 822/599/195 821/602/195 819/600/194
f 824/601/196 823/604/196 821/602/195
f 826/603/197 825/606/197 823/604/196
f 828/605/198 827/608/198 825/606/197
f 830/607/199 829/610/199 827/608/198
f 832/609/200 831/612/200 829/610/199
f 834/611/201 833/614/201 831/612/200
f 836/613/202 835/616/202 833/614/201
f 838/615/203 837/618/203 835/616/202
f 840/617/204 839/620/204 837/618/203
f 842/619/205 841/622/205 839/620/204
f 844/621/206 843/624/206 841/622/205
f 846/623/207 845/626/207 843/624/206
f 848/625/208 847/628/208 845/626/207
f 850/627/209 849/630/209 847/628/208
f 852/629/210 851/632/210 849/630/209
f 854/631/211 853/634/211 851/632/210
f 856/633/212 855/636/212 853/634/211
f 858/635/213 857/638/213 855/636/212
f 860/637/214 859/640/214 857/638/213
f 862/639/215 861/642/215 859/640/214
f 864/641/216 863/644/216 861/642/215
f 866/643/217 865/646/217 863/644/216
f 868/645/218 867/648/218 865/646/217
f 870/647/219 869/650/219 867/648/218
f 872/649/220 871/652/220 869/650/219
f 874/651/221 873/654/221 871/652/220
f 876/653/222 875/656/222 873/654/221
f 878/655/223 877/658/223 875/656/222
f 880/657/224 879/660/225 877/658/223
f 442/659/4 441/206/4 879/660/225
