# Blender 4.4.1
# www.blender.org
mtllib 5.mtl
o テキスト
v -0.197752 -0.046365 0.010000
v -0.152441 0.230418 0.010000
v 0.187215 0.230418 0.010000
v 0.187215 0.116263 0.010000
v -0.042852 0.116263 0.010000
v -0.055146 0.038988 0.010000
v -0.051169 0.040823 0.010000
v -0.047199 0.042579 0.010000
v -0.043236 0.044257 0.010000
v -0.039281 0.045857 0.010000
v -0.035333 0.047379 0.010000
v -0.031393 0.048823 0.010000
v -0.027459 0.050189 0.010000
v -0.023534 0.051477 0.010000
v -0.019615 0.052687 0.010000
v -0.015704 0.053819 0.010000
v -0.011800 0.054873 0.010000
v -0.007903 0.055848 0.010000
v -0.004014 0.056746 0.010000
v -0.000132 0.057565 0.010000
v 0.003743 0.058307 0.010000
v 0.007610 0.058970 0.010000
v 0.011470 0.059556 0.010000
v 0.015323 0.060063 0.010000
v 0.019169 0.060493 0.010000
v 0.023007 0.060844 0.010000
v 0.026837 0.061117 0.010000
v 0.030661 0.061312 0.010000
v 0.034477 0.061429 0.010000
v 0.038286 0.061468 0.010000
v 0.050963 0.061144 0.010000
v 0.063234 0.060171 0.010000
v 0.075101 0.058548 0.010000
v 0.086563 0.056278 0.010000
v 0.097620 0.053358 0.010000
v 0.108272 0.049789 0.010000
v 0.118519 0.045572 0.010000
v 0.128361 0.040706 0.010000
v 0.137799 0.035191 0.010000
v 0.146831 0.029027 0.010000
v 0.155458 0.022214 0.010000
v 0.163681 0.014752 0.010000
v 0.171367 0.006798 0.010000
v 0.178385 -0.001493 0.010000
v 0.184734 -0.010120 0.010000
v 0.190415 -0.019084 0.010000
v 0.195427 -0.028385 0.010000
v 0.199772 -0.038022 0.010000
v 0.203448 -0.047996 0.010000
v 0.206455 -0.058307 0.010000
v 0.208794 -0.068954 0.010000
v 0.210465 -0.079938 0.010000
v 0.211468 -0.091258 0.010000
v 0.211802 -0.102915 0.010000
v 0.211630 -0.111201 0.010000
v 0.211114 -0.119434 0.010000
v 0.210254 -0.127612 0.010000
v 0.209050 -0.135737 0.010000
v 0.207503 -0.143809 0.010000
v 0.205611 -0.151826 0.010000
v 0.203376 -0.159791 0.010000
v 0.200796 -0.167701 0.010000
v 0.197873 -0.175558 0.010000
v 0.194605 -0.183361 0.010000
v 0.190994 -0.191110 0.010000
v 0.187039 -0.198806 0.010000
v 0.182768 -0.206323 0.010000
v 0.178209 -0.213539 0.010000
v 0.173362 -0.220451 0.010000
v 0.168228 -0.227062 0.010000
v 0.162805 -0.233369 0.010000
v 0.157095 -0.239375 0.010000
v 0.151097 -0.245078 0.010000
v 0.144811 -0.250478 0.010000
v 0.138238 -0.255576 0.010000
v 0.131376 -0.260372 0.010000
v 0.124227 -0.264865 0.010000
v 0.116790 -0.269055 0.010000
v 0.109032 -0.272926 0.010000
v 0.100920 -0.276461 0.010000
v 0.092455 -0.279658 0.010000
v 0.083636 -0.282520 0.010000
v 0.074463 -0.285044 0.010000
v 0.064937 -0.287232 0.010000
v 0.055057 -0.289084 0.010000
v 0.044823 -0.290598 0.010000
v 0.034236 -0.291776 0.010000
v 0.023295 -0.292618 0.010000
v 0.012000 -0.293123 0.010000
v 0.000351 -0.293291 0.010000
v -0.008036 -0.293224 0.010000
v -0.016221 -0.293023 0.010000
v -0.024203 -0.292687 0.010000
v -0.031983 -0.292218 0.010000
v -0.039560 -0.291614 0.010000
v -0.046935 -0.290876 0.010000
v -0.054108 -0.290004 0.010000
v -0.061078 -0.288998 0.010000
v -0.067846 -0.287858 0.010000
v -0.074411 -0.286583 0.010000
v -0.080773 -0.285175 0.010000
v -0.086934 -0.283632 0.010000
v -0.092917 -0.281956 0.010000
v -0.098749 -0.280149 0.010000
v -0.104430 -0.278210 0.010000
v -0.109960 -0.276139 0.010000
v -0.115338 -0.273936 0.010000
v -0.120566 -0.271602 0.010000
v -0.125642 -0.269136 0.010000
v -0.130566 -0.266538 0.010000
v -0.135340 -0.263808 0.010000
v -0.139962 -0.260947 0.010000
v -0.144433 -0.257954 0.010000
v -0.148753 -0.254830 0.010000
v -0.152930 -0.251604 0.010000
v -0.156973 -0.248307 0.010000
v -0.160882 -0.244940 0.010000
v -0.164657 -0.241502 0.010000
v -0.168297 -0.237993 0.010000
v -0.171804 -0.234413 0.010000
v -0.175176 -0.230763 0.010000
v -0.178414 -0.227042 0.010000
v -0.181518 -0.223250 0.010000
v -0.184488 -0.219388 0.010000
v -0.187323 -0.215455 0.010000
v -0.190025 -0.211451 0.010000
v -0.192622 -0.207328 0.010000
v -0.195147 -0.203040 0.010000
v -0.197598 -0.198586 0.010000
v -0.199977 -0.193966 0.010000
v -0.202282 -0.189181 0.010000
v -0.204514 -0.184229 0.010000
v -0.206672 -0.179112 0.010000
v -0.208758 -0.173828 0.010000
v -0.210770 -0.168379 0.010000
v -0.212709 -0.162764 0.010000
v -0.214575 -0.156983 0.010000
v -0.216368 -0.151036 0.010000
v -0.071654 -0.135230 0.010000
v -0.070679 -0.140910 0.010000
v -0.069508 -0.146358 0.010000
v -0.068142 -0.151574 0.010000
v -0.066581 -0.156559 0.010000
v -0.064825 -0.161311 0.010000
v -0.062873 -0.165832 0.010000
v -0.060727 -0.170122 0.010000
v -0.058385 -0.174179 0.010000
v -0.055848 -0.178005 0.010000
v -0.053116 -0.181600 0.010000
v -0.050189 -0.184962 0.010000
v -0.047067 -0.188093 0.010000
v -0.043796 -0.190982 0.010000
v -0.040423 -0.193620 0.010000
v -0.036947 -0.196007 0.010000
v -0.033368 -0.198142 0.010000
v -0.029688 -0.200027 0.010000
v -0.025904 -0.201660 0.010000
v -0.022019 -0.203041 0.010000
v -0.018031 -0.204172 0.010000
v -0.013940 -0.205051 0.010000
v -0.009747 -0.205679 0.010000
v -0.005452 -0.206056 0.010000
v -0.001054 -0.206182 0.010000
v 0.003850 -0.206025 0.010000
v 0.008610 -0.205553 0.010000
v 0.013227 -0.204766 0.010000
v 0.017699 -0.203665 0.010000
v 0.022027 -0.202249 0.010000
v 0.026212 -0.200518 0.010000
v 0.030252 -0.198473 0.010000
v 0.034149 -0.196113 0.010000
v 0.037902 -0.193438 0.010000
v 0.041511 -0.190449 0.010000
v 0.044975 -0.187145 0.010000
v 0.048296 -0.183527 0.010000
v 0.051410 -0.179596 0.010000
v 0.054253 -0.175355 0.010000
v 0.056825 -0.170805 0.010000
v 0.059127 -0.165945 0.010000
v 0.061157 -0.160775 0.010000
v 0.062917 -0.155295 0.010000
v 0.064406 -0.149506 0.010000
v 0.065625 -0.143406 0.010000
v 0.066572 -0.136997 0.010000
v 0.067249 -0.130278 0.010000
v 0.067655 -0.123250 0.010000
v 0.067791 -0.115911 0.010000
v 0.067654 -0.108413 0.010000
v 0.067244 -0.101257 0.010000
v 0.066561 -0.094442 0.010000
v 0.065605 -0.087968 0.010000
v 0.064376 -0.081836 0.010000
v 0.062873 -0.076045 0.010000
v 0.061097 -0.070596 0.010000
v 0.059049 -0.065488 0.010000
v 0.056726 -0.060722 0.010000
v 0.054131 -0.056297 0.010000
v 0.051263 -0.052214 0.010000
v 0.048121 -0.048472 0.010000
v 0.044752 -0.045050 0.010000
v 0.041203 -0.041925 0.010000
v 0.037474 -0.039098 0.010000
v 0.033564 -0.036569 0.010000
v 0.029473 -0.034337 0.010000
v 0.025202 -0.032403 0.010000
v 0.020750 -0.030766 0.010000
v 0.016118 -0.029427 0.010000
v 0.011306 -0.028385 0.010000
v 0.006313 -0.027641 0.010000
v 0.001139 -0.027195 0.010000
v -0.004215 -0.027046 0.010000
v -0.007659 -0.027117 0.010000
v -0.011084 -0.027329 0.010000
v -0.014489 -0.027683 0.010000
v -0.017875 -0.028178 0.010000
v -0.021241 -0.028814 0.010000
v -0.024587 -0.029593 0.010000
v -0.027914 -0.030512 0.010000
v -0.031222 -0.031573 0.010000
v -0.034510 -0.032776 0.010000
v -0.037779 -0.034120 0.010000
v -0.041028 -0.035605 0.010000
v -0.044257 -0.037232 0.010000
v -0.046677 -0.038544 0.010000
v -0.049136 -0.040023 0.010000
v -0.051633 -0.041667 0.010000
v -0.054170 -0.043477 0.010000
v -0.056746 -0.045452 0.010000
v -0.059361 -0.047594 0.010000
v -0.062015 -0.049901 0.010000
v -0.064707 -0.052375 0.010000
v -0.067439 -0.055014 0.010000
v -0.070210 -0.057819 0.010000
v -0.073020 -0.060790 0.010000
v -0.075869 -0.063927 0.010000
v -0.197752 -0.046365 -0.010000
v -0.152441 0.230418 -0.010000
v 0.187215 0.230418 -0.010000
v 0.187215 0.116263 -0.010000
v -0.042852 0.116263 -0.010000
v -0.055146 0.038988 -0.010000
v -0.051169 0.040823 -0.010000
v -0.047199 0.042579 -0.010000
v -0.043236 0.044257 -0.010000
v -0.039281 0.045857 -0.010000
v -0.035333 0.047379 -0.010000
v -0.031393 0.048823 -0.010000
v -0.027459 0.050189 -0.010000
v -0.023534 0.051477 -0.010000
v -0.019615 0.052687 -0.010000
v -0.015704 0.053819 -0.010000
v -0.011800 0.054873 -0.010000
v -0.007903 0.055848 -0.010000
v -0.004014 0.056746 -0.010000
v -0.000132 0.057565 -0.010000
v 0.003743 0.058307 -0.010000
v 0.007610 0.058970 -0.010000
v 0.011470 0.059556 -0.010000
v 0.015323 0.060063 -0.010000
v 0.019169 0.060493 -0.010000
v 0.023007 0.060844 -0.010000
v 0.026837 0.061117 -0.010000
v 0.030661 0.061312 -0.010000
v 0.034477 0.061429 -0.010000
v 0.038286 0.061468 -0.010000
v 0.050963 0.061144 -0.010000
v 0.063234 0.060171 -0.010000
v 0.075101 0.058548 -0.010000
v 0.086563 0.056278 -0.010000
v 0.097620 0.053358 -0.010000
v 0.108272 0.049789 -0.010000
v 0.118519 0.045572 -0.010000
v 0.128361 0.040706 -0.010000
v 0.137799 0.035191 -0.010000
v 0.146831 0.029027 -0.010000
v 0.155458 0.022214 -0.010000
v 0.163681 0.014752 -0.010000
v 0.171367 0.006798 -0.010000
v 0.178385 -0.001493 -0.010000
v 0.184734 -0.010120 -0.010000
v 0.190415 -0.019084 -0.010000
v 0.195427 -0.028385 -0.010000
v 0.199772 -0.038022 -0.010000
v 0.203448 -0.047996 -0.010000
v 0.206455 -0.058307 -0.010000
v 0.208794 -0.068954 -0.010000
v 0.210465 -0.079938 -0.010000
v 0.211468 -0.091258 -0.010000
v 0.211802 -0.102915 -0.010000
v 0.211630 -0.111201 -0.010000
v 0.211114 -0.119434 -0.010000
v 0.210254 -0.127612 -0.010000
v 0.209050 -0.135737 -0.010000
v 0.207503 -0.143809 -0.010000
v 0.205611 -0.151826 -0.010000
v 0.203376 -0.159791 -0.010000
v 0.200796 -0.167701 -0.010000
v 0.197873 -0.175558 -0.010000
v 0.194605 -0.183361 -0.010000
v 0.190994 -0.191110 -0.010000
v 0.187039 -0.198806 -0.010000
v 0.182768 -0.206323 -0.010000
v 0.178209 -0.213539 -0.010000
v 0.173362 -0.220451 -0.010000
v 0.168228 -0.227062 -0.010000
v 0.162805 -0.233369 -0.010000
v 0.157095 -0.239375 -0.010000
v 0.151097 -0.245078 -0.010000
v 0.144811 -0.250478 -0.010000
v 0.138238 -0.255576 -0.010000
v 0.131376 -0.260372 -0.010000
v 0.124227 -0.264865 -0.010000
v 0.116790 -0.269055 -0.010000
v 0.109032 -0.272926 -0.010000
v 0.100920 -0.276461 -0.010000
v 0.092455 -0.279658 -0.010000
v 0.083636 -0.282520 -0.010000
v 0.074463 -0.285044 -0.010000
v 0.064937 -0.287232 -0.010000
v 0.055057 -0.289084 -0.010000
v 0.044823 -0.290598 -0.010000
v 0.034236 -0.291776 -0.010000
v 0.023295 -0.292618 -0.010000
v 0.012000 -0.293123 -0.010000
v 0.000351 -0.293291 -0.010000
v -0.008036 -0.293224 -0.010000
v -0.016221 -0.293023 -0.010000
v -0.024203 -0.292687 -0.010000
v -0.031983 -0.292218 -0.010000
v -0.039560 -0.291614 -0.010000
v -0.046935 -0.290876 -0.010000
v -0.054108 -0.290004 -0.010000
v -0.061078 -0.288998 -0.010000
v -0.067846 -0.287858 -0.010000
v -0.074411 -0.286583 -0.010000
v -0.080773 -0.285175 -0.010000
v -0.086934 -0.283632 -0.010000
v -0.092917 -0.281956 -0.010000
v -0.098749 -0.280149 -0.010000
v -0.104430 -0.278210 -0.010000
v -0.109960 -0.276139 -0.010000
v -0.115338 -0.273936 -0.010000
v -0.120566 -0.271602 -0.010000
v -0.125642 -0.269136 -0.010000
v -0.130566 -0.266538 -0.010000
v -0.135340 -0.263808 -0.010000
v -0.139962 -0.260947 -0.010000
v -0.144433 -0.257954 -0.010000
v -0.148753 -0.254830 -0.010000
v -0.152930 -0.251604 -0.010000
v -0.156973 -0.248307 -0.010000
v -0.160882 -0.244940 -0.010000
v -0.164657 -0.241502 -0.010000
v -0.168297 -0.237993 -0.010000
v -0.171804 -0.234413 -0.010000
v -0.175176 -0.230763 -0.010000
v -0.178414 -0.227042 -0.010000
v -0.181518 -0.223250 -0.010000
v -0.184488 -0.219388 -0.010000
v -0.187323 -0.215455 -0.010000
v -0.190025 -0.211451 -0.010000
v -0.192622 -0.207328 -0.010000
v -0.195147 -0.203040 -0.010000
v -0.197598 -0.198586 -0.010000
v -0.199977 -0.193966 -0.010000
v -0.202282 -0.189181 -0.010000
v -0.204514 -0.184229 -0.010000
v -0.206672 -0.179112 -0.010000
v -0.208758 -0.173828 -0.010000
v -0.210770 -0.168379 -0.010000
v -0.212709 -0.162764 -0.010000
v -0.214575 -0.156983 -0.010000
v -0.216368 -0.151036 -0.010000
v -0.071654 -0.135230 -0.010000
v -0.070679 -0.140910 -0.010000
v -0.069508 -0.146358 -0.010000
v -0.068142 -0.151574 -0.010000
v -0.066581 -0.156559 -0.010000
v -0.064825 -0.161311 -0.010000
v -0.062873 -0.165832 -0.010000
v -0.060727 -0.170122 -0.010000
v -0.058385 -0.174179 -0.010000
v -0.055848 -0.178005 -0.010000
v -0.053116 -0.181600 -0.010000
v -0.050189 -0.184962 -0.010000
v -0.047067 -0.188093 -0.010000
v -0.043796 -0.190982 -0.010000
v -0.040423 -0.193620 -0.010000
v -0.036947 -0.196007 -0.010000
v -0.033368 -0.198142 -0.010000
v -0.029688 -0.200027 -0.010000
v -0.025904 -0.201660 -0.010000
v -0.022019 -0.203041 -0.010000
v -0.018031 -0.204172 -0.010000
v -0.013940 -0.205051 -0.010000
v -0.009747 -0.205679 -0.010000
v -0.005452 -0.206056 -0.010000
v -0.001054 -0.206182 -0.010000
v 0.003850 -0.206025 -0.010000
v 0.008610 -0.205553 -0.010000
v 0.013227 -0.204766 -0.010000
v 0.017699 -0.203665 -0.010000
v 0.022027 -0.202249 -0.010000
v 0.026212 -0.200518 -0.010000
v 0.030252 -0.198473 -0.010000
v 0.034149 -0.196113 -0.010000
v 0.037902 -0.193438 -0.010000
v 0.041511 -0.190449 -0.010000
v 0.044975 -0.187145 -0.010000
v 0.048296 -0.183527 -0.010000
v 0.051410 -0.179596 -0.010000
v 0.054253 -0.175355 -0.010000
v 0.056825 -0.170805 -0.010000
v 0.059127 -0.165945 -0.010000
v 0.061157 -0.160775 -0.010000
v 0.062917 -0.155295 -0.010000
v 0.064406 -0.149506 -0.010000
v 0.065625 -0.143406 -0.010000
v 0.066572 -0.136997 -0.010000
v 0.067249 -0.130278 -0.010000
v 0.067655 -0.123250 -0.010000
v 0.067791 -0.115911 -0.010000
v 0.067654 -0.108413 -0.010000
v 0.067244 -0.101257 -0.010000
v 0.066561 -0.094442 -0.010000
v 0.065605 -0.087968 -0.010000
v 0.064376 -0.081836 -0.010000
v 0.062873 -0.076045 -0.010000
v 0.061097 -0.070596 -0.010000
v 0.059049 -0.065488 -0.010000
v 0.056726 -0.060722 -0.010000
v 0.054131 -0.056297 -0.010000
v 0.051263 -0.052214 -0.010000
v 0.048121 -0.048472 -0.010000
v 0.044752 -0.045050 -0.010000
v 0.041203 -0.041925 -0.010000
v 0.037474 -0.039098 -0.010000
v 0.033564 -0.036569 -0.010000
v 0.029473 -0.034337 -0.010000
v 0.025202 -0.032403 -0.010000
v 0.020750 -0.030766 -0.010000
v 0.016118 -0.029427 -0.010000
v 0.011306 -0.028385 -0.010000
v 0.006313 -0.027641 -0.010000
v 0.001139 -0.027195 -0.010000
v -0.004215 -0.027046 -0.010000
v -0.007659 -0.027117 -0.010000
v -0.011084 -0.027329 -0.010000
v -0.014489 -0.027683 -0.010000
v -0.017875 -0.028178 -0.010000
v -0.021241 -0.028814 -0.010000
v -0.024587 -0.029593 -0.010000
v -0.027914 -0.030512 -0.010000
v -0.031222 -0.031573 -0.010000
v -0.034510 -0.032776 -0.010000
v -0.037779 -0.034120 -0.010000
v -0.041028 -0.035605 -0.010000
v -0.044257 -0.037232 -0.010000
v -0.046677 -0.038544 -0.010000
v -0.049136 -0.040023 -0.010000
v -0.051633 -0.041667 -0.010000
v -0.054170 -0.043477 -0.010000
v -0.056746 -0.045452 -0.010000
v -0.059361 -0.047594 -0.010000
v -0.062015 -0.049901 -0.010000
v -0.064707 -0.052375 -0.010000
v -0.067439 -0.055014 -0.010000
v -0.070210 -0.057819 -0.010000
v -0.073020 -0.060790 -0.010000
v -0.075869 -0.063927 -0.010000
v -0.197752 -0.046365 -0.010000
v -0.197752 -0.046365 0.010000
v -0.152441 0.230418 -0.010000
v -0.152441 0.230418 0.010000
v 0.187215 0.230418 -0.010000
v 0.187215 0.230418 0.010000
v 0.187215 0.116263 -0.010000
v 0.187215 0.116263 0.010000
v -0.042852 0.116263 -0.010000
v -0.042852 0.116263 0.010000
v -0.055146 0.038988 -0.010000
v -0.055146 0.038988 0.010000
v -0.051169 0.040823 -0.010000
v -0.051169 0.040823 0.010000
v -0.047199 0.042579 -0.010000
v -0.047199 0.042579 0.010000
v -0.043236 0.044257 -0.010000
v -0.043236 0.044257 0.010000
v -0.039281 0.045857 -0.010000
v -0.039281 0.045857 0.010000
v -0.035333 0.047379 -0.010000
v -0.035333 0.047379 0.010000
v -0.031393 0.048823 -0.010000
v -0.031393 0.048823 0.010000
v -0.027459 0.050189 -0.010000
v -0.027459 0.050189 0.010000
v -0.023534 0.051477 -0.010000
v -0.023534 0.051477 0.010000
v -0.019615 0.052687 -0.010000
v -0.019615 0.052687 0.010000
v -0.015704 0.053819 -0.010000
v -0.015704 0.053819 0.010000
v -0.011800 0.054873 -0.010000
v -0.011800 0.054873 0.010000
v -0.007903 0.055848 -0.010000
v -0.007903 0.055848 0.010000
v -0.004014 0.056746 -0.010000
v -0.004014 0.056746 0.010000
v -0.000132 0.057565 -0.010000
v -0.000132 0.057565 0.010000
v 0.003743 0.058307 -0.010000
v 0.003743 0.058307 0.010000
v 0.007610 0.058970 -0.010000
v 0.007610 0.058970 0.010000
v 0.011470 0.059556 -0.010000
v 0.011470 0.059556 0.010000
v 0.015323 0.060063 -0.010000
v 0.015323 0.060063 0.010000
v 0.019169 0.060493 -0.010000
v 0.019169 0.060493 0.010000
v 0.023007 0.060844 -0.010000
v 0.023007 0.060844 0.010000
v 0.026837 0.061117 -0.010000
v 0.026837 0.061117 0.010000
v 0.030661 0.061312 -0.010000
v 0.030661 0.061312 0.010000
v 0.034477 0.061429 -0.010000
v 0.034477 0.061429 0.010000
v 0.038286 0.061468 -0.010000
v 0.038286 0.061468 0.010000
v 0.050963 0.061144 -0.010000
v 0.050963 0.061144 0.010000
v 0.063234 0.060171 -0.010000
v 0.063234 0.060171 0.010000
v 0.075101 0.058548 -0.010000
v 0.075101 0.058548 0.010000
v 0.086563 0.056278 -0.010000
v 0.086563 0.056278 0.010000
v 0.097620 0.053358 -0.010000
v 0.097620 0.053358 0.010000
v 0.108272 0.049789 -0.010000
v 0.108272 0.049789 0.010000
v 0.118519 0.045572 -0.010000
v 0.118519 0.045572 0.010000
v 0.128361 0.040706 -0.010000
v 0.128361 0.040706 0.010000
v 0.137799 0.035191 -0.010000
v 0.137799 0.035191 0.010000
v 0.146831 0.029027 -0.010000
v 0.146831 0.029027 0.010000
v 0.155458 0.022214 -0.010000
v 0.155458 0.022214 0.010000
v 0.163681 0.014752 -0.010000
v 0.163681 0.014752 0.010000
v 0.171367 0.006798 -0.010000
v 0.171367 0.006798 0.010000
v 0.178385 -0.001493 -0.010000
v 0.178385 -0.001493 0.010000
v 0.184734 -0.010120 -0.010000
v 0.184734 -0.010120 0.010000
v 0.190415 -0.019084 -0.010000
v 0.190415 -0.019084 0.010000
v 0.195427 -0.028385 -0.010000
v 0.195427 -0.028385 0.010000
v 0.199772 -0.038022 -0.010000
v 0.199772 -0.038022 0.010000
v 0.203448 -0.047996 -0.010000
v 0.203448 -0.047996 0.010000
v 0.206455 -0.058307 -0.010000
v 0.206455 -0.058307 0.010000
v 0.208794 -0.068954 -0.010000
v 0.208794 -0.068954 0.010000
v 0.210465 -0.079938 -0.010000
v 0.210465 -0.079938 0.010000
v 0.211468 -0.091258 -0.010000
v 0.211468 -0.091258 0.010000
v 0.211802 -0.102915 -0.010000
v 0.211802 -0.102915 0.010000
v 0.211630 -0.111201 -0.010000
v 0.211630 -0.111201 0.010000
v 0.211114 -0.119434 -0.010000
v 0.211114 -0.119434 0.010000
v 0.210254 -0.127612 -0.010000
v 0.210254 -0.127612 0.010000
v 0.209050 -0.135737 -0.010000
v 0.209050 -0.135737 0.010000
v 0.207503 -0.143809 -0.010000
v 0.207503 -0.143809 0.010000
v 0.205611 -0.151826 -0.010000
v 0.205611 -0.151826 0.010000
v 0.203376 -0.159791 -0.010000
v 0.203376 -0.159791 0.010000
v 0.200796 -0.167701 -0.010000
v 0.200796 -0.167701 0.010000
v 0.197873 -0.175558 -0.010000
v 0.197873 -0.175558 0.010000
v 0.194605 -0.183361 -0.010000
v 0.194605 -0.183361 0.010000
v 0.190994 -0.191110 -0.010000
v 0.190994 -0.191110 0.010000
v 0.187039 -0.198806 -0.010000
v 0.187039 -0.198806 0.010000
v 0.182768 -0.206323 -0.010000
v 0.182768 -0.206323 0.010000
v 0.178209 -0.213539 -0.010000
v 0.178209 -0.213539 0.010000
v 0.173362 -0.220451 -0.010000
v 0.173362 -0.220451 0.010000
v 0.168228 -0.227062 -0.010000
v 0.168228 -0.227062 0.010000
v 0.162805 -0.233369 -0.010000
v 0.162805 -0.233369 0.010000
v 0.157095 -0.239375 -0.010000
v 0.157095 -0.239375 0.010000
v 0.151097 -0.245078 -0.010000
v 0.151097 -0.245078 0.010000
v 0.144811 -0.250478 -0.010000
v 0.144811 -0.250478 0.010000
v 0.138238 -0.255576 -0.010000
v 0.138238 -0.255576 0.010000
v 0.131376 -0.260372 -0.010000
v 0.131376 -0.260372 0.010000
v 0.124227 -0.264865 -0.010000
v 0.124227 -0.264865 0.010000
v 0.116790 -0.269055 -0.010000
v 0.116790 -0.269055 0.010000
v 0.109032 -0.272926 -0.010000
v 0.109032 -0.272926 0.010000
v 0.100920 -0.276461 -0.010000
v 0.100920 -0.276461 0.010000
v 0.092455 -0.279658 -0.010000
v 0.092455 -0.279658 0.010000
v 0.083636 -0.282520 -0.010000
v 0.083636 -0.282520 0.010000
v 0.074463 -0.285044 -0.010000
v 0.074463 -0.285044 0.010000
v 0.064937 -0.287232 -0.010000
v 0.064937 -0.287232 0.010000
v 0.055057 -0.289084 -0.010000
v 0.055057 -0.289084 0.010000
v 0.044823 -0.290598 -0.010000
v 0.044823 -0.290598 0.010000
v 0.034236 -0.291776 -0.010000
v 0.034236 -0.291776 0.010000
v 0.023295 -0.292618 -0.010000
v 0.023295 -0.292618 0.010000
v 0.012000 -0.293123 -0.010000
v 0.012000 -0.293123 0.010000
v 0.000351 -0.293291 -0.010000
v 0.000351 -0.293291 0.010000
v -0.008036 -0.293224 -0.010000
v -0.008036 -0.293224 0.010000
v -0.016221 -0.293023 -0.010000
v -0.016221 -0.293023 0.010000
v -0.024203 -0.292687 -0.010000
v -0.024203 -0.292687 0.010000
v -0.031983 -0.292218 -0.010000
v -0.031983 -0.292218 0.010000
v -0.039560 -0.291614 -0.010000
v -0.039560 -0.291614 0.010000
v -0.046935 -0.290876 -0.010000
v -0.046935 -0.290876 0.010000
v -0.054108 -0.290004 -0.010000
v -0.054108 -0.290004 0.010000
v -0.061078 -0.288998 -0.010000
v -0.061078 -0.288998 0.010000
v -0.067846 -0.287858 -0.010000
v -0.067846 -0.287858 0.010000
v -0.074411 -0.286583 -0.010000
v -0.074411 -0.286583 0.010000
v -0.080773 -0.285175 -0.010000
v -0.080773 -0.285175 0.010000
v -0.086934 -0.283632 -0.010000
v -0.086934 -0.283632 0.010000
v -0.092917 -0.281956 -0.010000
v -0.092917 -0.281956 0.010000
v -0.098749 -0.280149 -0.010000
v -0.098749 -0.280149 0.010000
v -0.104430 -0.278210 -0.010000
v -0.104430 -0.278210 0.010000
v -0.109960 -0.276139 -0.010000
v -0.109960 -0.276139 0.010000
v -0.115338 -0.273936 -0.010000
v -0.115338 -0.273936 0.010000
v -0.120566 -0.271602 -0.010000
v -0.120566 -0.271602 0.010000
v -0.125642 -0.269136 -0.010000
v -0.125642 -0.269136 0.010000
v -0.130566 -0.266538 -0.010000
v -0.130566 -0.266538 0.010000
v -0.135340 -0.263808 -0.010000
v -0.135340 -0.263808 0.010000
v -0.139962 -0.260947 -0.010000
v -0.139962 -0.260947 0.010000
v -0.144433 -0.257954 -0.010000
v -0.144433 -0.257954 0.010000
v -0.148753 -0.254830 -0.010000
v -0.148753 -0.254830 0.010000
v -0.152930 -0.251604 -0.010000
v -0.152930 -0.251604 0.010000
v -0.156973 -0.248307 -0.010000
v -0.156973 -0.248307 0.010000
v -0.160882 -0.244940 -0.010000
v -0.160882 -0.244940 0.010000
v -0.164657 -0.241502 -0.010000
v -0.164657 -0.241502 0.010000
v -0.168297 -0.237993 -0.010000
v -0.168297 -0.237993 0.010000
v -0.171804 -0.234413 -0.010000
v -0.171804 -0.234413 0.010000
v -0.175176 -0.230763 -0.010000
v -0.175176 -0.230763 0.010000
v -0.178414 -0.227042 -0.010000
v -0.178414 -0.227042 0.010000
v -0.181518 -0.223250 -0.010000
v -0.181518 -0.223250 0.010000
v -0.184488 -0.219388 -0.010000
v -0.184488 -0.219388 0.010000
v -0.187323 -0.215455 -0.010000
v -0.187323 -0.215455 0.010000
v -0.190025 -0.211451 -0.010000
v -0.190025 -0.211451 0.010000
v -0.192622 -0.207328 -0.010000
v -0.192622 -0.207328 0.010000
v -0.195147 -0.203040 -0.010000
v -0.195147 -0.203040 0.010000
v -0.197598 -0.198586 -0.010000
v -0.197598 -0.198586 0.010000
v -0.199977 -0.193966 -0.010000
v -0.199977 -0.193966 0.010000
v -0.202282 -0.189181 -0.010000
v -0.202282 -0.189181 0.010000
v -0.204514 -0.184229 -0.010000
v -0.204514 -0.184229 0.010000
v -0.206672 -0.179112 -0.010000
v -0.206672 -0.179112 0.010000
v -0.208758 -0.173828 -0.010000
v -0.208758 -0.173828 0.010000
v -0.210770 -0.168379 -0.010000
v -0.210770 -0.168379 0.010000
v -0.212709 -0.162764 -0.010000
v -0.212709 -0.162764 0.010000
v -0.214575 -0.156983 -0.010000
v -0.214575 -0.156983 0.010000
v -0.216368 -0.151036 -0.010000
v -0.216368 -0.151036 0.010000
v -0.071654 -0.135230 -0.010000
v -0.071654 -0.135230 0.010000
v -0.070679 -0.140910 -0.010000
v -0.070679 -0.140910 0.010000
v -0.069508 -0.146358 -0.010000
v -0.069508 -0.146358 0.010000
v -0.068142 -0.151574 -0.010000
v -0.068142 -0.151574 0.010000
v -0.066581 -0.156559 -0.010000
v -0.066581 -0.156559 0.010000
v -0.064825 -0.161311 -0.010000
v -0.064825 -0.161311 0.010000
v -0.062873 -0.165832 -0.010000
v -0.062873 -0.165832 0.010000
v -0.060727 -0.170122 -0.010000
v -0.060727 -0.170122 0.010000
v -0.058385 -0.174179 -0.010000
v -0.058385 -0.174179 0.010000
v -0.055848 -0.178005 -0.010000
v -0.055848 -0.178005 0.010000
v -0.053116 -0.181600 -0.010000
v -0.053116 -0.181600 0.010000
v -0.050189 -0.184962 -0.010000
v -0.050189 -0.184962 0.010000
v -0.047067 -0.188093 -0.010000
v -0.047067 -0.188093 0.010000
v -0.043796 -0.190982 -0.010000
v -0.043796 -0.190982 0.010000
v -0.040423 -0.193620 -0.010000
v -0.040423 -0.193620 0.010000
v -0.036947 -0.196007 -0.010000
v -0.036947 -0.196007 0.010000
v -0.033368 -0.198142 -0.010000
v -0.033368 -0.198142 0.010000
v -0.029688 -0.200027 -0.010000
v -0.029688 -0.200027 0.010000
v -0.025904 -0.201660 -0.010000
v -0.025904 -0.201660 0.010000
v -0.022019 -0.203041 -0.010000
v -0.022019 -0.203041 0.010000
v -0.018031 -0.204172 -0.010000
v -0.018031 -0.204172 0.010000
v -0.013940 -0.205051 -0.010000
v -0.013940 -0.205051 0.010000
v -0.009747 -0.205679 -0.010000
v -0.009747 -0.205679 0.010000
v -0.005452 -0.206056 -0.010000
v -0.005452 -0.206056 0.010000
v -0.001054 -0.206182 -0.010000
v -0.001054 -0.206182 0.010000
v 0.003850 -0.206025 -0.010000
v 0.003850 -0.206025 0.010000
v 0.008610 -0.205553 -0.010000
v 0.008610 -0.205553 0.010000
v 0.013227 -0.204766 -0.010000
v 0.013227 -0.204766 0.010000
v 0.017699 -0.203665 -0.010000
v 0.017699 -0.203665 0.010000
v 0.022027 -0.202249 -0.010000
v 0.022027 -0.202249 0.010000
v 0.026212 -0.200518 -0.010000
v 0.026212 -0.200518 0.010000
v 0.030252 -0.198473 -0.010000
v 0.030252 -0.198473 0.010000
v 0.034149 -0.196113 -0.010000
v 0.034149 -0.196113 0.010000
v 0.037902 -0.193438 -0.010000
v 0.037902 -0.193438 0.010000
v 0.041511 -0.190449 -0.010000
v 0.041511 -0.190449 0.010000
v 0.044975 -0.187145 -0.010000
v 0.044975 -0.187145 0.010000
v 0.048296 -0.183527 -0.010000
v 0.048296 -0.183527 0.010000
v 0.051410 -0.179596 -0.010000
v 0.051410 -0.179596 0.010000
v 0.054253 -0.175355 -0.010000
v 0.054253 -0.175355 0.010000
v 0.056825 -0.170805 -0.010000
v 0.056825 -0.170805 0.010000
v 0.059127 -0.165945 -0.010000
v 0.059127 -0.165945 0.010000
v 0.061157 -0.160775 -0.010000
v 0.061157 -0.160775 0.010000
v 0.062917 -0.155295 -0.010000
v 0.062917 -0.155295 0.010000
v 0.064406 -0.149506 -0.010000
v 0.064406 -0.149506 0.010000
v 0.065625 -0.143406 -0.010000
v 0.065625 -0.143406 0.010000
v 0.066572 -0.136997 -0.010000
v 0.066572 -0.136997 0.010000
v 0.067249 -0.130278 -0.010000
v 0.067249 -0.130278 0.010000
v 0.067655 -0.123250 -0.010000
v 0.067655 -0.123250 0.010000
v 0.067791 -0.115911 -0.010000
v 0.067791 -0.115911 0.010000
v 0.067654 -0.108413 -0.010000
v 0.067654 -0.108413 0.010000
v 0.067244 -0.101257 -0.010000
v 0.067244 -0.101257 0.010000
v 0.066561 -0.094442 -0.010000
v 0.066561 -0.094442 0.010000
v 0.065605 -0.087968 -0.010000
v 0.065605 -0.087968 0.010000
v 0.064376 -0.081836 -0.010000
v 0.064376 -0.081836 0.010000
v 0.062873 -0.076045 -0.010000
v 0.062873 -0.076045 0.010000
v 0.061097 -0.070596 -0.010000
v 0.061097 -0.070596 0.010000
v 0.059049 -0.065488 -0.010000
v 0.059049 -0.065488 0.010000
v 0.056726 -0.060722 -0.010000
v 0.056726 -0.060722 0.010000
v 0.054131 -0.056297 -0.010000
v 0.054131 -0.056297 0.010000
v 0.051263 -0.052214 -0.010000
v 0.051263 -0.052214 0.010000
v 0.048121 -0.048472 -0.010000
v 0.048121 -0.048472 0.010000
v 0.044752 -0.045050 -0.010000
v 0.044752 -0.045050 0.010000
v 0.041203 -0.041925 -0.010000
v 0.041203 -0.041925 0.010000
v 0.037474 -0.039098 -0.010000
v 0.037474 -0.039098 0.010000
v 0.033564 -0.036569 -0.010000
v 0.033564 -0.036569 0.010000
v 0.029473 -0.034337 -0.010000
v 0.029473 -0.034337 0.010000
v 0.025202 -0.032403 -0.010000
v 0.025202 -0.032403 0.010000
v 0.020750 -0.030766 -0.010000
v 0.020750 -0.030766 0.010000
v 0.016118 -0.029427 -0.010000
v 0.016118 -0.029427 0.010000
v 0.011306 -0.028385 -0.010000
v 0.011306 -0.028385 0.010000
v 0.006313 -0.027641 -0.010000
v 0.006313 -0.027641 0.010000
v 0.001139 -0.027195 -0.010000
v 0.001139 -0.027195 0.010000
v -0.004215 -0.027046 -0.010000
v -0.004215 -0.027046 0.010000
v -0.007659 -0.027117 -0.010000
v -0.007659 -0.027117 0.010000
v -0.011084 -0.027329 -0.010000
v -0.011084 -0.027329 0.010000
v -0.014489 -0.027683 -0.010000
v -0.014489 -0.027683 0.010000
v -0.017875 -0.028178 -0.010000
v -0.017875 -0.028178 0.010000
v -0.021241 -0.028814 -0.010000
v -0.021241 -0.028814 0.010000
v -0.024587 -0.029593 -0.010000
v -0.024587 -0.029593 0.010000
v -0.027914 -0.030512 -0.010000
v -0.027914 -0.030512 0.010000
v -0.031222 -0.031573 -0.010000
v -0.031222 -0.031573 0.010000
v -0.034510 -0.032776 -0.010000
v -0.034510 -0.032776 0.010000
v -0.037779 -0.034120 -0.010000
v -0.037779 -0.034120 0.010000
v -0.041028 -0.035605 -0.010000
v -0.041028 -0.035605 0.010000
v -0.044257 -0.037232 -0.010000
v -0.044257 -0.037232 0.010000
v -0.046677 -0.038544 -0.010000
v -0.046677 -0.038544 0.010000
v -0.049136 -0.040023 -0.010000
v -0.049136 -0.040023 0.010000
v -0.051633 -0.041667 -0.010000
v -0.051633 -0.041667 0.010000
v -0.054170 -0.043477 -0.010000
v -0.054170 -0.043477 0.010000
v -0.056746 -0.045452 -0.010000
v -0.056746 -0.045452 0.010000
v -0.059361 -0.047594 -0.010000
v -0.059361 -0.047594 0.010000
v -0.062015 -0.049901 -0.010000
v -0.062015 -0.049901 0.010000
v -0.064707 -0.052375 -0.010000
v -0.064707 -0.052375 0.010000
v -0.067439 -0.055014 -0.010000
v -0.067439 -0.055014 0.010000
v -0.070210 -0.057819 -0.010000
v -0.070210 -0.057819 0.010000
v -0.073020 -0.060790 -0.010000
v -0.073020 -0.060790 0.010000
v -0.075869 -0.063927 -0.010000
v -0.075869 -0.063927 0.010000
vn -0.0000 -0.0000 1.0000
vn -0.0000 -0.0000 -1.0000
vn -0.6475 0.7621 -0.0000
vn -0.8064 -0.5913 -0.0000
vn 0.7071 0.7071 -0.0000
vn 0.7071 -0.7071 -0.0000
vn 0.6492 -0.7606 -0.0000
vn 0.6037 0.7972 -0.0000
vn -0.4117 0.9113 -0.0000
vn 0.6038 0.7971 -0.0000
vn -0.3973 0.9177 -0.0000
vn -0.3825 0.9239 -0.0000
vn -0.3674 0.9301 -0.0000
vn -0.3519 0.9360 -0.0000
vn -0.3361 0.9418 -0.0000
vn -0.3199 0.9475 -0.0000
vn -0.3034 0.9529 -0.0000
vn -0.2865 0.9581 -0.0000
vn -0.2693 0.9631 -0.0000
vn -0.2518 0.9678 -0.0000
vn -0.2339 0.9723 -0.0000
vn -0.2157 0.9765 -0.0000
vn -0.1973 0.9803 -0.0000
vn -0.1785 0.9839 -0.0000
vn -0.1595 0.9872 -0.0000
vn -0.1403 0.9901 -0.0000
vn -0.1208 0.9927 -0.0000
vn -0.1010 0.9949 -0.0000
vn -0.0811 0.9967 -0.0000
vn -0.0611 0.9981 -0.0000
vn -0.0408 0.9992 -0.0000
vn -0.0205 0.9998 -0.0000
vn 0.0077 1.0000 -0.0000
vn 0.0523 0.9986 -0.0000
vn 0.1073 0.9942 -0.0000
vn 0.1650 0.9863 -0.0000
vn 0.2249 0.9744 -0.0000
vn 0.2866 0.9580 -0.0000
vn 0.3493 0.9370 -0.0000
vn 0.4121 0.9111 -0.0000
vn 0.4742 0.8804 -0.0000
vn 0.5344 0.8452 -0.0000
vn 0.5921 0.8059 -0.0000
vn 0.6462 0.7631 -0.0000
vn 0.6959 0.7181 -0.0000
vn 0.7416 0.6708 -0.0000
vn 0.7848 0.6198 -0.0000
vn 0.8255 0.5644 -0.0000
vn 0.8630 0.5052 -0.0000
vn 0.8965 0.4430 -0.0000
vn 0.9256 0.3786 -0.0000
vn 0.9497 0.3131 -0.0000
vn 0.9689 0.2474 -0.0000
vn 0.9832 0.1826 -0.0000
vn 0.9929 0.1194 -0.0000
vn 0.9983 0.0585 -0.0000
vn 1.0000 0.0040 -0.0000
vn 0.9991 -0.0417 -0.0000
vn 0.9965 -0.0836 -0.0000
vn 0.9921 -0.1256 -0.0000
vn 0.9859 -0.1675 -0.0000
vn 0.9779 -0.2090 -0.0000
vn 0.9682 -0.2500 -0.0000
vn 0.9570 -0.2902 -0.0000
vn 0.9442 -0.3294 -0.0000
vn 0.9300 -0.3676 -0.0000
vn 0.9146 -0.4044 -0.0000
vn 0.8981 -0.4398 -0.0000
vn 0.8796 -0.4756 -0.0000
vn 0.8577 -0.5142 -0.0000
vn 0.8323 -0.5543 -0.0000
vn 0.8045 -0.5939 -0.0000
vn 0.7743 -0.6329 -0.0000
vn 0.7417 -0.6707 -0.0000
vn 0.6706 -0.7418 -0.0000
vn 0.6324 -0.7746 -0.0000
vn 0.5930 -0.8052 -0.0000
vn 0.5526 -0.8334 -0.0000
vn 0.5116 -0.8592 -0.0000
vn 0.4688 -0.8833 -0.0000
vn 0.4231 -0.9061 -0.0000
vn 0.3765 -0.9264 -0.0000
vn 0.3311 -0.9436 -0.0000
vn 0.2871 -0.9579 -0.0000
vn 0.2447 -0.9696 -0.0000
vn 0.2041 -0.9790 -0.0000
vn 0.1653 -0.9862 -0.0000
vn 0.1285 -0.9917 -0.0000
vn 0.0937 -0.9956 -0.0000
vn 0.0607 -0.9982 -0.0000
vn 0.0296 -0.9996 -0.0000
vn 0.0032 -1.0000 -0.0000
vn -0.0163 -0.9999 -0.0000
vn -0.0333 -0.9994 -0.0000
vn -0.0511 -0.9987 -0.0000
vn -0.0698 -0.9976 -0.0000
vn -0.0895 -0.9960 -0.0000
vn -0.1101 -0.9939 -0.0000
vn -0.1318 -0.9913 -0.0000
vn -0.1545 -0.9880 -0.0000
vn -0.1784 -0.9840 -0.0000
vn -0.2034 -0.9791 -0.0000
vn -0.2296 -0.9733 -0.0000
vn -0.2563 -0.9666 -0.0000
vn -0.2829 -0.9592 -0.0000
vn -0.3096 -0.9509 -0.0000
vn -0.3369 -0.9415 -0.0000
vn -0.3649 -0.9311 -0.0000
vn -0.3934 -0.9194 -0.0000
vn -0.4224 -0.9064 -0.0000
vn -0.4518 -0.8921 -0.0000
vn -0.4815 -0.8764 -0.0000
vn -0.5114 -0.8593 -0.0000
vn -0.5414 -0.8408 -0.0000
vn -0.5713 -0.8208 -0.0000
vn -0.5987 -0.8010 -0.0000
vn -0.6216 -0.7833 -0.0000
vn -0.6424 -0.7664 -0.0000
vn -0.6631 -0.7485 -0.0000
vn -0.6837 -0.7297 -0.0000
vn -0.7042 -0.7100 -0.0000
vn -0.7245 -0.6892 -0.0000
vn -0.7445 -0.6676 -0.0000
vn -0.7642 -0.6450 -0.0000
vn -0.7834 -0.6215 -0.0000
vn -0.8021 -0.5972 -0.0000
vn -0.7834 -0.6216 -0.0000
vn -0.8202 -0.5721 -0.0000
vn -0.8376 -0.5463 -0.0000
vn -0.8540 -0.5203 -0.0000
vn -0.8690 -0.4948 -0.0000
vn -0.8827 -0.4700 -0.0000
vn -0.8951 -0.4459 -0.0000
vn -0.9064 -0.4225 -0.0000
vn -0.9166 -0.3998 -0.0000
vn -0.9258 -0.3779 -0.0000
vn -0.9342 -0.3568 -0.0000
vn -0.9417 -0.3365 -0.0000
vn -0.9485 -0.3168 -0.0000
vn -0.9417 -0.3364 -0.0000
vn -0.9546 -0.2979 -0.0000
vn -0.8339 0.5519 -0.0000
vn 0.6019 0.7985 -0.0000
vn 0.9818 0.1897 -0.0000
vn 0.9728 0.2318 -0.0000
vn 0.9611 0.2762 -0.0000
vn 0.9465 0.3228 -0.0000
vn 0.9284 0.3716 -0.0000
vn 0.9066 0.4221 -0.0000
vn 0.8806 0.4739 -0.0000
vn 0.8502 0.5265 -0.0000
vn 0.8152 0.5792 -0.0000
vn 0.7756 0.6312 -0.0000
vn 0.7316 0.6818 -0.0000
vn 0.6854 0.7282 -0.0000
vn 0.6393 0.7690 -0.0000
vn 0.5913 0.8064 -0.0000
vn 0.5395 0.8420 -0.0000
vn 0.4843 0.8749 -0.0000
vn 0.4262 0.9046 -0.0000
vn 0.3659 0.9307 -0.0000
vn 0.3041 0.9527 -0.0000
vn 0.2416 0.9704 -0.0000
vn 0.1792 0.9838 -0.0000
vn 0.1178 0.9930 -0.0000
vn 0.0580 0.9983 -0.0000
vn -0.0018 1.0000 -0.0000
vn -0.0654 0.9979 -0.0000
vn -0.1334 0.9911 -0.0000
vn -0.2037 0.9790 -0.0000
vn -0.2752 0.9614 -0.0000
vn -0.3468 0.9379 -0.0000
vn -0.4172 0.9088 -0.0000
vn -0.4852 0.8744 -0.0000
vn -0.5496 0.8354 -0.0000
vn -0.6095 0.7928 -0.0000
vn -0.6644 0.7474 -0.0000
vn -0.7138 0.7003 -0.0000
vn -0.7608 0.6490 -0.0000
vn -0.8079 0.5893 -0.0000
vn -0.8512 0.5248 -0.0000
vn -0.8877 0.4603 -0.0000
vn -0.9178 0.3970 -0.0000
vn -0.9419 0.3359 -0.0000
vn -0.9607 0.2776 -0.0000
vn -0.9749 0.2226 -0.0000
vn -0.9852 0.1711 -0.0000
vn -0.9924 0.1233 -0.0000
vn -0.9969 0.0790 -0.0000
vn -0.9993 0.0381 -0.0000
vn -1.0000 0.0001 -0.0000
vn -0.9993 -0.0377 -0.0000
vn -0.9969 -0.0785 -0.0000
vn -0.9924 -0.1229 -0.0000
vn -0.9852 -0.1714 -0.0000
vn -0.9746 -0.2240 -0.0000
vn -0.9598 -0.2806 -0.0000
vn -0.9400 -0.3413 -0.0000
vn -0.9141 -0.4054 -0.0000
vn -0.8814 -0.4723 -0.0000
vn -0.8411 -0.5408 -0.0000
vn -0.7928 -0.6095 -0.0000
vn -0.7398 -0.6728 -0.0000
vn -0.6872 -0.7265 -0.0000
vn -0.6329 -0.7743 -0.0000
vn -0.5740 -0.8188 -0.0000
vn -0.4461 -0.8950 -0.0000
vn -0.3791 -0.9254 -0.0000
vn -0.3116 -0.9502 -0.0000
vn -0.2448 -0.9696 -0.0000
vn -0.1795 -0.9838 -0.0000
vn -0.1167 -0.9932 -0.0000
vn -0.1795 -0.9837 -0.0000
vn -0.0569 -0.9984 -0.0000
vn -0.0036 -1.0000 -0.0000
vn 0.0412 -0.9992 -0.0000
vn 0.0826 -0.9966 -0.0000
vn 0.1240 -0.9923 -0.0000
vn 0.2062 -0.9785 -0.0000
vn 0.2465 -0.9691 -0.0000
vn 0.2860 -0.9582 -0.0000
vn 0.3245 -0.9459 -0.0000
vn 0.3620 -0.9322 -0.0000
vn 0.3981 -0.9173 -0.0000
vn 0.4329 -0.9014 -0.0000
vn 0.4634 -0.8862 -0.0000
vn 0.4961 -0.8683 -0.0000
vn 0.5326 -0.8463 -0.0000
vn 0.5654 -0.8248 -0.0000
vn 0.5948 -0.8039 -0.0000
vn 0.6212 -0.7836 -0.0000
vn 0.6450 -0.7642 -0.0000
vn 0.6664 -0.7456 -0.0000
vn 0.6857 -0.7279 -0.0000
vn 0.7032 -0.7110 -0.0000
vn 0.7190 -0.6950 -0.0000
vn 0.7334 -0.6798 -0.0000
vn 0.3383 -0.9410 -0.0000
vn 0.3384 -0.9410 -0.0000
vt 0.000000 0.000000
vt 0.017094 0.000000
vt 0.004274 0.000000
vt 0.008547 0.000000
vt 0.012821 0.000000
vt 0.021368 0.000000
vt 0.119658 0.000000
vt 0.128205 0.000000
vt 0.123932 0.000000
vt 0.115385 0.000000
vt 0.111111 0.000000
vt 0.132479 0.000000
vt 0.106838 0.000000
vt 0.102564 0.000000
vt 0.098291 0.000000
vt 0.136752 0.000000
vt 0.094017 0.000000
vt 0.089744 0.000000
vt 0.085470 0.000000
vt 0.141026 0.000000
vt 0.081197 0.000000
vt 0.076923 0.000000
vt 0.072650 0.000000
vt 0.145299 0.000000
vt 0.068376 0.000000
vt 0.064103 0.000000
vt 0.059829 0.000000
vt 0.149573 0.000000
vt 0.055556 0.000000
vt 0.051282 0.000000
vt 0.047009 0.000000
vt 0.153846 0.000000
vt 0.042735 0.000000
vt 0.038462 0.000000
vt 0.034188 0.000000
vt 0.158120 0.000000
vt 0.029915 0.000000
vt 0.025641 0.000000
vt 0.162393 0.000000
vt 0.166667 0.000000
vt 0.170940 0.000000
vt 0.175214 0.000000
vt 0.179487 0.000000
vt 0.183761 0.000000
vt 0.905983 0.000000
vt 0.188034 0.000000
vt 0.901709 0.000000
vt 0.192308 0.000000
vt 0.897436 0.000000
vt 0.196581 0.000000
vt 0.893162 0.000000
vt 0.888889 0.000000
vt 0.910256 0.000000
vt 0.884615 0.000000
vt 0.914530 0.000000
vt 0.918803 0.000000
vt 0.880342 0.000000
vt 0.200855 0.000000
vt 0.923077 0.000000
vt 0.876068 0.000000
vt 0.927350 0.000000
vt 0.931624 0.000000
vt 0.871795 0.000000
vt 0.935897 0.000000
vt 0.867521 0.000000
vt 0.940171 0.000000
vt 0.944444 0.000000
vt 0.863248 0.000000
vt 0.948718 0.000000
vt 0.858974 0.000000
vt 0.952991 0.000000
vt 0.205128 0.000000
vt 0.957265 0.000000
vt 0.854701 0.000000
vt 0.961538 0.000000
vt 0.965812 0.000000
vt 0.850427 0.000000
vt 0.970085 0.000000
vt 0.846154 0.000000
vt 0.974359 0.000000
vt 1.000000 0.000000
vt 0.995726 0.000000
vt 0.991453 0.000000
vt 0.987179 0.000000
vt 0.982906 0.000000
vt 0.978632 0.000000
vt 0.209402 0.000000
vt 0.841880 0.000000
vt 0.837607 0.000000
vt 0.833333 0.000000
vt 0.213675 0.000000
vt 0.829060 0.000000
vt 0.824786 0.000000
vt 0.217949 0.000000
vt 0.820513 0.000000
vt 0.816239 0.000000
vt 0.222222 0.000000
vt 0.811966 0.000000
vt 0.807692 0.000000
vt 0.226496 0.000000
vt 0.803419 0.000000
vt 0.799145 0.000000
vt 0.230769 0.000000
vt 0.794872 0.000000
vt 0.235043 0.000000
vt 0.790598 0.000000
vt 0.239316 0.000000
vt 0.786325 0.000000
vt 0.243590 0.000000
vt 0.782051 0.000000
vt 0.585470 0.000000
vt 0.594017 0.000000
vt 0.589744 0.000000
vt 0.247863 0.000000
vt 0.777778 0.000000
vt 0.598291 0.000000
vt 0.773504 0.000000
vt 0.252137 0.000000
vt 0.602564 0.000000
vt 0.769231 0.000000
vt 0.581197 0.000000
vt 0.606838 0.000000
vt 0.256410 0.000000
vt 0.764957 0.000000
vt 0.611111 0.000000
vt 0.576923 0.000000
vt 0.260684 0.000000
vt 0.760684 0.000000
vt 0.615385 0.000000
vt 0.572650 0.000000
vt 0.619658 0.000000
vt 0.756410 0.000000
vt 0.264957 0.000000
vt 0.568376 0.000000
vt 0.623932 0.000000
vt 0.752137 0.000000
vt 0.564103 0.000000
vt 0.628205 0.000000
vt 0.747863 0.000000
vt 0.269231 0.000000
vt 0.632479 0.000000
vt 0.559829 0.000000
vt 0.743590 0.000000
vt 0.636752 0.000000
vt 0.273504 0.000000
vt 0.739316 0.000000
vt 0.555556 0.000000
vt 0.641026 0.000000
vt 0.735043 0.000000
vt 0.645299 0.000000
vt 0.551282 0.000000
vt 0.730769 0.000000
vt 0.649573 0.000000
vt 0.277778 0.000000
vt 0.726496 0.000000
vt 0.653846 0.000000
vt 0.547009 0.000000
vt 0.658120 0.000000
vt 0.722222 0.000000
vt 0.662393 0.000000
vt 0.717949 0.000000
vt 0.542735 0.000000
vt 0.282051 0.000000
vt 0.666667 0.000000
vt 0.713675 0.000000
vt 0.670940 0.000000
vt 0.709402 0.000000
vt 0.538462 0.000000
vt 0.675214 0.000000
vt 0.705128 0.000000
vt 0.679487 0.000000
vt 0.700855 0.000000
vt 0.683761 0.000000
vt 0.696581 0.000000
vt 0.688034 0.000000
vt 0.692308 0.000000
vt 0.286325 0.000000
vt 0.534188 0.000000
vt 0.529915 0.000000
vt 0.290598 0.000000
vt 0.525641 0.000000
vt 0.521368 0.000000
vt 0.294872 0.000000
vt 0.517094 0.000000
vt 0.512821 0.000000
vt 0.299145 0.000000
vt 0.508547 0.000000
vt 0.303419 0.000000
vt 0.504274 0.000000
vt 0.500000 0.000000
vt 0.307692 0.000000
vt 0.495726 0.000000
vt 0.491453 0.000000
vt 0.311966 0.000000
vt 0.487179 0.000000
vt 0.316239 0.000000
vt 0.482906 0.000000
vt 0.478632 0.000000
vt 0.320513 0.000000
vt 0.474359 0.000000
vt 0.324786 0.000000
vt 0.470085 0.000000
vt 0.465812 0.000000
vt 0.329060 0.000000
vt 0.461538 0.000000
vt 0.333333 0.000000
vt 0.457265 0.000000
vt 0.452991 0.000000
vt 0.337607 0.000000
vt 0.448718 0.000000
vt 0.444444 0.000000
vt 0.341880 0.000000
vt 0.440171 0.000000
vt 0.346154 0.000000
vt 0.435897 0.000000
vt 0.431624 0.000000
vt 0.350427 0.000000
vt 0.427350 0.000000
vt 0.354701 0.000000
vt 0.423077 0.000000
vt 0.418803 0.000000
vt 0.358974 0.000000
vt 0.414530 0.000000
vt 0.410256 0.000000
vt 0.363248 0.000000
vt 0.405983 0.000000
vt 0.367521 0.000000
vt 0.401709 0.000000
vt 0.397436 0.000000
vt 0.371795 0.000000
vt 0.393162 0.000000
vt 0.376068 0.000000
vt 0.388889 0.000000
vt 0.384615 0.000000
vt 0.380342 0.000000
vt 0.004255 1.000000
vt 0.000000 1.000000
vt 0.008511 1.000000
vt 0.004255 0.000000
vt 0.012766 1.000000
vt 0.008511 0.000000
vt 0.017021 1.000000
vt 0.012766 0.000000
vt 0.021277 1.000000
vt 0.017021 0.000000
vt 0.025532 1.000000
vt 0.021277 0.000000
vt 0.029787 1.000000
vt 0.025532 0.000000
vt 0.034043 1.000000
vt 0.029787 0.000000
vt 0.038298 1.000000
vt 0.034043 0.000000
vt 0.042553 1.000000
vt 0.038298 0.000000
vt 0.046809 1.000000
vt 0.042553 0.000000
vt 0.051064 1.000000
vt 0.046809 0.000000
vt 0.055319 1.000000
vt 0.051064 0.000000
vt 0.059574 1.000000
vt 0.055319 0.000000
vt 0.063830 1.000000
vt 0.059574 0.000000
vt 0.068085 1.000000
vt 0.063830 0.000000
vt 0.072340 1.000000
vt 0.068085 0.000000
vt 0.076596 1.000000
vt 0.072340 0.000000
vt 0.080851 1.000000
vt 0.076596 0.000000
vt 0.085106 1.000000
vt 0.080851 0.000000
vt 0.089362 1.000000
vt 0.085106 0.000000
vt 0.093617 1.000000
vt 0.089362 0.000000
vt 0.097872 1.000000
vt 0.093617 0.000000
vt 0.102128 1.000000
vt 0.097872 0.000000
vt 0.106383 1.000000
vt 0.102128 0.000000
vt 0.110638 1.000000
vt 0.106383 0.000000
vt 0.114894 1.000000
vt 0.110638 0.000000
vt 0.119149 1.000000
vt 0.114894 0.000000
vt 0.123404 1.000000
vt 0.119149 0.000000
vt 0.127660 1.000000
vt 0.123404 0.000000
vt 0.131915 1.000000
vt 0.127660 0.000000
vt 0.136170 1.000000
vt 0.131915 0.000000
vt 0.140426 1.000000
vt 0.136170 0.000000
vt 0.144681 1.000000
vt 0.140426 0.000000
vt 0.148936 1.000000
vt 0.144681 0.000000
vt 0.153191 1.000000
vt 0.148936 0.000000
vt 0.157447 1.000000
vt 0.153191 0.000000
vt 0.161702 1.000000
vt 0.157447 0.000000
vt 0.165957 1.000000
vt 0.161702 0.000000
vt 0.170213 1.000000
vt 0.165957 0.000000
vt 0.174468 1.000000
vt 0.170213 0.000000
vt 0.178723 1.000000
vt 0.174468 0.000000
vt 0.182979 1.000000
vt 0.178723 0.000000
vt 0.187234 1.000000
vt 0.182979 0.000000
vt 0.191489 1.000000
vt 0.187234 0.000000
vt 0.195745 1.000000
vt 0.191489 0.000000
vt 0.200000 1.000000
vt 0.195745 0.000000
vt 0.204255 1.000000
vt 0.200000 0.000000
vt 0.208511 1.000000
vt 0.204255 0.000000
vt 0.212766 1.000000
vt 0.208511 0.000000
vt 0.217021 1.000000
vt 0.212766 0.000000
vt 0.221277 1.000000
vt 0.217021 0.000000
vt 0.225532 1.000000
vt 0.221277 0.000000
vt 0.229787 1.000000
vt 0.225532 0.000000
vt 0.234043 1.000000
vt 0.229787 0.000000
vt 0.238298 1.000000
vt 0.234043 0.000000
vt 0.242553 1.000000
vt 0.238298 0.000000
vt 0.246809 1.000000
vt 0.242553 0.000000
vt 0.251064 1.000000
vt 0.246809 0.000000
vt 0.255319 1.000000
vt 0.251064 0.000000
vt 0.259574 1.000000
vt 0.255319 0.000000
vt 0.263830 1.000000
vt 0.259574 0.000000
vt 0.268085 1.000000
vt 0.263830 0.000000
vt 0.272340 1.000000
vt 0.268085 0.000000
vt 0.276596 1.000000
vt 0.272340 0.000000
vt 0.280851 1.000000
vt 0.276596 0.000000
vt 0.285106 1.000000
vt 0.280851 0.000000
vt 0.289362 1.000000
vt 0.285106 0.000000
vt 0.293617 1.000000
vt 0.289362 0.000000
vt 0.297872 1.000000
vt 0.293617 0.000000
vt 0.302128 1.000000
vt 0.297872 0.000000
vt 0.306383 1.000000
vt 0.302128 0.000000
vt 0.310638 1.000000
vt 0.306383 0.000000
vt 0.314894 1.000000
vt 0.310638 0.000000
vt 0.319149 1.000000
vt 0.314894 0.000000
vt 0.323404 1.000000
vt 0.319149 0.000000
vt 0.327660 1.000000
vt 0.323404 0.000000
vt 0.331915 1.000000
vt 0.327660 0.000000
vt 0.336170 1.000000
vt 0.331915 0.000000
vt 0.340426 1.000000
vt 0.336170 0.000000
vt 0.344681 1.000000
vt 0.340426 0.000000
vt 0.348936 1.000000
vt 0.344681 0.000000
vt 0.353191 1.000000
vt 0.348936 0.000000
vt 0.357447 1.000000
vt 0.353191 0.000000
vt 0.361702 1.000000
vt 0.357447 0.000000
vt 0.365957 1.000000
vt 0.361702 0.000000
vt 0.370213 1.000000
vt 0.365957 0.000000
vt 0.374468 1.000000
vt 0.370213 0.000000
vt 0.378723 1.000000
vt 0.374468 0.000000
vt 0.382979 1.000000
vt 0.378723 0.000000
vt 0.387234 1.000000
vt 0.382979 0.000000
vt 0.391489 1.000000
vt 0.387234 0.000000
vt 0.395745 1.000000
vt 0.391489 0.000000
vt 0.400000 1.000000
vt 0.395745 0.000000
vt 0.404255 1.000000
vt 0.400000 0.000000
vt 0.408511 1.000000
vt 0.404255 0.000000
vt 0.412766 1.000000
vt 0.408511 0.000000
vt 0.417021 1.000000
vt 0.412766 0.000000
vt 0.421277 1.000000
vt 0.417021 0.000000
vt 0.425532 1.000000
vt 0.421277 0.000000
vt 0.429787 1.000000
vt 0.425532 0.000000
vt 0.434043 1.000000
vt 0.429787 0.000000
vt 0.438298 1.000000
vt 0.434043 0.000000
vt 0.442553 1.000000
vt 0.438298 0.000000
vt 0.446809 1.000000
vt 0.442553 0.000000
vt 0.451064 1.000000
vt 0.446809 0.000000
vt 0.455319 1.000000
vt 0.451064 0.000000
vt 0.459574 1.000000
vt 0.455319 0.000000
vt 0.463830 1.000000
vt 0.459574 0.000000
vt 0.468085 1.000000
vt 0.463830 0.000000
vt 0.472340 1.000000
vt 0.468085 0.000000
vt 0.476596 1.000000
vt 0.472340 0.000000
vt 0.480851 1.000000
vt 0.476596 0.000000
vt 0.485106 1.000000
vt 0.480851 0.000000
vt 0.489362 1.000000
vt 0.485106 0.000000
vt 0.493617 1.000000
vt 0.489362 0.000000
vt 0.497872 1.000000
vt 0.493617 0.000000
vt 0.502128 1.000000
vt 0.497872 0.000000
vt 0.506383 1.000000
vt 0.502128 0.000000
vt 0.510638 1.000000
vt 0.506383 0.000000
vt 0.514894 1.000000
vt 0.510638 0.000000
vt 0.519149 1.000000
vt 0.514894 0.000000
vt 0.523404 1.000000
vt 0.519149 0.000000
vt 0.527660 1.000000
vt 0.523404 0.000000
vt 0.531915 1.000000
vt 0.527660 0.000000
vt 0.536170 1.000000
vt 0.531915 0.000000
vt 0.540426 1.000000
vt 0.536170 0.000000
vt 0.544681 1.000000
vt 0.540426 0.000000
vt 0.548936 1.000000
vt 0.544681 0.000000
vt 0.553191 1.000000
vt 0.548936 0.000000
vt 0.557447 1.000000
vt 0.553191 0.000000
vt 0.561702 1.000000
vt 0.557447 0.000000
vt 0.565957 1.000000
vt 0.561702 0.000000
vt 0.570213 1.000000
vt 0.565957 0.000000
vt 0.574468 1.000000
vt 0.570213 0.000000
vt 0.578723 1.000000
vt 0.574468 0.000000
vt 0.582979 1.000000
vt 0.578723 0.000000
vt 0.587234 1.000000
vt 0.582979 0.000000
vt 0.591489 1.000000
vt 0.587234 0.000000
vt 0.595745 1.000000
vt 0.591489 0.000000
vt 0.600000 1.000000
vt 0.595745 0.000000
vt 0.604255 1.000000
vt 0.600000 0.000000
vt 0.608511 1.000000
vt 0.604255 0.000000
vt 0.612766 1.000000
vt 0.608511 0.000000
vt 0.617021 1.000000
vt 0.612766 0.000000
vt 0.621277 1.000000
vt 0.617021 0.000000
vt 0.625532 1.000000
vt 0.621277 0.000000
vt 0.629787 1.000000
vt 0.625532 0.000000
vt 0.634043 1.000000
vt 0.629787 0.000000
vt 0.638298 1.000000
vt 0.634043 0.000000
vt 0.642553 1.000000
vt 0.638298 0.000000
vt 0.646809 1.000000
vt 0.642553 0.000000
vt 0.651064 1.000000
vt 0.646809 0.000000
vt 0.655319 1.000000
vt 0.651064 0.000000
vt 0.659574 1.000000
vt 0.655319 0.000000
vt 0.663830 1.000000
vt 0.659574 0.000000
vt 0.668085 1.000000
vt 0.663830 0.000000
vt 0.672340 1.000000
vt 0.668085 0.000000
vt 0.676596 1.000000
vt 0.672340 0.000000
vt 0.680851 1.000000
vt 0.676596 0.000000
vt 0.685106 1.000000
vt 0.680851 0.000000
vt 0.689362 1.000000
vt 0.685106 0.000000
vt 0.693617 1.000000
vt 0.689362 0.000000
vt 0.697872 1.000000
vt 0.693617 0.000000
vt 0.702128 1.000000
vt 0.697872 0.000000
vt 0.706383 1.000000
vt 0.702128 0.000000
vt 0.710638 1.000000
vt 0.706383 0.000000
vt 0.714894 1.000000
vt 0.710638 0.000000
vt 0.719149 1.000000
vt 0.714894 0.000000
vt 0.723404 1.000000
vt 0.719149 0.000000
vt 0.727660 1.000000
vt 0.723404 0.000000
vt 0.731915 1.000000
vt 0.727660 0.000000
vt 0.736170 1.000000
vt 0.731915 0.000000
vt 0.740426 1.000000
vt 0.736170 0.000000
vt 0.744681 1.000000
vt 0.740426 0.000000
vt 0.748936 1.000000
vt 0.744681 0.000000
vt 0.753191 1.000000
vt 0.748936 0.000000
vt 0.757447 1.000000
vt 0.753191 0.000000
vt 0.761702 1.000000
vt 0.757447 0.000000
vt 0.765957 1.000000
vt 0.761702 0.000000
vt 0.770213 1.000000
vt 0.765957 0.000000
vt 0.774468 1.000000
vt 0.770213 0.000000
vt 0.778723 1.000000
vt 0.774468 0.000000
vt 0.782979 1.000000
vt 0.778723 0.000000
vt 0.787234 1.000000
vt 0.782979 0.000000
vt 0.791489 1.000000
vt 0.787234 0.000000
vt 0.795745 1.000000
vt 0.791489 0.000000
vt 0.800000 1.000000
vt 0.795745 0.000000
vt 0.804255 1.000000
vt 0.800000 0.000000
vt 0.808511 1.000000
vt 0.804255 0.000000
vt 0.812766 1.000000
vt 0.808511 0.000000
vt 0.817021 1.000000
vt 0.812766 0.000000
vt 0.821277 1.000000
vt 0.817021 0.000000
vt 0.825532 1.000000
vt 0.821277 0.000000
vt 0.829787 1.000000
vt 0.825532 0.000000
vt 0.834043 1.000000
vt 0.829787 0.000000
vt 0.838298 1.000000
vt 0.834043 0.000000
vt 0.842553 1.000000
vt 0.838298 0.000000
vt 0.846808 1.000000
vt 0.842553 0.000000
vt 0.851064 1.000000
vt 0.846808 0.000000
vt 0.855319 1.000000
vt 0.851064 0.000000
vt 0.859574 1.000000
vt 0.855319 0.000000
vt 0.863830 1.000000
vt 0.859574 0.000000
vt 0.868085 1.000000
vt 0.863830 0.000000
vt 0.872340 1.000000
vt 0.868085 0.000000
vt 0.876596 1.000000
vt 0.872340 0.000000
vt 0.880851 1.000000
vt 0.876596 0.000000
vt 0.885106 1.000000
vt 0.880851 0.000000
vt 0.889362 1.000000
vt 0.885106 0.000000
vt 0.893617 1.000000
vt 0.889362 0.000000
vt 0.897872 1.000000
vt 0.893617 0.000000
vt 0.902128 1.000000
vt 0.897872 0.000000
vt 0.906383 1.000000
vt 0.902128 0.000000
vt 0.910638 1.000000
vt 0.906383 0.000000
vt 0.914894 1.000000
vt 0.910638 0.000000
vt 0.919149 1.000000
vt 0.914894 0.000000
vt 0.923404 1.000000
vt 0.919149 0.000000
vt 0.927660 1.000000
vt 0.923404 0.000000
vt 0.931915 1.000000
vt 0.927660 0.000000
vt 0.936170 1.000000
vt 0.931915 0.000000
vt 0.940426 1.000000
vt 0.936170 0.000000
vt 0.944681 1.000000
vt 0.940426 0.000000
vt 0.948936 1.000000
vt 0.944681 0.000000
vt 0.953192 1.000000
vt 0.948936 0.000000
vt 0.957447 1.000000
vt 0.953192 0.000000
vt 0.961702 1.000000
vt 0.957447 0.000000
vt 0.965957 1.000000
vt 0.961702 0.000000
vt 0.970213 1.000000
vt 0.965957 0.000000
vt 0.974468 1.000000
vt 0.970213 0.000000
vt 0.978723 1.000000
vt 0.974468 0.000000
vt 0.982979 1.000000
vt 0.978723 0.000000
vt 0.987234 1.000000
vt 0.982979 0.000000
vt 0.991489 1.000000
vt 0.987234 0.000000
vt 0.995745 1.000000
vt 0.991489 0.000000
vt 1.000000 1.000000
vt 0.995745 0.000000
s 0
usemtl マテリアル
f 1/1/1 5/2/1 2/3/1
f 5/2/1 3/4/1 2/3/1
f 5/2/1 4/5/1 3/4/1
f 1/1/1 6/6/1 5/2/1
f 29/7/1 31/8/1 30/9/1
f 28/10/1 31/8/1 29/7/1
f 27/11/1 31/8/1 28/10/1
f 27/11/1 32/12/1 31/8/1
f 26/13/1 32/12/1 27/11/1
f 25/14/1 32/12/1 26/13/1
f 24/15/1 32/12/1 25/14/1
f 24/15/1 33/16/1 32/12/1
f 23/17/1 33/16/1 24/15/1
f 22/18/1 33/16/1 23/17/1
f 21/19/1 33/16/1 22/18/1
f 21/19/1 34/20/1 33/16/1
f 20/21/1 34/20/1 21/19/1
f 19/22/1 34/20/1 20/21/1
f 18/23/1 34/20/1 19/22/1
f 18/23/1 35/24/1 34/20/1
f 17/25/1 35/24/1 18/23/1
f 16/26/1 35/24/1 17/25/1
f 15/27/1 35/24/1 16/26/1
f 15/27/1 36/28/1 35/24/1
f 14/29/1 36/28/1 15/27/1
f 13/30/1 36/28/1 14/29/1
f 12/31/1 36/28/1 13/30/1
f 12/31/1 37/32/1 36/28/1
f 11/33/1 37/32/1 12/31/1
f 10/34/1 37/32/1 11/33/1
f 9/35/1 37/32/1 10/34/1
f 9/35/1 38/36/1 37/32/1
f 8/37/1 38/36/1 9/35/1
f 7/38/1 38/36/1 8/37/1
f 6/6/1 38/36/1 7/38/1
f 6/6/1 39/39/1 38/36/1
f 1/1/1 39/39/1 6/6/1
f 1/1/1 40/40/1 39/39/1
f 1/1/1 41/41/1 40/40/1
f 1/1/1 42/42/1 41/41/1
f 1/1/1 43/43/1 42/42/1
f 1/1/1 44/44/1 43/43/1
f 1/1/1 213/45/1 44/44/1
f 213/45/1 45/46/1 44/44/1
f 213/45/1 212/47/1 45/46/1
f 212/47/1 46/48/1 45/46/1
f 212/47/1 211/49/1 46/48/1
f 211/49/1 47/50/1 46/48/1
f 210/51/1 47/50/1 211/49/1
f 209/52/1 47/50/1 210/51/1
f 1/1/1 214/53/1 213/45/1
f 208/54/1 47/50/1 209/52/1
f 1/1/1 215/55/1 214/53/1
f 1/1/1 216/56/1 215/55/1
f 207/57/1 47/50/1 208/54/1
f 207/57/1 48/58/1 47/50/1
f 1/1/1 217/59/1 216/56/1
f 206/60/1 48/58/1 207/57/1
f 1/1/1 218/61/1 217/59/1
f 1/1/1 219/62/1 218/61/1
f 205/63/1 48/58/1 206/60/1
f 1/1/1 220/64/1 219/62/1
f 204/65/1 48/58/1 205/63/1
f 1/1/1 221/66/1 220/64/1
f 1/1/1 222/67/1 221/66/1
f 203/68/1 48/58/1 204/65/1
f 1/1/1 223/69/1 222/67/1
f 202/70/1 48/58/1 203/68/1
f 1/1/1 224/71/1 223/69/1
f 202/70/1 49/72/1 48/58/1
f 1/1/1 225/73/1 224/71/1
f 201/74/1 49/72/1 202/70/1
f 1/1/1 226/75/1 225/73/1
f 1/1/1 227/76/1 226/75/1
f 200/77/1 49/72/1 201/74/1
f 1/1/1 228/78/1 227/76/1
f 199/79/1 49/72/1 200/77/1
f 1/1/1 229/80/1 228/78/1
f 235/81/1 234/82/1 1/1/1
f 234/82/1 233/83/1 1/1/1
f 233/83/1 232/84/1 1/1/1
f 232/84/1 231/85/1 1/1/1
f 231/85/1 230/86/1 1/1/1
f 230/86/1 229/80/1 1/1/1
f 199/79/1 50/87/1 49/72/1
f 198/88/1 50/87/1 199/79/1
f 197/89/1 50/87/1 198/88/1
f 196/90/1 50/87/1 197/89/1
f 196/90/1 51/91/1 50/87/1
f 195/92/1 51/91/1 196/90/1
f 194/93/1 51/91/1 195/92/1
f 194/93/1 52/94/1 51/91/1
f 193/95/1 52/94/1 194/93/1
f 192/96/1 52/94/1 193/95/1
f 192/96/1 53/97/1 52/94/1
f 191/98/1 53/97/1 192/96/1
f 190/99/1 53/97/1 191/98/1
f 190/99/1 54/100/1 53/97/1
f 189/101/1 54/100/1 190/99/1
f 188/102/1 54/100/1 189/101/1
f 188/102/1 55/103/1 54/100/1
f 187/104/1 55/103/1 188/102/1
f 187/104/1 56/105/1 55/103/1
f 186/106/1 56/105/1 187/104/1
f 186/106/1 57/107/1 56/105/1
f 185/108/1 57/107/1 186/106/1
f 185/108/1 58/109/1 57/107/1
f 184/110/1 58/109/1 185/108/1
f 138/111/1 140/112/1 139/113/1
f 184/110/1 59/114/1 58/109/1
f 183/115/1 59/114/1 184/110/1
f 138/111/1 141/116/1 140/112/1
f 182/117/1 59/114/1 183/115/1
f 182/117/1 60/118/1 59/114/1
f 138/111/1 142/119/1 141/116/1
f 181/120/1 60/118/1 182/117/1
f 137/121/1 142/119/1 138/111/1
f 137/121/1 143/122/1 142/119/1
f 181/120/1 61/123/1 60/118/1
f 180/124/1 61/123/1 181/120/1
f 137/121/1 144/125/1 143/122/1
f 136/126/1 144/125/1 137/121/1
f 180/124/1 62/127/1 61/123/1
f 179/128/1 62/127/1 180/124/1
f 136/126/1 145/129/1 144/125/1
f 135/130/1 145/129/1 136/126/1
f 135/130/1 146/131/1 145/129/1
f 178/132/1 62/127/1 179/128/1
f 178/132/1 63/133/1 62/127/1
f 134/134/1 146/131/1 135/130/1
f 134/134/1 147/135/1 146/131/1
f 177/136/1 63/133/1 178/132/1
f 133/137/1 147/135/1 134/134/1
f 133/137/1 148/138/1 147/135/1
f 176/139/1 63/133/1 177/136/1
f 176/139/1 64/140/1 63/133/1
f 133/137/1 149/141/1 148/138/1
f 132/142/1 149/141/1 133/137/1
f 175/143/1 64/140/1 176/139/1
f 132/142/1 150/144/1 149/141/1
f 175/143/1 65/145/1 64/140/1
f 174/146/1 65/145/1 175/143/1
f 131/147/1 150/144/1 132/142/1
f 131/147/1 151/148/1 150/144/1
f 173/149/1 65/145/1 174/146/1
f 131/147/1 152/150/1 151/148/1
f 130/151/1 152/150/1 131/147/1
f 172/152/1 65/145/1 173/149/1
f 130/151/1 153/153/1 152/150/1
f 172/152/1 66/154/1 65/145/1
f 171/155/1 66/154/1 172/152/1
f 130/151/1 154/156/1 153/153/1
f 129/157/1 154/156/1 130/151/1
f 129/157/1 155/158/1 154/156/1
f 170/159/1 66/154/1 171/155/1
f 129/157/1 156/160/1 155/158/1
f 169/161/1 66/154/1 170/159/1
f 128/162/1 156/160/1 129/157/1
f 169/161/1 67/163/1 66/154/1
f 128/162/1 157/164/1 156/160/1
f 168/165/1 67/163/1 169/161/1
f 128/162/1 158/166/1 157/164/1
f 167/167/1 67/163/1 168/165/1
f 127/168/1 158/166/1 128/162/1
f 127/168/1 159/169/1 158/166/1
f 166/170/1 67/163/1 167/167/1
f 127/168/1 160/171/1 159/169/1
f 165/172/1 67/163/1 166/170/1
f 127/168/1 161/173/1 160/171/1
f 164/174/1 67/163/1 165/172/1
f 127/168/1 162/175/1 161/173/1
f 163/176/1 67/163/1 164/174/1
f 127/168/1 163/176/1 162/175/1
f 127/168/1 67/163/1 163/176/1
f 127/168/1 68/177/1 67/163/1
f 126/178/1 68/177/1 127/168/1
f 125/179/1 68/177/1 126/178/1
f 125/179/1 69/180/1 68/177/1
f 124/181/1 69/180/1 125/179/1
f 123/182/1 69/180/1 124/181/1
f 123/182/1 70/183/1 69/180/1
f 122/184/1 70/183/1 123/182/1
f 121/185/1 70/183/1 122/184/1
f 121/185/1 71/186/1 70/183/1
f 120/187/1 71/186/1 121/185/1
f 120/187/1 72/188/1 71/186/1
f 119/189/1 72/188/1 120/187/1
f 118/190/1 72/188/1 119/189/1
f 118/190/1 73/191/1 72/188/1
f 117/192/1 73/191/1 118/190/1
f 116/193/1 73/191/1 117/192/1
f 116/193/1 74/194/1 73/191/1
f 115/195/1 74/194/1 116/193/1
f 115/195/1 75/196/1 74/194/1
f 114/197/1 75/196/1 115/195/1
f 113/198/1 75/196/1 114/197/1
f 113/198/1 76/199/1 75/196/1
f 112/200/1 76/199/1 113/198/1
f 112/200/1 77/201/1 76/199/1
f 111/202/1 77/201/1 112/200/1
f 110/203/1 77/201/1 111/202/1
f 110/203/1 78/204/1 77/201/1
f 109/205/1 78/204/1 110/203/1
f 109/205/1 79/206/1 78/204/1
f 108/207/1 79/206/1 109/205/1
f 107/208/1 79/206/1 108/207/1
f 107/208/1 80/209/1 79/206/1
f 106/210/1 80/209/1 107/208/1
f 105/211/1 80/209/1 106/210/1
f 105/211/1 81/212/1 80/209/1
f 104/213/1 81/212/1 105/211/1
f 104/213/1 82/214/1 81/212/1
f 103/215/1 82/214/1 104/213/1
f 102/216/1 82/214/1 103/215/1
f 102/216/1 83/217/1 82/214/1
f 101/218/1 83/217/1 102/216/1
f 101/218/1 84/219/1 83/217/1
f 100/220/1 84/219/1 101/218/1
f 99/221/1 84/219/1 100/220/1
f 99/221/1 85/222/1 84/219/1
f 98/223/1 85/222/1 99/221/1
f 97/224/1 85/222/1 98/223/1
f 97/224/1 86/225/1 85/222/1
f 96/226/1 86/225/1 97/224/1
f 96/226/1 87/227/1 86/225/1
f 95/228/1 87/227/1 96/226/1
f 94/229/1 87/227/1 95/228/1
f 94/229/1 88/230/1 87/227/1
f 93/231/1 88/230/1 94/229/1
f 93/231/1 89/232/1 88/230/1
f 92/233/1 89/232/1 93/231/1
f 91/234/1 89/232/1 92/233/1
f 91/234/1 90/235/1 89/232/1
f 236/1/2 237/3/2 240/2/2
f 240/2/2 237/3/2 238/4/2
f 240/2/2 238/4/2 239/5/2
f 236/1/2 240/2/2 241/6/2
f 264/7/2 265/9/2 266/8/2
f 263/10/2 264/7/2 266/8/2
f 262/11/2 263/10/2 266/8/2
f 262/11/2 266/8/2 267/12/2
f 261/13/2 262/11/2 267/12/2
f 260/14/2 261/13/2 267/12/2
f 259/15/2 260/14/2 267/12/2
f 259/15/2 267/12/2 268/16/2
f 258/17/2 259/15/2 268/16/2
f 257/18/2 258/17/2 268/16/2
f 256/19/2 257/18/2 268/16/2
f 256/19/2 268/16/2 269/20/2
f 255/21/2 256/19/2 269/20/2
f 254/22/2 255/21/2 269/20/2
f 253/23/2 254/22/2 269/20/2
f 253/23/2 269/20/2 270/24/2
f 252/25/2 253/23/2 270/24/2
f 251/26/2 252/25/2 270/24/2
f 250/27/2 251/26/2 270/24/2
f 250/27/2 270/24/2 271/28/2
f 249/29/2 250/27/2 271/28/2
f 248/30/2 249/29/2 271/28/2
f 247/31/2 248/30/2 271/28/2
f 247/31/2 271/28/2 272/32/2
f 246/33/2 247/31/2 272/32/2
f 245/34/2 246/33/2 272/32/2
f 244/35/2 245/34/2 272/32/2
f 244/35/2 272/32/2 273/36/2
f 243/37/2 244/35/2 273/36/2
f 242/38/2 243/37/2 273/36/2
f 241/6/2 242/38/2 273/36/2
f 241/6/2 273/36/2 274/39/2
f 236/1/2 241/6/2 274/39/2
f 236/1/2 274/39/2 275/40/2
f 236/1/2 275/40/2 276/41/2
f 236/1/2 276/41/2 277/42/2
f 236/1/2 277/42/2 278/43/2
f 236/1/2 278/43/2 279/44/2
f 236/1/2 279/44/2 448/45/2
f 448/45/2 279/44/2 280/46/2
f 448/45/2 280/46/2 447/47/2
f 447/47/2 280/46/2 281/48/2
f 447/47/2 281/48/2 446/49/2
f 446/49/2 281/48/2 282/50/2
f 445/51/2 446/49/2 282/50/2
f 444/52/2 445/51/2 282/50/2
f 236/1/2 448/45/2 449/53/2
f 443/54/2 444/52/2 282/50/2
f 236/1/2 449/53/2 450/55/2
f 236/1/2 450/55/2 451/56/2
f 442/57/2 443/54/2 282/50/2
f 442/57/2 282/50/2 283/58/2
f 236/1/2 451/56/2 452/59/2
f 441/60/2 442/57/2 283/58/2
f 236/1/2 452/59/2 453/61/2
f 236/1/2 453/61/2 454/62/2
f 440/63/2 441/60/2 283/58/2
f 236/1/2 454/62/2 455/64/2
f 439/65/2 440/63/2 283/58/2
f 236/1/2 455/64/2 456/66/2
f 236/1/2 456/66/2 457/67/2
f 438/68/2 439/65/2 283/58/2
f 236/1/2 457/67/2 458/69/2
f 437/70/2 438/68/2 283/58/2
f 236/1/2 458/69/2 459/71/2
f 437/70/2 283/58/2 284/72/2
f 236/1/2 459/71/2 460/73/2
f 436/74/2 437/70/2 284/72/2
f 236/1/2 460/73/2 461/75/2
f 236/1/2 461/75/2 462/76/2
f 435/77/2 436/74/2 284/72/2
f 236/1/2 462/76/2 463/78/2
f 434/79/2 435/77/2 284/72/2
f 236/1/2 463/78/2 464/80/2
f 470/81/2 236/1/2 469/82/2
f 469/82/2 236/1/2 468/83/2
f 468/83/2 236/1/2 467/84/2
f 467/84/2 236/1/2 466/85/2
f 466/85/2 236/1/2 465/86/2
f 465/86/2 236/1/2 464/80/2
f 434/79/2 284/72/2 285/87/2
f 433/88/2 434/79/2 285/87/2
f 432/89/2 433/88/2 285/87/2
f 431/90/2 432/89/2 285/87/2
f 431/90/2 285/87/2 286/91/2
f 430/92/2 431/90/2 286/91/2
f 429/93/2 430/92/2 286/91/2
f 429/93/2 286/91/2 287/94/2
f 428/95/2 429/93/2 287/94/2
f 427/96/2 428/95/2 287/94/2
f 427/96/2 287/94/2 288/97/2
f 426/98/2 427/96/2 288/97/2
f 425/99/2 426/98/2 288/97/2
f 425/99/2 288/97/2 289/100/2
f 424/101/2 425/99/2 289/100/2
f 423/102/2 424/101/2 289/100/2
f 423/102/2 289/100/2 290/103/2
f 422/104/2 423/102/2 290/103/2
f 422/104/2 290/103/2 291/105/2
f 421/106/2 422/104/2 291/105/2
f 421/106/2 291/105/2 292/107/2
f 420/108/2 421/106/2 292/107/2
f 420/108/2 292/107/2 293/109/2
f 419/110/2 420/108/2 293/109/2
f 373/111/2 374/113/2 375/112/2
f 419/110/2 293/109/2 294/114/2
f 418/115/2 419/110/2 294/114/2
f 373/111/2 375/112/2 376/116/2
f 417/117/2 418/115/2 294/114/2
f 417/117/2 294/114/2 295/118/2
f 373/111/2 376/116/2 377/119/2
f 416/120/2 417/117/2 295/118/2
f 372/121/2 373/111/2 377/119/2
f 372/121/2 377/119/2 378/122/2
f 416/120/2 295/118/2 296/123/2
f 415/124/2 416/120/2 296/123/2
f 372/121/2 378/122/2 379/125/2
f 371/126/2 372/121/2 379/125/2
f 415/124/2 296/123/2 297/127/2
f 414/128/2 415/124/2 297/127/2
f 371/126/2 379/125/2 380/129/2
f 370/130/2 371/126/2 380/129/2
f 370/130/2 380/129/2 381/131/2
f 413/132/2 414/128/2 297/127/2
f 413/132/2 297/127/2 298/133/2
f 369/134/2 370/130/2 381/131/2
f 369/134/2 381/131/2 382/135/2
f 412/136/2 413/132/2 298/133/2
f 368/137/2 369/134/2 382/135/2
f 368/137/2 382/135/2 383/138/2
f 411/139/2 412/136/2 298/133/2
f 411/139/2 298/133/2 299/140/2
f 368/137/2 383/138/2 384/141/2
f 367/142/2 368/137/2 384/141/2
f 410/143/2 411/139/2 299/140/2
f 367/142/2 384/141/2 385/144/2
f 410/143/2 299/140/2 300/145/2
f 409/146/2 410/143/2 300/145/2
f 366/147/2 367/142/2 385/144/2
f 366/147/2 385/144/2 386/148/2
f 408/149/2 409/146/2 300/145/2
f 366/147/2 386/148/2 387/150/2
f 365/151/2 366/147/2 387/150/2
f 407/152/2 408/149/2 300/145/2
f 365/151/2 387/150/2 388/153/2
f 407/152/2 300/145/2 301/154/2
f 406/155/2 407/152/2 301/154/2
f 365/151/2 388/153/2 389/156/2
f 364/157/2 365/151/2 389/156/2
f 364/157/2 389/156/2 390/158/2
f 405/159/2 406/155/2 301/154/2
f 364/157/2 390/158/2 391/160/2
f 404/161/2 405/159/2 301/154/2
f 363/162/2 364/157/2 391/160/2
f 404/161/2 301/154/2 302/163/2
f 363/162/2 391/160/2 392/164/2
f 403/165/2 404/161/2 302/163/2
f 363/162/2 392/164/2 393/166/2
f 402/167/2 403/165/2 302/163/2
f 362/168/2 363/162/2 393/166/2
f 362/168/2 393/166/2 394/169/2
f 401/170/2 402/167/2 302/163/2
f 362/168/2 394/169/2 395/171/2
f 400/172/2 401/170/2 302/163/2
f 362/168/2 395/171/2 396/173/2
f 399/174/2 400/172/2 302/163/2
f 362/168/2 396/173/2 397/175/2
f 398/176/2 399/174/2 302/163/2
f 362/168/2 397/175/2 398/176/2
f 362/168/2 398/176/2 302/163/2
f 362/168/2 302/163/2 303/177/2
f 361/178/2 362/168/2 303/177/2
f 360/179/2 361/178/2 303/177/2
f 360/179/2 303/177/2 304/180/2
f 359/181/2 360/179/2 304/180/2
f 358/182/2 359/181/2 304/180/2
f 358/182/2 304/180/2 305/183/2
f 357/184/2 358/182/2 305/183/2
f 356/185/2 357/184/2 305/183/2
f 356/185/2 305/183/2 306/186/2
f 355/187/2 356/185/2 306/186/2
f 355/187/2 306/186/2 307/188/2
f 354/189/2 355/187/2 307/188/2
f 353/190/2 354/189/2 307/188/2
f 353/190/2 307/188/2 308/191/2
f 352/192/2 353/190/2 308/191/2
f 351/193/2 352/192/2 308/191/2
f 351/193/2 308/191/2 309/194/2
f 350/195/2 351/193/2 309/194/2
f 350/195/2 309/194/2 310/196/2
f 349/197/2 350/195/2 310/196/2
f 348/198/2 349/197/2 310/196/2
f 348/198/2 310/196/2 311/199/2
f 347/200/2 348/198/2 311/199/2
f 347/200/2 311/199/2 312/201/2
f 346/202/2 347/200/2 312/201/2
f 345/203/2 346/202/2 312/201/2
f 345/203/2 312/201/2 313/204/2
f 344/205/2 345/203/2 313/204/2
f 344/205/2 313/204/2 314/206/2
f 343/207/2 344/205/2 314/206/2
f 342/208/2 343/207/2 314/206/2
f 342/208/2 314/206/2 315/209/2
f 341/210/2 342/208/2 315/209/2
f 340/211/2 341/210/2 315/209/2
f 340/211/2 315/209/2 316/212/2
f 339/213/2 340/211/2 316/212/2
f 339/213/2 316/212/2 317/214/2
f 338/215/2 339/213/2 317/214/2
f 337/216/2 338/215/2 317/214/2
f 337/216/2 317/214/2 318/217/2
f 336/218/2 337/216/2 318/217/2
f 336/218/2 318/217/2 319/219/2
f 335/220/2 336/218/2 319/219/2
f 334/221/2 335/220/2 319/219/2
f 334/221/2 319/219/2 320/222/2
f 333/223/2 334/221/2 320/222/2
f 332/224/2 333/223/2 320/222/2
f 332/224/2 320/222/2 321/225/2
f 331/226/2 332/224/2 321/225/2
f 331/226/2 321/225/2 322/227/2
f 330/228/2 331/226/2 322/227/2
f 329/229/2 330/228/2 322/227/2
f 329/229/2 322/227/2 323/230/2
f 328/231/2 329/229/2 323/230/2
f 328/231/2 323/230/2 324/232/2
f 327/233/2 328/231/2 324/232/2
f 326/234/2 327/233/2 324/232/2
f 326/234/2 324/232/2 325/235/2
s 1
f 474/236/3 471/1/4 472/237/4
f 476/238/5 473/239/3 474/236/3
f 478/240/6 475/241/5 476/238/5
f 480/242/7 477/243/6 478/240/6
f 482/244/8 479/245/7 480/242/7
f 484/246/9 481/247/10 482/244/8
f 486/248/11 483/249/9 484/246/9
f 488/250/12 485/251/11 486/248/11
f 490/252/13 487/253/12 488/250/12
f 492/254/14 489/255/13 490/252/13
f 494/256/15 491/257/14 492/254/14
f 496/258/16 493/259/15 494/256/15
f 498/260/17 495/261/16 496/258/16
f 500/262/18 497/263/17 498/260/17
f 502/264/19 499/265/18 500/262/18
f 504/266/20 501/267/19 502/264/19
f 506/268/21 503/269/20 504/266/20
f 508/270/22 505/271/21 506/268/21
f 510/272/23 507/273/22 508/270/22
f 512/274/24 509/275/23 510/272/23
f 514/276/25 511/277/24 512/274/24
f 516/278/26 513/279/25 514/276/25
f 518/280/27 515/281/26 516/278/26
f 520/282/28 517/283/27 518/280/27
f 522/284/29 519/285/28 520/282/28
f 524/286/30 521/287/29 522/284/29
f 526/288/31 523/289/30 524/286/30
f 528/290/32 525/291/31 526/288/31
f 530/292/33 527/293/32 528/290/32
f 532/294/34 529/295/33 530/292/33
f 534/296/35 531/297/34 532/294/34
f 536/298/36 533/299/35 534/296/35
f 538/300/37 535/301/36 536/298/36
f 540/302/38 537/303/37 538/300/37
f 542/304/39 539/305/38 540/302/38
f 544/306/40 541/307/39 542/304/39
f 546/308/41 543/309/40 544/306/40
f 548/310/42 545/311/41 546/308/41
f 550/312/43 547/313/42 548/310/42
f 552/314/44 549/315/43 550/312/43
f 554/316/45 551/317/44 552/314/44
f 556/318/46 553/319/45 554/316/45
f 558/320/47 555/321/46 556/318/46
f 560/322/48 557/323/47 558/320/47
f 562/324/49 559/325/48 560/322/48
f 564/326/50 561/327/49 562/324/49
f 566/328/51 563/329/50 564/326/50
f 568/330/52 565/331/51 566/328/51
f 570/332/53 567/333/52 568/330/52
f 572/334/54 569/335/53 570/332/53
f 574/336/55 571/337/54 572/334/54
f 576/338/56 573/339/55 574/336/55
f 578/340/57 575/341/56 576/338/56
f 580/342/58 577/343/57 578/340/57
f 582/344/59 579/345/58 580/342/58
f 584/346/60 581/347/59 582/344/59
f 586/348/61 583/349/60 584/346/60
f 588/350/62 585/351/61 586/348/61
f 590/352/63 587/353/62 588/350/62
f 592/354/64 589/355/63 590/352/63
f 594/356/65 591/357/64 592/354/64
f 596/358/66 593/359/65 594/356/65
f 598/360/67 595/361/66 596/358/66
f 600/362/68 597/363/67 598/360/67
f 602/364/69 599/365/68 600/362/68
f 604/366/70 601/367/69 602/364/69
f 606/368/71 603/369/70 604/366/70
f 608/370/72 605/371/71 606/368/71
f 610/372/73 607/373/72 608/370/72
f 612/374/74 609/375/73 610/372/73
f 614/376/6 611/377/74 612/374/74
f 616/378/75 613/379/6 614/376/6
f 618/380/76 615/381/75 616/378/75
f 620/382/77 617/383/76 618/380/76
f 622/384/78 619/385/77 620/382/77
f 624/386/79 621/387/78 622/384/78
f 626/388/80 623/389/79 624/386/79
f 628/390/81 625/391/80 626/388/80
f 630/392/82 627/393/81 628/390/81
f 632/394/83 629/395/82 630/392/82
f 634/396/84 631/397/83 632/394/83
f 636/398/85 633/399/84 634/396/84
f 638/400/86 635/401/85 636/398/85
f 640/402/87 637/403/86 638/400/86
f 642/404/88 639/405/87 640/402/87
f 644/406/89 641/407/88 642/404/88
f 646/408/90 643/409/89 644/406/89
f 648/410/91 645/411/90 646/408/90
f 650/412/92 647/413/91 648/410/91
f 652/414/93 649/415/92 650/412/92
f 654/416/94 651/417/93 652/414/93
f 656/418/95 653/419/94 654/416/94
f 658/420/96 655/421/95 656/418/95
f 660/422/97 657/423/96 658/420/96
f 662/424/98 659/425/97 660/422/97
f 664/426/99 661/427/98 662/424/98
f 666/428/100 663/429/99 664/426/99
f 668/430/101 665/431/100 666/428/100
f 670/432/102 667/433/101 668/430/101
f 672/434/103 669/435/102 670/432/102
f 674/436/104 671/437/103 672/434/103
f 676/438/105 673/439/104 674/436/104
f 678/440/106 675/441/105 676/438/105
f 680/442/107 677/443/106 678/440/106
f 682/444/108 679/445/107 680/442/107
f 684/446/109 681/447/108 682/444/108
f 686/448/110 683/449/109 684/446/109
f 688/450/111 685/451/110 686/448/110
f 690/452/112 687/453/111 688/450/111
f 692/454/113 689/455/112 690/452/112
f 694/456/114 691/457/113 692/454/113
f 696/458/115 693/459/114 694/456/114
f 698/460/116 695/461/115 696/458/115
f 700/462/117 697/463/116 698/460/116
f 702/464/118 699/465/117 700/462/117
f 704/466/119 701/467/118 702/464/118
f 706/468/120 703/469/119 704/466/119
f 708/470/121 705/471/120 706/468/120
f 710/472/122 707/473/121 708/470/121
f 712/474/123 709/475/122 710/472/122
f 714/476/124 711/477/123 712/474/123
f 716/478/125 713/479/124 714/476/124
f 718/480/126 715/481/127 716/478/125
f 720/482/128 717/483/126 718/480/126
f 722/484/129 719/485/128 720/482/128
f 724/486/130 721/487/129 722/484/129
f 726/488/131 723/489/130 724/486/130
f 728/490/132 725/491/131 726/488/131
f 730/492/133 727/493/132 728/490/132
f 732/494/134 729/495/133 730/492/133
f 734/496/135 731/497/134 732/494/134
f 736/498/136 733/499/135 734/496/135
f 738/500/137 735/501/136 736/498/136
f 740/502/138 737/503/137 738/500/137
f 742/504/139 739/505/140 740/502/138
f 744/506/141 741/507/139 742/504/139
f 746/508/142 743/509/141 744/506/141
f 748/510/143 745/511/142 746/508/142
f 750/512/144 747/513/143 748/510/143
f 752/514/145 749/515/144 750/512/144
f 754/516/146 751/517/145 752/514/145
f 756/518/147 753/519/146 754/516/146
f 758/520/148 755/521/147 756/518/147
f 760/522/149 757/523/148 758/520/148
f 762/524/150 759/525/149 760/522/149
f 764/526/151 761/527/150 762/524/150
f 766/528/152 763/529/151 764/526/151
f 768/530/153 765/531/152 766/528/152
f 770/532/154 767/533/153 768/530/153
f 772/534/155 769/535/154 770/532/154
f 774/536/156 771/537/155 772/534/155
f 776/538/157 773/539/156 774/536/156
f 778/540/158 775/541/157 776/538/157
f 780/542/159 777/543/158 778/540/158
f 782/544/160 779/545/159 780/542/159
f 784/546/161 781/547/160 782/544/160
f 786/548/162 783/549/161 784/546/161
f 788/550/163 785/551/162 786/548/162
f 790/552/164 787/553/163 788/550/163
f 792/554/165 789/555/164 790/552/164
f 794/556/166 791/557/165 792/554/165
f 796/558/167 793/559/166 794/556/166
f 798/560/168 795/561/167 796/558/167
f 800/562/169 797/563/168 798/560/168
f 802/564/170 799/565/169 800/562/169
f 804/566/171 801/567/170 802/564/170
f 806/568/172 803/569/171 804/566/171
f 808/570/173 805/571/172 806/568/172
f 810/572/174 807/573/173 808/570/173
f 812/574/175 809/575/174 810/572/174
f 814/576/176 811/577/175 812/574/175
f 816/578/177 813/579/176 814/576/176
f 818/580/178 815/581/177 816/578/177
f 820/582/179 817/583/178 818/580/178
f 822/584/180 819/585/179 820/582/179
f 824/586/181 821/587/180 822/584/180
f 826/588/182 823/589/181 824/586/181
f 828/590/183 825/591/182 826/588/182
f 830/592/184 827/593/183 828/590/183
f 832/594/185 829/595/184 830/592/184
f 834/596/186 831/597/185 832/594/185
f 836/598/187 833/599/186 834/596/186
f 838/600/188 835/601/187 836/598/187
f 840/602/189 837/603/188 838/600/188
f 842/604/190 839/605/189 840/602/189
f 844/606/191 841/607/190 842/604/190
f 846/608/192 843/609/191 844/606/191
f 848/610/193 845/611/192 846/608/192
f 850/612/194 847/613/193 848/610/193
f 852/614/195 849/615/194 850/612/194
f 854/616/196 851/617/195 852/614/195
f 856/618/197 853/619/196 854/616/196
f 858/620/198 855/621/197 856/618/197
f 860/622/199 857/623/198 858/620/198
f 862/624/200 859/625/199 860/622/199
f 864/626/201 861/627/200 862/624/200
f 866/628/202 863/629/201 864/626/201
f 868/630/203 865/631/202 866/628/202
f 870/632/204 867/633/203 868/630/203
f 872/634/205 869/635/204 870/632/204
f 874/636/206 871/637/205 872/634/205
f 876/638/113 873/639/206 874/636/206
f 878/640/207 875/641/113 876/638/113
f 880/642/208 877/643/207 878/640/207
f 882/644/209 879/645/208 880/642/208
f 884/646/210 881/647/209 882/644/209
f 886/648/211 883/649/210 884/646/210
f 888/650/212 885/651/213 886/648/211
f 890/652/214 887/653/212 888/650/212
f 892/654/215 889/655/214 890/652/214
f 894/656/216 891/657/215 892/654/215
f 896/658/217 893/659/216 894/656/216
f 898/660/218 895/661/217 896/658/217
f 900/662/87 897/663/218 898/660/218
f 902/664/219 899/665/87 900/662/87
f 904/666/220 901/667/219 902/664/219
f 906/668/221 903/669/220 904/666/220
f 908/670/222 905/671/221 906/668/221
f 910/672/223 907/673/222 908/670/222
f 912/674/224 909/675/223 910/672/223
f 914/676/225 911/677/224 912/674/224
f 916/678/226 913/679/225 914/676/225
f 918/680/227 915/681/226 916/678/226
f 920/682/228 917/683/227 918/680/227
f 922/684/229 919/685/228 920/682/228
f 924/686/230 921/687/229 922/684/229
f 926/688/231 923/689/230 924/686/230
f 928/690/232 925/691/231 926/688/231
f 930/692/233 927/693/232 928/690/232
f 932/694/234 929/695/233 930/692/233
f 934/696/235 931/697/234 932/694/234
f 936/698/236 933/699/235 934/696/235
f 938/700/237 935/701/236 936/698/236
f 940/702/238 937/703/237 938/700/237
f 472/704/4 939/705/239 940/702/238
f 474/236/3 473/239/3 471/1/4
f 476/238/5 475/241/5 473/239/3
f 478/240/6 477/243/6 475/241/5
f 480/242/7 479/245/7 477/243/6
f 482/244/8 481/247/10 479/245/7
f 484/246/9 483/249/9 481/247/10
f 486/248/11 485/251/11 483/249/9
f 488/250/12 487/253/12 485/251/11
f 490/252/13 489/255/13 487/253/12
f 492/254/14 491/257/14 489/255/13
f 494/256/15 493/259/15 491/257/14
f 496/258/16 495/261/16 493/259/15
f 498/260/17 497/263/17 495/261/16
f 500/262/18 499/265/18 497/263/17
f 502/264/19 501/267/19 499/265/18
f 504/266/20 503/269/20 501/267/19
f 506/268/21 505/271/21 503/269/20
f 508/270/22 507/273/22 505/271/21
f 510/272/23 509/275/23 507/273/22
f 512/274/24 511/277/24 509/275/23
f 514/276/25 513/279/25 511/277/24
f 516/278/26 515/281/26 513/279/25
f 518/280/27 517/283/27 515/281/26
f 520/282/28 519/285/28 517/283/27
f 522/284/29 521/287/29 519/285/28
f 524/286/30 523/289/30 521/287/29
f 526/288/31 525/291/31 523/289/30
f 528/290/32 527/293/32 525/291/31
f 530/292/33 529/295/33 527/293/32
f 532/294/34 531/297/34 529/295/33
f 534/296/35 533/299/35 531/297/34
f 536/298/36 535/301/36 533/299/35
f 538/300/37 537/303/37 535/301/36
f 540/302/38 539/305/38 537/303/37
f 542/304/39 541/307/39 539/305/38
f 544/306/40 543/309/40 541/307/39
f 546/308/41 545/311/41 543/309/40
f 548/310/42 547/313/42 545/311/41
f 550/312/43 549/315/43 547/313/42
f 552/314/44 551/317/44 549/315/43
f 554/316/45 553/319/45 551/317/44
f 556/318/46 555/321/46 553/319/45
f 558/320/47 557/323/47 555/321/46
f 560/322/48 559/325/48 557/323/47
f 562/324/49 561/327/49 559/325/48
f 564/326/50 563/329/50 561/327/49
f 566/328/51 565/331/51 563/329/50
f 568/330/52 567/333/52 565/331/51
f 570/332/53 569/335/53 567/333/52
f 572/334/54 571/337/54 569/335/53
f 574/336/55 573/339/55 571/337/54
f 576/338/56 575/341/56 573/339/55
f 578/340/57 577/343/57 575/341/56
f 580/342/58 579/345/58 577/343/57
f 582/344/59 581/347/59 579/345/58
f 584/346/60 583/349/60 581/347/59
f 586/348/61 585/351/61 583/349/60
f 588/350/62 587/353/62 585/351/61
f 590/352/63 589/355/63 587/353/62
f 592/354/64 591/357/64 589/355/63
f 594/356/65 593/359/65 591/357/64
f 596/358/66 595/361/66 593/359/65
f 598/360/67 597/363/67 595/361/66
f 600/362/68 599/365/68 597/363/67
f 602/364/69 601/367/69 599/365/68
f 604/366/70 603/369/70 601/367/69
f 606/368/71 605/371/71 603/369/70
f 608/370/72 607/373/72 605/371/71
f 610/372/73 609/375/73 607/373/72
f 612/374/74 611/377/74 609/375/73
f 614/376/6 613/379/6 611/377/74
f 616/378/75 615/381/75 613/379/6
f 618/380/76 617/383/76 615/381/75
f 620/382/77 619/385/77 617/383/76
f 622/384/78 621/387/78 619/385/77
f 624/386/79 623/389/79 621/387/78
f 626/388/80 625/391/80 623/389/79
f 628/390/81 627/393/81 625/391/80
f 630/392/82 629/395/82 627/393/81
f 632/394/83 631/397/83 629/395/82
f 634/396/84 633/399/84 631/397/83
f 636/398/85 635/401/85 633/399/84
f 638/400/86 637/403/86 635/401/85
f 640/402/87 639/405/87 637/403/86
f 642/404/88 641/407/88 639/405/87
f 644/406/89 643/409/89 641/407/88
f 646/408/90 645/411/90 643/409/89
f 648/410/91 647/413/91 645/411/90
f 650/412/92 649/415/92 647/413/91
f 652/414/93 651/417/93 649/415/92
f 654/416/94 653/419/94 651/417/93
f 656/418/95 655/421/95 653/419/94
f 658/420/96 657/423/96 655/421/95
f 660/422/97 659/425/97 657/423/96
f 662/424/98 661/427/98 659/425/97
f 664/426/99 663/429/99 661/427/98
f 666/428/100 665/431/100 663/429/99
f 668/430/101 667/433/101 665/431/100
f 670/432/102 669/435/102 667/433/101
f 672/434/103 671/437/103 669/435/102
f 674/436/104 673/439/104 671/437/103
f 676/438/105 675/441/105 673/439/104
f 678/440/106 677/443/106 675/441/105
f 680/442/107 679/445/107 677/443/106
f 682/444/108 681/447/108 679/445/107
f 684/446/109 683/449/109 681/447/108
f 686/448/110 685/451/110 683/449/109
f 688/450/111 687/453/111 685/451/110
f 690/452/112 689/455/112 687/453/111
f 692/454/113 691/457/113 689/455/112
f 694/456/114 693/459/114 691/457/113
f 696/458/115 695/461/115 693/459/114
f 698/460/116 697/463/116 695/461/115
f 700/462/117 699/465/117 697/463/116
f 702/464/118 701/467/118 699/465/117
f 704/466/119 703/469/119 701/467/118
f 706/468/120 705/471/120 703/469/119
f 708/470/121 707/473/121 705/471/120
f 710/472/122 709/475/122 707/473/121
f 712/474/123 711/477/123 709/475/122
f 714/476/124 713/479/124 711/477/123
f 716/478/125 715/481/127 713/479/124
f 718/480/126 717/483/126 715/481/127
f 720/482/128 719/485/128 717/483/126
f 722/484/129 721/487/129 719/485/128
f 724/486/130 723/489/130 721/487/129
f 726/488/131 725/491/131 723/489/130
f 728/490/132 727/493/132 725/491/131
f 730/492/133 729/495/133 727/493/132
f 732/494/134 731/497/134 729/495/133
f 734/496/135 733/499/135 731/497/134
f 736/498/136 735/501/136 733/499/135
f 738/500/137 737/503/137 735/501/136
f 740/502/138 739/505/140 737/503/137
f 742/504/139 741/507/139 739/505/140
f 744/506/141 743/509/141 741/507/139
f 746/508/142 745/511/142 743/509/141
f 748/510/143 747/513/143 745/511/142
f 750/512/144 749/515/144 747/513/143
f 752/514/145 751/517/145 749/515/144
f 754/516/146 753/519/146 751/517/145
f 756/518/147 755/521/147 753/519/146
f 758/520/148 757/523/148 755/521/147
f 760/522/149 759/525/149 757/523/148
f 762/524/150 761/527/150 759/525/149
f 764/526/151 763/529/151 761/527/150
f 766/528/152 765/531/152 763/529/151
f 768/530/153 767/533/153 765/531/152
f 770/532/154 769/535/154 767/533/153
f 772/534/155 771/537/155 769/535/154
f 774/536/156 773/539/156 771/537/155
f 776/538/157 775/541/157 773/539/156
f 778/540/158 777/543/158 775/541/157
f 780/542/159 779/545/159 777/543/158
f 782/544/160 781/547/160 779/545/159
f 784/546/161 783/549/161 781/547/160
f 786/548/162 785/551/162 783/549/161
f 788/550/163 787/553/163 785/551/162
f 790/552/164 789/555/164 787/553/163
f 792/554/165 791/557/165 789/555/164
f 794/556/166 793/559/166 791/557/165
f 796/558/167 795/561/167 793/559/166
f 798/560/168 797/563/168 795/561/167
f 800/562/169 799/565/169 797/563/168
f 802/564/170 801/567/170 799/565/169
f 804/566/171 803/569/171 801/567/170
f 806/568/172 805/571/172 803/569/171
f 808/570/173 807/573/173 805/571/172
f 810/572/174 809/575/174 807/573/173
f 812/574/175 811/577/175 809/575/174
f 814/576/176 813/579/176 811/577/175
f 816/578/177 815/581/177 813/579/176
f 818/580/178 817/583/178 815/581/177
f 820/582/179 819/585/179 817/583/178
f 822/584/180 821/587/180 819/585/179
f 824/586/181 823/589/181 821/587/180
f 826/588/182 825/591/182 823/589/181
f 828/590/183 827/593/183 825/591/182
f 830/592/184 829/595/184 827/593/183
f 832/594/185 831/597/185 829/595/184
f 834/596/186 833/599/186 831/597/185
f 836/598/187 835/601/187 833/599/186
f 838/600/188 837/603/188 835/601/187
f 840/602/189 839/605/189 837/603/188
f 842/604/190 841/607/190 839/605/189
f 844/606/191 843/609/191 841/607/190
f 846/608/192 845/611/192 843/609/191
f 848/610/193 847/613/193 845/611/192
f 850/612/194 849/615/194 847/613/193
f 852/614/195 851/617/195 849/615/194
f 854/616/196 853/619/196 851/617/195
f 856/618/197 855/621/197 853/619/196
f 858/620/198 857/623/198 855/621/197
f 860/622/199 859/625/199 857/623/198
f 862/624/200 861/627/200 859/625/199
f 864/626/201 863/629/201 861/627/200
f 866/628/202 865/631/202 863/629/201
f 868/630/203 867/633/203 865/631/202
f 870/632/204 869/635/204 867/633/203
f 872/634/205 871/637/205 869/635/204
f 874/636/206 873/639/206 871/637/205
f 876/638/113 875/641/113 873/639/206
f 878/640/207 877/643/207 875/641/113
f 880/642/208 879/645/208 877/643/207
f 882/644/209 881/647/209 879/645/208
f 884/646/210 883/649/210 881/647/209
f 886/648/211 885/651/213 883/649/210
f 888/650/212 887/653/212 885/651/213
f 890/652/214 889/655/214 887/653/212
f 892/654/215 891/657/215 889/655/214
f 894/656/216 893/659/216 891/657/215
f 896/658/217 895/661/217 893/659/216
f 898/660/218 897/663/218 895/661/217
f 900/662/87 899/665/87 897/663/218
f 902/664/219 901/667/219 899/665/87
f 904/666/220 903/669/220 901/667/219
f 906/668/221 905/671/221 903/669/220
f 908/670/222 907/673/222 905/671/221
f 910/672/223 909/675/223 907/673/222
f 912/674/224 911/677/224 909/675/223
f 914/676/225 913/679/225 911/677/224
f 916/678/226 915/681/226 913/679/225
f 918/680/227 917/683/227 915/681/226
f 920/682/228 919/685/228 917/683/227
f 922/684/229 921/687/229 919/685/228
f 924/686/230 923/689/230 921/687/229
f 926/688/231 925/691/231 923/689/230
f 928/690/232 927/693/232 925/691/231
f 930/692/233 929/695/233 927/693/232
f 932/694/234 931/697/234 929/695/233
f 934/696/235 933/699/235 931/697/234
f 936/698/236 935/701/236 933/699/235
f 938/700/237 937/703/237 935/701/236
f 940/702/238 939/705/239 937/703/237
f 472/704/4 471/81/4 939/705/239
