# Blender 4.4.1
# www.blender.org
mtllib batEnemy.mtl
o batRightHand
v 2.014316 0.016257 -0.108251
v 1.869813 0.540456 0.035235
v 2.014316 -0.026091 0.046461
v 1.869813 0.498107 0.189947
v 0.492571 -0.054463 -0.127609
v 0.407088 0.199769 -0.058019
v 0.492571 -0.096812 0.027103
v 0.407088 0.157421 0.096693
v 1.288495 -0.011446 0.050470
v 0.983891 0.719588 0.250572
v 1.288495 0.030902 -0.104242
v 0.983891 0.761936 0.095860
v 1.519023 0.192100 0.106185
v 1.397132 0.699432 0.078751
v 1.397132 0.657084 0.233463
v 1.519023 0.234448 -0.048527
v 0.796201 0.378411 0.157183
v 0.852503 0.121848 -0.079348
v 0.852503 0.079499 0.075364
v 0.796201 0.420759 0.002471
v -0.312012 -0.524942 -0.023677
v -0.312012 0.181914 0.501236
v -0.312012 -0.169239 -0.502672
v -0.312012 0.537617 0.022241
v 0.311783 -0.524942 -0.023677
v 0.311783 0.181914 0.501236
v 0.311783 -0.169239 -0.502672
v 0.311783 0.537617 0.022241
v -0.357507 -0.293124 -0.443552
v -0.380360 -0.424539 -0.320688
v -0.357507 -0.504163 -0.159364
v -0.357507 -0.407145 0.117998
v -0.380360 -0.210488 0.291262
v -0.357507 0.012232 0.429429
v -0.357507 0.305799 0.442116
v -0.377670 0.437214 0.319252
v -0.354817 0.516838 0.157928
v -0.357507 0.419820 -0.119435
v -0.380360 0.223163 -0.292698
v -0.357507 0.000443 -0.430866
v 0.184934 -0.194849 -0.575890
v -0.000115 -0.207714 -0.612669
v -0.185163 -0.194849 -0.575890
v -0.185163 0.615112 0.025590
v -0.000115 0.654039 0.027272
v 0.184934 0.615112 0.025589
v 0.357278 0.419820 -0.119435
v 0.380131 0.223163 -0.292698
v 0.357278 0.000443 -0.430866
v 0.357278 -0.504163 -0.159364
v 0.380131 -0.424539 -0.320688
v 0.357278 -0.293124 -0.443552
v 0.357278 0.516838 0.157928
v 0.380131 0.437214 0.319252
v 0.357278 0.305799 0.442116
v 0.357278 0.012232 0.429429
v 0.380131 -0.210488 0.291262
v 0.357278 -0.407145 0.117998
v -0.185163 -0.602437 -0.027026
v -0.000115 -0.641364 -0.028708
v 0.184934 -0.602437 -0.027026
v 0.184934 0.207525 0.574454
v -0.000115 0.220389 0.581341
v -0.185163 0.207524 0.574454
v -0.454855 -0.329598 -0.015235
v -0.487815 -0.112162 0.158855
v -0.454855 0.117357 0.316675
v -0.487815 -0.229145 -0.175588
v -0.523794 0.006338 -0.000718
v -0.487815 0.241820 0.174152
v -0.454855 -0.104682 -0.318111
v -0.487815 0.124837 -0.160291
v -0.454855 0.342273 0.013799
v -0.197332 0.042164 -0.515856
v -0.207926 0.284437 -0.375211
v -0.197332 0.489119 -0.183946
v -0.000114 0.048954 -0.550080
v -0.000115 0.304953 -0.402838
v -0.000115 0.519919 -0.200341
v 0.197103 0.042164 -0.515856
v 0.207697 0.284437 -0.375211
v 0.197103 0.489119 -0.183946
v 0.454626 -0.104682 -0.318111
v 0.487586 0.124837 -0.160291
v 0.454626 0.342273 0.013799
v 0.487586 -0.229145 -0.175588
v 0.523565 0.006338 -0.000718
v 0.487586 0.241820 0.174152
v 0.454626 -0.329598 -0.015235
v 0.487586 -0.112162 0.158855
v 0.454626 0.117357 0.316675
v 0.197103 -0.476444 0.182510
v 0.207697 -0.271761 0.373774
v 0.197103 -0.029489 0.514419
v -0.000115 -0.507244 0.198904
v -0.000115 -0.292277 0.401401
v -0.000115 -0.036279 0.548644
v -0.197332 -0.476444 0.182510
v -0.207926 -0.271761 0.373774
v -0.197332 -0.029489 0.514419
v -0.197332 -0.396495 -0.534812
v -0.000115 -0.427804 -0.570683
v 0.197103 -0.396495 -0.534812
v -0.207926 -0.546303 -0.411110
v -0.000115 -0.587072 -0.441386
v 0.207697 -0.546303 -0.411110
v -0.197332 -0.621411 -0.231937
v -0.000115 -0.664802 -0.251538
v 0.197103 -0.621411 -0.231937
v 0.190990 0.627936 0.268016
v -0.036743 0.655759 0.279969
v -0.189547 0.628134 0.267472
v 0.198938 0.580597 0.381378
v -0.036721 0.606026 0.400985
v -0.197571 0.580354 0.381895
v 0.197103 0.490571 0.533376
v -0.000115 0.508573 0.565884
v -0.197332 0.490571 0.533376
v 0.037113 0.655515 0.280492
v -0.194642 0.634086 0.230500
v 0.037093 0.606226 0.400435
v -0.205236 0.558978 0.409674
v 0.197103 0.634086 0.230500
v -0.000115 0.677477 0.250101
v 0.207697 0.558978 0.409674
v -0.000115 0.599747 0.439950
v -0.054442 0.793513 0.367804
v -0.142485 0.778783 0.361140
v -0.054431 0.766995 0.432332
v -0.146763 0.753306 0.422153
v 0.149789 0.778677 0.361431
v 0.060478 0.793383 0.368083
v 0.154028 0.753435 0.421877
v 0.060467 0.767101 0.432039
v -2.010707 -0.184583 0.003078
v -1.915262 0.363343 0.153059
v -2.010707 -0.142235 -0.151634
v -1.915262 0.405691 -0.001653
v -0.489281 -0.126350 0.019018
v -0.424154 0.134347 0.090377
v -0.489281 -0.084002 -0.135694
v -0.424154 0.176696 -0.064335
v -1.285343 -0.058963 -0.128840
v -1.034047 0.695453 0.077662
v -1.285343 -0.101311 0.025872
v -1.034047 0.653104 0.232374
v -1.537608 0.126640 -0.078036
v -1.446749 0.558836 0.206570
v -1.446492 0.615208 0.055697
v -1.537608 0.084292 0.076676
v -0.827977 0.368138 -0.011932
v -0.860631 0.022631 0.059798
v -0.860631 0.064980 -0.094914
v -0.827977 0.325790 0.142780
vn 0.9664 0.2478 0.0678
vn -0.0000 -0.2640 0.9645
vn -0.0000 0.2640 -0.9645
vn 0.4528 -0.8600 -0.2354
vn 0.3293 0.9107 0.2493
vn -0.8834 0.4521 0.1237
vn 0.6752 -0.7114 -0.1947
vn -0.4155 -0.8773 -0.2401
vn 0.1549 0.9529 0.2608
vn -0.5074 0.8311 0.2275
vn -0.2114 -0.9427 -0.2580
vn -0.9766 -0.2034 0.0696
vn -0.9764 -0.2035 0.0727
vn -0.9763 -0.2035 0.0732
vn -0.9766 -0.0078 0.2149
vn -0.9764 -0.0108 0.2159
vn -0.9766 -0.0074 0.2147
vn -0.9764 0.0108 -0.2159
vn -0.9766 0.0078 -0.2149
vn -0.9763 0.0112 -0.2160
vn -0.9764 0.2035 -0.0727
vn -0.9766 0.2034 -0.0696
vn -0.9766 0.2034 -0.0692
vn -0.7911 -0.5860 0.1755
vn -0.8320 -0.4181 0.3647
vn -0.8320 -0.4180 0.3647
vn -0.8320 -0.4181 0.3646
vn -0.8320 -0.2282 0.5056
vn -0.8320 -0.2283 0.5056
vn -0.7803 -0.0544 0.6230
vn -0.8985 0.2060 0.3877
vn -0.8945 0.4379 0.0900
vn -0.8945 0.4379 0.0905
vn -0.7803 0.5806 -0.2322
vn -0.8320 0.4180 -0.3647
vn -0.8320 0.4180 -0.3648
vn -0.8320 0.2283 -0.5056
vn -0.8320 0.2282 -0.5056
vn -0.7911 -0.0014 -0.6117
vn -0.8984 -0.2061 -0.3877
vn -0.8984 -0.2062 -0.3877
vn -0.8984 -0.4307 -0.0853
vn -0.8984 -0.4307 -0.0852
vn -0.1626 0.4903 -0.8562
vn -0.1649 0.4916 -0.8551
vn -0.1653 0.4917 -0.8549
vn -0.1624 0.6779 -0.7170
vn -0.1649 0.6763 -0.7179
vn -0.1622 0.6782 -0.7168
vn 0.1649 0.4916 -0.8551
vn 0.1626 0.4903 -0.8562
vn 0.1653 0.4917 -0.8549
vn 0.1649 0.6763 -0.7179
vn 0.1624 0.6779 -0.7169
vn 0.1622 0.6782 -0.7168
vn -0.4603 0.1957 -0.8659
vn -0.5085 0.4156 -0.7541
vn -0.5084 0.4156 -0.7542
vn -0.5085 0.6018 -0.6159
vn -0.5085 0.6017 -0.6159
vn -0.5013 0.7376 -0.4523
vn -0.1740 0.8484 -0.5000
vn -0.1741 0.8484 -0.5000
vn 0.1740 0.8484 -0.5000
vn 0.1741 0.8484 -0.5000
vn 0.5013 0.7376 -0.4523
vn 0.5085 0.6018 -0.6159
vn 0.5085 0.6017 -0.6159
vn 0.5085 0.4156 -0.7541
vn 0.5084 0.4156 -0.7542
vn 0.4603 0.1957 -0.8659
vn 0.1740 0.2333 -0.9567
vn 0.1739 0.2333 -0.9567
vn -0.1740 0.2333 -0.9567
vn -0.1739 0.2333 -0.9567
vn 0.9766 0.0078 -0.2149
vn 0.9764 0.0108 -0.2159
vn 0.9763 0.0112 -0.2160
vn 0.9766 0.2034 -0.0696
vn 0.9764 0.2035 -0.0728
vn 0.9766 0.2034 -0.0692
vn 0.9764 -0.2035 0.0727
vn 0.9766 -0.2034 0.0696
vn 0.9763 -0.2035 0.0732
vn 0.9764 -0.0108 0.2159
vn 0.9766 -0.0078 0.2149
vn 0.9766 -0.0074 0.2147
vn 0.7911 -0.0014 -0.6117
vn 0.8320 0.2282 -0.5056
vn 0.8320 0.2283 -0.5056
vn 0.8320 0.4180 -0.3647
vn 0.8320 0.4180 -0.3648
vn 0.7803 0.5806 -0.2322
vn 0.8984 0.4307 0.0853
vn 0.8984 0.4307 0.0852
vn 0.8985 0.4307 0.0852
vn 0.8984 0.2061 0.3877
vn 0.8985 0.2060 0.3877
vn 0.7803 -0.0544 0.6230
vn 0.8320 -0.2283 0.5056
vn 0.8320 -0.2282 0.5056
vn 0.8320 -0.4180 0.3647
vn 0.8320 -0.4181 0.3647
vn 0.8320 -0.4181 0.3646
vn 0.7911 -0.5860 0.1755
vn 0.8984 -0.4307 -0.0852
vn 0.8984 -0.4307 -0.0853
vn 0.8984 -0.2061 -0.3877
vn 0.8984 -0.2062 -0.3877
vn 0.1624 -0.6779 0.7169
vn 0.1650 -0.6763 0.7179
vn 0.1653 -0.6762 0.7179
vn 0.1625 -0.4903 0.8563
vn 0.1649 -0.4916 0.8551
vn 0.1622 -0.4901 0.8564
vn -0.1650 -0.6763 0.7179
vn -0.1625 -0.6779 0.7170
vn -0.1653 -0.6762 0.7179
vn -0.1649 -0.4916 0.8551
vn -0.1625 -0.4903 0.8563
vn -0.1622 -0.4901 0.8564
vn 0.4603 -0.7724 0.4377
vn 0.5085 -0.6018 0.6159
vn 0.5084 -0.6018 0.6159
vn 0.5085 -0.4156 0.7541
vn 0.5013 -0.2198 0.8369
vn 0.1741 -0.2334 0.9567
vn -0.1741 -0.2334 0.9567
vn -0.5013 -0.2198 0.8369
vn -0.5085 -0.4156 0.7541
vn -0.5085 -0.6018 0.6159
vn -0.5084 -0.6018 0.6159
vn -0.4603 -0.7724 0.4377
vn -0.1740 -0.8484 0.5000
vn -0.1739 -0.8484 0.4999
vn 0.1740 -0.8484 0.5000
vn 0.1739 -0.8484 0.4999
vn -0.2343 -0.6092 -0.7576
vn -0.2324 -0.6112 -0.7566
vn -0.2345 -0.6091 -0.7577
vn 0.2343 -0.6092 -0.7576
vn 0.2324 -0.6112 -0.7566
vn 0.2304 -0.6133 -0.7555
vn -0.2324 -0.9010 -0.3664
vn -0.2345 -0.9013 -0.3643
vn -0.2345 -0.9014 -0.3640
vn 0.2324 -0.9010 -0.3664
vn 0.2345 -0.9013 -0.3643
vn 0.2304 -0.9005 -0.3687
vn -0.5200 -0.2048 -0.8293
vn -0.2040 -0.1835 -0.9616
vn -0.2039 -0.1836 -0.9616
vn 0.2040 -0.1835 -0.9616
vn 0.2040 -0.1834 -0.9616
vn 0.5544 -0.1339 -0.8214
vn 0.6447 -0.4592 -0.6112
vn 0.6447 -0.4591 -0.6112
vn 0.6447 -0.7178 -0.2629
vn 0.6447 -0.7178 -0.2628
vn 0.5544 -0.8250 0.1093
vn 0.2040 -0.9736 0.1023
vn 0.2040 -0.9736 0.1024
vn -0.2040 -0.9736 0.1023
vn -0.2039 -0.9736 0.1023
vn -0.5200 -0.8531 0.0437
vn -0.6447 -0.7178 -0.2629
vn -0.6446 -0.7178 -0.2630
vn -0.6447 -0.4592 -0.6112
vn -0.6446 -0.4593 -0.6112
vn -0.0790 -0.1993 0.9767
vn -0.0834 -0.2022 0.9758
vn -0.0835 -0.2026 0.9757
vn 0.9692 0.2439 0.0339
vn 0.2359 0.8417 0.4857
vn -0.1682 0.7985 0.5781
vn 0.5200 0.8531 -0.0437
vn 0.2040 0.9736 -0.1023
vn 0.2039 0.9736 -0.1023
vn -0.2053 0.9735 -0.1010
vn -0.2043 0.9738 -0.0996
vn -0.2067 0.9730 -0.1023
vn -0.5570 0.8242 -0.1021
vn -0.6447 0.7178 0.2629
vn -0.6447 0.7178 0.2628
vn -0.6591 0.6395 0.3958
vn -0.5722 0.0936 0.8147
vn -0.1671 0.0528 0.9845
vn 0.0466 0.1415 0.9888
vn 0.5200 0.2048 0.8293
vn 0.7479 0.3793 0.5448
vn 0.6447 0.7178 0.2629
vn 0.6446 0.7178 0.2630
vn -0.1893 0.9650 0.1814
vn -0.2326 0.8998 0.3692
vn -0.2366 0.8985 0.3698
vn -0.2381 0.9002 0.3645
vn -0.8536 0.4992 0.1486
vn -0.2330 0.9017 0.3642
vn -0.2353 0.9003 0.3662
vn 0.2347 0.9011 0.3645
vn 0.2345 0.9014 0.3641
vn 0.2336 0.8992 0.3700
vn 0.7352 0.6396 0.2246
vn 0.2297 0.9004 0.3694
vn 0.2324 0.9009 0.3665
vn 0.1935 0.8076 0.5571
vn 0.1774 0.9105 0.3736
vn 0.1739 0.9128 0.3696
vn 0.1735 0.9131 0.3691
vn -0.1801 0.9100 0.3735
vn -0.1763 0.9125 0.3692
vn -0.1805 0.9097 0.3739
vn 0.9940 0.1013 0.0414
vn -0.9896 0.1331 0.0545
vn 0.0251 0.5329 -0.8458
vn 0.0266 0.5319 -0.8464
vn 0.0267 0.5318 -0.8464
vn -0.9613 0.2717 0.0460
vn 0.0772 -0.2035 0.9760
vn 0.0818 -0.2069 0.9749
vn 0.0764 -0.2029 0.9762
vn -0.0259 0.5349 -0.8445
vn -0.0264 0.5346 -0.8447
vn -0.0256 0.5351 -0.8444
vn -0.9862 0.1598 0.0437
vn -0.3840 -0.8906 -0.2438
vn -0.3841 -0.8906 -0.2438
vn -0.4191 0.8508 0.3172
vn 0.8548 0.5006 0.1370
vn -0.6065 -0.7669 -0.2099
vn 0.5077 -0.8310 -0.2275
vn -0.1977 0.9455 0.2588
vn 0.4411 0.8656 0.2369
vn 0.2896 -0.9232 -0.2527
vn -0.2114 -0.9427 -0.2581
vn -0.9766 -0.2034 0.0692
vn -0.9763 -0.0112 0.2160
vn -0.9766 0.0074 -0.2147
vn -0.9763 0.2035 -0.0732
vn -0.7803 -0.5806 0.2322
vn -0.8320 -0.4180 0.3648
vn -0.7911 0.0014 0.6117
vn -0.8968 0.2208 0.3834
vn -0.8946 0.4379 0.0894
vn -0.7934 0.5871 -0.1604
vn -0.8320 0.4181 -0.3646
vn -0.7803 0.0544 -0.6230
vn -0.8985 -0.2060 -0.3877
vn -0.8985 -0.4307 -0.0852
vn -0.1622 0.4901 -0.8564
vn -0.1653 0.6762 -0.7179
vn 0.1622 0.4901 -0.8564
vn 0.1653 0.6762 -0.7179
vn -0.5013 0.2198 -0.8369
vn -0.5084 0.6018 -0.6159
vn -0.4603 0.7724 -0.4377
vn -0.1739 0.8484 -0.4999
vn 0.1739 0.8484 -0.4999
vn 0.4603 0.7724 -0.4377
vn 0.5084 0.6018 -0.6159
vn 0.5013 0.2198 -0.8369
vn 0.1741 0.2334 -0.9567
vn -0.1741 0.2334 -0.9567
vn 0.9766 0.0074 -0.2147
vn 0.9763 0.2035 -0.0732
vn 0.9766 -0.2034 0.0692
vn 0.9763 -0.0112 0.2160
vn 0.7803 0.0544 -0.6230
vn 0.8320 0.4181 -0.3646
vn 0.7911 0.5860 -0.1755
vn 0.8984 0.2062 0.3877
vn 0.7911 0.0014 0.6117
vn 0.8320 -0.4180 0.3648
vn 0.7803 -0.5806 0.2322
vn 0.8985 -0.4307 -0.0852
vn 0.8985 -0.2060 -0.3877
vn 0.1622 -0.6782 0.7168
vn 0.1653 -0.4917 0.8549
vn -0.1622 -0.6782 0.7168
vn -0.1653 -0.4917 0.8549
vn 0.5013 -0.7376 0.4523
vn 0.5085 -0.6017 0.6159
vn 0.5084 -0.4156 0.7542
vn 0.4603 -0.1957 0.8659
vn 0.0281 -0.1263 0.9916
vn -0.0281 -0.1263 0.9916
vn -0.4603 -0.1957 0.8659
vn -0.5084 -0.4156 0.7542
vn -0.5085 -0.6017 0.6159
vn -0.5013 -0.7376 0.4523
vn -0.1741 -0.8484 0.5000
vn 0.1741 -0.8484 0.5000
vn -0.2304 -0.6133 -0.7555
vn 0.2345 -0.6091 -0.7577
vn -0.2304 -0.9005 -0.3687
vn 0.2345 -0.9014 -0.3640
vn -0.5544 -0.1339 -0.8214
vn -0.2040 -0.1834 -0.9616
vn 0.2039 -0.1836 -0.9616
vn 0.5200 -0.2048 -0.8293
vn 0.6446 -0.4593 -0.6112
vn 0.6446 -0.7178 -0.2630
vn 0.5200 -0.8531 0.0437
vn 0.2039 -0.9736 0.1023
vn -0.2040 -0.9736 0.1024
vn -0.5544 -0.8250 0.1093
vn -0.6447 -0.7178 -0.2628
vn -0.6447 -0.4591 -0.6112
vn -0.0782 -0.1988 0.9769
vn 0.1682 0.7985 0.5781
vn -0.2387 0.8433 0.4816
vn 0.5544 0.8250 -0.1093
vn 0.2040 0.9736 -0.1024
vn -0.2040 0.9739 -0.0996
vn -0.5204 0.8533 -0.0335
vn -0.6446 0.7178 0.2630
vn -0.7507 0.3860 0.5361
vn -0.5200 0.2048 0.8293
vn -0.0466 0.1415 0.9888
vn 0.1671 0.0528 0.9845
vn 0.5722 0.0936 0.8147
vn 0.6596 0.6324 0.4062
vn 0.6447 0.7178 0.2628
vn -0.2376 0.9007 0.3636
vn -0.7786 0.5938 0.2029
vn -0.1950 0.8026 0.5638
vn 0.1880 0.9639 0.1886
vn 0.8097 0.5596 0.1769
vn 0.2301 0.9023 0.3646
vn 0.1777 0.9102 0.3741
vn -0.1760 0.9127 0.3688
vn 0.9940 0.1013 0.0415
vn 0.0248 0.5331 -0.8457
vn 0.0820 -0.2071 0.9749
vn -0.0274 0.5340 -0.8450
vn -0.3970 0.8852 0.2423
vn -0.2296 0.9119 0.3403
vt 0.130454 0.653288
vt 0.224015 0.614393
vt 0.192633 0.648049
vt 0.122892 0.409248
vt 0.077015 0.333309
vt 0.131255 0.330572
vt 0.185402 0.739535
vt 0.192023 0.897998
vt 0.146424 0.988439
vt 0.152915 0.887645
vt 0.042083 0.704110
vt 0.073604 0.721089
vt 0.034398 0.880468
vt 0.043181 0.792302
vt 0.071542 0.872954
vt 0.221873 0.739118
vt 0.193590 0.803323
vt 0.051222 0.550783
vt 0.170586 0.482520
vt 0.148022 0.539467
vt 0.114394 0.625852
vt 0.010517 0.792518
vt 0.086712 0.978882
vt 0.049808 0.984356
vt 0.224819 0.807047
vt 0.062205 0.420562
vt 0.068369 0.239678
vt 0.008603 0.201038
vt 0.069851 0.202622
vt 0.561160 0.326338
vt 0.518780 0.271458
vt 0.561860 0.269928
vt 0.070287 0.165540
vt 0.488887 0.333961
vt 0.476302 0.278998
vt 0.108211 0.265299
vt 0.115820 0.237909
vt 0.071664 0.275723
vt 0.010757 0.245425
vt 0.596510 0.326275
vt 0.603322 0.273224
vt 0.589873 0.362804
vt 0.563824 0.373196
vt 0.525095 0.330868
vt 0.496035 0.380284
vt 0.468689 0.375587
vt 0.454371 0.341417
vt 0.436429 0.291001
vt 0.013049 0.156821
vt 0.075441 0.129713
vt 0.111400 0.142013
vt 0.117584 0.169759
vt 0.119733 0.203913
vt 0.163633 0.067723
vt 0.206965 0.008575
vt 0.205374 0.070072
vt 0.396574 0.409804
vt 0.331055 0.443476
vt 0.338061 0.399370
vt 0.247180 0.069884
vt 0.385540 0.493052
vt 0.326331 0.487884
vt 0.093818 0.094839
vt 0.138004 0.125321
vt 0.036381 0.073012
vt 0.396729 0.307386
vt 0.421760 0.361537
vt 0.448234 0.419102
vt 0.392334 0.451597
vt 0.437839 0.497532
vt 0.396821 0.546839
vt 0.446025 0.545327
vt 0.423273 0.574806
vt 0.358506 0.592912
vt 0.392790 0.619097
vt 0.373988 0.081746
vt 0.332049 0.136352
vt 0.315500 0.100574
vt 0.295502 0.146775
vt 0.269797 0.128731
vt 0.243384 0.121996
vt 0.203990 0.123569
vt 0.164730 0.119961
vt 0.335344 0.172397
vt 0.395110 0.211037
vt 0.333862 0.209452
vt 0.454855 0.590991
vt 0.467629 0.659433
vt 0.428375 0.641084
vt 0.333426 0.246535
vt 0.523035 0.617211
vt 0.509027 0.672129
vt 0.287893 0.174165
vt 0.392956 0.166649
vt 0.473878 0.548198
vt 0.489213 0.603420
vt 0.537835 0.572442
vt 0.560402 0.589313
vt 0.557320 0.626484
vt 0.550111 0.679729
vt 0.390664 0.255253
vt 0.328272 0.282361
vt 0.292313 0.270062
vt 0.286130 0.242315
vt 0.283980 0.208162
vt 0.240079 0.344352
vt 0.196748 0.403499
vt 0.198339 0.342003
vt 0.595637 0.623651
vt 0.637918 0.684523
vt 0.593001 0.683391
vt 0.156533 0.342191
vt 0.680944 0.624177
vt 0.682845 0.683944
vt 0.309895 0.317236
vt 0.265709 0.286753
vt 0.367331 0.339063
vt 0.618182 0.522428
vt 0.677483 0.488999
vt 0.671401 0.532967
vt 0.628702 0.441522
vt 0.682845 0.444940
vt 0.632616 0.338892
vt 0.645504 0.280775
vt 0.029725 0.330329
vt 0.088213 0.311501
vt 0.133916 0.283344
vt 0.160329 0.290078
vt 0.199723 0.288506
vt 0.238983 0.292113
vt 0.202856 0.167388
vt 0.161904 0.205004
vt 0.160884 0.164896
vt 0.241809 0.207071
vt 0.201856 0.206037
vt 0.200857 0.244686
vt 0.158812 0.245005
vt 0.244901 0.167070
vt 0.242829 0.247178
vt 0.461737 0.175196
vt 0.440449 0.218001
vt 0.419371 0.175196
vt 0.452253 0.087908
vt 0.438087 0.051644
vt 0.468093 0.070236
vt 0.531167 0.469961
vt 0.554851 0.515949
vt 0.522949 0.514337
vt 0.565827 0.431593
vt 0.561631 0.473930
vt 0.438750 0.515511
vt 0.445712 0.458672
vt 0.482263 0.506301
vt 0.493335 0.422785
vt 0.489684 0.464511
vt 0.454079 0.402403
vt 0.530269 0.380492
vt 0.534527 0.425565
vt 0.564385 0.425848
vt 0.610028 0.385639
vt 0.621050 0.481662
vt 0.585907 0.572415
vt 0.507052 0.556849
vt 0.552109 0.521497
vt 0.497717 0.457782
vt 0.501010 0.425725
vt 0.524317 0.461127
vt 0.526931 0.427310
vt 0.495795 0.473225
vt 0.490590 0.505323
vt 0.522134 0.476840
vt 0.515942 0.510512
vt 0.433459 0.064096
vt 0.413621 0.051317
vt 0.445034 0.230622
vt 0.464702 0.217702
vt 0.455726 0.231601
vt 0.460298 0.256696
vt 0.484870 0.245275
vt 0.417656 0.090599
vt 0.422546 0.065158
vt 0.425868 0.254531
vt 0.415091 0.008731
vt 0.884090 0.455295
vt 0.793334 0.412498
vt 0.855861 0.421281
vt 0.827581 0.174984
vt 0.761292 0.074543
vt 0.824774 0.067324
vt 0.806743 0.520643
vt 0.779406 0.437286
vt 0.868504 0.167159
vt 0.709358 0.363108
vt 0.739107 0.344247
vt 0.709550 0.266377
vt 0.700558 0.175509
vt 0.742129 0.187123
vt 0.865270 0.264191
vt 0.892425 0.331677
vt 0.854600 0.328193
vt 0.719921 0.628886
vt 0.824859 0.576274
vt 0.776612 0.642358
vt 0.673419 0.269237
vt 0.715579 0.506472
vt 0.729854 0.711262
vt 0.780863 0.716400
vt 0.724341 0.066932
vt 0.897597 0.260661
vt 0.181275 0.991551
vt 0.010517 0.479621
vt 0.017956 0.287687
vt 0.022424 0.114989
vt 0.162515 0.008575
vt 0.251356 0.010874
vt 0.385757 0.124388
vt 0.381289 0.297086
vt 0.241198 0.403499
vt 0.638306 0.621530
vt 0.152357 0.401201
vt 0.393217 0.079117
vt 0.409953 0.236550
vt 0.457536 0.008731
vt 0.865127 0.065977
vt 0.673419 0.572341
s 1
usemtl マテリアル.004
f 2/1/1 3/2/1 1/3/1
f 19/4/2 8/5/2 7/6/2
f 16/7/3 2/1/3 1/3/3
f 19/8/4 5/9/4 18/10/4
f 15/11/5 2/1/5 14/12/5
f 17/13/6 12/14/6 20/15/6
f 13/16/7 11/17/7 16/7/7
f 20/15/3 11/17/3 18/10/3
f 15/18/2 9/19/2 13/20/2
f 4/21/2 13/20/2 3/2/2
f 3/2/8 16/7/8 1/3/8
f 10/22/9 14/12/9 12/14/9
f 11/17/3 14/12/3 16/7/3
f 6/23/3 18/10/3 5/9/3
f 17/13/10 6/23/10 8/24/10
f 9/25/11 18/10/11 11/17/11
f 9/19/2 17/26/2 19/4/2
f 65/27/12 69/28/13 68/29/14
f 67/30/15 69/31/16 66/32/17
f 69/28/18 71/33/19 68/29/20
f 69/31/21 73/34/22 72/35/23
f 21/36/24 65/27/24 31/37/24
f 32/38/25 66/39/26 65/27/27
f 34/40/28 66/32/29 33/41/29
f 22/42/30 67/30/30 34/40/30
f 35/43/31 70/44/31 67/30/31
f 70/44/32 37/45/33 73/34/33
f 73/34/34 24/46/34 38/47/34
f 72/35/35 38/47/35 39/48/36
f 72/49/37 40/50/38 71/33/38
f 71/33/39 23/51/39 29/52/39
f 68/29/40 29/52/40 30/53/41
f 31/37/42 68/29/43 30/53/42
f 74/54/44 78/55/45 77/56/46
f 76/57/47 78/58/48 75/59/49
f 78/55/50 80/60/51 77/56/52
f 78/58/53 82/61/54 81/62/55
f 23/51/56 74/63/56 43/64/56
f 40/50/57 75/65/57 74/63/58
f 38/47/59 75/66/59 39/48/60
f 24/46/61 76/67/61 38/47/61
f 44/68/62 79/69/62 76/57/63
f 79/69/64 46/70/64 82/61/65
f 82/71/66 28/72/66 47/73/66
f 81/74/67 47/73/67 48/75/68
f 81/76/69 49/77/69 80/78/70
f 80/78/71 27/79/71 41/80/71
f 77/56/72 41/81/72 42/82/73
f 43/83/74 77/56/74 42/82/75
f 83/84/76 87/85/77 86/86/78
f 85/87/79 87/88/80 84/89/81
f 87/85/82 89/90/83 86/86/84
f 87/88/85 91/91/86 90/92/87
f 27/79/88 83/84/88 52/93/88
f 49/77/89 84/94/90 83/84/89
f 47/73/91 84/89/91 48/75/92
f 28/72/93 85/87/93 47/73/93
f 53/95/94 88/96/95 85/87/96
f 88/96/97 55/97/97 91/91/98
f 91/91/99 26/98/99 56/99/99
f 90/92/100 56/99/101 57/100/100
f 90/101/102 58/102/103 89/90/104
f 89/90/105 25/103/105 50/104/105
f 86/86/106 50/104/107 51/105/107
f 52/93/108 86/86/108 51/105/109
f 92/106/110 96/107/111 95/108/112
f 94/109/113 96/110/114 93/111/115
f 96/107/116 98/112/117 95/108/118
f 96/110/119 100/113/120 99/114/121
f 25/103/122 92/115/122 61/116/122
f 58/102/123 93/117/123 92/115/124
f 56/99/125 93/111/125 57/100/125
f 26/98/126 94/109/126 56/99/126
f 62/118/127 97/119/127 94/120/127
f 97/119/128 64/121/128 100/122/128
f 100/123/129 22/42/129 34/40/129
f 99/124/130 34/40/130 33/41/130
f 99/125/131 32/38/131 98/126/132
f 98/126/133 21/36/133 59/127/133
f 95/108/134 59/128/134 60/129/135
f 61/130/136 95/108/136 60/129/137
f 102/131/138 104/132/139 101/133/140
f 102/131/141 106/134/142 105/135/143
f 104/132/144 108/136/145 107/137/146
f 106/134/147 108/136/148 105/135/149
f 43/64/150 29/52/150 23/51/150
f 42/82/151 101/133/151 43/83/152
f 42/82/153 103/138/153 102/131/154
f 41/80/155 52/93/155 103/138/155
f 103/138/156 51/105/156 106/134/157
f 51/105/158 109/139/158 106/134/159
f 50/104/160 61/116/160 109/139/160
f 109/139/161 60/129/161 108/136/162
f 107/137/163 60/129/163 59/128/164
f 31/37/165 59/127/165 21/36/165
f 30/53/166 107/137/166 31/37/167
f 101/133/168 30/53/168 29/52/169
f 114/140/170 130/141/171 115/142/172
f 110/143/173 133/144/173 113/145/173
f 126/146/174 116/147/174 125/148/174
f 126/146/175 118/149/175 117/150/175
f 46/151/176 53/95/176 28/72/176
f 45/152/177 123/153/177 46/70/178
f 45/152/179 120/154/180 124/155/181
f 44/156/182 37/45/182 120/154/182
f 120/154/183 36/157/183 122/158/184
f 36/157/185 118/159/185 122/158/185
f 35/43/186 64/160/186 118/159/186
f 118/149/187 63/161/187 117/150/187
f 116/147/188 63/161/188 62/118/188
f 55/97/189 62/162/189 26/98/189
f 54/163/190 116/164/190 55/97/190
f 123/153/191 54/163/191 53/95/192
f 111/165/193 120/154/193 112/166/193
f 114/167/194 124/155/195 111/165/196
f 112/166/197 122/158/197 115/168/197
f 114/167/194 122/158/198 126/146/199
f 119/169/200 123/153/201 124/155/202
f 110/170/203 125/148/203 123/153/203
f 121/171/204 124/155/202 126/146/205
f 121/171/206 125/148/206 113/172/206
f 131/173/207 134/174/208 133/144/209
f 128/175/210 129/176/211 127/177/212
f 111/178/213 129/176/213 114/179/213
f 119/180/214 134/174/214 132/181/214
f 119/180/215 131/173/216 110/143/217
f 112/182/218 130/141/218 128/175/218
f 121/183/219 133/144/220 134/174/221
f 111/178/222 128/175/223 127/177/224
f 135/184/225 138/185/225 137/186/225
f 153/187/3 142/188/3 141/189/3
f 150/190/2 136/191/2 135/184/2
f 141/189/226 152/192/226 153/187/227
f 138/185/228 148/193/228 149/194/228
f 144/195/229 154/196/229 151/197/229
f 143/198/230 150/199/230 147/200/230
f 154/201/2 145/202/2 152/203/2
f 149/194/3 143/198/3 147/200/3
f 138/185/3 147/200/3 137/186/3
f 147/200/231 135/184/231 137/186/231
f 149/194/232 146/204/232 144/195/232
f 145/202/2 148/205/2 150/190/2
f 140/206/2 152/203/2 139/207/2
f 151/197/233 140/208/233 142/188/233
f 153/187/234 145/209/234 143/198/234
f 143/198/3 151/197/3 153/187/3
f 2/1/1 4/21/1 3/2/1
f 19/4/2 17/26/2 8/5/2
f 16/7/3 14/12/3 2/1/3
f 19/8/4 7/210/4 5/9/4
f 15/11/5 4/21/5 2/1/5
f 17/13/6 10/22/6 12/14/6
f 13/16/7 9/25/7 11/17/7
f 20/15/3 12/14/3 11/17/3
f 15/18/2 10/211/2 9/19/2
f 4/21/2 15/18/2 13/20/2
f 3/2/8 13/16/8 16/7/8
f 10/22/9 15/11/9 14/12/9
f 11/17/3 12/14/3 14/12/3
f 6/23/3 20/15/3 18/10/3
f 17/13/10 20/15/10 6/23/10
f 9/25/11 19/8/235 18/10/11
f 9/19/2 10/211/2 17/26/2
f 65/27/12 66/39/236 69/28/13
f 67/30/15 70/44/237 69/31/16
f 69/28/18 72/49/238 71/33/19
f 69/31/21 70/44/239 73/34/22
f 21/36/240 32/38/240 65/27/240
f 32/38/25 33/212/241 66/39/26
f 34/40/28 67/30/28 66/32/29
f 22/42/242 35/43/242 67/30/242
f 35/43/243 36/157/243 70/44/243
f 70/44/32 36/157/244 37/45/33
f 73/34/245 37/45/245 24/46/245
f 72/35/35 73/34/246 38/47/35
f 72/49/37 39/213/37 40/50/38
f 71/33/247 40/50/247 23/51/247
f 68/29/40 71/33/248 29/52/40
f 31/37/42 65/27/249 68/29/43
f 74/54/44 75/214/250 78/55/45
f 76/57/47 79/69/251 78/58/48
f 78/55/50 81/215/252 80/60/51
f 78/58/53 79/69/253 82/61/54
f 23/51/254 40/50/254 74/63/254
f 40/50/57 39/213/57 75/65/57
f 38/47/59 76/67/255 75/66/59
f 24/46/256 44/156/256 76/67/256
f 44/68/62 45/152/257 79/69/62
f 79/69/64 45/152/258 46/70/64
f 82/71/259 46/151/259 28/72/259
f 81/74/67 82/71/260 47/73/67
f 81/76/69 48/216/69 49/77/69
f 80/78/261 49/77/261 27/79/261
f 77/56/72 80/60/262 41/81/72
f 43/83/74 74/54/263 77/56/74
f 83/84/76 84/94/264 87/85/77
f 85/87/79 88/96/265 87/88/80
f 87/85/82 90/101/266 89/90/83
f 87/88/85 88/96/267 91/91/86
f 27/79/268 49/77/268 83/84/268
f 49/77/89 48/216/90 84/94/90
f 47/73/91 85/87/269 84/89/91
f 28/72/270 53/95/270 85/87/270
f 53/95/94 54/163/94 88/96/95
f 88/96/97 54/163/271 55/97/97
f 91/91/272 55/97/272 26/98/272
f 90/92/100 91/91/101 56/99/101
f 90/101/102 57/217/273 58/102/103
f 89/90/274 58/102/274 25/103/274
f 86/86/106 89/90/275 50/104/107
f 52/93/108 83/84/276 86/86/108
f 92/106/110 93/218/277 96/107/111
f 94/109/113 97/219/278 96/110/114
f 96/107/116 99/220/279 98/112/117
f 96/110/119 97/219/280 100/113/120
f 25/103/281 58/102/281 92/115/281
f 58/102/123 57/217/282 93/117/123
f 56/99/125 94/109/283 93/111/125
f 26/98/284 62/162/284 94/109/284
f 62/118/285 63/161/285 97/119/285
f 97/119/286 63/161/286 64/121/286
f 100/123/287 64/160/287 22/42/287
f 99/124/130 100/123/288 34/40/130
f 99/125/131 33/212/289 32/38/131
f 98/126/290 32/38/290 21/36/290
f 95/108/134 98/112/291 59/128/134
f 61/130/136 92/106/292 95/108/136
f 102/131/138 105/135/293 104/132/139
f 102/131/141 103/138/294 106/134/142
f 104/132/144 105/135/295 108/136/145
f 106/134/147 109/139/296 108/136/148
f 43/64/297 101/133/297 29/52/297
f 42/82/151 102/131/298 101/133/151
f 42/82/153 41/81/299 103/138/153
f 41/80/300 27/79/300 52/93/300
f 103/138/156 52/93/301 51/105/156
f 51/105/158 50/104/302 109/139/158
f 50/104/303 25/103/303 61/116/303
f 109/139/161 61/130/304 60/129/161
f 107/137/163 108/136/305 60/129/163
f 31/37/306 107/137/306 59/127/306
f 30/53/166 104/132/307 107/137/166
f 101/133/168 104/132/308 30/53/168
f 114/140/170 129/176/309 130/141/171
f 110/143/173 131/173/173 133/144/173
f 126/146/310 117/150/310 116/147/310
f 126/146/311 122/158/311 118/149/311
f 46/151/312 123/153/312 53/95/312
f 45/152/177 124/155/313 123/153/177
f 45/152/179 44/68/314 120/154/180
f 44/156/315 24/46/315 37/45/315
f 120/154/183 37/45/316 36/157/183
f 36/157/317 35/43/317 118/159/317
f 35/43/318 22/42/318 64/160/318
f 118/149/319 64/121/319 63/161/319
f 116/147/320 117/150/320 63/161/320
f 55/97/321 116/164/321 62/162/321
f 54/163/322 125/148/322 116/164/322
f 123/153/191 125/148/323 54/163/191
f 111/165/196 124/155/195 120/154/324
f 114/167/194 126/146/199 124/155/195
f 112/166/325 120/154/325 122/158/325
f 114/167/326 115/168/326 122/158/326
f 119/169/327 110/170/327 123/153/327
f 110/170/328 113/172/328 125/148/328
f 121/171/204 119/169/200 124/155/202
f 121/171/204 126/146/205 125/148/329
f 131/173/207 132/181/330 134/174/208
f 128/175/210 130/141/331 129/176/211
f 111/178/213 127/177/332 129/176/213
f 119/180/214 121/221/214 134/174/214
f 119/180/215 132/181/333 131/173/216
f 112/182/218 115/222/218 130/141/218
f 121/183/219 113/223/334 133/144/220
f 111/178/222 112/182/335 128/175/223
f 135/184/225 136/191/225 138/185/225
f 153/187/3 151/197/3 142/188/3
f 150/190/2 148/205/2 136/191/2
f 141/189/226 139/224/226 152/192/226
f 138/185/336 136/191/336 148/193/336
f 144/195/229 146/204/229 154/196/229
f 143/198/230 145/209/230 150/199/230
f 154/201/2 146/225/2 145/202/2
f 149/194/3 144/195/3 143/198/3
f 138/185/3 149/194/3 147/200/3
f 147/200/231 150/199/231 135/184/231
f 149/194/337 148/193/337 146/204/337
f 145/202/2 146/225/2 148/205/2
f 140/206/2 154/201/2 152/203/2
f 151/197/233 154/196/233 140/208/233
f 153/187/234 152/192/234 145/209/234
f 143/198/3 144/195/3 151/197/3
