# Blender 4.5.3 LTS
# www.blender.org
mtllib BigBullet.mtl
o Torus.001
v 0.000000 -0.272500 0.000000
v -0.031250 -0.264127 0.000000
v -0.054127 -0.241250 0.000000
v -0.062500 -0.210000 0.000000
v -0.054127 -0.178750 0.000000
v -0.031250 -0.155873 0.000000
v 0.000000 -0.147500 0.000000
v 0.031250 -0.155873 0.000000
v 0.054127 -0.178750 0.000000
v 0.062500 -0.210000 0.000000
v 0.054127 -0.241250 0.000000
v 0.031250 -0.264127 0.000000
v -0.000000 0.196250 0.270633
v -0.031250 0.192063 0.263381
v -0.054127 0.180625 0.243570
v -0.062500 0.165000 0.216506
v -0.054127 0.149375 0.189443
v -0.031250 0.137937 0.169631
v -0.000000 0.133750 0.162380
v 0.031250 0.137937 0.169631
v 0.054127 0.149375 0.189443
v 0.062500 0.165000 0.216506
v 0.054127 0.180625 0.243570
v 0.031250 0.192063 0.263381
v -0.000000 0.196250 -0.270633
v -0.031250 0.192063 -0.263381
v -0.054127 0.180625 -0.243570
v -0.062500 0.165000 -0.216506
v -0.054127 0.149375 -0.189443
v -0.031250 0.137937 -0.169631
v -0.000000 0.133750 -0.162380
v 0.031250 0.137937 -0.169631
v 0.054127 0.149375 -0.189443
v 0.062500 0.165000 -0.216506
v 0.054127 0.180625 -0.243570
v 0.031250 0.192063 -0.263381
v -0.312500 0.000000 0.000000
v -0.304127 0.031250 0.000000
v -0.281250 0.054127 0.000000
v -0.250000 0.062500 0.000000
v -0.218750 0.054127 0.000000
v -0.195873 0.031250 0.000000
v -0.187500 0.000000 0.000000
v -0.195873 -0.031250 0.000000
v -0.218750 -0.054127 0.000000
v -0.250000 -0.062500 0.000000
v -0.281250 -0.054127 0.000000
v -0.304127 -0.031250 0.000000
v 0.156250 0.000000 0.270633
v 0.152063 0.031250 0.263381
v 0.140625 0.054127 0.243570
v 0.125000 0.062500 0.216506
v 0.109375 0.054127 0.189443
v 0.097937 0.031250 0.169631
v 0.093750 0.000000 0.162380
v 0.097937 -0.031250 0.169631
v 0.109375 -0.054127 0.189443
v 0.125000 -0.062500 0.216506
v 0.140625 -0.054127 0.243570
v 0.152063 -0.031250 0.263381
v 0.156250 0.000000 -0.270633
v 0.152063 0.031250 -0.263381
v 0.140625 0.054127 -0.243570
v 0.125000 0.062500 -0.216506
v 0.109375 0.054127 -0.189443
v 0.097937 0.031250 -0.169631
v 0.093750 0.000000 -0.162380
v 0.097937 -0.031250 -0.169631
v 0.109375 -0.054127 -0.189443
v 0.125000 -0.062500 -0.216506
v 0.140625 -0.054127 -0.243570
v 0.152063 -0.031250 -0.263381
vn -0.1328 -0.4956 0.8584
vn -0.4472 -0.4472 0.7746
vn -0.8814 -0.2362 0.4091
vn -0.8814 0.2362 -0.4091
vn -0.4472 0.4472 -0.7746
vn -0.1328 0.4956 -0.8584
vn 0.1328 0.4956 -0.8584
vn 0.4472 0.4472 -0.7746
vn 0.8814 0.2362 -0.4091
vn 0.8814 -0.2362 0.4091
vn 0.4472 -0.4472 0.7746
vn 0.1328 -0.4956 0.8584
vn -0.1328 0.9911 -0.0000
vn -0.4472 0.8944 -0.0000
vn -0.8814 0.4723 -0.0000
vn -0.8814 -0.4723 -0.0000
vn -0.4472 -0.8944 -0.0000
vn -0.1328 -0.9911 -0.0000
vn 0.1328 -0.9911 -0.0000
vn 0.4472 -0.8944 -0.0000
vn 0.8814 -0.4723 -0.0000
vn 0.8814 0.4723 -0.0000
vn 0.4472 0.8944 -0.0000
vn 0.1328 0.9911 -0.0000
vn -0.1328 -0.4956 -0.8584
vn -0.4472 -0.4472 -0.7746
vn -0.8814 -0.2362 -0.4091
vn -0.8814 0.2362 0.4091
vn -0.4472 0.4472 0.7746
vn -0.1328 0.4956 0.8584
vn 0.1328 0.4956 0.8584
vn 0.4472 0.4472 0.7746
vn 0.8814 0.2362 0.4091
vn 0.8814 -0.2362 -0.4091
vn 0.4472 -0.4472 -0.7746
vn 0.1328 -0.4956 -0.8584
vn -0.4956 0.1328 0.8584
vn -0.2362 0.8814 0.4091
vn 0.2362 0.8814 -0.4091
vn 0.4956 0.1328 -0.8584
vn 0.4956 -0.1328 -0.8584
vn 0.2362 -0.8814 -0.4091
vn -0.2362 -0.8814 0.4091
vn -0.4956 -0.1328 0.8584
vn 0.9911 0.1328 -0.0000
vn 0.8944 0.4472 -0.0000
vn 0.4723 0.8814 -0.0000
vn -0.4723 0.8814 -0.0000
vn -0.8944 0.4472 -0.0000
vn -0.9911 0.1328 -0.0000
vn -0.9911 -0.1328 -0.0000
vn -0.8944 -0.4472 -0.0000
vn -0.4723 -0.8814 -0.0000
vn 0.4723 -0.8814 -0.0000
vn 0.8944 -0.4472 -0.0000
vn 0.9911 -0.1328 -0.0000
vn -0.4956 0.1328 -0.8584
vn -0.2362 0.8814 -0.4091
vn 0.2362 0.8814 0.4091
vn 0.4956 0.1328 0.8584
vn 0.4956 -0.1328 0.8584
vn 0.2362 -0.8814 0.4091
vn -0.2362 -0.8814 -0.4091
vn -0.4956 -0.1328 -0.8584
vt 1.000000 0.500000
vt 0.666667 0.583333
vt 0.666667 0.500000
vt 1.000000 0.583333
vt 0.666667 0.666667
vt 1.000000 0.666667
vt 0.666667 0.750000
vt 1.000000 0.750000
vt 0.666667 0.833333
vt 1.000000 0.833333
vt 0.666667 0.916667
vt 1.000000 0.916667
vt 0.666667 1.000000
vt 1.000000 0.000000
vt 0.666667 0.083333
vt 0.666667 0.000000
vt 1.000000 0.083333
vt 0.666667 0.166667
vt 1.000000 0.166667
vt 0.666667 0.250000
vt 1.000000 0.250000
vt 0.666667 0.333333
vt 1.000000 0.333333
vt 0.666667 0.416667
vt 0.333333 0.500000
vt 0.000000 0.583333
vt 0.000000 0.500000
vt 0.333333 0.583333
vt 0.000000 0.666667
vt 0.333333 0.666667
vt 0.000000 0.750000
vt 0.333333 0.750000
vt 0.000000 0.833333
vt 0.333333 0.833333
vt 0.000000 0.916667
vt 0.333333 0.916667
vt 0.000000 1.000000
vt 0.333333 0.000000
vt 0.000000 0.083333
vt 0.000000 0.000000
vt 0.333333 0.083333
vt 0.000000 0.166667
vt 0.333333 0.166667
vt 0.000000 0.250000
vt 0.333333 0.250000
vt 0.000000 0.333333
vt 0.333333 0.333333
vt 0.000000 0.416667
vt 0.333333 1.000000
vt 0.333333 0.416667
vt 1.000000 0.416667
vt 1.000000 1.000000
s 0
usemtl Material.002
f 13/1/1 2/2/1 1/3/1
f 14/4/2 3/5/2 2/2/2
f 15/6/3 4/7/3 3/5/3
f 16/8/4 5/9/4 4/7/4
f 17/10/5 6/11/5 5/9/5
f 18/12/6 7/13/6 6/11/6
f 19/14/7 8/15/7 7/16/7
f 20/17/8 9/18/8 8/15/8
f 21/19/9 10/20/9 9/18/9
f 22/21/10 11/22/10 10/20/10
f 23/23/11 12/24/11 11/22/11
f 12/24/12 13/1/12 1/3/12
f 25/25/13 14/26/13 13/27/13
f 26/28/14 15/29/14 14/26/14
f 27/30/15 16/31/15 15/29/15
f 28/32/16 17/33/16 16/31/16
f 29/34/17 18/35/17 17/33/17
f 30/36/18 19/37/18 18/35/18
f 31/38/19 20/39/19 19/40/19
f 32/41/20 21/42/20 20/39/20
f 33/43/21 22/44/21 21/42/21
f 34/45/22 23/46/22 22/44/22
f 35/47/23 24/48/23 23/46/23
f 24/48/24 25/25/24 13/27/24
f 25/25/25 2/2/25 26/28/25
f 2/2/26 27/30/26 26/28/26
f 27/30/27 4/7/27 28/32/27
f 4/7/28 29/34/28 28/32/28
f 5/9/29 30/36/29 29/34/29
f 6/11/30 31/49/30 30/36/30
f 31/38/31 8/15/31 32/41/31
f 32/41/32 9/18/32 33/43/32
f 9/18/33 34/45/33 33/43/33
f 10/20/34 35/47/34 34/45/34
f 35/47/35 12/24/35 36/50/35
f 36/50/36 1/3/36 25/25/36
f 13/1/1 14/4/1 2/2/1
f 14/4/2 15/6/2 3/5/2
f 15/6/3 16/8/3 4/7/3
f 16/8/4 17/10/4 5/9/4
f 17/10/5 18/12/5 6/11/5
f 18/12/6 19/52/6 7/13/6
f 19/14/7 20/17/7 8/15/7
f 20/17/8 21/19/8 9/18/8
f 21/19/9 22/21/9 10/20/9
f 22/21/10 23/23/10 11/22/10
f 23/23/11 24/51/11 12/24/11
f 12/24/12 24/51/12 13/1/12
f 25/25/13 26/28/13 14/26/13
f 26/28/14 27/30/14 15/29/14
f 27/30/15 28/32/15 16/31/15
f 28/32/16 29/34/16 17/33/16
f 29/34/17 30/36/17 18/35/17
f 30/36/18 31/49/18 19/37/18
f 31/38/19 32/41/19 20/39/19
f 32/41/20 33/43/20 21/42/20
f 33/43/21 34/45/21 22/44/21
f 34/45/22 35/47/22 23/46/22
f 35/47/23 36/50/23 24/48/23
f 24/48/24 36/50/24 25/25/24
f 25/25/25 1/3/25 2/2/25
f 2/2/26 3/5/26 27/30/26
f 27/30/27 3/5/27 4/7/27
f 4/7/28 5/9/28 29/34/28
f 5/9/29 6/11/29 30/36/29
f 6/11/30 7/13/30 31/49/30
f 31/38/31 7/16/31 8/15/31
f 32/41/32 8/15/32 9/18/32
f 9/18/33 10/20/33 34/45/33
f 10/20/34 11/22/34 35/47/34
f 35/47/35 11/22/35 12/24/35
f 36/50/36 12/24/36 1/3/36
usemtl Material.001
f 49/1/37 38/2/37 37/3/37
f 38/2/29 51/6/29 39/5/29
f 51/6/38 40/7/38 39/5/38
f 52/8/39 41/9/39 40/7/39
f 53/10/8 42/11/8 41/9/8
f 54/12/40 43/13/40 42/11/40
f 43/16/41 56/17/41 44/15/41
f 56/17/35 45/18/35 44/15/35
f 57/19/42 46/20/42 45/18/42
f 58/21/43 47/22/43 46/20/43
f 59/23/2 48/24/2 47/22/2
f 60/51/44 37/3/44 48/24/44
f 61/25/45 50/26/45 49/27/45
f 62/28/46 51/29/46 50/26/46
f 63/30/47 52/31/47 51/29/47
f 64/32/48 53/33/48 52/31/48
f 65/34/49 54/35/49 53/33/49
f 66/36/50 55/37/50 54/35/50
f 67/38/51 56/39/51 55/40/51
f 68/41/52 57/42/52 56/39/52
f 69/43/53 58/44/53 57/42/53
f 70/45/54 59/46/54 58/44/54
f 71/47/55 60/48/55 59/46/55
f 60/48/56 61/25/56 49/27/56
f 61/25/57 38/2/57 62/28/57
f 38/2/5 63/30/5 62/28/5
f 39/5/58 64/32/58 63/30/58
f 40/7/59 65/34/59 64/32/59
f 65/34/32 42/11/32 66/36/32
f 42/11/60 67/49/60 66/36/60
f 43/16/61 68/41/61 67/38/61
f 44/15/11 69/43/11 68/41/11
f 69/43/62 46/20/62 70/45/62
f 46/20/63 71/47/63 70/45/63
f 71/47/26 48/24/26 72/50/26
f 48/24/64 61/25/64 72/50/64
f 49/1/37 50/4/37 38/2/37
f 38/2/29 50/4/29 51/6/29
f 51/6/38 52/8/38 40/7/38
f 52/8/39 53/10/39 41/9/39
f 53/10/8 54/12/8 42/11/8
f 54/12/40 55/52/40 43/13/40
f 43/16/41 55/14/41 56/17/41
f 56/17/35 57/19/35 45/18/35
f 57/19/42 58/21/42 46/20/42
f 58/21/43 59/23/43 47/22/43
f 59/23/2 60/51/2 48/24/2
f 60/51/44 49/1/44 37/3/44
f 61/25/45 62/28/45 50/26/45
f 62/28/46 63/30/46 51/29/46
f 63/30/47 64/32/47 52/31/47
f 64/32/48 65/34/48 53/33/48
f 65/34/49 66/36/49 54/35/49
f 66/36/50 67/49/50 55/37/50
f 67/38/51 68/41/51 56/39/51
f 68/41/52 69/43/52 57/42/52
f 69/43/53 70/45/53 58/44/53
f 70/45/54 71/47/54 59/46/54
f 71/47/55 72/50/55 60/48/55
f 60/48/56 72/50/56 61/25/56
f 61/25/57 37/3/57 38/2/57
f 38/2/5 39/5/5 63/30/5
f 39/5/58 40/7/58 64/32/58
f 40/7/59 41/9/59 65/34/59
f 65/34/32 41/9/32 42/11/32
f 42/11/60 43/13/60 67/49/60
f 43/16/61 44/15/61 68/41/61
f 44/15/11 45/18/11 69/43/11
f 69/43/62 45/18/62 46/20/62
f 46/20/63 47/22/63 71/47/63
f 71/47/26 47/22/26 48/24/26
f 48/24/64 37/3/64 61/25/64
