# Blender 4.5.3 LTS
# www.blender.org
mtllib bigEnemy.mtl
o bigEnemy
v -0.803346 -1.122759 0.077724
v -0.803348 -0.094370 -1.156731
v 0.803346 -1.122759 0.077724
v 0.803349 -0.094370 -1.156733
v -0.920529 -0.393525 -0.980707
v -0.979389 -0.743823 -0.652180
v -0.920529 -1.003671 -0.248302
v -1.212651 0.179001 1.209383
v -1.212651 0.397512 -1.198773
v 0.476626 -0.056631 -1.434744
v -0.000000 -0.064179 -1.517643
v -0.476627 -0.053850 -1.371651
v 1.212651 0.397512 -1.198773
v 0.920529 -1.003671 -0.248304
v 0.979390 -0.743823 -0.652184
v 0.920529 -0.393525 -0.980708
v 1.212651 0.179001 1.209381
v -0.476626 -1.287796 0.092754
v 0.000000 -1.370696 0.100304
v 0.476626 -1.287796 0.092754
v -1.542956 0.196847 0.664842
v -1.654791 0.230041 -0.003862
v -1.542956 0.317427 -0.664033
v -0.669167 0.396153 -1.531643
v -0.000000 0.379134 -1.646956
v 0.669168 0.396153 -1.531643
v 1.542956 0.317427 -0.664034
v 1.654791 0.230041 -0.003861
v 1.542956 0.196847 0.664840
v 0.669167 0.118121 1.532452
v 0.000000 0.080951 1.639230
v -0.669168 0.118121 1.532453
v -0.474690 -0.124716 -2.177457
v -0.000000 -0.114956 -2.266095
v 0.474688 -0.124716 -2.177457
v -0.535256 -0.639401 -2.159052
v -0.001448 0.409279 -2.853204
v 0.535254 -0.639401 -2.159052
v -0.507968 -1.120130 -1.974286
v -0.000000 -1.163843 -2.052012
v 0.507969 -1.120130 -1.974288
v -1.145115 -0.554968 0.723675
v -0.861938 0.104082 -1.194021
v 0.861936 0.116151 -1.167665
v 1.145561 -0.554968 0.723675
v -1.075508 -0.105857 -0.926097
v -1.524420 -0.333867 -0.394264
v -1.389560 -0.482274 0.232086
v 0.492297 0.105790 -1.138782
v -0.000000 0.093469 -1.221668
v -0.492299 0.105790 -1.138780
v 1.390005 -0.482274 0.232084
v 1.516770 -0.333867 -0.394266
v 1.069416 -0.105857 -0.926096
v -0.653940 -0.693918 0.911825
v 0.000224 -0.761199 0.978200
v 0.654386 -0.693918 0.911823
v 0.861936 -1.063215 -0.085290
v 0.492297 -1.345980 -0.983413
v -0.000000 -1.424168 -1.013553
v -0.492299 -1.345980 -0.983413
v -0.639989 -0.101885 -1.239250
v -0.639988 -1.205277 0.085239
v -0.714249 -1.171047 -1.120020
v -0.757323 -0.827280 -1.479669
v -0.685749 -0.395033 -1.726015
v -0.677118 -1.298669 -0.821641
v -0.861938 -0.243950 -1.068720
v 0.861936 -0.243950 -1.068718
v -0.492299 -0.220100 -1.862622
v -0.000000 -0.124929 -1.945783
v 0.492297 -0.114638 -1.862622
v -0.677118 -0.192756 -1.767273
v 0.639987 -0.046335 -1.289136
v 0.639988 -1.205277 0.085239
v 0.685747 -0.395033 -1.726015
v 0.757323 -0.827280 -1.479669
v 0.714249 -1.171047 -1.120020
v 0.677116 -1.260102 -0.933773
v 0.677116 -0.192756 -1.767273
v 0.949959 -0.568674 -0.816444
v -0.521613 -0.382058 -2.168253
v -0.000845 -0.016896 -2.548458
v 0.521613 -0.382058 -2.168253
v -0.735786 -0.611157 -1.602841
v 0.735786 -0.611157 -1.602841
v 0.949959 -0.873747 -0.450243
v -0.521613 -0.879764 -2.066670
v 0.001197 -0.318690 -2.695005
v 0.521613 -0.879764 -2.066670
v -0.735786 -0.999162 -1.299844
v 0.735786 -0.999162 -1.299846
v 0.238312 -0.060407 -1.476194
v 0.253984 -0.119835 -2.221775
v 0.267801 -0.060299 -2.621493
v 0.253984 -1.141986 -2.013150
v 0.246150 -1.385073 -0.998484
v 0.246150 -0.119784 -1.904202
v 0.259993 -0.034644 -2.507396
v 0.261982 -0.323315 -2.650209
v -0.238314 -0.060407 -1.476194
v -0.253985 -0.119835 -2.221775
v -0.267449 -0.062283 -2.621967
v -0.253985 -1.141986 -2.013148
v -0.246149 -1.385073 -0.998484
v -0.246149 -0.119784 -1.904202
v -0.261615 -0.036579 -2.507860
v -0.259626 -0.325251 -2.650672
v -0.603667 1.946899 0.678282
v -0.603669 1.946899 -0.529055
v 0.603669 1.946899 0.678282
v 0.603667 1.946899 -0.529055
v -1.127092 0.903176 1.201707
v -0.735954 1.326222 0.810570
v -0.691723 1.694471 0.766338
v -0.691723 2.037435 0.432771
v -0.735955 2.082912 0.074614
v -0.691725 2.037435 -0.283544
v -0.691725 1.694471 -0.617111
v -0.735956 1.326222 -0.661341
v -1.127093 0.903174 -1.052478
v -0.358158 2.037435 -0.617111
v -0.000000 2.082912 -0.661341
v 0.358156 2.037435 -0.617111
v 0.691723 1.694471 -0.617111
v 0.735954 1.326222 -0.661341
v 1.127092 0.903174 -1.052478
v 0.691724 2.037435 -0.283544
v 0.735955 2.082912 0.074614
v 0.691725 2.037435 0.432771
v 0.691725 1.694471 0.766338
v 0.735956 1.326222 0.810568
v 1.127093 0.903176 1.201707
v 0.358158 2.037435 0.766338
v 0.000000 2.082912 0.810568
v -0.358156 2.037435 0.766338
v -1.434093 0.871833 0.696569
v -0.943930 1.326222 0.476827
v -0.880137 1.718685 0.456322
v -1.538037 0.844547 0.074615
v -1.013566 1.326222 0.074614
v -0.943931 1.739768 0.074614
v -1.434094 0.871833 -0.547339
v -0.943931 1.326222 -0.327597
v -0.880137 1.718685 -0.307094
v -0.621954 0.871831 -1.359478
v -0.402213 1.326222 -0.869318
v -0.381708 1.718685 -0.805523
v -0.000000 0.844546 -1.463423
v -0.000000 1.326222 -0.938952
v -0.000000 1.739767 -0.869318
v 0.621954 0.871831 -1.359480
v 0.402211 1.326222 -0.869318
v 0.381708 1.718685 -0.805523
v 1.434093 0.871833 -0.547340
v 0.943931 1.326222 -0.327599
v 0.880137 1.718685 -0.307094
v 1.538037 0.844547 0.074614
v 1.013566 1.326222 0.074614
v 0.943931 1.739768 0.074614
v 1.434095 0.871833 0.696568
v 0.943931 1.326222 0.476826
v 0.880137 1.718685 0.456322
v 0.621954 0.871833 1.508707
v 0.551646 1.326222 1.004505
v 0.523524 1.854071 0.904785
v 0.000000 0.844547 1.612651
v 0.000000 1.326222 1.088181
v 0.000000 1.875153 0.982620
v -0.621954 0.871833 1.508708
v -0.551646 1.326222 1.004505
v -0.523522 1.854071 0.904785
v 0.381708 2.231158 -0.307094
v -0.000000 2.296751 -0.327599
v -0.381708 2.231158 -0.307094
v 0.402213 2.296751 0.074614
v 0.000000 2.368347 0.074614
v -0.402213 2.296751 0.074614
v 0.381708 2.231158 0.456322
v 0.000000 2.296751 0.476826
v -0.381708 2.231158 0.456322
vn -0.1065 0.9712 -0.2133
vn 0.8279 0.5566 -0.0685
vn -0.1710 -0.6070 -0.7761
vn 0.4081 -0.5631 -0.7186
vn -0.4710 -0.1570 -0.8680
vn 0.0208 0.9998 -0.0007
vn 0.0220 0.9998 0.0004
vn 0.9665 -0.0111 -0.2565
vn 0.9643 -0.0520 -0.2598
vn 0.9307 -0.3136 -0.1883
vn 0.5728 -0.8171 0.0648
vn -0.1719 -0.9838 0.0514
vn -0.4522 -0.8852 0.1097
vn -0.9006 -0.3630 -0.2391
vn -0.9379 -0.0965 -0.3332
vn -0.4720 -0.8303 -0.2964
vn -0.1663 -0.9592 -0.2285
vn 0.1184 -0.9658 -0.2305
vn 0.8346 -0.5430 -0.0932
vn -0.1126 -0.8262 -0.5520
vn -0.1182 -0.8215 -0.5578
vn -0.1139 -0.8247 -0.5540
vn -0.6160 -0.3873 -0.6860
vn -0.7428 -0.6695 0.0013
vn -0.9358 0.1929 -0.2952
vn -0.4386 -0.3219 -0.8390
vn 0.1182 -0.8215 -0.5579
vn 0.1126 -0.8262 -0.5520
vn 0.1139 -0.8247 -0.5540
vn 0.4185 -0.2355 -0.8772
vn 0.2213 -0.7132 -0.6651
vn -0.0246 -0.7986 -0.6013
vn 0.7347 0.6625 -0.1458
vn 0.0040 0.9906 -0.1367
vn 0.0069 0.9909 -0.1346
vn 0.0068 0.9904 -0.1381
vn -0.0000 0.9895 -0.1446
vn -0.0074 0.9904 -0.1378
vn -0.0082 0.9905 -0.1373
vn -0.3762 0.9172 -0.1314
vn 0.4328 0.8953 -0.1055
vn 0.5386 -0.8233 -0.1791
vn 0.4987 0.8041 -0.3236
vn 0.4085 -0.9111 0.0552
vn 0.9431 -0.1646 -0.2890
vn 0.9395 0.0376 -0.3406
vn 0.8358 0.5453 -0.0642
vn 0.9274 0.1570 -0.3396
vn -0.9173 -0.3369 -0.2122
vn -0.9375 0.0191 -0.3474
vn 0.9526 0.0495 -0.3002
vn 0.6578 0.7179 0.2280
vn 0.0302 0.9599 0.2786
vn 0.9173 -0.1872 -0.3516
vn -0.9428 -0.3066 0.1309
vn -0.9418 -0.3047 0.1419
vn -0.9421 -0.3036 0.1425
vn -0.8524 -0.4252 -0.3043
vn 0.9173 -0.3369 -0.2122
vn 0.8818 0.0314 -0.4705
vn 0.8820 0.0318 -0.4702
vn 0.8812 0.0302 -0.4718
vn -0.1692 0.1020 -0.9803
vn 0.4281 -0.1904 -0.8834
vn 0.0126 0.9446 0.3280
vn -0.0000 0.9901 -0.1405
vn 0.1198 -0.9630 -0.2414
vn 0.6385 -0.1889 -0.7461
vn 0.0138 0.9994 0.0311
vn 0.1250 -0.6009 -0.7895
vn 0.3005 0.5551 0.7756
vn -0.7546 -0.2723 -0.5971
vn -0.1969 0.0008 -0.9804
vn -0.1125 0.9422 -0.3155
vn -0.1661 -0.9620 -0.2166
vn 0.6218 -0.2326 -0.7478
vn -0.3271 0.9093 0.2572
vn -0.1714 -0.3619 -0.9163
vn -0.8809 0.0298 -0.4724
vn -0.8805 0.0290 -0.4731
vn -0.8793 0.0264 -0.4756
vn -0.6655 0.7408 0.0912
vn -0.6577 0.7465 0.1006
vn -0.6742 0.7341 0.0805
vn -0.9715 0.1651 0.1698
vn -0.9715 0.1652 0.1698
vn -0.9716 0.1667 0.1682
vn -0.6577 0.7465 -0.1006
vn -0.6655 0.7408 -0.0912
vn -0.6742 0.7341 -0.0805
vn -0.9715 0.1652 -0.1698
vn -0.9715 0.1651 -0.1698
vn -0.9716 0.1667 -0.1682
vn -0.5724 0.7629 0.3006
vn -0.8373 0.1633 0.5217
vn -0.8373 0.1632 0.5218
vn -0.7541 0.4348 0.4923
vn -0.8429 0.5108 0.1690
vn -0.8429 0.5108 0.1691
vn -0.8429 0.5108 -0.1690
vn -0.8429 0.5108 -0.1691
vn -0.7541 0.4348 -0.4923
vn -0.8373 0.1633 -0.5217
vn -0.8373 0.1632 -0.5218
vn -0.5724 0.7629 -0.3006
vn -0.0912 0.7408 -0.6655
vn -0.1006 0.7465 -0.6577
vn -0.0805 0.7341 -0.6742
vn -0.1698 0.1651 -0.9715
vn -0.1698 0.1652 -0.9715
vn -0.1682 0.1667 -0.9716
vn 0.1006 0.7465 -0.6577
vn 0.0912 0.7408 -0.6655
vn 0.0805 0.7341 -0.6742
vn 0.1698 0.1652 -0.9715
vn 0.1698 0.1651 -0.9715
vn 0.1682 0.1667 -0.9716
vn -0.3006 0.7629 -0.5724
vn -0.5217 0.1633 -0.8373
vn -0.5218 0.1632 -0.8373
vn -0.4923 0.4348 -0.7541
vn -0.1690 0.5108 -0.8429
vn -0.1691 0.5107 -0.8429
vn 0.1690 0.5108 -0.8429
vn 0.1691 0.5108 -0.8429
vn 0.4923 0.4348 -0.7541
vn 0.5217 0.1633 -0.8373
vn 0.5218 0.1632 -0.8373
vn 0.3006 0.7629 -0.5724
vn 0.6655 0.7408 -0.0912
vn 0.6577 0.7465 -0.1006
vn 0.6742 0.7341 -0.0805
vn 0.9715 0.1651 -0.1698
vn 0.9715 0.1652 -0.1698
vn 0.9716 0.1667 -0.1682
vn 0.6577 0.7465 0.1006
vn 0.6655 0.7408 0.0912
vn 0.6742 0.7341 0.0805
vn 0.9715 0.1652 0.1698
vn 0.9715 0.1651 0.1698
vn 0.9716 0.1667 0.1682
vn 0.5724 0.7629 -0.3006
vn 0.8373 0.1633 -0.5217
vn 0.8373 0.1632 -0.5218
vn 0.7541 0.4348 -0.4923
vn 0.8429 0.5108 -0.1690
vn 0.8429 0.5108 -0.1691
vn 0.8429 0.5108 0.1690
vn 0.8429 0.5108 0.1691
vn 0.7541 0.4348 0.4923
vn 0.8373 0.1633 0.5217
vn 0.8373 0.1632 0.5218
vn 0.5724 0.7629 0.3006
vn 0.0887 0.7393 0.6676
vn 0.0940 0.7424 0.6633
vn 0.0805 0.7341 0.6742
vn 0.1495 0.1889 0.9705
vn 0.1472 0.1912 0.9705
vn -0.0940 0.7424 0.6633
vn -0.0887 0.7393 0.6676
vn -0.0805 0.7341 0.6742
vn -0.1495 0.1889 0.9705
vn -0.1472 0.1912 0.9705
vn 0.3245 0.7247 0.6079
vn 0.7156 0.1666 0.6784
vn 0.7151 0.1670 0.6788
vn 0.7146 0.1674 0.6792
vn 0.7809 0.4303 0.4527
vn 0.1465 0.6594 0.7374
vn 0.1593 0.6448 0.7476
vn 0.1353 0.6719 0.7282
vn -0.1593 0.6448 0.7476
vn -0.1465 0.6594 0.7374
vn -0.1353 0.6719 0.7282
vn -0.7809 0.4303 0.4527
vn -0.7151 0.1670 0.6788
vn -0.7156 0.1666 0.6784
vn -0.7146 0.1674 0.6792
vn -0.3245 0.7247 0.6079
vn 0.1742 0.9692 -0.1742
vn 0.1725 0.9692 -0.1758
vn -0.1742 0.9692 -0.1742
vn -0.1758 0.9692 -0.1725
vn 0.1742 0.9692 0.1742
vn 0.1725 0.9692 0.1758
vn -0.1742 0.9692 0.1742
vn -0.1758 0.9692 0.1725
vn 0.4972 0.7408 -0.4515
vn 0.1710 0.8296 -0.5315
vn 0.1711 0.8296 -0.5314
vn -0.1710 0.8296 -0.5315
vn -0.4515 0.7408 -0.4972
vn -0.5315 0.8296 -0.1710
vn -0.5314 0.8296 -0.1711
vn -0.5315 0.8296 0.1710
vn -0.5314 0.8296 0.1711
vn -0.4515 0.7408 0.4972
vn -0.1710 0.8296 0.5315
vn 0.1710 0.8296 0.5315
vn 0.1711 0.8296 0.5314
vn 0.4972 0.7408 0.4515
vn 0.5315 0.8296 0.1710
vn 0.5315 0.8296 -0.1710
vn 0.9762 0.1501 0.1566
vn 0.9671 0.2033 -0.1527
vn 0.8279 0.2806 -0.4857
vn 0.5156 -0.0013 -0.8568
vn 0.4851 0.3298 -0.8099
vn 0.4780 0.3178 -0.8189
vn 0.1453 0.3573 -0.9226
vn 0.1395 0.3492 -0.9266
vn -0.1453 0.3573 -0.9226
vn -0.1395 0.3492 -0.9266
vn -0.4851 0.3298 -0.8099
vn -0.4838 0.3275 -0.8116
vn -0.4780 0.3178 -0.8189
vn -0.8279 0.2806 -0.4857
vn -0.9671 0.2033 -0.1527
vn -0.9762 0.1501 0.1566
vn -0.8482 0.1122 0.5177
vn -0.8524 0.1066 0.5118
vn -0.8526 0.1062 0.5116
vn -0.5073 0.0617 0.8596
vn -0.5125 0.0666 0.8561
vn -0.5149 0.0699 0.8544
vn -0.1598 0.0381 0.9864
vn -0.1587 0.0374 0.9866
vn -0.1629 0.0413 0.9858
vn 0.1586 0.0374 0.9866
vn 0.1597 0.0380 0.9864
vn 0.1629 0.0413 0.9858
vn 0.5125 0.0666 0.8561
vn 0.5073 0.0617 0.8596
vn 0.5149 0.0699 0.8544
vn 0.8524 0.1066 0.5118
vn 0.8482 0.1122 0.5177
vn 0.8526 0.1062 0.5116
vn -0.9785 -0.1021 -0.1793
vn -0.9623 -0.0558 -0.2662
vn -0.4386 -0.8834 -0.1650
vn 0.1719 -0.9838 0.0514
vn -0.7950 -0.3839 0.4696
vn -0.6866 -0.6863 0.2399
vn -0.4800 -0.5144 0.7106
vn -0.4051 -0.7815 0.4744
vn -0.4121 -0.7782 0.4739
vn -0.4031 -0.7825 0.4745
vn -0.1584 -0.6014 0.7831
vn 0.1419 -0.6112 0.7787
vn 0.4298 -0.5532 0.7136
vn 0.7951 -0.3835 0.4697
vn 0.9429 -0.3118 0.1170
vn 0.6576 -0.3107 -0.6863
vn 0.7353 -0.6775 0.0168
vn 0.6676 -0.6666 -0.3316
vn 0.8081 -0.3250 -0.4913
vn 0.4129 -0.7779 0.4737
vn 0.4144 -0.7772 0.4736
vn 0.1421 -0.8153 0.5613
vn 0.1486 -0.8128 0.5633
vn 0.1502 -0.8121 0.5638
vn -0.1486 -0.8127 0.5634
vn -0.1421 -0.8153 0.5614
vn -0.1502 -0.8121 0.5639
vn 0.0961 -0.7793 -0.6193
vn -0.6425 -0.2643 -0.7192
vn -0.6444 -0.2615 -0.7186
vn -0.6461 -0.2592 -0.7179
vn -0.4809 -0.2970 -0.8249
vn 0.1470 -0.1406 -0.9791
vn -0.0667 0.8803 -0.4696
vn -0.0676 0.8806 -0.4690
vn -0.0670 0.8805 -0.4692
vn 0.0701 0.8729 -0.4828
vn -0.3076 0.5532 0.7742
vn 0.8810 0.0298 -0.4722
vn -0.1192 -0.6011 -0.7903
vn 0.1714 -0.3619 -0.9163
vn -0.5708 0.7941 0.2087
vn -0.0138 0.9994 0.0311
vn -0.0156 0.9994 -0.0311
vn 0.9358 0.1929 -0.2952
vn 0.9650 -0.0737 -0.2515
vn 0.9011 -0.4124 -0.1340
vn 0.4386 -0.8834 -0.1650
vn -0.1533 -0.9866 0.0556
vn -0.1539 -0.9870 0.0474
vn -0.2015 -0.9779 0.0558
vn -0.9431 -0.1646 -0.2890
vn -0.9395 0.0376 -0.3406
vn -0.5386 -0.8233 -0.1791
vn -0.1198 -0.9630 -0.2414
vn 0.1661 -0.9620 -0.2166
vn 0.7191 -0.6949 0.0046
vn -0.1167 -0.8231 -0.5558
vn -0.7983 -0.3351 -0.5004
vn -0.6625 -0.6702 -0.3346
vn -0.9665 -0.0111 -0.2565
vn -0.5883 0.8029 -0.0968
vn 0.1167 -0.8231 -0.5558
vn 0.5673 -0.2411 -0.7874
vn 0.0076 0.9909 -0.1341
vn -0.0249 0.9471 -0.3199
vn 0.1853 0.9436 -0.2746
vn 0.4674 -0.8302 -0.3038
vn 0.3618 0.8090 -0.4632
vn -0.0770 -0.0303 -0.9966
vn 0.4523 -0.8895 0.0643
vn 0.9006 -0.3630 -0.2391
vn 0.9379 -0.0965 -0.3332
vn 0.3952 -0.1674 -0.9032
vn 0.9375 0.0191 -0.3474
vn -0.9011 -0.4124 -0.1340
vn -0.9274 0.1570 -0.3396
vn 0.9628 -0.0801 -0.2579
vn 0.1969 0.0008 -0.9804
vn -0.0202 0.9444 0.3280
vn 0.8524 -0.4252 -0.3043
vn -0.9425 -0.3079 0.1300
vn -0.9173 -0.1872 -0.3516
vn 0.8823 -0.4438 -0.1569
vn 0.7560 -0.2718 -0.5955
vn -0.4252 -0.1937 -0.8841
vn 0.1702 0.1032 -0.9800
vn -0.0313 0.9580 0.2851
vn 0.1663 -0.9592 -0.2285
vn 0.6112 -0.2097 -0.7632
vn 0.6428 -0.2030 -0.7386
vn -0.0208 0.9998 -0.0007
vn 0.1710 -0.6061 -0.7768
vn 0.0995 0.9722 -0.2118
vn -0.8789 0.0258 -0.4763
vn -0.6582 0.7180 0.2265
vn -0.3919 0.9122 -0.1194
vn -0.1184 -0.9658 -0.2305
vn 0.5379 -0.7191 -0.4399
vn -0.0220 0.9998 0.0004
vn -0.4084 -0.5634 -0.7182
vn -0.8329 0.5475 -0.0807
vn -0.6480 0.7533 0.1122
vn -0.9715 0.1636 0.1714
vn -0.6480 0.7533 -0.1122
vn -0.9715 0.1636 -0.1714
vn -0.5241 0.7865 0.3266
vn -0.8374 0.1634 0.5217
vn -0.7550 0.4793 0.4475
vn -0.8429 0.5109 0.1690
vn -0.8429 0.5109 -0.1690
vn -0.7550 0.4793 -0.4475
vn -0.8374 0.1634 -0.5217
vn -0.5241 0.7865 -0.3266
vn -0.1122 0.7533 -0.6480
vn -0.1714 0.1636 -0.9715
vn 0.1122 0.7533 -0.6480
vn 0.1714 0.1636 -0.9715
vn -0.3266 0.7865 -0.5241
vn -0.5217 0.1634 -0.8374
vn -0.4475 0.4793 -0.7550
vn -0.1690 0.5109 -0.8429
vn 0.1690 0.5109 -0.8429
vn 0.4475 0.4793 -0.7550
vn 0.5217 0.1634 -0.8374
vn 0.3266 0.7865 -0.5241
vn 0.6480 0.7533 -0.1122
vn 0.9715 0.1636 -0.1714
vn 0.6480 0.7533 0.1122
vn 0.9715 0.1636 0.1714
vn 0.5241 0.7865 -0.3266
vn 0.8374 0.1634 -0.5217
vn 0.7550 0.4793 -0.4475
vn 0.8429 0.5109 -0.1690
vn 0.8429 0.5109 0.1690
vn 0.7550 0.4793 0.4475
vn 0.8374 0.1634 0.5217
vn 0.5241 0.7865 0.3266
vn 0.0999 0.7460 0.6584
vn 0.1518 0.1867 0.9706
vn -0.0999 0.7460 0.6584
vn -0.1518 0.1867 0.9706
vn 0.4404 0.7942 0.4186
vn 0.7159 0.1662 0.6781
vn 0.4489 0.7599 0.4702
vn 0.1734 0.6282 0.7585
vn -0.1734 0.6282 0.7585
vn -0.4489 0.7599 0.4702
vn -0.7159 0.1663 0.6781
vn -0.4404 0.7942 0.4186
vn 0.1758 0.9692 -0.1725
vn -0.1725 0.9692 -0.1758
vn 0.1758 0.9692 0.1725
vn -0.1725 0.9692 0.1758
vn 0.4515 0.7408 -0.4972
vn -0.1711 0.8296 -0.5314
vn -0.4972 0.7409 -0.4515
vn -0.4972 0.7408 0.4515
vn -0.1711 0.8296 0.5314
vn 0.4515 0.7408 0.4972
vn 0.5314 0.8296 0.1711
vn 0.5314 0.8296 -0.1711
vn 0.9718 0.1628 0.1706
vn 0.9858 0.0142 -0.1672
vn 0.9840 0.0892 -0.1542
vn 0.9665 0.2182 -0.1349
vn 0.8376 0.2650 -0.4777
vn 0.1493 0.3627 -0.9199
vn -0.1493 0.3627 -0.9199
vn -0.4907 0.3392 -0.8026
vn -0.7239 -0.4592 -0.5149
vn -0.8520 0.0254 -0.5230
vn -0.8376 0.2650 -0.4777
vn -0.9665 0.2182 -0.1349
vn -0.9718 0.1628 0.1706
vn -0.8479 0.1124 0.5180
vn -0.5052 0.0588 0.8610
vn -0.1556 0.0344 0.9872
vn 0.1556 0.0344 0.9872
vn 0.5052 0.0588 0.8610
vn 0.8479 0.1124 0.5180
vn -0.6600 -0.3034 -0.6872
vn -0.9650 -0.0738 -0.2515
vn -0.9526 0.0495 -0.3002
vn -0.8591 -0.5005 -0.1072
vn -0.6588 -0.7451 0.1037
vn 0.1539 -0.9870 0.0474
vn 0.1533 -0.9866 0.0556
vn -0.8375 -0.4154 0.3550
vn -0.7355 -0.6773 0.0170
vn -0.4298 -0.5534 0.7135
vn -0.4143 -0.7771 0.4738
vn -0.1419 -0.6112 0.7786
vn 0.1584 -0.6014 0.7831
vn 0.4801 -0.5142 0.7107
vn 0.8377 -0.4150 0.3552
vn 0.9423 -0.3030 0.1425
vn 0.9769 -0.1141 -0.1806
vn 0.6864 -0.6865 0.2398
vn 0.7462 -0.6657 -0.0067
vn 0.6202 -0.3818 -0.6853
vn 0.4051 -0.7816 0.4743
vn 0.4031 -0.7826 0.4744
vn 0.1408 -0.8158 0.5609
vn -0.1408 -0.8158 0.5610
vn -0.4410 -0.5387 -0.7178
vn -0.5682 -0.6865 -0.4538
vn -0.6291 -0.1961 -0.7522
vn -0.6465 -0.2584 -0.7178
vn -0.5845 0.6504 -0.4852
vn -0.3406 0.5946 -0.7284
vn -0.2243 0.7967 -0.5612
vn -0.0582 0.8775 -0.4760
vn 0.0670 0.8805 -0.4692
vn 0.0676 0.8806 -0.4690
vn 0.0667 0.8803 -0.4696
vn 0.0582 0.8775 -0.4760
vt 0.926933 0.507273
vt 0.931750 0.544903
vt 0.917885 0.541541
vt 0.870245 0.424729
vt 0.930851 0.469312
vt 0.917121 0.473129
vt 0.931021 0.580027
vt 0.915328 0.695398
vt 0.889383 0.681742
vt 0.868120 0.369404
vt 0.887013 0.333504
vt 0.929559 0.434173
vt 0.830917 0.572373
vt 0.818402 0.606650
vt 0.810660 0.586566
vt 0.842691 0.508430
vt 0.879804 0.544047
vt 0.836729 0.538611
vt 0.836123 0.478843
vt 0.860362 0.449872
vt 0.878756 0.471057
vt 0.743040 0.397838
vt 0.818736 0.408386
vt 0.812549 0.429811
vt 0.728787 0.355612
vt 0.806121 0.356740
vt 0.811488 0.382221
vt 0.705971 0.307879
vt 0.787742 0.309364
vt 0.796631 0.333629
vt 0.682881 0.265962
vt 0.682810 0.229410
vt 0.775880 0.290648
vt 0.813504 0.763010
vt 0.728376 0.857841
vt 0.696154 0.811642
vt 0.767654 0.735944
vt 0.684289 0.793507
vt 0.796858 0.682659
vt 0.865318 0.671287
vt 0.788037 0.707403
vt 0.811483 0.633171
vt 0.873822 0.618165
vt 0.806298 0.658944
vt 0.794219 0.741988
vt 0.832692 0.783318
vt 0.863412 0.344112
vt 0.811384 0.254846
vt 0.693415 0.283811
vt 0.105485 0.426612
vt 0.163878 0.492620
vt 0.106351 0.493227
vt 0.126904 0.333277
vt 0.067414 0.271469
vt 0.145889 0.261148
vt 0.058512 0.210204
vt 0.152879 0.200836
vt 0.742463 0.617774
vt 0.738219 0.636051
vt 0.753862 0.582220
vt 0.736635 0.597766
vt 0.106913 0.559775
vt 0.169740 0.559346
vt 0.132661 0.605626
vt 0.758978 0.438462
vt 0.785774 0.481812
vt 0.828605 0.449064
vt 0.790938 0.508615
vt 0.785389 0.535648
vt 0.770232 0.560425
vt 0.778392 0.456050
vt 0.793060 0.276035
vt 0.742861 0.460592
vt 0.741139 0.418300
vt 0.693531 0.211321
vt 0.872127 0.396488
vt 0.717895 0.685658
vt 0.872022 0.589689
vt 0.738740 0.379452
vt 0.884656 0.507633
vt 0.206230 0.247947
vt 0.224820 0.193104
vt 0.869930 0.645606
vt 0.719012 0.331349
vt 0.958841 0.585531
vt 0.957146 0.428108
vt 0.993513 0.506430
vt 0.829768 0.234322
vt 0.912469 0.319631
vt 0.127172 0.651498
vt 0.088121 0.657392
vt 0.096597 0.635925
vt 0.862437 0.564927
vt 0.191638 0.678109
vt 0.282720 0.206439
vt 0.343508 0.288500
vt 0.261758 0.260666
vt 0.532559 0.347965
vt 0.476485 0.298626
vt 0.533749 0.295684
vt 0.243757 0.317467
vt 0.439884 0.362884
vt 0.421209 0.314419
vt 0.302728 0.157622
vt 0.357552 0.235898
vt 0.579068 0.351050
vt 0.587393 0.301569
vt 0.569462 0.387072
vt 0.534910 0.393402
vt 0.485570 0.353438
vt 0.451681 0.404840
vt 0.418892 0.409698
vt 0.398691 0.380853
vt 0.372754 0.339086
vt 0.322819 0.338928
vt 0.231291 0.371746
vt 0.219862 0.428123
vt 0.302138 0.491859
vt 0.215276 0.492260
vt 0.356045 0.440886
vt 0.302790 0.438289
vt 0.220547 0.556222
vt 0.356522 0.542333
vt 0.303278 0.545422
vt 0.328159 0.371628
vt 0.363784 0.414550
vt 0.406580 0.443719
vt 0.355877 0.491609
vt 0.407039 0.539017
vt 0.364527 0.568608
vt 0.419686 0.572919
vt 0.399768 0.601964
vt 0.329323 0.611883
vt 0.374240 0.643988
vt 0.232216 0.612330
vt 0.244848 0.666460
vt 0.344806 0.695216
vt 0.262955 0.723184
vt 0.441139 0.619528
vt 0.478375 0.683429
vt 0.422940 0.668179
vt 0.283863 0.777394
vt 0.533965 0.633536
vt 0.535669 0.685807
vt 0.323902 0.644733
vt 0.452525 0.577455
vt 0.486920 0.628525
vt 0.535868 0.588074
vt 0.570483 0.594064
vt 0.580445 0.629992
vt 0.589257 0.679393
vt 0.358870 0.747968
vt 0.303734 0.826287
vt 0.322042 0.880058
vt 0.428516 0.892281
vt 0.349906 0.951114
vt 0.631327 0.562181
vt 0.709450 0.489879
vt 0.705926 0.567362
vt 0.427406 0.092299
vt 0.321224 0.104023
vt 0.349354 0.033349
vt 0.630618 0.418350
vt 0.705162 0.412434
vt 0.385729 0.828758
vt 0.625483 0.672772
vt 0.604392 0.602043
vt 0.598318 0.539673
vt 0.633567 0.490253
vt 0.597833 0.441182
vt 0.603288 0.378760
vt 0.623680 0.307832
vt 0.384521 0.155410
vt 0.453557 0.535268
vt 0.499424 0.490912
vt 0.498143 0.537735
vt 0.453127 0.447011
vt 0.452261 0.491144
vt 0.547255 0.541787
vt 0.546751 0.439572
vt 0.547984 0.490674
vt 0.406002 0.491369
vt 0.497684 0.444107
vt 0.592151 0.416607
vt 0.598421 0.490426
vt 0.493297 0.582632
vt 0.226026 0.790572
vt 0.207585 0.735903
vt 0.183094 0.619826
vt 0.168614 0.425348
vt 0.182004 0.364402
vt 0.241484 0.141739
vt 0.248529 0.083698
vt 0.249103 0.900015
vt 0.242422 0.841913
vt 0.190461 0.305929
vt 0.671847 0.775111
vt 0.692705 0.735895
vt 0.723802 0.164318
vt 0.162715 0.149458
vt 0.061744 0.164398
vt 0.148283 0.097536
vt 0.254081 0.007433
vt 0.149033 0.885282
vt 0.254105 0.976554
vt 0.127298 0.956434
vt 0.163937 0.833665
vt 0.154674 0.782584
vt 0.147391 0.723032
vt 0.063093 0.817527
vt 0.061606 0.795715
vt 0.060522 0.773762
vt 0.064350 0.744364
vt 0.069336 0.714907
vt 0.078587 0.686263
vt 0.035282 0.851577
vt 0.049107 0.834519
vt 0.006922 0.903852
vt 0.127552 0.026236
vt 0.034271 0.129096
vt 0.006922 0.076612
vt 0.131552 0.380574
vt 0.715580 0.585063
vt 0.740038 0.554743
vt 0.755419 0.508000
vt 0.671847 0.247707
vt 0.087604 0.329138
vt 0.720570 0.433356
vt 0.372637 0.187571
vt 0.492397 0.399263
vt 0.306946 0.387221
vt 0.307756 0.596468
vt 0.373892 0.796465
vt 0.592882 0.564305
vt 0.096717 0.350111
s 1
usemtl マテリアル.001
f 83/1/1 103/2/1 107/3/1
f 84/4/2 95/5/2 99/6/2
f 108/7/3 40/8/3 104/9/3
f 90/10/4 96/11/4 100/12/4
f 70/13/5 66/14/5 73/15/5
f 71/16/6 102/17/6 106/18/6
f 98/19/7 35/20/7 94/21/7
f 69/22/8 76/23/8 80/24/8
f 81/25/9 77/26/9 86/27/9
f 87/28/10 78/29/10 92/30/10
f 58/31/11 75/32/11 79/33/11
f 105/34/12 19/35/12 18/36/12
f 67/37/13 18/36/13 63/38/13
f 91/39/14 39/40/14 64/41/14
f 85/42/15 36/43/15 65/44/15
f 64/41/16 61/45/16 67/37/16
f 104/9/17 60/46/17 105/34/17
f 41/47/18 97/48/18 96/11/18
f 14/49/19 79/33/19 78/29/19
f 51/50/20 25/51/21 50/52/22
f 46/53/23 6/54/23 47/55/23
f 47/55/24 7/56/24 48/57/24
f 68/58/25 66/14/25 5/59/25
f 62/60/26 68/58/26 2/61/26
f 25/51/27 49/62/28 50/52/29
f 26/63/30 44/64/31 49/62/32
f 74/65/33 69/22/33 80/24/33
f 93/66/34 72/67/35 98/19/36
f 11/68/37 106/18/38 101/69/39
f 12/70/40 73/15/40 62/60/40
f 10/71/41 80/24/41 72/67/41
f 78/29/42 59/72/42 41/47/42
f 49/73/43 4/74/43 74/65/43
f 79/33/44 20/75/44 59/72/44
f 92/30/45 41/47/45 90/10/45
f 86/27/46 38/76/46 84/4/46
f 72/67/47 76/23/47 35/20/47
f 76/23/48 84/4/48 35/20/48
f 91/39/49 64/41/49 6/77/49
f 66/14/50 82/78/50 85/42/50
f 16/79/51 86/27/51 76/23/51
f 94/21/52 84/4/52 99/6/52
f 34/80/53 107/3/53 102/17/53
f 77/26/54 90/10/54 38/76/54
f 22/81/55 48/57/56 21/82/57
f 65/44/58 88/83/58 91/39/58
f 15/84/59 92/30/59 77/26/59
f 38/76/60 100/12/61 95/5/62
f 103/2/63 89/85/63 108/7/63
f 95/5/64 89/86/64 37/87/64
f 34/80/65 99/6/65 83/1/65
f 11/68/37 98/19/36 71/16/66
f 96/11/67 60/88/67 40/89/67
f 54/90/68 16/91/68 69/92/68
f 71/16/69 94/21/69 34/80/69
f 100/12/70 40/89/70 89/86/70
f 83/1/71 95/5/71 37/87/71
f 36/43/72 108/7/72 88/83/72
f 102/17/73 82/78/73 33/93/73
f 101/69/74 70/13/74 12/70/74
f 39/40/75 105/34/75 61/45/75
f 44/64/76 27/94/76 54/90/76
f 106/18/77 33/93/77 70/13/77
f 88/83/78 104/9/78 39/40/78
f 82/78/79 103/2/80 36/43/81
f 137/95/82 141/96/83 140/97/84
f 139/98/85 141/99/86 138/100/87
f 141/96/88 143/101/89 140/97/90
f 141/99/91 145/102/92 144/103/93
f 113/104/94 138/105/94 137/95/94
f 115/106/95 138/100/95 114/107/96
f 109/108/97 139/98/97 115/106/97
f 116/109/98 142/110/98 139/98/99
f 142/110/100 118/111/100 145/102/101
f 145/102/102 110/112/102 119/113/102
f 144/103/103 119/113/103 120/114/104
f 144/115/105 121/116/105 143/101/105
f 146/117/106 150/118/107 149/119/108
f 148/120/109 150/118/110 147/121/111
f 150/118/112 152/122/113 149/119/114
f 150/118/115 154/123/116 153/124/117
f 121/116/118 147/121/118 146/117/118
f 119/113/119 147/125/119 120/114/120
f 110/112/121 148/126/121 119/113/121
f 122/127/122 151/128/122 148/120/123
f 151/128/124 124/129/124 154/123/125
f 154/130/126 112/131/126 125/132/126
f 153/133/127 125/132/127 126/134/128
f 153/124/129 127/135/129 152/122/129
f 155/136/130 159/137/131 158/138/132
f 157/139/133 159/140/134 156/141/135
f 159/137/136 161/142/137 158/138/138
f 159/140/139 163/143/140 162/144/141
f 127/135/142 156/145/142 155/136/142
f 125/132/143 156/141/143 126/134/144
f 112/131/145 157/139/145 125/132/145
f 128/146/146 160/147/146 157/139/147
f 160/147/148 130/148/148 163/143/149
f 163/143/150 111/149/150 131/150/150
f 162/144/151 131/150/151 132/151/152
f 162/152/153 133/153/153 161/142/153
f 164/154/154 168/155/155 167/156/156
f 166/157/157 168/158/157 165/159/158
f 168/160/159 170/161/160 167/162/161
f 168/158/162 172/163/162 171/164/163
f 133/153/164 165/165/164 164/154/164
f 131/150/165 165/166/166 132/151/167
f 111/149/168 166/167/168 131/150/168
f 134/168/169 169/169/170 166/157/171
f 169/169/172 136/170/173 172/163/174
f 172/171/175 109/108/175 115/106/175
f 171/172/176 115/106/177 114/107/178
f 171/173/179 113/104/179 170/161/179
f 173/174/180 177/175/180 176/176/181
f 175/177/182 177/175/182 174/178/183
f 177/175/184 179/179/184 176/176/185
f 177/175/186 181/180/186 180/181/187
f 112/131/188 173/174/188 128/146/188
f 124/129/189 174/178/189 173/174/190
f 122/127/191 174/178/191 123/182/191
f 110/112/192 175/177/192 122/127/192
f 118/111/193 178/183/193 175/177/194
f 178/183/195 116/109/195 181/180/196
f 181/180/197 109/108/197 136/184/197
f 180/181/198 136/170/198 135/185/198
f 180/181/199 134/168/199 179/179/200
f 179/179/201 111/149/201 130/148/201
f 176/176/202 130/148/202 129/186/202
f 128/146/203 176/176/203 129/186/203
f 29/187/204 158/138/204 161/142/204
f 28/188/205 155/136/205 158/138/205
f 155/136/206 13/189/206 127/135/206
f 13/189/207 152/122/208 127/135/209
f 26/63/210 149/119/210 152/122/211
f 149/119/212 24/190/212 146/117/213
f 146/117/214 9/191/215 121/116/216
f 9/191/217 143/101/217 121/116/217
f 143/101/218 22/81/218 140/97/218
f 140/97/219 21/82/219 137/95/219
f 137/95/220 8/192/221 113/104/222
f 8/192/223 170/161/224 113/104/225
f 32/193/226 167/162/227 170/161/228
f 167/156/229 30/194/230 164/154/231
f 164/154/232 17/195/233 133/153/234
f 17/195/235 161/142/236 133/153/237
f 23/196/238 47/55/238 22/81/238
f 85/42/239 65/44/239 5/59/239
f 63/38/240 1/197/240 7/198/240
f 97/48/241 20/75/241 19/199/241
f 21/82/242 42/200/242 8/192/242
f 48/57/243 1/201/243 42/200/243
f 42/200/244 32/193/244 8/192/244
f 1/201/245 55/202/246 42/200/247
f 55/202/248 31/203/248 32/193/248
f 57/204/249 31/205/249 56/206/249
f 45/207/250 30/194/250 57/204/250
f 45/207/251 29/187/251 17/195/251
f 28/188/252 52/208/252 53/209/252
f 27/94/253 53/209/253 54/90/253
f 52/208/254 3/210/254 58/211/254
f 53/209/255 14/212/255 87/213/255
f 54/90/256 15/214/256 81/215/256
f 57/204/257 20/216/258 75/217/258
f 20/216/259 56/206/260 19/218/261
f 56/219/262 18/220/263 19/221/264
f 43/222/265 24/190/265 51/50/265
f 23/196/266 43/222/267 46/53/268
f 43/223/269 2/61/269 68/58/269
f 2/61/270 43/223/270 51/224/270
f 50/225/271 11/68/272 101/69/273
f 49/73/274 10/71/274 93/66/274
f 83/1/275 37/87/275 103/2/275
f 84/4/276 38/76/60 95/5/62
f 108/7/277 89/85/277 40/8/277
f 90/10/278 41/47/278 96/11/278
f 70/13/279 33/93/279 66/14/279
f 71/16/280 34/80/280 102/17/280
f 98/19/281 72/67/281 35/20/281
f 69/22/282 16/79/282 76/23/282
f 81/25/283 15/84/283 77/26/283
f 87/28/284 14/49/284 78/29/284
f 58/31/285 3/226/285 75/32/285
f 18/36/286 61/45/286 105/34/286
f 105/34/287 60/46/287 19/35/287
f 67/37/288 61/45/288 18/36/288
f 91/39/289 88/83/289 39/40/289
f 85/42/290 82/78/290 36/43/290
f 64/41/291 39/40/291 61/45/291
f 104/9/292 40/8/292 60/46/292
f 41/47/293 59/72/293 97/48/293
f 14/49/294 58/31/294 79/33/294
f 51/50/20 24/190/295 25/51/21
f 46/53/296 5/227/296 6/54/296
f 47/55/297 6/54/297 7/56/297
f 68/58/298 73/15/298 66/14/298
f 62/60/299 73/15/299 68/58/299
f 25/51/27 26/63/300 49/62/28
f 26/63/30 13/189/207 44/64/31
f 74/65/301 4/74/301 69/22/301
f 93/66/34 10/71/302 72/67/35
f 11/68/37 71/16/66 106/18/38
f 12/70/303 70/13/303 73/15/303
f 10/71/304 74/65/304 80/24/304
f 78/29/305 79/33/305 59/72/305
f 74/65/306 10/71/306 49/73/306
f 49/73/307 44/228/307 4/74/307
f 79/33/308 75/32/308 20/75/308
f 92/30/309 78/29/309 41/47/309
f 86/27/310 77/26/310 38/76/310
f 72/67/311 80/24/311 76/23/311
f 76/23/312 86/27/312 84/4/312
f 7/198/313 6/77/313 64/41/313
f 6/77/49 65/44/49 91/39/49
f 66/14/314 33/93/314 82/78/314
f 16/79/315 81/25/315 86/27/315
f 94/21/316 35/20/316 84/4/316
f 34/80/317 83/1/317 107/3/317
f 77/26/318 92/30/318 90/10/318
f 22/81/55 47/55/319 48/57/56
f 65/44/320 36/43/320 88/83/320
f 15/84/321 87/28/321 92/30/321
f 38/76/322 90/10/322 100/12/322
f 103/2/323 37/87/323 89/85/323
f 95/5/324 100/12/324 89/86/324
f 34/80/325 94/21/325 99/6/325
f 11/68/37 93/66/34 98/19/36
f 96/11/326 97/48/326 60/88/326
f 69/22/327 4/74/327 44/228/327
f 44/64/328 54/90/328 69/92/328
f 71/16/329 98/19/329 94/21/329
f 100/12/330 96/11/330 40/89/330
f 83/1/331 99/6/331 95/5/331
f 36/43/81 103/2/80 108/7/332
f 102/17/333 107/3/333 82/78/333
f 101/69/334 106/18/334 70/13/334
f 39/40/335 104/9/335 105/34/335
f 44/64/336 13/189/336 27/94/336
f 106/18/337 102/17/337 33/93/337
f 88/83/338 108/7/338 104/9/338
f 82/78/339 107/3/339 103/2/339
f 137/95/82 138/105/340 141/96/83
f 139/98/85 142/110/341 141/99/86
f 141/96/88 144/115/342 143/101/89
f 141/99/91 142/110/343 145/102/92
f 113/104/344 114/229/344 138/105/344
f 115/106/95 139/98/345 138/100/95
f 109/108/346 116/109/346 139/98/346
f 116/109/98 117/230/347 142/110/98
f 142/110/100 117/230/348 118/111/100
f 145/102/349 118/111/349 110/112/349
f 144/103/103 145/102/350 119/113/103
f 144/115/351 120/231/351 121/116/351
f 146/117/106 147/121/352 150/118/107
f 148/120/109 151/128/353 150/118/110
f 150/118/112 153/124/354 152/122/113
f 150/118/115 151/128/355 154/123/116
f 121/116/356 120/231/356 147/121/356
f 119/113/119 148/126/357 147/125/119
f 110/112/358 122/127/358 148/126/358
f 122/127/122 123/182/359 151/128/122
f 151/128/124 123/182/360 124/129/124
f 154/130/361 124/129/361 112/131/361
f 153/133/127 154/130/362 125/132/127
f 153/124/363 126/232/363 127/135/363
f 155/136/130 156/145/364 159/137/131
f 157/139/133 160/147/365 159/140/134
f 159/137/136 162/152/366 161/142/137
f 159/140/139 160/147/367 163/143/140
f 127/135/368 126/232/368 156/145/368
f 125/132/143 157/139/369 156/141/143
f 112/131/370 128/146/370 157/139/370
f 128/146/146 129/186/371 160/147/146
f 160/147/148 129/186/372 130/148/148
f 163/143/373 130/148/373 111/149/373
f 162/144/151 163/143/374 131/150/151
f 162/152/375 132/233/375 133/153/375
f 164/154/154 165/165/376 168/155/155
f 166/157/157 169/169/377 168/158/157
f 168/160/159 171/173/378 170/161/160
f 168/158/162 169/169/379 172/163/162
f 133/153/380 132/233/380 165/165/380
f 131/150/165 166/167/381 165/166/166
f 111/149/382 134/234/382 166/167/382
f 134/168/169 135/185/383 169/169/170
f 169/169/172 135/185/384 136/170/173
f 172/171/385 136/184/385 109/108/385
f 171/172/176 172/171/386 115/106/177
f 171/173/387 114/229/387 113/104/387
f 173/174/180 174/178/388 177/175/180
f 175/177/182 178/183/389 177/175/182
f 177/175/184 180/181/390 179/179/184
f 177/175/186 178/183/391 181/180/186
f 112/131/392 124/129/392 173/174/392
f 124/129/189 123/182/189 174/178/189
f 122/127/191 175/177/393 174/178/191
f 110/112/394 118/111/394 175/177/394
f 118/111/193 117/230/193 178/183/193
f 178/183/195 117/230/195 116/109/195
f 181/180/395 116/109/395 109/108/395
f 180/181/198 181/180/396 136/170/198
f 180/181/199 135/185/199 134/168/199
f 179/179/397 134/234/397 111/149/397
f 176/176/202 179/179/398 130/148/202
f 128/146/203 173/174/399 176/176/203
f 29/187/400 28/188/400 158/138/400
f 28/188/401 27/94/402 155/136/403
f 155/136/404 27/94/404 13/189/404
f 13/189/207 26/63/30 152/122/208
f 26/63/210 25/51/405 149/119/210
f 149/119/212 25/51/406 24/190/212
f 146/117/214 24/190/407 9/191/215
f 9/191/408 23/196/409 143/101/410
f 143/101/411 23/196/411 22/81/411
f 140/97/412 22/81/412 21/82/412
f 137/95/220 21/82/413 8/192/221
f 8/192/223 32/193/414 170/161/224
f 32/193/226 31/203/415 167/162/227
f 167/156/229 31/205/416 30/194/230
f 164/154/232 30/194/417 17/195/233
f 17/195/235 29/187/418 161/142/236
f 23/196/419 46/53/419 47/55/419
f 6/77/420 5/59/420 65/44/420
f 5/59/421 66/14/421 85/42/421
f 64/41/422 67/37/422 7/198/422
f 67/37/423 63/38/423 7/198/423
f 19/199/424 60/88/424 97/48/424
f 97/48/425 59/72/425 20/75/425
f 21/82/426 48/57/426 42/200/426
f 48/57/427 7/56/427 1/201/427
f 42/200/428 55/202/428 32/193/428
f 1/201/245 18/220/429 55/202/246
f 55/202/430 56/219/430 31/203/430
f 57/204/431 30/194/431 31/205/431
f 45/207/432 17/195/432 30/194/432
f 45/207/433 52/208/433 29/187/433
f 28/188/434 29/187/434 52/208/434
f 27/94/402 28/188/401 53/209/435
f 58/211/254 14/212/254 52/208/254
f 52/208/436 45/207/436 3/210/436
f 87/213/255 15/214/255 53/209/255
f 53/209/437 52/208/437 14/212/437
f 81/215/256 16/91/256 54/90/256
f 54/90/438 53/209/438 15/214/438
f 75/217/258 3/210/439 57/204/257
f 3/210/439 45/207/440 57/204/257
f 20/216/259 57/204/441 56/206/260
f 56/219/262 55/202/442 18/220/263
f 43/222/443 9/191/443 24/190/443
f 23/196/409 9/191/408 43/222/444
f 68/235/445 5/227/445 46/53/445
f 46/53/268 43/222/267 68/235/446
f 12/70/447 62/60/447 51/224/447
f 62/60/448 2/61/448 51/224/448
f 101/69/449 12/70/449 51/224/449
f 51/224/450 50/225/271 101/69/273
f 93/66/451 11/68/452 50/225/453
f 50/225/453 49/73/454 93/66/451
