# Blender 4.4.1
# www.blender.org
mtllib boxEnemy.mtl
o boxEnemy
v -0.158529 0.306668 0.255503
v -0.158529 0.490889 0.255503
v -0.245687 0.082098 -0.250555
v -0.245687 0.588156 -0.250555
v 0.173213 0.306668 0.255503
v 0.173213 0.490889 0.255503
v 0.260371 0.082098 -0.250555
v 0.260371 0.588156 -0.250555
v -0.177203 -0.282547 0.016284
v -0.177203 -0.055704 -0.256013
v 0.177203 -0.282547 0.016284
v 0.177203 -0.055704 -0.256013
v -0.203051 -0.121692 -0.217186
v -0.216035 -0.198961 -0.144719
v -0.203051 -0.256278 -0.055632
v -0.203051 0.004596 0.201673
v -0.203051 0.052795 -0.201558
v 0.105135 -0.047380 -0.317337
v 0.000000 -0.049045 -0.335623
v -0.105134 -0.046766 -0.303421
v 0.203051 0.052795 -0.201558
v 0.203051 -0.256278 -0.055632
v 0.216035 -0.198961 -0.144719
v 0.203051 -0.121692 -0.217186
v 0.203051 0.004596 0.201673
v -0.105135 -0.318951 0.019599
v 0.000000 -0.337237 0.021265
v 0.105135 -0.318951 0.019599
v -0.258358 0.008532 0.110493
v -0.265442 0.015855 -0.001477
v -0.258358 0.035130 -0.112019
v -0.112048 0.052495 -0.257295
v 0.000000 0.048741 -0.276603
v 0.112048 0.052495 -0.257295
v 0.258358 0.035130 -0.112019
v 0.265442 0.015855 -0.001477
v 0.258358 0.008532 0.110493
v 0.112048 -0.008833 0.230504
v 0.000000 -0.017032 0.242155
v -0.112048 -0.008833 0.230504
v -0.104707 -0.062398 -0.431119
v 0.000000 -0.060245 -0.450671
v 0.104708 -0.062398 -0.431119
v -0.118067 -0.175928 -0.427059
v -0.094728 0.006495 -0.496529
v 0.118067 -0.175928 -0.427059
v -0.112048 -0.281967 -0.386304
v 0.000000 -0.291609 -0.403448
v 0.112048 -0.281967 -0.386304
v -0.190127 -0.157304 0.143072
v -0.190127 -0.011930 -0.208296
v 0.190127 -0.009267 -0.202482
v 0.190127 -0.157304 0.143072
v -0.237236 -0.058238 -0.139217
v -0.253091 -0.108533 -0.042507
v -0.230704 -0.141268 0.061468
v 0.108591 -0.011553 -0.252054
v 0.000000 -0.014271 -0.270337
v -0.108591 -0.011553 -0.252054
v 0.230704 -0.141268 0.061468
v 0.251748 -0.108533 -0.042507
v 0.235893 -0.058238 -0.139216
v -0.108591 -0.187953 0.174304
v 0.000000 -0.202794 0.185323
v 0.108591 -0.187953 0.174305
v 0.190127 -0.269413 -0.019674
v 0.108591 -0.331785 -0.167736
v 0.000000 -0.349032 -0.174385
v -0.108591 -0.331785 -0.167736
v -0.141169 -0.057362 -0.274215
v -0.141169 -0.300749 0.017942
v -0.157549 -0.293198 -0.197869
v -0.167051 -0.217370 -0.277201
v -0.151263 -0.122025 -0.331540
v -0.149359 -0.321350 -0.182099
v -0.190127 -0.088699 -0.236599
v 0.190127 -0.088699 -0.236599
v -0.108591 -0.083438 -0.361672
v 0.000000 -0.062445 -0.380017
v 0.108591 -0.060175 -0.361672
v -0.149359 -0.077406 -0.340641
v 0.141169 -0.045109 -0.285219
v 0.141169 -0.300749 0.017942
v 0.151263 -0.122025 -0.331540
v 0.167051 -0.217370 -0.277201
v 0.157549 -0.293198 -0.197869
v 0.149359 -0.312842 -0.156786
v 0.149359 -0.077406 -0.340641
v 0.209543 -0.160327 -0.180952
v -0.115057 -0.119163 -0.429089
v -0.000186 -0.038615 -0.512954
v 0.115058 -0.119163 -0.429089
v -0.162300 -0.169697 -0.354416
v 0.162300 -0.169697 -0.304370
v 0.209543 -0.227620 -0.100175
v -0.115057 -0.228947 -0.406682
v 0.000264 -0.105185 -0.545280
v 0.115058 -0.228947 -0.406682
v -0.162300 -0.255284 -0.237535
v 0.162300 -0.255284 -0.237535
v 0.052567 -0.048212 -0.326480
v 0.056024 -0.061321 -0.440895
v 0.059072 -0.048189 -0.529065
v 0.056024 -0.286788 -0.394876
v 0.054296 -0.340408 -0.171061
v 0.054296 -0.061310 -0.370845
v 0.057350 -0.042530 -0.503897
v 0.057788 -0.106205 -0.535399
v -0.052567 -0.048212 -0.326480
v -0.056024 -0.061321 -0.440895
v -0.058994 -0.048627 -0.529170
v -0.056024 -0.286788 -0.394876
v -0.054296 -0.340408 -0.171061
v -0.054296 -0.061310 -0.370845
v -0.057707 -0.042956 -0.504000
v -0.057268 -0.106632 -0.535502
v -0.245687 0.082098 0.255503
v -0.245687 0.588156 0.255503
v 0.260371 0.588156 0.255503
v 0.260371 0.082098 0.255503
v -0.094728 0.166741 -0.596499
v -0.094728 -0.093475 -0.656775
v -0.094728 0.066772 -0.756745
v 0.094144 0.006495 -0.496529
v 0.094144 0.166741 -0.596499
v 0.094144 -0.093475 -0.656775
v 0.094144 0.066772 -0.756745
vn -1.0000 -0.0000 -0.0000
vn -0.0000 -0.0000 -1.0000
vn 1.0000 -0.0000 -0.0000
vn -0.0000 -0.0000 1.0000
vn -0.0000 1.0000 -0.0000
vn -0.1065 0.9712 -0.2134
vn 0.8279 0.5566 -0.0685
vn -0.1710 -0.6070 -0.7761
vn 0.4081 -0.5632 -0.7186
vn -0.4710 -0.1570 -0.8680
vn 0.0208 0.9998 -0.0007
vn 0.0220 0.9998 0.0004
vn 0.9292 -0.0354 -0.3679
vn 0.9313 -0.1058 -0.3485
vn 0.9017 -0.3613 -0.2374
vn 0.9008 -0.3627 -0.2388
vn 0.9015 -0.3616 -0.2377
vn 0.5818 -0.8090 0.0833
vn -0.1720 -0.9830 0.0648
vn -0.4522 -0.8852 0.1097
vn -0.9006 -0.3630 -0.2391
vn -0.7255 -0.5648 -0.3933
vn 0.1983 -0.4345 -0.8786
vn -0.1663 -0.9592 -0.2285
vn 0.1184 -0.9659 -0.2305
vn 0.8126 -0.5720 -0.1115
vn -0.1683 -0.0965 -0.9810
vn -0.1715 -0.0908 -0.9810
vn -0.1676 -0.0976 -0.9810
vn -0.9639 -0.1363 -0.2289
vn -0.9397 -0.3271 0.0994
vn -0.9050 0.1132 -0.4102
vn -0.4386 -0.3219 -0.8390
vn 0.1715 -0.0908 -0.9810
vn 0.1684 -0.0964 -0.9810
vn 0.1676 -0.0976 -0.9810
vn 0.5194 -0.0968 -0.8490
vn 0.5192 -0.0972 -0.8491
vn 0.5190 -0.0975 -0.8492
vn 0.7661 0.5980 -0.2353
vn 0.0287 0.9593 -0.2808
vn 0.0329 0.9605 -0.2764
vn 0.0328 0.9585 -0.2832
vn -0.0000 0.9564 -0.2921
vn -0.0342 0.9584 -0.2833
vn -0.0338 0.9589 -0.2818
vn -0.4298 0.8777 -0.2119
vn 0.4707 0.8568 -0.2106
vn 0.5386 -0.8233 -0.1791
vn 0.4987 0.8041 -0.3236
vn 0.4048 -0.9117 0.0699
vn 0.9431 -0.1646 -0.2890
vn 0.9395 0.0376 -0.3406
vn 0.8358 0.5453 -0.0642
vn 0.9274 0.1569 -0.3396
vn -0.8789 -0.3930 -0.2704
vn -0.8797 0.3553 -0.3161
vn 0.9107 -0.0242 -0.4124
vn 0.6578 0.7179 0.2280
vn 0.0302 0.9599 0.2786
vn 0.9173 -0.1872 -0.3516
vn -0.9795 -0.1816 0.0873
vn -0.9785 -0.1691 0.1182
vn -0.9792 -0.1968 0.0491
vn -0.8524 -0.4252 -0.3043
vn 0.8789 -0.3930 -0.2704
vn 0.8818 0.0312 -0.4707
vn 0.8820 0.0318 -0.4702
vn 0.8813 0.0304 -0.4716
vn -0.1692 0.1020 -0.9803
vn 0.0126 0.9446 0.3280
vn -0.0000 0.9573 -0.2890
vn 0.1198 -0.9630 -0.2414
vn 0.8909 0.0867 -0.4458
vn 0.0138 0.9994 0.0311
vn 0.1250 -0.6009 -0.7895
vn -0.0000 0.5293 0.8484
vn -0.7546 -0.2723 -0.5971
vn -0.1969 0.0008 -0.9804
vn -0.2022 0.8342 -0.5131
vn -0.1661 -0.9620 -0.2166
vn 0.8028 -0.0196 -0.5959
vn -0.3271 0.9093 0.2572
vn -0.1713 -0.3619 -0.9163
vn -0.8809 0.0298 -0.4724
vn -0.8805 0.0290 -0.4731
vn -0.8793 0.0265 -0.4756
vn -0.9944 -0.0735 -0.0765
vn -0.9517 -0.2316 -0.2016
vn -0.4386 -0.8834 -0.1650
vn 0.1720 -0.9830 0.0648
vn -0.8335 -0.2457 0.4949
vn -0.8409 -0.4254 0.3345
vn -0.3294 -0.3445 0.8791
vn -0.4723 -0.6507 0.5946
vn -0.1203 -0.2993 0.9465
vn 0.1357 -0.2898 0.9474
vn 0.4328 -0.2775 0.8577
vn 0.8335 -0.2457 0.4949
vn 0.9765 -0.1564 0.1484
vn 0.9574 -0.1603 -0.2403
vn 0.9000 -0.3978 0.1782
vn 0.9496 -0.3077 -0.0596
vn 0.9463 -0.1218 -0.2994
vn 0.9463 -0.1218 -0.2995
vn 0.3851 -0.7085 0.5913
vn 0.1431 -0.7655 0.6273
vn -0.1431 -0.7655 0.6273
vn -0.4703 -0.0972 -0.8771
vn -0.8201 -0.0189 -0.5719
vn -0.9166 0.1383 -0.3751
vn -0.3682 0.6333 -0.6807
vn -0.0667 0.8803 -0.4696
vn -0.0676 0.8806 -0.4690
vn -0.0670 0.8805 -0.4692
vn 0.0702 0.8729 -0.4828
vn 0.8810 0.0298 -0.4722
vn -0.1192 -0.6011 -0.7903
vn 0.1713 -0.3619 -0.9163
vn -0.5708 0.7941 0.2087
vn -0.0138 0.9994 0.0311
vn -0.0156 0.9994 -0.0311
vn 0.9050 0.1132 -0.4102
vn 0.9342 -0.1477 -0.3249
vn 0.8769 -0.4522 -0.1631
vn 0.4386 -0.8834 -0.1650
vn -0.1523 -0.9858 0.0703
vn -0.1530 -0.9864 0.0595
vn -0.2707 -0.9601 0.0708
vn -0.9431 -0.1646 -0.2890
vn -0.8528 0.0266 -0.5216
vn -0.5386 -0.8233 -0.1791
vn -0.1198 -0.9630 -0.2414
vn 0.1661 -0.9620 -0.2166
vn 0.7203 -0.6936 0.0055
vn -0.1720 -0.0896 -0.9810
vn -0.9426 -0.1300 -0.3075
vn -0.9469 -0.3150 -0.0646
vn -0.9292 -0.0354 -0.3679
vn -0.6153 0.7725 -0.1572
vn 0.1720 -0.0896 -0.9810
vn 0.5213 -0.0851 -0.8491
vn 0.5673 -0.2411 -0.7874
vn 0.0326 0.9610 -0.2748
vn -0.1443 0.8412 -0.5210
vn 0.3365 0.8344 -0.4365
vn 0.4674 -0.8302 -0.3038
vn 0.3618 0.8090 -0.4632
vn 0.3810 0.6509 -0.6566
vn 0.4524 -0.8880 0.0827
vn 0.9006 -0.3630 -0.2391
vn 0.9379 -0.0964 -0.3332
vn 0.3952 -0.1674 -0.9032
vn 0.9375 0.0191 -0.3474
vn -0.8769 -0.4522 -0.1631
vn -0.9274 0.1569 -0.3396
vn 0.9252 -0.1649 -0.3416
vn 0.1969 0.0008 -0.9804
vn -0.0202 0.9444 0.3281
vn 0.8524 -0.4252 -0.3043
vn -0.9752 -0.1505 0.1626
vn -0.9172 -0.1872 -0.3516
vn 0.8489 -0.4921 -0.1929
vn 0.7560 -0.2718 -0.5955
vn -0.0000 -0.5293 -0.8484
vn 0.1702 0.1032 -0.9800
vn -0.0313 0.9580 0.2851
vn 0.1663 -0.9592 -0.2285
vn 0.9224 0.1524 -0.3549
vn 0.8609 0.2008 -0.4674
vn -0.0208 0.9998 -0.0007
vn 0.1710 -0.6061 -0.7768
vn 0.0995 0.9722 -0.2118
vn -0.8789 0.0258 -0.4763
vn -0.6582 0.7180 0.2265
vn -0.4011 0.8827 -0.2450
vn -0.1184 -0.9659 -0.2305
vn 0.8246 -0.1636 -0.5416
vn -0.0220 0.9998 0.0004
vn -0.4084 -0.5634 -0.7182
vn -0.8329 0.5474 -0.0808
vn -0.9606 -0.1489 -0.2349
vn -0.9342 -0.1477 -0.3249
vn -0.8427 0.3787 -0.3827
vn -0.9076 -0.3725 -0.1936
vn -0.6588 -0.7451 0.1037
vn 0.1530 -0.9864 0.0595
vn 0.1523 -0.9858 0.0703
vn -0.8791 -0.2869 0.3807
vn -0.9000 -0.3978 0.1782
vn -0.4328 -0.2775 0.8577
vn -0.3851 -0.7085 0.5913
vn -0.1357 -0.2898 0.9474
vn 0.1203 -0.2993 0.9465
vn 0.3294 -0.3445 0.8791
vn 0.8791 -0.2869 0.3807
vn 0.9792 -0.1968 0.0491
vn 0.9933 -0.0850 -0.0786
vn 0.9924 -0.0934 -0.0798
vn 0.9934 -0.0836 -0.0782
vn 0.8409 -0.4254 0.3345
vn 0.9434 -0.3190 0.0905
vn 0.9660 -0.1275 -0.2247
vn 0.4723 -0.6507 0.5946
vn 0.1675 -0.7542 0.6349
vn -0.1675 -0.7542 0.6349
vn -0.5223 -0.0155 -0.8526
vn -0.8358 -0.1098 -0.5379
vn -0.8365 -0.1062 -0.5376
vn -0.8356 -0.1108 -0.5380
vn -0.8872 0.0802 -0.4543
vn -0.8640 0.1742 -0.4724
vn -0.5845 0.6504 -0.4852
vn -0.3406 0.5946 -0.7284
vn -0.2243 0.7967 -0.5612
vn -0.0582 0.8775 -0.4760
vn 0.0670 0.8805 -0.4692
vn 0.0676 0.8806 -0.4690
vn 0.0666 0.8803 -0.4697
vn 0.0582 0.8775 -0.4760
vn 0.3098 -0.6862 0.6581
vn -0.9969 0.0420 0.0658
vn -0.0000 0.6155 -0.7882
vn -0.0040 0.6134 -0.7898
vn 0.9991 -0.0428 -0.0000
vn 0.9991 -0.0432 0.0012
vn -0.0000 -0.9945 -0.1045
vn -0.0000 0.8484 -0.5293
vn 0.5983 -0.6892 0.4087
vn 0.4715 -0.6698 0.5737
vn 0.5744 -0.7090 0.4091
vn -0.4683 -0.6712 0.5746
vn -0.5941 -0.6922 0.4097
vn -0.5690 -0.7129 0.4099
vn -0.3158 -0.5850 0.7470
vn -0.0000 -0.4369 0.8995
vn -0.0000 -0.1334 0.9911
vn -0.3147 -0.6522 0.6897
vn -0.1244 -0.4288 0.8948
vn 0.1248 -0.4471 0.8857
vn -0.9655 0.2605 -0.0000
vn -0.9657 0.2597 0.0007
vn -0.2454 -0.9110 -0.3313
vn -0.2421 -0.9107 -0.3347
vn -0.2464 -0.9108 -0.3313
vn -0.9510 0.3092 -0.0071
vn -0.9507 0.3101 -0.0069
vn -0.6727 -0.6345 0.3807
vn 0.1996 -0.9260 -0.3204
vn 0.2076 -0.9270 -0.3123
vn 0.1994 -0.9260 -0.3206
vn 0.1554 -0.5997 -0.7850
vn 0.1563 -0.5959 -0.7877
vn -0.1615 -0.5408 -0.8255
vn -0.1607 -0.5369 -0.8282
vn -0.2193 -0.9095 -0.3531
vn 0.6224 -0.7015 0.3472
vn 0.9896 -0.1333 0.0539
vn 0.9813 0.1903 -0.0297
vn 0.9815 0.1895 -0.0290
vn 0.2087 -0.9268 -0.3121
vn 0.3159 -0.5844 0.7474
vt 0.497937 0.748293
vt 0.744167 0.502063
vt 0.744167 0.748293
vt 0.497937 0.502063
vt 0.251708 0.255833
vt 0.497937 0.255833
vt 0.251708 0.502063
vt 0.005478 0.748293
vt 0.005478 0.502063
vt 0.294115 0.795619
vt 0.455530 0.885254
vt 0.294115 0.885254
vt 0.251708 0.748293
vt 0.374882 0.187823
vt 0.376555 0.187062
vt 0.376928 0.187785
vt 0.366317 0.185411
vt 0.373164 0.187139
vt 0.372831 0.187885
vt 0.376581 0.185272
vt 0.374604 0.172118
vt 0.378914 0.172007
vt 0.365484 0.176844
vt 0.370298 0.172162
vt 0.373073 0.185332
vt 0.389801 0.191747
vt 0.396199 0.185129
vt 0.396509 0.191120
vt 0.375164 0.197948
vt 0.379293 0.190307
vt 0.382416 0.197304
vt 0.367999 0.197706
vt 0.366772 0.189843
vt 0.370499 0.190529
vt 0.333153 0.183035
vt 0.354051 0.183834
vt 0.354122 0.190582
vt 0.333596 0.164451
vt 0.352248 0.169625
vt 0.352007 0.176698
vt 0.337735 0.146016
vt 0.354065 0.156037
vt 0.352508 0.162839
vt 0.343313 0.131689
vt 0.352522 0.125652
vt 0.355151 0.149913
vt 0.380584 0.149466
vt 0.373914 0.125649
vt 0.389067 0.125741
vt 0.392523 0.151291
vt 0.395181 0.126126
vt 0.396025 0.162156
vt 0.383070 0.171911
vt 0.394519 0.155252
vt 0.391725 0.178791
vt 0.383700 0.180787
vt 0.396462 0.168988
vt 0.387447 0.149906
vt 0.374240 0.149604
vt 0.366137 0.172221
vt 0.367890 0.149625
vt 0.340865 0.137720
vt 0.408818 0.216418
vt 0.375432 0.239419
vt 0.375417 0.221518
vt 0.442767 0.168714
vt 0.412693 0.154856
vt 0.437076 0.138900
vt 0.406844 0.138182
vt 0.427626 0.114477
vt 0.417373 0.183742
vt 0.417109 0.175234
vt 0.407508 0.197806
vt 0.416647 0.193778
vt 0.341833 0.216291
vt 0.334056 0.239206
vt 0.312210 0.200376
vt 0.344984 0.198925
vt 0.365398 0.204851
vt 0.360596 0.193841
vt 0.375306 0.205004
vt 0.385349 0.204554
vt 0.397133 0.202379
vt 0.355663 0.200545
vt 0.360985 0.150279
vt 0.335202 0.192765
vt 0.358596 0.125417
vt 0.365871 0.181100
vt 0.383316 0.185119
vt 0.333172 0.174674
vt 0.374950 0.191288
vt 0.471120 0.127941
vt 0.466142 0.090021
vt 0.383907 0.176513
vt 0.335451 0.154878
vt 0.374831 0.185332
vt 0.846998 0.198298
vt 0.834348 0.227007
vt 0.836640 0.193419
vt 0.307438 0.169889
vt 0.847419 0.198835
vt 0.877240 0.205324
vt 0.382746 0.189534
vt 0.269633 0.173963
vt 0.478808 0.170555
vt 0.401331 0.126401
vt 0.415990 0.096886
vt 0.449758 0.053572
vt 0.414553 0.042269
vt 0.396346 0.091814
vt 0.373524 0.037259
vt 0.350823 0.092331
vt 0.373629 0.090740
vt 0.331382 0.097542
vt 0.332880 0.042867
vt 0.280426 0.090571
vt 0.297979 0.054105
vt 0.276094 0.129850
vt 0.320131 0.115461
vt 0.311540 0.140150
vt 0.346175 0.125858
vt 0.437464 0.199987
vt 0.417232 0.239053
vt 0.847598 0.197905
vt 0.850410 0.187428
vt 0.290433 0.219182
vt 0.462496 0.217861
vt 0.246580 0.009509
vt 0.498735 0.005478
vt 0.497937 0.994522
vt 0.251708 0.994522
vt 0.455530 0.795619
vt 0.755123 0.005478
vt 0.755123 0.266943
vt 0.958824 0.166802
vt 0.892801 0.290052
vt 0.847902 0.198467
s 1
usemtl マテリアル.008
f 118/1/1 3/2/1 117/3/1
f 4/4/2 7/5/2 3/6/2
f 8/7/3 120/8/3 7/9/3
f 6/10/4 1/11/4 5/12/4
f 4/4/5 119/13/5 8/7/5
f 91/14/6 111/15/6 115/16/6
f 92/17/7 103/18/7 107/19/7
f 116/20/8 48/21/8 112/22/8
f 98/23/9 104/24/9 108/25/9
f 78/26/10 74/27/10 81/28/10
f 79/29/11 110/30/11 114/31/11
f 106/32/12 43/33/12 102/34/12
f 77/35/13 84/36/13 88/37/13
f 89/38/14 85/39/14 94/40/14
f 95/41/15 86/42/16 100/43/17
f 66/44/18 83/45/18 87/46/18
f 113/47/19 27/48/19 26/49/19
f 75/50/20 26/49/20 71/51/20
f 99/52/21 47/53/21 72/54/21
f 93/55/22 44/56/22 73/57/22
f 72/54/23 69/58/23 75/50/23
f 112/22/24 68/59/24 113/47/24
f 49/60/25 105/61/25 104/24/25
f 22/62/26 87/46/26 86/42/26
f 59/63/27 33/64/28 58/65/29
f 54/66/30 14/67/30 55/68/30
f 55/68/31 15/69/31 56/70/31
f 76/71/32 74/27/32 13/72/32
f 70/73/33 76/71/33 10/74/33
f 33/64/34 57/75/35 58/65/36
f 34/76/37 52/77/38 57/75/39
f 82/78/40 77/35/40 88/37/40
f 101/79/41 80/80/42 106/32/43
f 19/81/44 114/31/45 109/82/46
f 20/83/47 81/28/47 70/73/47
f 18/84/48 88/37/48 80/80/48
f 86/42/49 67/85/49 49/60/49
f 57/75/50 12/86/50 82/78/50
f 87/46/51 28/87/51 67/85/51
f 100/43/52 49/60/52 98/23/52
f 94/40/53 46/88/53 92/17/53
f 80/80/54 84/36/54 43/33/54
f 84/36/55 92/17/55 43/33/55
f 99/52/56 72/54/56 14/67/56
f 74/27/57 90/89/57 93/55/57
f 24/90/58 94/40/58 84/36/58
f 102/34/59 92/17/59 107/19/59
f 42/91/60 115/16/60 110/30/60
f 85/39/61 98/23/61 46/88/61
f 30/92/62 56/70/63 29/93/64
f 73/57/65 96/94/65 99/52/65
f 23/95/66 100/43/66 85/39/66
f 46/88/67 108/25/68 103/18/69
f 111/15/70 97/96/70 116/20/70
f 127/97/3 124/98/3 126/99/3
f 42/91/71 107/19/71 91/14/71
f 19/81/44 106/32/43 79/29/72
f 104/24/73 68/59/73 48/21/73
f 62/100/74 24/90/74 77/35/74
f 79/29/75 102/34/75 42/91/75
f 108/25/76 48/21/76 97/96/76
f 125/101/77 45/102/77 124/98/77
f 44/56/78 116/20/78 96/94/78
f 110/30/79 90/89/79 41/103/79
f 109/82/80 78/26/80 20/83/80
f 47/53/81 113/47/81 69/58/81
f 52/77/82 35/104/82 62/100/82
f 114/31/83 41/103/83 78/26/83
f 96/94/84 112/22/84 47/53/84
f 90/89/85 111/15/86 44/56/87
f 31/105/88 55/68/88 30/92/88
f 93/55/89 73/57/89 13/72/89
f 71/51/90 9/106/90 15/69/90
f 105/61/91 28/87/91 27/48/91
f 29/93/92 50/107/92 16/108/92
f 56/70/93 9/106/93 50/107/93
f 50/107/94 40/109/94 16/108/94
f 9/106/95 63/110/95 50/107/95
f 63/110/96 39/111/96 40/109/96
f 65/112/97 39/111/97 64/113/97
f 53/114/98 38/115/98 65/112/98
f 53/114/99 37/116/99 25/117/99
f 36/118/100 60/119/100 61/120/100
f 35/104/101 61/120/101 62/100/101
f 60/119/102 11/121/102 66/44/102
f 61/120/103 22/62/103 95/41/103
f 62/100/104 23/95/105 89/38/105
f 65/112/106 28/87/106 83/45/106
f 28/87/107 64/113/107 27/48/107
f 64/113/108 26/49/108 27/48/108
f 51/122/109 32/123/109 59/63/109
f 31/105/110 51/122/110 54/66/110
f 51/122/111 10/74/111 76/71/111
f 10/74/112 51/122/112 59/63/112
f 58/65/113 19/81/114 109/82/115
f 57/75/116 18/84/116 101/79/116
f 45/102/1 123/124/1 122/125/1
f 92/17/117 46/88/67 103/18/69
f 116/20/118 97/96/118 48/21/118
f 98/23/119 49/60/119 104/24/119
f 78/26/120 41/103/120 74/27/120
f 79/29/121 42/91/121 110/30/121
f 106/32/122 80/80/122 43/33/122
f 77/35/123 24/90/123 84/36/123
f 89/38/124 23/95/124 85/39/124
f 95/41/125 22/62/125 86/42/125
f 66/44/126 11/121/126 83/45/126
f 26/49/127 69/58/127 113/47/127
f 113/47/128 68/59/128 27/48/128
f 75/50/129 69/58/129 26/49/129
f 99/52/130 96/94/130 47/53/130
f 93/55/131 90/89/131 44/56/131
f 72/54/132 47/53/132 69/58/132
f 112/22/133 48/21/133 68/59/133
f 49/60/134 67/85/134 105/61/134
f 22/62/135 66/44/135 87/46/135
f 59/63/27 32/123/136 33/64/28
f 54/66/137 13/72/137 14/67/137
f 55/68/138 14/67/138 15/69/138
f 76/71/139 81/28/139 74/27/139
f 70/73/140 81/28/140 76/71/140
f 33/64/34 34/76/141 57/75/35
f 34/76/37 21/126/142 52/77/38
f 82/78/143 12/86/143 77/35/143
f 101/79/41 18/84/144 80/80/42
f 19/81/44 79/29/72 114/31/45
f 20/83/145 78/26/145 81/28/145
f 18/84/146 82/78/146 88/37/146
f 86/42/147 87/46/147 67/85/147
f 82/78/148 18/84/148 57/75/148
f 57/75/149 52/77/149 12/86/149
f 87/46/150 83/45/150 28/87/150
f 100/43/17 86/42/16 49/60/151
f 94/40/152 85/39/152 46/88/152
f 80/80/153 88/37/153 84/36/153
f 84/36/154 94/40/154 92/17/154
f 15/69/155 14/67/155 72/54/155
f 14/67/56 73/57/56 99/52/56
f 74/27/156 41/103/156 90/89/156
f 24/90/157 89/38/157 94/40/157
f 102/34/158 43/33/158 92/17/158
f 42/91/159 91/14/159 115/16/159
f 85/39/160 100/43/160 98/23/160
f 30/92/62 55/68/161 56/70/63
f 73/57/162 44/56/162 96/94/162
f 23/95/163 95/41/163 100/43/163
f 46/88/164 98/23/164 108/25/164
f 123/124/165 126/99/165 122/125/165
f 103/18/166 108/25/166 97/96/166
f 42/91/167 102/34/167 107/19/167
f 19/81/44 101/79/41 106/32/43
f 104/24/168 105/61/168 68/59/168
f 77/35/169 12/86/169 52/77/169
f 52/77/170 62/100/170 77/35/170
f 79/29/171 106/32/171 102/34/171
f 108/25/172 104/24/172 48/21/172
f 91/14/173 107/19/173 103/18/173
f 44/56/87 111/15/86 116/20/174
f 110/30/175 115/16/175 90/89/175
f 109/82/176 114/31/176 78/26/176
f 47/53/177 112/22/177 113/47/177
f 52/77/178 21/126/178 35/104/178
f 114/31/179 110/30/179 41/103/179
f 96/94/180 116/20/180 112/22/180
f 90/89/181 115/16/181 111/15/181
f 31/105/182 54/66/182 55/68/182
f 14/67/183 13/72/183 73/57/183
f 13/72/184 74/27/184 93/55/184
f 72/54/185 75/50/185 15/69/185
f 75/50/186 71/51/186 15/69/186
f 27/48/187 68/59/187 105/61/187
f 105/61/188 67/85/188 28/87/188
f 29/93/189 56/70/189 50/107/189
f 56/70/190 15/69/190 9/106/190
f 50/107/191 63/110/191 40/109/191
f 9/106/192 26/49/192 63/110/192
f 63/110/193 64/113/193 39/111/193
f 65/112/194 38/115/194 39/111/194
f 53/114/195 25/117/195 38/115/195
f 53/114/196 60/119/196 37/116/196
f 36/118/197 37/116/197 60/119/197
f 35/104/198 36/118/199 61/120/200
f 66/44/102 22/62/102 60/119/102
f 60/119/201 53/114/201 11/121/201
f 95/41/103 23/95/103 61/120/103
f 61/120/202 60/119/202 22/62/202
f 89/38/105 24/90/104 62/100/104
f 62/100/203 61/120/203 23/95/203
f 83/45/106 11/121/106 65/112/106
f 11/121/204 53/114/204 65/112/204
f 28/87/205 65/112/205 64/113/205
f 64/113/206 63/110/206 26/49/206
f 51/122/207 17/127/207 32/123/207
f 31/105/208 17/127/209 51/122/210
f 76/71/211 13/72/211 54/66/211
f 54/66/212 51/122/212 76/71/212
f 20/83/213 70/73/213 59/63/213
f 70/73/214 10/74/214 59/63/214
f 109/82/215 20/83/215 59/63/215
f 59/63/216 58/65/113 109/82/115
f 101/79/217 19/81/218 58/65/219
f 58/65/219 57/75/220 101/79/217
f 38/115/221 25/117/221 120/128/221
f 30/92/222 29/93/222 117/129/222
f 3/6/223 7/5/223 33/64/224
f 7/5/225 120/128/225 35/104/226
f 1/11/4 118/1/4 117/130/4
f 5/12/4 119/13/4 6/10/4
f 1/11/4 120/131/4 5/12/4
f 6/10/4 118/1/4 2/132/4
f 97/133/227 122/125/227 126/99/227
f 123/124/228 125/101/228 127/97/228
f 126/99/229 103/134/230 97/133/231
f 111/135/232 122/125/233 97/133/234
f 45/102/235 111/135/232 91/136/236
f 118/1/1 4/4/1 3/2/1
f 4/4/2 8/7/2 7/5/2
f 8/7/3 119/13/3 120/8/3
f 6/10/4 2/132/4 1/11/4
f 4/4/5 118/1/5 119/13/5
f 127/97/3 125/101/3 124/98/3
f 125/101/77 121/137/77 45/102/77
f 45/102/1 121/137/1 123/124/1
f 123/124/165 127/97/165 126/99/165
f 120/128/237 117/129/237 39/111/237
f 117/129/238 16/108/238 40/109/238
f 40/109/239 39/111/239 117/129/239
f 39/111/240 38/115/240 120/128/240
f 117/129/241 3/6/241 31/105/242
f 3/6/243 17/127/244 31/105/245
f 31/105/246 30/92/247 117/129/247
f 29/93/248 16/108/248 117/129/248
f 7/5/249 21/126/250 34/76/251
f 34/76/252 33/64/253 7/5/252
f 33/64/254 32/123/255 3/6/255
f 32/123/256 17/127/256 3/6/256
f 120/128/257 25/117/257 37/116/257
f 37/116/258 36/118/258 120/128/258
f 36/118/259 35/104/260 120/128/259
f 35/104/261 21/126/250 7/5/249
f 1/11/4 2/132/4 118/1/4
f 5/12/4 120/131/4 119/13/4
f 1/11/4 117/130/4 120/131/4
f 6/10/4 119/13/4 118/1/4
f 123/124/228 121/137/228 125/101/228
f 126/99/229 124/98/262 103/134/230
f 111/135/232 45/102/235 122/125/233
f 91/136/236 103/134/230 124/98/262
f 124/98/262 45/102/235 91/136/236
