# Blender 4.5.2 LTS
# www.blender.org
mtllib cicle.mtl
o 円
v 0.000000 -0.000000 -0.500000
v 0.191342 -0.000000 -0.461940
v 0.353553 -0.000000 -0.353553
v 0.461940 -0.000000 -0.191342
v 0.500000 -0.000000 0.000000
v 0.461940 -0.000000 0.191342
v 0.353553 -0.000000 0.353553
v 0.191342 -0.000000 0.461940
v 0.000000 -0.000000 0.500000
v -0.191342 0.000000 0.461940
v -0.353553 0.000000 0.353553
v -0.461940 0.000000 0.191342
v -0.500000 0.000000 0.000000
v -0.461940 0.000000 -0.191342
v -0.353553 0.000000 -0.353553
v -0.191342 0.000000 -0.461940
v 0.000000 -0.000000 -0.400000
v 0.153073 -0.000000 -0.369552
v 0.282843 -0.000000 -0.282843
v 0.369552 -0.000000 -0.153073
v 0.400000 -0.000000 0.000000
v 0.369552 -0.000000 0.153073
v 0.282843 -0.000000 0.282843
v 0.153073 -0.000000 0.369552
v 0.000000 -0.000000 0.400000
v -0.153073 0.000000 0.369552
v -0.282843 0.000000 0.282843
v -0.369552 0.000000 0.153073
v -0.400000 0.000000 0.000000
v -0.369552 0.000000 -0.153073
v -0.282843 0.000000 -0.282843
v -0.153073 0.000000 -0.369552
vn -0.0000 1.0000 -0.0000
vt 0.000000 0.000000
s 0
usemtl マテリアル
f 16/1/1 32/1/1 17/1/1 1/1/1
f 15/1/1 31/1/1 32/1/1 16/1/1
f 14/1/1 30/1/1 31/1/1 15/1/1
f 13/1/1 29/1/1 30/1/1 14/1/1
f 12/1/1 28/1/1 29/1/1 13/1/1
f 11/1/1 27/1/1 28/1/1 12/1/1
f 10/1/1 26/1/1 27/1/1 11/1/1
f 9/1/1 25/1/1 26/1/1 10/1/1
f 8/1/1 24/1/1 25/1/1 9/1/1
f 7/1/1 23/1/1 24/1/1 8/1/1
f 6/1/1 22/1/1 23/1/1 7/1/1
f 5/1/1 21/1/1 22/1/1 6/1/1
f 4/1/1 20/1/1 21/1/1 5/1/1
f 3/1/1 19/1/1 20/1/1 4/1/1
f 2/1/1 18/1/1 19/1/1 3/1/1
f 1/1/1 17/1/1 18/1/1 2/1/1
