# Blender 4.5.2 LTS
# www.blender.org
mtllib Crown.mtl
o 円柱
v 0.000000 -0.109232 -0.500000
v -0.000000 0.430649 -0.592493
v 0.191342 -0.109232 -0.461940
v 0.191342 0.196120 -0.461940
v 0.353553 -0.109232 -0.353553
v 0.418956 0.430649 -0.418956
v 0.461940 -0.109232 -0.191342
v 0.461940 0.196120 -0.191342
v 0.500000 -0.109232 0.000000
v 0.592493 0.430649 0.000000
v 0.461940 -0.109232 0.191342
v 0.461940 0.196120 0.191342
v 0.353553 -0.109232 0.353553
v 0.418956 0.430649 0.418956
v 0.191342 -0.109232 0.461940
v 0.191342 0.196120 0.461940
v 0.000000 -0.109232 0.500000
v -0.000000 0.430649 0.592493
v -0.191342 -0.109232 0.461940
v -0.191342 0.196120 0.461940
v -0.353553 -0.109232 0.353553
v -0.418956 0.430649 0.418956
v -0.461940 -0.109232 0.191342
v -0.461940 0.196120 0.191342
v -0.500000 -0.109232 0.000000
v -0.592493 0.430649 0.000000
v -0.461940 -0.109232 -0.191342
v -0.461940 0.196120 -0.191342
v -0.353553 -0.109232 -0.353553
v -0.418956 0.430649 -0.418956
v -0.191342 -0.109232 -0.461940
v -0.191342 0.196120 -0.461940
vn 0.1951 -0.0000 -0.9808
vn 0.5556 -0.0000 -0.8315
vn 0.8315 -0.0000 -0.5556
vn 0.9808 -0.0000 -0.1951
vn 0.9808 -0.0000 0.1951
vn 0.8315 -0.0000 0.5556
vn 0.5556 -0.0000 0.8315
vn 0.1951 -0.0000 0.9808
vn -0.1951 -0.0000 0.9808
vn -0.5556 -0.0000 0.8315
vn -0.8315 -0.0000 0.5556
vn -0.9808 -0.0000 0.1951
vn -0.9808 -0.0000 -0.1951
vn -0.8315 -0.0000 -0.5556
vn -0.5556 -0.0000 -0.8315
vn -0.1951 -0.0000 -0.9808
vn 0.4220 -0.1531 -0.8936
vn 0.3334 -0.1531 -0.9303
vn 0.9303 -0.1531 -0.3334
vn 0.8936 -0.1531 -0.4220
vn 0.8936 -0.1531 0.4220
vn 0.9303 -0.1531 0.3334
vn 0.3334 -0.1531 0.9303
vn 0.4220 -0.1531 0.8936
vn -0.4220 -0.1531 0.8936
vn -0.3334 -0.1531 0.9303
vn -0.9303 -0.1531 0.3334
vn -0.8936 -0.1531 0.4220
vn -0.8936 -0.1531 -0.4220
vn -0.9303 -0.1531 -0.3334
vn -0.3334 -0.1531 -0.9303
vn -0.4220 -0.1531 -0.8936
vt 1.000000 0.500000
vt 0.937500 1.000000
vt 0.937500 0.500000
vt 0.875000 0.500000
vt 0.812500 1.000000
vt 0.812500 0.500000
vt 0.750000 0.500000
vt 0.687500 1.000000
vt 0.687500 0.500000
vt 0.625000 0.500000
vt 0.562500 1.000000
vt 0.562500 0.500000
vt 0.500000 0.500000
vt 0.437500 1.000000
vt 0.437500 0.500000
vt 0.375000 0.500000
vt 0.312500 1.000000
vt 0.312500 0.500000
vt 0.250000 0.500000
vt 0.187500 1.000000
vt 0.187500 0.500000
vt 0.125000 0.500000
vt 0.062500 1.000000
vt 0.062500 0.500000
vt 0.000000 0.500000
vt 1.000000 1.000000
vt 0.875000 1.000000
vt 0.750000 1.000000
vt 0.625000 1.000000
vt 0.500000 1.000000
vt 0.375000 1.000000
vt 0.250000 1.000000
vt 0.125000 1.000000
vt 0.000000 1.000000
s 0
usemtl マテリアル
f 1/1/1 4/2/1 3/3/1
f 4/2/2 5/4/2 3/3/2
f 5/4/3 8/5/3 7/6/3
f 8/5/4 9/7/4 7/6/4
f 9/7/5 12/8/5 11/9/5
f 12/8/6 13/10/6 11/9/6
f 13/10/7 16/11/7 15/12/7
f 16/11/8 17/13/8 15/12/8
f 17/13/9 20/14/9 19/15/9
f 20/14/10 21/16/10 19/15/10
f 21/16/11 24/17/11 23/18/11
f 24/17/12 25/19/12 23/18/12
f 25/19/13 28/20/13 27/21/13
f 28/20/14 29/22/14 27/21/14
f 29/22/15 32/23/15 31/24/15
f 32/23/16 1/25/16 31/24/16
f 1/1/17 2/26/17 4/2/17
f 4/2/18 6/27/18 5/4/18
f 5/4/19 6/27/19 8/5/19
f 8/5/20 10/28/20 9/7/20
f 9/7/21 10/28/21 12/8/21
f 12/8/22 14/29/22 13/10/22
f 13/10/23 14/29/23 16/11/23
f 16/11/24 18/30/24 17/13/24
f 17/13/25 18/30/25 20/14/25
f 20/14/26 22/31/26 21/16/26
f 21/16/27 22/31/27 24/17/27
f 24/17/28 26/32/28 25/19/28
f 25/19/29 26/32/29 28/20/29
f 28/20/30 30/33/30 29/22/30
f 29/22/31 30/33/31 32/23/31
f 32/23/32 2/34/32 1/25/32
