# Blender 4.4.1
# www.blender.org
mtllib doubleEnemy.mtl
o doubleEnemy
v 0.259972 0.371991 0.155134
v 0.259972 0.371991 -0.089530
v 0.489224 0.286528 0.155134
v 0.489224 0.286528 -0.089530
v 0.164822 0.203577 0.181942
v 0.225873 0.331606 0.172978
v 0.249485 0.394945 0.105382
v 0.244217 0.406473 0.032802
v 0.249485 0.394945 -0.039777
v 0.225873 0.331606 -0.107374
v 0.164822 0.203577 -0.116337
v 0.312823 0.371332 -0.107374
v 0.383962 0.354378 -0.116337
v 0.448839 0.320627 -0.107374
v 0.488565 0.233677 -0.107374
v 0.444311 0.099385 -0.116337
v 0.512177 0.297016 -0.039777
v 0.523707 0.302282 0.032802
v 0.512177 0.297016 0.105382
v 0.488565 0.233677 0.172978
v 0.444311 0.099385 0.181942
v 0.448839 0.320627 0.172978
v 0.383962 0.354378 0.181942
v 0.312823 0.371332 0.172978
v 0.125331 0.218298 0.114310
v 0.191764 0.349416 0.110155
v 0.112108 0.223228 0.032802
v 0.181102 0.357825 0.032802
v 0.125331 0.218298 -0.048705
v 0.191764 0.349416 -0.044550
v 0.228193 0.179952 -0.158483
v 0.286406 0.314133 -0.145555
v 0.304567 0.151480 -0.172595
v 0.360338 0.291007 -0.158483
v 0.380940 0.123010 -0.158483
v 0.431366 0.260093 -0.145555
v 0.483802 0.084664 -0.048705
v 0.526009 0.224812 -0.044550
v 0.497025 0.079734 0.032802
v 0.539573 0.224189 0.032802
v 0.483802 0.084664 0.114310
v 0.526009 0.224812 0.110155
v 0.397083 0.129260 0.224088
v 0.439775 0.271498 0.211160
v 0.313654 0.148503 0.239907
v 0.351250 0.293983 0.224088
v 0.219142 0.168086 0.224088
v 0.270905 0.308343 0.211160
v 0.466648 0.354737 -0.044550
v 0.398684 0.393869 -0.048705
v 0.321688 0.408775 -0.044550
v 0.475057 0.365398 0.032802
v 0.403613 0.407092 0.032802
v 0.322311 0.422340 0.032802
v 0.466648 0.354737 0.110155
v 0.398684 0.393869 0.114310
v 0.321688 0.408775 0.110155
v -0.196631 -0.294191 0.033450
v -0.196631 -0.080062 -0.223587
v 0.137913 -0.294191 0.033450
v 0.137913 -0.080062 -0.223587
v -0.221030 -0.142351 -0.186935
v -0.233286 -0.215289 -0.118530
v -0.221030 -0.269394 -0.034435
v -0.316630 -0.047357 0.208449
v -0.328087 -0.003324 -0.172183
v 0.069883 -0.072203 -0.281474
v -0.029359 -0.073775 -0.298735
v -0.128601 -0.071624 -0.268337
v 0.042904 0.093202 -0.172183
v 0.162312 -0.269394 -0.034435
v 0.174568 -0.215289 -0.118530
v 0.162312 -0.142351 -0.186935
v 0.054360 0.049168 0.208449
v -0.128601 -0.328555 0.036579
v -0.029359 -0.345816 0.038151
v 0.069883 -0.328555 0.036579
v -0.368092 -0.056906 0.122379
v -0.386940 -0.054668 0.016684
v -0.374414 -0.032608 -0.087662
v -0.244881 0.018032 -0.224797
v -0.141628 0.041235 -0.243023
v -0.040160 0.071297 -0.224797
v -0.025583 0.015270 0.259514
v -0.125994 -0.018852 0.276391
v -0.230304 -0.037995 0.259513
v -0.128198 -0.086380 -0.436120
v -0.029359 -0.084348 -0.454576
v 0.069480 -0.086380 -0.436120
v -0.140809 -0.193547 -0.432288
v -0.029660 0.024808 -0.576823
v 0.082091 -0.193547 -0.432288
v -0.135127 -0.293643 -0.393817
v -0.029359 -0.302745 -0.410000
v 0.076409 -0.293643 -0.393817
v -0.208830 -0.175967 0.153132
v -0.208830 -0.038740 -0.178544
v 0.150112 -0.036227 -0.173056
v 0.150112 -0.175967 0.153132
v -0.253299 -0.082453 -0.113336
v -0.268266 -0.129929 -0.022046
v -0.247134 -0.160830 0.076101
v 0.073146 -0.038384 -0.219849
v -0.029359 -0.040950 -0.237107
v -0.131865 -0.038384 -0.219849
v 0.188416 -0.160830 0.076101
v 0.208280 -0.129929 -0.022046
v 0.193313 -0.082453 -0.113336
v -0.131865 -0.204899 0.182614
v -0.029359 -0.218909 0.193015
v 0.073146 -0.204900 0.182614
v 0.150112 -0.281793 -0.000493
v 0.073146 -0.340669 -0.187499
v -0.029359 -0.356949 -0.193774
v -0.131865 -0.340669 -0.187499
v -0.162616 -0.081626 -0.240768
v -0.162616 -0.311374 0.035015
v -0.178079 -0.304245 -0.215943
v -0.187047 -0.232666 -0.290828
v -0.172145 -0.142665 -0.342122
v -0.170347 -0.330819 -0.153814
v -0.208830 -0.111207 -0.205261
v 0.150112 -0.111207 -0.205261
v -0.131864 -0.106241 -0.370566
v -0.029359 -0.086424 -0.387882
v 0.073146 -0.084281 -0.370566
v -0.170347 -0.100547 -0.350713
v 0.103898 -0.070060 -0.251155
v 0.103898 -0.311374 0.035015
v 0.113427 -0.142665 -0.342122
v 0.128329 -0.232666 -0.290828
v 0.119361 -0.304245 -0.215943
v 0.111629 -0.322788 -0.177163
v 0.111629 -0.100547 -0.350713
v 0.168440 -0.178820 -0.152733
v -0.137968 -0.139963 -0.434204
v -0.029535 -0.063930 -0.513370
v 0.079250 -0.139963 -0.434204
v -0.182563 -0.187666 -0.316475
v 0.123845 -0.187666 -0.316475
v 0.168440 -0.242342 -0.076483
v -0.137968 -0.243595 -0.413053
v -0.029110 -0.126769 -0.543883
v 0.079250 -0.243595 -0.413053
v -0.182563 -0.268456 -0.253385
v 0.123845 -0.268456 -0.253385
v 0.020262 -0.072989 -0.290105
v 0.023525 -0.085364 -0.445348
v 0.026402 -0.072967 -0.528577
v 0.023525 -0.298194 -0.401908
v 0.021894 -0.348809 -0.190637
v 0.021894 -0.085353 -0.379224
v 0.024776 -0.067625 -0.504820
v 0.025191 -0.127732 -0.534556
v -0.078980 -0.072989 -0.290105
v -0.082243 -0.085364 -0.445348
v -0.085047 -0.073380 -0.528676
v -0.082243 -0.298194 -0.401908
v -0.080612 -0.348809 -0.190637
v -0.080612 -0.085353 -0.379224
v -0.083832 -0.068028 -0.504917
v -0.083418 -0.128135 -0.534653
v -0.398093 0.362641 0.200074
v -0.398093 0.362641 -0.134469
v -0.074329 0.446880 0.200074
v -0.074329 0.446880 -0.134469
v -0.368879 0.094855 0.239230
v -0.391448 0.191529 0.236729
v -0.404577 0.290661 0.224473
v -0.427850 0.380111 0.132045
v -0.442797 0.388886 0.032802
v -0.427850 0.380111 -0.066440
v -0.404577 0.290661 -0.158869
v -0.391448 0.191529 -0.171125
v -0.368879 0.094856 -0.173625
v -0.338399 0.403385 -0.158869
v -0.245441 0.440235 -0.171125
v -0.146310 0.453364 -0.158869
v -0.033586 0.387185 -0.158869
v 0.003264 0.294228 -0.171125
v 0.030673 0.198813 -0.173625
v -0.056859 0.476636 -0.066440
v -0.048084 0.491583 0.032802
v -0.056859 0.476636 0.132045
v -0.033586 0.387185 0.224473
v 0.003264 0.294228 0.236729
v 0.030673 0.198813 0.239230
v -0.146310 0.453364 0.224473
v -0.245441 0.440235 0.236729
v -0.338399 0.403385 0.224473
v -0.421652 0.074382 0.146713
v -0.447220 0.177020 0.144252
v -0.456745 0.283830 0.138571
v -0.438645 0.064090 0.032802
v -0.465894 0.172161 0.032802
v -0.475283 0.284878 0.032802
v -0.421652 0.074382 -0.081109
v -0.447220 0.177020 -0.078648
v -0.456745 0.283830 -0.072966
v -0.277701 0.111836 -0.229853
v -0.301951 0.214816 -0.228754
v -0.323085 0.318607 -0.211077
v -0.166029 0.135020 -0.248890
v -0.194092 0.242879 -0.248049
v -0.222155 0.350737 -0.228753
v -0.057219 0.169201 -0.229852
v -0.086233 0.270942 -0.228753
v -0.118364 0.371872 -0.211077
v 0.086732 0.206655 -0.081109
v 0.059036 0.308738 -0.078647
v 0.015297 0.406648 -0.072966
v 0.106587 0.205950 0.032802
v 0.077710 0.313597 0.032802
v 0.030973 0.416597 0.032802
v 0.086732 0.206655 0.146713
v 0.059036 0.308738 0.144252
v 0.015297 0.406648 0.138571
v -0.048623 0.169200 0.295457
v -0.068880 0.270942 0.294358
v -0.110956 0.371872 0.276681
v -0.166029 0.135019 0.314495
v -0.194092 0.242879 0.307286
v -0.222155 0.350737 0.294358
v -0.284513 0.111835 0.295457
v -0.318873 0.214816 0.294358
v -0.332708 0.318607 0.276681
v -0.153140 0.505532 -0.072966
v -0.259952 0.496007 -0.078647
v -0.357861 0.452267 -0.072966
v -0.152093 0.524070 0.032802
v -0.264810 0.514681 0.032802
v -0.367810 0.467944 0.032802
v -0.153140 0.505532 0.138571
v -0.259952 0.496007 0.144252
v -0.357861 0.452267 0.138571
v 0.316364 -0.030722 0.129021
v 0.277048 -0.027631 0.188610
v 0.138769 0.074094 0.216268
v 0.106031 0.212477 0.130512
v 0.352652 -0.025097 0.005378
v 0.265526 0.043391 -0.165769
v 0.318812 0.008465 -0.114836
v 0.135549 0.136577 -0.165333
v 0.252390 -0.095777 0.102561
v 0.180644 -0.086217 0.170871
v 0.096565 0.061631 0.212359
v 0.207909 0.023232 0.210765
v 0.138604 -0.012293 0.211737
vn -0.8770 0.4496 0.1697
vn -0.8770 0.4496 0.1696
vn -0.8770 0.4497 0.1695
vn -0.8770 0.4496 -0.1696
vn -0.8770 0.4496 -0.1697
vn -0.8770 0.4497 -0.1695
vn -0.7531 0.3962 0.5253
vn -0.7538 0.3981 0.5228
vn -0.7529 0.3958 0.5258
vn -0.5475 0.6786 0.4896
vn -0.6019 0.7808 0.1678
vn -0.6019 0.7807 0.1678
vn -0.6019 0.7808 -0.1678
vn -0.6019 0.7807 -0.1678
vn -0.5475 0.6786 -0.4896
vn -0.7538 0.3981 -0.5229
vn -0.7531 0.3962 -0.5252
vn -0.7529 0.3958 -0.5258
vn -0.1255 0.1490 -0.9808
vn -0.1251 0.1490 -0.9809
vn -0.1257 0.1490 -0.9808
vn 0.1891 0.0235 -0.9817
vn 0.1895 0.0230 -0.9816
vn 0.1898 0.0227 -0.9816
vn -0.4574 0.2778 -0.8447
vn -0.4543 0.2783 -0.8462
vn -0.4581 0.2776 -0.8444
vn -0.3035 0.5876 -0.7501
vn 0.0249 0.5471 -0.8367
vn 0.0248 0.5471 -0.8367
vn 0.3393 0.4299 -0.8367
vn 0.3394 0.4298 -0.8367
vn 0.6141 0.2456 -0.7501
vn 0.5169 -0.1106 -0.8489
vn 0.5195 -0.1141 -0.8468
vn 0.5201 -0.1149 -0.8464
vn 0.9451 -0.2793 -0.1699
vn 0.9455 -0.2786 -0.1685
vn 0.9449 -0.2795 -0.1702
vn 0.9455 -0.2786 0.1684
vn 0.9451 -0.2793 0.1698
vn 0.9449 -0.2795 0.1702
vn 0.8173 -0.2335 -0.5268
vn 0.8202 -0.2321 -0.5229
vn 0.8166 -0.2339 -0.5277
vn 0.8581 0.1546 -0.4896
vn 0.9661 0.1962 -0.1678
vn 0.9661 0.1962 0.1678
vn 0.8581 0.1546 0.4896
vn 0.8202 -0.2321 0.5229
vn 0.8173 -0.2335 0.5268
vn 0.8166 -0.2339 0.5277
vn 0.1931 0.0312 0.9807
vn -0.1331 0.1409 0.9810
vn -0.1348 0.1405 0.9809
vn -0.1351 0.1403 0.9809
vn 0.6051 -0.1472 0.7824
vn 0.7013 0.2202 0.6780
vn 0.2577 0.5628 0.7854
vn -0.0396 0.5371 0.8426
vn -0.3184 0.5949 0.7380
vn -0.4668 0.2813 0.8385
vn 0.4981 0.8504 -0.1697
vn 0.4966 0.8509 -0.1713
vn 0.1801 0.9689 -0.1697
vn 0.1786 0.9695 -0.1681
vn 0.4981 0.8504 0.1697
vn 0.4966 0.8509 0.1713
vn 0.1801 0.9689 0.1697
vn 0.1786 0.9695 0.1681
vn 0.7208 0.5318 -0.4446
vn 0.4495 0.7254 -0.5213
vn 0.1351 0.8426 -0.5213
vn 0.1351 0.8426 -0.5214
vn -0.1546 0.8581 -0.4896
vn -0.1962 0.9661 -0.1678
vn -0.1962 0.9661 0.1678
vn -0.1546 0.8581 0.4896
vn 0.1351 0.8426 0.5213
vn 0.1351 0.8426 0.5214
vn 0.4495 0.7254 0.5213
vn 0.7208 0.5318 0.4446
vn 0.7808 0.6019 0.1678
vn 0.7808 0.6018 0.1677
vn 0.7808 0.6019 -0.1678
vn 0.7808 0.6018 -0.1677
vn -0.8770 0.4495 0.1697
vn -0.8770 0.4495 -0.1698
vn -0.7539 0.3985 0.5223
vn -0.5318 0.7208 0.4446
vn -0.6018 0.7808 0.1677
vn -0.6018 0.7808 -0.1677
vn -0.5318 0.7208 -0.4446
vn -0.7539 0.3985 -0.5223
vn -0.1249 0.1491 -0.9809
vn 0.1890 0.0237 -0.9817
vn -0.4536 0.2784 -0.8466
vn -0.2456 0.6141 -0.7501
vn 0.0250 0.5471 -0.8367
vn 0.3393 0.4300 -0.8367
vn 0.5876 0.3035 -0.7501
vn 0.5163 -0.1098 -0.8494
vn 0.9456 -0.2785 -0.1681
vn 0.9456 -0.2785 0.1681
vn 0.8209 -0.2317 -0.5220
vn 0.8738 0.1968 -0.4446
vn 0.9661 0.1963 -0.1677
vn 0.9661 0.1963 0.1677
vn 0.8738 0.1968 0.4446
vn 0.8209 -0.2317 0.5220
vn 0.1605 0.0656 0.9849
vn -0.1327 0.1410 0.9811
vn 0.5664 -0.0956 0.8185
vn 0.6313 0.3999 0.6645
vn 0.3318 0.4124 0.8485
vn 0.0295 0.5612 0.8271
vn -0.2449 0.6166 0.7482
vn -0.5368 0.2717 0.7987
vn 0.4996 0.8498 -0.1681
vn 0.1816 0.9683 -0.1713
vn 0.4996 0.8498 0.1681
vn 0.1816 0.9683 0.1713
vn 0.6786 0.5475 -0.4896
vn 0.4494 0.7254 -0.5214
vn 0.1350 0.8426 -0.5213
vn -0.1968 0.8738 -0.4446
vn -0.1963 0.9661 -0.1677
vn -0.1963 0.9661 0.1677
vn -0.1968 0.8738 0.4446
vn 0.1350 0.8426 0.5213
vn 0.4494 0.7254 0.5214
vn 0.6786 0.5475 0.4896
vn 0.7807 0.6019 0.1678
vn 0.7807 0.6019 -0.1678
vn -0.1065 0.9712 -0.2133
vn 0.8279 0.5566 -0.0685
vn -0.1710 -0.6070 -0.7761
vn 0.4081 -0.5632 -0.7186
vn -0.4710 -0.1569 -0.8680
vn 0.0208 0.9998 -0.0007
vn 0.0220 0.9998 0.0004
vn 0.9665 -0.0111 -0.2565
vn 0.9643 -0.0520 -0.2598
vn 0.9307 -0.3136 -0.1883
vn 0.5728 -0.8171 0.0648
vn -0.1719 -0.9838 0.0514
vn -0.4522 -0.8852 0.1097
vn -0.9006 -0.3630 -0.2391
vn -0.9379 -0.0965 -0.3332
vn -0.4720 -0.8303 -0.2964
vn -0.1663 -0.9592 -0.2285
vn 0.1184 -0.9658 -0.2305
vn 0.8346 -0.5430 -0.0932
vn -0.1390 -0.2961 -0.9450
vn -0.1301 -0.2887 -0.9485
vn -0.1658 -0.2943 -0.9412
vn -0.9639 -0.1363 -0.2289
vn -0.9397 -0.3271 0.0993
vn -0.9358 0.1929 -0.2952
vn -0.4386 -0.3219 -0.8390
vn 0.1505 0.1237 -0.9808
vn 0.1514 0.1218 -0.9809
vn 0.1605 0.1491 -0.9757
vn 0.4994 0.1876 -0.8458
vn 0.4461 0.4051 -0.7981
vn 0.4580 0.4382 -0.7735
vn 0.7347 0.6625 -0.1458
vn 0.0040 0.9906 -0.1367
vn 0.0068 0.9909 -0.1347
vn 0.0067 0.9904 -0.1381
vn -0.0000 0.9895 -0.1446
vn -0.0074 0.9904 -0.1378
vn -0.0082 0.9905 -0.1373
vn -0.3762 0.9172 -0.1314
vn 0.4328 0.8953 -0.1055
vn 0.5386 -0.8233 -0.1791
vn 0.4987 0.8041 -0.3236
vn 0.4085 -0.9111 0.0552
vn 0.9431 -0.1646 -0.2890
vn 0.9395 0.0376 -0.3406
vn 0.8358 0.5453 -0.0642
vn 0.9274 0.1569 -0.3396
vn -0.9173 -0.3369 -0.2122
vn -0.9375 0.0190 -0.3474
vn 0.9526 0.0495 -0.3002
vn 0.6578 0.7179 0.2280
vn 0.0302 0.9599 0.2786
vn 0.9173 -0.1872 -0.3516
vn -0.6063 -0.7952 0.0076
vn -0.5947 -0.8031 -0.0368
vn -0.6274 -0.7728 0.0955
vn -0.8524 -0.4251 -0.3043
vn 0.9173 -0.3369 -0.2122
vn 0.8817 0.0311 -0.4709
vn 0.8820 0.0318 -0.4702
vn 0.8812 0.0302 -0.4718
vn -0.1692 0.1020 -0.9803
vn 0.4281 -0.1904 -0.8834
vn 0.0126 0.9446 0.3280
vn -0.0000 0.9901 -0.1405
vn 0.1198 -0.9630 -0.2414
vn 0.8909 0.0867 -0.4458
vn 0.0138 0.9994 0.0311
vn 0.1250 -0.6009 -0.7895
vn 0.3005 0.5550 0.7756
vn -0.7546 -0.2723 -0.5971
vn -0.1969 0.0008 -0.9804
vn -0.1125 0.9422 -0.3155
vn -0.1661 -0.9620 -0.2166
vn -0.3271 0.9093 0.2572
vn -0.1713 -0.3619 -0.9163
vn -0.8809 0.0298 -0.4724
vn -0.8805 0.0290 -0.4731
vn -0.8793 0.0266 -0.4755
vn -0.9568 -0.2377 0.1676
vn -0.9569 -0.2350 0.1708
vn -0.9564 -0.2412 0.1645
vn -0.9822 -0.0802 0.1697
vn -0.9826 -0.0787 0.1681
vn -0.9569 -0.2349 -0.1708
vn -0.9568 -0.2377 -0.1676
vn -0.9564 -0.2412 -0.1645
vn -0.9822 -0.0802 -0.1697
vn -0.9826 -0.0787 -0.1681
vn -0.8327 -0.1950 0.5182
vn -0.8520 -0.0483 0.5213
vn -0.8519 -0.0484 0.5214
vn -0.8378 0.2414 0.4896
vn -0.9410 0.2938 0.1678
vn -0.9410 0.2938 -0.1678
vn -0.8378 0.2414 -0.4896
vn -0.8520 -0.0483 -0.5213
vn -0.8519 -0.0484 -0.5214
vn -0.8327 -0.1950 -0.5182
vn -0.1649 -0.0317 -0.9858
vn -0.1688 -0.0299 -0.9852
vn -0.1610 -0.0342 -0.9864
vn -0.2069 0.1215 -0.9708
vn -0.2058 0.1234 -0.9708
vn 0.1619 0.0562 -0.9852
vn 0.1594 0.0527 -0.9858
vn 0.1573 0.0486 -0.9864
vn 0.1215 0.2069 -0.9708
vn 0.1195 0.2081 -0.9708
vn -0.5068 -0.1102 -0.8550
vn -0.5468 0.0311 -0.8367
vn -0.5468 0.0310 -0.8367
vn -0.5858 0.3070 -0.7500
vn -0.2936 0.4623 -0.8367
vn -0.2937 0.4622 -0.8367
vn 0.0311 0.5468 -0.8367
vn 0.0312 0.5467 -0.8367
vn 0.3619 0.5536 -0.7500
vn 0.4623 0.2936 -0.8367
vn 0.4624 0.2936 -0.8367
vn 0.4962 0.1507 -0.8550
vn 0.9513 0.2587 -0.1676
vn 0.9501 0.2612 -0.1708
vn 0.9527 0.2556 -0.1645
vn 0.8968 0.4086 -0.1697
vn 0.8964 0.4102 -0.1681
vn 0.9501 0.2612 0.1708
vn 0.9513 0.2587 0.1676
vn 0.9527 0.2556 0.1645
vn 0.8968 0.4086 0.1697
vn 0.8964 0.4102 0.1681
vn 0.8222 0.2356 -0.5182
vn 0.7675 0.3730 -0.5213
vn 0.7675 0.3730 -0.5214
vn 0.6139 0.6192 -0.4896
vn 0.6785 0.7152 -0.1678
vn 0.6785 0.7152 0.1678
vn 0.6139 0.6192 0.4896
vn 0.7675 0.3730 0.5213
vn 0.7675 0.3730 0.5214
vn 0.8222 0.2356 0.5182
vn 0.1119 0.0616 0.9918
vn 0.1182 0.0724 0.9903
vn 0.1308 0.1000 0.9864
vn 0.0893 0.1751 0.9805
vn 0.0933 0.1725 0.9806
vn 0.0573 0.1954 0.9791
vn -0.1373 0.0045 0.9905
vn -0.1277 -0.0014 0.9918
vn -0.1631 0.0235 0.9863
vn -0.1578 0.1079 0.9816
vn -0.1546 0.1137 0.9814
vn -0.1350 0.1488 0.9796
vn 0.5449 0.1175 0.8303
vn 0.5014 0.3289 0.8003
vn 0.5049 0.3270 0.7989
vn 0.5288 0.3136 0.7887
vn 0.3836 0.5615 0.7332
vn 0.0298 0.5474 0.8363
vn 0.0299 0.5474 0.8363
vn 0.0287 0.5480 0.8360
vn -0.2843 0.4765 0.8319
vn -0.2839 0.4772 0.8317
vn -0.2748 0.4907 0.8268
vn -0.6342 0.2988 0.7131
vn -0.6135 0.0337 0.7890
vn -0.6121 0.0362 0.7900
vn -0.6245 0.0138 0.7809
vn -0.5236 -0.1658 0.8357
vn -0.0802 0.9822 -0.1697
vn -0.0818 0.9818 -0.1713
vn -0.4086 0.8968 -0.1697
vn -0.4102 0.8964 -0.1681
vn -0.0802 0.9822 0.1697
vn -0.0818 0.9818 0.1713
vn -0.4086 0.8968 0.1697
vn -0.4102 0.8964 0.1681
vn 0.2850 0.8492 -0.4446
vn -0.0483 0.8520 -0.5213
vn -0.3730 0.7675 -0.5213
vn -0.3730 0.7675 -0.5214
vn -0.6192 0.6139 -0.4896
vn -0.7152 0.6785 -0.1678
vn -0.7152 0.6785 0.1678
vn -0.6192 0.6139 0.4896
vn -0.3730 0.7675 0.5213
vn -0.3730 0.7675 0.5214
vn -0.0483 0.8520 0.5213
vn 0.2850 0.8492 0.4446
vn 0.2938 0.9410 0.1678
vn 0.2939 0.9410 0.1678
vn 0.2939 0.9410 0.1677
vn 0.2939 0.9410 -0.1678
vn 0.2938 0.9410 -0.1678
vn 0.2939 0.9410 -0.1677
vn 0.8482 0.0911 -0.5217
vn 0.4795 0.2230 -0.8487
vn 0.5259 0.0486 -0.8491
vn 0.5264 0.0494 -0.8488
vn 0.1808 -0.0146 -0.9834
vn 0.1797 -0.0169 -0.9836
vn 0.1783 -0.0197 -0.9838
vn -0.1486 -0.1024 -0.9836
vn -0.1507 -0.1010 -0.9834
vn -0.1461 -0.1041 -0.9838
vn -0.4829 -0.2139 -0.8491
vn -0.4837 -0.2134 -0.8488
vn -0.7851 -0.3339 -0.5217
vn -0.9118 -0.3739 -0.1698
vn -0.9009 -0.3991 0.1705
vn -0.7593 -0.3915 0.5198
vn -0.4522 -0.3559 0.8178
vn -0.4641 -0.3508 0.8133
vn -0.4703 -0.3483 0.8109
vn -0.1055 -0.2654 0.9583
vn -0.1022 -0.2667 0.9584
vn -0.1018 -0.2667 0.9584
vn 0.2147 -0.1882 0.9584
vn 0.2183 -0.1841 0.9584
vn 0.2113 -0.1921 0.9583
vn 0.5861 -0.0814 0.8062
vn 0.5752 -0.0955 0.8124
vn 0.5944 -0.0707 0.8011
vn 0.8538 0.0282 0.5198
vn -0.5741 -0.7844 -0.2348
vn -0.9623 -0.0558 -0.2662
vn -0.4386 -0.8834 -0.1650
vn 0.1719 -0.9838 0.0514
vn -0.5924 -0.6814 0.4298
vn -0.8409 -0.4254 0.3345
vn -0.3559 -0.6047 0.7125
vn -0.4723 -0.6507 0.5946
vn -0.0622 -0.4477 0.8920
vn 0.1391 -0.3229 0.9361
vn 0.3990 -0.1377 0.9065
vn 0.9000 -0.3978 0.1782
vn 0.9496 -0.3077 -0.0596
vn 0.9463 -0.1218 -0.2994
vn 0.3851 -0.7085 0.5913
vn 0.1431 -0.7655 0.6273
vn -0.1431 -0.7655 0.6273
vn -0.3289 -0.7132 -0.6190
vn -0.3972 -0.6137 -0.6823
vn -0.9166 0.1383 -0.3751
vn -0.3682 0.6333 -0.6807
vn -0.0667 0.8803 -0.4696
vn -0.0676 0.8806 -0.4690
vn -0.0670 0.8805 -0.4692
vn 0.0701 0.8729 -0.4828
vn -0.3076 0.5532 0.7742
vn 0.8810 0.0298 -0.4722
vn -0.1192 -0.6011 -0.7903
vn 0.1713 -0.3619 -0.9163
vn -0.5708 0.7942 0.2087
vn -0.0138 0.9994 0.0311
vn -0.0156 0.9994 -0.0311
vn 0.9358 0.1929 -0.2952
vn 0.9650 -0.0738 -0.2515
vn 0.9011 -0.4124 -0.1340
vn 0.4386 -0.8834 -0.1650
vn -0.1533 -0.9866 0.0556
vn -0.1538 -0.9870 0.0474
vn -0.2015 -0.9779 0.0558
vn -0.9431 -0.1646 -0.2890
vn -0.9395 0.0376 -0.3406
vn -0.5386 -0.8233 -0.1791
vn -0.1198 -0.9630 -0.2414
vn 0.1661 -0.9620 -0.2166
vn 0.7191 -0.6949 0.0046
vn -0.1029 -0.2896 -0.9516
vn -0.9426 -0.1300 -0.3075
vn -0.9469 -0.3150 -0.0646
vn -0.9665 -0.0111 -0.2565
vn -0.5883 0.8029 -0.0968
vn 0.1454 0.1058 -0.9837
vn 0.5673 -0.2411 -0.7874
vn 0.0076 0.9909 -0.1341
vn -0.0249 0.9471 -0.3199
vn 0.1853 0.9436 -0.2746
vn 0.4674 -0.8302 -0.3038
vn 0.3619 0.8090 -0.4632
vn 0.3810 0.6509 -0.6566
vn 0.4523 -0.8895 0.0643
vn 0.9006 -0.3630 -0.2391
vn 0.9379 -0.0965 -0.3332
vn 0.3952 -0.1674 -0.9032
vn 0.9375 0.0190 -0.3474
vn -0.9011 -0.4124 -0.1340
vn -0.9274 0.1570 -0.3396
vn 0.9628 -0.0801 -0.2579
vn 0.1969 0.0008 -0.9804
vn -0.0202 0.9444 0.3280
vn 0.8524 -0.4251 -0.3043
vn -0.5619 -0.8160 -0.1359
vn -0.9173 -0.1872 -0.3516
vn 0.8823 -0.4437 -0.1569
vn 0.7560 -0.2718 -0.5955
vn -0.4252 -0.1937 -0.8841
vn 0.1702 0.1032 -0.9800
vn -0.0313 0.9580 0.2851
vn 0.1663 -0.9592 -0.2285
vn 0.9224 0.1524 -0.3549
vn 0.8609 0.2008 -0.4674
vn -0.0208 0.9998 -0.0007
vn 0.1710 -0.6061 -0.7768
vn 0.0995 0.9722 -0.2118
vn -0.8789 0.0258 -0.4763
vn -0.6582 0.7180 0.2265
vn -0.3919 0.9122 -0.1194
vn -0.1184 -0.9658 -0.2305
vn -0.0220 0.9998 0.0004
vn -0.4084 -0.5634 -0.7182
vn -0.8329 0.5475 -0.0807
vn -0.9571 -0.2343 0.1706
vn -0.9818 -0.0818 0.1713
vn -0.9571 -0.2343 -0.1706
vn -0.9818 -0.0818 -0.1713
vn -0.8296 -0.1800 0.5286
vn -0.8492 0.2850 0.4446
vn -0.9410 0.2939 0.1677
vn -0.9410 0.2939 -0.1677
vn -0.8492 0.2850 -0.4446
vn -0.8296 -0.1800 -0.5286
vn -0.1687 -0.0292 -0.9852
vn -0.2081 0.1195 -0.9708
vn 0.1615 0.0567 -0.9852
vn 0.1234 0.2058 -0.9708
vn -0.5203 -0.0995 -0.8482
vn -0.5467 0.0312 -0.8367
vn -0.5536 0.3619 -0.7500
vn -0.2936 0.4624 -0.8367
vn 0.0310 0.5468 -0.8367
vn 0.3070 0.5858 -0.7500
vn 0.4622 0.2937 -0.8367
vn 0.5028 0.1667 -0.8482
vn 0.9499 0.2618 -0.1706
vn 0.8972 0.4071 -0.1713
vn 0.9499 0.2618 0.1706
vn 0.8972 0.4071 0.1713
vn 0.8121 0.2471 -0.5286
vn 0.7675 0.3731 -0.5213
vn 0.6026 0.6627 -0.4446
vn 0.6784 0.7153 -0.1677
vn 0.6784 0.7153 0.1677
vn 0.6026 0.6627 0.4446
vn 0.7675 0.3731 0.5213
vn 0.8121 0.2471 0.5286
vn 0.0960 0.0299 0.9949
vn 0.1272 0.1506 0.9804
vn -0.0981 -0.0221 0.9949
vn -0.1777 0.0714 0.9815
vn 0.5758 0.1863 0.7961
vn 0.4785 0.3412 0.8091
vn 0.3041 0.6039 0.7367
vn 0.0310 0.5468 0.8367
vn -0.2936 0.4624 0.8367
vn -0.5684 0.4034 0.7170
vn -0.6009 0.0557 0.7974
vn -0.5940 -0.1181 0.7958
vn -0.0787 0.9826 -0.1681
vn -0.4071 0.8972 -0.1713
vn -0.0787 0.9826 0.1681
vn -0.4071 0.8972 0.1713
vn 0.2414 0.8378 -0.4896
vn -0.0484 0.8519 -0.5214
vn -0.3731 0.7675 -0.5213
vn -0.6627 0.6026 -0.4446
vn -0.7153 0.6784 -0.1677
vn -0.7153 0.6784 0.1677
vn -0.6627 0.6026 0.4446
vn -0.3731 0.7675 0.5213
vn -0.0484 0.8519 0.5214
vn 0.2414 0.8378 0.4896
vn 0.1809 -0.0144 -0.9834
vn -0.1509 -0.1008 -0.9834
vn -0.4821 -0.2145 -0.8495
vn -0.4628 -0.7283 -0.5055
vn -0.6711 -0.5051 -0.5427
vn -0.7830 -0.3128 -0.5376
vn -0.9024 -0.3868 -0.1901
vn -0.8986 -0.4118 0.1515
vn -0.7643 -0.4048 0.5019
vn -0.4463 -0.3582 0.8201
vn -0.1064 -0.2650 0.9584
vn 0.2221 -0.1795 0.9584
vn 0.5668 -0.1059 0.8170
vn -0.4192 -0.7755 -0.4720
vn -0.9650 -0.0738 -0.2515
vn -0.9526 0.0495 -0.3002
vn -0.8591 -0.5005 -0.1072
vn -0.6588 -0.7451 0.1037
vn 0.1538 -0.9870 0.0474
vn 0.1533 -0.9866 0.0556
vn -0.6104 -0.7776 0.1507
vn -0.9000 -0.3978 0.1782
vn -0.4724 -0.5831 0.6609
vn -0.3851 -0.7085 0.5913
vn -0.1501 -0.4412 0.8848
vn 0.2353 -0.2248 0.9456
vn 0.5326 0.0186 0.8462
vn 0.8409 -0.4254 0.3345
vn 0.9434 -0.3190 0.0905
vn 0.9463 -0.1218 -0.2995
vn 0.9660 -0.1275 -0.2247
vn 0.4723 -0.6507 0.5946
vn 0.1675 -0.7542 0.6349
vn -0.1675 -0.7542 0.6349
vn -0.2439 -0.7009 -0.6702
vn -0.2765 -0.8510 -0.4464
vn -0.8872 0.0802 -0.4543
vn -0.8640 0.1742 -0.4724
vn -0.5845 0.6504 -0.4852
vn -0.3406 0.5945 -0.7284
vn -0.2243 0.7967 -0.5612
vn -0.0582 0.8775 -0.4760
vn 0.0670 0.8805 -0.4692
vn 0.0676 0.8806 -0.4690
vn 0.0666 0.8803 -0.4697
vn 0.0582 0.8775 -0.4760
vn -0.3375 0.9391 -0.0647
vn -0.3376 0.9391 -0.0647
vn -0.4466 0.3122 0.8385
vn -0.2587 0.6635 -0.7020
vn -0.0899 0.3288 -0.9401
vn -0.0810 0.3219 -0.9433
vn 0.3763 -0.5320 -0.7585
vn 0.5435 -0.7563 -0.3642
vn 0.5696 -0.8113 0.1317
vn 0.5703 -0.8110 0.1305
vn 0.5653 -0.8131 0.1387
vn -0.1799 -0.0762 0.9807
vn 0.4553 -0.6810 0.5735
vn 0.2935 -0.5934 0.7495
vn 0.3472 -0.4924 -0.7981
vn 0.5623 -0.7191 0.4083
vn 0.1107 -0.2990 0.9478
vn 0.0409 -0.0524 0.9978
vn 0.2075 -0.3802 0.9013
vn 0.0543 -0.2197 0.9741
vn -0.0881 0.0272 0.9957
vn 0.0612 -0.2135 0.9750
vn 0.6251 -0.7680 -0.1389
vn 0.6545 -0.7551 0.0375
vn 0.6164 -0.7580 -0.2132
vn -0.1382 0.1616 0.9771
vn -0.1417 0.4157 0.8984
vn 0.3023 0.5332 0.7901
vn 0.0380 0.0478 -0.9981
vn -0.0769 0.9639 -0.2547
vn -0.2457 0.6398 -0.7282
vn 0.1398 -0.1126 -0.9838
vn -0.9386 0.2999 0.1704
vn -0.9386 0.2999 -0.1704
vn -0.3375 0.9391 0.0646
vn -0.0769 0.9640 0.2547
vn -0.5972 0.3156 0.7373
vn 0.4211 -0.5440 -0.7257
vn 0.4637 -0.7700 -0.4383
vn 0.5992 -0.7874 -0.1448
vn 0.5641 -0.8136 0.1407
vn 0.5299 -0.7099 0.4640
vn 0.0112 -0.0924 0.9957
vn 0.8607 -0.3633 0.3566
vn 0.6514 -0.6026 0.4610
vn 0.3982 -0.5072 -0.7643
vn 0.3782 -0.7754 0.5057
vn 0.0876 -0.2953 0.9514
vn -0.0768 -0.0521 0.9957
vn 0.0413 -0.3512 0.9354
vn 0.5173 -0.7216 -0.4601
vn 0.5676 -0.7205 -0.3985
vn 0.6694 -0.7247 0.1635
vn 0.7252 -0.6851 -0.0689
vn 0.4357 0.5464 0.7153
vn -0.0881 0.0273 0.9957
vn 0.0305 0.0472 -0.9984
vn -0.2932 0.6445 -0.7062
vn 0.0433 0.0650 -0.9969
vn -0.1806 0.0031 -0.9836
vt 0.904479 0.618113
vt 0.970450 0.609853
vt 0.957999 0.643171
vt 0.922781 0.563576
vt 0.980538 0.575750
vt 0.891314 0.642939
vt 0.941087 0.673396
vt 0.873989 0.629187
vt 0.878904 0.608027
vt 0.914022 0.590966
vt 0.896326 0.556186
vt 0.905184 0.536392
vt 0.927271 0.535898
vt 0.985159 0.541398
vt 0.891181 0.478642
vt 0.880846 0.407437
vt 0.914750 0.418952
vt 0.826867 0.457025
vt 0.846884 0.396207
vt 0.986466 0.506332
vt 0.922649 0.505535
vt 0.878913 0.509428
vt 0.859090 0.467660
vt 0.818056 0.488978
vt 0.785303 0.459594
vt 0.780816 0.494706
vt 0.763531 0.481114
vt 0.735081 0.420215
vt 0.715201 0.449259
vt 0.750541 0.505752
vt 0.683677 0.513068
vt 0.698056 0.479514
vt 0.732074 0.559932
vt 0.674484 0.548384
vt 0.775974 0.515783
vt 0.740986 0.532695
vt 0.758484 0.567480
vt 0.749488 0.587321
vt 0.727263 0.587625
vt 0.669380 0.582665
vt 0.763612 0.639688
vt 0.773155 0.717704
vt 0.738894 0.700496
vt 0.832121 0.672739
vt 0.812293 0.735964
vt 0.671883 0.613147
vt 0.736375 0.616745
vt 0.775908 0.614307
vt 0.799334 0.657722
vt 0.836815 0.634744
vt 0.876290 0.664560
vt 0.927290 0.704535
vt 0.806035 0.519859
vt 0.827429 0.561868
vt 0.796605 0.551503
vt 0.869849 0.541302
vt 0.838023 0.530340
vt 0.784994 0.582426
vt 0.848820 0.603873
vt 0.816832 0.593404
vt 0.848512 0.499128
vt 0.892121 0.517155
vt 0.858257 0.572229
vt 0.851932 0.636537
vt 0.806349 0.624654
vt 0.767789 0.541785
vt 0.887093 0.581923
vt 0.802775 0.487181
vt 0.762701 0.606673
vt 0.510429 0.639158
vt 0.486182 0.658923
vt 0.482246 0.647770
vt 0.551250 0.565596
vt 0.539009 0.626764
vt 0.531033 0.618327
vt 0.462075 0.675807
vt 0.379182 0.726099
vt 0.373341 0.702937
vt 0.593245 0.546264
vt 0.625546 0.549742
vt 0.564557 0.613241
vt 0.414306 0.600712
vt 0.381238 0.612153
vt 0.390833 0.594270
vt 0.472442 0.575605
vt 0.462387 0.621741
vt 0.444403 0.585811
vt 0.494761 0.557287
vt 0.527896 0.566465
vt 0.517828 0.588816
vt 0.539059 0.454549
vt 0.548288 0.519400
vt 0.529159 0.520516
vt 0.570124 0.436086
vt 0.585903 0.495495
vt 0.567388 0.506283
vt 0.600127 0.411954
vt 0.616871 0.470063
vt 0.601138 0.482527
vt 0.623522 0.388744
vt 0.646666 0.380752
vt 0.627530 0.457081
vt 0.282682 0.704838
vt 0.186587 0.712254
vt 0.195516 0.672722
vt 0.270246 0.665289
vt 0.197129 0.657605
vt 0.317164 0.647667
vt 0.366205 0.682498
vt 0.297546 0.658098
vt 0.357773 0.624518
vt 0.406120 0.657457
vt 0.337522 0.637865
vt 0.282804 0.682374
vt 0.282182 0.726648
vt 0.611101 0.535372
vt 0.662170 0.473239
vt 0.613889 0.399247
vt 0.363037 0.510381
vt 0.349909 0.463365
vt 0.428002 0.486668
vt 0.262594 0.539232
vt 0.262671 0.606910
vt 0.215780 0.565371
vt 0.225713 0.629605
vt 0.173912 0.589137
vt 0.317368 0.564394
vt 0.301892 0.577098
vt 0.353868 0.547909
vt 0.330691 0.546680
vt 0.483348 0.460680
vt 0.398859 0.431324
vt 0.514297 0.432304
vt 0.509033 0.475774
vt 0.472056 0.511724
vt 0.517631 0.540087
vt 0.446945 0.528567
vt 0.417045 0.538744
vt 0.383878 0.543633
vt 0.496154 0.497156
vt 0.642181 0.465674
vt 0.522418 0.458032
vt 0.661212 0.382915
vt 0.573844 0.557781
vt 0.425185 0.640311
vt 0.553423 0.447635
vt 0.492052 0.608463
vt 0.182062 0.513495
vt 0.144325 0.528398
vt 0.385403 0.670271
vt 0.586134 0.425178
vt 0.472015 0.696414
vt 0.578079 0.630784
vt 0.538721 0.684975
vt 0.681985 0.480707
vt 0.642995 0.564288
vt 0.536817 0.411895
vt 0.438117 0.619787
vt 0.031010 0.272913
vt 0.087833 0.296814
vt 0.049469 0.317325
vt 0.107192 0.244361
vt 0.070455 0.257928
vt 0.076149 0.357355
vt 0.142072 0.309973
vt 0.110443 0.332844
vt 0.018815 0.228892
vt 0.095661 0.209620
vt 0.058140 0.217997
vt 0.124187 0.205817
vt 0.139538 0.229378
vt 0.124054 0.277520
vt 0.172517 0.291688
vt 0.183276 0.317504
vt 0.164212 0.338734
vt 0.136729 0.365027
vt 0.106130 0.391896
vt 0.284764 0.435524
vt 0.309055 0.376238
vt 0.330557 0.419199
vt 0.248965 0.355349
vt 0.266979 0.395986
vt 0.373043 0.390494
vt 0.326331 0.314631
vt 0.349848 0.352575
vt 0.168458 0.396430
vt 0.135731 0.426834
vt 0.197082 0.361232
vt 0.231395 0.316676
vt 0.287819 0.335524
vt 0.304286 0.278248
vt 0.360467 0.275000
vt 0.332120 0.238937
vt 0.360408 0.235154
vt 0.405695 0.271189
vt 0.397627 0.227263
vt 0.437084 0.217117
vt 0.449273 0.261279
vt 0.425431 0.172866
vt 0.368806 0.148421
vt 0.407367 0.128253
vt 0.349124 0.200651
vt 0.385845 0.187403
vt 0.381026 0.087974
vt 0.314580 0.134906
vt 0.346444 0.112176
vt 0.316859 0.215494
vt 0.332466 0.167487
vt 0.284010 0.153154
vt 0.273240 0.127236
vt 0.292422 0.105893
vt 0.320335 0.079566
vt 0.351436 0.053116
vt 0.172748 0.006764
vt 0.147613 0.069417
vt 0.126230 0.028631
vt 0.209667 0.087443
vt 0.194378 0.044024
vt 0.083205 0.055536
vt 0.127300 0.132614
vt 0.102046 0.096491
vt 0.294504 0.050089
vt 0.325395 0.018898
vt 0.262067 0.083756
vt 0.225069 0.128176
vt 0.168660 0.109534
vt 0.152215 0.166623
vt 0.095924 0.172528
vt 0.051553 0.179250
vt 0.006549 0.187365
vt 0.286221 0.239762
vt 0.228239 0.222439
vt 0.265207 0.202929
vt 0.209829 0.280070
vt 0.248170 0.260212
vt 0.246654 0.164794
vt 0.170264 0.205106
vt 0.208308 0.184667
vt 0.267888 0.297618
vt 0.212912 0.322153
vt 0.191273 0.241947
vt 0.137314 0.178660
vt 0.188584 0.147288
vt 0.299872 0.184644
vt 0.453336 0.327607
vt 0.437914 0.397631
vt 0.410495 0.355610
vt 0.298944 0.476110
vt 0.256474 0.481885
vt 0.243570 0.442188
vt 0.203819 0.454599
vt 0.161498 0.467709
vt 0.117718 0.479921
vt 0.110181 0.545684
vt 0.077354 0.495765
vt 0.043119 0.519526
vt 0.081561 0.571785
vt 0.006549 0.553824
vt 0.685239 0.127855
vt 0.647071 0.203298
vt 0.632114 0.135087
vt 0.601932 0.210480
vt 0.589830 0.141522
vt 0.546559 0.156082
vt 0.219525 0.497755
vt 0.198448 0.642688
vt 0.701362 0.386092
vt 0.142328 0.609145
vt 0.127181 0.641846
vt 0.051606 0.603021
vt 0.648481 0.311768
vt 0.694560 0.198062
vt 0.690554 0.302462
vt 0.613401 0.318985
vt 0.587640 0.344494
vt 0.632674 0.378108
vt 0.561556 0.379410
vt 0.110241 0.681182
vt 0.307243 0.519640
vt 0.156613 0.260261
vt 0.319249 0.266044
vt 0.243489 0.122680
vt 0.669380 0.076834
vt 0.719950 0.094247
vt 0.709075 0.099313
vt 0.770664 0.145536
vt 0.721020 0.168079
vt 0.711572 0.136399
vt 0.981661 0.443095
vt 0.954429 0.398540
vt 0.994150 0.378152
vt 0.918996 0.296478
vt 0.896236 0.359897
vt 0.866825 0.339659
vt 0.828362 0.298003
vt 0.814885 0.382900
vt 0.740525 0.308603
vt 0.804266 0.246887
vt 0.783293 0.181719
vt 0.716444 0.210293
vt 0.835115 0.187791
vt 0.880857 0.214330
vt 0.842667 0.230825
vt 0.716127 0.248790
vt 0.727233 0.276850
vt 0.796364 0.217335
vt 0.807311 0.157683
vt 0.583753 0.293270
vt 0.896111 0.257347
vt 0.782589 0.129592
vt 0.945551 0.323449
vt 0.945100 0.435700
vt 0.968462 0.461325
vt 0.697170 0.103049
vt 0.977884 0.612338
vt 0.986945 0.493132
vt 0.785926 0.363882
vt 0.760639 0.338348
vt 0.582475 0.216427
s 1
usemtl マテリアル.005
f 26/1/1 27/2/2 25/3/3
f 27/2/4 30/4/5 29/5/6
f 6/6/7 25/3/8 5/7/9
f 1/8/10 26/1/10 6/6/10
f 7/9/11 28/10/11 26/1/12
f 28/10/13 9/11/13 30/4/14
f 30/4/15 2/12/15 10/13/15
f 29/5/16 10/13/17 11/14/18
f 32/15/19 33/16/20 31/17/21
f 33/16/22 36/18/23 35/19/24
f 10/13/25 31/20/26 11/14/27
f 2/12/28 32/21/28 10/13/28
f 12/22/29 34/23/29 32/15/30
f 34/23/31 14/24/31 36/18/32
f 36/25/33 4/26/33 15/27/33
f 35/28/34 15/27/35 16/29/36
f 38/30/37 39/31/38 37/32/39
f 39/31/40 42/33/41 41/34/42
f 15/27/43 37/32/44 16/29/45
f 4/26/46 38/30/46 15/27/46
f 17/35/47 40/36/47 38/30/47
f 40/36/48 19/37/48 42/33/48
f 42/33/49 3/38/49 20/39/49
f 41/34/50 20/39/51 21/40/52
f 44/41/53 45/42/53 43/43/53
f 45/42/54 48/44/55 47/45/56
f 20/39/57 43/46/57 21/40/57
f 3/38/58 44/47/58 20/39/58
f 22/48/59 46/49/59 44/41/59
f 46/49/60 24/50/60 48/44/60
f 48/51/61 1/8/61 6/6/61
f 47/52/62 6/6/62 5/7/62
f 49/53/63 53/54/63 52/55/64
f 51/56/65 53/54/65 50/57/66
f 53/54/67 55/58/67 52/55/68
f 53/54/69 57/59/69 56/60/70
f 4/26/71 49/53/71 17/35/71
f 14/24/72 50/57/72 49/53/72
f 12/22/73 50/57/73 13/61/74
f 2/12/75 51/56/75 12/62/75
f 9/11/76 54/63/76 51/56/76
f 54/63/77 7/9/77 57/59/77
f 57/59/78 1/8/78 24/64/78
f 56/60/79 24/50/79 23/65/80
f 56/60/81 22/48/81 55/58/81
f 55/58/82 3/38/82 19/37/82
f 52/55/83 19/37/83 18/66/84
f 17/35/85 52/55/85 18/66/86
f 26/1/1 28/10/87 27/2/2
f 27/2/4 28/10/88 30/4/5
f 6/6/7 26/1/89 25/3/8
f 1/8/90 7/9/90 26/1/90
f 7/9/11 8/67/91 28/10/11
f 28/10/13 8/67/92 9/11/13
f 30/4/93 9/11/93 2/12/93
f 29/5/16 30/4/94 10/13/17
f 32/15/19 34/23/95 33/16/20
f 33/16/22 34/23/96 36/18/23
f 10/13/25 32/21/97 31/20/26
f 2/12/98 12/62/98 32/21/98
f 12/22/29 13/61/99 34/23/29
f 34/23/31 13/61/100 14/24/31
f 36/25/101 14/68/101 4/26/101
f 35/28/34 36/25/102 15/27/35
f 38/30/37 40/36/103 39/31/38
f 39/31/40 40/36/104 42/33/41
f 15/27/43 38/30/105 37/32/44
f 4/26/106 17/35/106 38/30/106
f 17/35/47 18/66/107 40/36/47
f 40/36/48 18/66/108 19/37/48
f 42/33/109 19/37/109 3/38/109
f 41/34/50 42/33/110 20/39/51
f 44/41/111 46/49/111 45/42/111
f 45/42/54 46/49/112 48/44/55
f 20/39/113 44/47/113 43/46/113
f 3/38/114 22/69/114 44/47/114
f 22/48/115 23/65/115 46/49/115
f 46/49/116 23/65/116 24/50/116
f 48/51/117 24/64/117 1/8/117
f 47/52/118 48/51/118 6/6/118
f 49/53/63 50/57/119 53/54/63
f 51/56/65 54/63/120 53/54/65
f 53/54/67 56/60/121 55/58/67
f 53/54/69 54/63/122 57/59/69
f 4/26/123 14/68/123 49/53/123
f 14/24/72 13/61/124 50/57/72
f 12/22/73 51/56/125 50/57/73
f 2/12/126 9/11/126 51/56/126
f 9/11/76 8/67/127 54/63/76
f 54/63/77 8/67/128 7/9/77
f 57/59/129 7/9/129 1/8/129
f 56/60/79 57/59/130 24/50/79
f 56/60/81 23/65/131 22/48/81
f 55/58/132 22/69/132 3/38/132
f 52/55/83 55/58/133 19/37/83
f 17/35/85 49/53/134 52/55/85
f 137/70/135 157/71/135 161/72/135
f 138/73/136 149/74/136 153/75/136
f 162/76/137 94/77/137 158/78/137
f 144/79/138 150/80/138 154/81/138
f 124/82/139 120/83/139 127/84/139
f 125/85/140 156/86/140 160/87/140
f 152/88/141 89/89/141 148/90/141
f 123/91/142 130/92/142 134/93/142
f 135/94/143 131/95/143 140/96/143
f 141/97/144 132/98/144 146/99/144
f 112/100/145 129/101/145 133/102/145
f 159/103/146 76/104/146 75/105/146
f 121/106/147 75/105/147 117/107/147
f 145/108/148 93/109/148 118/110/148
f 139/111/149 90/112/149 119/113/149
f 118/110/150 115/114/150 121/106/150
f 158/78/151 114/115/151 159/103/151
f 95/116/152 151/117/152 150/80/152
f 71/118/153 133/102/153 132/98/153
f 105/119/154 82/120/155 104/121/156
f 100/122/157 63/123/157 101/124/157
f 101/124/158 64/125/158 102/126/158
f 122/127/159 120/83/159 62/128/159
f 116/129/160 122/127/160 59/130/160
f 82/120/161 103/131/162 104/121/163
f 83/132/164 98/133/165 103/131/166
f 128/134/167 123/91/167 134/93/167
f 147/135/168 126/136/169 152/88/170
f 68/137/171 160/87/172 155/138/173
f 69/139/174 127/84/174 116/129/174
f 67/140/175 134/93/175 126/136/175
f 132/98/176 113/141/176 95/116/176
f 103/131/177 61/142/177 128/134/177
f 133/102/178 77/143/178 113/141/178
f 146/99/179 95/116/179 144/79/179
f 140/96/180 92/144/180 138/73/180
f 126/136/181 130/92/181 89/89/181
f 130/92/182 138/73/182 89/89/182
f 145/108/183 118/110/183 63/123/183
f 120/83/184 136/145/184 139/111/184
f 73/146/185 140/96/185 130/92/185
f 148/90/186 138/73/186 153/75/186
f 88/147/187 161/72/187 156/86/187
f 131/95/188 144/79/188 92/144/188
f 79/148/189 102/126/190 78/149/191
f 119/113/192 142/150/192 145/108/192
f 72/151/193 146/99/193 131/95/193
f 92/144/194 154/81/195 149/74/196
f 157/71/197 143/152/197 162/76/197
f 149/74/198 143/153/198 91/154/198
f 88/147/199 153/75/199 137/70/199
f 68/137/171 152/88/170 125/85/200
f 150/80/201 114/155/201 94/156/201
f 108/157/202 73/146/202 123/91/202
f 125/85/203 148/90/203 88/147/203
f 154/81/204 94/156/204 143/153/204
f 137/70/205 149/74/205 91/154/205
f 90/112/206 162/76/206 142/150/206
f 156/86/207 136/145/207 87/158/207
f 155/138/208 124/82/208 69/139/208
f 93/109/209 159/103/209 115/114/209
f 160/87/210 87/158/210 124/82/210
f 142/150/211 158/78/211 93/109/211
f 136/145/212 157/71/213 90/112/214
f 191/159/215 195/160/216 194/161/217
f 193/162/218 195/160/218 192/163/219
f 195/160/220 197/164/221 194/161/222
f 195/160/223 199/165/223 198/166/224
f 167/167/225 192/163/225 191/159/225
f 169/168/226 192/163/226 168/169/227
f 163/170/228 193/162/228 169/168/228
f 170/171/229 196/172/229 193/162/229
f 196/172/230 172/173/230 199/165/230
f 199/165/231 164/174/231 173/175/231
f 198/166/232 173/175/232 174/176/233
f 198/166/234 175/177/234 197/164/234
f 200/178/235 204/179/236 203/180/237
f 202/181/238 204/179/238 201/182/239
f 204/179/240 206/183/241 203/180/242
f 204/179/243 208/184/243 207/185/244
f 175/177/245 201/186/245 200/187/245
f 173/175/246 201/186/246 174/176/247
f 164/174/248 202/188/248 173/175/248
f 176/189/249 205/190/249 202/181/250
f 205/190/251 178/191/251 208/184/252
f 208/192/253 166/193/253 179/194/253
f 207/195/254 179/194/254 180/196/255
f 207/195/256 181/197/256 206/198/256
f 209/199/257 213/200/258 212/201/259
f 211/202/260 213/200/260 210/203/261
f 213/200/262 215/204/263 212/201/264
f 213/200/265 217/205/265 216/206/266
f 181/197/267 210/203/267 209/199/267
f 179/194/268 210/203/268 180/196/269
f 166/193/270 211/202/270 179/194/270
f 182/207/271 214/208/271 211/202/271
f 214/208/272 184/209/272 217/205/272
f 217/205/273 165/210/273 185/211/273
f 216/206/274 185/211/274 186/212/275
f 216/206/276 187/213/276 215/204/276
f 218/214/277 222/215/278 221/216/279
f 220/217/280 222/215/281 219/218/282
f 222/215/283 224/219/284 221/216/285
f 222/215/286 226/220/287 225/221/288
f 187/213/289 219/222/289 218/223/289
f 185/211/290 219/222/291 186/212/292
f 165/210/293 220/224/293 185/211/293
f 188/225/294 223/226/295 220/217/296
f 223/226/297 190/227/298 226/220/299
f 226/228/300 163/170/300 169/168/300
f 225/229/301 169/168/302 168/169/303
f 225/229/304 167/167/304 224/230/304
f 227/231/305 231/232/305 230/233/306
f 229/234/307 231/232/307 228/235/308
f 231/232/309 233/236/309 230/233/310
f 231/232/311 235/237/311 234/238/312
f 166/193/313 227/231/313 182/207/313
f 178/191/314 228/235/314 227/231/314
f 176/189/315 228/235/315 177/239/316
f 164/174/317 229/234/317 176/240/317
f 172/173/318 232/241/318 229/234/318
f 232/241/319 170/171/319 235/237/319
f 235/237/320 163/170/320 190/242/320
f 234/238/321 190/227/321 189/243/322
f 234/238/323 188/225/323 233/236/323
f 233/236/324 165/210/324 184/209/324
f 230/233/325 184/209/326 183/244/327
f 182/207/328 230/233/329 183/244/330
f 209/245/331 70/246/331 181/247/331
f 70/246/332 206/183/333 181/247/334
f 83/132/335 203/180/336 206/183/337
f 203/180/338 81/248/339 200/178/340
f 200/178/341 66/249/341 175/250/342
f 66/249/343 197/251/343 175/250/343
f 197/251/344 79/148/344 194/252/344
f 194/252/345 78/149/345 191/253/345
f 191/253/346 65/254/346 167/255/346
f 65/254/347 224/256/348 167/255/349
f 86/257/350 221/258/351 224/256/352
f 221/259/353 84/260/354 218/261/355
f 218/261/356 74/262/357 187/263/358
f 74/262/359 215/264/359 187/263/359
f 80/265/360 101/124/360 79/148/360
f 139/111/361 119/113/361 62/128/361
f 117/107/362 58/266/362 64/125/362
f 151/117/363 77/143/363 76/267/363
f 78/149/364 96/268/364 65/254/364
f 102/126/365 58/266/365 96/268/365
f 96/268/366 86/257/366 65/254/366
f 58/266/367 109/269/367 96/268/367
f 109/269/368 85/270/368 86/257/368
f 111/271/369 85/272/369 110/273/369
f 99/274/370 84/260/370 111/271/370
f 106/275/371 60/276/371 112/100/371
f 107/277/372 71/118/372 141/97/372
f 108/157/373 72/151/373 135/94/373
f 111/271/374 77/143/374 129/101/374
f 77/143/375 110/273/375 76/267/375
f 110/278/376 75/105/376 76/104/376
f 97/279/377 81/248/377 105/119/377
f 80/265/378 97/279/378 100/122/378
f 97/279/379 59/130/379 122/127/379
f 59/130/380 97/279/380 105/119/380
f 104/121/381 68/137/382 155/138/383
f 103/131/384 67/140/384 147/135/384
f 137/70/385 91/154/385 157/71/385
f 138/73/386 92/144/194 149/74/196
f 162/76/387 143/152/387 94/77/387
f 144/79/388 95/116/388 150/80/388
f 124/82/389 87/158/389 120/83/389
f 125/85/390 88/147/390 156/86/390
f 152/88/391 126/136/391 89/89/391
f 123/91/392 73/146/392 130/92/392
f 135/94/393 72/151/393 131/95/393
f 141/97/394 71/118/394 132/98/394
f 112/100/395 60/276/395 129/101/395
f 75/105/396 115/114/396 159/103/396
f 159/103/397 114/115/397 76/104/397
f 121/106/398 115/114/398 75/105/398
f 145/108/399 142/150/399 93/109/399
f 139/111/400 136/145/400 90/112/400
f 118/110/401 93/109/401 115/114/401
f 158/78/402 94/77/402 114/115/402
f 95/116/403 113/141/403 151/117/403
f 71/118/404 112/100/404 133/102/404
f 105/119/154 81/248/405 82/120/155
f 100/122/406 62/128/406 63/123/406
f 101/124/407 63/123/407 64/125/407
f 122/127/408 127/84/408 120/83/408
f 116/129/409 127/84/409 122/127/409
f 82/120/161 83/132/410 103/131/162
f 83/132/164 70/246/332 98/133/165
f 128/134/411 61/142/411 123/91/411
f 147/135/168 67/140/412 126/136/169
f 68/137/171 125/85/200 160/87/172
f 69/139/413 124/82/413 127/84/413
f 67/140/414 128/134/414 134/93/414
f 132/98/415 133/102/415 113/141/415
f 128/134/416 67/140/416 103/131/416
f 103/131/417 98/133/417 61/142/417
f 133/102/418 129/101/418 77/143/418
f 146/99/419 132/98/419 95/116/419
f 140/96/420 131/95/420 92/144/420
f 126/136/421 134/93/421 130/92/421
f 130/92/422 140/96/422 138/73/422
f 64/125/423 63/123/423 118/110/423
f 63/123/183 119/113/183 145/108/183
f 120/83/424 87/158/424 136/145/424
f 73/146/425 135/94/425 140/96/425
f 148/90/426 89/89/426 138/73/426
f 88/147/427 137/70/427 161/72/427
f 131/95/428 146/99/428 144/79/428
f 79/148/189 101/124/429 102/126/190
f 119/113/430 90/112/430 142/150/430
f 72/151/431 141/97/431 146/99/431
f 92/144/432 144/79/432 154/81/432
f 157/71/433 91/154/433 143/152/433
f 149/74/434 154/81/434 143/153/434
f 88/147/435 148/90/435 153/75/435
f 68/137/171 147/135/168 152/88/170
f 150/80/436 151/117/436 114/155/436
f 123/91/437 61/142/437 98/133/437
f 98/133/438 108/157/438 123/91/438
f 125/85/439 152/88/439 148/90/439
f 154/81/440 150/80/440 94/156/440
f 137/70/441 153/75/441 149/74/441
f 90/112/214 157/71/213 162/76/442
f 156/86/443 161/72/443 136/145/443
f 155/138/444 160/87/444 124/82/444
f 93/109/445 158/78/445 159/103/445
f 160/87/446 156/86/446 87/158/446
f 142/150/447 162/76/447 158/78/447
f 136/145/448 161/72/448 157/71/448
f 191/159/215 192/163/449 195/160/216
f 193/162/218 196/172/450 195/160/218
f 195/160/220 198/166/451 197/164/221
f 195/160/223 196/172/452 199/165/223
f 167/167/453 168/169/453 192/163/453
f 169/168/226 193/162/226 192/163/226
f 163/170/454 170/171/454 193/162/454
f 170/171/229 171/280/455 196/172/229
f 196/172/230 171/280/456 172/173/230
f 199/165/457 172/173/457 164/174/457
f 198/166/232 199/165/232 173/175/232
f 198/166/458 174/176/458 175/177/458
f 200/178/235 201/182/459 204/179/236
f 202/181/238 205/190/460 204/179/238
f 204/179/240 207/185/461 206/183/241
f 204/179/243 205/190/462 208/184/243
f 175/177/463 174/176/463 201/186/463
f 173/175/246 202/188/464 201/186/246
f 164/174/465 176/240/465 202/188/465
f 176/189/249 177/239/466 205/190/249
f 205/190/251 177/239/467 178/191/251
f 208/192/468 178/281/468 166/193/468
f 207/195/254 208/192/469 179/194/254
f 207/195/470 180/196/470 181/197/470
f 209/199/257 210/203/471 213/200/258
f 211/202/260 214/208/472 213/200/260
f 213/200/262 216/206/473 215/204/263
f 213/200/265 214/208/474 217/205/265
f 181/197/475 180/196/475 210/203/475
f 179/194/268 211/202/476 210/203/268
f 166/193/477 182/207/477 211/202/477
f 182/207/271 183/244/478 214/208/271
f 214/208/272 183/244/479 184/209/272
f 217/205/480 184/209/480 165/210/480
f 216/206/274 217/205/481 185/211/274
f 216/206/482 186/212/482 187/213/482
f 218/214/277 219/218/483 222/215/278
f 220/217/280 223/226/484 222/215/281
f 222/215/283 225/221/485 224/219/284
f 222/215/286 223/226/486 226/220/287
f 187/213/487 186/212/487 219/222/487
f 185/211/290 220/224/488 219/222/291
f 165/210/489 188/282/489 220/224/489
f 188/225/294 189/243/490 223/226/295
f 223/226/297 189/243/491 190/227/298
f 226/228/492 190/242/492 163/170/492
f 225/229/301 226/228/493 169/168/302
f 225/229/494 168/169/494 167/167/494
f 227/231/305 228/235/495 231/232/305
f 229/234/307 232/241/496 231/232/307
f 231/232/309 234/238/497 233/236/309
f 231/232/311 232/241/498 235/237/311
f 166/193/499 178/281/499 227/231/499
f 178/191/314 177/239/500 228/235/314
f 176/189/315 229/234/501 228/235/315
f 164/174/502 172/173/502 229/234/502
f 172/173/318 171/280/503 232/241/318
f 232/241/319 171/280/504 170/171/319
f 235/237/505 170/171/505 163/170/505
f 234/238/321 235/237/506 190/227/321
f 234/238/323 189/243/507 188/225/323
f 233/236/508 188/282/508 165/210/508
f 230/233/325 233/236/325 184/209/326
f 182/207/328 227/231/329 230/233/329
f 70/246/332 83/132/164 206/183/333
f 83/132/335 82/120/509 203/180/336
f 203/180/338 82/120/510 81/248/339
f 200/178/341 81/248/511 66/249/341
f 66/249/512 80/265/513 197/251/514
f 197/251/515 80/265/515 79/148/515
f 194/252/516 79/148/516 78/149/516
f 191/253/517 78/149/517 65/254/517
f 65/254/347 86/257/518 224/256/348
f 86/257/350 85/270/519 221/258/351
f 221/259/353 85/272/520 84/260/354
f 218/261/356 84/260/521 74/262/357
f 80/265/522 100/122/522 101/124/522
f 63/123/523 62/128/523 119/113/523
f 62/128/524 120/83/524 139/111/524
f 118/110/525 121/106/525 64/125/525
f 121/106/526 117/107/526 64/125/526
f 76/267/527 114/155/527 151/117/527
f 151/117/528 113/141/528 77/143/528
f 78/149/529 102/126/529 96/268/529
f 102/126/530 64/125/530 58/266/530
f 96/268/531 109/269/531 86/257/531
f 58/266/532 75/105/532 109/269/532
f 109/269/533 110/278/533 85/270/533
f 111/271/534 84/260/534 85/272/534
f 99/274/535 74/262/535 84/260/535
f 112/100/371 71/118/371 106/275/371
f 106/275/536 99/274/536 60/276/536
f 141/97/372 72/151/372 107/277/372
f 107/277/537 106/275/537 71/118/537
f 135/94/373 73/146/538 108/157/373
f 108/157/539 107/277/539 72/151/539
f 129/101/374 60/276/374 111/271/374
f 60/276/540 99/274/540 111/271/540
f 77/143/541 111/271/541 110/273/541
f 110/278/542 109/269/542 75/105/542
f 97/279/543 66/249/543 81/248/543
f 80/265/513 66/249/512 97/279/544
f 122/127/545 62/128/545 100/122/545
f 100/122/546 97/279/546 122/127/546
f 69/139/547 116/129/547 105/119/547
f 116/129/548 59/130/548 105/119/548
f 155/138/549 69/139/549 105/119/549
f 105/119/550 104/121/381 155/138/383
f 147/135/551 68/137/552 104/121/553
f 104/121/553 103/131/554 147/135/551
f 212/283/555 215/284/556 239/285/556
f 238/286/557 47/287/557 5/288/557
f 209/289/558 243/290/559 70/291/560
f 108/292/561 241/293/561 242/294/561
f 240/295/562 242/294/562 16/296/562
f 41/297/563 236/298/564 240/295/565
f 47/287/566 247/299/566 45/300/566
f 245/301/567 106/302/567 244/303/567
f 43/304/568 236/298/568 21/305/568
f 242/294/569 35/19/569 16/296/569
f 237/306/570 244/303/570 236/298/570
f 45/300/571 237/306/571 43/304/571
f 238/286/572 248/307/572 247/299/572
f 245/301/573 247/299/573 248/307/573
f 245/308/574 74/262/575 99/274/576
f 240/295/577 244/303/578 107/309/579
f 246/310/580 238/286/581 215/284/582
f 243/290/559 98/311/583 70/291/560
f 11/312/584 209/289/584 29/313/584
f 31/17/585 243/290/585 11/312/585
f 33/16/586 35/19/586 241/293/586
f 239/285/556 25/314/555 212/283/555
f 25/3/587 27/2/587 212/315/587
f 27/2/588 29/5/588 212/315/588
f 29/313/589 209/289/589 212/316/589
f 5/288/590 25/314/590 239/285/590
f 239/285/591 238/286/591 5/288/591
f 108/292/592 98/311/592 241/293/592
f 16/296/593 37/317/593 240/295/593
f 37/317/594 39/318/594 240/295/594
f 240/295/565 39/318/595 41/297/563
f 41/297/596 21/305/596 236/298/596
f 47/287/597 238/286/597 247/299/597
f 245/308/598 99/274/598 106/275/598
f 43/304/599 237/306/599 236/298/599
f 242/294/600 241/293/600 35/19/600
f 237/306/601 245/301/601 244/303/601
f 45/300/602 247/299/602 237/306/602
f 238/286/603 246/310/603 248/307/603
f 245/301/604 237/306/604 247/299/604
f 245/308/574 246/319/580 74/262/575
f 107/309/579 108/292/605 242/294/606
f 242/294/606 240/295/577 107/309/579
f 240/295/577 236/298/607 244/303/578
f 244/303/578 106/302/608 107/309/579
f 239/285/609 215/284/582 238/286/581
f 215/264/582 74/262/610 246/319/580
f 243/290/559 241/293/611 98/311/583
f 11/312/612 243/290/612 209/289/612
f 243/290/613 31/17/613 241/293/613
f 31/17/614 33/16/614 241/293/614
