# Blender 4.4.1
# www.blender.org
mtllib enemyParticle.mtl
o 円錐
v 0.000000 -0.308371 0.644374
v -0.500000 -0.308371 -0.355626
v 0.500000 -0.308371 -0.355626
v 0.000000 0.691629 -0.022293
vn -0.8571 0.2857 0.4286
vn -0.0000 -1.0000 -0.0000
vn -0.0000 0.3162 -0.9487
vn 0.8571 0.2857 0.4286
vt 0.250000 0.490000
vt 0.250000 0.250000
vt 0.457846 0.130000
vt 0.750000 0.490000
vt 0.957846 0.130000
vt 0.542154 0.130000
vt 0.042154 0.130000
s 0
usemtl マテリアル
f 1/1/1 4/2/1 2/3/1
f 1/4/2 2/5/2 3/6/2
f 2/3/3 4/2/3 3/7/3
f 3/7/4 4/2/4 1/1/4
