# Blender 4.4.1
# www.blender.org
mtllib eyeEnemy.mtl
o eyeEnemy
v -0.298705 -0.298705 0.298705
v -0.298705 0.298705 0.298705
v -0.298705 -0.298705 -0.298705
v -0.298705 0.298705 -0.298705
v 0.298705 -0.298705 0.298705
v 0.298705 0.298705 0.298705
v 0.298705 -0.298705 -0.298705
v 0.298705 0.298705 -0.298705
v -0.342276 -0.342276 -0.177222
v -0.364162 -0.364162 -0.000000
v -0.342276 -0.342276 0.177222
v -0.342276 -0.177222 0.342276
v -0.364162 -0.000000 0.364162
v -0.342276 0.177222 0.342276
v -0.342276 0.342276 0.177222
v -0.364162 0.364162 0.000000
v -0.342276 0.342276 -0.177222
v -0.342276 0.177222 -0.342276
v -0.364162 0.000000 -0.364162
v -0.342276 -0.177222 -0.342276
v 0.177222 -0.342276 -0.342276
v 0.000000 -0.364162 -0.364162
v -0.177222 -0.342276 -0.342276
v -0.177222 0.342276 -0.342276
v 0.000000 0.364162 -0.364162
v 0.177222 0.342276 -0.342276
v 0.342276 0.177222 -0.342276
v 0.364162 0.000000 -0.364162
v 0.342276 -0.177222 -0.342276
v 0.342276 -0.342276 0.177222
v 0.364162 -0.364162 -0.000000
v 0.342276 -0.342276 -0.177222
v 0.342276 0.342276 -0.177222
v 0.364162 0.364162 0.000000
v 0.342276 0.342276 0.177222
v 0.342276 0.177222 0.342276
v 0.364162 -0.000000 0.364162
v 0.342276 -0.177222 0.342276
v -0.177222 -0.342276 0.342276
v 0.000000 -0.364162 0.364162
v 0.177222 -0.342276 0.342276
v 0.177222 0.342276 0.342276
v 0.000000 0.364162 0.364162
v -0.177222 0.342276 0.342276
v -0.435506 -0.188875 0.188875
v -0.467072 -0.000000 0.199021
v -0.435506 0.188875 0.188875
v -0.467072 -0.199021 -0.000000
v -0.501529 0.000000 0.000000
v -0.467072 0.199021 0.000000
v -0.435506 -0.188875 -0.188875
v -0.467072 0.000000 -0.199021
v -0.435506 0.188875 -0.188875
v -0.188875 -0.188875 -0.435506
v -0.199021 0.000000 -0.467072
v -0.188875 0.188875 -0.435506
v 0.000000 -0.199021 -0.467072
v 0.000000 0.000000 -0.501529
v 0.000000 0.199021 -0.467072
v 0.188875 -0.188875 -0.435506
v 0.199021 0.000000 -0.467072
v 0.188875 0.188875 -0.435506
v 0.435506 -0.188875 -0.188875
v 0.467072 0.000000 -0.199021
v 0.435506 0.188875 -0.188875
v 0.467072 -0.199021 -0.000000
v 0.501529 0.000000 0.000000
v 0.467072 0.199021 0.000000
v 0.435506 -0.188875 0.188875
v 0.467072 -0.000000 0.199021
v 0.435506 0.188875 0.188875
v 0.188875 -0.188875 0.448853
v 0.199021 -0.000000 0.460448
v 0.188875 0.188875 0.448853
v 0.000000 -0.199021 0.467072
v 0.000000 -0.000000 0.469768
v 0.000000 0.199021 0.467072
v -0.188875 -0.188875 0.448853
v -0.199021 -0.000000 0.460448
v -0.188875 0.188875 0.448853
v -0.188875 -0.435506 -0.188875
v 0.000000 -0.467072 -0.199021
v 0.188875 -0.435506 -0.188875
v -0.199021 -0.467072 -0.000000
v 0.000000 -0.501529 -0.000000
v 0.199021 -0.467072 -0.000000
v -0.188875 -0.435506 0.188875
v 0.000000 -0.467072 0.199021
v 0.188875 -0.435506 0.188875
v 0.188875 0.435506 -0.188875
v 0.000000 0.467072 -0.199021
v -0.188875 0.435506 -0.188875
v 0.199021 0.467072 0.000000
v 0.000000 0.501529 0.000000
v -0.199021 0.467072 0.000000
v 0.188875 0.435506 0.188875
v 0.000000 0.467072 0.199021
v -0.188875 0.435506 0.188875
vn -0.9708 -0.1697 0.1697
vn -0.9708 -0.1681 0.1713
vn -0.9708 0.1697 0.1697
vn -0.9708 0.1713 0.1681
vn -0.9708 -0.1697 -0.1697
vn -0.9708 -0.1681 -0.1713
vn -0.9708 0.1697 -0.1697
vn -0.9708 0.1713 -0.1681
vn -0.7501 -0.4896 0.4446
vn -0.8367 -0.1678 0.5213
vn -0.8367 0.1678 0.5213
vn -0.8367 0.1677 0.5214
vn -0.7501 0.4446 0.4896
vn -0.8367 0.5213 0.1678
vn -0.8367 0.5213 -0.1678
vn -0.7501 0.4446 -0.4896
vn -0.8367 0.1678 -0.5213
vn -0.8367 0.1677 -0.5214
vn -0.8367 -0.1678 -0.5213
vn -0.7501 -0.4896 -0.4446
vn -0.8367 -0.5213 -0.1678
vn -0.8367 -0.5214 -0.1677
vn -0.8367 -0.5213 0.1678
vn -0.8367 -0.5214 0.1677
vn -0.1697 -0.1697 -0.9708
vn -0.1713 -0.1681 -0.9708
vn -0.1697 0.1697 -0.9708
vn -0.1681 0.1713 -0.9708
vn 0.1697 -0.1697 -0.9708
vn 0.1713 -0.1681 -0.9708
vn 0.1697 0.1697 -0.9708
vn 0.1681 0.1713 -0.9708
vn -0.4446 -0.4896 -0.7501
vn -0.5213 -0.1678 -0.8367
vn -0.5213 0.1678 -0.8367
vn -0.5214 0.1677 -0.8367
vn -0.4896 0.4446 -0.7501
vn -0.1678 0.5213 -0.8367
vn 0.1678 0.5213 -0.8367
vn 0.4896 0.4446 -0.7501
vn 0.5213 0.1678 -0.8367
vn 0.5214 0.1677 -0.8367
vn 0.5213 -0.1678 -0.8367
vn 0.4446 -0.4896 -0.7501
vn 0.1678 -0.5213 -0.8367
vn 0.1677 -0.5214 -0.8367
vn -0.1678 -0.5213 -0.8367
vn -0.1677 -0.5214 -0.8367
vn 0.9708 -0.1697 -0.1697
vn 0.9708 -0.1681 -0.1713
vn 0.9708 0.1697 -0.1697
vn 0.9708 0.1713 -0.1681
vn 0.9708 -0.1697 0.1697
vn 0.9708 -0.1681 0.1713
vn 0.9708 0.1697 0.1697
vn 0.9708 0.1713 0.1681
vn 0.7501 -0.4896 -0.4446
vn 0.8367 -0.1678 -0.5213
vn 0.8367 0.1678 -0.5213
vn 0.8367 0.1677 -0.5214
vn 0.7501 0.4446 -0.4896
vn 0.8367 0.5213 -0.1678
vn 0.8367 0.5213 0.1678
vn 0.7501 0.4446 0.4896
vn 0.8367 0.1678 0.5213
vn 0.8367 0.1677 0.5214
vn 0.8367 -0.1678 0.5213
vn 0.7501 -0.4896 0.4446
vn 0.8367 -0.5213 0.1678
vn 0.8367 -0.5214 0.1677
vn 0.8367 -0.5213 -0.1678
vn 0.8367 -0.5214 -0.1677
vn 0.0967 -0.0135 0.9952
vn 0.0467 0.0637 0.9969
vn -0.0967 -0.0135 0.9952
vn -0.0467 0.0637 0.9969
vn 0.4485 -0.5327 0.7177
vn 0.5728 -0.0808 0.8157
vn 0.4967 0.1665 0.8518
vn 0.5327 0.4485 0.7177
vn 0.1091 0.5727 0.8124
vn -0.1091 0.5727 0.8124
vn -0.5327 0.4485 0.7177
vn -0.4967 0.1665 0.8518
vn -0.5728 -0.0808 0.8157
vn -0.4485 -0.5327 0.7177
vn -0.1677 -0.5214 0.8367
vn 0.1677 -0.5214 0.8367
vn -0.1697 -0.9708 -0.1697
vn -0.1681 -0.9708 -0.1713
vn 0.1697 -0.9708 -0.1697
vn 0.1713 -0.9708 -0.1681
vn -0.1697 -0.9708 0.1697
vn -0.1681 -0.9708 0.1713
vn 0.1697 -0.9708 0.1697
vn 0.1713 -0.9708 0.1681
vn -0.4896 -0.7501 -0.4446
vn -0.1678 -0.8367 -0.5213
vn 0.1678 -0.8367 -0.5213
vn 0.1677 -0.8367 -0.5214
vn 0.4446 -0.7501 -0.4896
vn 0.5213 -0.8367 -0.1678
vn 0.5213 -0.8367 0.1678
vn 0.4446 -0.7501 0.4896
vn 0.1678 -0.8367 0.5213
vn 0.1677 -0.8367 0.5214
vn -0.1678 -0.8367 0.5213
vn -0.4896 -0.7501 0.4446
vn -0.5213 -0.8367 0.1678
vn -0.5214 -0.8367 0.1677
vn -0.5213 -0.8367 -0.1678
vn -0.5214 -0.8367 -0.1677
vn 0.1697 0.9708 -0.1697
vn 0.1681 0.9708 -0.1713
vn -0.1697 0.9708 -0.1697
vn -0.1713 0.9708 -0.1681
vn 0.1697 0.9708 0.1697
vn 0.1681 0.9708 0.1713
vn -0.1697 0.9708 0.1697
vn -0.1713 0.9708 0.1681
vn 0.4896 0.7501 -0.4446
vn 0.1678 0.8367 -0.5213
vn -0.1678 0.8367 -0.5213
vn -0.1677 0.8367 -0.5214
vn -0.4446 0.7501 -0.4896
vn -0.5213 0.8367 -0.1678
vn -0.5213 0.8367 0.1678
vn -0.4446 0.7501 0.4896
vn -0.1678 0.8367 0.5213
vn -0.1677 0.8367 0.5214
vn 0.1678 0.8367 0.5213
vn 0.4896 0.7501 0.4446
vn 0.5213 0.8367 0.1678
vn 0.5214 0.8367 0.1677
vn 0.5213 0.8367 -0.1678
vn 0.5214 0.8367 -0.1677
vn -0.9708 -0.1713 0.1681
vn -0.9708 0.1681 0.1713
vn -0.9708 -0.1713 -0.1681
vn -0.9708 0.1681 -0.1713
vn -0.7501 -0.4446 0.4896
vn -0.8367 -0.1677 0.5214
vn -0.7501 0.4896 0.4446
vn -0.8367 0.5214 0.1677
vn -0.8367 0.5214 -0.1677
vn -0.7501 0.4896 -0.4446
vn -0.8367 -0.1677 -0.5214
vn -0.7501 -0.4446 -0.4896
vn -0.1681 -0.1713 -0.9708
vn -0.1713 0.1681 -0.9708
vn 0.1681 -0.1713 -0.9708
vn 0.1713 0.1681 -0.9708
vn -0.4896 -0.4446 -0.7501
vn -0.5214 -0.1677 -0.8367
vn -0.4446 0.4896 -0.7501
vn -0.1677 0.5214 -0.8367
vn 0.1677 0.5214 -0.8367
vn 0.4446 0.4896 -0.7501
vn 0.5214 -0.1677 -0.8367
vn 0.4896 -0.4446 -0.7501
vn 0.9708 -0.1713 -0.1681
vn 0.9708 0.1681 -0.1713
vn 0.9708 -0.1713 0.1681
vn 0.9708 0.1681 0.1713
vn 0.7501 -0.4446 -0.4896
vn 0.8367 -0.1677 -0.5214
vn 0.7501 0.4896 -0.4446
vn 0.8367 0.5214 -0.1677
vn 0.8367 0.5214 0.1677
vn 0.7501 0.4896 0.4446
vn 0.8367 -0.1677 0.5214
vn 0.7501 -0.4446 0.4896
vn 0.0467 -0.0637 0.9969
vn 0.0967 0.0135 0.9952
vn -0.0467 -0.0637 0.9969
vn -0.0967 0.0135 0.9952
vn 0.5327 -0.4485 0.7177
vn 0.4967 -0.1665 0.8518
vn 0.5728 0.0808 0.8157
vn 0.4485 0.5327 0.7177
vn 0.1677 0.5214 0.8367
vn -0.1677 0.5214 0.8367
vn -0.4485 0.5327 0.7177
vn -0.5728 0.0808 0.8157
vn -0.4967 -0.1665 0.8518
vn -0.5327 -0.4485 0.7177
vn -0.1091 -0.5727 0.8124
vn 0.1091 -0.5727 0.8124
vn -0.1713 -0.9708 -0.1681
vn 0.1681 -0.9708 -0.1713
vn -0.1713 -0.9708 0.1681
vn 0.1681 -0.9708 0.1713
vn -0.4446 -0.7501 -0.4896
vn -0.1677 -0.8367 -0.5214
vn 0.4896 -0.7501 -0.4446
vn 0.5214 -0.8367 -0.1677
vn 0.5214 -0.8367 0.1677
vn 0.4896 -0.7501 0.4446
vn -0.1677 -0.8367 0.5214
vn -0.4446 -0.7501 0.4896
vn 0.1713 0.9708 -0.1681
vn -0.1681 0.9708 -0.1713
vn 0.1713 0.9708 0.1681
vn -0.1681 0.9708 0.1713
vn 0.4446 0.7501 -0.4896
vn 0.1677 0.8367 -0.5214
vn -0.4896 0.7501 -0.4446
vn -0.5214 0.8367 -0.1677
vn -0.5214 0.8367 0.1677
vn -0.4896 0.7501 0.4446
vn 0.1677 0.8367 0.5214
vn 0.4446 0.7501 0.4896
vt 0.070494 0.864917
vt 0.003435 0.808101
vt 0.068405 0.808245
vt 0.070559 0.260791
vt 0.003472 0.317573
vt 0.010817 0.249437
vt 0.070717 0.751627
vt 0.070726 0.374080
vt 0.011054 0.385697
vt 0.121188 0.901198
vt 0.123385 0.860279
vt 0.082599 0.918092
vt 0.010745 0.876241
vt 0.082692 0.207624
vt 0.028950 0.187355
vt 0.121272 0.224538
vt 0.123448 0.265457
vt 0.068442 0.317462
vt 0.123508 0.369323
vt 0.121353 0.410140
vt 0.082976 0.426991
vt 0.029577 0.447699
vt 0.011050 0.739981
vt 0.082992 0.698722
vt 0.121361 0.715591
vt 0.123497 0.756409
vt 0.123855 0.808323
vt 0.178974 0.626302
vt 0.241024 0.562879
vt 0.241024 0.626117
vt 0.178975 0.499456
vt 0.176187 0.562879
vt 0.303074 0.626302
vt 0.303074 0.499456
vt 0.305861 0.562879
vt 0.114050 0.649946
vt 0.157351 0.691551
vt 0.057642 0.618881
vt 0.057588 0.506819
vt 0.114011 0.475781
vt 0.182227 0.438830
vt 0.241024 0.499642
vt 0.299822 0.438831
vt 0.368039 0.475781
vt 0.360697 0.410141
vt 0.399074 0.426991
vt 0.424461 0.506820
vt 0.452473 0.447699
vt 0.424406 0.618881
vt 0.399055 0.698722
vt 0.367997 0.649947
vt 0.360686 0.715591
vt 0.324696 0.691551
vt 0.299823 0.686927
vt 0.241024 0.686825
vt 0.182225 0.686927
vt 0.411330 0.751628
vt 0.478612 0.808102
vt 0.413643 0.808246
vt 0.411323 0.374080
vt 0.478578 0.317573
vt 0.470995 0.385697
vt 0.411554 0.864917
vt 0.411490 0.260791
vt 0.471233 0.249437
vt 0.358550 0.756410
vt 0.470997 0.739982
vt 0.358542 0.369324
vt 0.413608 0.317462
vt 0.358602 0.265457
vt 0.360778 0.224538
vt 0.399358 0.207624
vt 0.453100 0.187355
vt 0.471302 0.876241
vt 0.399449 0.918092
vt 0.360860 0.901198
vt 0.358662 0.860279
vt 0.358193 0.808324
vt 0.304177 0.006910
vt 0.241025 0.069387
vt 0.241025 0.003435
vt 0.303163 0.132873
vt 0.307041 0.069919
vt 0.177873 0.006910
vt 0.178887 0.132873
vt 0.175008 0.069919
vt 0.368426 0.969844
vt 0.324774 0.925208
vt 0.426194 0.996565
vt 0.426062 0.129136
vt 0.368308 0.155888
vt 0.299911 0.195955
vt 0.241025 0.134161
vt 0.182139 0.195955
vt 0.113742 0.155888
vt 0.055988 0.129136
vt 0.055853 0.996565
vt 0.113621 0.969844
vt 0.157273 0.925208
vt 0.241024 0.994534
vt 0.181886 0.929790
vt 0.241024 0.930641
vt 0.300161 0.929790
vt 0.179312 0.747564
vt 0.241024 0.808413
vt 0.180823 0.808371
vt 0.302736 0.747565
vt 0.241024 0.747187
vt 0.179229 0.869179
vt 0.302819 0.869179
vt 0.241024 0.869735
vt 0.301225 0.808371
vt 0.302732 0.378193
vt 0.241025 0.317381
vt 0.301198 0.317392
vt 0.179318 0.378193
vt 0.241025 0.378578
vt 0.302754 0.256587
vt 0.179295 0.256587
vt 0.241025 0.256157
vt 0.241024 0.438935
vt 0.157331 0.434196
vt 0.180851 0.317392
vt 0.157370 0.200547
vt 0.241025 0.195661
vt 0.358159 0.317411
vt 0.028846 0.938333
vt 0.123890 0.317411
vt 0.029603 0.677988
vt 0.324718 0.434197
vt 0.452445 0.677989
vt 0.453201 0.938333
vt 0.324679 0.200547
vt 0.176916 0.992758
vt 0.305132 0.992759
s 1
usemtl マテリアル.002
f 45/1/1 49/2/1 48/3/2
f 47/4/3 49/5/3 46/6/4
f 49/2/5 51/7/5 48/3/6
f 49/5/7 53/8/7 52/9/8
f 1/10/9 45/1/9 11/11/9
f 12/12/10 46/13/10 45/1/10
f 14/14/11 46/6/11 13/15/12
f 2/16/13 47/4/13 14/14/13
f 15/17/14 50/18/14 47/4/14
f 50/18/15 17/19/15 53/8/15
f 53/8/16 4/20/16 18/21/16
f 52/9/17 18/21/17 19/22/18
f 52/23/19 20/24/19 51/7/19
f 51/7/20 3/25/20 9/26/20
f 48/3/21 9/26/21 10/27/22
f 11/11/23 48/3/23 10/27/24
f 54/28/25 58/29/25 57/30/26
f 56/31/27 58/29/27 55/32/28
f 58/29/29 60/33/29 57/30/30
f 58/29/31 62/34/31 61/35/32
f 3/25/33 54/36/33 23/37/33
f 20/24/34 55/38/34 54/36/34
f 18/21/35 55/39/35 19/22/36
f 4/20/37 56/40/37 18/21/37
f 24/41/38 59/42/38 56/31/38
f 59/42/39 26/43/39 62/34/39
f 62/44/40 8/45/40 27/46/40
f 61/47/41 27/46/41 28/48/42
f 61/49/43 29/50/43 60/51/43
f 60/51/44 7/52/44 21/53/44
f 57/30/45 21/54/45 22/55/46
f 23/56/47 57/30/47 22/55/48
f 63/57/49 67/58/49 66/59/50
f 65/60/51 67/61/51 64/62/52
f 67/58/53 69/63/53 66/59/54
f 67/61/55 71/64/55 70/65/56
f 7/52/57 63/57/57 32/66/57
f 29/50/58 64/67/58 63/57/58
f 27/46/59 64/62/59 28/48/60
f 8/45/61 65/60/61 27/46/61
f 33/68/62 68/69/62 65/60/62
f 68/69/63 35/70/63 71/64/63
f 71/64/64 6/71/64 36/72/64
f 70/65/65 36/72/65 37/73/66
f 70/74/67 38/75/67 69/63/67
f 69/63/68 5/76/68 30/77/68
f 66/59/69 30/77/69 31/78/70
f 32/66/71 66/59/71 31/78/72
f 72/79/73 76/80/73 75/81/73
f 74/82/74 76/80/74 73/83/74
f 76/80/75 78/84/75 75/81/75
f 76/80/76 80/85/76 79/86/76
f 5/76/77 72/87/77 41/88/77
f 38/75/78 73/89/78 72/87/78
f 36/72/79 73/90/79 37/73/79
f 6/71/80 74/91/80 36/72/80
f 42/92/81 77/93/81 74/82/81
f 77/93/82 44/94/82 80/85/82
f 80/95/83 2/16/83 14/14/83
f 79/96/84 14/14/84 13/15/84
f 79/97/85 12/12/85 78/98/85
f 78/98/86 1/10/86 39/99/86
f 75/100/87 39/101/87 40/102/87
f 41/103/88 75/100/88 40/102/88
f 81/104/89 85/105/89 84/106/90
f 83/107/91 85/105/91 82/108/92
f 85/105/93 87/109/93 84/106/94
f 85/105/95 89/110/95 88/111/96
f 3/25/97 81/104/97 9/26/97
f 23/56/98 82/108/98 81/104/98
f 21/54/99 82/108/99 22/55/100
f 7/52/101 83/107/101 21/53/101
f 32/66/102 86/112/102 83/107/102
f 86/112/103 30/77/103 89/110/103
f 89/110/104 5/76/104 41/88/104
f 88/111/105 41/103/105 40/102/106
f 88/111/107 39/101/107 87/109/107
f 87/109/108 1/10/108 11/11/108
f 84/106/109 11/11/109 10/27/110
f 9/26/111 84/106/111 10/27/112
f 90/113/113 94/114/113 93/115/114
f 92/116/115 94/114/115 91/117/116
f 94/114/117 96/118/117 93/115/118
f 94/114/119 98/119/119 97/120/120
f 8/45/121 90/113/121 33/68/121
f 26/43/122 91/117/122 90/113/122
f 24/41/123 91/117/123 25/121/124
f 4/20/125 92/116/125 24/122/125
f 17/19/126 95/123/126 92/116/126
f 95/123/127 15/17/127 98/119/127
f 98/119/128 2/16/128 44/124/128
f 97/120/129 44/94/129 43/125/130
f 97/120/131 42/92/131 96/118/131
f 96/118/132 6/71/132 35/70/132
f 93/115/133 35/70/133 34/126/134
f 33/68/135 93/115/135 34/126/136
f 45/1/1 46/13/137 49/2/1
f 47/4/3 50/18/138 49/5/3
f 49/2/5 52/23/139 51/7/5
f 49/5/7 50/18/140 53/8/7
f 1/10/141 12/12/141 45/1/141
f 12/12/10 13/127/142 46/13/10
f 14/14/11 47/4/11 46/6/11
f 2/16/143 15/17/143 47/4/143
f 15/17/14 16/128/144 50/18/14
f 50/18/15 16/128/145 17/19/15
f 53/8/146 17/19/146 4/20/146
f 52/9/17 53/8/17 18/21/17
f 52/23/19 19/129/147 20/24/19
f 51/7/148 20/24/148 3/25/148
f 48/3/21 51/7/21 9/26/21
f 11/11/23 45/1/23 48/3/23
f 54/28/25 55/32/149 58/29/25
f 56/31/27 59/42/150 58/29/27
f 58/29/29 61/35/151 60/33/29
f 58/29/31 59/42/152 62/34/31
f 3/25/153 20/24/153 54/36/153
f 20/24/34 19/129/154 55/38/34
f 18/21/35 56/40/35 55/39/35
f 4/20/155 24/122/155 56/40/155
f 24/41/38 25/121/156 59/42/38
f 59/42/39 25/121/157 26/43/39
f 62/44/158 26/130/158 8/45/158
f 61/47/41 62/44/41 27/46/41
f 61/49/43 28/131/159 29/50/43
f 60/51/160 29/50/160 7/52/160
f 57/30/45 60/33/45 21/54/45
f 23/56/47 54/28/47 57/30/47
f 63/57/49 64/67/161 67/58/49
f 65/60/51 68/69/162 67/61/51
f 67/58/53 70/74/163 69/63/53
f 67/61/55 68/69/164 71/64/55
f 7/52/165 29/50/165 63/57/165
f 29/50/58 28/131/166 64/67/58
f 27/46/59 65/60/59 64/62/59
f 8/45/167 33/68/167 65/60/167
f 33/68/62 34/126/168 68/69/62
f 68/69/63 34/126/169 35/70/63
f 71/64/170 35/70/170 6/71/170
f 70/65/65 71/64/65 36/72/65
f 70/74/67 37/132/171 38/75/67
f 69/63/172 38/75/172 5/76/172
f 66/59/69 69/63/69 30/77/69
f 32/66/71 63/57/71 66/59/71
f 72/79/173 73/83/173 76/80/173
f 74/82/174 77/93/174 76/80/174
f 76/80/175 79/86/175 78/84/175
f 76/80/176 77/93/176 80/85/176
f 5/76/177 38/75/177 72/87/177
f 38/75/178 37/132/178 73/89/178
f 36/72/179 74/91/179 73/90/179
f 6/71/180 42/133/180 74/91/180
f 42/92/181 43/125/181 77/93/181
f 77/93/182 43/125/182 44/94/182
f 80/95/183 44/124/183 2/16/183
f 79/96/184 80/95/184 14/14/184
f 79/97/185 13/127/185 12/12/185
f 78/98/186 12/12/186 1/10/186
f 75/100/187 78/134/187 39/101/187
f 41/103/188 72/135/188 75/100/188
f 81/104/89 82/108/189 85/105/89
f 83/107/91 86/112/190 85/105/91
f 85/105/93 88/111/191 87/109/93
f 85/105/95 86/112/192 89/110/95
f 3/25/193 23/37/193 81/104/193
f 23/56/98 22/55/194 82/108/98
f 21/54/99 83/107/99 82/108/99
f 7/52/195 32/66/195 83/107/195
f 32/66/102 31/78/196 86/112/102
f 86/112/103 31/78/197 30/77/103
f 89/110/198 30/77/198 5/76/198
f 88/111/105 89/110/105 41/103/105
f 88/111/107 40/102/199 39/101/107
f 87/109/200 39/99/200 1/10/200
f 84/106/109 87/109/109 11/11/109
f 9/26/111 81/104/111 84/106/111
f 90/113/113 91/117/201 94/114/113
f 92/116/115 95/123/202 94/114/115
f 94/114/117 97/120/203 96/118/117
f 94/114/119 95/123/204 98/119/119
f 8/45/205 26/130/205 90/113/205
f 26/43/122 25/121/206 91/117/122
f 24/41/123 92/116/123 91/117/123
f 4/20/207 17/19/207 92/116/207
f 17/19/126 16/128/208 95/123/126
f 95/123/127 16/128/209 15/17/127
f 98/119/210 15/17/210 2/16/210
f 97/120/129 98/119/129 44/94/129
f 97/120/131 43/125/211 42/92/131
f 96/118/212 42/133/212 6/71/212
f 93/115/133 96/118/133 35/70/133
f 33/68/135 90/113/135 93/115/135
