# Blender 4.4.1
# www.blender.org
mtllib ghostBody.mtl
o Body
v -0.211311 0.210696 0.202088
v -0.211311 0.210696 -0.202088
v 0.211311 0.210696 0.202088
v 0.211311 0.210696 -0.202088
v -0.252545 -0.386368 0.255136
v -0.242134 0.125006 0.231566
v -0.242134 0.241429 0.119899
v -0.257617 0.256867 0.000000
v -0.242134 0.241429 -0.119899
v -0.242134 0.125006 -0.231566
v -0.302714 -0.408607 -0.311083
v -0.179157 -0.047385 0.326155
v 0.000000 -0.042614 0.349963
v -0.125371 0.241429 -0.231566
v 0.000000 0.256867 -0.246373
v 0.125371 0.241429 -0.231566
v 0.242134 0.125006 -0.231566
v 0.288471 -0.432625 -0.294088
v 0.179157 -0.047385 0.326155
v 0.341040 -0.047385 0.140466
v 0.242134 0.241429 -0.119899
v 0.257617 0.256867 0.000000
v 0.242134 0.241429 0.119899
v 0.242134 0.125006 0.231566
v 0.276949 -0.391953 0.255136
v 0.365935 -0.042614 -0.000000
v 0.341040 -0.047385 -0.140466
v 0.125371 0.241429 0.231566
v 0.000000 0.256867 0.246373
v -0.125371 0.241429 0.231566
v -0.390114 -0.408607 0.155168
v -0.308088 0.133226 0.127783
v 0.146877 -0.047385 -0.326155
v -0.374413 -0.381317 -0.000000
v -0.312372 0.140383 0.000000
v -0.393055 -0.446239 -0.165833
v -0.308088 0.133226 -0.127783
v 0.000000 -0.042614 -0.349963
v -0.165139 -0.374546 -0.325043
v -0.133615 0.133226 -0.294640
v 0.028808 -0.408607 -0.405092
v 0.000000 0.140383 -0.315997
v -0.146877 -0.047385 -0.326155
v 0.148556 -0.386218 -0.307398
v 0.133615 0.133226 -0.294640
v 0.406945 -0.442668 -0.148101
v 0.308088 0.133226 -0.127783
v -0.341040 -0.047385 -0.140466
v 0.363851 -0.374166 -0.000000
v 0.312371 0.140383 0.000000
v 0.406945 -0.432607 0.165833
v 0.308088 0.133226 0.127783
v -0.365935 -0.042614 -0.000000
v 0.150430 -0.408607 0.378771
v 0.162980 0.133226 0.294641
v 0.000000 -0.370727 0.370527
v 0.000000 0.140383 0.315997
v -0.341040 -0.047385 0.140466
v -0.154550 -0.390999 0.394908
v -0.162980 0.133226 0.294640
v 0.267184 -0.052865 0.255522
v 0.267184 -0.052865 -0.255522
v -0.267184 -0.052865 -0.255522
v -0.267184 -0.052865 0.255522
v 0.133615 0.307190 -0.127783
v 0.000000 0.329456 -0.134647
v -0.133615 0.307190 -0.127783
v 0.140793 0.329456 0.000000
v 0.000000 0.353761 0.000000
v -0.140793 0.329456 0.000000
v 0.133615 0.307190 0.127783
v 0.000000 0.329456 0.134648
v -0.133615 0.307190 0.127783
v -0.174889 0.222721 0.174889
v -0.174888 0.222721 -0.174889
v 0.174889 0.222720 0.174889
v 0.174889 0.222720 -0.174888
v -0.213693 0.225215 0.110645
v -0.227358 0.230025 0.000000
v -0.213693 0.225215 -0.110645
v -0.110645 0.225215 -0.213693
v 0.000000 0.228155 -0.227358
v 0.110645 0.225215 -0.213693
v 0.213693 0.225215 -0.110645
v 0.227358 0.230025 0.000000
v 0.213693 0.225215 0.110645
v 0.110645 0.225215 0.213693
v 0.000000 0.228155 0.227358
v -0.110645 0.225215 0.213694
v -0.235082 0.223766 0.235082
v -0.287243 0.226260 0.148727
v -0.305611 0.231070 0.000000
v -0.287243 0.226260 -0.148727
v -0.235082 0.223766 -0.235082
v -0.148727 0.226260 -0.287243
v 0.000000 0.229201 -0.305611
v 0.148727 0.226260 -0.287243
v 0.235082 0.223766 -0.235082
v 0.287243 0.226260 -0.148727
v 0.305611 0.231070 0.000000
v 0.287243 0.226260 0.148727
v 0.235082 0.223766 0.235082
v 0.148727 0.226260 0.287243
v 0.000000 0.229201 0.305611
v -0.148727 0.226260 0.287243
v -0.209062 0.162145 0.209062
v -0.209062 0.162145 -0.209062
v 0.209062 0.162145 0.209062
v 0.209062 0.162145 -0.209062
v -0.255449 0.164640 0.132265
v -0.271783 0.169450 0.000000
v -0.255449 0.164640 -0.132265
v -0.132265 0.164640 -0.255449
v 0.000000 0.167580 -0.271783
v 0.132265 0.164640 -0.255449
v 0.255449 0.164640 -0.132265
v 0.271783 0.169450 0.000000
v 0.255449 0.164640 0.132265
v 0.132265 0.164640 0.255449
v 0.000000 0.167580 0.271783
v -0.132265 0.164640 0.255449
v -0.235082 0.163191 0.235082
v -0.287243 0.165685 0.148727
v -0.305611 0.170495 0.000000
v -0.287243 0.165685 -0.148727
v -0.235082 0.163191 -0.235082
v -0.148727 0.165685 -0.287243
v 0.000000 0.168626 -0.305611
v 0.148727 0.165685 -0.287243
v 0.235082 0.163191 -0.235082
v 0.287243 0.165685 -0.148727
v 0.305611 0.170495 0.000000
v 0.287243 0.165685 0.148727
v 0.235082 0.163191 0.235082
v 0.148727 0.165685 0.287243
v 0.000000 0.168626 0.305611
v -0.148727 0.165685 0.287243
v 0.085762 -0.178936 0.346040
v 0.086237 -0.139618 0.329887
v 0.124224 -0.186209 0.329464
v 0.124699 -0.146892 0.313312
v 0.115049 -0.188650 0.331413
v 0.102959 -0.188462 0.335615
v 0.092229 -0.184335 0.341247
v 0.081734 -0.171462 0.341363
v 0.079803 -0.160061 0.335873
v 0.082015 -0.148135 0.331780
v 0.092773 -0.139282 0.322738
v 0.103537 -0.140528 0.315923
v 0.115593 -0.143598 0.312904
v 0.126088 -0.156470 0.312787
v 0.126693 -0.168929 0.315665
v 0.125806 -0.179797 0.322370
v 0.258962 -0.076761 0.596925
v 0.130674 -0.186673 0.336684
v 0.131218 -0.141621 0.318176
v 0.259412 -0.039490 0.581614
v 0.086602 -0.178338 0.355677
v 0.222501 -0.069866 0.612638
v 0.222951 -0.032595 0.597326
v 0.087146 -0.133286 0.337169
v 0.088777 -0.176349 0.331858
v 0.087318 -0.164557 0.325149
v 0.089077 -0.151488 0.321645
v 0.099973 -0.180079 0.325008
v 0.099087 -0.167813 0.317570
v 0.100289 -0.153882 0.314246
v 0.113097 -0.180948 0.321377
v 0.112944 -0.169404 0.314105
v 0.113397 -0.156087 0.311164
v 0.136446 -0.177994 0.329254
v 0.138321 -0.166193 0.322666
v 0.136746 -0.153133 0.319041
v 0.264062 -0.069503 0.591400
v 0.265955 -0.059405 0.586353
v 0.264314 -0.048640 0.582829
v 0.217599 -0.060716 0.611423
v 0.215958 -0.049950 0.607899
v 0.217851 -0.039853 0.602852
v 0.080369 -0.167389 0.353421
v 0.078179 -0.154819 0.348584
v 0.080669 -0.142528 0.343207
v 0.120371 -0.191223 0.342765
v 0.250875 -0.080356 0.602484
v 0.107879 -0.191246 0.348254
v 0.240648 -0.080232 0.607624
v 0.096051 -0.186623 0.353246
v 0.230465 -0.076496 0.611280
v 0.251448 -0.032860 0.582972
v 0.121063 -0.133899 0.319216
v 0.241265 -0.029124 0.586628
v 0.108621 -0.129767 0.322997
v 0.231038 -0.029000 0.591767
v 0.096743 -0.129300 0.329696
v 0.270869 -0.073463 0.589548
v 0.273246 -0.060784 0.583211
v 0.271185 -0.047267 0.578786
v 0.264691 -0.035145 0.577176
v 0.264112 -0.083078 0.596868
v 0.210728 -0.062089 0.615466
v 0.208667 -0.048572 0.611041
v 0.211044 -0.035893 0.604704
v 0.217801 -0.026278 0.597383
v 0.217222 -0.074211 0.617076
v 0.253399 -0.087841 0.604232
v 0.240558 -0.087685 0.610686
v 0.227772 -0.082994 0.615276
v 0.254141 -0.026362 0.578975
v 0.241355 -0.021671 0.583566
v 0.228514 -0.021515 0.590019
v 0.258406 -0.074013 0.580255
v 0.260299 -0.063916 0.575208
v 0.258658 -0.053150 0.571684
v 0.253756 -0.044000 0.570468
v 0.253306 -0.081271 0.585780
v 0.211943 -0.065227 0.600278
v 0.210302 -0.054461 0.596753
v 0.212195 -0.044363 0.591707
v 0.217295 -0.037105 0.586181
v 0.216845 -0.074376 0.601493
v 0.245219 -0.084866 0.591339
v 0.234992 -0.084742 0.596479
v 0.224809 -0.081006 0.600134
v 0.245792 -0.037370 0.571827
v 0.235609 -0.033634 0.575483
v 0.225382 -0.033511 0.580622
vn 0.0509 0.1634 0.9852
vn -0.0591 0.1035 0.9929
vn 0.1265 0.2033 0.9709
vn -0.9645 0.2442 0.1006
vn -0.9660 0.2250 0.1277
vn -0.9658 0.1887 0.1776
vn -0.9660 0.2250 -0.1277
vn -0.9645 0.2442 -0.1006
vn -0.9658 0.1887 -0.1776
vn 0.2885 0.0061 -0.9575
vn 0.5137 0.1168 -0.8500
vn 0.6048 0.1650 -0.7791
vn -0.8223 0.1879 0.5372
vn -0.8223 0.1880 0.5371
vn -0.8224 0.1881 0.5369
vn -0.7424 0.4642 0.4830
vn -0.7424 0.4633 0.4839
vn -0.7414 0.4408 0.5061
vn -0.8741 0.4722 0.1141
vn -0.8735 0.4737 0.1124
vn -0.8506 0.5227 0.0578
vn -0.8735 0.4737 -0.1124
vn -0.8741 0.4722 -0.1141
vn -0.8506 0.5227 -0.0578
vn -0.7424 0.4633 -0.4839
vn -0.7424 0.4642 -0.4830
vn -0.7414 0.4408 -0.5061
vn -0.8223 0.1880 -0.5371
vn -0.8223 0.1879 -0.5372
vn -0.8224 0.1881 -0.5369
vn 0.9966 0.0380 -0.0735
vn 0.9832 0.1255 0.1324
vn 0.9654 0.1569 0.2083
vn 0.0910 0.0857 0.9922
vn 0.0243 0.1227 0.9921
vn -0.0176 0.1455 0.9892
vn -0.1640 0.1805 -0.9698
vn -0.1637 0.1807 -0.9698
vn -0.1631 0.1812 -0.9698
vn 0.1637 0.1807 -0.9698
vn 0.1640 0.1805 -0.9698
vn 0.1631 0.1812 -0.9698
vn -0.5041 0.1844 -0.8437
vn -0.5040 0.1845 -0.8438
vn -0.5038 0.1846 -0.8438
vn -0.4553 0.4566 -0.7644
vn -0.4552 0.4566 -0.7644
vn -0.4770 0.4344 -0.7640
vn -0.1624 0.5062 -0.8470
vn -0.1625 0.5061 -0.8470
vn 0.1624 0.5062 -0.8470
vn 0.1625 0.5061 -0.8470
vn 0.4552 0.4566 -0.7644
vn 0.4553 0.4566 -0.7644
vn 0.4770 0.4344 -0.7640
vn 0.5040 0.1845 -0.8438
vn 0.5041 0.1844 -0.8437
vn 0.5038 0.1846 -0.8438
vn -0.8351 0.1600 -0.5264
vn -0.8507 0.1480 -0.5044
vn -0.8566 0.1432 -0.4957
vn -0.4239 0.0608 -0.9037
vn -0.2235 0.1376 -0.9649
vn -0.1402 0.1664 -0.9760
vn 0.4204 -0.0084 -0.9073
vn 0.2101 0.0770 -0.9747
vn 0.5042 -0.0452 -0.8624
vn -0.2327 0.0428 -0.9716
vn -0.3149 0.0857 -0.9453
vn -0.1602 0.0056 -0.9871
vn 0.9645 0.2442 -0.1006
vn 0.9660 0.2250 -0.1276
vn 0.9658 0.1887 -0.1776
vn 0.9660 0.2250 0.1276
vn 0.9645 0.2442 0.1006
vn 0.9658 0.1887 0.1776
vn 0.8223 0.1879 -0.5372
vn 0.8223 0.1880 -0.5371
vn 0.8224 0.1881 -0.5369
vn 0.7424 0.4642 -0.4830
vn 0.7424 0.4633 -0.4839
vn 0.7414 0.4408 -0.5061
vn 0.8741 0.4722 -0.1141
vn 0.8735 0.4737 -0.1124
vn 0.8506 0.5227 -0.0578
vn 0.8735 0.4737 0.1124
vn 0.8741 0.4722 0.1141
vn 0.8506 0.5227 0.0578
vn 0.7424 0.4633 0.4839
vn 0.7424 0.4642 0.4830
vn 0.7414 0.4408 0.5061
vn 0.8223 0.1880 0.5371
vn 0.8223 0.1879 0.5372
vn 0.8224 0.1881 0.5369
vn -0.6852 -0.0043 0.7283
vn -0.7839 0.0399 0.6196
vn -0.8166 0.0565 0.5744
vn -0.9925 0.0529 -0.1100
vn -0.9944 0.1051 0.0134
vn -0.9842 0.0246 -0.1753
vn 0.7871 0.1328 -0.6024
vn 0.8182 0.1131 -0.5637
vn 0.7735 0.1409 -0.6180
vn -0.9927 0.0536 0.1085
vn -0.9940 0.1075 -0.0194
vn -0.9884 0.1311 -0.0769
vn 0.1350 0.1814 0.9741
vn 0.1349 0.1814 0.9741
vn 0.1343 0.1820 0.9741
vn -0.1349 0.1814 0.9741
vn -0.1350 0.1814 0.9741
vn -0.1343 0.1820 0.9741
vn 0.6231 0.1888 0.7590
vn 0.6224 0.1894 0.7595
vn 0.6216 0.1899 0.7600
vn 0.5048 0.5138 0.6937
vn 0.5188 0.5025 0.6916
vn 0.5862 0.4440 0.6777
vn 0.1459 0.5214 0.8407
vn 0.1477 0.5198 0.8414
vn 0.1329 0.5332 0.8355
vn -0.1477 0.5198 0.8414
vn -0.1459 0.5214 0.8407
vn -0.1329 0.5332 0.8355
vn -0.5188 0.5025 0.6916
vn -0.5048 0.5138 0.6937
vn -0.5862 0.4440 0.6777
vn -0.6224 0.1894 0.7595
vn -0.6231 0.1888 0.7590
vn -0.6216 0.1899 0.7600
vn 0.9968 0.0400 0.0688
vn 0.9854 0.1205 -0.1202
vn 0.9847 -0.0062 0.1743
vn 0.7850 0.0592 0.6167
vn 0.6496 0.1285 0.7493
vn 0.5917 0.1533 0.7915
vn 0.6822 0.0432 0.7299
vn 0.6470 0.0266 0.7620
vn 0.6947 0.0493 0.7176
vn 0.1689 0.9697 -0.1767
vn 0.1690 0.9697 -0.1767
vn 0.1674 0.9696 -0.1784
vn -0.1689 0.9697 -0.1767
vn -0.1690 0.9697 -0.1767
vn -0.1706 0.9697 -0.1750
vn 0.1690 0.9697 0.1767
vn 0.1689 0.9697 0.1767
vn 0.1674 0.9696 0.1784
vn -0.1690 0.9697 0.1767
vn -0.1689 0.9697 0.1767
vn -0.1706 0.9697 0.1750
vn 0.4625 0.7439 -0.4824
vn 0.4615 0.7439 -0.4834
vn 0.4844 0.7442 -0.4599
vn 0.1654 0.8270 -0.5373
vn 0.1654 0.8271 -0.5372
vn -0.1654 0.8270 -0.5373
vn -0.1653 0.8270 -0.5373
vn -0.4625 0.7439 -0.4824
vn -0.4615 0.7439 -0.4834
vn -0.4390 0.7428 -0.5055
vn -0.5196 0.8363 -0.1748
vn -0.5196 0.8363 -0.1749
vn -0.5195 0.8364 -0.1749
vn -0.5196 0.8363 0.1749
vn -0.5196 0.8363 0.1748
vn -0.5195 0.8364 0.1749
vn -0.4615 0.7439 0.4834
vn -0.4625 0.7439 0.4824
vn -0.4390 0.7428 0.5055
vn -0.1654 0.8270 0.5373
vn -0.1653 0.8270 0.5373
vn 0.1654 0.8270 0.5373
vn 0.1654 0.8271 0.5372
vn 0.4615 0.7439 0.4834
vn 0.4625 0.7439 0.4824
vn 0.4844 0.7442 0.4599
vn 0.5196 0.8363 0.1749
vn 0.5196 0.8363 0.1748
vn 0.5196 0.8363 -0.1748
vn 0.5196 0.8363 -0.1749
vn -0.7815 0.0070 0.6239
vn -0.6597 0.0805 0.7472
vn -0.8418 -0.0376 0.5385
vn 0.0175 0.9993 -0.0327
vn 0.0222 0.9996 -0.0182
vn 0.0184 0.9996 -0.0232
vn 0.0195 0.9991 -0.0366
vn 0.0133 0.9990 -0.0418
vn 0.0288 0.9991 -0.0313
vn 0.0249 0.9996 -0.0134
vn 0.0218 0.9996 -0.0171
vn 0.0254 0.9995 -0.0172
vn 0.0276 0.9995 -0.0166
vn -0.0218 0.9996 -0.0171
vn -0.0249 0.9996 -0.0134
vn -0.0222 0.9996 -0.0181
vn -0.0157 0.9994 -0.0302
vn -0.0166 0.9995 -0.0276
vn -0.0175 0.9993 0.0327
vn -0.0222 0.9996 0.0181
vn -0.0184 0.9996 0.0232
vn -0.0249 0.9996 0.0134
vn -0.0218 0.9996 0.0171
vn 0.0218 0.9996 0.0171
vn 0.0249 0.9996 0.0134
vn 0.0222 0.9996 0.0182
vn 0.0157 0.9994 0.0302
vn 0.0166 0.9995 0.0276
vn -0.0327 0.9993 -0.0175
vn -0.0288 0.9991 -0.0313
vn -0.0196 0.9996 -0.0226
vn -0.0133 0.9990 -0.0418
vn -0.0195 0.9991 -0.0366
vn -0.0195 0.9991 0.0366
vn -0.0133 0.9990 0.0418
vn -0.0288 0.9991 0.0313
vn -0.0252 0.9995 0.0173
vn -0.0276 0.9995 0.0166
vn 0.0327 0.9993 0.0175
vn 0.0288 0.9991 0.0313
vn 0.0196 0.9996 0.0226
vn 0.0133 0.9990 0.0418
vn 0.0195 0.9991 0.0366
vn -0.0041 -0.9991 0.0421
vn -0.0029 -0.9991 0.0430
vn -0.0139 -0.9989 0.0446
vn -0.0467 -0.9985 0.0298
vn -0.0309 -0.9990 0.0325
vn -0.0317 -0.9991 0.0288
vn -0.0105 -0.9994 0.0334
vn -0.0178 -0.9993 0.0325
vn -0.0441 -0.9990 0.0051
vn -0.0378 -0.9992 0.0096
vn -0.0371 -0.9993 0.0069
vn 0.0105 -0.9994 0.0334
vn 0.0184 -0.9994 0.0309
vn 0.0178 -0.9993 0.0325
vn 0.0061 -0.9990 0.0436
vn 0.0130 -0.9990 0.0434
vn 0.0041 -0.9991 -0.0421
vn 0.0029 -0.9991 -0.0430
vn 0.0139 -0.9989 -0.0446
vn 0.0105 -0.9994 -0.0334
vn 0.0178 -0.9993 -0.0325
vn -0.0105 -0.9994 -0.0334
vn -0.0184 -0.9994 -0.0309
vn -0.0178 -0.9993 -0.0325
vn -0.0061 -0.9990 -0.0436
vn -0.0130 -0.9990 -0.0434
vn 0.0420 -0.9991 0.0042
vn 0.0430 -0.9991 0.0029
vn 0.0391 -0.9992 0.0080
vn 0.0446 -0.9986 0.0273
vn 0.0466 -0.9986 0.0265
vn 0.0335 -0.9989 0.0315
vn 0.0467 -0.9985 -0.0298
vn 0.0309 -0.9990 -0.0325
vn 0.0317 -0.9991 -0.0288
vn 0.0441 -0.9990 -0.0051
vn 0.0378 -0.9992 -0.0096
vn 0.0371 -0.9993 -0.0069
vn -0.0420 -0.9991 -0.0042
vn -0.0430 -0.9991 -0.0029
vn -0.0391 -0.9992 -0.0080
vn -0.0446 -0.9986 -0.0273
vn -0.0466 -0.9986 -0.0265
vn -0.0335 -0.9989 -0.0315
vn -0.9925 -0.0000 -0.1226
vn -0.8560 -0.0000 -0.5170
vn -0.5170 -0.0000 -0.8560
vn -0.1226 -0.0000 -0.9925
vn 0.1226 -0.0000 -0.9925
vn 0.5170 -0.0000 -0.8560
vn 0.8560 -0.0000 -0.5170
vn 0.9925 -0.0000 -0.1226
vn 0.9925 -0.0000 0.1226
vn 0.8560 -0.0000 0.5170
vn 0.5170 -0.0000 0.8560
vn 0.1226 -0.0000 0.9925
vn -0.8560 -0.0000 0.5170
vn -0.1226 -0.0000 0.9925
vn -0.9925 -0.0000 0.1226
vn -0.5170 -0.0000 0.8560
vn -0.5687 -0.4574 -0.6836
vn -0.5701 -0.4557 -0.6836
vn -0.5649 -0.1435 -0.8126
vn -0.5635 -0.1424 -0.8138
vn -0.2616 -0.5155 -0.8160
vn -0.2601 -0.5143 -0.8172
vn -0.2578 -0.2016 -0.9449
vn -0.2592 -0.1999 -0.9449
vn -0.7475 -0.6070 -0.2697
vn -0.7270 -0.6314 -0.2697
vn -0.8297 -0.3500 -0.4348
vn -0.8260 -0.0397 -0.5623
vn -0.8260 -0.0397 -0.5622
vn -0.7371 0.2575 -0.6248
vn -0.7573 0.2404 -0.6072
vn -0.5022 0.2269 -0.8345
vn -0.5022 0.2268 -0.8345
vn -0.1985 0.1695 -0.9653
vn -0.1985 0.1694 -0.9654
vn 0.1086 0.0976 -0.9893
vn 0.1287 0.0729 -0.9890
vn 0.1174 -0.2180 -0.9689
vn 0.1175 -0.2181 -0.9688
vn 0.1137 -0.5284 -0.8413
vn 0.1136 -0.5285 -0.8413
vn 0.0982 -0.7670 -0.6341
vn 0.0775 -0.7836 -0.6164
vn -0.2101 -0.7949 -0.5691
vn -0.2102 -0.7950 -0.5691
vn -0.5138 -0.7375 -0.4383
vn -0.5137 -0.7376 -0.4383
vn 0.8872 -0.3244 -0.3282
vn 0.8864 -0.3288 -0.3257
vn 0.8864 -0.3289 -0.3257
vn 0.8909 -0.0184 -0.4539
vn 0.8902 -0.0135 -0.4553
vn 0.8909 -0.0185 -0.4539
vn 0.4748 -0.7194 -0.5070
vn 0.4839 -0.7322 -0.4793
vn 0.5332 -0.4753 -0.6998
vn 0.5333 -0.4754 -0.6997
vn 0.5370 -0.1649 -0.8273
vn 0.5369 -0.1650 -0.8273
vn 0.4853 0.1453 -0.8622
vn 0.4752 0.1167 -0.8721
vn 0.7755 0.3324 -0.5368
vn 0.7710 0.3413 -0.5377
vn 0.7756 0.3321 -0.5368
vn 0.7639 -0.6297 -0.1416
vn 0.7592 -0.6366 -0.1359
vn 0.7590 -0.6368 -0.1357
vn -0.8966 0.0084 0.4427
vn -0.8975 0.0131 0.4409
vn -0.8966 0.0082 0.4427
vn -0.8928 0.3237 0.3131
vn -0.8938 0.3191 0.3152
vn -0.8938 0.3190 0.3152
vn -0.7650 0.6319 0.1243
vn -0.7702 0.6246 0.1293
vn -0.7703 0.6244 0.1294
vn -0.8727 0.4021 -0.2770
vn -0.8821 0.3734 -0.2871
vn -0.9771 0.1214 -0.1748
vn -0.9771 0.1212 -0.1748
vn -0.9808 -0.1890 -0.0473
vn -0.9808 -0.1890 -0.0472
vn -0.8832 -0.4625 0.0782
vn -0.8734 -0.4754 0.1056
vn -0.7769 -0.3460 0.5260
vn -0.7818 -0.3373 0.5245
vn -0.7768 -0.3463 0.5261
vn 0.1354 -0.9431 0.3037
vn 0.1400 -0.9431 0.3017
vn 0.1352 -0.9431 0.3038
vn -0.1684 -0.8848 0.4346
vn -0.1640 -0.8865 0.4327
vn -0.1639 -0.8865 0.4327
vn 0.2156 -0.9327 -0.2892
vn 0.1855 -0.9360 -0.2991
vn 0.4579 -0.8815 0.1156
vn 0.4659 -0.8779 0.1106
vn 0.4576 -0.8816 0.1157
vn -0.4907 -0.6970 0.5228
vn -0.4832 -0.7035 0.5211
vn -0.4830 -0.7037 0.5211
vn -0.6302 -0.7728 0.0754
vn -0.6191 -0.7839 0.0477
vn -0.3831 -0.9221 -0.0539
vn -0.3830 -0.9222 -0.0540
vn -0.0794 -0.9796 -0.1848
vn -0.0795 -0.9796 -0.1848
vn 0.1574 0.8812 -0.4457
vn 0.1620 0.8797 -0.4472
vn 0.1621 0.8796 -0.4472
vn -0.1464 0.9380 -0.3143
vn -0.1419 0.9378 -0.3167
vn -0.1465 0.9380 -0.3142
vn 0.4769 0.6985 -0.5335
vn 0.4848 0.6923 -0.5345
vn 0.4851 0.6921 -0.5345
vn 0.2323 0.4555 -0.8594
vn 0.2622 0.4591 -0.8488
vn -0.0607 0.5682 -0.8206
vn -0.0607 0.5683 -0.8206
vn -0.3644 0.6257 -0.6898
vn -0.3644 0.6257 -0.6897
vn -0.6134 0.6154 -0.4949
vn -0.6239 0.6266 -0.4670
vn -0.4718 0.8732 -0.1222
vn -0.4641 0.8765 -0.1280
vn -0.4720 0.8731 -0.1220
vn -0.8896 0.3264 0.3194
vn 0.4257 0.3394 0.8388
vn 0.4257 0.3395 0.8388
vn 0.4256 0.3395 0.8388
vn 0.4256 0.3394 0.8388
vn 0.4691 -0.8755 0.1163
vn 0.4690 -0.8755 0.1163
vn -0.1433 0.9406 -0.3079
vn -0.8934 0.0108 0.4490
vn 0.1654 0.8822 -0.4409
vn -0.7738 -0.3439 0.5319
vn -0.4691 0.8755 -0.1162
vn -0.7620 0.6344 0.1300
vn 0.4880 0.6945 -0.5287
vn 0.8935 -0.0108 -0.4490
vn -0.1654 -0.8822 0.4409
vn 0.8896 -0.3264 -0.3194
vn 0.1434 -0.9406 0.3079
vn 0.1433 -0.9406 0.3079
vn 0.7620 -0.6344 -0.1300
vn -0.4880 -0.6945 0.5287
vn 0.7738 0.3439 -0.5319
vn 0.7738 0.3440 -0.5319
vn 0.0508 0.1634 0.9853
vn -0.1331 0.0620 0.9892
vn -0.9586 0.2806 0.0479
vn -0.9586 0.2806 -0.0479
vn 0.1581 -0.0538 -0.9860
vn -0.8222 0.1877 0.5374
vn -0.7427 0.4863 0.4604
vn -0.8920 0.4193 0.1692
vn -0.8920 0.4193 -0.1692
vn -0.7427 0.4863 -0.4604
vn -0.8222 0.1877 -0.5374
vn 0.9847 -0.0062 -0.1743
vn 0.1331 0.0620 0.9892
vn -0.1647 0.1800 -0.9698
vn 0.1647 0.1800 -0.9698
vn -0.5043 0.1842 -0.8436
vn -0.4331 0.4783 -0.7640
vn 0.4331 0.4783 -0.7640
vn 0.5043 0.1842 -0.8436
vn -0.8262 0.1666 -0.5383
vn -0.5070 0.0254 -0.8616
vn 0.1294 0.1074 -0.9858
vn 0.2099 0.0770 -0.9747
vn -0.3625 0.1109 -0.9254
vn -0.3149 0.0857 -0.9452
vn 0.9586 0.2806 -0.0478
vn 0.9586 0.2806 0.0478
vn 0.8222 0.1877 -0.5374
vn 0.7427 0.4863 -0.4604
vn 0.8920 0.4193 -0.1692
vn 0.8920 0.4193 0.1692
vn 0.7427 0.4863 0.4604
vn 0.8222 0.1877 0.5374
vn -0.6245 -0.0283 0.7805
vn -0.9902 0.1252 0.0623
vn -0.9944 0.1051 0.0135
vn 0.8350 0.1017 -0.5408
vn -0.9842 0.0246 0.1753
vn 0.1356 0.1808 0.9741
vn -0.1356 0.1808 0.9741
vn 0.6239 0.1882 0.7585
vn 0.4410 0.5615 0.7002
vn 0.1624 0.5062 0.8470
vn -0.1624 0.5062 0.8470
vn -0.4410 0.5615 0.7002
vn -0.6239 0.1882 0.7585
vn 0.9683 0.1526 -0.1978
vn 0.8408 0.0236 0.5408
vn 0.6264 0.0172 0.7793
vn 0.1706 0.9697 -0.1750
vn -0.1674 0.9696 -0.1784
vn 0.1706 0.9697 0.1750
vn -0.1674 0.9696 0.1784
vn 0.4390 0.7428 -0.5055
vn 0.1653 0.8270 -0.5373
vn -0.1654 0.8271 -0.5372
vn -0.4844 0.7442 -0.4599
vn -0.4844 0.7442 0.4599
vn -0.1654 0.8271 0.5372
vn 0.1653 0.8270 0.5373
vn 0.4390 0.7428 0.5055
vn 0.5195 0.8364 0.1749
vn 0.5195 0.8364 -0.1749
vn -0.5960 0.1133 0.7950
vn 0.0115 0.9995 -0.0288
vn 0.0288 0.9995 -0.0115
vn -0.0115 0.9995 -0.0288
vn -0.0115 0.9995 0.0288
vn 0.0115 0.9995 0.0288
vn -0.0288 0.9995 -0.0115
vn -0.0288 0.9995 0.0115
vn 0.0288 0.9995 0.0115
vn -0.0042 -0.9991 0.0420
vn -0.0466 -0.9986 0.0265
vn -0.0184 -0.9994 0.0309
vn -0.0430 -0.9991 0.0029
vn 0.0040 -0.9990 0.0441
vn 0.0066 -0.9996 0.0291
vn 0.0029 -0.9991 0.0430
vn 0.0042 -0.9991 -0.0420
vn 0.0184 -0.9994 -0.0309
vn -0.0040 -0.9990 -0.0441
vn -0.0066 -0.9996 -0.0291
vn -0.0029 -0.9991 -0.0430
vn 0.0378 -0.9992 0.0096
vn 0.0309 -0.9990 0.0325
vn 0.0466 -0.9986 -0.0265
vn 0.0430 -0.9991 -0.0029
vn -0.0378 -0.9992 -0.0096
vn -0.0309 -0.9990 -0.0325
vn -0.5673 -0.4591 -0.6836
vn -0.5663 -0.1447 -0.8114
vn -0.2631 -0.5167 -0.8147
vn -0.2564 -0.2033 -0.9449
vn -0.7673 -0.5820 -0.2693
vn -0.8298 -0.3499 -0.4348
vn -0.8259 -0.0396 -0.5624
vn -0.7161 0.2743 -0.6418
vn -0.5021 0.2269 -0.8345
vn -0.1986 0.1695 -0.9653
vn 0.0885 0.1222 -0.9886
vn 0.1173 -0.2180 -0.9689
vn 0.1137 -0.5284 -0.8414
vn 0.1188 -0.7496 -0.6511
vn -0.2101 -0.7949 -0.5692
vn -0.5139 -0.7374 -0.4383
vn 0.8872 -0.3242 -0.3283
vn 0.8902 -0.0133 -0.4553
vn 0.4652 -0.7058 -0.5342
vn 0.5332 -0.4753 -0.6999
vn 0.5371 -0.1649 -0.8273
vn 0.4949 0.1737 -0.8514
vn 0.7709 0.3416 -0.5377
vn 0.7640 -0.6295 -0.1418
vn -0.8975 0.0133 0.4408
vn -0.8928 0.3239 0.3131
vn -0.7649 0.6321 0.1241
vn -0.8624 0.4303 -0.2665
vn -0.9771 0.1215 -0.1747
vn -0.9808 -0.1889 -0.0474
vn -0.8921 -0.4490 0.0507
vn -0.7819 -0.3371 0.5244
vn 0.1401 -0.9431 0.3016
vn -0.1686 -0.8847 0.4346
vn 0.2454 -0.9284 -0.2789
vn 0.4662 -0.8778 0.1104
vn -0.4909 -0.6968 0.5229
vn -0.6406 -0.7609 0.1031
vn -0.3831 -0.9221 -0.0538
vn 0.1572 0.8813 -0.4457
vn -0.1418 0.9378 -0.3168
vn 0.4767 0.6987 -0.5335
vn 0.2023 0.4515 -0.8690
vn -0.0608 0.5682 -0.8206
vn -0.3643 0.6256 -0.6898
vn -0.6023 0.6036 -0.5223
vn -0.4639 0.8766 -0.1281
vn 0.4258 0.3396 0.8387
vn 0.4256 0.3396 0.8388
vn 0.4258 0.3395 0.8387
vn 0.4691 -0.8755 0.1162
vn -0.7739 -0.3439 0.5318
vn 0.8897 -0.3264 -0.3194
vn 0.1434 -0.9405 0.3079
vt 0.066794 0.195621
vt 0.138600 0.347675
vt 0.016619 0.246218
vt 0.258352 0.532071
vt 0.255817 0.619955
vt 0.208445 0.585487
vt 0.337725 0.588722
vt 0.304042 0.653213
vt 0.597878 0.578776
vt 0.767129 0.604636
vt 0.740032 0.669657
vt 0.224193 0.497333
vt 0.167046 0.546187
vt 0.256577 0.475028
vt 0.288695 0.494001
vt 0.297637 0.561101
vt 0.363856 0.547973
vt 0.391797 0.572157
vt 0.381178 0.609532
vt 0.355042 0.679902
vt 0.576568 0.276237
vt 0.613943 0.127094
vt 0.687603 0.142842
vt 0.233736 0.215789
vt 0.092213 0.130226
vt 0.494385 0.578530
vt 0.557316 0.633013
vt 0.565028 0.480638
vt 0.636564 0.523195
vt 0.414598 0.696837
vt 0.434593 0.616275
vt 0.449864 0.541826
vt 0.530372 0.530063
vt 0.516166 0.449951
vt 0.582026 0.412221
vt 0.526715 0.385356
vt 0.558915 0.363567
vt 0.652346 0.368073
vt 0.617593 0.316946
vt 0.292662 0.826330
vt 0.217324 0.804086
vt 0.356020 0.831654
vt 0.767129 0.267944
vt 0.667586 0.732589
vt 0.525544 0.328725
vt 0.529539 0.240724
vt 0.446454 0.270978
vt 0.481636 0.206084
vt 0.494965 0.366385
vt 0.486590 0.299220
vt 0.419910 0.311969
vt 0.391680 0.287511
vt 0.402500 0.249623
vt 0.430450 0.179327
vt 0.135671 0.507343
vt 0.062076 0.646399
vt 0.006390 0.594845
vt 0.172359 0.737611
vt 0.743777 0.205870
vt 0.109038 0.706787
vt 0.296777 0.270783
vt 0.186530 0.281993
vt 0.210674 0.390146
vt 0.383240 0.162517
vt 0.359221 0.241840
vt 0.333820 0.318366
vt 0.253232 0.330108
vt 0.267514 0.410285
vt 0.202939 0.458901
vt 0.497540 0.047261
vt 0.568644 0.060415
vt 0.429849 0.006560
vt 0.471891 0.414718
vt 0.391856 0.430104
vt 0.425495 0.383491
vt 0.402475 0.510909
vt 0.437403 0.462973
vt 0.381222 0.349284
vt 0.311808 0.445512
vt 0.346292 0.397237
vt 0.483017 0.495890
vt 0.430675 0.559446
vt 0.358236 0.476715
vt 0.256771 0.433723
vt 0.300653 0.364316
vt 0.457014 0.339901
vt 0.780451 0.754763
vt 0.806800 0.744991
vt 0.797061 0.715684
vt 0.947913 0.854433
vt 0.917717 0.848670
vt 0.904460 0.889034
vt 0.849199 0.747479
vt 0.855060 0.717186
vt 0.928203 0.908898
vt 0.885687 0.909941
vt 0.889291 0.761062
vt 0.909325 0.737482
vt 0.910200 0.780135
vt 0.859235 0.919622
vt 0.869038 0.949066
vt 0.816778 0.917596
vt 0.811012 0.947806
vt 0.776743 0.903930
vt 0.756701 0.927511
vt 0.755916 0.884791
vt 0.745852 0.858411
vt 0.716486 0.868265
vt 0.748230 0.816193
vt 0.718058 0.810393
vt 0.761734 0.775791
vt 0.737890 0.755867
vt 0.920201 0.806444
vt 0.949513 0.796625
vt 0.736661 0.690311
vt 0.748960 0.708424
vt 0.790199 0.690205
vt 0.966298 0.932926
vt 0.993666 0.863108
vt 0.976624 0.859885
vt 0.788843 0.671253
vt 0.860636 0.688425
vt 0.929486 0.974353
vt 0.949230 0.924737
vt 0.933483 0.699389
vt 0.863955 0.671378
vt 0.974687 0.736345
vt 0.925175 0.716420
vt 0.917175 0.956277
vt 0.875964 0.974563
vt 0.877374 0.993514
vt 0.805485 0.976609
vt 0.732515 0.965662
vt 0.802201 0.993683
vt 0.691267 0.928637
vt 0.740834 0.948603
vt 0.709344 0.916390
vt 0.691114 0.875302
vt 0.672244 0.876673
vt 0.689313 0.804914
vt 0.699745 0.731761
vt 0.672244 0.801678
vt 0.716834 0.739982
vt 0.956639 0.748579
vt 0.974843 0.789601
vt 0.993683 0.788235
vt 0.903431 0.936059
vt 0.729593 0.902650
vt 0.762692 0.728662
vt 0.936429 0.762301
vt 0.285646 0.016773
vt 0.282303 0.021928
vt 0.281369 0.017549
vt 0.287458 0.025272
vt 0.286682 0.020995
vt 0.277147 0.018584
vt 0.278960 0.027083
vt 0.277924 0.022862
vt 0.288447 0.012457
vt 0.284881 0.012484
vt 0.289875 0.015724
vt 0.291746 0.024506
vt 0.291088 0.020056
vt 0.291774 0.028071
vt 0.288507 0.029500
vt 0.283236 0.026307
vt 0.279726 0.031373
vt 0.276160 0.031402
vt 0.274731 0.028134
vt 0.273516 0.023801
vt 0.272858 0.019350
vt 0.272830 0.015784
vt 0.276098 0.014356
vt 0.280430 0.013142
vt 0.256044 0.035978
vt 0.258927 0.173288
vt 0.252589 0.173138
vt 0.268063 0.036252
vt 0.262061 0.035804
vt 0.267788 0.018951
vt 0.269569 0.013668
vt 0.268023 0.024973
vt 0.270264 0.030567
vt 0.273690 0.036723
vt 0.265265 0.173422
vt 0.250401 0.036191
vt 0.246483 0.172975
vt 0.209164 0.171586
vt 0.221506 0.034785
vt 0.215498 0.171870
vt 0.209496 0.034230
vt 0.215515 0.034197
vt 0.202831 0.171285
vt 0.203850 0.034312
vt 0.296815 0.024906
vt 0.296580 0.018886
vt 0.294340 0.013293
vt 0.290562 0.009195
vt 0.227120 0.035388
vt 0.221600 0.172126
vt 0.244780 0.035655
vt 0.234041 0.172585
vt 0.238783 0.035137
vt 0.232765 0.035240
vt 0.273666 0.009890
vt 0.240378 0.172793
vt 0.227704 0.172360
vt 0.285280 0.007415
vt 0.279260 0.007650
vt 0.279330 0.036444
vt 0.283756 0.173702
vt 0.277477 0.173624
vt 0.184302 0.170291
vt 0.198243 0.033644
vt 0.190632 0.170649
vt 0.271371 0.173533
vt 0.274045 0.034665
vt 0.285346 0.036204
vt 0.290938 0.033964
vt 0.295035 0.030187
vt 0.196731 0.170977
vt 0.268405 0.191924
vt 0.273357 0.187875
vt 0.273148 0.190999
vt 0.264928 0.186184
vt 0.268319 0.186836
vt 0.270393 0.182128
vt 0.267324 0.180239
vt 0.273590 0.178713
vt 0.271603 0.175667
vt 0.270223 0.196119
vt 0.264969 0.192581
vt 0.290807 0.196985
vt 0.296742 0.192932
vt 0.293829 0.199174
vt 0.293130 0.186742
vt 0.293151 0.192127
vt 0.291206 0.182257
vt 0.296815 0.186074
vt 0.287141 0.200167
vt 0.288939 0.203424
vt 0.273419 0.199181
vt 0.276970 0.204404
vt 0.271613 0.202025
vt 0.282685 0.201589
vt 0.277781 0.201233
vt 0.267335 0.198117
vt 0.282987 0.205046
vt 0.278040 0.177172
vt 0.283101 0.177075
vt 0.287796 0.178951
vt 0.289643 0.175902
vt 0.294302 0.180102
vt 0.278878 0.196684
vt 0.282127 0.181892
vt 0.287848 0.190892
vt 0.287173 0.185138
vt 0.285192 0.183113
vt 0.274430 0.184779
vt 0.282045 0.196863
vt 0.275945 0.195534
vt 0.274005 0.193546
vt 0.284703 0.195940
vt 0.278977 0.181725
vt 0.288066 0.187719
vt 0.276415 0.182705
vt 0.286692 0.193934
vt 0.326838 0.520332
vt 0.526820 0.426276
vt 0.352572 0.300865
vt 0.284176 0.030714
vt 0.192259 0.032986
s 1
usemtl マテリアル.003
f 56/1/1 12/2/2 59/3/3
f 32/4/4 53/5/5 58/6/6
f 53/5/7 37/7/8 48/8/9
f 38/9/10 44/10/11 41/11/12
f 6/12/13 58/6/14 64/13/15
f 1/14/16 32/4/17 6/12/18
f 7/15/19 35/16/20 32/4/21
f 35/16/22 9/17/23 37/7/24
f 37/7/25 2/18/26 10/19/27
f 48/8/28 10/19/29 63/20/30
f 27/21/31 49/22/32 46/23/33
f 19/24/34 56/1/35 54/25/36
f 40/26/37 38/9/38 43/27/39
f 38/9/40 45/28/41 33/29/42
f 10/19/43 43/30/44 63/20/45
f 2/18/46 40/31/47 10/19/48
f 14/32/49 42/33/49 40/26/50
f 42/33/51 16/34/51 45/28/52
f 45/35/53 4/36/54 17/37/55
f 33/38/56 17/37/57 62/39/58
f 48/8/59 11/40/60 36/41/61
f 63/20/62 39/42/63 11/40/64
f 62/39/65 44/43/66 33/38/67
f 38/9/68 39/44/69 43/27/70
f 47/45/71 26/46/72 27/21/73
f 26/46/74 52/47/75 20/48/76
f 17/37/77 27/21/78 62/39/79
f 4/36/80 47/45/81 17/37/82
f 21/49/83 50/50/84 47/45/85
f 50/50/86 23/51/87 52/47/88
f 52/47/89 3/52/90 24/53/91
f 20/48/92 24/53/93 61/54/94
f 12/55/95 5/56/96 59/57/97
f 48/8/98 34/58/99 53/5/100
f 18/59/101 27/21/102 46/23/103
f 58/6/104 34/58/105 31/60/106
f 55/61/107 13/62/108 19/24/109
f 13/62/110 60/63/111 12/2/112
f 24/53/113 19/64/114 61/54/115
f 3/52/116 55/65/117 24/53/118
f 28/66/119 57/67/120 55/61/121
f 57/67/122 30/68/123 60/63/124
f 60/69/125 1/14/126 6/12/127
f 12/55/128 6/12/129 64/13/130
f 20/48/131 49/22/132 26/46/133
f 20/48/134 25/70/135 51/71/136
f 25/70/137 19/64/138 54/72/139
f 65/73/140 69/74/141 68/75/142
f 67/76/143 69/74/144 66/77/145
f 69/74/146 71/78/147 68/75/148
f 69/74/149 73/79/150 72/80/151
f 4/36/152 65/73/153 21/49/154
f 16/34/155 66/77/155 65/73/156
f 14/32/157 66/77/157 15/81/158
f 2/18/159 67/76/160 14/82/161
f 9/17/162 70/83/163 67/76/164
f 70/83/165 7/15/166 73/79/167
f 73/79/168 1/14/169 30/84/170
f 72/80/171 30/68/171 29/85/172
f 72/80/173 28/66/173 71/78/174
f 71/78/175 3/52/176 23/51/177
f 68/75/178 23/51/179 22/86/179
f 21/49/180 68/75/181 22/86/180
f 58/6/182 5/56/183 64/13/184
f 76/87/185 87/88/186 103/89/187
f 92/90/188 79/91/189 80/92/190
f 87/88/186 88/93/191 104/94/192
f 93/95/193 80/92/190 75/96/194
f 104/94/195 88/93/196 89/97/197
f 105/98/198 89/97/197 74/99/199
f 75/96/200 81/100/201 95/101/202
f 81/100/201 82/102/203 96/103/204
f 96/103/205 82/102/206 83/104/207
f 97/105/208 83/104/207 77/106/209
f 77/106/210 84/107/211 99/108/212
f 84/107/211 85/109/213 100/110/214
f 100/110/215 85/109/216 86/111/217
f 101/112/218 86/111/217 76/87/219
f 74/99/220 78/113/221 91/114/222
f 78/113/221 79/91/223 92/90/224
f 108/115/225 134/116/226 135/117/227
f 112/118/228 111/119/229 124/120/230
f 119/121/231 135/117/227 136/122/232
f 107/123/233 112/118/234 125/124/235
f 121/125/236 120/126/237 136/122/238
f 106/127/239 121/125/236 137/128/240
f 107/123/241 126/129/242 127/130/243
f 113/131/244 127/130/243 128/132/245
f 115/133/246 114/134/247 128/132/248
f 109/135/249 115/133/246 129/136/250
f 109/135/251 130/137/252 131/138/253
f 116/139/254 131/138/255 132/140/256
f 118/141/257 117/142/258 132/140/259
f 108/115/260 118/141/261 133/143/262
f 106/127/263 122/144/264 123/145/265
f 110/146/266 123/145/267 124/120/268
f 93/95/269 125/124/269 124/120/269
f 94/147/270 126/129/270 125/124/270
f 94/147/271 95/101/271 127/130/271
f 95/101/272 96/103/272 128/132/272
f 97/105/273 129/136/273 128/132/273
f 98/148/274 130/137/274 129/136/274
f 98/148/275 99/108/275 131/138/275
f 99/108/276 100/110/276 132/140/276
f 101/112/277 133/143/277 132/140/277
f 102/149/278 134/116/278 133/143/278
f 102/149/279 103/89/279 135/117/279
f 103/89/280 104/94/280 136/122/280
f 90/150/281 91/114/281 123/145/281
f 105/98/282 137/128/282 136/122/282
f 91/114/283 92/90/283 124/120/283
f 90/150/284 122/144/284 137/128/284
f 162/151/285 166/152/285 165/153/286
f 164/154/287 166/152/287 163/155/288
f 166/152/289 168/156/289 165/153/290
f 166/152/291 170/157/291 169/158/292
f 138/159/293 162/151/293 144/160/294
f 145/161/295 163/155/295 162/151/295
f 147/162/296 163/155/296 146/163/297
f 139/164/298 164/154/298 147/162/299
f 148/165/300 167/166/300 164/154/301
f 167/166/302 150/167/302 170/157/303
f 170/157/304 141/168/304 151/169/305
f 169/158/306 151/169/306 152/170/307
f 169/158/308 153/171/308 168/156/309
f 168/156/310 140/172/310 142/173/311
f 165/153/312 142/173/312 143/174/313
f 144/160/314 165/153/314 143/174/315
f 171/175/316 196/176/317 195/177/318
f 173/178/319 196/176/320 172/179/321
f 140/172/322 171/180/322 155/181/323
f 153/171/324 172/182/324 171/180/325
f 151/169/326 172/182/326 152/170/327
f 141/168/328 173/183/328 151/169/329
f 156/184/330 197/185/331 173/178/332
f 155/186/333 195/177/334 199/187/335
f 201/188/336 180/189/337 200/190/338
f 201/188/339 182/191/340 181/192/341
f 202/193/342 161/194/343 182/191/344
f 182/195/345 139/164/345 147/162/346
f 181/196/347 147/162/347 146/163/348
f 181/196/349 145/161/349 180/197/350
f 180/197/351 138/159/351 158/198/352
f 200/190/353 158/199/354 204/200/355
f 183/201/356 206/202/357 185/203/358
f 206/202/359 187/204/360 185/203/361
f 140/172/362 183/205/362 142/173/363
f 155/186/364 205/206/365 183/201/366
f 207/207/367 158/199/368 187/204/369
f 187/208/370 138/159/370 144/160/371
f 185/209/372 144/160/372 143/174/373
f 142/173/374 185/209/374 143/174/375
f 190/210/376 209/211/377 208/212/378
f 209/213/379 194/214/380 210/215/381
f 156/184/382 208/212/383 198/216/384
f 141/168/385 190/210/385 156/217/386
f 150/167/387 192/218/387 190/210/388
f 192/218/389 148/165/389 194/219/390
f 194/219/391 139/164/391 161/220/392
f 210/215/393 161/194/394 203/221/395
f 174/222/396 212/223/396 211/224/396
f 174/222/397 196/225/398 175/226/398
f 176/227/398 196/225/398 197/228/398
f 157/229/398 197/228/398 198/230/398
f 154/231/397 195/232/397 174/222/397
f 177/233/398 201/234/398 200/235/398
f 179/236/398 201/234/398 178/237/399
f 160/238/398 202/239/398 179/236/398
f 159/240/398 200/235/398 204/241/398
f 184/242/397 206/243/398 205/244/397
f 188/245/400 206/243/398 186/246/398
f 154/231/397 205/244/397 199/247/398
f 159/240/398 207/248/397 188/245/400
f 189/249/398 209/211/398 191/250/399
f 193/251/397 209/211/398 210/252/397
f 157/229/398 208/212/398 189/249/398
f 160/238/398 210/252/397 203/253/398
f 222/254/397 225/255/398 217/256/397
f 193/251/401 219/257/401 226/258/402
f 184/242/403 222/254/403 186/246/403
f 175/226/404 213/259/404 212/223/404
f 188/245/405 222/254/405 223/260/405
f 157/229/406 213/259/406 176/227/406
f 154/231/407 221/261/407 184/242/407
f 154/231/408 211/224/408 215/262/408
f 159/240/409 223/260/409 220/263/409
f 177/233/410 217/256/410 178/237/410
f 189/249/411 225/255/411 224/264/411
f 178/237/412 218/265/412 179/236/412
f 193/251/413 225/255/413 191/250/414
f 160/238/415 218/265/415 219/257/415
f 189/249/416 214/266/416 157/229/416
f 159/240/417 216/267/418 177/233/417
f 56/1/419 13/62/420 12/2/2
f 32/4/4 35/16/421 53/5/5
f 53/5/7 35/16/422 37/7/8
f 38/9/10 33/29/423 44/10/11
f 6/12/13 32/4/424 58/6/14
f 1/14/16 7/15/425 32/4/17
f 7/15/19 8/268/426 35/16/20
f 35/16/22 8/268/427 9/17/23
f 37/7/25 9/17/428 2/18/26
f 48/8/28 37/7/429 10/19/29
f 27/21/31 26/46/430 49/22/32
f 19/24/34 13/62/431 56/1/35
f 40/26/37 42/33/432 38/9/38
f 38/9/40 42/33/433 45/28/41
f 10/19/43 40/31/434 43/30/44
f 2/18/46 14/82/435 40/31/47
f 14/32/49 15/81/49 42/33/49
f 42/33/51 15/81/51 16/34/51
f 45/35/53 16/269/436 4/36/54
f 33/38/56 45/35/437 17/37/57
f 48/8/59 63/20/438 11/40/60
f 63/20/62 43/30/439 39/42/63
f 62/39/65 18/59/440 44/43/441
f 38/9/68 41/11/442 39/44/443
f 47/45/71 50/50/444 26/46/72
f 26/46/74 50/50/445 52/47/75
f 17/37/77 47/45/446 27/21/78
f 4/36/80 21/49/447 47/45/81
f 21/49/83 22/86/448 50/50/84
f 50/50/86 22/86/449 23/51/87
f 52/47/89 23/51/450 3/52/90
f 20/48/92 52/47/451 24/53/93
f 12/55/95 64/13/452 5/56/96
f 48/8/98 36/41/453 34/58/454
f 18/59/101 62/39/455 27/21/102
f 58/6/104 53/5/456 34/58/105
f 55/61/107 57/67/457 13/62/108
f 13/62/110 57/67/458 60/63/111
f 24/53/113 55/65/459 19/64/114
f 3/52/116 28/270/460 55/65/117
f 28/66/119 29/85/461 57/67/120
f 57/67/122 29/85/462 30/68/123
f 60/69/125 30/84/463 1/14/126
f 12/55/128 60/69/464 6/12/129
f 20/48/131 51/71/465 49/22/132
f 20/48/134 61/54/466 25/70/135
f 25/70/137 61/54/467 19/64/138
f 65/73/140 66/77/468 69/74/141
f 67/76/143 70/83/469 69/74/144
f 69/74/146 72/80/470 71/78/147
f 69/74/149 70/83/471 73/79/150
f 4/36/152 16/269/472 65/73/153
f 16/34/155 15/81/473 66/77/155
f 14/32/157 67/76/474 66/77/157
f 2/18/159 9/17/475 67/76/160
f 9/17/162 8/268/162 70/83/163
f 70/83/165 8/268/166 7/15/166
f 73/79/168 7/15/476 1/14/169
f 72/80/171 73/79/477 30/68/171
f 72/80/173 29/85/478 28/66/173
f 71/78/175 28/270/479 3/52/176
f 68/75/178 71/78/480 23/51/179
f 21/49/180 65/73/481 68/75/181
f 58/6/182 31/60/482 5/56/183
f 76/87/185 103/89/187 102/149/483
f 92/90/188 80/92/190 93/95/193
f 87/88/186 104/94/192 103/89/187
f 93/95/193 75/96/194 94/147/484
f 104/94/195 89/97/197 105/98/198
f 105/98/198 74/99/199 90/150/485
f 75/96/200 95/101/202 94/147/486
f 81/100/201 96/103/204 95/101/202
f 96/103/205 83/104/207 97/105/208
f 97/105/208 77/106/209 98/148/487
f 77/106/210 99/108/212 98/148/488
f 84/107/211 100/110/214 99/108/212
f 100/110/215 86/111/217 101/112/218
f 101/112/218 76/87/219 102/149/489
f 74/99/220 91/114/222 90/150/490
f 78/113/221 92/90/224 91/114/222
f 108/115/491 135/117/227 119/121/231
f 112/118/228 124/120/230 125/124/492
f 119/121/231 136/122/232 120/126/493
f 107/123/233 125/124/235 126/129/494
f 121/125/236 136/122/238 137/128/240
f 106/127/495 137/128/496 122/144/497
f 107/123/498 127/130/243 113/131/244
f 113/131/244 128/132/245 114/134/499
f 115/133/246 128/132/248 129/136/250
f 109/135/500 129/136/501 130/137/502
f 109/135/251 131/138/253 116/139/503
f 116/139/254 132/140/256 117/142/504
f 118/141/257 132/140/259 133/143/505
f 108/115/260 133/143/262 134/116/506
f 106/127/263 123/145/265 110/146/507
f 110/146/266 124/120/268 111/119/508
f 93/95/269 124/120/269 92/90/269
f 94/147/270 125/124/270 93/95/270
f 94/147/271 127/130/271 126/129/271
f 95/101/272 128/132/272 127/130/272
f 97/105/273 128/132/273 96/103/273
f 98/148/274 129/136/274 97/105/274
f 98/148/275 131/138/275 130/137/275
f 99/108/276 132/140/276 131/138/276
f 101/112/277 132/140/277 100/110/277
f 102/149/278 133/143/278 101/112/278
f 102/149/279 135/117/279 134/116/279
f 103/89/280 136/122/280 135/117/280
f 90/150/281 123/145/281 122/144/281
f 105/98/282 136/122/282 104/94/282
f 91/114/283 124/120/283 123/145/283
f 90/150/284 137/128/284 105/98/284
f 162/151/285 163/155/509 166/152/285
f 164/154/287 167/166/510 166/152/287
f 166/152/289 169/158/511 168/156/289
f 166/152/291 167/166/512 170/157/291
f 138/159/293 145/161/513 162/151/293
f 145/161/295 146/163/514 163/155/295
f 147/162/296 164/154/515 163/155/296
f 139/164/298 148/165/516 164/154/298
f 148/165/300 149/271/517 167/166/300
f 167/166/302 149/271/518 150/167/302
f 170/157/304 150/167/519 141/168/304
f 169/158/306 170/157/520 151/169/306
f 169/158/308 152/170/521 153/171/308
f 168/156/310 153/171/522 140/172/310
f 165/153/312 168/156/523 142/173/312
f 144/160/314 162/151/524 165/153/314
f 171/175/316 172/179/525 196/176/317
f 173/178/319 197/185/526 196/176/320
f 140/172/322 153/171/527 171/180/322
f 153/171/324 152/170/528 172/182/324
f 151/169/326 173/183/529 172/182/326
f 141/168/328 156/217/530 173/183/328
f 156/184/330 198/216/531 197/185/331
f 155/186/333 171/175/532 195/177/334
f 201/188/336 181/192/533 180/189/337
f 201/188/339 202/193/534 182/191/340
f 202/193/342 203/221/535 161/194/343
f 182/195/345 161/220/536 139/164/345
f 181/196/347 182/195/537 147/162/347
f 181/196/349 146/163/538 145/161/349
f 180/197/351 145/161/539 138/159/351
f 200/190/353 180/189/540 158/199/354
f 183/201/356 205/206/541 206/202/357
f 206/202/359 207/207/542 187/204/360
f 140/172/362 155/181/543 183/205/362
f 155/186/364 199/187/544 205/206/365
f 207/207/367 204/200/545 158/199/368
f 187/208/370 158/198/546 138/159/370
f 185/209/372 187/208/547 144/160/372
f 142/173/374 183/205/374 185/209/374
f 190/210/376 192/218/548 209/211/377
f 209/213/379 192/272/549 194/214/380
f 156/184/382 190/210/550 208/212/383
f 141/168/385 150/167/551 190/210/385
f 150/167/387 149/271/552 192/218/387
f 192/218/389 149/271/553 148/165/389
f 194/219/391 148/165/554 139/164/391
f 210/215/393 194/214/555 161/194/394
f 174/222/396 175/226/396 212/223/396
f 174/222/397 195/232/397 196/225/398
f 176/227/398 175/226/398 196/225/398
f 157/229/398 176/227/398 197/228/398
f 154/231/397 199/247/398 195/232/397
f 177/233/398 178/237/399 201/234/398
f 179/236/398 202/239/398 201/234/398
f 160/238/398 203/253/398 202/239/398
f 159/240/398 177/233/398 200/235/398
f 184/242/397 186/246/398 206/243/398
f 188/245/400 207/248/397 206/243/398
f 154/231/397 184/242/397 205/244/397
f 159/240/398 204/241/398 207/248/397
f 189/249/398 208/212/398 209/211/398
f 193/251/397 191/250/399 209/211/398
f 157/229/398 198/230/398 208/212/398
f 160/238/398 193/251/397 210/252/397
f 211/224/398 212/223/398 222/254/397
f 212/223/398 213/259/398 224/264/398
f 213/259/398 214/266/556 224/264/398
f 224/264/398 225/255/398 212/223/398
f 225/255/398 226/258/557 218/265/397
f 226/258/557 219/257/398 218/265/397
f 218/265/397 217/256/397 225/255/398
f 217/256/397 216/267/558 223/260/399
f 216/267/558 220/263/558 223/260/399
f 223/260/399 222/254/397 217/256/397
f 222/254/397 221/261/397 211/224/398
f 221/261/397 215/262/397 211/224/398
f 212/223/398 225/255/398 222/254/397
f 193/251/401 160/238/559 219/257/401
f 184/242/403 221/261/403 222/254/403
f 175/226/404 176/227/404 213/259/404
f 188/245/405 186/246/405 222/254/405
f 157/229/406 214/266/560 213/259/406
f 154/231/407 215/262/407 221/261/407
f 154/231/408 174/222/408 211/224/408
f 159/240/409 188/245/409 223/260/409
f 177/233/410 216/267/410 217/256/410
f 189/249/411 191/250/411 225/255/411
f 178/237/412 217/256/561 218/265/412
f 193/251/413 226/258/562 225/255/413
f 160/238/415 179/236/415 218/265/415
f 189/249/416 224/264/416 214/266/416
f 159/240/417 220/263/418 216/267/418
