# Blender 4.4.1
# www.blender.org
mtllib ghostHand.mtl
o LeftHand
v 0.091464 -0.091464 0.091464
v 0.091464 0.091464 0.091464
v -0.091464 -0.091464 0.091464
v -0.091464 0.091464 0.091464
v -0.054265 -0.104805 0.104805
v -0.000000 -0.111507 0.111507
v 0.054265 -0.104805 0.104805
v 0.104805 -0.054265 0.104805
v 0.111507 -0.000000 0.111507
v 0.104805 0.054265 0.104805
v 0.054265 0.104805 0.104805
v -0.000000 0.111507 0.111507
v -0.054265 0.104805 0.104805
v -0.104805 0.054265 0.104805
v -0.111507 -0.000000 0.111507
v -0.104805 -0.054265 0.104805
v -0.111507 -0.111507 -0.080887
v -0.104805 -0.104805 0.054265
v -0.104805 0.104805 0.054265
v -0.111507 0.111507 -0.080887
v 0.104805 -0.104805 0.054265
v 0.111507 -0.111507 -0.080887
v 0.111507 0.111507 -0.080887
v 0.104805 0.104805 0.054265
v 0.057834 -0.057834 0.133352
v 0.060941 -0.000000 0.143018
v 0.057834 0.057834 0.133352
v -0.000000 -0.060941 0.143018
v -0.000000 -0.000000 0.153569
v -0.000000 0.060941 0.143018
v -0.057834 -0.057834 0.133352
v -0.060941 -0.000000 0.143018
v -0.057834 0.057834 0.133352
v -0.133352 -0.057834 0.057834
v -0.143018 -0.000000 0.060941
v -0.133352 0.057834 0.057834
v -0.143018 -0.060941 -0.080887
v -0.153569 0.000000 -0.080887
v -0.143018 0.060941 -0.080887
v 0.143018 -0.060941 -0.080887
v 0.153569 0.000000 -0.080887
v 0.143018 0.060941 -0.080887
v 0.133352 -0.057834 0.057834
v 0.143018 -0.000000 0.060941
v 0.133352 0.057834 0.057834
v -0.057834 -0.133352 0.057834
v -0.060941 -0.143018 -0.080887
v -0.000000 -0.143018 0.060941
v 0.000000 -0.153569 -0.080887
v 0.057834 -0.133352 0.057834
v 0.060941 -0.143018 -0.080887
v -0.060941 0.143018 -0.080887
v -0.057834 0.133352 0.057834
v 0.000000 0.153569 -0.080887
v -0.000000 0.143018 0.060941
v 0.060941 0.143018 -0.080887
v 0.057834 0.133352 0.057834
vn 0.1697 -0.1697 0.9708
vn 0.1713 -0.1681 0.9708
vn 0.1697 0.1697 0.9708
vn 0.1681 0.1713 0.9708
vn -0.1697 -0.1697 0.9708
vn -0.1713 -0.1681 0.9708
vn -0.1697 0.1697 0.9708
vn -0.1681 0.1713 0.9708
vn 0.4674 -0.4674 0.7504
vn 0.4446 -0.4896 0.7501
vn 0.5213 -0.1678 0.8367
vn 0.5213 0.1678 0.8367
vn 0.5214 0.1677 0.8367
vn 0.4674 0.4674 0.7504
vn 0.4896 0.4446 0.7501
vn 0.1678 0.5213 0.8367
vn -0.1678 0.5213 0.8367
vn -0.4674 0.4674 0.7504
vn -0.4896 0.4446 0.7501
vn -0.5213 0.1678 0.8367
vn -0.5214 0.1677 0.8367
vn -0.5213 -0.1678 0.8367
vn -0.4674 -0.4674 0.7504
vn -0.4446 -0.4896 0.7501
vn -0.1678 -0.5213 0.8367
vn -0.1677 -0.5214 0.8367
vn 0.1678 -0.5213 0.8367
vn 0.1677 -0.5214 0.8367
vn -0.9830 -0.1687 0.0729
vn -0.9828 -0.1697 0.0725
vn -0.9828 -0.1702 0.0723
vn -0.9830 0.1687 0.0729
vn -0.9828 0.1697 0.0725
vn -0.9830 0.1682 0.0731
vn -0.7504 -0.4674 0.4674
vn -0.7501 -0.4896 0.4446
vn -0.8367 -0.1678 0.5213
vn -0.8367 0.1678 0.5213
vn -0.8367 0.1677 0.5214
vn -0.7504 0.4674 0.4674
vn -0.7501 0.4446 0.4896
vn -0.8492 0.5234 0.0702
vn -0.8475 0.5263 0.0688
vn -0.8500 0.5220 0.0709
vn -0.8492 -0.5234 0.0702
vn -0.8475 -0.5263 0.0688
vn -0.8467 -0.5276 0.0682
vn 0.9828 -0.1697 0.0725
vn 0.9830 -0.1687 0.0729
vn 0.9828 -0.1702 0.0723
vn 0.9828 0.1697 0.0725
vn 0.9830 0.1687 0.0729
vn 0.9830 0.1682 0.0731
vn 0.8475 0.5263 0.0688
vn 0.8492 0.5234 0.0702
vn 0.8500 0.5220 0.0709
vn 0.7504 0.4674 0.4674
vn 0.7501 0.4446 0.4896
vn 0.8367 0.1678 0.5213
vn 0.8367 0.1677 0.5214
vn 0.8367 -0.1678 0.5213
vn 0.7504 -0.4674 0.4674
vn 0.7501 -0.4896 0.4446
vn 0.8475 -0.5263 0.0688
vn 0.8492 -0.5234 0.0702
vn 0.8467 -0.5276 0.0682
vn -0.1687 -0.9830 0.0729
vn -0.1697 -0.9828 0.0725
vn -0.1682 -0.9830 0.0731
vn 0.1697 -0.9828 0.0725
vn 0.1687 -0.9830 0.0729
vn 0.1682 -0.9830 0.0731
vn -0.4674 -0.7504 0.4674
vn -0.4446 -0.7501 0.4896
vn -0.5234 -0.8492 0.0702
vn -0.5263 -0.8475 0.0688
vn -0.5220 -0.8500 0.0709
vn 0.5263 -0.8475 0.0688
vn 0.5234 -0.8492 0.0702
vn 0.5220 -0.8500 0.0709
vn 0.4674 -0.7504 0.4674
vn 0.4446 -0.7501 0.4896
vn 0.1678 -0.8367 0.5213
vn 0.1677 -0.8367 0.5214
vn -0.1678 -0.8367 0.5213
vn -0.1677 -0.8367 0.5214
vn -0.1687 0.9830 0.0729
vn -0.1697 0.9828 0.0725
vn -0.1702 0.9828 0.0723
vn 0.1697 0.9828 0.0725
vn 0.1687 0.9830 0.0729
vn 0.1702 0.9828 0.0723
vn -0.5234 0.8492 0.0702
vn -0.5263 0.8475 0.0688
vn -0.5276 0.8467 0.0682
vn -0.4674 0.7504 0.4674
vn -0.4896 0.7501 0.4446
vn -0.1678 0.8367 0.5213
vn 0.1678 0.8367 0.5213
vn 0.4674 0.7504 0.4674
vn 0.4896 0.7501 0.4446
vn 0.5263 0.8475 0.0688
vn 0.5234 0.8492 0.0702
vn 0.5276 0.8467 0.0682
vn -0.0000 -0.0000 -1.0000
vn 0.1681 -0.1713 0.9708
vn 0.1713 0.1681 0.9708
vn -0.1681 -0.1713 0.9708
vn -0.1713 0.1681 0.9708
vn 0.4896 -0.4446 0.7501
vn 0.5214 -0.1677 0.8367
vn 0.4446 0.4896 0.7501
vn 0.1677 0.5214 0.8367
vn -0.1677 0.5214 0.8367
vn -0.4446 0.4896 0.7501
vn -0.5214 -0.1677 0.8367
vn -0.4896 -0.4446 0.7501
vn -0.9830 -0.1682 0.0731
vn -0.9828 0.1702 0.0723
vn -0.7501 -0.4446 0.4896
vn -0.8367 -0.1677 0.5214
vn -0.7501 0.4896 0.4446
vn -0.8467 0.5276 0.0682
vn -0.8500 -0.5220 0.0709
vn 0.9830 -0.1682 0.0731
vn 0.9828 0.1702 0.0723
vn 0.8467 0.5276 0.0682
vn 0.7501 0.4896 0.4446
vn 0.8367 -0.1677 0.5214
vn 0.7501 -0.4446 0.4896
vn 0.8500 -0.5220 0.0709
vn -0.1702 -0.9828 0.0723
vn 0.1702 -0.9828 0.0723
vn -0.4896 -0.7501 0.4446
vn -0.5276 -0.8467 0.0682
vn 0.5276 -0.8467 0.0682
vn 0.4896 -0.7501 0.4446
vn -0.1682 0.9830 0.0731
vn 0.1682 0.9830 0.0731
vn -0.5220 0.8500 0.0709
vn -0.4446 0.7501 0.4896
vn -0.1677 0.8367 0.5214
vn 0.1677 0.8367 0.5214
vn 0.4446 0.7501 0.4896
vn 0.5220 0.8500 0.0709
vt 0.437500 0.062500
vt 0.500000 0.125000
vt 0.437500 0.125000
vt 0.562500 0.062500
vt 0.500000 0.062500
vt 0.437500 0.187500
vt 0.562500 0.187500
vt 0.500000 0.187500
vt 0.375000 0.000000
vt 0.375000 0.062500
vt 0.437500 0.000000
vt 0.562500 0.000000
vt 0.500000 0.000000
vt 0.625000 0.000000
vt 0.625000 0.062500
vt 0.562500 0.125000
vt 0.625000 0.187500
vt 0.625000 0.250000
vt 0.562500 0.250000
vt 0.500000 0.250000
vt 0.437500 0.250000
vt 0.375000 0.250000
vt 0.375000 0.187500
vt 0.375000 0.125000
vt 0.437500 0.312500
vt 0.500000 0.375000
vt 0.437500 0.375000
vt 0.562500 0.312500
vt 0.500000 0.312500
vt 0.375000 0.312500
vt 0.625000 0.312500
vt 0.562500 0.375000
vt 0.375000 0.375000
vt 0.500000 0.875000
vt 0.437500 0.937500
vt 0.437500 0.875000
vt 0.562500 0.937500
vt 0.500000 0.937500
vt 0.562500 0.875000
vt 0.625000 0.937500
vt 0.625000 1.000000
vt 0.562500 1.000000
vt 0.500000 1.000000
vt 0.437500 1.000000
vt 0.375000 1.000000
vt 0.375000 0.937500
vt 0.375000 0.875000
vt 0.187500 0.562500
vt 0.250000 0.625000
vt 0.187500 0.625000
vt 0.187500 0.687500
vt 0.125000 0.500000
vt 0.125000 0.562500
vt 0.187500 0.500000
vt 0.250000 0.562500
vt 0.250000 0.687500
vt 0.187500 0.750000
vt 0.125000 0.750000
vt 0.125000 0.687500
vt 0.125000 0.625000
vt 0.812500 0.562500
vt 0.750000 0.625000
vt 0.750000 0.562500
vt 0.812500 0.687500
vt 0.750000 0.687500
vt 0.812500 0.500000
vt 0.750000 0.500000
vt 0.875000 0.500000
vt 0.875000 0.562500
vt 0.812500 0.625000
vt 0.875000 0.687500
vt 0.875000 0.750000
vt 0.812500 0.750000
vt 0.750000 0.750000
vt 0.625000 0.125000
vt 0.625000 0.375000
vt 0.625000 0.875000
vt 0.250000 0.500000
vt 0.250000 0.750000
vt 0.875000 0.625000
s 1
usemtl マテリアル.001
f 25/1/1 29/2/1 28/3/2
f 27/4/3 29/2/3 26/5/4
f 29/2/5 31/6/5 28/3/6
f 29/2/7 33/7/7 32/8/8
f 1/9/9 25/1/9 7/10/10
f 8/11/11 26/5/11 25/1/11
f 10/12/12 26/5/12 9/13/13
f 2/14/14 27/4/14 10/12/15
f 11/15/16 30/16/16 27/4/16
f 30/16/17 13/17/17 33/7/17
f 33/7/18 4/18/18 14/19/19
f 32/8/20 14/19/20 15/20/21
f 32/8/22 16/21/22 31/6/22
f 31/6/23 3/22/23 5/23/24
f 28/3/25 5/23/25 6/24/26
f 7/10/27 28/3/27 6/24/28
f 34/25/29 38/26/30 37/27/31
f 36/28/32 38/26/33 35/29/34
f 3/22/35 34/25/35 18/30/36
f 16/21/37 35/29/37 34/25/37
f 14/19/38 35/29/38 15/20/39
f 4/18/40 36/28/40 14/19/41
f 19/31/42 39/32/43 36/28/44
f 18/30/45 37/27/46 17/33/47
f 41/34/48 43/35/49 40/36/50
f 41/34/51 45/37/52 44/38/53
f 42/39/54 24/40/55 45/37/56
f 45/37/57 2/41/57 10/42/58
f 44/38/59 10/42/59 9/43/60
f 44/38/61 8/44/61 43/35/61
f 43/35/62 1/45/62 21/46/63
f 40/36/64 21/46/65 22/47/66
f 46/48/67 49/49/68 48/50/69
f 49/49/70 50/51/71 48/50/72
f 3/52/73 46/48/73 5/53/74
f 18/54/75 47/55/76 46/48/77
f 51/56/78 21/57/79 50/51/80
f 50/51/81 1/58/81 7/59/82
f 48/50/83 7/59/83 6/60/84
f 5/53/85 48/50/85 6/60/86
f 53/61/87 54/62/88 52/63/89
f 54/62/90 57/64/91 56/65/92
f 19/66/93 52/63/94 20/67/95
f 4/68/96 53/61/96 19/66/97
f 13/69/98 55/70/98 53/61/98
f 55/70/99 11/71/99 57/64/99
f 57/64/100 2/72/100 24/73/101
f 56/65/102 24/73/103 23/74/104
f 49/49/105 54/62/105 41/34/105
f 25/1/1 26/5/106 29/2/1
f 27/4/3 30/16/107 29/2/3
f 29/2/5 32/8/108 31/6/5
f 29/2/7 30/16/109 33/7/7
f 1/9/9 8/11/110 25/1/9
f 8/11/11 9/13/111 26/5/11
f 10/12/12 27/4/12 26/5/12
f 2/14/14 11/15/112 27/4/14
f 11/15/16 12/75/113 30/16/16
f 30/16/17 12/75/114 13/17/17
f 33/7/18 13/17/115 4/18/18
f 32/8/20 33/7/20 14/19/20
f 32/8/22 15/20/116 16/21/22
f 31/6/23 16/21/117 3/22/23
f 28/3/25 31/6/25 5/23/25
f 7/10/27 25/1/27 28/3/27
f 34/25/29 35/29/118 38/26/30
f 36/28/32 39/32/119 38/26/33
f 3/22/35 16/21/120 34/25/35
f 16/21/37 15/20/121 35/29/37
f 14/19/38 36/28/38 35/29/38
f 4/18/40 19/31/122 36/28/40
f 19/31/42 20/76/123 39/32/43
f 18/30/45 34/25/124 37/27/46
f 41/34/48 44/38/125 43/35/49
f 41/34/51 42/39/126 45/37/52
f 42/39/54 23/77/127 24/40/55
f 45/37/57 24/40/128 2/41/57
f 44/38/59 45/37/59 10/42/59
f 44/38/61 9/43/129 8/44/61
f 43/35/62 8/44/130 1/45/62
f 40/36/64 43/35/131 21/46/65
f 46/48/67 47/55/132 49/49/68
f 49/49/70 51/56/133 50/51/71
f 3/52/73 18/54/134 46/48/73
f 18/54/75 17/78/135 47/55/76
f 51/56/78 22/79/136 21/57/79
f 50/51/81 21/57/137 1/58/81
f 48/50/83 50/51/83 7/59/83
f 5/53/85 46/48/85 48/50/85
f 53/61/87 55/70/138 54/62/88
f 54/62/90 55/70/139 57/64/91
f 19/66/93 53/61/140 52/63/94
f 4/68/96 13/69/141 53/61/96
f 13/69/98 12/80/142 55/70/98
f 55/70/99 12/80/143 11/71/99
f 57/64/100 11/71/144 2/72/100
f 56/65/102 57/64/145 24/73/103
f 37/27/105 38/26/105 49/49/105
f 38/26/105 39/32/105 52/63/105
f 39/32/105 20/76/105 52/63/105
f 52/63/105 54/62/105 38/26/105
f 54/62/105 56/65/105 42/39/105
f 56/65/105 23/74/105 42/39/105
f 42/39/105 41/34/105 54/62/105
f 41/34/105 40/36/105 51/56/105
f 40/36/105 22/47/105 51/56/105
f 51/56/105 49/49/105 41/34/105
f 49/49/105 47/55/105 37/27/105
f 47/55/105 17/78/105 37/27/105
f 38/26/105 54/62/105 49/49/105
