# Blender 4.5.2 LTS
# www.blender.org
mtllib heart.mtl
o Cube
v 0.690671 0.416945 -0.596929
v 0.690671 -0.416945 -0.596929
v -0.000000 0.416945 0.724398
v -0.000000 -0.416945 0.724398
v -0.690671 0.416945 -0.596929
v -0.690671 -0.416945 -0.596929
v 0.316084 -0.416945 -0.795085
v -0.000000 -0.416945 -0.596929
v -0.316084 -0.416945 -0.795085
v -0.316084 0.416945 -0.795085
v -0.000000 0.416945 -0.596929
v 0.316084 0.416945 -0.795085
v -0.778252 -0.416945 -0.341710
v -0.690671 -0.416945 -0.035344
v -0.501352 -0.416945 0.344527
v 0.778252 0.416945 -0.341710
v 0.690671 0.416945 -0.035344
v 0.501352 0.416945 0.344527
v -0.501352 0.416945 0.344527
v -0.690671 0.416945 -0.035344
v -0.778252 0.416945 -0.341710
v 0.501352 -0.416945 0.344527
v 0.690671 -0.416945 -0.035344
v 0.778252 -0.416945 -0.341710
v -0.381865 -0.416945 -0.415214
v -0.381865 -0.416945 -0.035344
v -0.381865 -0.416945 0.344527
v -0.000000 -0.416945 -0.415214
v -0.000000 -0.416945 -0.035344
v -0.000000 -0.416945 0.344527
v 0.381865 -0.416945 -0.415214
v 0.381865 -0.416945 -0.035344
v 0.381865 -0.416945 0.344527
v 0.381865 0.416945 -0.415214
v 0.381865 0.416945 -0.035344
v 0.381865 0.416945 0.344527
v -0.000000 0.416945 -0.415214
v -0.000000 0.416945 -0.035344
v -0.000000 0.416945 0.344527
v -0.381865 0.416945 -0.415214
v -0.381865 0.416945 -0.035344
v -0.381865 0.416945 0.344527
vn -0.0000 1.0000 -0.0000
vn -0.9459 -0.0000 -0.3246
vn -0.0000 -1.0000 -0.0000
vn 0.6039 -0.0000 0.7970
vn 0.4676 -0.0000 -0.8839
vn -0.4676 -0.0000 -0.8839
vn 0.5312 -0.0000 -0.8473
vn -0.5312 -0.0000 -0.8473
vn 0.9459 -0.0000 -0.3246
vn 0.9615 -0.0000 0.2749
vn 0.8950 -0.0000 0.4461
vn -0.6039 -0.0000 0.7970
vn -0.8950 -0.0000 0.4461
vn -0.9615 -0.0000 0.2749
vt 0.812500 0.687500
vt 0.875000 0.687500
vt 0.812500 0.750000
vt 0.625000 0.187500
vt 0.375000 0.250000
vt 0.375000 0.187500
vt 0.312500 0.687500
vt 0.375000 0.687500
vt 0.312500 0.750000
vt 0.625000 0.687500
vt 0.375000 0.750000
vt 0.625000 0.437500
vt 0.375000 0.500000
vt 0.375000 0.437500
vt 0.625000 0.250000
vt 0.375000 0.312500
vt 0.625000 0.312500
vt 0.375000 0.375000
vt 0.625000 0.375000
vt 0.125000 0.687500
vt 0.187500 0.687500
vt 0.125000 0.750000
vt 0.250000 0.687500
vt 0.187500 0.750000
vt 0.250000 0.750000
vt 0.687500 0.687500
vt 0.625000 0.750000
vt 0.750000 0.687500
vt 0.687500 0.750000
vt 0.750000 0.750000
vt 0.750000 0.500000
vt 0.812500 0.562500
vt 0.750000 0.562500
vt 0.750000 0.625000
vt 0.812500 0.625000
vt 0.687500 0.562500
vt 0.687500 0.500000
vt 0.687500 0.625000
vt 0.625000 0.500000
vt 0.625000 0.562500
vt 0.625000 0.625000
vt 0.250000 0.500000
vt 0.312500 0.562500
vt 0.250000 0.562500
vt 0.250000 0.625000
vt 0.312500 0.625000
vt 0.187500 0.562500
vt 0.187500 0.500000
vt 0.187500 0.625000
vt 0.125000 0.500000
vt 0.125000 0.562500
vt 0.125000 0.625000
vt 0.375000 0.562500
vt 0.375000 0.625000
vt 0.312500 0.500000
vt 0.625000 0.000000
vt 0.375000 0.062500
vt 0.375000 0.000000
vt 0.625000 0.062500
vt 0.375000 0.125000
vt 0.625000 0.125000
vt 0.875000 0.500000
vt 0.812500 0.500000
vt 0.875000 0.625000
vt 0.875000 0.562500
s 0
usemtl Material
f 42/1/1 19/2/1 3/3/1
f 21/4/2 6/5/2 13/6/2
f 33/7/3 22/8/3 4/9/3
f 18/10/4 4/11/4 22/8/4
f 12/12/5 2/13/5 7/14/5
f 5/15/6 9/16/6 6/5/6
f 10/17/7 8/18/7 9/16/7
f 11/19/8 7/14/8 8/18/8
f 15/20/3 27/21/3 4/22/3
f 27/21/3 30/23/3 4/24/3
f 30/23/3 33/7/3 4/25/3
f 18/10/1 36/26/1 3/27/1
f 36/26/1 39/28/1 3/29/1
f 39/28/1 42/1/1 3/30/1
f 11/31/1 40/32/1 37/33/1
f 40/32/1 38/34/1 37/33/1
f 41/35/1 39/28/1 38/34/1
f 11/31/1 34/36/1 12/37/1
f 37/33/1 35/38/1 34/36/1
f 38/34/1 36/26/1 35/38/1
f 1/39/1 34/36/1 16/40/1
f 34/36/1 17/41/1 16/40/1
f 35/38/1 18/10/1 17/41/1
f 8/42/3 31/43/3 28/44/3
f 31/43/3 29/45/3 28/44/3
f 32/46/3 30/23/3 29/45/3
f 8/42/3 25/47/3 9/48/3
f 28/44/3 26/49/3 25/47/3
f 29/45/3 27/21/3 26/49/3
f 6/50/3 25/47/3 13/51/3
f 25/47/3 14/52/3 13/51/3
f 26/49/3 15/20/3 14/52/3
f 1/39/9 24/53/9 2/13/9
f 16/40/10 23/54/10 24/53/10
f 17/41/11 22/8/11 23/54/11
f 2/13/3 31/43/3 7/55/3
f 31/43/3 23/54/3 32/46/3
f 32/46/3 22/8/3 33/7/3
f 3/56/12 15/57/12 4/58/12
f 19/59/13 14/60/13 15/57/13
f 20/61/14 13/6/14 14/60/14
f 5/62/1 40/32/1 10/63/1
f 40/32/1 20/64/1 41/35/1
f 41/35/1 19/2/1 42/1/1
f 21/4/2 5/15/2 6/5/2
f 18/10/4 3/27/4 4/11/4
f 12/12/5 1/39/5 2/13/5
f 5/15/6 10/17/6 9/16/6
f 10/17/7 11/19/7 8/18/7
f 11/19/8 12/12/8 7/14/8
f 11/31/1 10/63/1 40/32/1
f 40/32/1 41/35/1 38/34/1
f 41/35/1 42/1/1 39/28/1
f 11/31/1 37/33/1 34/36/1
f 37/33/1 38/34/1 35/38/1
f 38/34/1 39/28/1 36/26/1
f 1/39/1 12/37/1 34/36/1
f 34/36/1 35/38/1 17/41/1
f 35/38/1 36/26/1 18/10/1
f 8/42/3 7/55/3 31/43/3
f 31/43/3 32/46/3 29/45/3
f 32/46/3 33/7/3 30/23/3
f 8/42/3 28/44/3 25/47/3
f 28/44/3 29/45/3 26/49/3
f 29/45/3 30/23/3 27/21/3
f 6/50/3 9/48/3 25/47/3
f 25/47/3 26/49/3 14/52/3
f 26/49/3 27/21/3 15/20/3
f 1/39/9 16/40/9 24/53/9
f 16/40/10 17/41/10 23/54/10
f 17/41/11 18/10/11 22/8/11
f 2/13/3 24/53/3 31/43/3
f 31/43/3 24/53/3 23/54/3
f 32/46/3 23/54/3 22/8/3
f 3/56/12 19/59/12 15/57/12
f 19/59/13 20/61/13 14/60/13
f 20/61/14 21/4/14 13/6/14
f 5/62/1 21/65/1 40/32/1
f 40/32/1 21/65/1 20/64/1
f 41/35/1 20/64/1 19/2/1
