# Blender 4.4.1
# www.blender.org
mtllib japan.mtl
o 立方体
v -0.112396 -2.960614 0.112396
v -0.112396 2.960614 0.112396
v -0.112396 -2.960614 -0.112396
v -0.112396 2.960614 -0.112396
v 0.112396 -2.960614 0.112396
v 0.112396 2.960614 0.041519
v 0.112396 -2.960614 -0.112396
v 0.112396 2.960614 -0.041519
v -0.112396 -0.381515 0.112396
v -0.112396 -0.381515 -0.112396
v 0.112396 -0.381515 -0.041519
v 0.112396 -0.381515 0.041519
v 5.377906 2.960614 -0.255706
v 5.377906 2.960614 -0.171646
v 5.377906 -0.381515 -0.255706
v 5.377906 -0.381515 -0.171646
v 2.745151 2.960614 0.147751
v 2.745151 -0.381515 0.147751
v 2.745151 2.960614 0.230869
v 2.745151 -0.381515 0.230869
v 1.428773 -0.381515 -0.035547
v 1.428773 -0.381515 0.047490
v 1.428773 2.960614 -0.035547
v 1.428773 2.960614 0.047490
v 4.061528 2.960614 0.083305
v 4.061528 2.960614 0.168982
v 4.061528 -0.381515 0.083305
v 4.061528 -0.381515 0.168982
vn -1.0000 -0.0000 -0.0000
vn 0.3007 -0.0000 -0.9537
vn -0.2494 -0.0000 -0.9684
vn 0.3007 -0.0000 0.9537
vn -0.0000 -1.0000 -0.0000
vn -0.0000 1.0000 -0.0000
vn 0.1557 0.0136 0.9877
vn 1.0000 -0.0000 -0.0000
vn 0.1557 0.0136 -0.9877
vn 0.2505 -0.0000 0.9681
vn -0.1380 -0.0000 0.9904
vn 0.1379 -0.0000 -0.9904
vn 0.0045 -0.0000 -1.0000
vn -0.0045 -0.0000 1.0000
vn 0.0470 -0.0000 0.9989
vn -0.0489 -0.0000 -0.9988
vt 0.962875 0.401737
vt 0.962875 0.000000
vt 0.989896 0.000000
vt 0.989896 0.401737
vt 0.935456 0.401752
vt 0.935456 0.000016
vt 0.962875 0.401736
vt 0.401896 0.474934
vt 0.803632 0.474849
vt 0.803553 0.630804
vt 0.401817 0.630889
vt 0.907701 0.401736
vt 0.907701 0.000000
vt 0.935456 0.000013
vt 0.935456 0.401749
vt 0.455859 0.630889
vt 0.455859 0.657910
vt 0.428838 0.657910
vt 0.428838 0.630889
vt 0.482879 0.649390
vt 0.482879 0.639409
vt 0.908579 0.711772
vt 0.935456 0.711766
vt 0.401817 0.940907
vt 0.410337 0.630889
vt 0.420318 0.630889
vt 0.428838 0.940907
vt 0.935456 0.711769
vt 0.962441 0.711772
vt 0.962875 0.711754
vt 0.989896 0.711754
vt 0.989896 0.401737
vt 0.989896 0.000000
vt 1.000000 0.000000
vt 1.000000 0.401737
vt 0.896409 0.474104
vt 0.906699 0.473686
vt 0.872219 0.633453
vt 0.862123 0.633864
vt 0.854684 0.158234
vt 0.844385 0.158234
vt 0.803635 -0.000000
vt 0.813739 -0.000000
vt 0.000079 0.470592
vt 0.401815 0.470650
vt 0.401736 0.632262
vt 0.000000 0.632204
vt 0.000016 0.157317
vt 0.401752 0.157374
vt 0.401817 0.312492
vt 0.000082 0.312435
vt 0.840080 0.474701
vt 0.830099 0.474701
vt 0.852132 0.316467
vt 0.862123 0.316467
vt 0.869272 0.158479
vt 0.879245 0.158074
vt 0.907701 0.315281
vt 0.897718 0.315687
vt 0.401834 0.158150
vt 0.803569 0.158065
vt 0.803635 0.317215
vt 0.401899 0.317300
vt 0.401817 0.000085
vt 0.803553 -0.000000
vt 0.862123 0.000406
vt 0.872096 -0.000000
vt 0.839363 0.632934
vt 0.829381 0.632934
vt 0.000000 0.000000
vt 0.401736 0.000058
s 0
usemtl マテリアル
f 9/1/1 2/2/1 4/3/1 10/4/1
f 10/5/2 4/6/2 8/2/2 11/7/2
f 27/8/3 25/9/3 13/10/3 15/11/3
f 12/12/4 6/13/4 2/14/4 9/15/4
f 3/16/5 7/17/5 5/18/5 1/19/5
f 8/20/6 4/17/6 2/16/6 6/21/6
f 5/22/7 12/12/7 9/15/7 1/23/7
f 7/24/8 11/25/8 12/26/8 5/27/8
f 3/28/9 10/5/9 11/7/9 7/29/9
f 1/30/1 9/1/1 10/4/1 3/31/1
f 15/32/8 13/33/8 14/34/8 16/35/8
f 25/36/6 26/37/6 14/38/6 13/39/6
f 28/40/5 27/41/5 15/42/5 16/43/5
f 26/44/10 28/45/10 16/46/10 14/47/10
f 24/48/11 22/49/11 20/50/11 19/51/11
f 22/52/5 21/53/5 18/54/5 20/55/5
f 23/56/6 24/57/6 19/58/6 17/59/6
f 21/60/12 23/61/12 17/62/12 18/63/12
f 11/64/13 8/65/13 23/61/13 21/60/13
f 8/66/6 6/67/6 24/57/6 23/56/6
f 12/68/5 11/69/5 21/53/5 22/52/5
f 6/70/14 12/71/14 22/49/14 24/48/14
f 19/51/15 20/50/15 28/45/15 26/44/15
f 20/55/5 18/54/5 27/41/5 28/40/5
f 17/59/6 19/58/6 26/37/6 25/36/6
f 18/63/16 17/62/16 25/9/16 27/8/16
