# Blender 4.5.3 LTS
# www.blender.org
mtllib longEnemy.mtl
o LongEnemy
v 0.371131 -0.805503 0.273058
v 0.371131 -0.356877 0.946209
v -0.371131 -0.805503 0.273058
v -0.371131 -0.356877 0.946209
v 0.425266 -0.487381 0.850223
v 0.452460 -0.640195 0.671076
v 0.425266 -0.753551 0.450841
v 0.425266 -0.265192 -0.440590
v 0.425266 0.035006 0.490575
v -0.220193 -0.340413 1.097810
v 0.000000 -0.343706 1.143015
v 0.220193 -0.339200 1.063405
v -0.425266 0.035006 0.490575
v -0.425266 -0.753551 0.450841
v -0.452460 -0.640195 0.671078
v -0.425266 -0.487381 0.850223
v -0.425266 -0.265192 -0.440590
v 0.220193 -0.877499 0.264861
v 0.000000 -0.913663 0.260745
v -0.220193 -0.877499 0.264861
v 0.541103 -0.210603 -0.225537
v 0.580323 -0.138816 0.036943
v 0.541103 -0.044946 0.288300
v 0.234671 0.063209 0.623780
v 0.000000 0.066011 0.672280
v -0.234671 0.063209 0.623780
v -0.541103 -0.044946 0.288300
v -0.580323 -0.138816 0.036943
v -0.541103 -0.210603 -0.225537
v -0.234671 -0.318758 -0.561019
v 0.000000 -0.343642 -0.598395
v 0.234671 -0.318758 -0.561019
v 0.219297 -0.235005 1.954571
v 0.000000 -0.230748 2.002905
v -0.219297 -0.235005 1.954571
v 0.247277 -0.459532 1.944535
v 0.000669 0.190430 2.625641
v -0.247277 -0.459532 1.944535
v 0.234671 -0.669246 1.843783
v 0.000000 -0.688316 1.886165
v -0.234671 -0.669246 1.843783
v 0.398199 -0.557809 -0.040377
v 0.398199 -0.270303 0.828246
v -0.398199 -0.265038 0.813874
v -0.398199 -0.557809 -0.040377
v 0.496864 -0.361887 0.657474
v 0.530070 -0.461355 0.418395
v 0.483184 -0.526096 0.161358
v -0.227432 -0.269558 0.936420
v 0.000000 -0.274934 0.981619
v 0.227432 -0.269558 0.936420
v -0.483184 -0.526096 0.161358
v -0.527256 -0.461355 0.418395
v -0.494050 -0.361887 0.657473
v 0.227432 -0.618425 -0.117589
v 0.000000 -0.647775 -0.144827
v -0.227432 -0.618425 -0.117589
v -0.398199 -0.779528 0.361950
v -0.227432 -0.899324 1.044359
v 0.000000 -0.933433 1.060794
v 0.227432 -0.899324 1.044359
v 0.295661 -0.360155 0.991206
v 0.295661 -0.841501 0.268960
v 0.329969 -0.823012 1.118850
v 0.349869 -0.673046 1.314968
v 0.316803 -0.484482 1.449300
v 0.312815 -0.882242 0.763483
v 0.398199 -0.422129 0.898216
v -0.398199 -0.422129 0.898216
v 0.227432 -0.408170 1.523793
v 0.000000 -0.366651 1.569141
v -0.227432 -0.362162 1.523793
v 0.312815 -0.396240 1.471799
v -0.295661 -0.335922 1.018407
v -0.295661 -0.841501 0.268960
v -0.316803 -0.484482 1.449300
v -0.349869 -0.673046 1.314968
v -0.329969 -0.823012 1.118850
v -0.312815 -0.861862 1.017289
v -0.312815 -0.396240 1.471799
v -0.438863 -0.563788 0.760649
v 0.240975 -0.347269 1.949552
v 0.000390 -0.056773 2.357098
v -0.240975 -0.347269 1.949552
v 0.339919 -0.578764 1.382134
v -0.339919 -0.578764 1.382134
v -0.438863 -0.696873 0.560959
v 0.240975 -0.564390 1.894159
v -0.000553 -0.188428 2.437010
v -0.240975 -0.564390 1.894159
v 0.339919 -0.748029 1.216909
v -0.339919 -0.748029 1.216909
v -0.110096 -0.342060 1.120411
v -0.117336 -0.232876 1.978738
v -0.123720 -0.075707 2.396924
v -0.117336 -0.678781 1.864973
v -0.113716 -0.916379 1.052576
v -0.113716 -0.364407 1.546466
v -0.120112 -0.064515 2.334707
v -0.121031 -0.190446 2.412584
v 0.110096 -0.342060 1.120411
v 0.117336 -0.232876 1.978738
v 0.123556 -0.076573 2.397184
v 0.117336 -0.678781 1.864973
v 0.113716 -0.916379 1.052576
v 0.113716 -0.364407 1.546466
v 0.120860 -0.196556 2.134741
v 0.119943 -0.191291 2.412836
v 0.371131 0.948398 -0.834389
v 0.371131 0.955507 0.041700
v -0.371131 0.948398 -0.834389
v -0.371131 0.955507 0.041700
v 0.458007 0.389216 -0.929849
v 0.452460 0.597183 -0.925938
v 0.425268 0.805357 -0.896478
v 0.425268 1.000960 -0.656885
v 0.452460 1.028746 -0.397319
v 0.425266 1.005178 -0.137101
v 0.425266 0.813504 0.107402
v 0.452460 0.605850 0.142135
v 0.458007 0.397990 0.197964
v 0.220193 1.007143 0.104947
v 0.000000 1.033079 0.136717
v -0.220193 1.007143 0.104947
v -0.425266 0.813504 0.107402
v -0.452460 0.605851 0.142135
v -0.458007 0.397990 0.197964
v -0.425266 1.005178 -0.137101
v -0.452460 1.028746 -0.397319
v -0.425266 1.000960 -0.656885
v -0.425266 0.805357 -0.896479
v -0.452460 0.597183 -0.925938
v -0.458007 0.389216 -0.929849
v -0.220193 0.998996 -0.921296
v 0.000000 1.024412 -0.948443
v 0.220193 0.998996 -0.921296
v 0.582761 0.377511 -0.687397
v 0.580323 0.599148 -0.683761
v 0.541103 0.820855 -0.671693
v 0.625000 0.368028 -0.388941
v 0.623134 0.601517 -0.391901
v 0.580323 0.835005 -0.394861
v 0.582761 0.382352 -0.090786
v 0.580323 0.603885 -0.100041
v 0.541103 0.825350 -0.117729
v 0.252739 0.385513 0.338654
v 0.247277 0.607075 0.293050
v 0.234671 0.828285 0.243949
v 0.000000 0.374015 0.388659
v 0.000000 0.607485 0.329451
v 0.000000 0.840563 0.276566
v -0.252739 0.385513 0.338654
v -0.247277 0.607075 0.293050
v -0.234671 0.828285 0.243949
v -0.582761 0.382352 -0.090786
v -0.580323 0.603885 -0.100041
v -0.541103 0.825350 -0.117729
v -0.625000 0.368028 -0.388941
v -0.623134 0.601517 -0.391901
v -0.580323 0.835005 -0.394863
v -0.582761 0.377511 -0.687397
v -0.580323 0.599148 -0.683761
v -0.541103 0.820855 -0.671693
v -0.313735 0.214006 -1.042984
v -0.306956 0.595959 -1.076853
v -0.234671 0.817920 -1.033371
v 0.000000 0.203421 -1.092687
v 0.000000 0.595548 -1.127384
v 0.000000 0.829447 -1.079814
v 0.313735 0.214006 -1.042984
v 0.306956 0.595959 -1.076853
v 0.234671 0.817920 -1.033371
v -0.234671 1.161621 -0.121398
v 0.000000 1.198775 -0.106989
v 0.234671 1.161621 -0.121398
v -0.247277 1.196407 -0.398849
v 0.000000 1.459800 -0.631154
v 0.247277 1.196407 -0.398849
v -0.234671 1.157126 -0.675361
v 0.000000 1.174443 -0.771901
v 0.234671 1.157126 -0.675361
vn 0.2715 0.8742 -0.4025
vn -0.9262 0.3767 0.0141
vn 0.1778 -0.7356 0.6537
vn -0.4721 -0.6595 0.5849
vn 0.5299 -0.1870 0.8272
vn -0.0766 0.9541 -0.2897
vn 0.0489 0.9557 -0.2904
vn -0.9891 0.0072 0.1469
vn -0.9876 -0.0082 0.1570
vn -0.9866 -0.0128 0.1627
vn -0.9875 -0.0085 0.1576
vn -0.9509 -0.2847 0.1212
vn -0.5402 -0.8408 -0.0353
vn 0.1625 -0.9863 -0.0267
vn 0.4327 -0.8971 -0.0889
vn 0.9030 -0.3806 0.1994
vn 0.9874 -0.0085 0.1581
vn 0.9861 -0.0137 0.1654
vn 0.9866 -0.0127 0.1628
vn 0.5390 -0.8347 0.1131
vn 0.1620 -0.9473 0.2763
vn -0.1276 -0.9521 0.2779
vn -0.8404 -0.5382 0.0639
vn 0.1357 0.6650 0.7344
vn 0.1520 0.6755 0.7215
vn 0.1302 0.6662 0.7343
vn 0.9700 -0.1452 0.1951
vn 0.9350 -0.3447 -0.0837
vn 0.9482 0.2680 0.1704
vn 0.4862 -0.3778 0.7879
vn -0.1520 0.6755 0.7215
vn -0.1357 0.6650 0.7344
vn -0.1302 0.6662 0.7343
vn -0.5149 0.5764 0.6345
vn -0.4680 0.6051 0.6441
vn -0.4536 0.6050 0.6544
vn -0.6887 0.7217 0.0699
vn 0.0071 0.9986 0.0524
vn 0.0063 0.9987 0.0509
vn 0.0063 0.9986 0.0527
vn -0.0000 0.9983 0.0577
vn -0.0060 0.9986 0.0522
vn -0.0042 0.9986 0.0524
vn 0.3196 0.9457 0.0596
vn -0.3914 0.9193 0.0403
vn -0.4556 -0.8548 0.2486
vn -0.4550 -0.8546 0.2504
vn -0.4602 -0.8543 0.2417
vn -0.4870 0.8314 0.2677
vn -0.3938 -0.9187 -0.0294
vn -0.9725 -0.1457 0.1816
vn -0.9871 0.0486 0.1523
vn -0.7400 0.6488 -0.1775
vn -0.9780 0.1845 0.0976
vn 0.9438 -0.3018 0.1350
vn 0.9806 0.1672 0.1028
vn -0.9777 0.1140 0.1765
vn -0.5908 0.7275 -0.3487
vn -0.0289 0.9737 -0.2260
vn -0.9643 -0.1594 0.2112
vn 0.9609 -0.2666 -0.0741
vn 0.9570 -0.2712 -0.1026
vn 0.9618 -0.2642 -0.0715
vn 0.8667 -0.4348 0.2445
vn -0.9438 -0.3018 0.1350
vn -0.9719 0.0388 0.2323
vn -0.9671 0.0120 0.2540
vn -0.9679 0.0157 0.2510
vn 0.1980 0.1264 0.9720
vn -0.5723 -0.3640 0.7348
vn 0.0242 0.8973 -0.4408
vn -0.0000 0.9986 0.0538
vn -0.1283 -0.9507 0.2823
vn -0.9166 0.0944 0.3886
vn 0.0442 0.9533 -0.2987
vn -0.1229 -0.7350 0.6669
vn -0.3130 0.6989 -0.6431
vn 0.8952 -0.2356 0.3783
vn 0.2306 0.0010 0.9730
vn 0.0506 0.9878 0.1472
vn 0.1619 -0.9487 0.2716
vn -0.8854 0.2908 0.3625
vn 0.2735 0.8942 -0.3543
vn 0.1941 -0.4343 0.8796
vn 0.9726 0.0444 0.2283
vn 0.9676 0.0137 0.2523
vn 0.9709 0.0338 0.2371
vn 0.9897 0.0097 -0.1426
vn 0.9892 0.0131 -0.1460
vn 0.9901 0.0061 -0.1399
vn 0.9732 0.1783 -0.1456
vn 0.9730 0.1800 -0.1442
vn 0.9892 0.0169 0.1457
vn 0.9897 0.0133 0.1424
vn 0.9901 0.0097 0.1398
vn 0.9729 0.1819 0.1426
vn 0.9728 0.1836 0.1412
vn 0.8894 0.0173 -0.4568
vn 0.8695 0.1788 -0.4605
vn 0.8695 0.1787 -0.4605
vn 0.7677 0.4765 -0.4285
vn 0.8267 0.5437 -0.1449
vn 0.8267 0.5436 -0.1449
vn 0.8261 0.5469 0.1359
vn 0.8261 0.5468 0.1360
vn 0.7663 0.4864 0.4199
vn 0.8688 0.1903 0.4571
vn 0.8688 0.1902 0.4572
vn 0.9182 0.0266 0.3953
vn 0.1623 0.2247 0.9608
vn 0.1628 0.2248 0.9607
vn 0.1777 0.2419 0.9539
vn 0.1441 0.2204 0.9647
vn 0.1438 0.2207 0.9647
vn 0.1424 0.2222 0.9645
vn -0.1628 0.2248 0.9607
vn -0.1623 0.2247 0.9608
vn -0.1777 0.2419 0.9539
vn -0.1438 0.2207 0.9647
vn -0.1441 0.2204 0.9647
vn -0.1424 0.2222 0.9645
vn 0.5484 0.1815 0.8163
vn 0.5803 0.2078 0.7874
vn 0.5804 0.2077 0.7874
vn 0.5255 0.5140 0.6779
vn 0.1636 0.5946 0.7872
vn 0.1593 0.5984 0.7852
vn 0.1401 0.6146 0.7763
vn -0.1593 0.5984 0.7852
vn -0.1636 0.5946 0.7872
vn -0.1401 0.6146 0.7763
vn -0.5255 0.5140 0.6779
vn -0.5803 0.2078 0.7874
vn -0.5804 0.2077 0.7874
vn -0.5484 0.1815 0.8163
vn -0.9897 0.0133 0.1424
vn -0.9892 0.0169 0.1457
vn -0.9901 0.0097 0.1398
vn -0.9729 0.1819 0.1426
vn -0.9728 0.1836 0.1412
vn -0.9892 0.0131 -0.1460
vn -0.9897 0.0097 -0.1426
vn -0.9901 0.0061 -0.1399
vn -0.9732 0.1783 -0.1456
vn -0.9730 0.1800 -0.1442
vn -0.9182 0.0266 0.3953
vn -0.8688 0.1903 0.4571
vn -0.8688 0.1902 0.4572
vn -0.7663 0.4864 0.4199
vn -0.8261 0.5469 0.1359
vn -0.8261 0.5468 0.1360
vn -0.8267 0.5437 -0.1449
vn -0.8267 0.5436 -0.1449
vn -0.7677 0.4765 -0.4285
vn -0.8695 0.1788 -0.4605
vn -0.8695 0.1787 -0.4605
vn -0.8894 0.0173 -0.4568
vn -0.1599 -0.0860 -0.9834
vn -0.1643 -0.0817 -0.9830
vn -0.1587 -0.0870 -0.9835
vn -0.1782 0.2177 -0.9596
vn -0.1764 0.2195 -0.9595
vn -0.1574 0.2390 -0.9582
vn 0.1643 -0.0817 -0.9830
vn 0.1599 -0.0860 -0.9834
vn 0.1587 -0.0870 -0.9835
vn 0.1764 0.2195 -0.9595
vn 0.1782 0.2177 -0.9596
vn 0.1574 0.2390 -0.9582
vn -0.6567 -0.0550 -0.7522
vn -0.6242 0.2767 -0.7306
vn -0.6445 0.2563 -0.7203
vn -0.7062 0.1888 -0.6824
vn -0.5272 0.4983 -0.6883
vn -0.1759 0.5407 -0.8226
vn -0.1781 0.5386 -0.8235
vn -0.1898 0.5277 -0.8280
vn 0.1781 0.5386 -0.8235
vn 0.1759 0.5407 -0.8226
vn 0.1898 0.5277 -0.8280
vn 0.5272 0.4983 -0.6883
vn 0.6445 0.2563 -0.7203
vn 0.6242 0.2767 -0.7306
vn 0.7062 0.1888 -0.6824
vn 0.6567 -0.0550 -0.7522
vn -0.3490 0.8700 0.3482
vn -0.4257 0.8527 0.3028
vn -0.6674 0.7346 0.1224
vn 0.3490 0.8700 0.3482
vn 0.4257 0.8527 0.3028
vn 0.1667 0.8826 0.4395
vn -0.6401 0.5713 -0.5137
vn -0.6658 0.5840 -0.4644
vn -0.7755 0.6192 -0.1233
vn 0.6401 0.5713 -0.5137
vn 0.6658 0.5840 -0.4644
vn 0.3727 0.4105 -0.8322
vn -0.6058 0.7001 0.3779
vn -0.1705 0.8125 0.5575
vn -0.1682 0.8118 0.5592
vn -0.1628 0.8101 0.5633
vn 0.1705 0.8125 0.5575
vn 0.1682 0.8118 0.5592
vn 0.1758 0.8141 0.5535
vn 0.4633 0.7179 0.5196
vn 0.6309 0.7649 0.1299
vn 0.6311 0.7648 0.1296
vn 0.6356 0.7619 0.1244
vn 0.6312 0.7625 -0.1421
vn 0.6310 0.7626 -0.1424
vn 0.6357 0.7597 -0.1369
vn 0.5158 0.7065 -0.4846
vn 0.2342 0.7838 -0.5752
vn 0.2208 0.7780 -0.5882
vn 0.1655 0.7515 -0.6386
vn -0.2342 0.7838 -0.5752
vn -0.2208 0.7780 -0.5882
vn -0.2776 0.8006 -0.5311
vn -0.6059 0.6933 -0.3901
vn -0.6312 0.7625 -0.1421
vn -0.6310 0.7626 -0.1424
vn -0.6265 0.7653 -0.1476
vn -0.6309 0.7649 0.1299
vn -0.6311 0.7648 0.1296
vn -0.6264 0.7678 0.1350
vn -0.9729 -0.1816 -0.1435
vn -0.9899 0.0294 0.1388
vn -0.8993 0.2224 0.3765
vn -0.5134 0.5734 0.6385
vn -0.4751 0.5362 0.6977
vn -0.4560 0.5333 0.7125
vn -0.1477 0.6663 0.7309
vn -0.1293 0.6585 0.7414
vn -0.1180 0.6542 0.7470
vn 0.1293 0.6585 0.7414
vn 0.1477 0.6663 0.7309
vn 0.1180 0.6542 0.7470
vn 0.4751 0.5362 0.6977
vn 0.5134 0.5413 0.6658
vn 0.4560 0.5333 0.7125
vn 0.8993 0.2224 0.3765
vn 0.9894 0.0301 0.1420
vn 0.9898 0.0286 0.1394
vn 0.9899 0.0294 0.1388
vn 0.9729 -0.1816 -0.1435
vn 0.8189 -0.3693 -0.4392
vn 0.5919 -0.5744 -0.5655
vn 0.7799 -0.4098 -0.4731
vn 0.8100 -0.3766 -0.4496
vn 0.1761 -0.6621 -0.7284
vn 0.1456 -0.6733 -0.7249
vn 0.1375 -0.6756 -0.7243
vn -0.1457 -0.6732 -0.7250
vn -0.1762 -0.6621 -0.7284
vn -0.1375 -0.6756 -0.7243
vn -0.7799 -0.4098 -0.4731
vn -0.5920 -0.5744 -0.5654
vn -0.8100 -0.3766 -0.4496
vn -0.8189 -0.3693 -0.4392
vn 0.9891 0.0251 0.1450
vn 0.9889 0.0197 0.1469
vn 0.9876 -0.0078 0.1571
vn 0.4207 -0.8972 0.1341
vn -0.1625 -0.9863 -0.0267
vn 0.8098 -0.4984 -0.3097
vn 0.8450 -0.4527 -0.2848
vn 0.5072 -0.7117 -0.4861
vn 0.4842 -0.7063 -0.5164
vn 0.1733 -0.8175 -0.5493
vn 0.1718 -0.8181 -0.5489
vn 0.1742 -0.8172 -0.5494
vn -0.1733 -0.8175 -0.5493
vn -0.1718 -0.8181 -0.5489
vn -0.1712 -0.8172 -0.5503
vn -0.4792 -0.7308 -0.4861
vn -0.8098 -0.4984 -0.3097
vn -0.9578 -0.2711 -0.0960
vn -0.9910 0.0089 0.1339
vn -0.8954 -0.4191 -0.1502
vn -0.9447 -0.3242 0.0502
vn -0.9576 -0.1306 0.2567
vn -0.3926 -0.7649 -0.5107
vn -0.1460 -0.8273 -0.5424
vn 0.1460 -0.8273 -0.5424
vn 0.4238 0.6153 0.6647
vn 0.8877 0.2914 0.3566
vn 0.9342 0.1493 0.3239
vn 0.3843 0.7000 0.6019
vn 0.0644 0.9177 0.3919
vn 0.0666 0.9179 0.3911
vn 0.0656 0.9181 0.3908
vn -0.0692 0.9123 0.4036
vn 0.3208 0.6967 -0.6416
vn -0.9727 0.0444 0.2280
vn 0.1164 -0.7354 0.6675
vn -0.1941 -0.4343 0.8796
vn 0.4406 0.8358 -0.3277
vn -0.0442 0.9533 -0.2987
vn 0.0754 0.9560 -0.2836
vn -0.9482 0.2680 0.1704
vn -0.9876 -0.0082 0.1569
vn -0.9149 -0.3936 0.0896
vn -0.4207 -0.8972 0.1341
vn 0.1462 -0.9888 -0.0290
vn 0.1465 -0.9889 -0.0244
vn 0.1041 -0.9941 -0.0288
vn 0.9725 -0.1457 0.1816
vn 0.9871 0.0486 0.1523
vn 0.4602 -0.8543 0.2417
vn 0.1283 -0.9507 0.2823
vn -0.1619 -0.9487 0.2716
vn -0.6929 -0.7210 -0.0003
vn 0.1572 0.6744 0.7215
vn 0.9545 -0.1394 0.2638
vn 0.9418 -0.3318 0.0545
vn 0.9891 0.0072 0.1469
vn 0.5453 0.8371 0.0434
vn -0.1572 0.6744 0.7215
vn -0.6219 -0.2799 0.7313
vn 0.0045 0.9987 0.0511
vn -0.0474 0.9877 0.1487
vn -0.0765 0.9887 0.1286
vn -0.4544 -0.8549 0.2503
vn -0.3585 0.8488 0.3887
vn -0.3951 0.7149 0.5769
vn -0.4318 -0.9013 -0.0344
vn -0.9030 -0.3806 0.1994
vn -0.9861 -0.0137 0.1654
vn -0.4495 -0.2016 0.8702
vn -0.9806 0.1672 0.1028
vn 0.9149 -0.3936 0.0896
vn 0.9780 0.1845 0.0976
vn -0.9876 -0.0084 0.1570
vn -0.2306 0.0010 0.9730
vn 0.2216 0.8752 -0.4301
vn -0.8667 -0.4348 0.2445
vn 0.9560 -0.2737 -0.1055
vn 0.9643 -0.1594 0.2112
vn -0.9026 -0.4178 0.1036
vn -0.8961 -0.2348 0.3767
vn 0.5681 -0.3683 0.7360
vn -0.1991 0.1279 0.9716
vn 0.0714 0.9019 -0.4260
vn -0.1620 -0.9473 0.2763
vn -0.9379 0.1642 0.3058
vn -0.8865 0.2189 0.4077
vn 0.0766 0.9541 -0.2897
vn -0.1779 -0.7350 0.6543
vn -0.0948 0.9807 0.1709
vn 0.9657 0.0050 0.2597
vn 0.6429 0.7427 -0.1874
vn 0.3667 0.9292 0.0456
vn 0.1276 -0.9521 0.2779
vn -0.8709 0.3218 0.3715
vn -0.0489 0.9557 -0.2904
vn 0.4723 -0.6596 0.5847
vn 0.4409 0.8146 -0.3769
vn 0.9893 0.0133 -0.1452
vn 0.9733 0.1766 -0.1469
vn 0.9893 0.0169 0.1450
vn 0.9730 0.1802 0.1440
vn 0.8837 0.0324 -0.4669
vn 0.8695 0.1789 -0.4604
vn 0.7610 0.5212 -0.3864
vn 0.8267 0.5437 -0.1448
vn 0.7596 0.5299 0.3772
vn 0.8688 0.1904 0.4571
vn 0.8752 0.1471 0.4609
vn 0.1429 0.2029 0.9687
vn 0.1456 0.2189 0.9648
vn -0.1429 0.2029 0.9687
vn -0.1456 0.2189 0.9648
vn 0.5780 0.2260 0.7841
vn 0.5803 0.2079 0.7875
vn 0.4758 0.5634 0.6754
vn 0.1828 0.5778 0.7954
vn -0.1828 0.5778 0.7954
vn -0.4758 0.5634 0.6754
vn -0.5803 0.2079 0.7875
vn -0.5780 0.2260 0.7841
vn -0.9893 0.0169 0.1450
vn -0.9730 0.1802 0.1440
vn -0.9893 0.0133 -0.1452
vn -0.9733 0.1766 -0.1469
vn -0.8752 0.1471 0.4609
vn -0.8688 0.1904 0.4571
vn -0.7596 0.5299 0.3772
vn -0.8267 0.5437 -0.1448
vn -0.7610 0.5212 -0.3864
vn -0.8695 0.1789 -0.4604
vn -0.8837 0.0324 -0.4669
vn -0.1620 -0.0843 -0.9832
vn -0.1996 0.1953 -0.9602
vn 0.1620 -0.0843 -0.9832
vn 0.1996 0.1953 -0.9602
vn -0.7194 0.0322 -0.6939
vn -0.5646 0.3319 -0.7557
vn -0.5535 0.4699 -0.6877
vn -0.1645 0.5512 -0.8180
vn 0.1645 0.5512 -0.8180
vn 0.5535 0.4699 -0.6877
vn 0.5646 0.3319 -0.7557
vn 0.7194 0.0322 -0.6939
vn -0.1667 0.8826 0.4395
vn 0.6674 0.7346 0.1224
vn -0.3727 0.4105 -0.8322
vn 0.7755 0.6192 -0.1233
vn -0.4633 0.7179 0.5196
vn -0.1758 0.8141 0.5535
vn 0.1628 0.8101 0.5633
vn 0.6058 0.7001 0.3779
vn 0.6264 0.7678 0.1350
vn 0.6265 0.7653 -0.1476
vn 0.6059 0.6933 -0.3901
vn 0.2776 0.8006 -0.5311
vn -0.1655 0.7515 -0.6386
vn -0.5158 0.7065 -0.4846
vn -0.6357 0.7597 -0.1369
vn -0.6356 0.7619 0.1244
vn -0.9803 -0.1703 -0.0999
vn -0.9886 0.0163 0.1494
vn -0.9894 0.0278 0.1423
vn -0.9893 0.0304 0.1430
vn -0.8780 0.2669 0.3973
vn -0.1581 0.6689 0.7264
vn 0.1581 0.6689 0.7264
vn 0.5334 0.5435 0.6482
vn 0.8726 0.3099 0.3776
vn 0.8763 0.2854 0.3883
vn 0.8780 0.2669 0.3973
vn 0.9803 -0.1703 -0.0999
vn 0.8581 -0.3533 -0.3725
vn 0.5392 -0.6076 -0.5832
vn 0.1860 -0.6587 -0.7290
vn -0.1860 -0.6587 -0.7290
vn -0.5392 -0.6076 -0.5832
vn -0.8581 -0.3533 -0.3725
vn 0.9912 0.0148 0.1315
vn 0.9876 -0.0082 0.1569
vn 0.9777 0.1140 0.1765
vn 0.8158 -0.5755 0.0565
vn 0.6385 -0.7649 -0.0852
vn -0.1465 -0.9889 -0.0244
vn -0.1462 -0.9888 -0.0290
vn 0.8296 -0.4870 -0.2729
vn 0.8954 -0.4191 -0.1502
vn 0.4792 -0.7308 -0.4861
vn 0.3926 -0.7649 -0.5107
vn 0.1712 -0.8172 -0.5503
vn -0.1742 -0.8172 -0.5494
vn -0.5072 -0.7117 -0.4861
vn -0.8296 -0.4870 -0.2729
vn -0.9618 -0.2642 -0.0715
vn -0.9887 0.0137 0.1491
vn -0.8450 -0.4527 -0.2848
vn -0.9387 -0.3361 -0.0763
vn -0.9720 -0.1359 0.1915
vn -0.4842 -0.7063 -0.5164
vn -0.1714 -0.8172 -0.5503
vn 0.1714 -0.8172 -0.5503
vn 0.5100 0.6173 0.5990
vn 0.8696 0.3296 0.3677
vn 0.9139 0.0875 0.3964
vn 0.8908 0.1902 0.4127
vn 0.5889 0.6940 0.4142
vn 0.3604 0.6662 0.6529
vn 0.2256 0.8487 0.4783
vn 0.0573 0.9158 0.3975
vn -0.0656 0.9181 0.3908
vn -0.0666 0.9179 0.3911
vn -0.0644 0.9177 0.3919
vn -0.0573 0.9158 0.3975
vt 0.335933 0.763768
vt 0.339728 0.786462
vt 0.293195 0.791161
vt 0.252234 0.713026
vt 0.335888 0.739370
vt 0.327474 0.743774
vt 0.332379 0.809170
vt 0.258787 0.910461
vt 0.244483 0.893243
vt 0.234029 0.676070
vt 0.235486 0.644429
vt 0.326278 0.717654
vt 0.189898 0.816597
vt 0.175743 0.842570
vt 0.172643 0.826371
vt 0.196652 0.770523
vt 0.266029 0.790463
vt 0.194059 0.790797
vt 0.193008 0.750718
vt 0.249980 0.730515
vt 0.265305 0.744320
vt 0.092445 0.707791
vt 0.172967 0.697687
vt 0.172590 0.714497
vt 0.073063 0.683803
vt 0.150267 0.665996
vt 0.161012 0.681837
vt 0.045271 0.659262
vt 0.123743 0.640426
vt 0.137015 0.653514
vt 0.018342 0.639264
vt 0.007372 0.616335
vt 0.110608 0.631720
vt 0.131139 0.948537
vt 0.020701 0.994554
vt 0.012220 0.955294
vt 0.081423 0.923680
vt 0.009260 0.939909
vt 0.141695 0.889948
vt 0.229829 0.878960
vt 0.128856 0.904136
vt 0.164728 0.859502
vt 0.250633 0.841599
vt 0.154648 0.876273
vt 0.123657 0.929043
vt 0.138401 0.967502
vt 0.222426 0.659068
vt 0.123228 0.597867
vt 0.030251 0.647431
vt 0.614676 0.391207
vt 0.537447 0.348664
vt 0.619890 0.348755
vt 0.600740 0.460371
vt 0.645990 0.487828
vt 0.595000 0.500152
vt 0.645844 0.528308
vt 0.584932 0.539616
vt 0.092944 0.836669
vt 0.086576 0.848015
vt 0.109120 0.814680
vt 0.094416 0.820807
vt 0.614965 0.306134
vt 0.533442 0.305426
vt 0.601529 0.271789
vt 0.111940 0.729768
vt 0.130846 0.755032
vt 0.189046 0.727343
vt 0.134875 0.771560
vt 0.131435 0.787747
vt 0.122187 0.801705
vt 0.125874 0.740129
vt 0.117460 0.617111
vt 0.628056 0.277659
vt 0.633789 0.294493
vt 0.008709 0.601819
vt 0.245560 0.693837
vt 0.061438 0.876408
vt 0.255714 0.821132
vt 0.085632 0.696845
vt 0.269597 0.768003
vt 0.513567 0.513203
vt 0.504319 0.553273
vt 0.240441 0.860648
vt 0.060465 0.670582
vt 0.350984 0.819551
vt 0.342964 0.705794
vt 0.400926 0.758550
vt 0.128840 0.579118
vt 0.247937 0.626936
vt 0.600810 0.237296
vt 0.638200 0.249042
vt 0.633061 0.263349
vt 0.252506 0.804741
vt 0.519939 0.225739
vt 0.202574 0.543018
vt 0.248242 0.505490
vt 0.248329 0.547223
vt 0.212142 0.465463
vt 0.207369 0.502901
vt 0.294068 0.542827
vt 0.284081 0.465264
vt 0.289142 0.502698
vt 0.159917 0.533980
vt 0.177274 0.460037
vt 0.167828 0.495746
vt 0.186428 0.433786
vt 0.213609 0.430899
vt 0.248126 0.465874
vt 0.282442 0.430796
vt 0.309486 0.433606
vt 0.318771 0.459581
vt 0.328804 0.495125
vt 0.342768 0.532627
vt 0.457972 0.394796
vt 0.417234 0.348667
vt 0.462901 0.348676
vt 0.373338 0.390226
vt 0.415660 0.393070
vt 0.457991 0.302561
vt 0.373358 0.307089
vt 0.415681 0.304266
vt 0.369631 0.481758
vt 0.384783 0.522305
vt 0.352676 0.441964
vt 0.333160 0.387814
vt 0.373119 0.348657
vt 0.333179 0.309481
vt 0.352722 0.255341
vt 0.309527 0.263678
vt 0.318825 0.237708
vt 0.369696 0.215555
vt 0.328875 0.202168
vt 0.342858 0.164673
vt 0.384867 0.175015
vt 0.294163 0.154450
vt 0.248318 0.191764
vt 0.248426 0.150031
vt 0.284138 0.232007
vt 0.289217 0.194576
vt 0.202668 0.154214
vt 0.212199 0.231774
vt 0.207444 0.194333
vt 0.282482 0.266475
vt 0.248183 0.231380
vt 0.213649 0.266338
vt 0.186469 0.263438
vt 0.177328 0.237182
vt 0.167900 0.201468
vt 0.160007 0.163231
vt 0.007601 0.292290
vt 0.078616 0.348586
vt 0.005709 0.348568
vt 0.121770 0.307125
vt 0.079503 0.294376
vt 0.007574 0.404847
vt 0.121750 0.390067
vt 0.079477 0.402796
vt 0.134628 0.210115
vt 0.121691 0.137645
vt 0.143082 0.254612
vt 0.160320 0.309589
vt 0.121609 0.348596
vt 0.160301 0.387622
vt 0.143037 0.442591
vt 0.134561 0.487084
vt 0.121588 0.559548
vt 0.287833 0.308629
vt 0.248284 0.348627
vt 0.248110 0.309036
vt 0.287814 0.388644
vt 0.288618 0.348637
vt 0.208390 0.308531
vt 0.208371 0.388704
vt 0.207479 0.348617
vt 0.332904 0.348648
vt 0.327124 0.410926
vt 0.248091 0.388218
vt 0.166161 0.411506
vt 0.161172 0.348606
vt 0.248092 0.267264
vt 0.504399 0.144310
vt 0.399928 0.179710
vt 0.375909 0.140780
vt 0.513572 0.184330
vt 0.421609 0.219803
vt 0.525567 0.265329
vt 0.443234 0.263283
vt 0.533453 0.391922
vt 0.525620 0.432073
vt 0.443185 0.434089
vt 0.421507 0.477591
vt 0.399762 0.517693
vt 0.375664 0.556634
vt 0.498088 0.590941
vt 0.356909 0.595489
vt 0.379047 0.635263
vt 0.502012 0.629139
vt 0.385769 0.691920
vt 0.386200 0.005655
vt 0.502217 0.068542
vt 0.379400 0.062242
vt 0.498236 0.106685
vt 0.357230 0.101941
vt 0.519960 0.471714
vt 0.005957 0.924123
vt 0.030760 0.903504
vt 0.013441 0.563305
vt 0.575532 0.572405
vt 0.640520 0.558275
vt 0.584391 0.605495
vt 0.511400 0.669938
vt 0.584444 0.092307
vt 0.511664 0.027804
vt 0.596979 0.053384
vt 0.575537 0.125333
vt 0.584860 0.158091
vt 0.594999 0.197424
vt 0.640418 0.139565
vt 0.643068 0.154449
vt 0.645685 0.169342
vt 0.645855 0.189440
vt 0.645876 0.209550
vt 0.642118 0.229316
vt 0.656755 0.114197
vt 0.648591 0.126879
vt 0.672520 0.077538
vt 0.596853 0.644490
vt 0.656831 0.583770
vt 0.672520 0.620501
vt 0.603426 0.424878
vt 0.627680 0.419631
vt 0.632892 0.433917
vt 0.647948 0.348867
vt 0.645011 0.368295
vt 0.643339 0.309744
vt 0.645161 0.329421
vt 0.005957 0.631101
vt 0.638131 0.448214
vt 0.096861 0.721649
vt 0.248052 0.429990
vt 0.327154 0.286366
vt 0.166191 0.285708
vt 0.638463 0.388599
vt 0.633005 0.405480
s 1
usemtl マテリアル
f 83/1/1 103/2/1 107/3/1
f 84/4/2 95/5/2 99/6/2
f 108/7/3 40/8/3 104/9/3
f 90/10/4 96/11/4 100/12/4
f 70/13/5 66/14/5 73/15/5
f 71/16/6 102/17/6 106/18/6
f 98/19/7 35/20/7 94/21/7
f 69/22/8 76/23/8 80/24/8
f 81/25/9 77/26/10 86/27/11
f 87/28/12 78/29/12 92/30/12
f 58/31/13 75/32/13 79/33/13
f 105/34/14 19/35/14 18/36/14
f 67/37/15 18/36/15 63/38/15
f 91/39/16 39/40/16 64/41/16
f 85/42/17 36/43/18 65/44/19
f 64/41/20 61/45/20 67/37/20
f 104/9/21 60/46/21 105/34/21
f 41/47/22 97/48/22 96/11/22
f 14/49/23 79/33/23 78/29/23
f 51/50/24 25/51/25 50/52/26
f 46/53/27 6/54/27 47/55/27
f 47/55/28 7/56/28 48/57/28
f 68/58/29 66/14/29 5/59/29
f 62/60/30 68/58/30 2/61/30
f 25/51/31 49/62/32 50/52/33
f 26/63/34 44/64/35 49/62/36
f 74/65/37 69/22/37 80/24/37
f 93/66/38 72/67/39 98/19/40
f 11/68/41 106/18/42 101/69/43
f 12/70/44 73/15/44 62/60/44
f 10/71/45 80/24/45 72/67/45
f 78/29/46 59/72/47 41/47/48
f 49/62/49 4/73/49 74/74/49
f 79/33/50 20/75/50 59/72/50
f 92/30/51 41/47/51 90/10/51
f 86/27/52 38/76/52 84/4/52
f 72/67/53 76/23/53 35/20/53
f 76/23/54 84/4/54 35/20/54
f 91/39/55 64/41/55 6/77/55
f 66/14/56 82/78/56 85/42/56
f 16/79/57 86/27/57 76/23/57
f 94/21/58 84/4/58 99/6/58
f 34/80/59 107/3/59 102/17/59
f 77/26/60 90/10/60 38/76/60
f 22/81/61 48/57/62 21/82/63
f 65/44/64 88/83/64 91/39/64
f 15/84/65 92/30/65 77/26/65
f 38/76/66 100/12/67 95/5/68
f 103/2/69 89/85/69 108/7/69
f 95/5/70 89/86/70 37/87/70
f 34/80/71 99/6/71 83/1/71
f 11/68/41 98/19/40 71/16/72
f 96/11/73 60/88/73 40/89/73
f 54/90/74 16/91/74 69/92/74
f 71/16/75 94/21/75 34/80/75
f 100/12/76 40/89/76 89/86/76
f 83/1/77 95/5/77 37/87/77
f 36/43/78 108/7/78 88/83/78
f 102/17/79 82/78/79 33/93/79
f 101/69/80 70/13/80 12/70/80
f 39/40/81 105/34/81 61/45/81
f 44/64/82 27/94/82 54/90/82
f 106/18/83 33/93/83 70/13/83
f 88/83/84 104/9/84 39/40/84
f 82/78/85 103/2/86 36/43/87
f 137/95/88 141/96/89 140/97/90
f 139/98/91 141/96/91 138/99/92
f 141/96/93 143/100/94 140/97/95
f 141/96/96 145/101/96 144/102/97
f 113/103/98 138/99/98 137/95/98
f 115/104/99 138/99/99 114/105/100
f 109/106/101 139/98/101 115/104/101
f 116/107/102 142/108/102 139/98/103
f 142/108/104 118/109/104 145/101/105
f 145/101/106 110/110/106 119/111/106
f 144/102/107 119/111/107 120/112/108
f 144/102/109 121/113/109 143/100/109
f 146/114/110 150/115/111 149/116/112
f 148/117/113 150/115/114 147/118/115
f 150/115/116 152/119/117 149/116/118
f 150/115/119 154/120/120 153/121/121
f 121/113/122 147/122/122 146/123/122
f 119/111/123 147/122/123 120/112/124
f 110/110/125 148/124/125 119/111/125
f 122/125/126 151/126/127 148/117/128
f 151/126/129 124/127/130 154/120/131
f 154/128/132 112/129/132 125/130/132
f 153/131/133 125/130/133 126/132/134
f 153/131/135 127/133/135 152/134/135
f 155/135/136 159/136/137 158/137/138
f 157/138/139 159/136/139 156/139/140
f 159/136/141 161/140/142 158/137/143
f 159/136/144 163/141/144 162/142/145
f 127/133/146 156/139/146 155/135/146
f 125/130/147 156/139/147 126/132/148
f 112/129/149 157/138/149 125/130/149
f 128/143/150 160/144/150 157/138/151
f 160/144/152 130/145/152 163/141/153
f 163/141/154 111/146/154 131/147/154
f 162/142/155 131/147/155 132/148/156
f 162/142/157 133/149/157 161/140/157
f 164/150/158 168/151/159 167/152/160
f 166/153/161 168/151/162 165/154/163
f 168/151/164 170/155/165 167/152/166
f 168/151/167 172/156/168 171/157/169
f 133/149/170 165/158/170 164/159/170
f 131/147/171 165/158/172 132/148/173
f 111/146/174 166/160/174 131/147/174
f 134/161/175 169/162/176 166/153/177
f 169/162/178 136/163/179 172/156/180
f 172/164/181 109/106/181 115/104/181
f 171/165/182 115/104/183 114/105/184
f 171/165/185 113/103/185 170/166/185
f 173/167/186 177/168/187 176/169/188
f 175/170/189 177/168/190 174/171/191
f 177/168/192 179/172/193 176/169/194
f 177/168/195 181/173/196 180/174/197
f 112/129/198 173/167/198 128/143/198
f 124/127/199 174/171/200 173/167/201
f 122/125/202 174/171/203 123/175/204
f 110/110/205 175/170/205 122/176/205
f 118/109/206 178/177/207 175/170/208
f 178/177/209 116/107/210 181/173/211
f 181/173/212 109/106/212 136/178/212
f 180/174/213 136/163/214 135/179/215
f 180/174/216 134/161/217 179/172/218
f 179/172/219 111/146/219 130/145/219
f 176/169/220 130/145/221 129/180/222
f 128/143/223 176/169/224 129/180/225
f 29/181/226 158/182/226 161/183/226
f 28/184/227 155/185/227 158/182/227
f 155/185/228 13/186/228 127/187/228
f 13/186/229 152/119/230 127/187/231
f 26/63/232 149/116/233 152/119/234
f 149/116/235 24/188/236 146/114/237
f 146/114/238 9/189/239 121/190/240
f 9/189/241 143/191/241 121/190/241
f 143/191/242 22/81/243 140/192/244
f 140/192/245 21/82/245 137/193/245
f 137/193/246 8/194/246 113/195/246
f 8/194/247 170/196/248 113/195/249
f 32/197/250 167/198/251 170/196/252
f 167/199/253 30/200/254 164/201/255
f 164/201/256 17/202/257 133/203/258
f 17/202/259 161/183/259 133/203/259
f 23/204/260 47/55/261 22/81/243
f 85/42/17 65/44/19 5/59/262
f 63/38/263 1/205/263 7/206/263
f 97/48/264 20/75/264 19/207/264
f 21/82/265 42/208/265 8/194/265
f 48/57/266 1/209/266 42/208/266
f 42/208/267 32/197/267 8/194/267
f 1/209/268 55/210/268 42/208/268
f 55/210/269 31/211/270 32/197/271
f 57/212/272 31/213/273 56/214/274
f 45/215/275 30/200/275 57/212/275
f 45/215/276 29/181/276 17/202/276
f 28/184/277 52/216/277 53/217/277
f 27/94/278 53/217/278 54/90/278
f 52/216/279 3/218/279 58/219/279
f 53/217/280 14/220/280 87/221/280
f 54/90/281 15/222/281 81/223/281
f 57/212/282 20/224/282 75/225/282
f 20/224/283 56/214/283 19/226/283
f 56/227/284 18/228/284 19/229/284
f 43/230/285 24/188/285 51/50/285
f 23/204/286 43/230/286 46/53/286
f 43/230/287 2/231/287 68/232/287
f 2/231/288 43/230/288 51/50/288
f 50/52/289 11/233/290 101/234/291
f 49/62/292 10/235/292 93/236/292
f 83/1/293 37/87/293 103/2/293
f 84/4/294 38/76/66 95/5/68
f 108/7/295 89/85/295 40/8/295
f 90/10/296 41/47/296 96/11/296
f 70/13/297 33/93/297 66/14/297
f 71/16/298 34/80/298 102/17/298
f 98/19/299 72/67/299 35/20/299
f 69/22/300 16/79/300 76/23/300
f 81/25/9 15/84/301 77/26/10
f 87/28/302 14/49/302 78/29/302
f 58/31/303 3/237/303 75/32/303
f 18/36/304 61/45/304 105/34/304
f 105/34/305 60/46/305 19/35/305
f 67/37/306 61/45/306 18/36/306
f 91/39/307 88/83/307 39/40/307
f 85/42/308 82/78/308 36/43/308
f 64/41/309 39/40/309 61/45/309
f 104/9/310 40/8/310 60/46/310
f 41/47/311 59/72/311 97/48/311
f 14/49/312 58/31/312 79/33/312
f 51/50/24 24/188/313 25/51/25
f 46/53/314 5/238/314 6/54/314
f 47/55/315 6/54/315 7/56/315
f 68/58/316 73/15/316 66/14/316
f 62/60/317 73/15/317 68/58/317
f 25/51/31 26/63/318 49/62/32
f 26/63/34 13/186/229 44/64/35
f 74/65/319 4/239/319 69/22/319
f 93/66/38 10/71/320 72/67/39
f 11/68/41 71/16/72 106/18/42
f 12/70/321 70/13/321 73/15/321
f 10/71/322 74/65/322 80/24/322
f 78/29/46 79/33/323 59/72/47
f 74/74/324 10/235/324 49/62/324
f 49/62/325 44/64/325 4/73/325
f 79/33/326 75/32/326 20/75/326
f 92/30/327 78/29/327 41/47/327
f 86/27/11 77/26/10 38/76/328
f 72/67/329 80/24/329 76/23/329
f 76/23/330 86/27/330 84/4/330
f 7/206/331 6/77/331 64/41/331
f 6/77/55 65/44/55 91/39/55
f 66/14/332 33/93/332 82/78/332
f 16/79/333 81/25/9 86/27/11
f 94/21/334 35/20/334 84/4/334
f 34/80/335 83/1/335 107/3/335
f 77/26/336 92/30/336 90/10/336
f 22/81/61 47/55/337 48/57/62
f 65/44/338 36/43/338 88/83/338
f 15/84/339 87/28/339 92/30/339
f 38/76/340 90/10/340 100/12/340
f 103/2/341 37/87/341 89/85/341
f 95/5/342 100/12/342 89/86/342
f 34/80/343 94/21/343 99/6/343
f 11/68/41 93/66/38 98/19/40
f 96/11/344 97/48/344 60/88/344
f 69/92/345 4/73/345 44/64/345
f 44/64/346 54/90/346 69/92/346
f 71/16/347 98/19/347 94/21/347
f 100/12/348 96/11/348 40/89/348
f 83/1/349 99/6/349 95/5/349
f 36/43/87 103/2/86 108/7/350
f 102/17/351 107/3/351 82/78/351
f 101/69/352 106/18/352 70/13/352
f 39/40/353 104/9/353 105/34/353
f 44/64/354 13/186/354 27/94/354
f 106/18/355 102/17/355 33/93/355
f 88/83/356 108/7/356 104/9/356
f 82/78/357 107/3/357 103/2/357
f 137/95/88 138/99/358 141/96/89
f 139/98/91 142/108/359 141/96/91
f 141/96/93 144/102/360 143/100/94
f 141/96/96 142/108/361 145/101/96
f 113/103/362 114/105/362 138/99/362
f 115/104/99 139/98/363 138/99/99
f 109/106/364 116/107/364 139/98/364
f 116/107/102 117/240/365 142/108/102
f 142/108/104 117/240/104 118/109/104
f 145/101/366 118/109/366 110/110/366
f 144/102/107 145/101/367 119/111/107
f 144/102/368 120/112/368 121/113/368
f 146/114/110 147/118/369 150/115/111
f 148/117/113 151/126/370 150/115/114
f 150/115/116 153/121/371 152/119/117
f 150/115/119 151/126/372 154/120/120
f 121/113/373 120/112/373 147/122/373
f 119/111/123 148/124/374 147/122/123
f 110/110/375 122/176/375 148/124/375
f 122/125/126 123/175/376 151/126/127
f 151/126/129 123/175/377 124/127/130
f 154/128/378 124/241/378 112/129/378
f 153/131/133 154/128/379 125/130/133
f 153/131/380 126/132/380 127/133/380
f 155/135/136 156/139/381 159/136/137
f 157/138/139 160/144/382 159/136/139
f 159/136/141 162/142/383 161/140/142
f 159/136/144 160/144/384 163/141/144
f 127/133/385 126/132/385 156/139/385
f 125/130/147 157/138/386 156/139/147
f 112/129/387 128/143/387 157/138/387
f 128/143/150 129/180/150 160/144/150
f 160/144/152 129/180/388 130/145/152
f 163/141/389 130/145/389 111/146/389
f 162/142/155 163/141/390 131/147/155
f 162/142/391 132/148/391 133/149/391
f 164/150/158 165/154/392 168/151/159
f 166/153/161 169/162/393 168/151/162
f 168/151/164 171/157/394 170/155/165
f 168/151/167 169/162/395 172/156/168
f 133/149/396 132/148/396 165/158/396
f 131/147/171 166/160/397 165/158/172
f 111/146/398 134/242/398 166/160/398
f 134/161/175 135/179/399 169/162/176
f 169/162/178 135/179/400 136/163/179
f 172/164/401 136/178/401 109/106/401
f 171/165/182 172/164/402 115/104/183
f 171/165/403 114/105/403 113/103/403
f 173/167/186 174/171/404 177/168/187
f 175/170/189 178/177/405 177/168/190
f 177/168/192 180/174/406 179/172/193
f 177/168/195 178/177/407 181/173/196
f 112/129/408 124/241/408 173/167/408
f 124/127/199 123/175/409 174/171/200
f 122/125/202 175/170/410 174/171/203
f 110/110/411 118/109/411 175/170/411
f 118/109/206 117/240/412 178/177/207
f 178/177/209 117/240/413 116/107/210
f 181/173/414 116/107/414 109/106/414
f 180/174/213 181/173/415 136/163/214
f 180/174/216 135/179/416 134/161/217
f 179/172/417 134/242/417 111/146/417
f 176/169/220 179/172/418 130/145/221
f 128/143/223 173/167/419 176/169/224
f 29/181/420 28/184/420 158/182/420
f 28/184/421 27/94/422 155/185/423
f 155/185/424 27/94/424 13/186/424
f 13/186/229 26/63/34 152/119/230
f 26/63/232 25/51/425 149/116/233
f 149/116/235 25/51/426 24/188/236
f 146/114/238 24/188/427 9/189/239
f 9/189/428 23/204/429 143/191/430
f 143/191/242 23/204/260 22/81/243
f 140/192/431 22/81/431 21/82/431
f 137/193/432 21/82/432 8/194/432
f 8/194/247 32/197/433 170/196/248
f 32/197/250 31/211/434 167/198/251
f 167/199/253 31/213/435 30/200/254
f 164/201/256 30/200/436 17/202/257
f 17/202/437 29/181/437 161/183/437
f 23/204/438 46/53/438 47/55/438
f 6/77/439 5/59/262 65/44/19
f 5/59/440 66/14/440 85/42/440
f 64/41/441 67/37/441 7/206/441
f 67/37/442 63/38/442 7/206/442
f 19/207/443 60/88/443 97/48/443
f 97/48/444 59/72/444 20/75/444
f 21/82/445 48/57/445 42/208/445
f 48/57/446 7/56/446 1/209/446
f 42/208/447 55/210/447 32/197/447
f 1/209/448 18/228/448 55/210/448
f 55/210/269 56/227/449 31/211/270
f 57/212/272 30/200/450 31/213/273
f 45/215/451 17/202/451 30/200/451
f 45/215/452 52/216/452 29/181/452
f 28/184/453 29/181/453 52/216/453
f 27/94/422 28/184/421 53/217/454
f 58/219/279 14/220/279 52/216/279
f 52/216/455 45/215/455 3/218/455
f 87/221/280 15/222/280 53/217/280
f 53/217/456 52/216/456 14/220/456
f 81/223/281 16/91/281 54/90/281
f 54/90/457 53/217/457 15/222/457
f 75/225/282 3/218/282 57/212/282
f 3/218/458 45/215/458 57/212/458
f 20/224/459 57/212/272 56/214/274
f 56/227/449 55/210/269 18/228/460
f 43/230/461 9/189/461 24/188/461
f 23/204/429 9/189/428 43/230/462
f 68/232/463 5/238/463 46/53/463
f 46/53/464 43/230/464 68/232/464
f 12/243/465 62/244/465 51/50/465
f 62/244/466 2/231/466 51/50/466
f 101/234/467 12/243/467 51/50/467
f 51/50/468 50/52/289 101/234/291
f 93/236/469 11/233/470 50/52/471
f 50/52/471 49/62/472 93/236/469
