# Blender 4.4.1
# www.blender.org
mtllib Message1.mtl
o 平面
v -2.479503 0.000000 0.819672
v 2.479503 0.000000 0.819672
v -2.479503 0.000000 -0.819672
v 2.479503 0.000000 -0.819672
v -2.016662 0.000000 0.879781
v -1.008331 0.000000 0.879781
v 0.000000 0.000000 0.879781
v 1.008331 0.000000 0.879781
v 2.016662 0.000000 0.879781
v 2.016662 0.000000 -0.879781
v 1.008331 0.000000 -0.879781
v -0.000000 0.000000 -0.879781
v -1.008331 0.000000 -0.879781
v -2.016662 0.000000 -0.879781
v -2.661333 0.000000 -0.666667
v -2.661333 0.000000 -0.333333
v -2.661333 0.000000 0.000000
v -2.661333 0.000000 0.333333
v -2.661333 0.000000 0.666667
v 2.661333 0.000000 0.666667
v 2.661333 0.000000 0.333333
v 2.661333 0.000000 -0.000000
v 2.661333 0.000000 -0.333333
v 2.661333 0.000000 -0.666667
v -2.016662 0.000000 0.666667
v -2.016662 0.000000 0.333333
v -2.016662 0.000000 -0.000000
v -2.016662 0.000000 -0.333333
v -2.016662 0.000000 -0.666667
v -1.008331 0.000000 0.666667
v -1.008331 0.000000 0.333333
v -1.008331 0.000000 -0.000000
v -1.008331 0.000000 -0.333333
v -1.008331 0.000000 -0.666667
v 0.000000 0.000000 0.666667
v 0.000000 0.000000 0.333333
v -0.000000 0.000000 -0.000000
v -0.000000 0.000000 -0.333333
v -0.000000 0.000000 -0.666667
v 1.008331 0.000000 0.666667
v 1.008331 0.000000 0.333333
v 1.008331 0.000000 -0.000000
v 1.008331 0.000000 -0.333333
v 1.008331 0.000000 -0.666667
v 2.016662 0.000000 0.666667
v 2.016662 0.000000 0.333333
v 2.016662 0.000000 -0.000000
v 2.016662 0.000000 -0.333333
v 2.016662 0.000000 -0.666667
v -0.504165 0.000000 0.879781
v -0.504166 0.000000 -0.879781
v -0.504165 0.000000 0.666667
v -0.504166 0.000000 0.333333
v -0.504166 0.000000 -0.000000
v -0.504166 0.000000 -0.333333
v -0.504166 0.000000 -0.666667
v -2.588385 0.000000 1.412015
v -1.512497 0.000000 -0.879781
v -1.512497 0.000000 0.666667
v -1.512497 0.000000 0.333333
v -1.512497 0.000000 -0.000000
v -1.512497 0.000000 -0.333333
v -1.512497 0.000000 -0.666667
vn -0.0000 1.0000 -0.0000
vt 0.833333 0.833333
vt 1.000000 0.833333
vt 1.000000 1.000000
vt 0.833333 1.000000
vt 0.000000 0.833333
vt 0.166667 0.833333
vt 0.166667 1.000000
vt 0.000000 1.000000
vt 0.250000 0.833333
vt 0.333333 0.833333
vt 0.333333 1.000000
vt 0.250000 1.000000
vt 0.416667 0.833333
vt 0.500000 0.833333
vt 0.500000 1.000000
vt 0.416667 1.000000
vt 0.666667 0.833333
vt 0.666667 1.000000
vt 0.666667 0.000000
vt 0.833333 0.000000
vt 0.833333 0.166667
vt 0.666667 0.166667
vt 0.833333 0.333333
vt 0.666667 0.333333
vt 0.833333 0.500000
vt 0.666667 0.500000
vt 0.833333 0.666667
vt 0.666667 0.666667
vt 0.500000 0.000000
vt 0.500000 0.166667
vt 0.500000 0.333333
vt 0.500000 0.500000
vt 0.500000 0.666667
vt 0.416667 0.000000
vt 0.416667 0.166667
vt 0.416667 0.333333
vt 0.416667 0.500000
vt 0.416667 0.666667
vt 0.250000 0.000000
vt 0.333333 0.000000
vt 0.333333 0.166667
vt 0.250000 0.166667
vt 0.333333 0.333333
vt 0.250000 0.333333
vt 0.333333 0.500000
vt 0.250000 0.500000
vt 0.333333 0.666667
vt 0.250000 0.666667
vt 0.000000 0.000000
vt 0.166667 0.000000
vt 0.166667 0.166667
vt 0.000000 0.166667
vt 0.166667 0.333333
vt 0.000000 0.333333
vt 0.166667 0.500000
vt 0.000000 0.500000
vt 0.166667 0.666667
vt 0.000000 0.666667
vt 1.000000 0.000000
vt 1.000000 0.166667
vt 1.000000 0.333333
vt 1.000000 0.500000
vt 1.000000 0.666667
s 0
usemtl マテリアル
f 49/1/1 24/2/1 4/3/1 10/4/1
f 15/5/1 29/6/1 14/7/1 3/8/1
f 63/9/1 34/10/1 13/11/1 58/12/1
f 56/13/1 39/14/1 12/15/1 51/16/1
f 39/14/1 44/17/1 11/18/1 12/15/1
f 44/17/1 49/1/1 10/4/1 11/18/1
f 8/19/1 9/20/1 45/21/1 40/22/1
f 40/22/1 45/21/1 46/23/1 41/24/1
f 41/24/1 46/23/1 47/25/1 42/26/1
f 42/26/1 47/25/1 48/27/1 43/28/1
f 43/28/1 48/27/1 49/1/1 44/17/1
f 7/29/1 8/19/1 40/22/1 35/30/1
f 35/30/1 40/22/1 41/24/1 36/31/1
f 36/31/1 41/24/1 42/26/1 37/32/1
f 37/32/1 42/26/1 43/28/1 38/33/1
f 38/33/1 43/28/1 44/17/1 39/14/1
f 50/34/1 7/29/1 35/30/1 52/35/1
f 52/35/1 35/30/1 36/31/1 53/36/1
f 53/36/1 36/31/1 37/32/1 54/37/1
f 54/37/1 37/32/1 38/33/1 55/38/1
f 55/38/1 38/33/1 39/14/1 56/13/1
f 57/39/1 6/40/1 30/41/1 59/42/1
f 59/42/1 30/41/1 31/43/1 60/44/1
f 60/44/1 31/43/1 32/45/1 61/46/1
f 61/46/1 32/45/1 33/47/1 62/48/1
f 62/48/1 33/47/1 34/10/1 63/9/1
f 1/49/1 5/50/1 25/51/1 19/52/1
f 19/52/1 25/51/1 26/53/1 18/54/1
f 18/54/1 26/53/1 27/55/1 17/56/1
f 17/56/1 27/55/1 28/57/1 16/58/1
f 16/58/1 28/57/1 29/6/1 15/5/1
f 9/20/1 2/59/1 20/60/1 45/21/1
f 45/21/1 20/60/1 21/61/1 46/23/1
f 46/23/1 21/61/1 22/62/1 47/25/1
f 47/25/1 22/62/1 23/63/1 48/27/1
f 48/27/1 23/63/1 24/2/1 49/1/1
f 33/47/1 55/38/1 56/13/1 34/10/1
f 32/45/1 54/37/1 55/38/1 33/47/1
f 31/43/1 53/36/1 54/37/1 32/45/1
f 30/41/1 52/35/1 53/36/1 31/43/1
f 6/40/1 50/34/1 52/35/1 30/41/1
f 34/10/1 56/13/1 51/16/1 13/11/1
f 28/57/1 62/48/1 63/9/1 29/6/1
f 27/55/1 61/46/1 62/48/1 28/57/1
f 26/53/1 60/44/1 61/46/1 27/55/1
f 25/51/1 59/42/1 60/44/1 26/53/1
f 5/50/1 57/39/1 59/42/1 25/51/1
f 29/6/1 63/9/1 58/12/1 14/7/1
o テキスト
v 1.555000 0.015913 -0.335000
v 1.612000 0.015913 -0.380000
v 1.601755 0.015913 -0.390214
v 1.590208 0.015913 -0.401213
v 1.577641 0.015913 -0.412781
v 1.564333 0.015913 -0.424704
v 1.550568 0.015913 -0.436765
v 1.536625 0.015913 -0.448750
v 1.522786 0.015913 -0.460443
v 1.509333 0.015913 -0.471630
v 1.496547 0.015913 -0.482094
v 1.484708 0.015913 -0.491620
v 1.474099 0.015913 -0.499994
v 1.465000 0.015913 -0.507000
v 1.408000 0.015913 -0.466000
v 1.419181 0.015913 -0.457426
v 1.431111 0.015913 -0.447824
v 1.443625 0.015913 -0.437375
v 1.456555 0.015913 -0.426259
v 1.469736 0.015913 -0.414657
v 1.483000 0.015913 -0.402750
v 1.496181 0.015913 -0.390718
v 1.509111 0.015913 -0.378741
v 1.521625 0.015913 -0.367000
v 1.533556 0.015913 -0.355676
v 1.544736 0.015913 -0.344949
v 1.060000 0.015913 -0.129000
v 1.098000 0.015913 -0.047000
v 1.109990 0.015913 -0.052554
v 1.122921 0.015913 -0.058685
v 1.136734 0.015913 -0.065344
v 1.151370 0.015913 -0.072481
v 1.166770 0.015913 -0.080050
v 1.182875 0.015913 -0.088000
v 1.199626 0.015913 -0.096284
v 1.216963 0.015913 -0.104852
v 1.234828 0.015913 -0.113656
v 1.253162 0.015913 -0.122648
v 1.271906 0.015913 -0.131779
v 1.291000 0.015913 -0.141000
v 1.329000 0.015913 -0.058000
v 1.343058 0.015913 -0.024667
v 1.356713 0.015913 0.009662
v 1.369937 0.015913 0.044734
v 1.382704 0.015913 0.080296
v 1.394984 0.015913 0.116094
v 1.406750 0.015913 0.151875
v 1.417974 0.015913 0.187385
v 1.428630 0.015913 0.222370
v 1.438687 0.015913 0.256578
v 1.448120 0.015913 0.289755
v 1.456900 0.015913 0.321646
v 1.465000 0.015913 0.352000
v 1.551000 0.015913 0.329000
v 1.541917 0.015913 0.299997
v 1.531755 0.015913 0.268306
v 1.520641 0.015913 0.234406
v 1.508704 0.015913 0.198778
v 1.496072 0.015913 0.161899
v 1.482875 0.015913 0.124250
v 1.469240 0.015913 0.086309
v 1.455296 0.015913 0.048556
v 1.441172 0.015913 0.011469
v 1.426995 0.015913 -0.024472
v 1.412895 0.015913 -0.058788
v 1.399000 0.015913 -0.091000
v 1.361000 0.015913 -0.174000
v 1.390122 0.015913 -0.187331
v 1.419389 0.015913 -0.200231
v 1.448656 0.015913 -0.212563
v 1.477778 0.015913 -0.224185
v 1.506608 0.015913 -0.234961
v 1.535000 0.015913 -0.244750
v 1.562809 0.015913 -0.253414
v 1.589889 0.015913 -0.260815
v 1.616094 0.015913 -0.266813
v 1.641278 0.015913 -0.271269
v 1.665295 0.015913 -0.274044
v 1.688000 0.015913 -0.275000
v 1.711440 0.015913 -0.273903
v 1.732769 0.015913 -0.270727
v 1.752000 0.015913 -0.265641
v 1.769148 0.015913 -0.258815
v 1.784227 0.015913 -0.250420
v 1.797250 0.015913 -0.240625
v 1.808231 0.015913 -0.229601
v 1.817185 0.015913 -0.217519
v 1.824125 0.015913 -0.204547
v 1.829065 0.015913 -0.190857
v 1.832018 0.015913 -0.176617
v 1.833000 0.015913 -0.162000
v 1.832032 0.015913 -0.144278
v 1.829088 0.015913 -0.127222
v 1.824109 0.015913 -0.111000
v 1.817037 0.015913 -0.095778
v 1.807812 0.015913 -0.081722
v 1.796375 0.015913 -0.069000
v 1.782667 0.015913 -0.057778
v 1.766630 0.015913 -0.048222
v 1.748203 0.015913 -0.040500
v 1.727329 0.015913 -0.034778
v 1.703947 0.015913 -0.031222
v 1.678000 0.015913 -0.030000
v 1.664817 0.015913 -0.030305
v 1.651787 0.015913 -0.031190
v 1.638937 0.015913 -0.032609
v 1.626296 0.015913 -0.034519
v 1.613891 0.015913 -0.036872
v 1.601750 0.015913 -0.039625
v 1.589900 0.015913 -0.042732
v 1.578370 0.015913 -0.046148
v 1.567188 0.015913 -0.049828
v 1.556380 0.015913 -0.053727
v 1.545975 0.015913 -0.057799
v 1.536000 0.015913 -0.062000
v 1.533000 0.015913 0.016000
v 1.542865 0.015913 0.019492
v 1.553417 0.015913 0.022935
v 1.564594 0.015913 0.026281
v 1.576333 0.015913 0.029481
v 1.588573 0.015913 0.032487
v 1.601250 0.015913 0.035250
v 1.614302 0.015913 0.037721
v 1.627667 0.015913 0.039852
v 1.641281 0.015913 0.041594
v 1.655083 0.015913 0.042898
v 1.669010 0.015913 0.043716
v 1.683000 0.015913 0.044000
v 1.720296 0.015913 0.042222
v 1.754204 0.015913 0.037023
v 1.784750 0.015913 0.028609
v 1.811963 0.015913 0.017185
v 1.835871 0.015913 0.002955
v 1.856500 0.015913 -0.013875
v 1.873880 0.015913 -0.033101
v 1.888037 0.015913 -0.054519
v 1.899000 0.015913 -0.077922
v 1.906796 0.015913 -0.103107
v 1.911454 0.015913 -0.129867
v 1.913000 0.015913 -0.158000
v 1.911248 0.015913 -0.184597
v 1.906065 0.015913 -0.209773
v 1.897563 0.015913 -0.233359
v 1.885852 0.015913 -0.255185
v 1.871044 0.015913 -0.275080
v 1.853250 0.015913 -0.292875
v 1.832581 0.015913 -0.308399
v 1.809148 0.015913 -0.321481
v 1.783063 0.015913 -0.331953
v 1.754435 0.015913 -0.339644
v 1.723378 0.015913 -0.344383
v 1.690000 0.015913 -0.346000
v 1.663380 0.015913 -0.344907
v 1.635625 0.015913 -0.341755
v 1.606891 0.015913 -0.336734
v 1.577333 0.015913 -0.330037
v 1.547109 0.015913 -0.321854
v 1.516375 0.015913 -0.312375
v 1.485286 0.015913 -0.301792
v 1.454000 0.015913 -0.290296
v 1.422672 0.015913 -0.278078
v 1.391458 0.015913 -0.265329
v 1.360515 0.015913 -0.252239
v 1.330000 0.015913 -0.239000
v 1.325001 0.015913 -0.249455
v 1.320009 0.015913 -0.259810
v 1.315031 0.015913 -0.270047
v 1.310074 0.015913 -0.280148
v 1.305145 0.015913 -0.290097
v 1.300250 0.015913 -0.299875
v 1.295397 0.015913 -0.309466
v 1.290592 0.015913 -0.318852
v 1.285844 0.015913 -0.328016
v 1.281157 0.015913 -0.336940
v 1.276540 0.015913 -0.345607
v 1.272000 0.015913 -0.354000
v 1.269134 0.015913 -0.358794
v 1.266074 0.015913 -0.364102
v 1.262875 0.015913 -0.369813
v 1.259593 0.015913 -0.375815
v 1.256282 0.015913 -0.381998
v 1.253000 0.015913 -0.388250
v 1.249801 0.015913 -0.394461
v 1.246741 0.015913 -0.400519
v 1.243875 0.015913 -0.406313
v 1.241259 0.015913 -0.411732
v 1.238949 0.015913 -0.416664
v 1.237000 0.015913 -0.421000
v 1.155000 0.015913 -0.388000
v 1.159077 0.015913 -0.382784
v 1.163282 0.015913 -0.377185
v 1.167578 0.015913 -0.371281
v 1.171926 0.015913 -0.365148
v 1.176288 0.015913 -0.358862
v 1.180625 0.015913 -0.352500
v 1.184900 0.015913 -0.346138
v 1.189074 0.015913 -0.339852
v 1.193110 0.015913 -0.333719
v 1.196968 0.015913 -0.327815
v 1.200611 0.015913 -0.322217
v 1.204000 0.015913 -0.317000
v 1.208292 0.015913 -0.309794
v 1.212667 0.015913 -0.302185
v 1.217125 0.015913 -0.294188
v 1.221667 0.015913 -0.285815
v 1.226292 0.015913 -0.277081
v 1.231000 0.015913 -0.268000
v 1.235791 0.015913 -0.258586
v 1.240667 0.015913 -0.248852
v 1.245625 0.015913 -0.238812
v 1.250667 0.015913 -0.228481
v 1.255792 0.015913 -0.217873
v 1.261000 0.015913 -0.207000
v 1.249855 0.015913 -0.202043
v 1.238921 0.015913 -0.197181
v 1.228203 0.015913 -0.192422
v 1.217704 0.015913 -0.187778
v 1.207426 0.015913 -0.183259
v 1.197375 0.015913 -0.178875
v 1.187553 0.015913 -0.174637
v 1.177963 0.015913 -0.170556
v 1.168609 0.015913 -0.166641
v 1.159495 0.015913 -0.162903
v 1.150624 0.015913 -0.159352
v 1.142000 0.015913 -0.156000
v 1.137159 0.015913 -0.154132
v 1.131690 0.015913 -0.152056
v 1.125672 0.015913 -0.149813
v 1.119185 0.015913 -0.147444
v 1.112310 0.015913 -0.144993
v 1.105125 0.015913 -0.142500
v 1.097711 0.015913 -0.140007
v 1.090148 0.015913 -0.137556
v 1.082516 0.015913 -0.135188
v 1.074893 0.015913 -0.132944
v 1.067362 0.015913 -0.130868
v 0.396000 0.015913 -0.273000
v 0.396000 0.015913 -0.193000
v 0.407304 0.015913 -0.192252
v 0.419597 0.015913 -0.191514
v 0.432703 0.015913 -0.190797
v 0.446444 0.015913 -0.190111
v 0.460644 0.015913 -0.189467
v 0.475125 0.015913 -0.188875
v 0.489710 0.015913 -0.188346
v 0.504222 0.015913 -0.187889
v 0.518484 0.015913 -0.187516
v 0.532319 0.015913 -0.187236
v 0.545550 0.015913 -0.187061
v 0.558000 0.015913 -0.187000
v 0.568291 0.015913 -0.187021
v 0.578657 0.015913 -0.187083
v 0.589094 0.015913 -0.187188
v 0.599593 0.015913 -0.187333
v 0.610147 0.015913 -0.187521
v 0.620750 0.015913 -0.187750
v 0.631395 0.015913 -0.188021
v 0.642074 0.015913 -0.188333
v 0.652781 0.015913 -0.188688
v 0.663509 0.015913 -0.189083
v 0.674251 0.015913 -0.189521
v 0.685000 0.015913 -0.190000
v 0.685000 0.015913 -0.159000
v 0.684820 0.015913 -0.112611
v 0.684060 0.015913 -0.069306
v 0.682391 0.015913 -0.028875
v 0.679482 0.015913 0.008889
v 0.675003 0.015913 0.044194
v 0.668625 0.015913 0.077250
v 0.660018 0.015913 0.108264
v 0.648852 0.015913 0.137444
v 0.634797 0.015913 0.165000
v 0.617523 0.015913 0.191139
v 0.596701 0.015913 0.216069
v 0.572000 0.015913 0.240000
v 0.565661 0.015913 0.246013
v 0.558704 0.015913 0.252023
v 0.551219 0.015913 0.257984
v 0.543296 0.015913 0.263852
v 0.535027 0.015913 0.269580
v 0.526500 0.015913 0.275125
v 0.517807 0.015913 0.280440
v 0.509037 0.015913 0.285482
v 0.500281 0.015913 0.290203
v 0.491630 0.015913 0.294560
v 0.483172 0.015913 0.298508
v 0.475000 0.015913 0.302000
v 0.548000 0.015913 0.359000
v 0.596706 0.015913 0.326942
v 0.637315 0.015913 0.293199
v 0.670563 0.015913 0.257672
v 0.697185 0.015913 0.220259
v 0.717919 0.015913 0.180861
v 0.733500 0.015913 0.139375
v 0.744664 0.015913 0.095702
v 0.752148 0.015913 0.049741
v 0.756688 0.015913 0.001391
v 0.759019 0.015913 -0.049449
v 0.759877 0.015913 -0.102879
v 0.760000 0.015913 -0.159000
v 0.760000 0.015913 -0.194000
v 0.774913 0.015913 -0.195041
v 0.789639 0.015913 -0.196162
v 0.804156 0.015913 -0.197359
v 0.818444 0.015913 -0.198630
v 0.832483 0.015913 -0.199969
v 0.846250 0.015913 -0.201375
v 0.859726 0.015913 -0.202843
v 0.872889 0.015913 -0.204370
v 0.885719 0.015913 -0.205953
v 0.898194 0.015913 -0.207588
v 0.910295 0.015913 -0.209271
v 0.922000 0.015913 -0.211000
v 0.922000 0.015913 -0.293000
v 0.910046 0.015913 -0.290332
v 0.897704 0.015913 -0.287824
v 0.885000 0.015913 -0.285469
v 0.871963 0.015913 -0.283259
v 0.858620 0.015913 -0.281189
v 0.845000 0.015913 -0.279250
v 0.831130 0.015913 -0.277436
v 0.817037 0.015913 -0.275741
v 0.802750 0.015913 -0.274156
v 0.788296 0.015913 -0.272676
v 0.773704 0.015913 -0.271293
v 0.759000 0.015913 -0.270000
v 0.758000 0.015913 -0.421000
v 0.758021 0.015913 -0.426458
v 0.758083 0.015913 -0.431829
v 0.758188 0.015913 -0.437109
v 0.758333 0.015913 -0.442296
v 0.758521 0.015913 -0.447386
v 0.758750 0.015913 -0.452375
v 0.759021 0.015913 -0.457260
v 0.759333 0.015913 -0.462037
v 0.759688 0.015913 -0.466703
v 0.760083 0.015913 -0.471255
v 0.760521 0.015913 -0.475688
v 0.761000 0.015913 -0.480000
v 0.668000 0.015913 -0.480000
v 0.668769 0.015913 -0.475898
v 0.669569 0.015913 -0.471597
v 0.670391 0.015913 -0.467109
v 0.671222 0.015913 -0.462444
v 0.672054 0.015913 -0.457613
v 0.672875 0.015913 -0.452625
v 0.673675 0.015913 -0.447491
v 0.674444 0.015913 -0.442222
v 0.675172 0.015913 -0.436828
v 0.675847 0.015913 -0.431319
v 0.676460 0.015913 -0.425707
v 0.677000 0.015913 -0.420000
v 0.677519 0.015913 -0.412902
v 0.678069 0.015913 -0.404213
v 0.678641 0.015913 -0.394094
v 0.679222 0.015913 -0.382704
v 0.679804 0.015913 -0.370203
v 0.680375 0.015913 -0.356750
v 0.680925 0.015913 -0.342506
v 0.681445 0.015913 -0.327630
v 0.681922 0.015913 -0.312281
v 0.682347 0.015913 -0.296620
v 0.682710 0.015913 -0.280807
v 0.683000 0.015913 -0.265000
v 0.672481 0.015913 -0.264521
v 0.661931 0.015913 -0.264083
v 0.651359 0.015913 -0.263687
v 0.640778 0.015913 -0.263333
v 0.630196 0.015913 -0.263021
v 0.619625 0.015913 -0.262750
v 0.609075 0.015913 -0.262521
v 0.598556 0.015913 -0.262333
v 0.588078 0.015913 -0.262188
v 0.577653 0.015913 -0.262083
v 0.567290 0.015913 -0.262021
v 0.557000 0.015913 -0.262000
v 0.543310 0.015913 -0.262083
v 0.529310 0.015913 -0.262329
v 0.515109 0.015913 -0.262734
v 0.500815 0.015913 -0.263296
v 0.486534 0.015913 -0.264011
v 0.472375 0.015913 -0.264875
v 0.458445 0.015913 -0.265885
v 0.444852 0.015913 -0.267037
v 0.431703 0.015913 -0.268328
v 0.419107 0.015913 -0.269755
v 0.407170 0.015913 -0.271313
v 0.255000 0.015913 -0.465000
v 0.162000 0.015913 -0.474000
v 0.161978 0.015913 -0.469340
v 0.161907 0.015913 -0.464384
v 0.161781 0.015913 -0.459172
v 0.161593 0.015913 -0.453741
v 0.161334 0.015913 -0.448129
v 0.161000 0.015913 -0.442375
v 0.160582 0.015913 -0.436517
v 0.160074 0.015913 -0.430593
v 0.159469 0.015913 -0.424641
v 0.158759 0.015913 -0.418699
v 0.157939 0.015913 -0.412806
v 0.157000 0.015913 -0.407000
v 0.153731 0.015913 -0.384807
v 0.150019 0.015913 -0.359875
v 0.146000 0.015913 -0.332422
v 0.141815 0.015913 -0.302667
v 0.137602 0.015913 -0.270828
v 0.133500 0.015913 -0.237125
v 0.129648 0.015913 -0.201776
v 0.126185 0.015913 -0.165000
v 0.123250 0.015913 -0.127016
v 0.120981 0.015913 -0.088042
v 0.119519 0.015913 -0.048297
v 0.119000 0.015913 -0.008000
v 0.119661 0.015913 0.023541
v 0.121537 0.015913 0.054995
v 0.124469 0.015913 0.086109
v 0.128296 0.015913 0.116630
v 0.132860 0.015913 0.146303
v 0.138000 0.015913 0.174875
v 0.143557 0.015913 0.202093
v 0.149370 0.015913 0.227704
v 0.155281 0.015913 0.251453
v 0.161130 0.015913 0.273088
v 0.166756 0.015913 0.292355
v 0.172000 0.015913 0.309000
v 0.240000 0.015913 0.301000
v 0.239750 0.015913 0.298421
v 0.239500 0.015913 0.295704
v 0.239250 0.015913 0.292875
v 0.239000 0.015913 0.289963
v 0.238750 0.015913 0.286995
v 0.238500 0.015913 0.284000
v 0.238250 0.015913 0.281005
v 0.238000 0.015913 0.278037
v 0.237750 0.015913 0.275125
v 0.237500 0.015913 0.272296
v 0.237250 0.015913 0.269579
v 0.237000 0.015913 0.267000
v 0.236812 0.015913 0.264090
v 0.236745 0.015913 0.260889
v 0.236797 0.015913 0.257438
v 0.236963 0.015913 0.253778
v 0.237240 0.015913 0.249951
v 0.237625 0.015913 0.246000
v 0.238114 0.015913 0.241965
v 0.238704 0.015913 0.237889
v 0.239391 0.015913 0.233813
v 0.240171 0.015913 0.229778
v 0.241042 0.015913 0.225826
v 0.242000 0.015913 0.222000
v 0.245131 0.015913 0.208695
v 0.248968 0.015913 0.193477
v 0.253422 0.015913 0.176641
v 0.258407 0.015913 0.158481
v 0.263837 0.015913 0.139295
v 0.269625 0.015913 0.119375
v 0.275683 0.015913 0.099018
v 0.281926 0.015913 0.078519
v 0.288266 0.015913 0.058172
v 0.294616 0.015913 0.038273
v 0.300889 0.015913 0.019117
v 0.307000 0.015913 0.001000
v 0.264000 0.015913 -0.025000
v 0.259214 0.015913 -0.012288
v 0.254375 0.015913 0.000778
v 0.249516 0.015913 0.014094
v 0.244667 0.015913 0.027556
v 0.239859 0.015913 0.041059
v 0.235125 0.015913 0.054500
v 0.230495 0.015913 0.067774
v 0.226000 0.015913 0.080778
v 0.221672 0.015913 0.093406
v 0.217542 0.015913 0.105556
v 0.213641 0.015913 0.117122
v 0.210000 0.015913 0.128000
v 0.201957 0.015913 0.085929
v 0.196657 0.015913 0.042014
v 0.193844 0.015913 -0.003297
v 0.193259 0.015913 -0.049556
v 0.194647 0.015913 -0.096314
v 0.197750 0.015913 -0.143125
v 0.202311 0.015913 -0.189540
v 0.208074 0.015913 -0.235111
v 0.214781 0.015913 -0.279391
v 0.222176 0.015913 -0.321931
v 0.230001 0.015913 -0.362283
v 0.238000 0.015913 -0.400000
v 0.239079 0.015913 -0.404907
v 0.240301 0.015913 -0.410093
v 0.241641 0.015913 -0.415500
v 0.243074 0.015913 -0.421074
v 0.244577 0.015913 -0.426759
v 0.246125 0.015913 -0.432500
v 0.247694 0.015913 -0.438241
v 0.249259 0.015913 -0.443926
v 0.250797 0.015913 -0.449500
v 0.252282 0.015913 -0.454907
v 0.253692 0.015913 -0.460093
v -0.743000 0.015913 0.012000
v -0.824000 0.015913 0.004000
v -0.826514 0.015913 0.014145
v -0.829028 0.015913 0.024574
v -0.831500 0.015913 0.035281
v -0.833889 0.015913 0.046259
v -0.836153 0.015913 0.057501
v -0.838250 0.015913 0.069000
v -0.840139 0.015913 0.080749
v -0.841778 0.015913 0.092741
v -0.843125 0.015913 0.104969
v -0.844139 0.015913 0.117426
v -0.844778 0.015913 0.130105
v -0.845000 0.015913 0.143000
v -0.842561 0.015913 0.173266
v -0.835319 0.015913 0.201046
v -0.823391 0.015913 0.226313
v -0.806889 0.015913 0.249037
v -0.785929 0.015913 0.269192
v -0.760625 0.015913 0.286750
v -0.731092 0.015913 0.301683
v -0.697444 0.015913 0.313963
v -0.659797 0.015913 0.323563
v -0.618264 0.015913 0.330454
v -0.572960 0.015913 0.334609
v -0.524000 0.015913 0.336000
v -0.488606 0.015913 0.335674
v -0.454018 0.015913 0.334727
v -0.420375 0.015913 0.333203
v -0.387815 0.015913 0.331148
v -0.356477 0.015913 0.328607
v -0.326500 0.015913 0.325625
v -0.298023 0.015913 0.322247
v -0.271185 0.015913 0.318519
v -0.246125 0.015913 0.314484
v -0.222981 0.015913 0.310190
v -0.201893 0.015913 0.305680
v -0.183000 0.015913 0.301000
v -0.184000 0.015913 0.215000
v -0.203849 0.015913 0.220809
v -0.225792 0.015913 0.226222
v -0.249672 0.015913 0.231219
v -0.275333 0.015913 0.235778
v -0.302620 0.015913 0.239878
v -0.331375 0.015913 0.243500
v -0.361443 0.015913 0.246622
v -0.392667 0.015913 0.249222
v -0.424891 0.015913 0.251281
v -0.457958 0.015913 0.252778
v -0.491714 0.015913 0.253691
v -0.526000 0.015913 0.254000
v -0.564274 0.015913 0.252932
v -0.599111 0.015913 0.249792
v -0.630531 0.015913 0.244672
v -0.658556 0.015913 0.237667
v -0.683205 0.015913 0.228870
v -0.704500 0.015913 0.218375
v -0.722462 0.015913 0.206276
v -0.737111 0.015913 0.192667
v -0.748469 0.015913 0.177641
v -0.756556 0.015913 0.161292
v -0.761392 0.015913 0.143714
v -0.763000 0.015913 0.125000
v -0.762855 0.015913 0.115749
v -0.762421 0.015913 0.106491
v -0.761703 0.015913 0.097219
v -0.760704 0.015913 0.087926
v -0.759426 0.015913 0.078605
v -0.757875 0.015913 0.069250
v -0.756053 0.015913 0.059853
v -0.753963 0.015913 0.050407
v -0.751609 0.015913 0.040906
v -0.748995 0.015913 0.031343
v -0.746124 0.015913 0.021709
v -0.783000 0.015913 -0.391000
v -0.783000 0.015913 -0.310000
v -0.763119 0.015913 -0.308313
v -0.742954 0.015913 -0.306755
v -0.722469 0.015913 -0.305328
v -0.701630 0.015913 -0.304037
v -0.680402 0.015913 -0.302885
v -0.658750 0.015913 -0.301875
v -0.636640 0.015913 -0.301011
v -0.614037 0.015913 -0.300296
v -0.590906 0.015913 -0.299734
v -0.567213 0.015913 -0.299329
v -0.542922 0.015913 -0.299083
v -0.518000 0.015913 -0.299000
v -0.494679 0.015913 -0.299141
v -0.470852 0.015913 -0.299542
v -0.446719 0.015913 -0.300172
v -0.422481 0.015913 -0.301000
v -0.398341 0.015913 -0.301995
v -0.374500 0.015913 -0.303125
v -0.351158 0.015913 -0.304359
v -0.328518 0.015913 -0.305667
v -0.306781 0.015913 -0.307016
v -0.286148 0.015913 -0.308375
v -0.266821 0.015913 -0.309714
v -0.249000 0.015913 -0.311000
v -0.249000 0.015913 -0.393000
v -0.267604 0.015913 -0.391044
v -0.287333 0.015913 -0.389185
v -0.308062 0.015913 -0.387438
v -0.329667 0.015913 -0.385815
v -0.352021 0.015913 -0.384331
v -0.375000 0.015913 -0.383000
v -0.398479 0.015913 -0.381836
v -0.422333 0.015913 -0.380852
v -0.446437 0.015913 -0.380063
v -0.470667 0.015913 -0.379481
v -0.494896 0.015913 -0.379123
v -0.519000 0.015913 -0.379000
v -0.543826 0.015913 -0.379083
v -0.568278 0.015913 -0.379333
v -0.592312 0.015913 -0.379750
v -0.615889 0.015913 -0.380333
v -0.638965 0.015913 -0.381083
v -0.661500 0.015913 -0.382000
v -0.683451 0.015913 -0.383083
v -0.704778 0.015913 -0.384333
v -0.725437 0.015913 -0.385750
v -0.745389 0.015913 -0.387333
v -0.764590 0.015913 -0.389083
v -0.221000 0.015913 -0.503000
v -0.275000 0.015913 -0.480000
v -0.267887 0.015913 -0.470046
v -0.260593 0.015913 -0.459282
v -0.253187 0.015913 -0.447859
v -0.245741 0.015913 -0.435926
v -0.238322 0.015913 -0.423631
v -0.231000 0.015913 -0.411125
v -0.223845 0.015913 -0.398556
v -0.216926 0.015913 -0.386074
v -0.210312 0.015913 -0.373828
v -0.204074 0.015913 -0.361968
v -0.198280 0.015913 -0.350642
v -0.193000 0.015913 -0.340000
v -0.139000 0.015913 -0.365000
v -0.144547 0.015913 -0.375431
v -0.150630 0.015913 -0.386611
v -0.157156 0.015913 -0.398375
v -0.164037 0.015913 -0.410556
v -0.171182 0.015913 -0.422986
v -0.178500 0.015913 -0.435500
v -0.185902 0.015913 -0.447931
v -0.193296 0.015913 -0.460111
v -0.200594 0.015913 -0.471875
v -0.207704 0.015913 -0.483056
v -0.214536 0.015913 -0.493486
v -0.111000 0.015913 -0.543000
v -0.164000 0.015913 -0.520000
v -0.156676 0.015913 -0.510123
v -0.149241 0.015913 -0.499570
v -0.141750 0.015913 -0.488453
v -0.134259 0.015913 -0.476889
v -0.126824 0.015913 -0.464991
v -0.119500 0.015913 -0.452875
v -0.112343 0.015913 -0.440655
v -0.105407 0.015913 -0.428445
v -0.098750 0.015913 -0.416359
v -0.092426 0.015913 -0.404514
v -0.086491 0.015913 -0.393023
v -0.081000 0.015913 -0.382000
v -0.026000 0.015913 -0.406000
v -0.031358 0.015913 -0.415762
v -0.037366 0.015913 -0.426426
v -0.043922 0.015913 -0.437813
v -0.050926 0.015913 -0.449741
v -0.058277 0.015913 -0.462030
v -0.065875 0.015913 -0.474500
v -0.073619 0.015913 -0.486970
v -0.081407 0.015913 -0.499259
v -0.089141 0.015913 -0.511187
v -0.096718 0.015913 -0.522574
v -0.104038 0.015913 -0.533238
v -1.700000 0.015913 -0.483000
v -1.713000 0.015913 -0.407000
v -1.683000 0.015913 -0.402008
v -1.649917 0.015913 -0.397060
v -1.614375 0.015913 -0.392203
v -1.577000 0.015913 -0.387481
v -1.538417 0.015913 -0.382940
v -1.499250 0.015913 -0.378625
v -1.460125 0.015913 -0.374580
v -1.421667 0.015913 -0.370852
v -1.384500 0.015913 -0.367484
v -1.349250 0.015913 -0.364523
v -1.316542 0.015913 -0.362013
v -1.287000 0.015913 -0.360000
v -1.275000 0.015913 -0.437000
v -1.301848 0.015913 -0.437638
v -1.332870 0.015913 -0.439019
v -1.367281 0.015913 -0.441094
v -1.404296 0.015913 -0.443815
v -1.443131 0.015913 -0.447133
v -1.483000 0.015913 -0.451000
v -1.523119 0.015913 -0.455367
v -1.562703 0.015913 -0.460185
v -1.600969 0.015913 -0.465406
v -1.637130 0.015913 -0.470982
v -1.670402 0.015913 -0.476862
v -1.280000 0.015913 -0.033000
v -1.283505 0.015913 0.010031
v -1.293792 0.015913 0.049662
v -1.310516 0.015913 0.085953
v -1.333333 0.015913 0.118963
v -1.361901 0.015913 0.148751
v -1.395875 0.015913 0.175375
v -1.434911 0.015913 0.198895
v -1.478667 0.015913 0.219370
v -1.526797 0.015913 0.236859
v -1.578958 0.015913 0.251421
v -1.634807 0.015913 0.263115
v -1.694000 0.015913 0.272000
v -1.649000 0.015913 0.348000
v -1.585659 0.015913 0.336514
v -1.525440 0.015913 0.321528
v -1.468797 0.015913 0.303000
v -1.416185 0.015913 0.280889
v -1.368060 0.015913 0.255153
v -1.324875 0.015913 0.225750
v -1.287086 0.015913 0.192639
v -1.255148 0.015913 0.155778
v -1.229516 0.015913 0.115125
v -1.210643 0.015913 0.070639
v -1.198987 0.015913 0.022278
v -1.195000 0.015913 -0.030000
v -1.197168 0.015913 -0.064408
v -1.203509 0.015913 -0.096097
v -1.213781 0.015913 -0.125016
v -1.227741 0.015913 -0.151111
v -1.245145 0.015913 -0.174332
v -1.265750 0.015913 -0.194625
v -1.289314 0.015913 -0.211939
v -1.315593 0.015913 -0.226222
v -1.344344 0.015913 -0.237422
v -1.375324 0.015913 -0.245486
v -1.408291 0.015913 -0.250363
v -1.443000 0.015913 -0.252000
v -1.471704 0.015913 -0.251361
v -1.500218 0.015913 -0.249556
v -1.528391 0.015913 -0.246750
v -1.556074 0.015913 -0.243111
v -1.583119 0.015913 -0.238806
v -1.609375 0.015913 -0.234000
v -1.634694 0.015913 -0.228861
v -1.658926 0.015913 -0.223556
v -1.681922 0.015913 -0.218250
v -1.703532 0.015913 -0.213111
v -1.723608 0.015913 -0.208306
v -1.742000 0.015913 -0.204000
v -1.749578 0.015913 -0.202273
v -1.757287 0.015913 -0.200597
v -1.765094 0.015913 -0.198984
v -1.772963 0.015913 -0.197444
v -1.780860 0.015913 -0.195988
v -1.788750 0.015913 -0.194625
v -1.796598 0.015913 -0.193366
v -1.804370 0.015913 -0.192222
v -1.812031 0.015913 -0.191203
v -1.819546 0.015913 -0.190319
v -1.826881 0.015913 -0.189582
v -1.834000 0.015913 -0.189000
v -1.808000 0.015913 -0.096000
v -1.801898 0.015913 -0.098520
v -1.795597 0.015913 -0.101074
v -1.789109 0.015913 -0.103656
v -1.782444 0.015913 -0.106259
v -1.775613 0.015913 -0.108876
v -1.768625 0.015913 -0.111500
v -1.761491 0.015913 -0.114124
v -1.754222 0.015913 -0.116741
v -1.746828 0.015913 -0.119344
v -1.739319 0.015913 -0.121926
v -1.731707 0.015913 -0.124480
v -1.724000 0.015913 -0.127000
v -1.708450 0.015913 -0.131555
v -1.691347 0.015913 -0.136606
v -1.672765 0.015913 -0.141984
v -1.652778 0.015913 -0.147519
v -1.631456 0.015913 -0.153039
v -1.608875 0.015913 -0.158375
v -1.585106 0.015913 -0.163357
v -1.560222 0.015913 -0.167815
v -1.534297 0.015913 -0.171578
v -1.507403 0.015913 -0.174477
v -1.479613 0.015913 -0.176341
v -1.451000 0.015913 -0.177000
v -1.425998 0.015913 -0.175771
v -1.402569 0.015913 -0.172167
v -1.380828 0.015913 -0.166313
v -1.360889 0.015913 -0.158333
v -1.342866 0.015913 -0.148354
v -1.326875 0.015913 -0.136500
v -1.313030 0.015913 -0.122896
v -1.301445 0.015913 -0.107667
v -1.292234 0.015913 -0.090938
v -1.285514 0.015913 -0.072833
v -1.281398 0.015913 -0.053479
vn -0.0000 1.0000 -0.0000
vt 0.059574 0.000000
vt 0.051064 0.000000
vt 0.055319 0.000000
vt 0.046809 0.000000
vt 0.042553 0.000000
vt 0.038298 0.000000
vt 0.034043 0.000000
vt 0.063830 0.000000
vt 0.029787 0.000000
vt 0.068085 0.000000
vt 0.025532 0.000000
vt 0.072340 0.000000
vt 0.076596 0.000000
vt 0.021277 0.000000
vt 0.080851 0.000000
vt 0.017021 0.000000
vt 0.800000 0.000000
vt 0.791489 0.000000
vt 0.795745 0.000000
vt 0.787234 0.000000
vt 0.085106 0.000000
vt 0.012766 0.000000
vt 0.782979 0.000000
vt 0.778723 0.000000
vt 0.089362 0.000000
vt 0.008511 0.000000
vt 0.774468 0.000000
vt 0.770213 0.000000
vt 0.093617 0.000000
vt 0.004255 0.000000
vt 0.765957 0.000000
vt 0.804255 0.000000
vt 0.808511 0.000000
vt 0.761702 0.000000
vt 0.097872 0.000000
vt 0.102128 0.000000
vt 0.106383 0.000000
vt 0.000000 0.000000
vt 0.812766 0.000000
vt 0.757447 0.000000
vt 0.817021 0.000000
vt 0.753191 0.000000
vt 0.821277 0.000000
vt 0.748936 0.000000
vt 0.825532 0.000000
vt 0.744681 0.000000
vt 0.740426 0.000000
vt 0.829787 0.000000
vt 0.834043 0.000000
vt 0.646809 0.000000
vt 0.638298 0.000000
vt 0.642553 0.000000
vt 0.736170 0.000000
vt 0.651064 0.000000
vt 0.634043 0.000000
vt 0.655319 0.000000
vt 0.838298 0.000000
vt 0.629787 0.000000
vt 0.731915 0.000000
vt 0.659574 0.000000
vt 0.842553 0.000000
vt 0.625532 0.000000
vt 0.663830 0.000000
vt 0.727660 0.000000
vt 0.846808 0.000000
vt 0.851064 0.000000
vt 0.668085 0.000000
vt 0.621277 0.000000
vt 0.723404 0.000000
vt 0.855319 0.000000
vt 0.672340 0.000000
vt 0.859574 0.000000
vt 0.719149 0.000000
vt 0.617021 0.000000
vt 0.863830 0.000000
vt 0.676596 0.000000
vt 0.714894 0.000000
vt 0.868085 0.000000
vt 0.612766 0.000000
vt 0.680851 0.000000
vt 0.710638 0.000000
vt 0.872340 0.000000
vt 0.706383 0.000000
vt 0.685106 0.000000
vt 0.331915 0.000000
vt 0.876596 0.000000
vt 0.336170 0.000000
vt 0.608511 0.000000
vt 0.327660 0.000000
vt 0.323404 0.000000
vt 0.340426 0.000000
vt 0.319149 0.000000
vt 0.344681 0.000000
vt 0.702128 0.000000
vt 0.880851 0.000000
vt 0.314894 0.000000
vt 0.348936 0.000000
vt 0.689362 0.000000
vt 0.310638 0.000000
vt 0.697872 0.000000
vt 0.353191 0.000000
vt 0.885106 0.000000
vt 0.604255 0.000000
vt 0.306383 0.000000
vt 0.693617 0.000000
vt 0.357447 0.000000
vt 0.889362 0.000000
vt 0.302128 0.000000
vt 0.361702 0.000000
vt 0.893617 0.000000
vt 0.297872 0.000000
vt 0.600000 0.000000
vt 0.365957 0.000000
vt 0.897872 0.000000
vt 0.293617 0.000000
vt 0.902128 0.000000
vt 0.370213 0.000000
vt 0.289362 0.000000
vt 0.595745 0.000000
vt 0.906383 0.000000
vt 0.374468 0.000000
vt 0.910638 0.000000
vt 0.285106 0.000000
vt 0.914894 0.000000
vt 0.919149 0.000000
vt 0.378723 0.000000
vt 0.923404 0.000000
vt 0.280851 0.000000
vt 0.591489 0.000000
vt 0.927660 0.000000
vt 0.931915 0.000000
vt 0.382979 0.000000
vt 0.936170 0.000000
vt 0.165957 0.000000
vt 0.276596 0.000000
vt 0.940426 0.000000
vt 0.944681 0.000000
vt 0.948936 0.000000
vt 0.387234 0.000000
vt 0.953192 0.000000
vt 0.587234 0.000000
vt 0.957447 0.000000
vt 0.961702 0.000000
vt 0.965957 0.000000
vt 0.970213 0.000000
vt 0.974468 0.000000
vt 0.978723 0.000000
vt 0.391489 0.000000
vt 0.982979 0.000000
vt 0.161702 0.000000
vt 0.170213 0.000000
vt 0.987234 0.000000
vt 0.991489 0.000000
vt 0.995745 0.000000
vt 1.000000 0.000000
vt 0.157447 0.000000
vt 0.110638 0.000000
vt 0.582979 0.000000
vt 0.114894 0.000000
vt 0.395745 0.000000
vt 0.153191 0.000000
vt 0.148936 0.000000
vt 0.400000 0.000000
vt 0.144681 0.000000
vt 0.578723 0.000000
vt 0.140426 0.000000
vt 0.404255 0.000000
vt 0.272340 0.000000
vt 0.136170 0.000000
vt 0.408511 0.000000
vt 0.131915 0.000000
vt 0.574468 0.000000
vt 0.127660 0.000000
vt 0.412766 0.000000
vt 0.123404 0.000000
vt 0.489362 0.000000
vt 0.480851 0.000000
vt 0.485106 0.000000
vt 0.268085 0.000000
vt 0.119149 0.000000
vt 0.174468 0.000000
vt 0.476596 0.000000
vt 0.417021 0.000000
vt 0.570213 0.000000
vt 0.472340 0.000000
vt 0.468085 0.000000
vt 0.421277 0.000000
vt 0.463830 0.000000
vt 0.459574 0.000000
vt 0.425532 0.000000
vt 0.455319 0.000000
vt 0.451064 0.000000
vt 0.429787 0.000000
vt 0.446809 0.000000
vt 0.565957 0.000000
vt 0.442553 0.000000
vt 0.434043 0.000000
vt 0.438298 0.000000
vt 0.178723 0.000000
vt 0.263830 0.000000
vt 0.561702 0.000000
vt 0.557447 0.000000
vt 0.182979 0.000000
vt 0.259574 0.000000
vt 0.493617 0.000000
vt 0.553191 0.000000
vt 0.497872 0.000000
vt 0.502128 0.000000
vt 0.506383 0.000000
vt 0.548936 0.000000
vt 0.510638 0.000000
vt 0.514894 0.000000
vt 0.519149 0.000000
vt 0.544681 0.000000
vt 0.523404 0.000000
vt 0.527660 0.000000
vt 0.531915 0.000000
vt 0.540426 0.000000
vt 0.536170 0.000000
vt 0.187234 0.000000
vt 0.255319 0.000000
vt 0.191489 0.000000
vt 0.251064 0.000000
vt 0.195745 0.000000
vt 0.246809 0.000000
vt 0.200000 0.000000
vt 0.242553 0.000000
vt 0.204255 0.000000
vt 0.238298 0.000000
vt 0.208511 0.000000
vt 0.234043 0.000000
vt 0.212766 0.000000
vt 0.229787 0.000000
vt 0.217021 0.000000
vt 0.225532 0.000000
vt 0.221277 0.000000
vt 0.586207 0.000000
vt 0.578544 0.000000
vt 0.582375 0.000000
vt 0.590038 0.000000
vt 0.593870 0.000000
vt 0.996169 0.000000
vt 0.597701 0.000000
vt 0.992337 0.000000
vt 0.601533 0.000000
vt 0.988506 0.000000
vt 0.605364 0.000000
vt 0.984674 0.000000
vt 0.609195 0.000000
vt 0.980843 0.000000
vt 0.613027 0.000000
vt 0.977012 0.000000
vt 0.616858 0.000000
vt 0.973180 0.000000
vt 0.620690 0.000000
vt 0.969349 0.000000
vt 0.624521 0.000000
vt 0.965517 0.000000
vt 0.628352 0.000000
vt 0.961686 0.000000
vt 0.632184 0.000000
vt 0.957854 0.000000
vt 0.954023 0.000000
vt 0.636015 0.000000
vt 0.950192 0.000000
vt 0.639847 0.000000
vt 0.643678 0.000000
vt 0.946360 0.000000
vt 0.647510 0.000000
vt 0.942529 0.000000
vt 0.651341 0.000000
vt 0.655172 0.000000
vt 0.938697 0.000000
vt 0.659004 0.000000
vt 0.934866 0.000000
vt 0.662835 0.000000
vt 0.931035 0.000000
vt 0.666667 0.000000
vt 0.927203 0.000000
vt 0.670498 0.000000
vt 0.923372 0.000000
vt 0.674330 0.000000
vt 0.869732 0.000000
vt 0.862069 0.000000
vt 0.865900 0.000000
vt 0.873563 0.000000
vt 0.678161 0.000000
vt 0.919540 0.000000
vt 0.877395 0.000000
vt 0.858238 0.000000
vt 0.881226 0.000000
vt 0.854406 0.000000
vt 0.681992 0.000000
vt 0.885057 0.000000
vt 0.850575 0.000000
vt 0.888889 0.000000
vt 0.915709 0.000000
vt 0.892720 0.000000
vt 0.685824 0.000000
vt 0.846743 0.000000
vt 0.896552 0.000000
vt 0.842912 0.000000
vt 0.900383 0.000000
vt 0.911877 0.000000
vt 0.689655 0.000000
vt 0.904215 0.000000
vt 0.839080 0.000000
vt 0.908046 0.000000
vt 0.693487 0.000000
vt 0.835249 0.000000
vt 0.831418 0.000000
vt 0.697318 0.000000
vt 0.827586 0.000000
vt 0.701149 0.000000
vt 0.823755 0.000000
vt 0.819923 0.000000
vt 0.704981 0.000000
vt 0.816092 0.000000
vt 0.812261 0.000000
vt 0.808429 0.000000
vt 0.708812 0.000000
vt 0.804598 0.000000
vt 0.800766 0.000000
vt 0.796935 0.000000
vt 0.793103 0.000000
vt 0.789272 0.000000
vt 0.785441 0.000000
vt 0.712644 0.000000
vt 0.781609 0.000000
vt 0.777778 0.000000
vt 0.773946 0.000000
vt 0.770115 0.000000
vt 0.766284 0.000000
vt 0.762452 0.000000
vt 0.758621 0.000000
vt 0.716475 0.000000
vt 0.754789 0.000000
vt 0.750958 0.000000
vt 0.747126 0.000000
vt 0.743295 0.000000
vt 0.739464 0.000000
vt 0.735632 0.000000
vt 0.720307 0.000000
vt 0.731801 0.000000
vt 0.727969 0.000000
vt 0.724138 0.000000
vt 0.398467 0.000000
vt 0.390805 0.000000
vt 0.394636 0.000000
vt 0.386973 0.000000
vt 0.402299 0.000000
vt 0.383142 0.000000
vt 0.406130 0.000000
vt 0.379310 0.000000
vt 0.409962 0.000000
vt 0.375479 0.000000
vt 0.413793 0.000000
vt 0.371648 0.000000
vt 0.417625 0.000000
vt 0.367816 0.000000
vt 0.421456 0.000000
vt 0.363985 0.000000
vt 0.425287 0.000000
vt 0.360153 0.000000
vt 0.356322 0.000000
vt 0.429119 0.000000
vt 0.352490 0.000000
vt 0.432950 0.000000
vt 0.348659 0.000000
vt 0.436782 0.000000
vt 0.344828 0.000000
vt 0.440613 0.000000
vt 0.340996 0.000000
vt 0.444444 0.000000
vt 0.448276 0.000000
vt 0.452107 0.000000
vt 0.455939 0.000000
vt 0.459770 0.000000
vt 0.463602 0.000000
vt 0.467433 0.000000
vt 0.471264 0.000000
vt 0.475096 0.000000
vt 0.478927 0.000000
vt 0.482759 0.000000
vt 0.298851 0.000000
vt 0.291188 0.000000
vt 0.295019 0.000000
vt 0.302682 0.000000
vt 0.306513 0.000000
vt 0.310345 0.000000
vt 0.314176 0.000000
vt 0.318008 0.000000
vt 0.486590 0.000000
vt 0.321839 0.000000
vt 0.325671 0.000000
vt 0.329502 0.000000
vt 0.333333 0.000000
vt 0.003831 0.000000
vt 0.574713 0.000000
vt 0.337165 0.000000
vt 0.570881 0.000000
vt 0.567050 0.000000
vt 0.563218 0.000000
vt 0.559387 0.000000
vt 0.555556 0.000000
vt 0.490421 0.000000
vt 0.551724 0.000000
vt 0.494253 0.000000
vt 0.498084 0.000000
vt 0.547893 0.000000
vt 0.501916 0.000000
vt 0.505747 0.000000
vt 0.544061 0.000000
vt 0.509579 0.000000
vt 0.513410 0.000000
vt 0.540230 0.000000
vt 0.517241 0.000000
vt 0.521073 0.000000
vt 0.536398 0.000000
vt 0.524904 0.000000
vt 0.528736 0.000000
vt 0.532567 0.000000
vt 0.287356 0.000000
vt 0.283525 0.000000
vt 0.279693 0.000000
vt 0.275862 0.000000
vt 0.272031 0.000000
vt 0.268199 0.000000
vt 0.264368 0.000000
vt 0.260536 0.000000
vt 0.256705 0.000000
vt 0.252874 0.000000
vt 0.249042 0.000000
vt 0.245211 0.000000
vt 0.095785 0.000000
vt 0.241379 0.000000
vt 0.007663 0.000000
vt 0.011494 0.000000
vt 0.015326 0.000000
vt 0.019157 0.000000
vt 0.022989 0.000000
vt 0.091954 0.000000
vt 0.099617 0.000000
vt 0.088123 0.000000
vt 0.026820 0.000000
vt 0.084291 0.000000
vt 0.030651 0.000000
vt 0.080460 0.000000
vt 0.034483 0.000000
vt 0.076628 0.000000
vt 0.072797 0.000000
vt 0.038314 0.000000
vt 0.068966 0.000000
vt 0.065134 0.000000
vt 0.042146 0.000000
vt 0.061303 0.000000
vt 0.045977 0.000000
vt 0.057471 0.000000
vt 0.053640 0.000000
vt 0.049808 0.000000
vt 0.103448 0.000000
vt 0.237548 0.000000
vt 0.107280 0.000000
vt 0.233716 0.000000
vt 0.111111 0.000000
vt 0.229885 0.000000
vt 0.114943 0.000000
vt 0.226054 0.000000
vt 0.118774 0.000000
vt 0.122605 0.000000
vt 0.222222 0.000000
vt 0.126437 0.000000
vt 0.218391 0.000000
vt 0.130268 0.000000
vt 0.134100 0.000000
vt 0.214559 0.000000
vt 0.137931 0.000000
vt 0.210728 0.000000
vt 0.141762 0.000000
vt 0.145594 0.000000
vt 0.206897 0.000000
vt 0.149425 0.000000
vt 0.153257 0.000000
vt 0.157088 0.000000
vt 0.203065 0.000000
vt 0.160920 0.000000
vt 0.164751 0.000000
vt 0.168582 0.000000
vt 0.172414 0.000000
vt 0.176245 0.000000
vt 0.180077 0.000000
vt 0.183908 0.000000
vt 0.199234 0.000000
vt 0.187739 0.000000
vt 0.191571 0.000000
vt 0.195402 0.000000
vt 0.862857 0.000000
vt 0.857143 0.000000
vt 0.994286 0.000000
vt 0.988571 0.000000
vt 0.868571 0.000000
vt 0.982857 0.000000
vt 0.874286 0.000000
vt 0.714286 0.000000
vt 0.851429 0.000000
vt 0.708571 0.000000
vt 0.880000 0.000000
vt 0.977143 0.000000
vt 0.845714 0.000000
vt 0.885714 0.000000
vt 0.971429 0.000000
vt 0.840000 0.000000
vt 0.720000 0.000000
vt 0.891429 0.000000
vt 0.965714 0.000000
vt 0.834286 0.000000
vt 0.725714 0.000000
vt 0.897143 0.000000
vt 0.960000 0.000000
vt 0.828571 0.000000
vt 0.731429 0.000000
vt 0.902857 0.000000
vt 0.954286 0.000000
vt 0.822857 0.000000
vt 0.737143 0.000000
vt 0.908571 0.000000
vt 0.948571 0.000000
vt 0.742857 0.000000
vt 0.817143 0.000000
vt 0.914286 0.000000
vt 0.942857 0.000000
vt 0.748571 0.000000
vt 0.811429 0.000000
vt 0.920000 0.000000
vt 0.937143 0.000000
vt 0.754286 0.000000
vt 0.805714 0.000000
vt 0.925714 0.000000
vt 0.931429 0.000000
vt 0.760000 0.000000
vt 0.577143 0.000000
vt 0.565714 0.000000
vt 0.571429 0.000000
vt 0.582857 0.000000
vt 0.428571 0.000000
vt 0.702857 0.000000
vt 0.422857 0.000000
vt 0.588571 0.000000
vt 0.697143 0.000000
vt 0.594286 0.000000
vt 0.691429 0.000000
vt 0.794286 0.000000
vt 0.765714 0.000000
vt 0.685714 0.000000
vt 0.680000 0.000000
vt 0.605714 0.000000
vt 0.674286 0.000000
vt 0.611429 0.000000
vt 0.668571 0.000000
vt 0.617143 0.000000
vt 0.662857 0.000000
vt 0.622857 0.000000
vt 0.657143 0.000000
vt 0.628571 0.000000
vt 0.651429 0.000000
vt 0.634286 0.000000
vt 0.645714 0.000000
vt 0.640000 0.000000
vt 0.788571 0.000000
vt 0.771429 0.000000
vt 0.777143 0.000000
vt 0.782857 0.000000
vt 0.560000 0.000000
vt 0.434286 0.000000
vt 0.554286 0.000000
vt 0.548571 0.000000
vt 0.440000 0.000000
vt 0.542857 0.000000
vt 0.445714 0.000000
vt 0.537143 0.000000
vt 0.451429 0.000000
vt 0.531429 0.000000
vt 0.457143 0.000000
vt 0.525714 0.000000
vt 0.462857 0.000000
vt 0.520000 0.000000
vt 0.468571 0.000000
vt 0.474286 0.000000
vt 0.514286 0.000000
vt 0.480000 0.000000
vt 0.508571 0.000000
vt 0.485714 0.000000
vt 0.502857 0.000000
vt 0.491429 0.000000
vt 0.497143 0.000000
vt 0.011429 0.000000
vt 0.005714 0.000000
vt 0.417143 0.000000
vt 0.017143 0.000000
vt 0.411429 0.000000
vt 0.022857 0.000000
vt 0.405714 0.000000
vt 0.028571 0.000000
vt 0.034286 0.000000
vt 0.394286 0.000000
vt 0.040000 0.000000
vt 0.388571 0.000000
vt 0.045714 0.000000
vt 0.382857 0.000000
vt 0.377143 0.000000
vt 0.051429 0.000000
vt 0.371429 0.000000
vt 0.057143 0.000000
vt 0.365714 0.000000
vt 0.062857 0.000000
vt 0.360000 0.000000
vt 0.354286 0.000000
vt 0.068571 0.000000
vt 0.348571 0.000000
vt 0.074286 0.000000
vt 0.080000 0.000000
vt 0.342857 0.000000
vt 0.337143 0.000000
vt 0.085714 0.000000
vt 0.331429 0.000000
vt 0.325714 0.000000
vt 0.091429 0.000000
vt 0.320000 0.000000
vt 0.222857 0.000000
vt 0.211429 0.000000
vt 0.217143 0.000000
vt 0.314286 0.000000
vt 0.228571 0.000000
vt 0.234286 0.000000
vt 0.097143 0.000000
vt 0.308571 0.000000
vt 0.240000 0.000000
vt 0.245714 0.000000
vt 0.302857 0.000000
vt 0.251429 0.000000
vt 0.257143 0.000000
vt 0.297143 0.000000
vt 0.262857 0.000000
vt 0.102857 0.000000
vt 0.268571 0.000000
vt 0.291429 0.000000
vt 0.274286 0.000000
vt 0.280000 0.000000
vt 0.285714 0.000000
vt 0.108571 0.000000
vt 0.114286 0.000000
vt 0.205714 0.000000
vt 0.120000 0.000000
vt 0.194286 0.000000
vt 0.125714 0.000000
vt 0.188571 0.000000
vt 0.182857 0.000000
vt 0.177143 0.000000
vt 0.131429 0.000000
vt 0.171429 0.000000
vt 0.165714 0.000000
vt 0.137143 0.000000
vt 0.160000 0.000000
vt 0.154286 0.000000
vt 0.142857 0.000000
vt 0.148571 0.000000
vt 0.520325 0.000000
vt 0.504065 0.000000
vt 0.512195 0.000000
vt 0.528455 0.000000
vt 0.495935 0.000000
vt 0.536585 0.000000
vt 0.544715 0.000000
vt 0.487805 0.000000
vt 0.552846 0.000000
vt 0.560976 0.000000
vt 0.479675 0.000000
vt 0.569106 0.000000
vt 0.577236 0.000000
vt 0.471545 0.000000
vt 0.585366 0.000000
vt 0.593496 0.000000
vt 0.601626 0.000000
vt 0.463415 0.000000
vt 0.609756 0.000000
vt 0.617886 0.000000
vt 0.626016 0.000000
vt 0.634146 0.000000
vt 0.642276 0.000000
vt 0.650406 0.000000
vt 0.658537 0.000000
vt 0.455285 0.000000
vt 0.674797 0.000000
vt 0.682927 0.000000
vt 0.691057 0.000000
vt 0.699187 0.000000
vt 0.707317 0.000000
vt 0.715447 0.000000
vt 0.723577 0.000000
vt 0.731707 0.000000
vt 0.739837 0.000000
vt 0.747967 0.000000
vt 0.756098 0.000000
vt 0.764228 0.000000
vt 0.772358 0.000000
vt 0.780488 0.000000
vt 0.788618 0.000000
vt 0.796748 0.000000
vt 0.804878 0.000000
vt 0.813008 0.000000
vt 0.829268 0.000000
vt 0.837398 0.000000
vt 0.845528 0.000000
vt 0.853659 0.000000
vt 0.861789 0.000000
vt 0.869919 0.000000
vt 0.878049 0.000000
vt 0.886179 0.000000
vt 0.894309 0.000000
vt 0.902439 0.000000
vt 0.910569 0.000000
vt 0.918699 0.000000
vt 0.926829 0.000000
vt 0.447154 0.000000
vt 0.934959 0.000000
vt 0.943089 0.000000
vt 0.951219 0.000000
vt 0.439024 0.000000
vt 0.959350 0.000000
vt 0.821138 0.000000
vt 0.967480 0.000000
vt 0.430894 0.000000
vt 0.975610 0.000000
vt 0.983740 0.000000
vt 0.422764 0.000000
vt 0.991870 0.000000
vt 0.414634 0.000000
vt 0.211382 0.000000
vt 0.219512 0.000000
vt 0.406504 0.000000
vt 0.227642 0.000000
vt 0.398374 0.000000
vt 0.235772 0.000000
vt 0.390244 0.000000
vt 0.243902 0.000000
vt 0.382114 0.000000
vt 0.252033 0.000000
vt 0.260163 0.000000
vt 0.373984 0.000000
vt 0.268293 0.000000
vt 0.365854 0.000000
vt 0.276423 0.000000
vt 0.284553 0.000000
vt 0.357724 0.000000
vt 0.292683 0.000000
vt 0.300813 0.000000
vt 0.349593 0.000000
vt 0.308943 0.000000
vt 0.317073 0.000000
vt 0.341463 0.000000
vt 0.325203 0.000000
vt 0.008130 0.000000
vt 0.203252 0.000000
vt 0.195122 0.000000
vt 0.186992 0.000000
vt 0.178862 0.000000
vt 0.170732 0.000000
vt 0.162602 0.000000
vt 0.154472 0.000000
vt 0.146341 0.000000
vt 0.138211 0.000000
vt 0.130081 0.000000
vt 0.121951 0.000000
vt 0.113821 0.000000
vt 0.105691 0.000000
vt 0.016260 0.000000
vt 0.024390 0.000000
vt 0.032520 0.000000
vt 0.040650 0.000000
vt 0.048780 0.000000
vt 0.056911 0.000000
vt 0.065041 0.000000
vt 0.073171 0.000000
vt 0.081301 0.000000
vt 0.089431 0.000000
vt 0.097561 0.000000
s 0
usemtl マテリアル.001
f 78/64/2 76/65/2 77/66/2
f 78/64/2 75/67/2 76/65/2
f 78/64/2 74/68/2 75/67/2
f 78/64/2 73/69/2 74/68/2
f 78/64/2 72/70/2 73/69/2
f 79/71/2 72/70/2 78/64/2
f 79/71/2 71/72/2 72/70/2
f 80/73/2 71/72/2 79/71/2
f 80/73/2 70/74/2 71/72/2
f 81/75/2 70/74/2 80/73/2
f 82/76/2 70/74/2 81/75/2
f 82/76/2 69/77/2 70/74/2
f 83/78/2 69/77/2 82/76/2
f 83/78/2 68/79/2 69/77/2
f 252/80/2 250/81/2 251/82/2
f 252/80/2 249/83/2 250/81/2
f 84/84/2 68/79/2 83/78/2
f 84/84/2 67/85/2 68/79/2
f 252/80/2 248/86/2 249/83/2
f 252/80/2 247/87/2 248/86/2
f 85/88/2 67/85/2 84/84/2
f 85/88/2 66/89/2 67/85/2
f 252/80/2 246/90/2 247/87/2
f 252/80/2 245/91/2 246/90/2
f 86/92/2 66/89/2 85/88/2
f 86/92/2 65/93/2 66/89/2
f 252/80/2 244/94/2 245/91/2
f 253/95/2 244/94/2 252/80/2
f 254/96/2 244/94/2 253/95/2
f 254/96/2 243/97/2 244/94/2
f 86/92/2 87/98/2 65/93/2
f 87/98/2 88/99/2 65/93/2
f 88/99/2 89/100/2 65/93/2
f 89/100/2 64/101/2 65/93/2
f 255/102/2 243/97/2 254/96/2
f 255/102/2 242/103/2 243/97/2
f 256/104/2 242/103/2 255/102/2
f 256/104/2 241/105/2 242/103/2
f 257/106/2 241/105/2 256/104/2
f 257/106/2 240/107/2 241/105/2
f 258/108/2 240/107/2 257/106/2
f 258/108/2 239/109/2 240/107/2
f 258/108/2 238/110/2 239/109/2
f 259/111/2 238/110/2 258/108/2
f 260/112/2 238/110/2 259/111/2
f 216/113/2 214/114/2 215/115/2
f 260/112/2 237/116/2 238/110/2
f 217/117/2 214/114/2 216/113/2
f 217/117/2 213/118/2 214/114/2
f 218/119/2 213/118/2 217/117/2
f 261/120/2 237/116/2 260/112/2
f 218/119/2 212/121/2 213/118/2
f 261/120/2 236/122/2 237/116/2
f 219/123/2 212/121/2 218/119/2
f 262/124/2 236/122/2 261/120/2
f 219/123/2 211/125/2 212/121/2
f 220/126/2 211/125/2 219/123/2
f 262/124/2 235/127/2 236/122/2
f 263/128/2 235/127/2 262/124/2
f 264/129/2 235/127/2 263/128/2
f 221/130/2 211/125/2 220/126/2
f 221/130/2 210/131/2 211/125/2
f 264/129/2 234/132/2 235/127/2
f 265/133/2 234/132/2 264/129/2
f 222/134/2 210/131/2 221/130/2
f 266/135/2 234/132/2 265/133/2
f 266/135/2 233/136/2 234/132/2
f 222/134/2 209/137/2 210/131/2
f 267/138/2 233/136/2 266/135/2
f 223/139/2 209/137/2 222/134/2
f 267/138/2 232/140/2 233/136/2
f 268/141/2 232/140/2 267/138/2
f 223/139/2 208/142/2 209/137/2
f 224/143/2 208/142/2 223/139/2
f 268/141/2 231/144/2 232/140/2
f 269/145/2 231/144/2 268/141/2
f 269/145/2 230/146/2 231/144/2
f 225/147/2 142/148/2 224/143/2
f 142/148/2 208/142/2 224/143/2
f 270/149/2 230/146/2 269/145/2
f 142/148/2 143/150/2 208/142/2
f 143/150/2 207/151/2 208/142/2
f 225/147/2 141/152/2 142/148/2
f 225/147/2 140/153/2 141/152/2
f 144/154/2 207/151/2 143/150/2
f 225/147/2 139/155/2 140/153/2
f 145/156/2 207/151/2 144/154/2
f 270/149/2 229/157/2 230/146/2
f 271/158/2 229/157/2 270/149/2
f 225/147/2 138/159/2 139/155/2
f 146/160/2 207/151/2 145/156/2
f 226/161/2 138/159/2 225/147/2
f 226/161/2 137/162/2 138/159/2
f 271/158/2 228/163/2 229/157/2
f 147/164/2 207/151/2 146/160/2
f 272/165/2 228/163/2 271/158/2
f 147/164/2 206/166/2 207/151/2
f 226/161/2 136/167/2 137/162/2
f 227/168/2 136/167/2 226/161/2
f 148/169/2 206/166/2 147/164/2
f 272/165/2 227/168/2 228/163/2
f 273/170/2 227/168/2 272/165/2
f 227/168/2 135/171/2 136/167/2
f 149/172/2 206/166/2 148/169/2
f 273/170/2 135/171/2 227/168/2
f 274/173/2 135/171/2 273/170/2
f 274/173/2 134/174/2 135/171/2
f 149/172/2 205/175/2 206/166/2
f 150/176/2 205/175/2 149/172/2
f 275/177/2 134/174/2 274/173/2
f 275/177/2 133/178/2 134/174/2
f 276/179/2 133/178/2 275/177/2
f 151/180/2 205/175/2 150/176/2
f 276/179/2 132/181/2 133/178/2
f 151/180/2 204/182/2 205/175/2
f 277/183/2 132/181/2 276/179/2
f 152/184/2 204/182/2 151/180/2
f 278/185/2 132/181/2 277/183/2
f 278/185/2 131/186/2 132/181/2
f 279/187/2 131/186/2 278/185/2
f 280/188/2 131/186/2 279/187/2
f 153/189/2 204/182/2 152/184/2
f 281/190/2 131/186/2 280/188/2
f 281/190/2 130/191/2 131/186/2
f 153/189/2 203/192/2 204/182/2
f 282/193/2 130/191/2 281/190/2
f 283/194/2 130/191/2 282/193/2
f 154/195/2 203/192/2 153/189/2
f 284/196/2 130/191/2 283/194/2
f 284/196/2 103/197/2 130/191/2
f 103/197/2 129/198/2 130/191/2
f 285/199/2 103/197/2 284/196/2
f 286/200/2 103/197/2 285/199/2
f 287/201/2 103/197/2 286/200/2
f 155/202/2 203/192/2 154/195/2
f 288/203/2 103/197/2 287/201/2
f 155/202/2 202/204/2 203/192/2
f 289/205/2 103/197/2 288/203/2
f 290/206/2 103/197/2 289/205/2
f 291/207/2 103/197/2 290/206/2
f 292/208/2 103/197/2 291/207/2
f 293/209/2 103/197/2 292/208/2
f 294/210/2 103/197/2 293/209/2
f 156/211/2 202/204/2 155/202/2
f 295/212/2 103/197/2 294/210/2
f 295/212/2 102/213/2 103/197/2
f 104/214/2 129/198/2 103/197/2
f 296/215/2 102/213/2 295/212/2
f 297/216/2 102/213/2 296/215/2
f 298/217/2 102/213/2 297/216/2
f 299/218/2 102/213/2 298/217/2
f 299/218/2 101/219/2 102/213/2
f 90/220/2 101/219/2 299/218/2
f 156/211/2 201/221/2 202/204/2
f 91/222/2 101/219/2 90/220/2
f 157/223/2 201/221/2 156/211/2
f 91/222/2 100/224/2 101/219/2
f 91/222/2 99/225/2 100/224/2
f 158/226/2 201/221/2 157/223/2
f 91/222/2 98/227/2 99/225/2
f 158/226/2 200/228/2 201/221/2
f 91/222/2 97/229/2 98/227/2
f 159/230/2 200/228/2 158/226/2
f 104/214/2 128/231/2 129/198/2
f 91/222/2 96/232/2 97/229/2
f 160/233/2 200/228/2 159/230/2
f 91/222/2 95/234/2 96/232/2
f 160/233/2 199/235/2 200/228/2
f 91/222/2 94/236/2 95/234/2
f 161/237/2 199/235/2 160/233/2
f 91/222/2 93/238/2 94/236/2
f 179/239/2 177/240/2 178/241/2
f 104/214/2 127/242/2 128/231/2
f 91/222/2 92/243/2 93/238/2
f 105/244/2 127/242/2 104/214/2
f 179/239/2 176/245/2 177/240/2
f 162/246/2 199/235/2 161/237/2
f 162/246/2 198/247/2 199/235/2
f 179/239/2 175/248/2 176/245/2
f 179/239/2 174/249/2 175/248/2
f 163/250/2 198/247/2 162/246/2
f 179/239/2 173/251/2 174/249/2
f 179/239/2 172/252/2 173/251/2
f 164/253/2 198/247/2 163/250/2
f 179/239/2 171/254/2 172/252/2
f 179/239/2 170/255/2 171/254/2
f 165/256/2 198/247/2 164/253/2
f 179/239/2 169/257/2 170/255/2
f 165/256/2 197/258/2 198/247/2
f 179/239/2 168/259/2 169/257/2
f 166/260/2 197/258/2 165/256/2
f 179/239/2 167/261/2 168/259/2
f 179/239/2 166/260/2 167/261/2
f 179/239/2 197/258/2 166/260/2
f 106/262/2 127/242/2 105/244/2
f 106/262/2 126/263/2 127/242/2
f 179/239/2 196/264/2 197/258/2
f 179/239/2 195/265/2 196/264/2
f 107/266/2 126/263/2 106/262/2
f 107/266/2 125/267/2 126/263/2
f 180/268/2 195/265/2 179/239/2
f 180/268/2 194/269/2 195/265/2
f 181/270/2 194/269/2 180/268/2
f 182/271/2 194/269/2 181/270/2
f 183/272/2 194/269/2 182/271/2
f 183/272/2 193/273/2 194/269/2
f 184/274/2 193/273/2 183/272/2
f 185/275/2 193/273/2 184/274/2
f 186/276/2 193/273/2 185/275/2
f 186/276/2 192/277/2 193/273/2
f 187/278/2 192/277/2 186/276/2
f 188/279/2 192/277/2 187/278/2
f 189/280/2 192/277/2 188/279/2
f 189/280/2 191/281/2 192/277/2
f 190/282/2 191/281/2 189/280/2
f 108/283/2 125/267/2 107/266/2
f 108/283/2 124/284/2 125/267/2
f 109/285/2 124/284/2 108/283/2
f 109/285/2 123/286/2 124/284/2
f 110/287/2 123/286/2 109/285/2
f 110/287/2 122/288/2 123/286/2
f 111/289/2 122/288/2 110/287/2
f 111/289/2 121/290/2 122/288/2
f 112/291/2 121/290/2 111/289/2
f 112/291/2 120/292/2 121/290/2
f 113/293/2 120/292/2 112/291/2
f 113/293/2 119/294/2 120/292/2
f 114/295/2 119/294/2 113/293/2
f 114/295/2 118/296/2 119/294/2
f 115/297/2 118/296/2 114/295/2
f 115/297/2 117/298/2 118/296/2
f 116/299/2 117/298/2 115/297/2
f 453/300/2 451/301/2 452/302/2
f 454/303/2 451/301/2 453/300/2
f 454/303/2 561/218/2 451/301/2
f 455/304/2 561/218/2 454/303/2
f 455/304/2 560/305/2 561/218/2
f 456/306/2 560/305/2 455/304/2
f 456/306/2 559/307/2 560/305/2
f 457/308/2 559/307/2 456/306/2
f 457/308/2 558/309/2 559/307/2
f 458/310/2 558/309/2 457/308/2
f 458/310/2 557/311/2 558/309/2
f 459/312/2 557/311/2 458/310/2
f 459/312/2 556/313/2 557/311/2
f 460/314/2 556/313/2 459/312/2
f 460/314/2 555/315/2 556/313/2
f 461/316/2 555/315/2 460/314/2
f 461/316/2 554/317/2 555/315/2
f 462/318/2 554/317/2 461/316/2
f 462/318/2 553/319/2 554/317/2
f 463/320/2 553/319/2 462/318/2
f 463/320/2 552/321/2 553/319/2
f 464/322/2 552/321/2 463/320/2
f 464/322/2 551/323/2 552/321/2
f 465/324/2 551/323/2 464/322/2
f 465/324/2 550/325/2 551/323/2
f 465/324/2 549/326/2 550/325/2
f 466/327/2 549/326/2 465/324/2
f 466/327/2 548/328/2 549/326/2
f 467/329/2 548/328/2 466/327/2
f 468/330/2 548/328/2 467/329/2
f 468/330/2 547/331/2 548/328/2
f 469/332/2 547/331/2 468/330/2
f 469/332/2 546/333/2 547/331/2
f 470/334/2 546/333/2 469/332/2
f 471/335/2 546/333/2 470/334/2
f 471/335/2 545/336/2 546/333/2
f 472/337/2 545/336/2 471/335/2
f 472/337/2 544/338/2 545/336/2
f 473/339/2 544/338/2 472/337/2
f 473/339/2 543/340/2 544/338/2
f 474/341/2 543/340/2 473/339/2
f 474/341/2 542/342/2 543/340/2
f 475/343/2 542/342/2 474/341/2
f 475/343/2 541/344/2 542/342/2
f 476/345/2 541/344/2 475/343/2
f 527/346/2 525/347/2 526/348/2
f 528/349/2 525/347/2 527/346/2
f 477/350/2 541/344/2 476/345/2
f 477/350/2 540/351/2 541/344/2
f 529/352/2 525/347/2 528/349/2
f 529/352/2 524/353/2 525/347/2
f 530/354/2 524/353/2 529/352/2
f 530/354/2 523/355/2 524/353/2
f 478/356/2 540/351/2 477/350/2
f 531/357/2 523/355/2 530/354/2
f 531/357/2 522/358/2 523/355/2
f 532/359/2 522/358/2 531/357/2
f 478/356/2 539/360/2 540/351/2
f 533/361/2 522/358/2 532/359/2
f 479/362/2 539/360/2 478/356/2
f 533/361/2 521/363/2 522/358/2
f 534/364/2 521/363/2 533/361/2
f 534/364/2 520/365/2 521/363/2
f 535/366/2 520/365/2 534/364/2
f 479/362/2 538/367/2 539/360/2
f 480/368/2 538/367/2 479/362/2
f 536/369/2 520/365/2 535/366/2
f 536/369/2 519/370/2 520/365/2
f 537/371/2 519/370/2 536/369/2
f 481/372/2 538/367/2 480/368/2
f 538/367/2 519/370/2 537/371/2
f 538/367/2 518/373/2 519/370/2
f 481/372/2 518/373/2 538/367/2
f 481/372/2 517/374/2 518/373/2
f 482/375/2 517/374/2 481/372/2
f 482/375/2 516/376/2 517/374/2
f 483/377/2 516/376/2 482/375/2
f 483/377/2 515/378/2 516/376/2
f 483/377/2 514/379/2 515/378/2
f 484/380/2 514/379/2 483/377/2
f 484/380/2 513/381/2 514/379/2
f 484/380/2 512/382/2 513/381/2
f 484/380/2 511/383/2 512/382/2
f 485/384/2 511/383/2 484/380/2
f 485/384/2 510/385/2 511/383/2
f 485/384/2 509/386/2 510/385/2
f 485/384/2 508/387/2 509/386/2
f 485/384/2 507/388/2 508/387/2
f 485/384/2 506/389/2 507/388/2
f 485/384/2 505/390/2 506/389/2
f 486/391/2 505/390/2 485/384/2
f 486/391/2 504/392/2 505/390/2
f 486/391/2 503/393/2 504/392/2
f 486/391/2 502/394/2 503/393/2
f 486/391/2 501/395/2 502/394/2
f 486/391/2 500/396/2 501/395/2
f 486/391/2 499/397/2 500/396/2
f 486/391/2 498/398/2 499/397/2
f 487/399/2 498/398/2 486/391/2
f 487/399/2 497/400/2 498/398/2
f 487/399/2 496/401/2 497/400/2
f 487/399/2 495/402/2 496/401/2
f 487/399/2 494/403/2 495/402/2
f 487/399/2 493/404/2 494/403/2
f 487/399/2 492/405/2 493/404/2
f 488/406/2 492/405/2 487/399/2
f 488/406/2 491/407/2 492/405/2
f 488/406/2 490/408/2 491/407/2
f 488/406/2 489/409/2 490/408/2
f 404/410/2 402/411/2 403/412/2
f 404/410/2 401/413/2 402/411/2
f 405/414/2 401/413/2 404/410/2
f 405/414/2 400/415/2 401/413/2
f 406/416/2 400/415/2 405/414/2
f 406/416/2 399/417/2 400/415/2
f 407/418/2 399/417/2 406/416/2
f 407/418/2 398/419/2 399/417/2
f 408/420/2 398/419/2 407/418/2
f 408/420/2 397/421/2 398/419/2
f 409/422/2 397/421/2 408/420/2
f 409/422/2 396/423/2 397/421/2
f 410/424/2 396/423/2 409/422/2
f 410/424/2 395/425/2 396/423/2
f 411/426/2 395/425/2 410/424/2
f 411/426/2 394/427/2 395/425/2
f 411/426/2 393/428/2 394/427/2
f 412/429/2 393/428/2 411/426/2
f 412/429/2 392/430/2 393/428/2
f 413/431/2 392/430/2 412/429/2
f 413/431/2 391/432/2 392/430/2
f 414/433/2 391/432/2 413/431/2
f 414/433/2 390/434/2 391/432/2
f 415/435/2 390/434/2 414/433/2
f 415/435/2 389/436/2 390/434/2
f 416/437/2 389/436/2 415/435/2
f 417/438/2 389/436/2 416/437/2
f 418/439/2 389/436/2 417/438/2
f 419/440/2 389/436/2 418/439/2
f 420/441/2 389/436/2 419/440/2
f 421/442/2 389/436/2 420/441/2
f 422/443/2 389/436/2 421/442/2
f 423/444/2 389/436/2 422/443/2
f 424/445/2 389/436/2 423/444/2
f 425/446/2 389/436/2 424/445/2
f 426/447/2 389/436/2 425/446/2
f 378/448/2 376/449/2 377/450/2
f 379/451/2 376/449/2 378/448/2
f 380/452/2 376/449/2 379/451/2
f 381/453/2 376/449/2 380/452/2
f 382/454/2 376/449/2 381/453/2
f 383/455/2 376/449/2 382/454/2
f 427/456/2 389/436/2 426/447/2
f 384/457/2 376/449/2 383/455/2
f 385/458/2 376/449/2 384/457/2
f 386/459/2 376/449/2 385/458/2
f 387/460/2 376/449/2 386/459/2
f 301/461/2 450/462/2 300/101/2
f 388/463/2 376/449/2 387/460/2
f 301/461/2 449/464/2 450/462/2
f 389/436/2 376/449/2 388/463/2
f 427/456/2 376/449/2 389/436/2
f 301/461/2 448/465/2 449/464/2
f 301/461/2 447/466/2 448/465/2
f 301/461/2 446/467/2 447/466/2
f 301/461/2 445/468/2 446/467/2
f 428/469/2 376/449/2 427/456/2
f 301/461/2 444/470/2 445/468/2
f 429/471/2 376/449/2 428/469/2
f 430/472/2 376/449/2 429/471/2
f 301/461/2 443/473/2 444/470/2
f 431/474/2 376/449/2 430/472/2
f 432/475/2 376/449/2 431/474/2
f 301/461/2 442/476/2 443/473/2
f 433/477/2 376/449/2 432/475/2
f 434/478/2 376/449/2 433/477/2
f 301/461/2 441/479/2 442/476/2
f 435/480/2 376/449/2 434/478/2
f 436/481/2 376/449/2 435/480/2
f 301/461/2 440/482/2 441/479/2
f 437/483/2 376/449/2 436/481/2
f 438/484/2 376/449/2 437/483/2
f 301/461/2 439/485/2 440/482/2
f 439/485/2 376/449/2 438/484/2
f 301/461/2 376/449/2 439/485/2
f 301/461/2 375/486/2 376/449/2
f 301/461/2 374/487/2 375/486/2
f 301/461/2 373/488/2 374/487/2
f 301/461/2 372/489/2 373/488/2
f 301/461/2 371/490/2 372/489/2
f 301/461/2 370/491/2 371/490/2
f 301/461/2 369/492/2 370/491/2
f 301/461/2 368/493/2 369/492/2
f 301/461/2 367/494/2 368/493/2
f 301/461/2 366/495/2 367/494/2
f 301/461/2 365/496/2 366/495/2
f 301/461/2 364/497/2 365/496/2
f 301/461/2 325/498/2 364/497/2
f 325/498/2 363/499/2 364/497/2
f 302/500/2 325/498/2 301/461/2
f 303/501/2 325/498/2 302/500/2
f 304/502/2 325/498/2 303/501/2
f 305/503/2 325/498/2 304/502/2
f 306/504/2 325/498/2 305/503/2
f 306/504/2 324/505/2 325/498/2
f 326/506/2 363/499/2 325/498/2
f 306/504/2 323/507/2 324/505/2
f 307/508/2 323/507/2 306/504/2
f 307/508/2 322/509/2 323/507/2
f 308/510/2 322/509/2 307/508/2
f 308/510/2 321/511/2 322/509/2
f 309/512/2 321/511/2 308/510/2
f 309/512/2 320/513/2 321/511/2
f 309/512/2 319/514/2 320/513/2
f 310/515/2 319/514/2 309/512/2
f 310/515/2 318/516/2 319/514/2
f 310/515/2 317/517/2 318/516/2
f 311/518/2 317/517/2 310/515/2
f 311/518/2 316/519/2 317/517/2
f 312/520/2 316/519/2 311/518/2
f 312/520/2 315/521/2 316/519/2
f 312/520/2 314/522/2 315/521/2
f 313/523/2 314/522/2 312/520/2
f 327/524/2 363/499/2 326/506/2
f 327/524/2 362/525/2 363/499/2
f 328/526/2 362/525/2 327/524/2
f 328/526/2 361/527/2 362/525/2
f 329/528/2 361/527/2 328/526/2
f 329/528/2 360/529/2 361/527/2
f 330/530/2 360/529/2 329/528/2
f 330/530/2 359/531/2 360/529/2
f 331/532/2 359/531/2 330/530/2
f 332/533/2 359/531/2 331/532/2
f 332/533/2 358/534/2 359/531/2
f 333/535/2 358/534/2 332/533/2
f 333/535/2 357/536/2 358/534/2
f 334/537/2 357/536/2 333/535/2
f 335/538/2 357/536/2 334/537/2
f 335/538/2 356/539/2 357/536/2
f 336/540/2 356/539/2 335/538/2
f 336/540/2 355/541/2 356/539/2
f 337/542/2 355/541/2 336/540/2
f 338/543/2 355/541/2 337/542/2
f 338/543/2 354/544/2 355/541/2
f 339/545/2 354/544/2 338/543/2
f 340/546/2 354/544/2 339/545/2
f 341/547/2 354/544/2 340/546/2
f 341/547/2 353/548/2 354/544/2
f 342/549/2 353/548/2 341/547/2
f 343/550/2 353/548/2 342/549/2
f 344/551/2 353/548/2 343/550/2
f 345/552/2 353/548/2 344/551/2
f 346/553/2 353/548/2 345/552/2
f 347/554/2 353/548/2 346/553/2
f 348/555/2 353/548/2 347/554/2
f 348/555/2 352/556/2 353/548/2
f 349/557/2 352/556/2 348/555/2
f 350/558/2 352/556/2 349/557/2
f 351/559/2 352/556/2 350/558/2
f 713/560/2 737/218/2 712/561/2
f 713/560/2 736/562/2 737/218/2
f 713/560/2 735/563/2 736/562/2
f 714/564/2 735/563/2 713/560/2
f 714/564/2 734/565/2 735/563/2
f 715/566/2 734/565/2 714/564/2
f 687/567/2 711/568/2 686/569/2
f 716/570/2 734/565/2 715/566/2
f 716/570/2 733/571/2 734/565/2
f 687/567/2 710/572/2 711/568/2
f 717/573/2 733/571/2 716/570/2
f 717/573/2 732/574/2 733/571/2
f 687/567/2 709/575/2 710/572/2
f 688/576/2 709/575/2 687/567/2
f 718/577/2 732/574/2 717/573/2
f 718/577/2 731/578/2 732/574/2
f 688/576/2 708/579/2 709/575/2
f 689/580/2 708/579/2 688/576/2
f 719/581/2 731/578/2 718/577/2
f 719/581/2 730/582/2 731/578/2
f 689/580/2 707/583/2 708/579/2
f 690/584/2 707/583/2 689/580/2
f 720/585/2 730/582/2 719/581/2
f 720/585/2 729/586/2 730/582/2
f 690/584/2 706/587/2 707/583/2
f 691/588/2 706/587/2 690/584/2
f 721/589/2 729/586/2 720/585/2
f 721/589/2 728/590/2 729/586/2
f 692/591/2 706/587/2 691/588/2
f 692/591/2 705/592/2 706/587/2
f 722/593/2 728/590/2 721/589/2
f 722/593/2 727/594/2 728/590/2
f 693/595/2 705/592/2 692/591/2
f 693/595/2 704/596/2 705/592/2
f 723/597/2 727/594/2 722/593/2
f 723/597/2 726/598/2 727/594/2
f 694/599/2 704/596/2 693/595/2
f 694/599/2 703/600/2 704/596/2
f 723/597/2 724/601/2 726/598/2
f 724/601/2 725/602/2 726/598/2
f 695/603/2 703/600/2 694/599/2
f 695/603/2 702/80/2 703/600/2
f 663/604/2 661/605/2 662/606/2
f 664/607/2 661/605/2 663/604/2
f 637/608/2 685/609/2 636/610/2
f 665/611/2 661/605/2 664/607/2
f 637/608/2 684/612/2 685/609/2
f 666/613/2 661/605/2 665/611/2
f 637/608/2 683/614/2 684/612/2
f 695/603/2 701/615/2 702/80/2
f 696/616/2 701/615/2 695/603/2
f 667/175/2 661/605/2 666/613/2
f 637/608/2 682/617/2 683/614/2
f 637/608/2 681/618/2 682/617/2
f 668/619/2 661/605/2 667/175/2
f 637/608/2 680/620/2 681/618/2
f 669/621/2 661/605/2 668/619/2
f 637/608/2 679/622/2 680/620/2
f 670/623/2 661/605/2 669/621/2
f 637/608/2 678/624/2 679/622/2
f 671/625/2 661/605/2 670/623/2
f 637/608/2 677/626/2 678/624/2
f 672/627/2 661/605/2 671/625/2
f 637/608/2 676/628/2 677/626/2
f 673/629/2 661/605/2 672/627/2
f 637/608/2 675/630/2 676/628/2
f 674/631/2 661/605/2 673/629/2
f 637/608/2 674/631/2 675/630/2
f 637/608/2 661/605/2 674/631/2
f 696/616/2 700/632/2 701/615/2
f 697/633/2 700/632/2 696/616/2
f 697/633/2 698/634/2 700/632/2
f 698/634/2 699/635/2 700/632/2
f 637/608/2 660/636/2 661/605/2
f 638/637/2 660/636/2 637/608/2
f 638/637/2 659/638/2 660/636/2
f 638/637/2 658/639/2 659/638/2
f 639/640/2 658/639/2 638/637/2
f 639/640/2 657/641/2 658/639/2
f 640/642/2 657/641/2 639/640/2
f 640/642/2 656/643/2 657/641/2
f 641/644/2 656/643/2 640/642/2
f 641/644/2 655/645/2 656/643/2
f 642/646/2 655/645/2 641/644/2
f 642/646/2 654/647/2 655/645/2
f 643/648/2 654/647/2 642/646/2
f 643/648/2 653/649/2 654/647/2
f 644/650/2 653/649/2 643/648/2
f 645/651/2 653/649/2 644/650/2
f 645/651/2 652/652/2 653/649/2
f 646/653/2 652/652/2 645/651/2
f 646/653/2 651/654/2 652/652/2
f 647/655/2 651/654/2 646/653/2
f 647/655/2 650/656/2 651/654/2
f 648/657/2 650/656/2 647/655/2
f 648/657/2 649/658/2 650/656/2
f 564/659/2 562/101/2 563/660/2
f 564/659/2 635/661/2 562/101/2
f 565/662/2 635/661/2 564/659/2
f 565/662/2 634/663/2 635/661/2
f 566/664/2 634/663/2 565/662/2
f 566/664/2 633/665/2 634/663/2
f 567/666/2 633/665/2 566/664/2
f 567/666/2 632/226/2 633/665/2
f 568/667/2 632/226/2 567/666/2
f 568/667/2 631/668/2 632/226/2
f 569/669/2 631/668/2 568/667/2
f 569/669/2 630/670/2 631/668/2
f 570/671/2 630/670/2 569/669/2
f 570/671/2 629/672/2 630/670/2
f 570/671/2 628/673/2 629/672/2
f 571/674/2 628/673/2 570/671/2
f 571/674/2 627/675/2 628/673/2
f 572/676/2 627/675/2 571/674/2
f 572/676/2 626/677/2 627/675/2
f 573/678/2 626/677/2 572/676/2
f 573/678/2 625/679/2 626/677/2
f 573/678/2 624/680/2 625/679/2
f 574/681/2 624/680/2 573/678/2
f 574/681/2 623/682/2 624/680/2
f 575/683/2 623/682/2 574/681/2
f 576/684/2 623/682/2 575/683/2
f 576/684/2 622/685/2 623/682/2
f 576/684/2 621/686/2 622/685/2
f 577/687/2 621/686/2 576/684/2
f 577/687/2 620/688/2 621/686/2
f 577/687/2 619/689/2 620/688/2
f 578/690/2 619/689/2 577/687/2
f 578/690/2 618/691/2 619/689/2
f 601/692/2 599/693/2 600/694/2
f 578/690/2 617/695/2 618/691/2
f 602/696/2 599/693/2 601/692/2
f 603/697/2 599/693/2 602/696/2
f 579/698/2 617/695/2 578/690/2
f 579/698/2 616/699/2 617/695/2
f 604/700/2 599/693/2 603/697/2
f 605/701/2 599/693/2 604/700/2
f 579/698/2 615/702/2 616/699/2
f 606/703/2 599/693/2 605/701/2
f 607/704/2 599/693/2 606/703/2
f 579/698/2 614/705/2 615/702/2
f 608/706/2 599/693/2 607/704/2
f 580/707/2 614/705/2 579/698/2
f 609/708/2 599/693/2 608/706/2
f 580/707/2 613/709/2 614/705/2
f 610/710/2 599/693/2 609/708/2
f 611/711/2 599/693/2 610/710/2
f 580/707/2 612/712/2 613/709/2
f 612/712/2 599/693/2 611/711/2
f 580/707/2 599/693/2 612/712/2
f 581/713/2 599/693/2 580/707/2
f 582/714/2 599/693/2 581/713/2
f 582/714/2 598/715/2 599/693/2
f 583/716/2 598/715/2 582/714/2
f 583/716/2 597/289/2 598/715/2
f 583/716/2 596/717/2 597/289/2
f 584/718/2 596/717/2 583/716/2
f 584/718/2 595/719/2 596/717/2
f 584/718/2 594/720/2 595/719/2
f 584/718/2 593/721/2 594/720/2
f 585/722/2 593/721/2 584/718/2
f 585/722/2 592/723/2 593/721/2
f 585/722/2 591/724/2 592/723/2
f 586/725/2 591/724/2 585/722/2
f 586/725/2 590/726/2 591/724/2
f 586/725/2 589/727/2 590/726/2
f 587/728/2 589/727/2 586/725/2
f 587/728/2 588/729/2 589/727/2
f 802/730/2 800/731/2 801/732/2
f 803/733/2 800/731/2 802/730/2
f 803/733/2 799/734/2 800/731/2
f 804/735/2 799/734/2 803/733/2
f 805/736/2 799/734/2 804/735/2
f 805/736/2 798/737/2 799/734/2
f 806/738/2 798/737/2 805/736/2
f 807/739/2 798/737/2 806/738/2
f 807/739/2 797/740/2 798/737/2
f 808/741/2 797/740/2 807/739/2
f 809/742/2 797/740/2 808/741/2
f 809/742/2 796/743/2 797/740/2
f 810/744/2 796/743/2 809/742/2
f 811/745/2 796/743/2 810/744/2
f 812/746/2 796/743/2 811/745/2
f 812/746/2 795/747/2 796/743/2
f 813/748/2 795/747/2 812/746/2
f 814/749/2 795/747/2 813/748/2
f 815/750/2 795/747/2 814/749/2
f 816/751/2 795/747/2 815/750/2
f 817/752/2 795/747/2 816/751/2
f 818/753/2 795/747/2 817/752/2
f 819/754/2 795/747/2 818/753/2
f 820/341/2 795/747/2 819/754/2
f 820/341/2 794/755/2 795/747/2
f 821/756/2 794/755/2 820/341/2
f 822/757/2 794/755/2 821/756/2
f 823/758/2 794/755/2 822/757/2
f 824/759/2 794/755/2 823/758/2
f 825/760/2 794/755/2 824/759/2
f 826/761/2 827/762/2 825/760/2
f 827/762/2 828/763/2 825/760/2
f 828/763/2 829/764/2 825/760/2
f 829/764/2 830/765/2 825/760/2
f 830/765/2 831/766/2 825/760/2
f 831/766/2 832/767/2 825/760/2
f 832/767/2 833/768/2 825/760/2
f 833/768/2 834/769/2 825/760/2
f 834/769/2 835/770/2 825/760/2
f 835/770/2 836/771/2 825/760/2
f 836/771/2 837/772/2 825/760/2
f 837/772/2 838/773/2 825/760/2
f 838/773/2 840/774/2 825/760/2
f 840/774/2 841/775/2 825/760/2
f 841/775/2 842/776/2 825/760/2
f 842/776/2 843/777/2 825/760/2
f 843/777/2 844/778/2 825/760/2
f 844/778/2 845/779/2 825/760/2
f 845/779/2 846/780/2 825/760/2
f 846/780/2 847/781/2 825/760/2
f 847/781/2 848/782/2 825/760/2
f 848/782/2 849/783/2 825/760/2
f 849/783/2 850/784/2 825/760/2
f 850/784/2 794/755/2 825/760/2
f 851/785/2 794/755/2 850/784/2
f 852/786/2 794/755/2 851/785/2
f 852/786/2 793/787/2 794/755/2
f 853/788/2 793/787/2 852/786/2
f 854/789/2 793/787/2 853/788/2
f 855/790/2 793/787/2 854/789/2
f 855/790/2 792/791/2 793/787/2
f 856/792/2 792/791/2 855/790/2
f 838/773/2 839/793/2 840/774/2
f 857/794/2 792/791/2 856/792/2
f 857/794/2 791/795/2 792/791/2
f 858/796/2 791/795/2 857/794/2
f 859/797/2 791/795/2 858/796/2
f 859/797/2 790/798/2 791/795/2
f 860/799/2 790/798/2 859/797/2
f 861/218/2 790/798/2 860/799/2
f 861/218/2 789/800/2 790/798/2
f 764/801/2 789/800/2 861/218/2
f 765/802/2 789/800/2 764/801/2
f 765/802/2 788/803/2 789/800/2
f 766/804/2 788/803/2 765/802/2
f 766/804/2 787/805/2 788/803/2
f 767/806/2 787/805/2 766/804/2
f 767/806/2 786/807/2 787/805/2
f 768/808/2 786/807/2 767/806/2
f 768/808/2 785/809/2 786/807/2
f 769/810/2 785/809/2 768/808/2
f 770/811/2 785/809/2 769/810/2
f 770/811/2 784/812/2 785/809/2
f 771/813/2 784/812/2 770/811/2
f 771/813/2 783/814/2 784/812/2
f 772/815/2 783/814/2 771/813/2
f 773/816/2 783/814/2 772/815/2
f 773/816/2 782/817/2 783/814/2
f 774/818/2 782/817/2 773/816/2
f 775/819/2 782/817/2 774/818/2
f 775/819/2 781/820/2 782/817/2
f 776/821/2 781/820/2 775/819/2
f 777/822/2 781/820/2 776/821/2
f 777/822/2 780/823/2 781/820/2
f 777/822/2 779/460/2 780/823/2
f 777/822/2 778/824/2 779/460/2
f 739/825/2 763/826/2 738/101/2
f 739/825/2 762/827/2 763/826/2
f 739/825/2 761/828/2 762/827/2
f 739/825/2 760/829/2 761/828/2
f 739/825/2 759/830/2 760/829/2
f 739/825/2 758/831/2 759/830/2
f 739/825/2 757/832/2 758/831/2
f 739/825/2 756/833/2 757/832/2
f 739/825/2 755/834/2 756/833/2
f 739/825/2 754/835/2 755/834/2
f 739/825/2 753/836/2 754/835/2
f 739/825/2 752/837/2 753/836/2
f 739/825/2 751/838/2 752/837/2
f 740/839/2 751/838/2 739/825/2
f 741/840/2 751/838/2 740/839/2
f 742/841/2 751/838/2 741/840/2
f 743/842/2 751/838/2 742/841/2
f 744/843/2 751/838/2 743/842/2
f 745/844/2 751/838/2 744/843/2
f 746/845/2 751/838/2 745/844/2
f 747/846/2 751/838/2 746/845/2
f 748/847/2 751/838/2 747/846/2
f 749/848/2 751/838/2 748/847/2
f 750/849/2 751/838/2 749/848/2
