# Blender 4.4.1
# www.blender.org
mtllib Message2.mtl
o 平面
v -2.479503 0.000000 0.819672
v 2.479503 0.000000 0.819672
v -2.479503 0.000000 -0.819672
v 2.479503 0.000000 -0.819672
v -2.016662 0.000000 0.879781
v -1.008331 0.000000 0.879781
v 0.000000 0.000000 0.879781
v 1.008331 0.000000 0.879781
v 2.016662 0.000000 0.879781
v 2.016662 0.000000 -0.879781
v 1.008331 0.000000 -0.879781
v -0.000000 0.000000 -0.879781
v -1.008331 0.000000 -0.879781
v -2.016662 0.000000 -0.879781
v -2.661333 0.000000 -0.666667
v -2.661333 0.000000 -0.333333
v -2.661333 0.000000 0.000000
v -2.661333 0.000000 0.333333
v -2.661333 0.000000 0.666667
v 2.661333 0.000000 0.666667
v 2.661333 0.000000 0.333333
v 2.661333 0.000000 -0.000000
v 2.661333 0.000000 -0.333333
v 2.661333 0.000000 -0.666667
v -2.016662 0.000000 0.666667
v -2.016662 0.000000 0.333333
v -2.016662 0.000000 -0.000000
v -2.016662 0.000000 -0.333333
v -2.016662 0.000000 -0.666667
v -1.008331 0.000000 0.666667
v -1.008331 0.000000 0.333333
v -1.008331 0.000000 -0.000000
v -1.008331 0.000000 -0.333333
v -1.008331 0.000000 -0.666667
v 0.000000 0.000000 0.666667
v 0.000000 0.000000 0.333333
v -0.000000 0.000000 -0.000000
v -0.000000 0.000000 -0.333333
v -0.000000 0.000000 -0.666667
v 1.008331 0.000000 0.666667
v 1.008331 0.000000 0.333333
v 1.008331 0.000000 -0.000000
v 1.008331 0.000000 -0.333333
v 1.008331 0.000000 -0.666667
v 2.016662 0.000000 0.666667
v 2.016662 0.000000 0.333333
v 2.016662 0.000000 -0.000000
v 2.016662 0.000000 -0.333333
v 2.016662 0.000000 -0.666667
v -0.504165 0.000000 0.879781
v -0.504166 0.000000 -0.879781
v -0.504165 0.000000 0.666667
v -0.504166 0.000000 0.333333
v -0.504166 0.000000 -0.000000
v -0.504166 0.000000 -0.333333
v -0.504166 0.000000 -0.666667
v -2.588385 0.000000 1.412015
v -1.512497 0.000000 -0.879781
v -1.512497 0.000000 0.666667
v -1.512497 0.000000 0.333333
v -1.512497 0.000000 -0.000000
v -1.512497 0.000000 -0.333333
v -1.512497 0.000000 -0.666667
vn -0.0000 1.0000 -0.0000
vt 0.833333 0.833333
vt 1.000000 0.833333
vt 1.000000 1.000000
vt 0.833333 1.000000
vt 0.000000 0.833333
vt 0.166667 0.833333
vt 0.166667 1.000000
vt 0.000000 1.000000
vt 0.250000 0.833333
vt 0.333333 0.833333
vt 0.333333 1.000000
vt 0.250000 1.000000
vt 0.416667 0.833333
vt 0.500000 0.833333
vt 0.500000 1.000000
vt 0.416667 1.000000
vt 0.666667 0.833333
vt 0.666667 1.000000
vt 0.666667 0.000000
vt 0.833333 0.000000
vt 0.833333 0.166667
vt 0.666667 0.166667
vt 0.833333 0.333333
vt 0.666667 0.333333
vt 0.833333 0.500000
vt 0.666667 0.500000
vt 0.833333 0.666667
vt 0.666667 0.666667
vt 0.500000 0.000000
vt 0.500000 0.166667
vt 0.500000 0.333333
vt 0.500000 0.500000
vt 0.500000 0.666667
vt 0.416667 0.000000
vt 0.416667 0.166667
vt 0.416667 0.333333
vt 0.416667 0.500000
vt 0.416667 0.666667
vt 0.250000 0.000000
vt 0.333333 0.000000
vt 0.333333 0.166667
vt 0.250000 0.166667
vt 0.333333 0.333333
vt 0.250000 0.333333
vt 0.333333 0.500000
vt 0.250000 0.500000
vt 0.333333 0.666667
vt 0.250000 0.666667
vt 0.000000 0.000000
vt 0.166667 0.000000
vt 0.166667 0.166667
vt 0.000000 0.166667
vt 0.166667 0.333333
vt 0.000000 0.333333
vt 0.166667 0.500000
vt 0.000000 0.500000
vt 0.166667 0.666667
vt 0.000000 0.666667
vt 1.000000 0.000000
vt 1.000000 0.166667
vt 1.000000 0.333333
vt 1.000000 0.500000
vt 1.000000 0.666667
s 0
usemtl マテリアル
f 49/1/1 24/2/1 4/3/1 10/4/1
f 15/5/1 29/6/1 14/7/1 3/8/1
f 63/9/1 34/10/1 13/11/1 58/12/1
f 56/13/1 39/14/1 12/15/1 51/16/1
f 39/14/1 44/17/1 11/18/1 12/15/1
f 44/17/1 49/1/1 10/4/1 11/18/1
f 8/19/1 9/20/1 45/21/1 40/22/1
f 40/22/1 45/21/1 46/23/1 41/24/1
f 41/24/1 46/23/1 47/25/1 42/26/1
f 42/26/1 47/25/1 48/27/1 43/28/1
f 43/28/1 48/27/1 49/1/1 44/17/1
f 7/29/1 8/19/1 40/22/1 35/30/1
f 35/30/1 40/22/1 41/24/1 36/31/1
f 36/31/1 41/24/1 42/26/1 37/32/1
f 37/32/1 42/26/1 43/28/1 38/33/1
f 38/33/1 43/28/1 44/17/1 39/14/1
f 50/34/1 7/29/1 35/30/1 52/35/1
f 52/35/1 35/30/1 36/31/1 53/36/1
f 53/36/1 36/31/1 37/32/1 54/37/1
f 54/37/1 37/32/1 38/33/1 55/38/1
f 55/38/1 38/33/1 39/14/1 56/13/1
f 57/39/1 6/40/1 30/41/1 59/42/1
f 59/42/1 30/41/1 31/43/1 60/44/1
f 60/44/1 31/43/1 32/45/1 61/46/1
f 61/46/1 32/45/1 33/47/1 62/48/1
f 62/48/1 33/47/1 34/10/1 63/9/1
f 1/49/1 5/50/1 25/51/1 19/52/1
f 19/52/1 25/51/1 26/53/1 18/54/1
f 18/54/1 26/53/1 27/55/1 17/56/1
f 17/56/1 27/55/1 28/57/1 16/58/1
f 16/58/1 28/57/1 29/6/1 15/5/1
f 9/20/1 2/59/1 20/60/1 45/21/1
f 45/21/1 20/60/1 21/61/1 46/23/1
f 46/23/1 21/61/1 22/62/1 47/25/1
f 47/25/1 22/62/1 23/63/1 48/27/1
f 48/27/1 23/63/1 24/2/1 49/1/1
f 33/47/1 55/38/1 56/13/1 34/10/1
f 32/45/1 54/37/1 55/38/1 33/47/1
f 31/43/1 53/36/1 54/37/1 32/45/1
f 30/41/1 52/35/1 53/36/1 31/43/1
f 6/40/1 50/34/1 52/35/1 30/41/1
f 34/10/1 56/13/1 51/16/1 13/11/1
f 28/57/1 62/48/1 63/9/1 29/6/1
f 27/55/1 61/46/1 62/48/1 28/57/1
f 26/53/1 60/44/1 61/46/1 27/55/1
f 25/51/1 59/42/1 60/44/1 26/53/1
f 5/50/1 57/39/1 59/42/1 25/51/1
f 29/6/1 63/9/1 58/12/1 14/7/1
o テキスト
v 1.578000 0.015913 -0.261000
v 1.586000 0.015913 -0.174000
v 1.592793 0.015913 -0.175019
v 1.600097 0.015913 -0.176069
v 1.607797 0.015913 -0.177141
v 1.615778 0.015913 -0.178222
v 1.623925 0.015913 -0.179304
v 1.632125 0.015913 -0.180375
v 1.640262 0.015913 -0.181425
v 1.648222 0.015913 -0.182444
v 1.655891 0.015913 -0.183422
v 1.663153 0.015913 -0.184347
v 1.669894 0.015913 -0.185210
v 1.676000 0.015913 -0.186000
v 1.803000 0.015913 -0.200000
v 1.793654 0.015913 -0.164649
v 1.782648 0.015913 -0.126023
v 1.770031 0.015913 -0.084766
v 1.755852 0.015913 -0.041519
v 1.740159 0.015913 0.003076
v 1.723000 0.015913 0.048375
v 1.704425 0.015913 0.093737
v 1.684482 0.015913 0.138519
v 1.663219 0.015913 0.182078
v 1.640685 0.015913 0.223773
v 1.616930 0.015913 0.262961
v 1.592000 0.015913 0.299000
v 1.674000 0.015913 0.331000
v 1.699483 0.015913 0.287643
v 1.723444 0.015913 0.242394
v 1.745906 0.015913 0.195734
v 1.766889 0.015913 0.148148
v 1.786413 0.015913 0.100118
v 1.804500 0.015913 0.052125
v 1.821170 0.015913 0.004653
v 1.836444 0.015913 -0.041815
v 1.850344 0.015913 -0.086797
v 1.862889 0.015913 -0.129810
v 1.874101 0.015913 -0.170372
v 1.884000 0.015913 -0.208000
v 1.894910 0.015913 -0.208978
v 1.905611 0.015913 -0.209907
v 1.916063 0.015913 -0.210781
v 1.926222 0.015913 -0.211593
v 1.936049 0.015913 -0.212334
v 1.945500 0.015913 -0.213000
v 1.954535 0.015913 -0.213582
v 1.963111 0.015913 -0.214074
v 1.971188 0.015913 -0.214469
v 1.978722 0.015913 -0.214759
v 1.985674 0.015913 -0.214939
v 1.992000 0.015913 -0.215000
v 2.007320 0.015913 -0.214612
v 2.021727 0.015913 -0.213315
v 2.035141 0.015913 -0.210906
v 2.047482 0.015913 -0.207185
v 2.058670 0.015913 -0.201950
v 2.068625 0.015913 -0.195000
v 2.077268 0.015913 -0.186133
v 2.084518 0.015913 -0.175148
v 2.090297 0.015913 -0.161844
v 2.094523 0.015913 -0.146019
v 2.097117 0.015913 -0.127471
v 2.098000 0.015913 -0.106000
v 2.097667 0.015913 -0.078590
v 2.096667 0.015913 -0.050556
v 2.095000 0.015913 -0.022187
v 2.092667 0.015913 0.006222
v 2.089667 0.015913 0.034382
v 2.086000 0.015913 0.062000
v 2.081667 0.015913 0.088785
v 2.076667 0.015913 0.114444
v 2.071000 0.015913 0.138688
v 2.064667 0.015913 0.161222
v 2.057667 0.015913 0.181757
v 2.050000 0.015913 0.200000
v 2.044793 0.015913 0.210036
v 2.039181 0.015913 0.218708
v 2.033172 0.015913 0.226109
v 2.026778 0.015913 0.232333
v 2.020009 0.015913 0.237474
v 2.012875 0.015913 0.241625
v 2.005387 0.015913 0.244880
v 1.997555 0.015913 0.247333
v 1.989391 0.015913 0.249078
v 1.980903 0.015913 0.250208
v 1.972102 0.015913 0.250818
v 1.963000 0.015913 0.251000
v 1.955500 0.015913 0.250855
v 1.947083 0.015913 0.250421
v 1.937875 0.015913 0.249703
v 1.928000 0.015913 0.248704
v 1.917583 0.015913 0.247427
v 1.906750 0.015913 0.245875
v 1.895625 0.015913 0.244053
v 1.884333 0.015913 0.241963
v 1.873000 0.015913 0.239609
v 1.861750 0.015913 0.236995
v 1.850708 0.015913 0.234124
v 1.840000 0.015913 0.231000
v 1.853000 0.015913 0.314000
v 1.861318 0.015913 0.315976
v 1.870213 0.015913 0.317889
v 1.879594 0.015913 0.319719
v 1.889370 0.015913 0.321444
v 1.899453 0.015913 0.323045
v 1.909750 0.015913 0.324500
v 1.920172 0.015913 0.325788
v 1.930630 0.015913 0.326889
v 1.941031 0.015913 0.327781
v 1.951287 0.015913 0.328444
v 1.961307 0.015913 0.328858
v 1.971000 0.015913 0.329000
v 1.986916 0.015913 0.328627
v 2.002162 0.015913 0.327431
v 2.016734 0.015913 0.325297
v 2.030630 0.015913 0.322111
v 2.043844 0.015913 0.317759
v 2.056375 0.015913 0.312125
v 2.068218 0.015913 0.305096
v 2.079370 0.015913 0.296556
v 2.089828 0.015913 0.286391
v 2.099588 0.015913 0.274486
v 2.108647 0.015913 0.260727
v 2.117000 0.015913 0.245000
v 2.126964 0.015913 0.222734
v 2.135880 0.015913 0.197704
v 2.143781 0.015913 0.170312
v 2.150704 0.015913 0.140963
v 2.156682 0.015913 0.110058
v 2.161750 0.015913 0.078000
v 2.165943 0.015913 0.045192
v 2.169297 0.015913 0.012037
v 2.171844 0.015913 -0.021063
v 2.173621 0.015913 -0.053704
v 2.174661 0.015913 -0.085484
v 2.175000 0.015913 -0.116000
v 2.173512 0.015913 -0.147685
v 2.169181 0.015913 -0.175394
v 2.162203 0.015913 -0.199359
v 2.152778 0.015913 -0.219815
v 2.141103 0.015913 -0.236992
v 2.127375 0.015913 -0.251125
v 2.111794 0.015913 -0.262445
v 2.094556 0.015913 -0.271185
v 2.075860 0.015913 -0.277578
v 2.055903 0.015913 -0.281857
v 2.034884 0.015913 -0.284253
v 2.013000 0.015913 -0.285000
v 2.006633 0.015913 -0.284939
v 1.999560 0.015913 -0.284759
v 1.991828 0.015913 -0.284469
v 1.983482 0.015913 -0.284074
v 1.974565 0.015913 -0.283582
v 1.965125 0.015913 -0.283000
v 1.955205 0.015913 -0.282335
v 1.944852 0.015913 -0.281593
v 1.934109 0.015913 -0.280781
v 1.923023 0.015913 -0.279907
v 1.911638 0.015913 -0.278978
v 1.900000 0.015913 -0.278000
v 1.926000 0.015913 -0.421000
v 1.927000 0.015913 -0.425808
v 1.928000 0.015913 -0.430718
v 1.929000 0.015913 -0.435703
v 1.930000 0.015913 -0.440741
v 1.931000 0.015913 -0.445806
v 1.932000 0.015913 -0.450875
v 1.933000 0.015913 -0.455923
v 1.934000 0.015913 -0.460926
v 1.935000 0.015913 -0.465859
v 1.936000 0.015913 -0.470699
v 1.937001 0.015913 -0.475421
v 1.938000 0.015913 -0.480000
v 1.845000 0.015913 -0.490000
v 1.844794 0.015913 -0.472801
v 1.844185 0.015913 -0.455241
v 1.843188 0.015913 -0.437375
v 1.841815 0.015913 -0.419259
v 1.840081 0.015913 -0.400949
v 1.838000 0.015913 -0.382500
v 1.835586 0.015913 -0.363968
v 1.832852 0.015913 -0.345407
v 1.829813 0.015913 -0.326875
v 1.826481 0.015913 -0.308426
v 1.822873 0.015913 -0.290116
v 1.819000 0.015913 -0.272000
v 1.804035 0.015913 -0.270752
v 1.789199 0.015913 -0.269519
v 1.774578 0.015913 -0.268313
v 1.760259 0.015913 -0.267148
v 1.746329 0.015913 -0.266039
v 1.732875 0.015913 -0.265000
v 1.719983 0.015913 -0.264044
v 1.707741 0.015913 -0.263185
v 1.696235 0.015913 -0.262438
v 1.685551 0.015913 -0.261815
v 1.675777 0.015913 -0.261331
v 1.667000 0.015913 -0.261000
v 1.659119 0.015913 -0.260752
v 1.651449 0.015913 -0.260514
v 1.643953 0.015913 -0.260297
v 1.636593 0.015913 -0.260111
v 1.629329 0.015913 -0.259967
v 1.622125 0.015913 -0.259875
v 1.614941 0.015913 -0.259846
v 1.607741 0.015913 -0.259889
v 1.600484 0.015913 -0.260016
v 1.593134 0.015913 -0.260236
v 1.585652 0.015913 -0.260561
v 2.282000 0.015913 -0.374000
v 2.209000 0.015913 -0.341000
v 2.226864 0.015913 -0.318409
v 2.244824 0.015913 -0.292519
v 2.262688 0.015913 -0.263906
v 2.280259 0.015913 -0.233148
v 2.297345 0.015913 -0.200821
v 2.313750 0.015913 -0.167500
v 2.329280 0.015913 -0.133763
v 2.343741 0.015913 -0.100185
v 2.356937 0.015913 -0.067344
v 2.368676 0.015913 -0.035815
v 2.378762 0.015913 -0.006175
v 2.387000 0.015913 0.021000
v 2.465000 0.015913 -0.016000
v 2.455441 0.015913 -0.041034
v 2.443944 0.015913 -0.069185
v 2.430781 0.015913 -0.099781
v 2.416222 0.015913 -0.132148
v 2.400538 0.015913 -0.165612
v 2.384000 0.015913 -0.199500
v 2.366878 0.015913 -0.233138
v 2.349444 0.015913 -0.265852
v 2.331969 0.015913 -0.296969
v 2.314722 0.015913 -0.325815
v 2.297976 0.015913 -0.351716
v 0.775000 0.015913 0.001000
v 0.694000 0.015913 -0.007000
v 0.691696 0.015913 0.003374
v 0.689319 0.015913 0.013991
v 0.686922 0.015913 0.024844
v 0.684556 0.015913 0.035926
v 0.682273 0.015913 0.047230
v 0.680125 0.015913 0.058750
v 0.678165 0.015913 0.070478
v 0.676444 0.015913 0.082407
v 0.675016 0.015913 0.094531
v 0.673931 0.015913 0.106843
v 0.673241 0.015913 0.119334
v 0.673000 0.015913 0.132000
v 0.675439 0.015913 0.162266
v 0.682681 0.015913 0.190046
v 0.694609 0.015913 0.215313
v 0.711111 0.015913 0.238037
v 0.732071 0.015913 0.258192
v 0.757375 0.015913 0.275750
v 0.786908 0.015913 0.290683
v 0.820556 0.015913 0.302963
v 0.858203 0.015913 0.312563
v 0.899736 0.015913 0.319454
v 0.945040 0.015913 0.323609
v 0.994000 0.015913 0.325000
v 1.029164 0.015913 0.324693
v 1.063565 0.015913 0.323796
v 1.097062 0.015913 0.322344
v 1.129519 0.015913 0.320370
v 1.160794 0.015913 0.317911
v 1.190750 0.015913 0.315000
v 1.219248 0.015913 0.311672
v 1.246148 0.015913 0.307963
v 1.271312 0.015913 0.303906
v 1.294602 0.015913 0.299537
v 1.315877 0.015913 0.294890
v 1.335000 0.015913 0.290000
v 1.334000 0.015913 0.204000
v 1.314151 0.015913 0.210039
v 1.292208 0.015913 0.215644
v 1.268328 0.015913 0.220797
v 1.242667 0.015913 0.225481
v 1.215380 0.015913 0.229680
v 1.186625 0.015913 0.233375
v 1.156557 0.015913 0.236549
v 1.125333 0.015913 0.239185
v 1.093109 0.015913 0.241266
v 1.060042 0.015913 0.242773
v 1.026287 0.015913 0.243690
v 0.992000 0.015913 0.244000
v 0.953706 0.015913 0.242913
v 0.918815 0.015913 0.239722
v 0.887313 0.015913 0.234531
v 0.859185 0.015913 0.227444
v 0.834419 0.015913 0.218566
v 0.813000 0.015913 0.208000
v 0.794914 0.015913 0.195851
v 0.780148 0.015913 0.182222
v 0.768687 0.015913 0.167219
v 0.760518 0.015913 0.150944
v 0.755627 0.015913 0.133503
v 0.754000 0.015913 0.115000
v 0.754165 0.015913 0.105748
v 0.754653 0.015913 0.096486
v 0.755453 0.015913 0.087203
v 0.756556 0.015913 0.077889
v 0.757950 0.015913 0.068533
v 0.759625 0.015913 0.059125
v 0.761571 0.015913 0.049655
v 0.763778 0.015913 0.040111
v 0.766234 0.015913 0.030484
v 0.768931 0.015913 0.020764
v 0.771856 0.015913 0.010939
v 0.735000 0.015913 -0.402000
v 0.735000 0.015913 -0.320000
v 0.754880 0.015913 -0.318523
v 0.775042 0.015913 -0.317102
v 0.795516 0.015913 -0.315750
v 0.816333 0.015913 -0.314481
v 0.837526 0.015913 -0.313310
v 0.859125 0.015913 -0.312250
v 0.881161 0.015913 -0.311315
v 0.903667 0.015913 -0.310519
v 0.926672 0.015913 -0.309875
v 0.950208 0.015913 -0.309398
v 0.974307 0.015913 -0.309102
v 0.999000 0.015913 -0.309000
v 1.022550 0.015913 -0.309141
v 1.046569 0.015913 -0.309542
v 1.070859 0.015913 -0.310172
v 1.095222 0.015913 -0.311000
v 1.119460 0.015913 -0.311995
v 1.143375 0.015913 -0.313125
v 1.166769 0.015913 -0.314359
v 1.189445 0.015913 -0.315667
v 1.211203 0.015913 -0.317016
v 1.231847 0.015913 -0.318375
v 1.251179 0.015913 -0.319714
v 1.269000 0.015913 -0.321000
v 1.269000 0.015913 -0.403000
v 1.250396 0.015913 -0.401254
v 1.230667 0.015913 -0.399532
v 1.209938 0.015913 -0.397859
v 1.188333 0.015913 -0.396259
v 1.165979 0.015913 -0.394756
v 1.143000 0.015913 -0.393375
v 1.119521 0.015913 -0.392139
v 1.095667 0.015913 -0.391074
v 1.071563 0.015913 -0.390203
v 1.047333 0.015913 -0.389551
v 1.023104 0.015913 -0.389142
v 0.999000 0.015913 -0.389000
v 0.974174 0.015913 -0.389084
v 0.949722 0.015913 -0.389338
v 0.925687 0.015913 -0.389766
v 0.902111 0.015913 -0.390370
v 0.879035 0.015913 -0.391156
v 0.856500 0.015913 -0.392125
v 0.834549 0.015913 -0.393282
v 0.813222 0.015913 -0.394630
v 0.792562 0.015913 -0.396172
v 0.772611 0.015913 -0.397912
v 0.753410 0.015913 -0.399854
v 0.244000 0.015913 -0.370000
v 0.166000 0.015913 -0.343000
v 0.189247 0.015913 -0.311981
v 0.210972 0.015913 -0.277685
v 0.231156 0.015913 -0.240500
v 0.249778 0.015913 -0.200815
v 0.266816 0.015913 -0.159018
v 0.282250 0.015913 -0.115500
v 0.296059 0.015913 -0.070648
v 0.308222 0.015913 -0.024852
v 0.318719 0.015913 0.021500
v 0.327528 0.015913 0.068019
v 0.334628 0.015913 0.114315
v 0.340000 0.015913 0.160000
v 0.420000 0.015913 0.127000
v 0.415086 0.015913 0.083935
v 0.407935 0.015913 0.039560
v 0.398688 0.015913 -0.005641
v 0.387482 0.015913 -0.051185
v 0.374456 0.015913 -0.096591
v 0.359750 0.015913 -0.141375
v 0.343502 0.015913 -0.185055
v 0.325852 0.015913 -0.227148
v 0.306938 0.015913 -0.267172
v 0.286898 0.015913 -0.304644
v 0.265873 0.015913 -0.339080
v -0.277000 0.015913 -0.398000
v -0.374000 0.015913 -0.400000
v -0.372602 0.015913 -0.393646
v -0.371398 0.015913 -0.386671
v -0.370375 0.015913 -0.379203
v -0.369519 0.015913 -0.371370
v -0.368815 0.015913 -0.363302
v -0.368250 0.015913 -0.355125
v -0.367810 0.015913 -0.346969
v -0.367481 0.015913 -0.338963
v -0.367250 0.015913 -0.331234
v -0.367102 0.015913 -0.323912
v -0.367023 0.015913 -0.317124
v -0.367000 0.015913 -0.311000
v -0.366975 0.015913 -0.295224
v -0.366880 0.015913 -0.277125
v -0.366687 0.015913 -0.257047
v -0.366370 0.015913 -0.235333
v -0.365900 0.015913 -0.212328
v -0.365250 0.015913 -0.188375
v -0.364391 0.015913 -0.163818
v -0.363296 0.015913 -0.139000
v -0.361937 0.015913 -0.114266
v -0.360287 0.015913 -0.089958
v -0.358317 0.015913 -0.066422
v -0.356000 0.015913 -0.044000
v -0.347951 0.015913 0.017354
v -0.337444 0.015913 0.072079
v -0.324687 0.015913 0.120422
v -0.309889 0.015913 0.162630
v -0.293257 0.015913 0.198949
v -0.275000 0.015913 0.229625
v -0.255326 0.015913 0.254906
v -0.234444 0.015913 0.275037
v -0.212562 0.015913 0.290266
v -0.189889 0.015913 0.300838
v -0.166632 0.015913 0.307001
v -0.143000 0.015913 0.309000
v -0.126372 0.015913 0.307760
v -0.109977 0.015913 0.303917
v -0.093797 0.015913 0.297281
v -0.077815 0.015913 0.287667
v -0.062013 0.015913 0.274885
v -0.046375 0.015913 0.258750
v -0.030883 0.015913 0.239073
v -0.015518 0.015913 0.215667
v -0.000266 0.015913 0.188344
v 0.014894 0.015913 0.156917
v 0.029976 0.015913 0.121198
v 0.045000 0.015913 0.081000
v -0.018000 0.015913 0.010000
v -0.024928 0.015913 0.035021
v -0.032671 0.015913 0.059833
v -0.041172 0.015913 0.084062
v -0.050370 0.015913 0.107333
v -0.060208 0.015913 0.129271
v -0.070625 0.015913 0.149500
v -0.081563 0.015913 0.167646
v -0.092963 0.015913 0.183333
v -0.104766 0.015913 0.196188
v -0.116912 0.015913 0.205833
v -0.129343 0.015913 0.211896
v -0.142000 0.015913 0.214000
v -0.159285 0.015913 0.211719
v -0.175616 0.015913 0.205005
v -0.190953 0.015913 0.194047
v -0.205259 0.015913 0.179037
v -0.218496 0.015913 0.160166
v -0.230625 0.015913 0.137625
v -0.241608 0.015913 0.111605
v -0.251407 0.015913 0.082296
v -0.259984 0.015913 0.049891
v -0.267301 0.015913 0.014579
v -0.273319 0.015913 -0.023449
v -0.278000 0.015913 -0.064000
v -0.279627 0.015913 -0.084896
v -0.281019 0.015913 -0.106000
v -0.282187 0.015913 -0.127188
v -0.283148 0.015913 -0.148333
v -0.283914 0.015913 -0.169313
v -0.284500 0.015913 -0.190000
v -0.284919 0.015913 -0.210271
v -0.285185 0.015913 -0.230000
v -0.285312 0.015913 -0.249063
v -0.285315 0.015913 -0.267333
v -0.285206 0.015913 -0.284687
v -0.285000 0.015913 -0.301000
v -0.284919 0.015913 -0.307912
v -0.284685 0.015913 -0.315546
v -0.284312 0.015913 -0.323750
v -0.283815 0.015913 -0.332370
v -0.283206 0.015913 -0.341255
v -0.282500 0.015913 -0.350250
v -0.281711 0.015913 -0.359204
v -0.280852 0.015913 -0.367963
v -0.279938 0.015913 -0.376375
v -0.278981 0.015913 -0.384287
v -0.277998 0.015913 -0.391546
v -1.040000 0.015913 -0.261000
v -1.188000 0.015913 -0.261000
v -1.150000 0.015913 -0.277000
v -1.153445 0.015913 -0.286606
v -1.157727 0.015913 -0.296847
v -1.162766 0.015913 -0.307609
v -1.168481 0.015913 -0.318778
v -1.174795 0.015913 -0.330238
v -1.181625 0.015913 -0.341875
v -1.188893 0.015913 -0.353575
v -1.196519 0.015913 -0.365222
v -1.204422 0.015913 -0.376703
v -1.212523 0.015913 -0.387903
v -1.220742 0.015913 -0.398707
v -1.229000 0.015913 -0.409000
v -1.213250 0.015913 -0.409771
v -1.197500 0.015913 -0.410583
v -1.181750 0.015913 -0.411438
v -1.166000 0.015913 -0.412333
v -1.150250 0.015913 -0.413271
v -1.134500 0.015913 -0.414250
v -1.118750 0.015913 -0.415271
v -1.103000 0.015913 -0.416333
v -1.087250 0.015913 -0.417438
v -1.071499 0.015913 -0.418583
v -1.055749 0.015913 -0.419771
v -1.040000 0.015913 -0.421000
v -1.294000 0.015913 -0.386000
v -1.286759 0.015913 -0.376264
v -1.279569 0.015913 -0.366116
v -1.272484 0.015913 -0.355641
v -1.265556 0.015913 -0.344926
v -1.258835 0.015913 -0.334058
v -1.252375 0.015913 -0.323125
v -1.246227 0.015913 -0.312212
v -1.240444 0.015913 -0.301407
v -1.235078 0.015913 -0.290797
v -1.230180 0.015913 -0.280468
v -1.225804 0.015913 -0.270506
v -1.222000 0.015913 -0.261000
v -1.439000 0.015913 -0.261000
v -1.439000 0.015913 -0.197000
v -1.118000 0.015913 -0.197000
v -1.141671 0.015913 -0.176663
v -1.167037 0.015913 -0.156722
v -1.193875 0.015913 -0.137281
v -1.221963 0.015913 -0.118444
v -1.251079 0.015913 -0.100316
v -1.281000 0.015913 -0.083000
v -1.311504 0.015913 -0.066601
v -1.342370 0.015913 -0.051222
v -1.373375 0.015913 -0.036969
v -1.404296 0.015913 -0.023944
v -1.434912 0.015913 -0.012253
v -1.465000 0.015913 -0.002000
v -1.460905 0.015913 0.001758
v -1.456653 0.015913 0.005981
v -1.452297 0.015913 0.010594
v -1.447889 0.015913 0.015519
v -1.443481 0.015913 0.020679
v -1.439125 0.015913 0.026000
v -1.434873 0.015913 0.031404
v -1.430778 0.015913 0.036815
v -1.426891 0.015913 0.042156
v -1.423264 0.015913 0.047352
v -1.419950 0.015913 0.052325
v -1.417000 0.015913 0.057000
v -1.408460 0.015913 0.053688
v -1.399843 0.015913 0.050255
v -1.391156 0.015913 0.046703
v -1.382407 0.015913 0.043037
v -1.373603 0.015913 0.039260
v -1.364750 0.015913 0.035375
v -1.355855 0.015913 0.031386
v -1.346926 0.015913 0.027296
v -1.337969 0.015913 0.023109
v -1.328991 0.015913 0.018829
v -1.319999 0.015913 0.014458
v -1.311000 0.015913 0.010000
v -1.311000 0.015913 0.381000
v -1.239000 0.015913 0.381000
v -1.239000 0.015913 0.346000
v -0.749000 0.015913 0.346000
v -0.749000 0.015913 0.377000
v -0.674000 0.015913 0.377000
v -0.674000 0.015913 0.013000
v -0.666270 0.015913 0.016458
v -0.658579 0.015913 0.019833
v -0.650922 0.015913 0.023125
v -0.643296 0.015913 0.026333
v -0.635698 0.015913 0.029458
v -0.628125 0.015913 0.032500
v -0.620572 0.015913 0.035458
v -0.613037 0.015913 0.038333
v -0.605516 0.015913 0.041125
v -0.598005 0.015913 0.043833
v -0.590501 0.015913 0.046458
v -0.583000 0.015913 0.049000
v -0.579800 0.015913 0.044056
v -0.576236 0.015913 0.038778
v -0.572359 0.015913 0.033250
v -0.568222 0.015913 0.027556
v -0.563877 0.015913 0.021778
v -0.559375 0.015913 0.016000
v -0.554769 0.015913 0.010306
v -0.550111 0.015913 0.004778
v -0.545453 0.015913 -0.000500
v -0.540847 0.015913 -0.005444
v -0.536345 0.015913 -0.009972
v -0.532000 0.015913 -0.014000
v -0.563066 0.015913 -0.023444
v -0.594616 0.015913 -0.034222
v -0.626422 0.015913 -0.046250
v -0.658259 0.015913 -0.059444
v -0.689902 0.015913 -0.073722
v -0.721125 0.015913 -0.089000
v -0.751702 0.015913 -0.105194
v -0.781407 0.015913 -0.122222
v -0.810016 0.015913 -0.140000
v -0.837301 0.015913 -0.158444
v -0.863038 0.015913 -0.177472
v -0.887000 0.015913 -0.197000
v -0.559000 0.015913 -0.197000
v -0.559000 0.015913 -0.261000
v -0.788000 0.015913 -0.261000
v -0.780421 0.015913 -0.271071
v -0.772704 0.015913 -0.281736
v -0.764875 0.015913 -0.292922
v -0.756963 0.015913 -0.304556
v -0.748995 0.015913 -0.316564
v -0.741000 0.015913 -0.328875
v -0.733005 0.015913 -0.341415
v -0.725037 0.015913 -0.354111
v -0.717125 0.015913 -0.366891
v -0.709296 0.015913 -0.379681
v -0.701579 0.015913 -0.392408
v -0.694000 0.015913 -0.405000
v -0.775000 0.015913 -0.428000
v -0.780090 0.015913 -0.415859
v -0.785801 0.015913 -0.403042
v -0.792047 0.015913 -0.389703
v -0.798741 0.015913 -0.376000
v -0.805796 0.015913 -0.362089
v -0.813125 0.015913 -0.348125
v -0.820642 0.015913 -0.334266
v -0.828259 0.015913 -0.320667
v -0.835891 0.015913 -0.307484
v -0.843449 0.015913 -0.294875
v -0.850848 0.015913 -0.282995
v -0.858000 0.015913 -0.272000
v -0.827000 0.015913 -0.261000
v -0.966000 0.015913 -0.261000
v -0.966000 0.015913 -0.427000
v -0.936656 0.015913 -0.430063
v -0.907662 0.015913 -0.433250
v -0.879078 0.015913 -0.436563
v -0.850963 0.015913 -0.440000
v -0.823376 0.015913 -0.443563
v -0.796375 0.015913 -0.447250
v -0.770020 0.015913 -0.451063
v -0.744370 0.015913 -0.455000
v -0.719484 0.015913 -0.459063
v -0.695421 0.015913 -0.463250
v -0.672240 0.015913 -0.467562
v -0.650000 0.015913 -0.472000
v -0.700000 0.015913 -0.528000
v -0.741875 0.015913 -0.519730
v -0.788583 0.015913 -0.511926
v -0.839500 0.015913 -0.504594
v -0.894000 0.015913 -0.497741
v -0.951458 0.015913 -0.491374
v -1.011250 0.015913 -0.485500
v -1.072750 0.015913 -0.480126
v -1.135333 0.015913 -0.475259
v -1.198375 0.015913 -0.470906
v -1.261250 0.015913 -0.467074
v -1.323334 0.015913 -0.463770
v -1.384000 0.015913 -0.461000
v -1.382233 0.015913 -0.456803
v -1.380449 0.015913 -0.452259
v -1.378672 0.015913 -0.447438
v -1.376926 0.015913 -0.442407
v -1.375236 0.015913 -0.437238
v -1.373625 0.015913 -0.432000
v -1.372119 0.015913 -0.426762
v -1.370741 0.015913 -0.421593
v -1.369516 0.015913 -0.416563
v -1.368468 0.015913 -0.411741
v -1.367621 0.015913 -0.407197
v -1.367000 0.015913 -0.403000
v -1.235000 0.015913 -0.408000
v -1.040000 0.015913 -0.183000
v -1.040000 0.015913 -0.024000
v -0.966000 0.015913 -0.024000
v -0.966000 0.015913 -0.187000
v -0.948972 0.015913 -0.169861
v -0.930940 0.015913 -0.152968
v -0.911984 0.015913 -0.136359
v -0.892185 0.015913 -0.120074
v -0.871622 0.015913 -0.104150
v -0.850375 0.015913 -0.088625
v -0.828524 0.015913 -0.073538
v -0.806148 0.015913 -0.058926
v -0.783328 0.015913 -0.044828
v -0.760144 0.015913 -0.031282
v -0.736674 0.015913 -0.018327
v -0.713000 0.015913 -0.006000
v -1.281000 0.015913 -0.006000
v -1.258574 0.015913 -0.018516
v -1.236343 0.015913 -0.031542
v -1.214375 0.015913 -0.045047
v -1.192741 0.015913 -0.059000
v -1.171509 0.015913 -0.073370
v -1.150750 0.015913 -0.088125
v -1.130533 0.015913 -0.103234
v -1.110926 0.015913 -0.118667
v -1.092000 0.015913 -0.134391
v -1.073824 0.015913 -0.150375
v -1.056468 0.015913 -0.166589
v -1.239000 0.015913 0.194000
v -1.038000 0.015913 0.194000
v -1.038000 0.015913 0.287000
v -1.239000 0.015913 0.287000
v -1.239000 0.015913 0.141000
v -1.239000 0.015913 0.054000
v -1.038000 0.015913 0.054000
v -1.038000 0.015913 0.141000
v -0.749000 0.015913 0.194000
v -0.749000 0.015913 0.287000
v -0.966000 0.015913 0.287000
v -0.966000 0.015913 0.194000
v -0.749000 0.015913 0.141000
v -0.966000 0.015913 0.141000
v -0.966000 0.015913 0.054000
v -0.749000 0.015913 0.054000
v -2.040000 0.015913 -0.539000
v -2.040000 0.015913 -0.329000
v -2.435000 0.015913 -0.329000
v -2.435000 0.015913 -0.253000
v -2.133000 0.015913 -0.253000
v -2.152288 0.015913 -0.210709
v -2.173556 0.015913 -0.169005
v -2.196656 0.015913 -0.128141
v -2.221444 0.015913 -0.088370
v -2.247774 0.015913 -0.049947
v -2.275500 0.015913 -0.013125
v -2.304476 0.015913 0.021843
v -2.334555 0.015913 0.054704
v -2.365594 0.015913 0.085203
v -2.397444 0.015913 0.113088
v -2.429962 0.015913 0.138105
v -2.463000 0.015913 0.160000
v -2.458366 0.015913 0.163988
v -2.453509 0.015913 0.168407
v -2.448500 0.015913 0.173188
v -2.443407 0.015913 0.178259
v -2.438301 0.015913 0.183553
v -2.433250 0.015913 0.189000
v -2.428324 0.015913 0.194530
v -2.423593 0.015913 0.200074
v -2.419125 0.015913 0.205563
v -2.414991 0.015913 0.210926
v -2.411259 0.015913 0.216095
v -2.408000 0.015913 0.221000
v -2.372104 0.015913 0.194620
v -2.336996 0.015913 0.165125
v -2.302797 0.015913 0.132734
v -2.269630 0.015913 0.097667
v -2.237616 0.015913 0.060141
v -2.206875 0.015913 0.020375
v -2.177531 0.015913 -0.021411
v -2.149704 0.015913 -0.065000
v -2.123516 0.015913 -0.110172
v -2.099088 0.015913 -0.156708
v -2.076542 0.015913 -0.204391
v -2.056000 0.015913 -0.253000
v -2.040000 0.015913 -0.253000
v -2.040000 0.015913 0.117000
v -2.274000 0.015913 0.117000
v -2.274000 0.015913 0.193000
v -2.040000 0.015913 0.193000
v -2.040000 0.015913 0.380000
v -1.961000 0.015913 0.380000
v -1.961000 0.015913 0.193000
v -1.728000 0.015913 0.193000
v -1.728000 0.015913 0.117000
v -1.961000 0.015913 0.117000
v -1.961000 0.015913 -0.253000
v -1.947000 0.015913 -0.253000
v -1.926916 0.015913 -0.204373
v -1.904741 0.015913 -0.156648
v -1.880594 0.015913 -0.110062
v -1.854593 0.015913 -0.064852
v -1.826855 0.015913 -0.021252
v -1.797500 0.015913 0.020500
v -1.766645 0.015913 0.060169
v -1.734407 0.015913 0.097519
v -1.700906 0.015913 0.132313
v -1.666259 0.015913 0.164315
v -1.630584 0.015913 0.193289
v -1.594000 0.015913 0.219000
v -1.590261 0.015913 0.213596
v -1.586088 0.015913 0.207935
v -1.581547 0.015913 0.202094
v -1.576704 0.015913 0.196148
v -1.571624 0.015913 0.190175
v -1.566375 0.015913 0.184250
v -1.561021 0.015913 0.178450
v -1.555630 0.015913 0.172852
v -1.550266 0.015913 0.167531
v -1.544995 0.015913 0.162565
v -1.539885 0.015913 0.158029
v -1.535000 0.015913 0.154000
v -1.569455 0.015913 0.132414
v -1.603227 0.015913 0.107810
v -1.636172 0.015913 0.080422
v -1.668148 0.015913 0.050481
v -1.699013 0.015913 0.018222
v -1.728625 0.015913 -0.016125
v -1.756841 0.015913 -0.052326
v -1.783518 0.015913 -0.090148
v -1.808516 0.015913 -0.129359
v -1.831690 0.015913 -0.169727
v -1.852899 0.015913 -0.211018
v -1.872000 0.015913 -0.253000
v -1.563000 0.015913 -0.253000
v -1.563000 0.015913 -0.329000
v -1.961000 0.015913 -0.329000
v -1.961000 0.015913 -0.539000
vn -0.0000 1.0000 -0.0000
vn -0.0000 -1.0000 -0.0000
vt 0.897872 0.000000
vt 1.000000 0.000000
vt 0.893617 0.000000
vt 0.995745 0.000000
vt 0.902128 0.000000
vt 0.991489 0.000000
vt 0.906383 0.000000
vt 0.987234 0.000000
vt 0.910638 0.000000
vt 0.982979 0.000000
vt 0.914894 0.000000
vt 0.919149 0.000000
vt 0.978723 0.000000
vt 0.923404 0.000000
vt 0.974468 0.000000
vt 0.927660 0.000000
vt 0.970213 0.000000
vt 0.931915 0.000000
vt 0.965957 0.000000
vt 0.936170 0.000000
vt 0.961702 0.000000
vt 0.957447 0.000000
vt 0.940426 0.000000
vt 0.953192 0.000000
vt 0.944681 0.000000
vt 0.948936 0.000000
vt 0.744681 0.000000
vt 0.736170 0.000000
vt 0.740426 0.000000
vt 0.731915 0.000000
vt 0.727660 0.000000
vt 0.748936 0.000000
vt 0.723404 0.000000
vt 0.719149 0.000000
vt 0.714894 0.000000
vt 0.710638 0.000000
vt 0.753191 0.000000
vt 0.706383 0.000000
vt 0.702128 0.000000
vt 0.697872 0.000000
vt 0.757447 0.000000
vt 0.693617 0.000000
vt 0.689362 0.000000
vt 0.685106 0.000000
vt 0.680851 0.000000
vt 0.761702 0.000000
vt 0.765957 0.000000
vt 0.770213 0.000000
vt 0.774468 0.000000
vt 0.778723 0.000000
vt 0.782979 0.000000
vt 0.787234 0.000000
vt 0.791489 0.000000
vt 0.634043 0.000000
vt 0.625532 0.000000
vt 0.629787 0.000000
vt 0.638298 0.000000
vt 0.642553 0.000000
vt 0.646809 0.000000
vt 0.621277 0.000000
vt 0.651064 0.000000
vt 0.655319 0.000000
vt 0.659574 0.000000
vt 0.663830 0.000000
vt 0.617021 0.000000
vt 0.668085 0.000000
vt 0.672340 0.000000
vt 0.676596 0.000000
vt 0.612766 0.000000
vt 0.795745 0.000000
vt 0.608511 0.000000
vt 0.800000 0.000000
vt 0.804255 0.000000
vt 0.808511 0.000000
vt 0.812766 0.000000
vt 0.817021 0.000000
vt 0.821277 0.000000
vt 0.825532 0.000000
vt 0.829787 0.000000
vt 0.604255 0.000000
vt 0.834043 0.000000
vt 0.838298 0.000000
vt 0.842553 0.000000
vt 0.004255 0.000000
vt 0.889362 0.000000
vt 0.000000 0.000000
vt 0.846808 0.000000
vt 0.851064 0.000000
vt 0.885106 0.000000
vt 0.855319 0.000000
vt 0.859574 0.000000
vt 0.880851 0.000000
vt 0.863830 0.000000
vt 0.876596 0.000000
vt 0.868085 0.000000
vt 0.872340 0.000000
vt 0.008511 0.000000
vt 0.012766 0.000000
vt 0.017021 0.000000
vt 0.021277 0.000000
vt 0.025532 0.000000
vt 0.029787 0.000000
vt 0.034043 0.000000
vt 0.038298 0.000000
vt 0.055319 0.000000
vt 0.059574 0.000000
vt 0.600000 0.000000
vt 0.165957 0.000000
vt 0.170213 0.000000
vt 0.174468 0.000000
vt 0.178723 0.000000
vt 0.182979 0.000000
vt 0.187234 0.000000
vt 0.191489 0.000000
vt 0.195745 0.000000
vt 0.200000 0.000000
vt 0.204255 0.000000
vt 0.208511 0.000000
vt 0.595745 0.000000
vt 0.212766 0.000000
vt 0.217021 0.000000
vt 0.221277 0.000000
vt 0.225532 0.000000
vt 0.591489 0.000000
vt 0.229787 0.000000
vt 0.234043 0.000000
vt 0.161702 0.000000
vt 0.238298 0.000000
vt 0.242553 0.000000
vt 0.063830 0.000000
vt 0.587234 0.000000
vt 0.246809 0.000000
vt 0.251064 0.000000
vt 0.051064 0.000000
vt 0.042553 0.000000
vt 0.046809 0.000000
vt 0.582979 0.000000
vt 0.255319 0.000000
vt 0.157447 0.000000
vt 0.068085 0.000000
vt 0.259574 0.000000
vt 0.578723 0.000000
vt 0.263830 0.000000
vt 0.153191 0.000000
vt 0.268085 0.000000
vt 0.072340 0.000000
vt 0.574468 0.000000
vt 0.272340 0.000000
vt 0.148936 0.000000
vt 0.570213 0.000000
vt 0.076596 0.000000
vt 0.276596 0.000000
vt 0.565957 0.000000
vt 0.280851 0.000000
vt 0.144681 0.000000
vt 0.080851 0.000000
vt 0.285106 0.000000
vt 0.561702 0.000000
vt 0.085106 0.000000
vt 0.140426 0.000000
vt 0.289362 0.000000
vt 0.557447 0.000000
vt 0.293617 0.000000
vt 0.553191 0.000000
vt 0.089362 0.000000
vt 0.136170 0.000000
vt 0.297872 0.000000
vt 0.548936 0.000000
vt 0.302128 0.000000
vt 0.093617 0.000000
vt 0.131915 0.000000
vt 0.544681 0.000000
vt 0.306383 0.000000
vt 0.097872 0.000000
vt 0.310638 0.000000
vt 0.540426 0.000000
vt 0.127660 0.000000
vt 0.314894 0.000000
vt 0.536170 0.000000
vt 0.319149 0.000000
vt 0.102128 0.000000
vt 0.123404 0.000000
vt 0.531915 0.000000
vt 0.323404 0.000000
vt 0.327660 0.000000
vt 0.331915 0.000000
vt 0.527660 0.000000
vt 0.106383 0.000000
vt 0.336170 0.000000
vt 0.425532 0.000000
vt 0.417021 0.000000
vt 0.421277 0.000000
vt 0.340426 0.000000
vt 0.412766 0.000000
vt 0.408511 0.000000
vt 0.344681 0.000000
vt 0.404255 0.000000
vt 0.348936 0.000000
vt 0.400000 0.000000
vt 0.119149 0.000000
vt 0.395745 0.000000
vt 0.353191 0.000000
vt 0.523404 0.000000
vt 0.391489 0.000000
vt 0.357447 0.000000
vt 0.387234 0.000000
vt 0.382979 0.000000
vt 0.361702 0.000000
vt 0.378723 0.000000
vt 0.365957 0.000000
vt 0.374468 0.000000
vt 0.370213 0.000000
vt 0.519149 0.000000
vt 0.110638 0.000000
vt 0.514894 0.000000
vt 0.510638 0.000000
vt 0.114894 0.000000
vt 0.506383 0.000000
vt 0.502128 0.000000
vt 0.497872 0.000000
vt 0.429787 0.000000
vt 0.434043 0.000000
vt 0.493617 0.000000
vt 0.438298 0.000000
vt 0.442553 0.000000
vt 0.446809 0.000000
vt 0.489362 0.000000
vt 0.451064 0.000000
vt 0.455319 0.000000
vt 0.485106 0.000000
vt 0.459574 0.000000
vt 0.463830 0.000000
vt 0.480851 0.000000
vt 0.468085 0.000000
vt 0.472340 0.000000
vt 0.476596 0.000000
vt 0.821138 0.000000
vt 0.804878 0.000000
vt 0.813008 0.000000
vt 0.609756 0.000000
vt 0.601626 0.000000
vt 0.829268 0.000000
vt 0.991870 0.000000
vt 0.837398 0.000000
vt 0.983740 0.000000
vt 0.845528 0.000000
vt 0.853659 0.000000
vt 0.975610 0.000000
vt 0.861789 0.000000
vt 0.967480 0.000000
vt 0.869919 0.000000
vt 0.959350 0.000000
vt 0.878049 0.000000
vt 0.951219 0.000000
vt 0.943089 0.000000
vt 0.886179 0.000000
vt 0.934959 0.000000
vt 0.894309 0.000000
vt 0.926829 0.000000
vt 0.902439 0.000000
vt 0.918699 0.000000
vt 0.910569 0.000000
vt 0.796748 0.000000
vt 0.617886 0.000000
vt 0.788618 0.000000
vt 0.626016 0.000000
vt 0.780488 0.000000
vt 0.634146 0.000000
vt 0.772358 0.000000
vt 0.642276 0.000000
vt 0.764228 0.000000
vt 0.650406 0.000000
vt 0.756098 0.000000
vt 0.658537 0.000000
vt 0.747967 0.000000
vt 0.666667 0.000000
vt 0.739837 0.000000
vt 0.674797 0.000000
vt 0.731707 0.000000
vt 0.682927 0.000000
vt 0.723577 0.000000
vt 0.691057 0.000000
vt 0.715447 0.000000
vt 0.699187 0.000000
vt 0.707317 0.000000
vt 0.016260 0.000000
vt 0.008130 0.000000
vt 0.593496 0.000000
vt 0.024390 0.000000
vt 0.585366 0.000000
vt 0.032520 0.000000
vt 0.577236 0.000000
vt 0.040650 0.000000
vt 0.569106 0.000000
vt 0.048780 0.000000
vt 0.560976 0.000000
vt 0.056911 0.000000
vt 0.552846 0.000000
vt 0.065041 0.000000
vt 0.544715 0.000000
vt 0.536585 0.000000
vt 0.073171 0.000000
vt 0.528455 0.000000
vt 0.081301 0.000000
vt 0.520325 0.000000
vt 0.089431 0.000000
vt 0.512195 0.000000
vt 0.504065 0.000000
vt 0.097561 0.000000
vt 0.495935 0.000000
vt 0.105691 0.000000
vt 0.113821 0.000000
vt 0.487805 0.000000
vt 0.479675 0.000000
vt 0.121951 0.000000
vt 0.471545 0.000000
vt 0.463415 0.000000
vt 0.130081 0.000000
vt 0.455285 0.000000
vt 0.317073 0.000000
vt 0.300813 0.000000
vt 0.308943 0.000000
vt 0.447154 0.000000
vt 0.325203 0.000000
vt 0.138211 0.000000
vt 0.333333 0.000000
vt 0.439024 0.000000
vt 0.341463 0.000000
vt 0.349593 0.000000
vt 0.430894 0.000000
vt 0.357724 0.000000
vt 0.365854 0.000000
vt 0.422764 0.000000
vt 0.373984 0.000000
vt 0.146341 0.000000
vt 0.382114 0.000000
vt 0.414634 0.000000
vt 0.390244 0.000000
vt 0.398374 0.000000
vt 0.406504 0.000000
vt 0.154472 0.000000
vt 0.162602 0.000000
vt 0.292683 0.000000
vt 0.170732 0.000000
vt 0.284553 0.000000
vt 0.276423 0.000000
vt 0.178862 0.000000
vt 0.268293 0.000000
vt 0.260163 0.000000
vt 0.252033 0.000000
vt 0.186992 0.000000
vt 0.243902 0.000000
vt 0.235772 0.000000
vt 0.195122 0.000000
vt 0.227642 0.000000
vt 0.219512 0.000000
vt 0.203252 0.000000
vt 0.211382 0.000000
vt 0.709402 0.000000
vt 0.700855 0.000000
vt 0.705128 0.000000
vt 0.713675 0.000000
vt 0.717949 0.000000
vt 0.722222 0.000000
vt 0.726496 0.000000
vt 0.730769 0.000000
vt 0.735043 0.000000
vt 0.739316 0.000000
vt 0.743590 0.000000
vt 0.696581 0.000000
vt 0.747863 0.000000
vt 0.692308 0.000000
vt 0.752137 0.000000
vt 0.756410 0.000000
vt 0.688034 0.000000
vt 0.760684 0.000000
vt 0.683761 0.000000
vt 0.764957 0.000000
vt 0.679487 0.000000
vt 0.769231 0.000000
vt 0.675214 0.000000
vt 0.773504 0.000000
vt 0.670940 0.000000
vt 0.777778 0.000000
vt 0.662393 0.000000
vt 0.782051 0.000000
vt 0.658120 0.000000
vt 0.653846 0.000000
vt 0.786325 0.000000
vt 0.649573 0.000000
vt 0.589744 0.000000
vt 0.581197 0.000000
vt 0.585470 0.000000
vt 0.111111 0.000000
vt 0.645299 0.000000
vt 0.790598 0.000000
vt 0.794872 0.000000
vt 0.106838 0.000000
vt 0.102564 0.000000
vt 0.098291 0.000000
vt 0.094017 0.000000
vt 0.799145 0.000000
vt 0.089744 0.000000
vt 0.594017 0.000000
vt 0.085470 0.000000
vt 0.081197 0.000000
vt 0.076923 0.000000
vt 0.072650 0.000000
vt 0.803419 0.000000
vt 0.068376 0.000000
vt 0.064103 0.000000
vt 0.059829 0.000000
vt 0.811966 0.000000
vt 0.055556 0.000000
vt 0.807692 0.000000
vt 0.115385 0.000000
vt 0.576923 0.000000
vt 0.598291 0.000000
vt 0.051282 0.000000
vt 0.572650 0.000000
vt 0.602564 0.000000
vt 0.047009 0.000000
vt 0.119658 0.000000
vt 0.568376 0.000000
vt 0.042735 0.000000
vt 0.123932 0.000000
vt 0.606838 0.000000
vt 0.564103 0.000000
vt 0.128205 0.000000
vt 0.038462 0.000000
vt 0.611111 0.000000
vt 0.132479 0.000000
vt 0.559829 0.000000
vt 0.034188 0.000000
vt 0.615385 0.000000
vt 0.136752 0.000000
vt 0.029915 0.000000
vt 0.555556 0.000000
vt 0.619658 0.000000
vt 0.141026 0.000000
vt 0.025641 0.000000
vt 0.551282 0.000000
vt 0.145299 0.000000
vt 0.623932 0.000000
vt 0.021368 0.000000
vt 0.547009 0.000000
vt 0.149573 0.000000
vt 0.017094 0.000000
vt 0.628205 0.000000
vt 0.542735 0.000000
vt 0.153846 0.000000
vt 0.012821 0.000000
vt 0.632479 0.000000
vt 0.538462 0.000000
vt 0.158120 0.000000
vt 0.008547 0.000000
vt 0.636752 0.000000
vt 0.534188 0.000000
vt 0.162393 0.000000
vt 0.004274 0.000000
vt 0.641026 0.000000
vt 0.529915 0.000000
vt 0.166667 0.000000
vt 0.175214 0.000000
vt 0.170940 0.000000
vt 0.525641 0.000000
vt 0.521368 0.000000
vt 0.179487 0.000000
vt 0.183761 0.000000
vt 0.517094 0.000000
vt 0.816239 0.000000
vt 0.829060 0.000000
vt 0.512821 0.000000
vt 0.824786 0.000000
vt 0.833333 0.000000
vt 0.931624 0.000000
vt 0.820513 0.000000
vt 0.508547 0.000000
vt 0.188034 0.000000
vt 0.837607 0.000000
vt 0.927350 0.000000
vt 0.504274 0.000000
vt 0.192308 0.000000
vt 0.841880 0.000000
vt 0.923077 0.000000
vt 0.500000 0.000000
vt 0.196581 0.000000
vt 0.846154 0.000000
vt 0.918803 0.000000
vt 0.495726 0.000000
vt 0.850427 0.000000
vt 0.914530 0.000000
vt 0.200855 0.000000
vt 0.491453 0.000000
vt 0.854701 0.000000
vt 0.910256 0.000000
vt 0.205128 0.000000
vt 0.487179 0.000000
vt 0.858974 0.000000
vt 0.905983 0.000000
vt 0.209402 0.000000
vt 0.482906 0.000000
vt 0.863248 0.000000
vt 0.901709 0.000000
vt 0.213675 0.000000
vt 0.478632 0.000000
vt 0.897436 0.000000
vt 0.867521 0.000000
vt 0.217949 0.000000
vt 0.474359 0.000000
vt 0.893162 0.000000
vt 0.871795 0.000000
vt 0.222222 0.000000
vt 0.470085 0.000000
vt 0.888889 0.000000
vt 0.876068 0.000000
vt 0.226496 0.000000
vt 0.465812 0.000000
vt 0.884615 0.000000
vt 0.880342 0.000000
vt 0.461538 0.000000
vt 0.230769 0.000000
vt 0.457265 0.000000
vt 0.452991 0.000000
vt 0.235043 0.000000
vt 0.448718 0.000000
vt 0.239316 0.000000
vt 0.444444 0.000000
vt 0.243590 0.000000
vt 0.329060 0.000000
vt 0.337607 0.000000
vt 0.957265 0.000000
vt 0.363248 0.000000
vt 0.440171 0.000000
vt 0.247863 0.000000
vt 0.995726 0.000000
vt 0.358974 0.000000
vt 0.367521 0.000000
vt 0.324786 0.000000
vt 0.252137 0.000000
vt 0.435897 0.000000
vt 0.371795 0.000000
vt 0.320513 0.000000
vt 0.376068 0.000000
vt 0.256410 0.000000
vt 0.431624 0.000000
vt 0.316239 0.000000
vt 0.380342 0.000000
vt 0.260684 0.000000
vt 0.384615 0.000000
vt 0.311966 0.000000
vt 0.427350 0.000000
vt 0.388889 0.000000
vt 0.307692 0.000000
vt 0.264957 0.000000
vt 0.393162 0.000000
vt 0.423077 0.000000
vt 0.303419 0.000000
vt 0.397436 0.000000
vt 0.269231 0.000000
vt 0.401709 0.000000
vt 0.418803 0.000000
vt 0.299145 0.000000
vt 0.405983 0.000000
vt 0.273504 0.000000
vt 0.294872 0.000000
vt 0.410256 0.000000
vt 0.414530 0.000000
vt 0.290598 0.000000
vt 0.277778 0.000000
vt 0.286325 0.000000
vt 0.282051 0.000000
vt 0.952991 0.000000
vt 0.961538 0.000000
vt 0.965812 0.000000
vt 0.991453 0.000000
vt 0.987179 0.000000
vt 0.935897 0.000000
vt 0.982906 0.000000
vt 0.970085 0.000000
vt 0.948718 0.000000
vt 0.940171 0.000000
vt 0.944444 0.000000
vt 0.978632 0.000000
vt 0.974359 0.000000
vt 0.346154 0.000000
vt 0.350427 0.000000
vt 0.341880 0.000000
vt 0.354701 0.000000
vt 0.010753 0.000000
vt 0.989247 0.000000
vt 0.032258 0.000000
vt 0.021505 0.000000
vt 0.978495 0.000000
vt 0.967742 0.000000
vt 0.043011 0.000000
vt 0.053763 0.000000
vt 0.430108 0.000000
vt 0.419355 0.000000
vt 0.440860 0.000000
vt 0.451613 0.000000
vt 0.559140 0.000000
vt 0.548387 0.000000
vt 0.569892 0.000000
vt 0.580645 0.000000
vt 0.956989 0.000000
vt 0.946237 0.000000
vt 0.935484 0.000000
vt 0.064516 0.000000
vt 0.408602 0.000000
vt 0.591398 0.000000
vt 0.924731 0.000000
vt 0.075269 0.000000
vt 0.397849 0.000000
vt 0.602151 0.000000
vt 0.913979 0.000000
vt 0.086022 0.000000
vt 0.387097 0.000000
vt 0.612903 0.000000
vt 0.903226 0.000000
vt 0.096774 0.000000
vt 0.376344 0.000000
vt 0.623656 0.000000
vt 0.892473 0.000000
vt 0.107527 0.000000
vt 0.365591 0.000000
vt 0.634409 0.000000
vt 0.881720 0.000000
vt 0.118280 0.000000
vt 0.870968 0.000000
vt 0.354839 0.000000
vt 0.645161 0.000000
vt 0.129032 0.000000
vt 0.860215 0.000000
vt 0.139785 0.000000
vt 0.344086 0.000000
vt 0.655914 0.000000
vt 0.849462 0.000000
vt 0.150538 0.000000
vt 0.838710 0.000000
vt 0.161290 0.000000
vt 0.473118 0.000000
vt 0.462366 0.000000
vt 0.537634 0.000000
vt 0.526882 0.000000
vt 0.677419 0.000000
vt 0.827957 0.000000
vt 0.322581 0.000000
vt 0.172043 0.000000
vt 0.817204 0.000000
vt 0.806452 0.000000
vt 0.182796 0.000000
vt 0.795699 0.000000
vt 0.193548 0.000000
vt 0.688172 0.000000
vt 0.311828 0.000000
vt 0.784946 0.000000
vt 0.204301 0.000000
vt 0.774194 0.000000
vt 0.215054 0.000000
vt 0.225806 0.000000
vt 0.763441 0.000000
vt 0.236559 0.000000
vt 0.752688 0.000000
vt 0.247312 0.000000
vt 0.741935 0.000000
vt 0.483871 0.000000
vt 0.494624 0.000000
vt 0.516129 0.000000
vt 0.505376 0.000000
vt 0.698925 0.000000
vt 0.709677 0.000000
vt 0.720430 0.000000
vt 0.731183 0.000000
vt 0.258065 0.000000
vt 0.268817 0.000000
vt 0.279570 0.000000
vt 0.290323 0.000000
vt 0.301075 0.000000
s 0
usemtl マテリアル.001
f 275/64/2 299/65/2 274/66/2
f 275/64/2 298/67/2 299/65/2
f 276/68/2 298/67/2 275/64/2
f 276/68/2 297/69/2 298/67/2
f 277/70/2 297/69/2 276/68/2
f 277/70/2 296/71/2 297/69/2
f 278/72/2 296/71/2 277/70/2
f 278/72/2 295/73/2 296/71/2
f 279/74/2 295/73/2 278/72/2
f 280/75/2 295/73/2 279/74/2
f 280/75/2 294/76/2 295/73/2
f 281/77/2 294/76/2 280/75/2
f 281/77/2 293/78/2 294/76/2
f 282/79/2 293/78/2 281/77/2
f 282/79/2 292/80/2 293/78/2
f 283/81/2 292/80/2 282/79/2
f 283/81/2 291/82/2 292/80/2
f 284/83/2 291/82/2 283/81/2
f 284/83/2 290/84/2 291/82/2
f 284/83/2 289/85/2 290/84/2
f 285/86/2 289/85/2 284/83/2
f 285/86/2 288/87/2 289/85/2
f 286/88/2 288/87/2 285/86/2
f 286/88/2 287/89/2 288/87/2
f 239/90/2 237/91/2 238/92/2
f 239/90/2 236/93/2 237/91/2
f 239/90/2 235/94/2 236/93/2
f 240/95/2 235/94/2 239/90/2
f 240/95/2 234/96/2 235/94/2
f 240/95/2 233/97/2 234/96/2
f 240/95/2 232/98/2 233/97/2
f 240/95/2 231/99/2 232/98/2
f 241/100/2 231/99/2 240/95/2
f 241/100/2 230/101/2 231/99/2
f 241/100/2 229/102/2 230/101/2
f 241/100/2 228/103/2 229/102/2
f 242/104/2 228/103/2 241/100/2
f 242/104/2 227/105/2 228/103/2
f 242/104/2 226/106/2 227/105/2
f 242/104/2 225/107/2 226/106/2
f 242/104/2 224/108/2 225/107/2
f 243/109/2 224/108/2 242/104/2
f 244/110/2 224/108/2 243/109/2
f 245/111/2 224/108/2 244/110/2
f 246/112/2 224/108/2 245/111/2
f 247/113/2 224/108/2 246/112/2
f 248/114/2 224/108/2 247/113/2
f 249/115/2 224/108/2 248/114/2
f 250/116/2 224/108/2 249/115/2
f 213/117/2 211/118/2 212/119/2
f 214/120/2 211/118/2 213/117/2
f 215/121/2 211/118/2 214/120/2
f 216/122/2 211/118/2 215/121/2
f 216/122/2 210/123/2 211/118/2
f 217/124/2 210/123/2 216/122/2
f 218/125/2 210/123/2 217/124/2
f 219/126/2 210/123/2 218/125/2
f 220/127/2 210/123/2 219/126/2
f 220/127/2 209/128/2 210/123/2
f 221/129/2 209/128/2 220/127/2
f 222/130/2 209/128/2 221/129/2
f 223/131/2 209/128/2 222/130/2
f 224/108/2 209/128/2 223/131/2
f 250/116/2 209/128/2 224/108/2
f 250/116/2 208/132/2 209/128/2
f 251/133/2 208/132/2 250/116/2
f 251/133/2 207/134/2 208/132/2
f 252/135/2 207/134/2 251/133/2
f 253/136/2 207/134/2 252/135/2
f 254/137/2 207/134/2 253/136/2
f 255/138/2 207/134/2 254/137/2
f 256/139/2 207/134/2 255/138/2
f 257/140/2 207/134/2 256/139/2
f 258/141/2 207/134/2 257/140/2
f 259/142/2 207/134/2 258/141/2
f 259/142/2 206/143/2 207/134/2
f 260/144/2 206/143/2 259/142/2
f 261/145/2 206/143/2 260/144/2
f 262/146/2 206/143/2 261/145/2
f 65/147/2 273/148/2 64/149/2
f 263/150/2 206/143/2 262/146/2
f 264/151/2 206/143/2 263/150/2
f 65/147/2 272/152/2 273/148/2
f 265/153/2 206/143/2 264/151/2
f 266/154/2 206/143/2 265/153/2
f 65/147/2 271/155/2 272/152/2
f 267/156/2 206/143/2 266/154/2
f 65/147/2 270/157/2 271/155/2
f 268/158/2 206/143/2 267/156/2
f 65/147/2 269/159/2 270/157/2
f 269/159/2 206/143/2 268/158/2
f 65/147/2 66/160/2 269/159/2
f 66/160/2 67/161/2 269/159/2
f 67/161/2 206/143/2 269/159/2
f 67/161/2 68/162/2 206/143/2
f 68/162/2 69/163/2 206/143/2
f 69/163/2 70/164/2 206/143/2
f 70/164/2 71/165/2 206/143/2
f 71/165/2 72/166/2 206/143/2
f 72/166/2 73/167/2 206/143/2
f 73/167/2 77/168/2 206/143/2
f 77/168/2 78/169/2 206/143/2
f 78/169/2 205/170/2 206/143/2
f 78/169/2 103/171/2 205/170/2
f 103/171/2 104/172/2 205/170/2
f 104/172/2 105/173/2 205/170/2
f 105/173/2 106/174/2 205/170/2
f 106/174/2 107/175/2 205/170/2
f 107/175/2 108/176/2 205/170/2
f 108/176/2 109/177/2 205/170/2
f 109/177/2 110/178/2 205/170/2
f 110/178/2 111/179/2 205/170/2
f 111/179/2 112/180/2 205/170/2
f 112/180/2 113/181/2 205/170/2
f 113/181/2 204/182/2 205/170/2
f 113/181/2 114/183/2 204/182/2
f 114/183/2 115/184/2 204/182/2
f 115/184/2 116/185/2 204/182/2
f 116/185/2 117/186/2 204/182/2
f 117/186/2 203/187/2 204/182/2
f 118/188/2 203/187/2 117/186/2
f 119/189/2 203/187/2 118/188/2
f 78/169/2 102/190/2 103/171/2
f 120/191/2 203/187/2 119/189/2
f 121/192/2 203/187/2 120/191/2
f 79/193/2 102/190/2 78/169/2
f 121/192/2 202/194/2 203/187/2
f 122/195/2 202/194/2 121/192/2
f 123/196/2 202/194/2 122/195/2
f 73/167/2 76/197/2 77/168/2
f 73/167/2 74/198/2 76/197/2
f 74/198/2 75/199/2 76/197/2
f 123/196/2 201/200/2 202/194/2
f 124/201/2 201/200/2 123/196/2
f 79/193/2 101/202/2 102/190/2
f 80/203/2 101/202/2 79/193/2
f 125/204/2 201/200/2 124/201/2
f 125/204/2 200/205/2 201/200/2
f 126/206/2 200/205/2 125/204/2
f 80/203/2 100/207/2 101/202/2
f 127/208/2 200/205/2 126/206/2
f 81/209/2 100/207/2 80/203/2
f 127/208/2 199/210/2 200/205/2
f 128/211/2 199/210/2 127/208/2
f 81/209/2 99/212/2 100/207/2
f 128/211/2 198/213/2 199/210/2
f 82/214/2 99/212/2 81/209/2
f 129/215/2 198/213/2 128/211/2
f 129/215/2 197/216/2 198/213/2
f 130/217/2 197/216/2 129/215/2
f 82/214/2 98/218/2 99/212/2
f 83/219/2 98/218/2 82/214/2
f 131/220/2 197/216/2 130/217/2
f 131/220/2 196/221/2 197/216/2
f 84/222/2 98/218/2 83/219/2
f 84/222/2 97/223/2 98/218/2
f 132/224/2 196/221/2 131/220/2
f 132/224/2 195/225/2 196/221/2
f 133/226/2 195/225/2 132/224/2
f 133/226/2 194/227/2 195/225/2
f 85/228/2 97/223/2 84/222/2
f 85/228/2 96/229/2 97/223/2
f 134/230/2 194/227/2 133/226/2
f 134/230/2 193/231/2 194/227/2
f 135/232/2 193/231/2 134/230/2
f 86/233/2 96/229/2 85/228/2
f 86/233/2 95/234/2 96/229/2
f 135/232/2 192/235/2 193/231/2
f 136/236/2 192/235/2 135/232/2
f 87/237/2 95/234/2 86/233/2
f 137/238/2 192/235/2 136/236/2
f 137/238/2 191/239/2 192/235/2
f 87/237/2 94/240/2 95/234/2
f 138/241/2 191/239/2 137/238/2
f 138/241/2 190/242/2 191/239/2
f 139/243/2 190/242/2 138/241/2
f 88/244/2 94/240/2 87/237/2
f 88/244/2 93/245/2 94/240/2
f 139/243/2 189/246/2 190/242/2
f 140/247/2 189/246/2 139/243/2
f 141/248/2 189/246/2 140/247/2
f 142/249/2 189/246/2 141/248/2
f 142/249/2 188/250/2 189/246/2
f 89/251/2 93/245/2 88/244/2
f 143/252/2 188/250/2 142/249/2
f 164/253/2 162/254/2 163/255/2
f 144/256/2 188/250/2 143/252/2
f 164/253/2 161/257/2 162/254/2
f 164/253/2 160/258/2 161/257/2
f 145/259/2 188/250/2 144/256/2
f 164/253/2 159/260/2 160/258/2
f 146/261/2 188/250/2 145/259/2
f 164/253/2 158/262/2 159/260/2
f 89/251/2 92/263/2 93/245/2
f 164/253/2 157/264/2 158/262/2
f 147/265/2 188/250/2 146/261/2
f 147/265/2 187/266/2 188/250/2
f 164/253/2 156/267/2 157/264/2
f 148/268/2 187/266/2 147/265/2
f 164/253/2 155/269/2 156/267/2
f 164/253/2 154/270/2 155/269/2
f 149/271/2 187/266/2 148/268/2
f 164/253/2 153/272/2 154/270/2
f 150/273/2 187/266/2 149/271/2
f 164/253/2 152/274/2 153/272/2
f 151/275/2 187/266/2 150/273/2
f 164/253/2 151/275/2 152/274/2
f 164/253/2 187/266/2 151/275/2
f 164/253/2 186/276/2 187/266/2
f 90/277/2 92/263/2 89/251/2
f 164/253/2 185/278/2 186/276/2
f 164/253/2 184/279/2 185/278/2
f 90/277/2 91/280/2 92/263/2
f 164/253/2 183/281/2 184/279/2
f 164/253/2 182/282/2 183/281/2
f 164/253/2 181/283/2 182/282/2
f 165/284/2 181/283/2 164/253/2
f 166/285/2 181/283/2 165/284/2
f 166/285/2 180/286/2 181/283/2
f 167/287/2 180/286/2 166/285/2
f 168/288/2 180/286/2 167/287/2
f 169/289/2 180/286/2 168/288/2
f 169/289/2 179/290/2 180/286/2
f 170/291/2 179/290/2 169/289/2
f 171/292/2 179/290/2 170/291/2
f 171/292/2 178/293/2 179/290/2
f 172/294/2 178/293/2 171/292/2
f 173/295/2 178/293/2 172/294/2
f 173/295/2 177/296/2 178/293/2
f 174/297/2 177/296/2 173/295/2
f 175/298/2 177/296/2 174/297/2
f 175/298/2 176/299/2 177/296/2
f 401/300/2 399/301/2 400/302/2
f 375/303/2 423/65/2 374/304/2
f 402/305/2 399/301/2 401/300/2
f 375/303/2 422/306/2 423/65/2
f 403/307/2 399/301/2 402/305/2
f 375/303/2 421/308/2 422/306/2
f 404/309/2 399/301/2 403/307/2
f 405/310/2 399/301/2 404/309/2
f 375/303/2 420/311/2 421/308/2
f 406/312/2 399/301/2 405/310/2
f 375/303/2 419/313/2 420/311/2
f 407/314/2 399/301/2 406/312/2
f 375/303/2 418/315/2 419/313/2
f 408/316/2 399/301/2 407/314/2
f 375/303/2 417/317/2 418/315/2
f 375/303/2 416/318/2 417/317/2
f 409/319/2 399/301/2 408/316/2
f 375/303/2 415/320/2 416/318/2
f 410/321/2 399/301/2 409/319/2
f 375/303/2 414/322/2 415/320/2
f 411/323/2 399/301/2 410/321/2
f 375/303/2 413/324/2 414/322/2
f 412/325/2 399/301/2 411/323/2
f 375/303/2 412/325/2 413/324/2
f 375/303/2 399/301/2 412/325/2
f 375/303/2 398/326/2 399/301/2
f 376/327/2 398/326/2 375/303/2
f 376/327/2 397/328/2 398/326/2
f 377/329/2 397/328/2 376/327/2
f 377/329/2 396/330/2 397/328/2
f 378/331/2 396/330/2 377/329/2
f 378/331/2 395/332/2 396/330/2
f 379/333/2 395/332/2 378/331/2
f 379/333/2 394/334/2 395/332/2
f 380/335/2 394/334/2 379/333/2
f 380/335/2 393/336/2 394/334/2
f 381/337/2 393/336/2 380/335/2
f 381/337/2 392/338/2 393/336/2
f 382/339/2 392/338/2 381/337/2
f 382/339/2 391/340/2 392/338/2
f 383/341/2 391/340/2 382/339/2
f 383/341/2 390/342/2 391/340/2
f 384/343/2 390/342/2 383/341/2
f 384/343/2 389/344/2 390/342/2
f 385/345/2 389/344/2 384/343/2
f 385/345/2 388/346/2 389/344/2
f 386/347/2 388/346/2 385/345/2
f 386/347/2 387/348/2 388/346/2
f 302/349/2 300/149/2 301/350/2
f 302/349/2 373/351/2 300/149/2
f 303/352/2 373/351/2 302/349/2
f 303/352/2 372/353/2 373/351/2
f 304/354/2 372/353/2 303/352/2
f 304/354/2 371/355/2 372/353/2
f 305/356/2 371/355/2 304/354/2
f 305/356/2 370/357/2 371/355/2
f 306/358/2 370/357/2 305/356/2
f 306/358/2 369/359/2 370/357/2
f 307/360/2 369/359/2 306/358/2
f 307/360/2 368/361/2 369/359/2
f 308/362/2 368/361/2 307/360/2
f 308/362/2 367/363/2 368/361/2
f 308/362/2 366/364/2 367/363/2
f 309/365/2 366/364/2 308/362/2
f 309/365/2 365/366/2 366/364/2
f 310/367/2 365/366/2 309/365/2
f 310/367/2 364/368/2 365/366/2
f 311/369/2 364/368/2 310/367/2
f 311/369/2 363/370/2 364/368/2
f 311/369/2 362/371/2 363/370/2
f 312/372/2 362/371/2 311/369/2
f 312/372/2 361/373/2 362/371/2
f 313/374/2 361/373/2 312/372/2
f 314/375/2 361/373/2 313/374/2
f 314/375/2 360/376/2 361/373/2
f 314/375/2 359/377/2 360/376/2
f 315/378/2 359/377/2 314/375/2
f 315/378/2 358/379/2 359/377/2
f 315/378/2 357/380/2 358/379/2
f 316/381/2 357/380/2 315/378/2
f 316/381/2 356/382/2 357/380/2
f 339/383/2 337/384/2 338/385/2
f 316/381/2 355/386/2 356/382/2
f 340/387/2 337/384/2 339/383/2
f 317/388/2 355/386/2 316/381/2
f 341/389/2 337/384/2 340/387/2
f 317/388/2 354/390/2 355/386/2
f 342/391/2 337/384/2 341/389/2
f 343/392/2 337/384/2 342/391/2
f 317/388/2 353/393/2 354/390/2
f 344/394/2 337/384/2 343/392/2
f 345/395/2 337/384/2 344/394/2
f 317/388/2 352/396/2 353/393/2
f 346/397/2 337/384/2 345/395/2
f 318/398/2 352/396/2 317/388/2
f 347/399/2 337/384/2 346/397/2
f 318/398/2 351/400/2 352/396/2
f 348/401/2 337/384/2 347/399/2
f 349/402/2 337/384/2 348/401/2
f 318/398/2 350/403/2 351/400/2
f 350/403/2 337/384/2 349/402/2
f 318/398/2 337/384/2 350/403/2
f 319/404/2 337/384/2 318/398/2
f 320/405/2 337/384/2 319/404/2
f 320/405/2 336/406/2 337/384/2
f 321/407/2 336/406/2 320/405/2
f 321/407/2 335/408/2 336/406/2
f 321/407/2 334/409/2 335/408/2
f 322/410/2 334/409/2 321/407/2
f 322/410/2 333/411/2 334/409/2
f 322/410/2 332/412/2 333/411/2
f 322/410/2 331/413/2 332/412/2
f 323/414/2 331/413/2 322/410/2
f 323/414/2 330/415/2 331/413/2
f 323/414/2 329/416/2 330/415/2
f 324/417/2 329/416/2 323/414/2
f 324/417/2 328/418/2 329/416/2
f 324/417/2 327/419/2 328/418/2
f 325/420/2 327/419/2 324/417/2
f 325/420/2 326/421/2 327/419/2
f 452/418/2 450/421/2 451/419/2
f 452/418/2 547/65/2 450/421/2
f 453/416/2 547/65/2 452/418/2
f 453/416/2 546/306/2 547/65/2
f 454/415/2 546/306/2 453/416/2
f 454/415/2 545/308/2 546/306/2
f 455/413/2 545/308/2 454/415/2
f 455/413/2 544/311/2 545/308/2
f 456/412/2 544/311/2 455/413/2
f 456/412/2 543/313/2 544/311/2
f 457/411/2 543/313/2 456/412/2
f 457/411/2 542/315/2 543/313/2
f 458/409/2 542/315/2 457/411/2
f 458/409/2 541/317/2 542/315/2
f 459/408/2 541/317/2 458/409/2
f 459/408/2 540/318/2 541/317/2
f 460/406/2 540/318/2 459/408/2
f 460/406/2 539/320/2 540/318/2
f 461/384/2 539/320/2 460/406/2
f 462/385/2 539/320/2 461/384/2
f 462/385/2 538/322/2 539/320/2
f 463/383/2 538/322/2 462/385/2
f 463/383/2 537/324/2 538/322/2
f 464/387/2 537/324/2 463/383/2
f 464/387/2 536/325/2 537/324/2
f 464/387/2 535/323/2 536/325/2
f 465/389/2 535/323/2 464/387/2
f 465/389/2 534/321/2 535/323/2
f 466/391/2 534/321/2 465/389/2
f 466/391/2 533/319/2 534/321/2
f 467/392/2 533/319/2 466/391/2
f 467/392/2 532/316/2 533/319/2
f 468/394/2 532/316/2 467/392/2
f 468/394/2 531/314/2 532/316/2
f 469/395/2 531/314/2 468/394/2
f 469/395/2 530/312/2 531/314/2
f 469/395/2 529/310/2 530/312/2
f 470/397/2 529/310/2 469/395/2
f 470/397/2 528/309/2 529/310/2
f 471/399/2 528/309/2 470/397/2
f 471/399/2 527/307/2 528/309/2
f 472/401/2 527/307/2 471/399/2
f 472/401/2 526/305/2 527/307/2
f 473/402/2 526/305/2 472/401/2
f 473/402/2 525/300/2 526/305/2
f 474/403/2 525/300/2 473/402/2
f 474/403/2 524/302/2 525/300/2
f 475/400/2 524/302/2 474/403/2
f 475/400/2 523/301/2 524/302/2
f 476/396/2 523/301/2 475/400/2
f 476/396/2 522/326/2 523/301/2
f 501/329/2 499/303/2 500/327/2
f 476/396/2 521/328/2 522/326/2
f 477/393/2 521/328/2 476/396/2
f 502/331/2 499/303/2 501/329/2
f 477/393/2 520/330/2 521/328/2
f 503/333/2 499/303/2 502/331/2
f 478/390/2 520/330/2 477/393/2
f 503/333/2 498/304/2 499/303/2
f 478/390/2 519/332/2 520/330/2
f 504/335/2 498/304/2 503/333/2
f 505/337/2 498/304/2 504/335/2
f 478/390/2 518/334/2 519/332/2
f 479/386/2 518/334/2 478/390/2
f 505/337/2 497/351/2 498/304/2
f 506/339/2 497/351/2 505/337/2
f 479/386/2 517/336/2 518/334/2
f 507/341/2 497/351/2 506/339/2
f 507/341/2 496/353/2 497/351/2
f 479/386/2 516/338/2 517/336/2
f 480/382/2 516/338/2 479/386/2
f 508/343/2 496/353/2 507/341/2
f 480/382/2 515/340/2 516/338/2
f 509/345/2 496/353/2 508/343/2
f 509/345/2 495/355/2 496/353/2
f 480/382/2 514/342/2 515/340/2
f 510/347/2 495/355/2 509/345/2
f 481/380/2 514/342/2 480/382/2
f 481/380/2 513/344/2 514/342/2
f 511/348/2 495/355/2 510/347/2
f 481/380/2 512/346/2 513/344/2
f 512/346/2 495/355/2 511/348/2
f 481/380/2 495/355/2 512/346/2
f 481/380/2 494/357/2 495/355/2
f 482/379/2 494/357/2 481/380/2
f 482/379/2 493/359/2 494/357/2
f 483/377/2 493/359/2 482/379/2
f 483/377/2 492/361/2 493/359/2
f 483/377/2 491/363/2 492/361/2
f 484/376/2 491/363/2 483/377/2
f 484/376/2 490/364/2 491/363/2
f 485/373/2 490/364/2 484/376/2
f 485/373/2 489/366/2 490/364/2
f 486/371/2 489/366/2 485/373/2
f 486/371/2 488/368/2 489/366/2
f 487/370/2 488/368/2 486/371/2
f 425/350/2 449/420/2 424/149/2
f 426/349/2 449/420/2 425/350/2
f 426/349/2 448/417/2 449/420/2
f 427/352/2 448/417/2 426/349/2
f 427/352/2 447/414/2 448/417/2
f 428/354/2 447/414/2 427/352/2
f 428/354/2 446/410/2 447/414/2
f 429/356/2 446/410/2 428/354/2
f 429/356/2 445/407/2 446/410/2
f 430/358/2 445/407/2 429/356/2
f 430/358/2 444/405/2 445/407/2
f 431/360/2 444/405/2 430/358/2
f 431/360/2 443/404/2 444/405/2
f 432/362/2 443/404/2 431/360/2
f 432/362/2 442/398/2 443/404/2
f 433/365/2 442/398/2 432/362/2
f 433/365/2 441/388/2 442/398/2
f 434/367/2 441/388/2 433/365/2
f 434/367/2 440/381/2 441/388/2
f 435/369/2 440/381/2 434/367/2
f 435/369/2 439/378/2 440/381/2
f 436/372/2 439/378/2 435/369/2
f 436/372/2 438/375/2 439/378/2
f 437/374/2 438/375/2 436/372/2
f 714/422/2 712/423/2 713/424/2
f 715/425/2 712/423/2 714/422/2
f 716/426/2 712/423/2 715/425/2
f 717/427/2 712/423/2 716/426/2
f 718/428/2 712/423/2 717/427/2
f 719/429/2 712/423/2 718/428/2
f 720/430/2 712/423/2 719/429/2
f 721/431/2 712/423/2 720/430/2
f 722/432/2 712/423/2 721/431/2
f 722/432/2 711/433/2 712/423/2
f 723/434/2 711/433/2 722/432/2
f 723/434/2 710/435/2 711/433/2
f 724/436/2 710/435/2 723/434/2
f 725/437/2 710/435/2 724/436/2
f 725/437/2 709/438/2 710/435/2
f 726/439/2 709/438/2 725/437/2
f 726/439/2 708/440/2 709/438/2
f 727/441/2 708/440/2 726/439/2
f 727/441/2 707/442/2 708/440/2
f 728/443/2 707/442/2 727/441/2
f 728/443/2 706/444/2 707/442/2
f 729/445/2 706/444/2 728/443/2
f 729/445/2 705/446/2 706/444/2
f 729/445/2 704/339/2 705/446/2
f 730/447/2 704/339/2 729/445/2
f 730/447/2 703/448/2 704/339/2
f 731/449/2 703/448/2 730/447/2
f 731/449/2 702/450/2 703/448/2
f 731/449/2 701/451/2 702/450/2
f 732/452/2 701/451/2 731/449/2
f 732/452/2 700/453/2 701/451/2
f 686/454/2 684/455/2 685/456/2
f 732/452/2 574/457/2 700/453/2
f 574/457/2 699/458/2 700/453/2
f 733/459/2 574/457/2 732/452/2
f 734/460/2 574/457/2 733/459/2
f 734/460/2 573/461/2 574/457/2
f 548/149/2 699/458/2 574/457/2
f 734/460/2 572/462/2 573/461/2
f 734/460/2 571/463/2 572/462/2
f 734/460/2 570/464/2 571/463/2
f 735/465/2 570/464/2 734/460/2
f 735/465/2 569/466/2 570/464/2
f 687/467/2 684/455/2 686/454/2
f 735/465/2 568/468/2 569/466/2
f 735/465/2 567/469/2 568/468/2
f 735/465/2 566/470/2 567/469/2
f 735/465/2 565/471/2 566/470/2
f 736/472/2 565/471/2 735/465/2
f 736/472/2 564/473/2 565/471/2
f 736/472/2 563/474/2 564/473/2
f 736/472/2 562/475/2 563/474/2
f 736/472/2 738/476/2 562/475/2
f 738/476/2 561/477/2 562/475/2
f 736/472/2 737/478/2 738/476/2
f 575/479/2 561/477/2 738/476/2
f 687/467/2 683/480/2 684/455/2
f 688/481/2 683/480/2 687/467/2
f 575/479/2 560/482/2 561/477/2
f 688/481/2 682/483/2 683/480/2
f 689/484/2 682/483/2 688/481/2
f 575/479/2 559/485/2 560/482/2
f 576/486/2 559/485/2 575/479/2
f 689/484/2 681/487/2 682/483/2
f 576/486/2 558/488/2 559/485/2
f 577/489/2 558/488/2 576/486/2
f 690/490/2 681/487/2 689/484/2
f 690/490/2 680/491/2 681/487/2
f 578/492/2 558/488/2 577/489/2
f 578/492/2 557/493/2 558/488/2
f 691/494/2 680/491/2 690/490/2
f 579/495/2 557/493/2 578/492/2
f 691/494/2 679/496/2 680/491/2
f 579/495/2 556/497/2 557/493/2
f 692/498/2 679/496/2 691/494/2
f 580/499/2 556/497/2 579/495/2
f 580/499/2 555/500/2 556/497/2
f 692/498/2 678/501/2 679/496/2
f 693/502/2 678/501/2 692/498/2
f 581/503/2 555/500/2 580/499/2
f 581/503/2 554/504/2 555/500/2
f 693/502/2 677/505/2 678/501/2
f 582/506/2 554/504/2 581/503/2
f 694/507/2 677/505/2 693/502/2
f 582/506/2 553/508/2 554/504/2
f 694/507/2 676/509/2 677/505/2
f 583/510/2 553/508/2 582/506/2
f 583/510/2 552/511/2 553/508/2
f 695/512/2 676/509/2 694/507/2
f 695/512/2 675/513/2 676/509/2
f 584/514/2 552/511/2 583/510/2
f 584/514/2 551/515/2 552/511/2
f 696/516/2 675/513/2 695/512/2
f 696/516/2 674/517/2 675/513/2
f 585/518/2 551/515/2 584/514/2
f 585/518/2 550/519/2 551/515/2
f 697/520/2 674/517/2 696/516/2
f 697/520/2 673/521/2 674/517/2
f 586/522/2 550/519/2 585/518/2
f 586/522/2 549/523/2 550/519/2
f 698/524/2 673/521/2 697/520/2
f 698/524/2 672/525/2 673/521/2
f 587/526/2 549/523/2 586/522/2
f 589/527/2 587/526/2 588/528/2
f 589/527/2 549/523/2 587/526/2
f 589/527/2 548/149/2 549/523/2
f 589/527/2 699/458/2 548/149/2
f 589/527/2 698/524/2 699/458/2
f 589/527/2 672/525/2 698/524/2
f 589/527/2 671/529/2 672/525/2
f 589/527/2 670/530/2 671/529/2
f 590/531/3 670/530/3 589/527/3
f 591/532/2 669/533/2 590/531/2
f 669/533/2 670/530/2 590/531/2
f 591/532/2 739/534/2 669/533/2
f 739/534/2 742/535/2 669/533/2
f 742/535/2 668/536/2 669/533/2
f 739/534/2 741/537/2 742/535/2
f 743/538/2 668/536/2 742/535/2
f 591/532/2 766/539/2 739/534/2
f 740/540/2 741/537/2 739/534/2
f 743/538/2 667/541/2 668/536/2
f 592/542/2 766/539/2 591/532/2
f 744/543/2 667/541/2 743/538/2
f 592/542/2 765/544/2 766/539/2
f 744/543/2 666/545/2 667/541/2
f 593/546/2 765/544/2 592/542/2
f 745/547/2 666/545/2 744/543/2
f 593/546/2 764/548/2 765/544/2
f 745/547/2 665/549/2 666/545/2
f 594/550/2 764/548/2 593/546/2
f 746/551/2 665/549/2 745/547/2
f 594/550/2 763/552/2 764/548/2
f 746/551/2 664/553/2 665/549/2
f 747/554/2 664/553/2 746/551/2
f 594/550/2 762/555/2 763/552/2
f 595/556/2 762/555/2 594/550/2
f 747/554/2 663/557/2 664/553/2
f 748/558/2 663/557/2 747/554/2
f 595/556/2 761/559/2 762/555/2
f 596/560/2 761/559/2 595/556/2
f 748/558/2 662/561/2 663/557/2
f 749/562/2 662/561/2 748/558/2
f 596/560/2 760/563/2 761/559/2
f 597/564/2 760/563/2 596/560/2
f 749/562/2 661/565/2 662/561/2
f 750/566/2 661/565/2 749/562/2
f 597/564/2 759/567/2 760/563/2
f 598/568/2 759/567/2 597/564/2
f 750/566/2 660/569/2 661/565/2
f 598/568/2 758/570/2 759/567/2
f 751/571/2 660/569/2 750/566/2
f 599/572/2 758/570/2 598/568/2
f 751/571/2 659/573/2 660/569/2
f 599/572/2 757/574/2 758/570/2
f 752/575/2 659/573/2 751/571/2
f 600/576/2 757/574/2 599/572/2
f 752/575/2 658/577/2 659/573/2
f 600/576/2 756/578/2 757/574/2
f 753/579/2 658/577/2 752/575/2
f 601/580/2 756/578/2 600/576/2
f 753/579/2 657/581/2 658/577/2
f 601/580/2 755/582/2 756/578/2
f 754/583/2 657/581/2 753/579/2
f 754/583/2 656/584/2 657/581/2
f 602/585/2 755/582/2 601/580/2
f 754/583/2 655/586/2 656/584/2
f 602/585/2 754/583/2 755/582/2
f 602/585/2 655/586/2 754/583/2
f 602/585/2 654/587/2 655/586/2
f 603/588/2 654/587/2 602/585/2
f 603/588/2 653/589/2 654/587/2
f 604/590/2 653/589/2 603/588/2
f 604/590/2 652/591/2 653/589/2
f 605/592/2 626/389/2 604/590/2
f 626/389/2 652/591/2 604/590/2
f 605/592/2 625/593/2 626/389/2
f 627/594/2 772/595/2 626/389/2
f 772/595/2 633/596/2 626/389/2
f 633/596/2 652/591/2 626/389/2
f 633/596/2 651/597/2 652/591/2
f 606/598/2 625/593/2 605/592/2
f 772/595/2 781/599/2 633/596/2
f 781/599/2 782/65/2 633/596/2
f 782/65/2 632/600/2 633/596/2
f 634/601/2 651/597/2 633/596/2
f 606/598/2 624/602/2 625/593/2
f 607/603/2 624/602/2 606/598/2
f 634/601/2 650/604/2 651/597/2
f 635/605/2 650/604/2 634/601/2
f 607/603/2 623/606/2 624/602/2
f 636/607/2 650/604/2 635/605/2
f 608/608/2 623/606/2 607/603/2
f 636/607/2 649/609/2 650/604/2
f 608/608/2 622/610/2 623/606/2
f 637/611/2 649/609/2 636/607/2
f 609/612/2 622/610/2 608/608/2
f 638/613/2 649/609/2 637/611/2
f 609/612/2 621/614/2 622/610/2
f 638/613/2 648/615/2 649/609/2
f 639/616/2 648/615/2 638/613/2
f 609/612/2 620/617/2 621/614/2
f 610/618/2 620/617/2 609/612/2
f 640/619/2 648/615/2 639/616/2
f 640/619/2 647/620/2 648/615/2
f 610/618/2 619/621/2 620/617/2
f 641/622/2 647/620/2 640/619/2
f 611/623/2 619/621/2 610/618/2
f 642/624/2 647/620/2 641/622/2
f 642/624/2 646/625/2 647/620/2
f 611/623/2 618/626/2 619/621/2
f 643/627/2 646/625/2 642/624/2
f 612/628/2 618/626/2 611/623/2
f 612/628/2 617/629/2 618/626/2
f 644/630/2 646/625/2 643/627/2
f 644/630/2 645/631/2 646/625/2
f 612/628/2 616/632/2 617/629/2
f 613/633/2 616/632/2 612/628/2
f 613/633/2 615/634/2 616/632/2
f 614/635/2 615/634/2 613/633/2
f 627/594/2 771/636/2 772/595/2
f 773/637/3 781/599/3 772/595/3
f 774/638/2 781/599/2 773/637/2
f 774/638/2 780/639/2 781/599/2
f 779/640/2 632/600/2 782/65/2
f 627/594/2 767/641/2 771/636/2
f 767/641/2 774/638/2 771/636/2
f 767/641/2 780/639/2 774/638/2
f 767/641/2 779/640/2 780/639/2
f 767/641/2 778/642/2 779/640/2
f 778/642/2 775/643/2 779/640/2
f 775/643/2 632/600/2 779/640/2
f 627/594/2 770/644/2 767/641/2
f 768/645/2 778/642/2 767/641/2
f 769/646/2 778/642/2 768/645/2
f 769/646/2 777/647/2 778/642/2
f 776/648/2 632/600/2 775/643/2
f 627/594/2 629/649/2 770/644/2
f 629/649/2 769/646/2 770/644/2
f 629/649/2 777/647/2 769/646/2
f 629/649/2 776/648/2 777/647/2
f 629/649/2 630/650/2 776/648/2
f 630/650/2 632/600/2 776/648/2
f 627/594/2 628/651/2 629/649/2
f 631/652/2 632/600/2 630/650/2
f 784/653/2 876/65/2 783/149/2
f 784/653/2 875/654/2 876/65/2
f 786/655/2 784/653/2 785/656/2
f 786/655/2 875/654/2 784/653/2
f 786/655/2 874/657/2 875/654/2
f 786/655/2 873/658/2 874/657/2
f 787/659/2 873/658/2 786/655/2
f 788/660/2 823/661/2 787/659/2
f 823/661/2 873/658/2 787/659/2
f 788/660/2 822/662/2 823/661/2
f 824/663/3 873/658/3 823/661/3
f 825/664/2 835/665/2 824/663/2
f 835/665/2 873/658/2 824/663/2
f 825/664/2 834/666/2 835/665/2
f 836/667/2 873/658/2 835/665/2
f 837/668/2 872/669/2 836/667/2
f 872/669/2 873/658/2 836/667/2
f 837/668/2 871/670/2 872/669/2
f 837/668/2 870/671/2 871/670/2
f 789/672/2 822/662/2 788/660/2
f 789/672/2 821/673/2 822/662/2
f 838/674/2 870/671/2 837/668/2
f 838/674/2 869/675/2 870/671/2
f 790/676/2 821/673/2 789/672/2
f 790/676/2 820/677/2 821/673/2
f 839/678/2 869/675/2 838/674/2
f 839/678/2 868/679/2 869/675/2
f 791/680/2 820/677/2 790/676/2
f 791/680/2 819/681/2 820/677/2
f 840/682/2 868/679/2 839/678/2
f 840/682/2 867/683/2 868/679/2
f 792/684/2 819/681/2 791/680/2
f 792/684/2 818/685/2 819/681/2
f 841/686/2 867/683/2 840/682/2
f 841/686/2 866/687/2 867/683/2
f 793/688/2 818/685/2 792/684/2
f 793/688/2 817/689/2 818/685/2
f 842/690/2 866/687/2 841/686/2
f 842/690/2 865/691/2 866/687/2
f 794/692/2 817/689/2 793/688/2
f 842/690/2 864/693/2 865/691/2
f 794/692/2 816/694/2 817/689/2
f 843/695/2 864/693/2 842/690/2
f 795/696/2 816/694/2 794/692/2
f 843/695/2 863/697/2 864/693/2
f 796/698/2 816/694/2 795/696/2
f 796/698/2 815/699/2 816/694/2
f 844/700/2 863/697/2 843/695/2
f 844/700/2 862/701/2 863/697/2
f 797/702/2 815/699/2 796/698/2
f 845/339/2 862/701/2 844/700/2
f 797/702/2 814/389/2 815/699/2
f 845/339/2 861/703/2 862/701/2
f 798/704/2 814/389/2 797/702/2
f 827/705/2 825/664/2 826/706/2
f 827/705/2 834/666/2 825/664/2
f 827/705/2 833/707/2 834/666/2
f 827/705/2 832/708/2 833/707/2
f 846/709/2 861/703/2 845/339/2
f 846/709/2 860/710/2 861/703/2
f 798/704/2 813/711/2 814/389/2
f 799/712/2 813/711/2 798/704/2
f 846/709/2 859/713/2 860/710/2
f 846/709/2 858/714/2 859/713/2
f 800/715/2 813/711/2 799/712/2
f 846/709/2 857/716/2 858/714/2
f 801/717/2 813/711/2 800/715/2
f 847/718/2 857/716/2 846/709/2
f 801/717/2 812/719/2 813/711/2
f 847/718/2 856/720/2 857/716/2
f 802/721/2 812/719/2 801/717/2
f 847/718/2 855/722/2 856/720/2
f 803/723/2 812/719/2 802/721/2
f 804/724/2 812/719/2 803/723/2
f 847/718/2 854/725/2 855/722/2
f 805/726/2 812/719/2 804/724/2
f 847/718/2 853/727/2 854/725/2
f 806/728/2 812/719/2 805/726/2
f 847/718/2 852/729/2 853/727/2
f 828/730/2 832/708/2 827/705/2
f 829/731/2 831/732/2 828/730/2
f 831/732/3 832/708/3 828/730/3
f 829/731/2 830/733/2 831/732/2
f 848/734/2 849/735/2 847/718/2
f 849/735/2 850/736/2 847/718/2
f 850/736/2 851/737/2 847/718/2
f 851/737/2 852/729/2 847/718/2
f 807/738/2 812/719/2 806/728/2
f 807/738/2 808/739/2 812/719/2
f 808/739/2 809/740/2 812/719/2
f 809/740/2 810/741/2 812/719/2
f 810/741/2 811/742/2 812/719/2
