# Blender 4.4.1
# www.blender.org
mtllib MineShalf.mtl
o 立方体
v 1.387977 -1.387977 -0.214776
v 1.387977 1.501109 0.787373
v 1.387977 -1.387977 -1.028504
v 1.138502 1.353524 -0.794590
v 0.862154 -1.387977 -0.338486
v 0.462659 1.571372 0.823797
v 0.862154 -1.387977 -1.028504
v 0.291155 1.396334 -0.700512
v 1.387977 0.533713 0.701832
v 1.387977 0.533713 -1.118167
v 0.862154 0.533713 -1.117226
v 0.862154 0.533713 0.701832
v 0.000000 1.387977 0.743917
v 0.000000 1.316677 -1.028504
v 0.000000 0.533713 1.027252
v 0.000000 0.322705 -1.028504
v 1.789419 0.533713 0.313213
v 1.789419 1.268089 0.786468
v 1.789419 1.145064 -1.028504
v 1.586482 0.552795 -1.028504
v 1.387977 0.321376 -1.028504
v 0.862154 0.321376 -1.028504
v 0.862154 0.321376 0.078796
v 1.387977 0.321376 0.092465
v -1.387977 -1.387977 -0.214776
v -1.387977 1.501109 0.787373
v -1.387977 -1.387977 -1.028504
v -1.138502 1.353524 -0.794590
v -0.862154 -1.387977 -0.338486
v -0.462659 1.571372 0.823797
v -0.862154 -1.387977 -1.028504
v -0.291155 1.396334 -0.700512
v -1.387977 0.533713 0.701832
v -1.387977 0.533713 -1.118167
v -0.862154 0.533713 -1.117226
v -0.862154 0.533713 0.701832
v -1.789419 0.533713 0.313213
v -1.789419 1.268089 0.786468
v -1.789419 1.145064 -1.028504
v -1.586482 0.552795 -1.028504
v -1.387977 0.321376 -1.028504
v -0.862154 0.321376 -1.028504
v -0.862154 0.321376 0.078796
v -1.387977 0.321376 0.092465
vn -0.0017 0.3667 -0.9303
vn -0.0488 -0.0880 0.9949
vn -0.0000 -1.0000 -0.0000
vn 0.0370 0.9923 -0.1181
vn -0.2224 0.9742 -0.0392
vn -1.0000 -0.0000 -0.0000
vn -0.1764 0.3310 -0.9270
vn -0.0000 -0.0881 0.9961
vn -0.0084 -0.9465 0.3226
vn 1.0000 -0.0000 -0.0000
vn -0.0000 -0.3855 -0.9227
vn 0.2377 -0.9713 -0.0000
vn 0.3530 0.0260 0.9353
vn 0.9359 -0.3207 -0.1461
vn 0.4188 -0.1435 -0.8967
vn 0.2831 0.9569 -0.0649
vn -0.0000 -0.0000 -1.0000
vn -0.2228 -0.2312 0.9471
vn 0.0822 0.3889 -0.9176
vn 0.0488 -0.0880 0.9949
vn -0.0370 0.9923 -0.1181
vn 0.2224 0.9742 -0.0392
vn -0.7479 -0.0000 -0.6639
vn -0.0000 -0.9443 0.3290
vn -0.0385 -0.9940 0.1020
vn -0.3530 0.0260 0.9353
vn -0.9359 -0.3207 -0.1461
vn 0.2390 0.2927 -0.9259
vn -0.4955 0.8542 -0.1578
vn 0.0256 -0.1768 0.9839
vn -0.0822 0.3889 -0.9176
vn 0.6312 -0.4202 0.6520
vn 0.0712 0.9920 -0.1038
vn -0.3577 0.9314 -0.0667
vn 0.7479 -0.0000 -0.6639
vn 0.0312 -0.1048 0.9940
vn -0.0016 -0.3890 -0.9212
vn 0.0385 -0.9940 0.1020
vn -0.2773 0.3025 0.9119
vn -0.2390 0.2927 -0.9259
vn 0.1094 -0.9935 -0.0307
vn 0.4955 0.8542 -0.1578
vn -0.0256 -0.1768 0.9839
vn 0.0017 0.3667 -0.9303
vn -0.6312 -0.4202 0.6520
vn -0.0712 0.9920 -0.1038
vn 0.3577 0.9314 -0.0667
vn 0.1764 0.3310 -0.9270
vn -0.0312 -0.1048 0.9940
vn 0.0084 -0.9465 0.3226
vn 0.0016 -0.3890 -0.9212
vn -0.2377 -0.9713 -0.0000
vn 0.2773 0.3025 0.9119
vn -0.4188 -0.1435 -0.8967
vn -0.1094 -0.9935 -0.0307
vn -0.2831 0.9569 -0.0649
vn 0.2228 -0.2312 0.9471
vt 0.548066 0.666667
vt 0.625000 0.750000
vt 0.548066 0.750000
vt 0.548066 0.000000
vt 0.625000 0.000000
vt 0.125000 0.666667
vt 0.375000 0.750000
vt 0.125000 0.750000
vt 0.875000 0.666667
vt 0.625000 0.666667
vt 0.875000 0.625000
vt 0.625000 0.625000
vt 0.528943 0.666667
vt 0.375000 0.083333
vt 0.528943 0.083333
vt 0.548066 0.625000
vt 0.548066 0.083333
vt 0.528943 0.000000
vt 0.528943 1.000000
vt 0.528943 0.750000
vt 0.625000 0.083333
vt 0.548066 0.125000
vt 0.548066 1.000000
vt 0.875000 0.750000
vt 0.375000 0.666667
vt 0.375000 1.000000
vt 0.375000 0.000000
vt 0.625000 0.125000
vt 0.625000 1.000000
s 0
usemtl マテリアル
f 11/1/1 4/2/1 10/3/1
f 9/4/2 18/5/2 2/5/2
f 5/6/3 3/7/3 1/8/3
f 6/9/4 4/2/4 8/10/4
f 13/11/5 8/10/5 14/12/5
f 22/13/6 5/14/6 23/15/6
f 16/16/7 8/10/7 11/1/7
f 2/5/8 12/17/8 9/4/8
f 24/18/9 12/17/9 23/15/9
f 10/3/10 24/19/10 21/20/10
f 11/1/11 21/20/11 22/13/11
f 12/17/12 16/16/12 11/1/12
f 6/21/13 15/22/13 12/17/13
f 19/2/14 17/23/14 20/3/14
f 10/3/15 19/2/15 20/3/15
f 10/3/3 17/23/3 9/23/3
f 4/2/16 18/24/16 19/2/16
f 22/13/17 3/7/17 7/25/17
f 21/20/10 1/26/10 3/7/10
f 1/27/18 23/15/18 5/14/18
f 11/1/6 23/15/6 12/17/6
f 35/1/19 28/2/19 32/10/19
f 38/5/20 33/4/20 26/5/20
f 29/6/3 27/7/3 31/25/3
f 28/2/21 30/9/21 32/10/21
f 32/10/22 13/11/22 14/12/22
f 29/14/10 42/13/10 43/15/10
f 16/16/23 32/10/23 14/12/23
f 36/17/8 26/5/8 33/4/8
f 44/18/24 36/17/24 33/4/24
f 44/19/6 34/3/6 41/20/6
f 41/20/11 35/1/11 42/13/11
f 36/17/25 16/16/25 15/22/25
f 15/22/26 30/21/26 36/17/26
f 37/23/27 39/2/27 40/3/27
f 34/3/28 39/2/28 28/2/28
f 37/23/3 34/3/3 33/23/3
f 28/2/29 38/24/29 26/24/29
f 27/7/17 42/13/17 31/25/17
f 25/26/6 41/20/6 27/7/6
f 25/27/30 43/15/30 44/18/30
f 43/15/10 35/1/10 36/17/10
f 11/1/31 8/10/31 4/2/31
f 9/4/32 17/4/32 18/5/32
f 5/6/3 7/25/3 3/7/3
f 6/9/33 2/24/33 4/2/33
f 13/11/34 6/9/34 8/10/34
f 22/13/6 7/25/6 5/14/6
f 16/16/35 14/12/35 8/10/35
f 2/5/36 6/21/36 12/17/36
f 24/18/24 9/4/24 12/17/24
f 10/3/10 9/23/10 24/19/10
f 11/1/37 10/3/37 21/20/37
f 12/17/38 15/22/38 16/16/38
f 6/21/39 13/28/39 15/22/39
f 19/2/10 18/29/10 17/23/10
f 10/3/40 4/2/40 19/2/40
f 10/3/41 20/3/41 17/23/41
f 4/2/42 2/24/42 18/24/42
f 22/13/17 21/20/17 3/7/17
f 21/20/10 24/19/10 1/26/10
f 1/27/43 24/18/43 23/15/43
f 11/1/6 22/13/6 23/15/6
f 35/1/44 34/3/44 28/2/44
f 38/5/45 37/4/45 33/4/45
f 29/6/3 25/8/3 27/7/3
f 28/2/46 26/24/46 30/9/46
f 32/10/47 30/9/47 13/11/47
f 29/14/10 31/25/10 42/13/10
f 16/16/48 35/1/48 32/10/48
f 36/17/49 30/21/49 26/5/49
f 44/18/50 43/15/50 36/17/50
f 44/19/6 33/23/6 34/3/6
f 41/20/51 34/3/51 35/1/51
f 36/17/52 35/1/52 16/16/52
f 15/22/53 13/28/53 30/21/53
f 37/23/6 38/29/6 39/2/6
f 34/3/54 40/3/54 39/2/54
f 37/23/55 40/3/55 34/3/55
f 28/2/56 39/2/56 38/24/56
f 27/7/17 41/20/17 42/13/17
f 25/26/6 44/19/6 41/20/6
f 25/27/57 29/14/57 43/15/57
f 43/15/10 42/13/10 35/1/10
