# Blender 4.4.1
# www.blender.org
mtllib normalEnemy.mtl
o 立方体.001
v -0.154429 -0.283633 0.006827
v -0.154429 -0.085944 -0.230474
v 0.154429 -0.283633 0.006827
v 0.154429 -0.085944 -0.230474
v -0.176955 -0.143451 -0.196637
v -0.188270 -0.210789 -0.133484
v -0.176955 -0.260740 -0.055846
v -0.176955 -0.033393 0.168390
v -0.171487 -0.036170 -0.179608
v 0.091623 -0.078689 -0.283917
v 0.000000 -0.080140 -0.299853
v -0.091623 -0.078154 -0.271789
v 0.171487 -0.036170 -0.179608
v 0.176955 -0.260740 -0.055846
v 0.188270 -0.210789 -0.133484
v 0.176955 -0.143451 -0.196637
v 0.176955 -0.033393 0.168390
v -0.091623 -0.315358 0.009716
v 0.000000 -0.331294 0.011168
v 0.091623 -0.315358 0.009716
v -0.225154 -0.029963 0.088929
v -0.241474 -0.023581 -0.008651
v -0.218197 -0.051565 -0.103988
v -0.094631 -0.036432 -0.226681
v 0.000000 -0.039703 -0.242988
v 0.094630 -0.036432 -0.226681
v 0.218197 -0.051565 -0.103988
v 0.241474 -0.023581 -0.008651
v 0.225154 -0.029963 0.088929
v 0.097648 -0.045096 0.215534
v 0.000000 -0.052241 0.231116
v -0.097648 -0.045096 0.215534
v -0.091251 -0.091777 -0.426690
v 0.000000 -0.089901 -0.443729
v 0.091251 -0.091777 -0.426690
v -0.102893 -0.190716 -0.423152
v -0.000270 -0.033908 -0.541637
v 0.102893 -0.190716 -0.423152
v -0.097648 -0.283127 -0.387635
v 0.000000 -0.291530 -0.402576
v 0.097648 -0.283127 -0.387635
v -0.165692 -0.174485 0.117320
v -0.165692 -0.047795 -0.188890
v 0.165692 -0.045475 -0.183823
v 0.165692 -0.174485 0.117320
v -0.206747 -0.088151 -0.128689
v -0.220564 -0.131982 -0.044408
v -0.201055 -0.160511 0.046204
v 0.094635 -0.047466 -0.227024
v 0.000000 -0.049835 -0.242957
v -0.094635 -0.047466 -0.227024
v 0.201055 -0.160511 0.046204
v 0.219393 -0.131982 -0.044408
v 0.205576 -0.088151 -0.128688
v -0.094635 -0.201196 0.144539
v 0.000000 -0.214129 0.154142
v 0.094635 -0.201196 0.144539
v 0.165692 -0.272187 -0.024509
v 0.094635 -0.326543 -0.197157
v 0.000000 -0.341573 -0.202951
v -0.094635 -0.326543 -0.197157
v -0.123026 -0.087388 -0.246337
v -0.123026 -0.299496 0.008272
v -0.137301 -0.292915 -0.223417
v -0.145581 -0.226832 -0.292553
v -0.131823 -0.143741 -0.339909
v -0.130164 -0.317448 -0.166059
v -0.165692 -0.114697 -0.213556
v 0.165692 -0.114697 -0.213556
v -0.094635 -0.110113 -0.366169
v 0.000000 -0.091818 -0.382156
v 0.094635 -0.089840 -0.366169
v -0.130164 -0.104856 -0.347840
v 0.123026 -0.076710 -0.255926
v 0.123026 -0.299496 0.008272
v 0.131823 -0.143741 -0.339909
v 0.145582 -0.226832 -0.292553
v 0.137301 -0.292915 -0.223417
v 0.130164 -0.310034 -0.187615
v 0.130164 -0.104856 -0.347840
v 0.182612 -0.177120 -0.165060
v -0.100270 -0.141246 -0.424921
v -0.000162 -0.071051 -0.498009
v 0.100271 -0.141246 -0.424921
v -0.141442 -0.185286 -0.316231
v 0.141442 -0.185286 -0.316231
v 0.182612 -0.235765 -0.094665
v -0.100270 -0.236922 -0.405394
v 0.000230 -0.129065 -0.526180
v 0.100271 -0.236922 -0.405394
v -0.141442 -0.259873 -0.257985
v 0.141442 -0.259873 -0.257985
v 0.045811 -0.079414 -0.291885
v 0.048824 -0.090839 -0.435210
v 0.051480 -0.079394 -0.512048
v 0.048824 -0.287329 -0.395105
v 0.047318 -0.334058 -0.200054
v 0.047318 -0.090829 -0.374162
v 0.049979 -0.074462 -0.490115
v 0.050362 -0.129954 -0.517569
v -0.045811 -0.079414 -0.291885
v -0.048824 -0.090839 -0.435210
v -0.051412 -0.079775 -0.512140
v -0.048824 -0.287329 -0.395105
v -0.047318 -0.334058 -0.200054
v -0.047318 -0.090829 -0.374162
v -0.050290 -0.074834 -0.490205
v -0.049908 -0.130326 -0.517658
v -0.154429 0.259332 0.160659
v -0.154429 0.259332 -0.148200
v 0.154429 0.259332 0.160659
v 0.154429 0.259332 -0.148200
v -0.184690 0.061034 0.188480
v -0.180241 0.151457 0.186470
v -0.176955 0.196525 0.183184
v -0.176955 0.281858 0.097852
v -0.188270 0.293173 0.006229
v -0.176955 0.281858 -0.085393
v -0.176955 0.196525 -0.170726
v -0.180240 0.151457 -0.174011
v -0.184690 0.061034 -0.180899
v -0.091623 0.281858 -0.170726
v 0.000000 0.293173 -0.182041
v 0.091623 0.281858 -0.170726
v 0.176955 0.196525 -0.170726
v 0.180241 0.151457 -0.174011
v 0.184689 0.061034 -0.180898
v 0.176955 0.281858 -0.085393
v 0.188270 0.293173 0.006230
v 0.176955 0.281858 0.097852
v 0.176955 0.196525 0.183185
v 0.180240 0.151457 0.186470
v 0.184689 0.061034 0.188480
v 0.091623 0.281858 0.183185
v 0.000000 0.293173 0.194500
v -0.091623 0.281858 0.183184
v -0.234996 0.055009 0.105706
v -0.231176 0.151457 0.104734
v -0.225155 0.202550 0.103877
v -0.252029 0.049764 0.003791
v -0.248230 0.151457 0.006229
v -0.241474 0.207795 0.006229
v -0.234996 0.055009 -0.098125
v -0.231176 0.151457 -0.092275
v -0.225154 0.202550 -0.091418
v -0.101916 0.055009 -0.231205
v -0.098505 0.151457 -0.224946
v -0.097648 0.202550 -0.218925
v 0.000000 0.049764 -0.248238
v 0.000000 0.151457 -0.242000
v 0.000000 0.207796 -0.235245
v 0.101915 0.055009 -0.231205
v 0.098505 0.151457 -0.224946
v 0.097648 0.202550 -0.218925
v 0.234995 0.055009 -0.098125
v 0.231176 0.151457 -0.092275
v 0.225155 0.202550 -0.091418
v 0.252028 0.049764 0.003791
v 0.248230 0.151457 0.006230
v 0.241474 0.207795 0.006230
v 0.234995 0.055009 0.105706
v 0.231176 0.151457 0.104734
v 0.225154 0.202550 0.103877
v 0.137803 0.014457 0.223263
v 0.133192 0.151457 0.221882
v 0.097648 0.202550 0.231384
v 0.000000 0.009212 0.255819
v 0.000000 0.151457 0.254459
v 0.000000 0.207795 0.247704
v -0.137804 0.014457 0.223263
v -0.133192 0.151457 0.221882
v -0.097648 0.202550 0.231384
v 0.097648 0.330057 -0.091418
v 0.000000 0.346377 -0.096663
v -0.097648 0.330057 -0.091418
v 0.102893 0.346377 0.006230
v 0.000000 0.364191 0.006230
v -0.102893 0.346377 0.006229
v 0.097648 0.330057 0.103877
v 0.000000 0.346377 0.109122
v -0.097648 0.330057 0.103877
vn -0.1065 0.9712 -0.2133
vn 0.8279 0.5566 -0.0685
vn -0.1710 -0.6070 -0.7761
vn 0.4081 -0.5632 -0.7186
vn -0.4710 -0.1570 -0.8680
vn 0.0208 0.9998 -0.0007
vn 0.0220 0.9998 0.0004
vn 0.9665 -0.0111 -0.2565
vn 0.9643 -0.0520 -0.2598
vn 0.9307 -0.3136 -0.1883
vn 0.5728 -0.8171 0.0648
vn -0.1719 -0.9838 0.0514
vn -0.4522 -0.8852 0.1097
vn -0.9006 -0.3630 -0.2391
vn -0.9379 -0.0965 -0.3332
vn -0.4720 -0.8303 -0.2964
vn -0.1663 -0.9592 -0.2285
vn 0.1184 -0.9658 -0.2305
vn 0.8346 -0.5429 -0.0932
vn -0.1664 0.0241 -0.9858
vn -0.1687 0.0035 -0.9857
vn -0.1661 -0.0030 -0.9861
vn -0.9638 -0.1366 -0.2291
vn -0.9639 -0.1363 -0.2289
vn -0.9622 -0.1427 -0.2320
vn -0.9398 -0.3271 0.0993
vn -0.9358 0.1929 -0.2952
vn -0.4386 -0.3219 -0.8390
vn 0.1687 0.0036 -0.9857
vn 0.1664 0.0241 -0.9858
vn 0.1661 -0.0030 -0.9861
vn 0.5204 -0.0312 -0.8533
vn 0.5205 0.0582 -0.8519
vn 0.5188 0.0268 -0.8545
vn 0.7347 0.6625 -0.1458
vn 0.0041 0.9906 -0.1367
vn 0.0069 0.9909 -0.1346
vn 0.0068 0.9904 -0.1381
vn -0.0000 0.9895 -0.1446
vn -0.0074 0.9904 -0.1378
vn -0.0082 0.9905 -0.1373
vn -0.3762 0.9172 -0.1314
vn 0.4328 0.8953 -0.1055
vn 0.5386 -0.8233 -0.1791
vn 0.4987 0.8041 -0.3236
vn 0.4085 -0.9111 0.0552
vn 0.9431 -0.1646 -0.2890
vn 0.9394 0.0376 -0.3406
vn 0.8358 0.5453 -0.0642
vn 0.9274 0.1570 -0.3396
vn -0.9173 -0.3369 -0.2122
vn -0.9375 0.0191 -0.3474
vn 0.9526 0.0495 -0.3002
vn 0.6578 0.7179 0.2280
vn 0.0302 0.9599 0.2786
vn 0.9173 -0.1872 -0.3516
vn -0.9636 -0.2300 0.1362
vn -0.9632 -0.2260 0.1457
vn -0.9631 -0.2257 0.1463
vn -0.8525 -0.4251 -0.3043
vn 0.9173 -0.3369 -0.2122
vn 0.8818 0.0314 -0.4705
vn 0.8820 0.0318 -0.4702
vn 0.8812 0.0302 -0.4718
vn -0.1692 0.1020 -0.9803
vn 0.3916 -0.1455 -0.9086
vn 0.0126 0.9446 0.3280
vn -0.0000 0.9901 -0.1405
vn 0.1198 -0.9630 -0.2414
vn 0.8909 0.0867 -0.4458
vn 0.0138 0.9994 0.0311
vn 0.1250 -0.6009 -0.7895
vn 0.2866 0.7298 0.6206
vn -0.7546 -0.2723 -0.5971
vn -0.1969 0.0008 -0.9804
vn -0.1125 0.9422 -0.3155
vn -0.1661 -0.9620 -0.2166
vn 0.8357 0.0787 -0.5436
vn -0.3271 0.9093 0.2572
vn -0.1713 -0.3619 -0.9163
vn -0.8809 0.0298 -0.4724
vn -0.8805 0.0290 -0.4731
vn -0.8793 0.0264 -0.4756
vn -0.9853 0.0368 0.1667
vn -0.9846 0.0396 0.1701
vn -0.9861 0.0329 0.1631
vn -0.9784 0.1179 0.1695
vn -0.9785 0.1176 0.1697
vn -0.9784 0.1181 0.1694
vn -0.9843 0.0478 -0.1698
vn -0.9850 0.0450 -0.1665
vn -0.9858 0.0407 -0.1627
vn -0.9785 0.1176 -0.1697
vn -0.9784 0.1179 -0.1695
vn -0.9784 0.1182 -0.1694
vn -0.8552 0.0391 0.5169
vn -0.8449 0.1025 0.5250
vn -0.8454 0.1060 0.5235
vn -0.8444 0.0999 0.5262
vn -0.7501 0.4446 0.4896
vn -0.8367 0.5213 0.1678
vn -0.8367 0.5213 -0.1678
vn -0.7501 0.4446 -0.4896
vn -0.8454 0.1060 -0.5234
vn -0.8449 0.1025 -0.5250
vn -0.8444 0.0999 -0.5262
vn -0.8548 0.0651 -0.5148
vn -0.1658 0.0651 -0.9840
vn -0.1691 0.0679 -0.9833
vn -0.1615 0.0604 -0.9850
vn -0.1695 0.1179 -0.9784
vn -0.1697 0.1176 -0.9785
vn -0.1694 0.1181 -0.9784
vn 0.1691 0.0678 -0.9833
vn 0.1658 0.0651 -0.9840
vn 0.1615 0.0604 -0.9850
vn 0.1697 0.1176 -0.9785
vn 0.1695 0.1179 -0.9784
vn 0.1694 0.1181 -0.9784
vn -0.5140 0.0736 -0.8546
vn -0.5250 0.1025 -0.8449
vn -0.5235 0.1060 -0.8454
vn -0.5262 0.0999 -0.8444
vn -0.4896 0.4446 -0.7501
vn -0.1678 0.5213 -0.8367
vn 0.1678 0.5213 -0.8367
vn 0.4896 0.4446 -0.7501
vn 0.5234 0.1060 -0.8454
vn 0.5250 0.1025 -0.8449
vn 0.5262 0.0999 -0.8445
vn 0.5140 0.0736 -0.8546
vn 0.9850 0.0450 -0.1665
vn 0.9843 0.0478 -0.1698
vn 0.9858 0.0407 -0.1627
vn 0.9784 0.1179 -0.1695
vn 0.9785 0.1176 -0.1697
vn 0.9784 0.1181 -0.1694
vn 0.9846 0.0396 0.1701
vn 0.9853 0.0368 0.1667
vn 0.9861 0.0329 0.1631
vn 0.9785 0.1176 0.1697
vn 0.9784 0.1179 0.1695
vn 0.9784 0.1182 0.1694
vn 0.8548 0.0651 -0.5148
vn 0.8449 0.1025 -0.5250
vn 0.8454 0.1060 -0.5235
vn 0.8444 0.0999 -0.5262
vn 0.7501 0.4446 -0.4896
vn 0.8367 0.5213 -0.1678
vn 0.8367 0.5213 0.1678
vn 0.7501 0.4446 0.4896
vn 0.8454 0.1060 0.5234
vn 0.8449 0.1025 0.5250
vn 0.8444 0.0999 0.5262
vn 0.8552 0.0391 0.5169
vn 0.2335 0.0134 0.9723
vn 0.2369 0.0164 0.9714
vn 0.2296 0.0093 0.9732
vn 0.2221 0.0158 0.9749
vn 0.1909 0.0771 0.9786
vn 0.2376 -0.0154 0.9713
vn -0.2369 0.0164 0.9714
vn -0.2335 0.0134 0.9723
vn -0.2296 0.0093 0.9732
vn -0.1909 0.0771 0.9786
vn -0.2221 0.0158 0.9749
vn -0.2376 -0.0154 0.9713
vn 0.5777 0.0277 0.8158
vn 0.5645 0.1489 0.8119
vn 0.5448 0.1751 0.8201
vn 0.5983 0.1015 0.7948
vn 0.4896 0.4446 0.7501
vn 0.1678 0.5213 0.8367
vn -0.1678 0.5213 0.8367
vn -0.4896 0.4446 0.7501
vn -0.5448 0.1751 0.8201
vn -0.5645 0.1489 0.8119
vn -0.5982 0.1016 0.7948
vn -0.5777 0.0277 0.8158
vn 0.1697 0.9708 -0.1697
vn 0.1681 0.9708 -0.1713
vn -0.1697 0.9708 -0.1697
vn -0.1713 0.9708 -0.1681
vn 0.1697 0.9708 0.1697
vn 0.1681 0.9708 0.1713
vn -0.1697 0.9708 0.1697
vn -0.1713 0.9708 0.1681
vn 0.4896 0.7501 -0.4446
vn 0.1678 0.8367 -0.5213
vn -0.1678 0.8367 -0.5213
vn -0.1677 0.8367 -0.5214
vn -0.4446 0.7501 -0.4896
vn -0.5213 0.8367 -0.1678
vn -0.5213 0.8367 0.1678
vn -0.4446 0.7501 0.4896
vn -0.1678 0.8367 0.5213
vn -0.1677 0.8367 0.5214
vn 0.1678 0.8367 0.5213
vn 0.4896 0.7501 0.4446
vn 0.5213 0.8367 0.1678
vn 0.5214 0.8367 0.1677
vn 0.5213 0.8367 -0.1678
vn 0.5214 0.8367 -0.1677
vn 0.9744 -0.1465 0.1704
vn 0.9791 -0.1122 -0.1694
vn 0.8443 -0.1216 -0.5220
vn 0.5229 -0.0273 -0.8520
vn 0.5214 -0.0828 -0.8493
vn 0.5220 -0.0822 -0.8490
vn 0.1713 -0.0578 -0.9835
vn 0.1696 -0.0598 -0.9837
vn 0.1676 -0.0620 -0.9839
vn -0.1696 -0.0598 -0.9837
vn -0.1713 -0.0578 -0.9835
vn -0.1676 -0.0620 -0.9839
vn -0.5214 -0.0828 -0.8493
vn -0.5213 -0.0828 -0.8493
vn -0.5220 -0.0822 -0.8490
vn -0.8443 -0.1216 -0.5220
vn -0.9791 -0.1122 -0.1694
vn -0.9744 -0.1465 0.1704
vn -0.8349 -0.1791 0.5204
vn -0.6113 -0.3257 0.7212
vn -0.6166 -0.3195 0.7195
vn -0.7052 -0.2023 0.6796
vn -0.2167 -0.3012 0.9286
vn -0.1925 -0.3368 0.9217
vn -0.2309 -0.2768 0.9328
vn 0.1926 -0.3367 0.9217
vn 0.2167 -0.3012 0.9286
vn 0.2309 -0.2768 0.9328
vn 0.6166 -0.3195 0.7195
vn 0.6114 -0.3257 0.7212
vn 0.7052 -0.2023 0.6796
vn 0.8349 -0.1791 0.5204
vn -0.9719 -0.1209 -0.2018
vn -0.9623 -0.0559 -0.2662
vn -0.4386 -0.8834 -0.1650
vn 0.1719 -0.9838 0.0514
vn -0.8335 -0.2457 0.4950
vn -0.8409 -0.4254 0.3345
vn -0.5181 -0.3274 0.7902
vn -0.4723 -0.6507 0.5946
vn -0.1729 -0.4105 0.8953
vn 0.1487 -0.4246 0.8931
vn 0.4514 -0.3766 0.8089
vn 0.8335 -0.2457 0.4950
vn 0.9642 -0.2362 0.1208
vn 0.9558 -0.1657 -0.2429
vn 0.9000 -0.3978 0.1782
vn 0.9496 -0.3077 -0.0596
vn 0.9463 -0.1218 -0.2995
vn 0.3851 -0.7085 0.5913
vn 0.3851 -0.7085 0.5914
vn 0.1431 -0.7655 0.6273
vn -0.1431 -0.7655 0.6273
vn -0.4728 0.0276 -0.8807
vn -0.8490 0.0862 -0.5212
vn -0.9166 0.1383 -0.3751
vn -0.3682 0.6333 -0.6807
vn -0.0667 0.8803 -0.4696
vn -0.0676 0.8806 -0.4690
vn -0.0670 0.8805 -0.4692
vn 0.0702 0.8729 -0.4828
vn -0.2947 0.7273 0.6199
vn 0.8810 0.0298 -0.4722
vn -0.1192 -0.6011 -0.7903
vn 0.1713 -0.3619 -0.9163
vn -0.5708 0.7942 0.2087
vn -0.0138 0.9994 0.0311
vn -0.0156 0.9994 -0.0311
vn 0.9358 0.1929 -0.2952
vn 0.9650 -0.0737 -0.2515
vn 0.9011 -0.4124 -0.1340
vn 0.4386 -0.8834 -0.1650
vn -0.1533 -0.9866 0.0556
vn -0.1538 -0.9870 0.0474
vn -0.2015 -0.9779 0.0558
vn -0.9431 -0.1646 -0.2890
vn -0.9394 0.0376 -0.3406
vn -0.5386 -0.8233 -0.1791
vn -0.1198 -0.9630 -0.2414
vn 0.1661 -0.9620 -0.2166
vn 0.7191 -0.6949 0.0046
vn -0.1687 0.0307 -0.9852
vn -0.9426 -0.1300 -0.3075
vn -0.9469 -0.3150 -0.0646
vn -0.9665 -0.0111 -0.2565
vn -0.5883 0.8029 -0.0968
vn 0.1687 0.0307 -0.9852
vn 0.5673 -0.2411 -0.7874
vn 0.0076 0.9909 -0.1341
vn -0.0249 0.9471 -0.3199
vn 0.1853 0.9436 -0.2746
vn 0.4674 -0.8302 -0.3038
vn 0.3619 0.8090 -0.4632
vn 0.3810 0.6509 -0.6566
vn 0.4523 -0.8896 0.0643
vn 0.9006 -0.3630 -0.2391
vn 0.9379 -0.0965 -0.3332
vn 0.3952 -0.1674 -0.9032
vn 0.9375 0.0191 -0.3474
vn -0.9011 -0.4124 -0.1340
vn -0.9274 0.1569 -0.3396
vn 0.9628 -0.0801 -0.2579
vn 0.1969 0.0008 -0.9804
vn -0.0202 0.9444 0.3280
vn 0.8524 -0.4252 -0.3043
vn -0.9637 -0.2304 0.1349
vn -0.9173 -0.1872 -0.3516
vn 0.8823 -0.4438 -0.1569
vn 0.7560 -0.2718 -0.5955
vn -0.3899 -0.1496 -0.9086
vn 0.1702 0.1033 -0.9800
vn -0.0313 0.9580 0.2851
vn 0.1663 -0.9592 -0.2285
vn 0.9224 0.1525 -0.3549
vn 0.8609 0.2008 -0.4674
vn -0.0208 0.9998 -0.0007
vn 0.1710 -0.6061 -0.7768
vn 0.0995 0.9722 -0.2118
vn -0.8789 0.0258 -0.4763
vn -0.6582 0.7180 0.2265
vn -0.3919 0.9122 -0.1194
vn -0.1184 -0.9658 -0.2305
vn 0.7998 -0.2512 -0.5452
vn -0.0220 0.9998 0.0004
vn -0.4084 -0.5634 -0.7182
vn -0.8329 0.5475 -0.0807
vn -0.9845 0.0407 0.1704
vn -0.9785 0.1173 0.1698
vn -0.9841 0.0493 -0.1704
vn -0.9785 0.1173 -0.1698
vn -0.8475 0.0534 0.5281
vn -0.8458 0.1084 0.5223
vn -0.7501 0.4896 0.4446
vn -0.8367 0.5214 0.1677
vn -0.8367 0.5214 -0.1677
vn -0.7501 0.4896 -0.4446
vn -0.8458 0.1085 -0.5223
vn -0.8459 0.0818 -0.5271
vn -0.1702 0.0698 -0.9829
vn -0.1698 0.1173 -0.9785
vn 0.1702 0.0698 -0.9829
vn 0.1698 0.1173 -0.9785
vn -0.5267 0.0903 -0.8452
vn -0.5223 0.1084 -0.8458
vn -0.4446 0.4896 -0.7501
vn -0.1677 0.5214 -0.8367
vn 0.1677 0.5214 -0.8367
vn 0.4446 0.4896 -0.7501
vn 0.5223 0.1084 -0.8458
vn 0.5267 0.0903 -0.8452
vn 0.9841 0.0493 -0.1704
vn 0.9785 0.1173 -0.1698
vn 0.9845 0.0407 0.1705
vn 0.9785 0.1173 0.1698
vn 0.8459 0.0818 -0.5271
vn 0.8458 0.1084 -0.5223
vn 0.7501 0.4896 -0.4446
vn 0.8367 0.5214 -0.1677
vn 0.8367 0.5214 0.1677
vn 0.7501 0.4896 0.4446
vn 0.8458 0.1085 0.5223
vn 0.8475 0.0534 0.5281
vn 0.2375 0.0178 0.9712
vn 0.1698 0.1173 0.9785
vn -0.2375 0.0178 0.9712
vn -0.1698 0.1173 0.9785
vn 0.6007 0.0473 0.7981
vn 0.5195 0.2073 0.8289
vn 0.4446 0.4896 0.7501
vn 0.1677 0.5214 0.8367
vn -0.1677 0.5214 0.8367
vn -0.4446 0.4896 0.7501
vn -0.5195 0.2073 0.8289
vn -0.6007 0.0473 0.7981
vn 0.1713 0.9708 -0.1681
vn -0.1681 0.9708 -0.1713
vn 0.1713 0.9708 0.1681
vn -0.1681 0.9708 0.1713
vn 0.4446 0.7501 -0.4896
vn 0.1677 0.8367 -0.5214
vn -0.4896 0.7501 -0.4446
vn -0.5214 0.8367 -0.1677
vn -0.5214 0.8367 0.1677
vn -0.4896 0.7501 0.4446
vn 0.1677 0.8367 0.5214
vn 0.4446 0.7501 0.4896
vn 0.9743 -0.1660 0.1521
vn 0.9698 -0.1433 -0.1975
vn 0.9717 -0.1315 -0.1960
vn 0.9704 -0.1422 -0.1952
vn 0.8369 -0.1023 -0.5378
vn 0.1715 -0.0577 -0.9835
vn -0.1715 -0.0577 -0.9835
vn -0.5207 -0.0835 -0.8497
vn -0.8478 -0.0303 -0.5295
vn -0.8373 -0.0970 -0.5380
vn -0.8369 -0.1023 -0.5378
vn -0.9704 -0.1422 -0.1952
vn -0.9743 -0.1660 0.1521
vn -0.8420 -0.1967 0.5023
vn -0.5063 -0.4378 0.7430
vn -0.1727 -0.3674 0.9139
vn 0.1727 -0.3674 0.9139
vn 0.5063 -0.4378 0.7430
vn 0.8420 -0.1967 0.5023
vn -0.9619 -0.1440 -0.2326
vn -0.9650 -0.0738 -0.2515
vn -0.9526 0.0495 -0.3002
vn -0.8591 -0.5005 -0.1072
vn -0.6588 -0.7451 0.1037
vn 0.1538 -0.9870 0.0474
vn 0.1533 -0.9866 0.0556
vn -0.8791 -0.2869 0.3807
vn -0.9000 -0.3978 0.1782
vn -0.4514 -0.3766 0.8089
vn -0.3851 -0.7085 0.5913
vn -0.1487 -0.4246 0.8931
vn 0.1729 -0.4105 0.8953
vn 0.5181 -0.3274 0.7902
vn 0.8791 -0.2869 0.3807
vn 0.9631 -0.2257 0.1463
vn 0.9712 -0.1324 -0.1982
vn 0.8409 -0.4254 0.3345
vn 0.9434 -0.3190 0.0905
vn 0.9463 -0.1218 -0.2994
vn 0.9660 -0.1275 -0.2247
vn 0.4723 -0.6507 0.5946
vn 0.1675 -0.7542 0.6349
vn -0.1675 -0.7542 0.6349
vn -0.4803 0.3884 -0.7864
vn -0.8504 -0.0039 -0.5261
vn -0.8872 0.0802 -0.4543
vn -0.8640 0.1742 -0.4724
vn -0.5845 0.6504 -0.4852
vn -0.3406 0.5946 -0.7284
vn -0.2243 0.7967 -0.5612
vn -0.0582 0.8775 -0.4760
vn 0.0670 0.8805 -0.4692
vn 0.0676 0.8806 -0.4690
vn 0.0667 0.8803 -0.4696
vn 0.0582 0.8775 -0.4760
vt 0.305492 0.716084
vt 0.303922 0.717464
vt 0.303345 0.716702
vt 0.315458 0.718922
vt 0.307254 0.717229
vt 0.307710 0.716385
vt 0.303878 0.719474
vt 0.306776 0.735424
vt 0.301425 0.735772
vt 0.317415 0.728681
vt 0.312102 0.735012
vt 0.307573 0.719216
vt 0.288612 0.712918
vt 0.281078 0.721137
vt 0.280968 0.713893
vt 0.304587 0.705328
vt 0.300456 0.714008
vt 0.296619 0.706526
vt 0.312490 0.705192
vt 0.314486 0.713765
vt 0.310271 0.713261
vt 0.368988 0.716564
vt 0.329602 0.718562
vt 0.328146 0.711062
vt 0.372812 0.743744
vt 0.335009 0.734998
vt 0.333521 0.726309
vt 0.371778 0.773514
vt 0.336290 0.753582
vt 0.336492 0.743855
vt 0.367555 0.798534
vt 0.353451 0.811651
vt 0.336630 0.762648
vt 0.299573 0.768107
vt 0.315041 0.816683
vt 0.287359 0.819141
vt 0.280412 0.773393
vt 0.276715 0.819030
vt 0.277177 0.748895
vt 0.296166 0.735884
vt 0.278858 0.758942
vt 0.277832 0.729850
vt 0.295656 0.724883
vt 0.277132 0.739342
vt 0.289144 0.767590
vt 0.309007 0.767256
vt 0.317280 0.734401
vt 0.318299 0.766271
vt 0.369388 0.787856
vt 0.250155 0.670171
vt 0.302134 0.654634
vt 0.302256 0.659998
vt 0.195690 0.742571
vt 0.243999 0.768183
vt 0.198065 0.795635
vt 0.254646 0.798074
vt 0.215741 0.843647
vt 0.238265 0.721575
vt 0.237653 0.734103
vt 0.253552 0.699831
vt 0.239529 0.706225
vt 0.353653 0.667857
vt 0.355801 0.662011
vt 0.394458 0.689813
vt 0.349722 0.694269
vt 0.318813 0.685485
vt 0.320726 0.708711
vt 0.303251 0.685884
vt 0.287489 0.687185
vt 0.269649 0.691656
vt 0.333663 0.691710
vt 0.328087 0.763765
vt 0.364837 0.702523
vt 0.342954 0.813813
vt 0.316458 0.723584
vt 0.296162 0.720130
vt 0.370815 0.728510
vt 0.305234 0.712521
vt 0.115666 0.810663
vt 0.136623 0.897131
vt 0.295293 0.730118
vt 0.372476 0.758949
vt 0.305731 0.719429
vt 0.305588 0.717397
vt 0.409227 0.729089
vt 0.296601 0.715061
vt 0.433920 0.726438
vt 0.058034 0.282080
vt 0.107268 0.339603
vt 0.051696 0.340596
vt 0.137494 0.289442
vt 0.110674 0.286671
vt 0.055511 0.402306
vt 0.138290 0.389610
vt 0.111068 0.393061
vt 0.068299 0.227218
vt 0.143789 0.241003
vt 0.119562 0.235177
vt 0.180939 0.252962
vt 0.185497 0.290946
vt 0.137200 0.339407
vt 0.186467 0.386994
vt 0.182831 0.425015
vt 0.146311 0.437885
vt 0.122293 0.444837
vt 0.071633 0.458524
vt 0.238755 0.606302
vt 0.300457 0.546783
vt 0.301233 0.606306
vt 0.240380 0.514253
vt 0.239885 0.546071
vt 0.363177 0.604761
vt 0.359754 0.513042
vt 0.360874 0.544806
vt 0.140502 0.499391
vt 0.082556 0.515904
vt 0.170199 0.486659
vt 0.242647 0.455530
vt 0.300099 0.513282
vt 0.356333 0.454399
vt 0.429374 0.484107
vt 0.415535 0.422725
vt 0.452299 0.434875
vt 0.459314 0.496253
vt 0.476448 0.441354
vt 0.527365 0.454043
vt 0.517572 0.511624
vt 0.542379 0.397521
vt 0.489403 0.335848
vt 0.544982 0.335750
vt 0.459370 0.386453
vt 0.486654 0.389369
vt 0.537496 0.277372
vt 0.458199 0.286293
vt 0.484958 0.282995
vt 0.411153 0.384783
vt 0.459475 0.336240
vt 0.410237 0.288738
vt 0.414047 0.250674
vt 0.450955 0.237988
vt 0.475061 0.231688
vt 0.526157 0.222724
vt 0.382290 0.044494
vt 0.296286 0.128740
vt 0.295453 0.043932
vt 0.356339 0.161405
vt 0.379768 0.130142
vt 0.208644 0.046199
vt 0.236885 0.162578
vt 0.212847 0.131781
vt 0.465805 0.197489
vt 0.548850 0.183573
vt 0.426741 0.188588
vt 0.354043 0.220122
vt 0.296615 0.162306
vt 0.240334 0.221238
vt 0.167028 0.191136
vt 0.128146 0.200802
vt 0.044841 0.188519
vt 0.358558 0.395692
vt 0.298340 0.337829
vt 0.355881 0.337266
vt 0.239268 0.396868
vt 0.298921 0.396715
vt 0.357418 0.278785
vt 0.238112 0.279957
vt 0.297761 0.278934
vt 0.299502 0.454977
vt 0.215479 0.450104
vt 0.240797 0.338398
vt 0.213230 0.227093
vt 0.297188 0.220658
vt 0.409625 0.336749
vt 0.589406 0.279570
vt 0.589472 0.341099
vt 0.583860 0.471301
vt 0.247420 0.664100
vt 0.015486 0.476889
vt 0.007318 0.346817
vt 0.006176 0.285297
vt 0.009253 0.226919
vt 0.232956 0.007266
vt 0.357218 0.006046
vt 0.585183 0.221266
vt 0.166208 0.743696
vt 0.265608 0.819115
vt 0.240604 0.877005
vt 0.187038 0.959529
vt 0.257859 0.992600
vt 0.279739 0.884226
vt 0.341819 0.996188
vt 0.366113 0.870884
vt 0.323749 0.881443
vt 0.399201 0.853912
vt 0.417739 0.963142
vt 0.491526 0.843930
vt 0.468909 0.910878
vt 0.485668 0.770703
vt 0.412123 0.818211
vt 0.416001 0.774012
vt 0.364427 0.809390
vt 0.210649 0.697404
vt 0.400737 0.687573
vt 0.187051 0.338937
vt 0.383386 0.448449
vt 0.381256 0.225445
vt 0.488349 0.687299
vt 0.572452 0.525723
vt 0.027961 0.531078
vt 0.200793 0.695583
vt 0.094748 0.707105
vt 0.003812 0.168270
vt 0.295059 0.003812
vt 0.589472 0.162523
s 1
usemtl マテリアル
f 83/1/1 103/2/1 107/3/1
f 84/4/2 95/5/2 99/6/2
f 108/7/3 40/8/3 104/9/3
f 90/10/4 96/11/4 100/12/4
f 70/13/5 66/14/5 73/15/5
f 71/16/6 102/17/6 106/18/6
f 98/19/7 35/20/7 94/21/7
f 69/22/8 76/23/8 80/24/8
f 81/25/9 77/26/9 86/27/9
f 87/28/10 78/29/10 92/30/10
f 58/31/11 75/32/11 79/33/11
f 105/34/12 19/35/12 18/36/12
f 67/37/13 18/36/13 63/38/13
f 91/39/14 39/40/14 64/41/14
f 85/42/15 36/43/15 65/44/15
f 64/41/16 61/45/16 67/37/16
f 104/9/17 60/46/17 105/34/17
f 41/47/18 97/48/18 96/11/18
f 14/49/19 79/33/19 78/29/19
f 51/50/20 25/51/21 50/52/22
f 46/53/23 6/54/24 47/55/25
f 47/55/26 7/56/26 48/57/26
f 68/58/27 66/14/27 5/59/27
f 62/60/28 68/58/28 2/61/28
f 25/51/29 49/62/30 50/52/31
f 26/63/32 44/64/33 49/62/34
f 74/65/35 69/22/35 80/24/35
f 93/66/36 72/67/37 98/19/38
f 11/68/39 106/18/40 101/69/41
f 12/70/42 73/15/42 62/60/42
f 10/71/43 80/24/43 72/67/43
f 78/29/44 59/72/44 41/47/44
f 49/62/45 4/73/45 74/65/45
f 79/33/46 20/74/46 59/72/46
f 92/30/47 41/47/47 90/10/47
f 86/27/48 38/75/48 84/4/48
f 72/67/49 76/23/49 35/20/49
f 76/23/50 84/4/50 35/20/50
f 91/39/51 64/41/51 6/54/51
f 66/14/52 82/76/52 85/42/52
f 16/77/53 86/27/53 76/23/53
f 94/21/54 84/4/54 99/6/54
f 34/78/55 107/3/55 102/17/55
f 77/26/56 90/10/56 38/75/56
f 22/79/57 48/57/58 21/80/59
f 65/44/60 88/81/60 91/39/60
f 15/82/61 92/30/61 77/26/61
f 38/75/62 100/12/63 95/5/64
f 103/2/65 89/83/65 108/7/65
f 95/5/66 89/83/66 37/84/66
f 34/78/67 99/6/67 83/1/67
f 11/68/39 98/19/38 71/16/68
f 96/11/69 60/46/69 40/8/69
f 54/85/70 16/77/70 69/22/70
f 71/16/71 94/21/71 34/78/71
f 100/12/72 40/8/72 89/83/72
f 83/1/73 95/5/73 37/84/73
f 36/43/74 108/7/74 88/81/74
f 102/17/75 82/76/75 33/86/75
f 101/69/76 70/13/76 12/70/76
f 39/40/77 105/34/77 61/45/77
f 44/64/78 27/87/78 54/85/78
f 106/18/79 33/86/79 70/13/79
f 88/81/80 104/9/80 39/40/80
f 82/76/81 103/2/82 36/43/83
f 137/88/84 141/89/85 140/90/86
f 139/91/87 141/89/88 138/92/89
f 141/89/90 143/93/91 140/90/92
f 141/89/93 145/94/94 144/95/95
f 113/96/96 138/92/96 137/88/96
f 115/97/97 138/92/98 114/98/99
f 109/99/100 139/91/100 115/97/100
f 116/100/101 142/101/101 139/91/101
f 142/101/102 118/102/102 145/94/102
f 145/94/103 110/103/103 119/104/103
f 144/95/104 119/104/105 120/105/106
f 144/95/107 121/106/107 143/93/107
f 146/107/108 150/108/109 149/109/110
f 148/110/111 150/108/112 147/111/113
f 150/108/114 152/112/115 149/109/116
f 150/108/117 154/113/118 153/114/119
f 121/106/120 147/115/120 146/116/120
f 119/104/121 147/115/122 120/105/123
f 110/103/124 148/117/124 119/104/124
f 122/118/125 151/119/125 148/110/125
f 151/119/126 124/120/126 154/113/126
f 154/121/127 112/122/127 125/123/127
f 153/124/128 125/123/129 126/125/130
f 153/124/131 127/126/131 152/127/131
f 155/128/132 159/129/133 158/130/134
f 157/131/135 159/129/136 156/132/137
f 159/129/138 161/133/139 158/130/140
f 159/129/141 163/134/142 162/135/143
f 127/126/144 156/132/144 155/128/144
f 125/123/145 156/132/146 126/125/147
f 112/122/148 157/131/148 125/123/148
f 128/136/149 160/137/149 157/131/149
f 160/137/150 130/138/150 163/134/150
f 163/134/151 111/139/151 131/140/151
f 162/135/152 131/140/153 132/141/154
f 162/135/155 133/142/155 161/133/155
f 164/143/156 168/144/157 167/145/158
f 166/146/159 168/144/160 165/147/161
f 168/144/162 170/148/163 167/145/164
f 168/144/165 172/149/166 171/150/167
f 133/142/168 165/151/168 164/152/168
f 131/140/169 165/151/170 132/141/171
f 111/139/172 166/153/172 131/140/172
f 134/154/173 169/155/173 166/146/173
f 169/155/174 136/156/174 172/149/174
f 172/157/175 109/99/175 115/97/175
f 171/158/176 115/97/177 114/98/178
f 171/158/179 113/96/179 170/159/179
f 173/160/180 177/161/180 176/162/181
f 175/163/182 177/161/182 174/164/183
f 177/161/184 179/165/184 176/162/185
f 177/161/186 181/166/186 180/167/187
f 112/122/188 173/160/188 128/136/188
f 124/120/189 174/164/189 173/160/189
f 122/118/190 174/164/190 123/168/191
f 110/103/192 175/163/192 122/169/192
f 118/102/193 178/170/193 175/163/193
f 178/170/194 116/100/194 181/166/194
f 181/166/195 109/99/195 136/171/195
f 180/167/196 136/156/196 135/172/197
f 180/167/198 134/154/198 179/165/198
f 179/165/199 111/139/199 130/138/199
f 176/162/200 130/138/200 129/173/201
f 128/136/202 176/162/202 129/173/203
f 29/174/204 158/130/204 161/133/204
f 28/175/205 155/128/205 158/130/205
f 155/128/206 13/176/206 127/126/206
f 13/176/207 152/127/208 127/126/209
f 26/63/210 149/109/211 152/112/212
f 149/109/213 24/177/214 146/107/215
f 146/116/216 9/178/217 121/106/218
f 9/178/219 143/93/219 121/106/219
f 143/93/220 22/179/220 140/90/220
f 140/90/221 21/180/221 137/88/221
f 137/88/222 8/181/222 113/96/222
f 8/181/223 170/159/224 113/96/225
f 32/182/226 167/145/227 170/148/228
f 167/145/229 30/183/230 164/143/231
f 164/152/232 17/184/233 133/142/234
f 17/184/235 161/133/235 133/142/235
f 23/185/236 47/55/236 22/79/236
f 85/42/237 65/44/237 5/59/237
f 63/38/238 1/186/238 7/56/238
f 97/48/239 20/74/239 19/35/239
f 21/80/240 42/187/240 8/188/240
f 48/57/241 1/186/241 42/187/241
f 42/187/242 32/189/242 8/188/242
f 1/186/243 55/190/243 42/187/243
f 55/190/244 31/191/244 32/189/244
f 57/192/245 31/191/245 56/193/245
f 45/194/246 30/195/246 57/192/246
f 45/194/247 29/196/247 17/197/247
f 28/198/248 52/199/248 53/200/248
f 27/87/249 53/200/249 54/85/249
f 52/199/250 3/201/250 58/31/250
f 53/200/251 14/49/251 87/28/251
f 54/85/252 15/82/252 81/25/252
f 57/192/253 20/74/254 75/32/253
f 20/74/255 56/193/255 19/35/255
f 56/193/256 18/36/256 19/35/256
f 43/202/257 24/177/257 51/50/257
f 23/185/258 43/202/258 46/53/258
f 43/202/259 2/61/259 68/58/259
f 2/61/260 43/202/260 51/50/260
f 50/52/261 11/68/262 101/69/263
f 49/62/264 10/71/264 93/66/264
f 83/1/265 37/84/265 103/2/265
f 84/4/266 38/75/62 95/5/64
f 108/7/267 89/83/267 40/8/267
f 90/10/268 41/47/268 96/11/268
f 70/13/269 33/86/269 66/14/269
f 71/16/270 34/78/270 102/17/270
f 98/19/271 72/67/271 35/20/271
f 69/22/272 16/77/272 76/23/272
f 81/25/273 15/82/273 77/26/273
f 87/28/274 14/49/274 78/29/274
f 58/31/275 3/201/275 75/32/275
f 18/36/276 61/45/276 105/34/276
f 105/34/277 60/46/277 19/35/277
f 67/37/278 61/45/278 18/36/278
f 91/39/279 88/81/279 39/40/279
f 85/42/280 82/76/280 36/43/280
f 64/41/281 39/40/281 61/45/281
f 104/9/282 40/8/282 60/46/282
f 41/47/283 59/72/283 97/48/283
f 14/49/284 58/31/284 79/33/284
f 51/50/20 24/177/285 25/51/21
f 46/53/286 5/59/286 6/54/286
f 47/55/287 6/54/287 7/56/287
f 68/58/288 73/15/288 66/14/288
f 62/60/289 73/15/289 68/58/289
f 25/51/29 26/63/290 49/62/30
f 26/63/32 13/203/207 44/64/33
f 74/65/291 4/73/291 69/22/291
f 93/66/36 10/71/292 72/67/37
f 11/68/39 71/16/68 106/18/40
f 12/70/293 70/13/293 73/15/293
f 10/71/294 74/65/294 80/24/294
f 78/29/295 79/33/295 59/72/295
f 74/65/296 10/71/296 49/62/296
f 49/62/297 44/64/297 4/73/297
f 79/33/298 75/32/298 20/74/298
f 92/30/299 78/29/299 41/47/299
f 86/27/300 77/26/300 38/75/300
f 72/67/301 80/24/301 76/23/301
f 76/23/302 86/27/302 84/4/302
f 7/56/303 6/54/303 64/41/303
f 6/54/51 65/44/51 91/39/51
f 66/14/304 33/86/304 82/76/304
f 16/77/305 81/25/305 86/27/305
f 94/21/306 35/20/306 84/4/306
f 34/78/307 83/1/307 107/3/307
f 77/26/308 92/30/308 90/10/308
f 22/79/57 47/55/309 48/57/58
f 65/44/310 36/43/310 88/81/310
f 15/82/311 87/28/311 92/30/311
f 38/75/312 90/10/312 100/12/312
f 103/2/313 37/84/313 89/83/313
f 95/5/314 100/12/314 89/83/314
f 34/78/315 94/21/315 99/6/315
f 11/68/39 93/66/36 98/19/38
f 96/11/316 97/48/316 60/46/316
f 69/22/317 4/73/317 44/64/317
f 44/64/318 54/85/318 69/22/318
f 71/16/319 98/19/319 94/21/319
f 100/12/320 96/11/320 40/8/320
f 83/1/321 99/6/321 95/5/321
f 36/43/83 103/2/82 108/7/322
f 102/17/323 107/3/323 82/76/323
f 101/69/324 106/18/324 70/13/324
f 39/40/325 104/9/325 105/34/325
f 44/64/326 13/203/326 27/87/326
f 106/18/327 102/17/327 33/86/327
f 88/81/328 108/7/328 104/9/328
f 82/76/329 107/3/329 103/2/329
f 137/88/84 138/92/330 141/89/85
f 139/91/87 142/101/331 141/89/88
f 141/89/90 144/95/332 143/93/91
f 141/89/93 142/101/333 145/94/94
f 113/96/334 114/98/334 138/92/334
f 115/97/97 139/91/335 138/92/98
f 109/99/336 116/100/336 139/91/336
f 116/100/101 117/204/337 142/101/101
f 142/101/102 117/204/338 118/102/102
f 145/94/339 118/102/339 110/103/339
f 144/95/104 145/94/340 119/104/105
f 144/95/341 120/105/341 121/106/341
f 146/107/108 147/111/342 150/108/109
f 148/110/111 151/119/343 150/108/112
f 150/108/114 153/114/344 152/112/115
f 150/108/117 151/119/345 154/113/118
f 121/106/346 120/105/346 147/115/346
f 119/104/121 148/117/347 147/115/122
f 110/103/348 122/169/348 148/117/348
f 122/118/125 123/168/349 151/119/125
f 151/119/126 123/168/350 124/120/126
f 154/121/351 124/205/351 112/122/351
f 153/124/128 154/121/352 125/123/129
f 153/124/353 126/125/353 127/126/353
f 155/128/132 156/132/354 159/129/133
f 157/131/135 160/137/355 159/129/136
f 159/129/138 162/135/356 161/133/139
f 159/129/141 160/137/357 163/134/142
f 127/126/358 126/125/358 156/132/358
f 125/123/145 157/131/359 156/132/146
f 112/122/360 128/136/360 157/131/360
f 128/136/149 129/173/361 160/137/149
f 160/137/150 129/173/362 130/138/150
f 163/134/363 130/138/363 111/139/363
f 162/135/152 163/134/364 131/140/153
f 162/135/365 132/141/365 133/142/365
f 164/143/156 165/147/366 168/144/157
f 166/146/159 169/155/367 168/144/160
f 168/144/162 171/150/368 170/148/163
f 168/144/165 169/155/369 172/149/166
f 133/142/370 132/141/370 165/151/370
f 131/140/169 166/153/371 165/151/170
f 111/139/372 134/206/372 166/153/372
f 134/154/173 135/172/373 169/155/173
f 169/155/174 135/172/374 136/156/174
f 172/157/375 136/171/375 109/99/375
f 171/158/176 172/157/376 115/97/177
f 171/158/377 114/98/377 113/96/377
f 173/160/180 174/164/378 177/161/180
f 175/163/182 178/170/379 177/161/182
f 177/161/184 180/167/380 179/165/184
f 177/161/186 178/170/381 181/166/186
f 112/122/382 124/205/382 173/160/382
f 124/120/189 123/168/383 174/164/189
f 122/118/190 175/163/190 174/164/190
f 110/103/384 118/102/384 175/163/384
f 118/102/193 117/204/385 178/170/193
f 178/170/194 117/204/386 116/100/194
f 181/166/387 116/100/387 109/99/387
f 180/167/196 181/166/196 136/156/196
f 180/167/198 135/172/388 134/154/198
f 179/165/389 134/206/389 111/139/389
f 176/162/200 179/165/200 130/138/200
f 128/136/202 173/160/202 176/162/202
f 29/174/390 28/175/390 158/130/390
f 28/198/391 27/87/392 155/207/393
f 155/207/394 27/87/394 13/203/394
f 13/176/207 26/208/32 152/127/208
f 26/63/210 25/51/395 149/109/211
f 149/109/213 25/51/396 24/177/214
f 146/116/216 24/209/397 9/178/217
f 9/210/398 23/185/399 143/211/400
f 143/211/401 23/185/401 22/79/401
f 140/90/402 22/179/402 21/180/402
f 137/88/403 21/180/403 8/181/403
f 8/181/223 32/212/404 170/159/224
f 32/182/226 31/213/405 167/145/227
f 167/145/229 31/213/406 30/183/230
f 164/152/232 30/214/407 17/184/233
f 17/184/408 29/174/408 161/133/408
f 23/185/409 46/53/23 47/55/25
f 6/54/410 5/59/410 65/44/410
f 5/59/411 66/14/411 85/42/411
f 64/41/412 67/37/412 7/56/412
f 67/37/413 63/38/413 7/56/413
f 19/35/414 60/46/414 97/48/414
f 97/48/415 59/72/415 20/74/415
f 21/80/416 48/57/416 42/187/416
f 48/57/417 7/56/417 1/186/417
f 42/187/418 55/190/418 32/189/418
f 1/186/419 18/36/419 55/190/419
f 55/190/420 56/193/420 31/191/420
f 57/192/421 30/195/421 31/191/421
f 45/194/422 17/197/422 30/195/422
f 45/194/423 52/199/423 29/196/423
f 28/198/424 29/196/424 52/199/424
f 27/87/392 28/198/391 53/200/425
f 58/31/250 14/49/250 52/199/250
f 52/199/426 45/194/426 3/201/426
f 87/28/251 15/82/251 53/200/251
f 53/200/427 52/199/427 14/49/427
f 81/25/252 16/77/428 54/85/252
f 54/85/429 53/200/429 15/82/429
f 75/32/253 3/201/253 57/192/253
f 3/201/430 45/194/430 57/192/430
f 20/74/431 57/192/431 56/193/431
f 56/193/432 55/190/432 18/36/432
f 43/202/433 9/210/433 24/177/433
f 23/185/399 9/210/398 43/202/434
f 68/58/435 5/59/435 46/53/435
f 46/53/436 43/202/436 68/58/436
f 12/70/437 62/60/437 51/50/437
f 62/60/438 2/61/438 51/50/438
f 101/69/439 12/70/439 51/50/439
f 51/50/440 50/52/261 101/69/263
f 93/66/441 11/68/442 50/52/443
f 50/52/443 49/62/444 93/66/441
