# Blender 4.4.1
# www.blender.org
mtllib Otoko.mtl
o 立方体
v -0.765956 -1.236256 0.572013
v -0.802809 1.199371 0.563377
v -0.781034 -0.842816 -1.563727
v -0.771869 1.168849 -0.747333
v 0.796113 -1.236256 0.564298
v 0.728781 1.199424 0.914039
v 0.781034 -0.842816 -1.563727
v 0.793164 1.167893 -0.738440
v -0.829834 -1.103711 -1.122704
v -0.835776 -1.336197 -0.536507
v -0.821622 -1.346016 0.091447
v -0.835359 1.323419 0.376635
v -0.835776 1.369179 -0.037252
v -0.827175 1.311268 -0.472835
v 0.838046 -1.346016 0.087245
v 0.835776 -1.336197 -0.536507
v 0.829834 -1.103711 -1.122704
v 0.833354 1.309451 -0.523870
v 0.838489 1.362978 -0.216658
v 0.822971 1.321798 0.448341
v 0.476234 -0.595268 -2.234699
v 0.000000 -0.164467 -2.496778
v -0.476234 -0.595268 -2.234699
v -0.473574 1.299416 -0.814987
v 0.000000 1.356614 -0.854409
v 0.479754 1.296945 -0.825782
v -0.460286 -1.365922 0.529989
v 0.022618 -1.423609 0.490290
v 0.492181 -1.365922 0.525431
v 0.460020 1.323614 0.903723
v -0.002051 1.370572 0.896063
v -0.488826 1.323622 0.805026
v -0.482175 1.645452 -0.462924
v 0.000000 1.744035 -0.466712
v 0.482175 1.644735 -0.467666
v -0.482175 1.751235 -0.014066
v 0.000000 1.855695 -0.008757
v 0.482175 1.749419 -0.068323
v -0.484226 1.656477 0.466050
v 0.000000 1.752515 0.474457
v 0.484888 1.656536 0.473963
v 0.482175 -1.160310 -1.835412
v 0.000000 -0.908157 -2.261984
v -0.482175 -1.160310 -1.835412
v 0.485695 -1.564034 -1.010494
v 0.000000 -1.546017 -1.335762
v -0.478656 -1.564034 -1.008693
v 0.493484 -1.615521 -0.160010
v 0.014078 -1.695315 -0.277624
v -0.470866 -1.615521 -0.154224
v -0.821622 -0.779929 0.778825
v -0.835776 -0.069503 0.887463
v -0.835359 0.678096 0.815665
v -0.827175 0.649414 -0.839100
v -0.835776 -0.030719 -0.982194
v -0.829834 -0.570639 -1.264118
v 0.833354 0.649414 -0.834744
v 0.835776 -0.030719 -0.982194
v 0.829834 -0.570639 -1.264117
v 0.813621 0.678089 0.914362
v 0.835776 -0.069503 0.887463
v 0.838046 -0.779929 0.774623
v 0.964350 0.678469 -0.515485
v 0.982175 -0.078815 -0.580256
v 0.964350 -0.720621 -0.735446
v 0.982175 0.698441 -0.123406
v 1.000000 -0.100906 -0.130875
v 0.982175 -0.832975 -0.238918
v 0.967064 0.693513 0.454337
v 0.982175 -0.086084 0.416711
v 0.964350 -0.820434 0.302000
v -0.964350 0.693454 0.446424
v -0.982175 -0.086084 0.416711
v -0.964350 -0.820434 0.302000
v -0.982175 0.700258 -0.069149
v -1.000000 -0.100906 -0.130875
v -0.982175 -0.832975 -0.238918
v -0.964350 0.678469 -0.515139
v -0.982175 -0.078815 -0.580256
v -0.964350 -0.720621 -0.735446
v 0.482175 0.693708 1.092024
v 0.485695 -0.085945 1.129843
v 0.493484 -0.824046 0.958312
v 0.000000 0.701862 1.142934
v 0.000000 -0.116966 1.174873
v 0.014078 -0.865697 1.002603
v -0.484226 0.693708 1.092024
v -0.478656 -0.085944 1.131644
v -0.470866 -0.824046 0.964098
v -0.482175 0.695710 -1.067178
v -0.482175 0.072268 -1.447801
v -0.482175 -0.355015 -1.935390
v 0.000000 0.729447 -1.166004
v 0.000000 0.138699 -1.600519
v 0.000000 -0.126328 -2.073892
v 0.482175 0.694993 -1.071781
v 0.482175 0.072268 -1.447861
v 0.482175 -0.355015 -1.935390
vn -0.9164 0.1938 -0.3503
vn 0.4790 0.2731 -0.8343
vn 0.9412 0.1890 0.2799
vn -0.6208 0.3449 0.7040
vn 0.4089 -0.8675 0.2834
vn -0.6443 0.5600 0.5209
vn -0.5183 0.6480 -0.5581
vn -0.7061 0.6950 -0.1355
vn -0.7165 0.6893 0.1070
vn 0.8109 -0.3901 -0.4362
vn 0.7337 -0.6176 -0.2834
vn 0.6070 -0.7939 -0.0372
vn 0.9229 0.1641 -0.3484
vn 0.9777 0.2031 -0.0534
vn 0.9751 0.2195 0.0322
vn -0.9208 0.2194 0.3226
vn -0.9776 0.2082 0.0310
vn -0.9753 0.2153 -0.0487
vn -0.5913 -0.8061 -0.0246
vn -0.1113 -0.9885 -0.1025
vn 0.1115 -0.9882 -0.1052
vn -0.7276 -0.6251 -0.2827
vn -0.1568 -0.8492 -0.5043
vn 0.1555 -0.8489 -0.5052
vn -0.8109 -0.3901 -0.4362
vn -0.3196 -0.4120 -0.8533
vn 0.3196 -0.4120 -0.8533
vn 0.7278 0.6807 0.0833
vn 0.2121 0.9600 0.1830
vn -0.2018 0.9595 0.1967
vn 0.6806 0.7139 -0.1648
vn 0.1879 0.9523 -0.2403
vn -0.2002 0.9527 -0.2285
vn 0.4808 0.6486 -0.5900
vn 0.1366 0.7053 -0.6957
vn -0.1459 0.7017 -0.6974
vn 0.5500 0.7127 0.4355
vn 0.1098 0.7595 0.6412
vn -0.1747 0.7182 0.6735
vn -0.4008 -0.8688 0.2908
vn -0.0763 -0.9381 0.3378
vn 0.0818 -0.9383 0.3361
vn 0.3031 0.1815 0.9355
vn 0.0619 0.3182 0.9460
vn -0.1549 0.3750 0.9140
vn -0.4638 0.2834 -0.8394
vn -0.1687 0.4114 -0.8957
vn 0.1548 0.4084 -0.8996
vn 0.6215 0.7293 -0.2862
vn 0.3910 0.7468 -0.5380
vn 0.2616 0.5361 -0.8026
vn -0.6215 0.7293 -0.2862
vn -0.3910 0.7468 -0.5380
vn -0.2647 0.5375 -0.8006
vn -0.8955 0.2944 -0.3337
vn -0.8413 0.3334 -0.4255
vn -0.7071 0.2676 -0.6545
vn -0.0659 -0.6515 0.7558
vn -0.0991 -0.2231 0.9697
vn -0.0962 0.0442 0.9944
vn 0.0753 -0.6497 0.7565
vn 0.1064 -0.2225 0.9691
vn 0.0975 0.0436 0.9943
vn 0.3169 -0.5234 0.7910
vn 0.5262 -0.1603 0.8351
vn 0.5246 0.0149 0.8512
vn -0.9678 -0.2330 -0.0954
vn -0.9990 -0.0182 -0.0402
vn -0.9989 0.0261 -0.0398
vn -0.9588 -0.2827 0.0269
vn -0.9990 -0.0294 0.0335
vn -0.9992 0.0206 0.0334
vn -0.9276 -0.2884 0.2375
vn -0.9532 -0.0667 0.2949
vn -0.9501 0.0199 0.3114
vn 0.9648 -0.2625 0.0135
vn 0.9990 -0.0294 0.0335
vn 0.9994 0.0200 0.0291
vn 0.9678 -0.2330 -0.0954
vn 0.9990 -0.0182 -0.0402
vn 0.9988 0.0248 -0.0423
vn 0.9766 -0.0552 -0.2080
vn 0.9588 0.0814 -0.2721
vn 0.9319 0.0658 -0.3567
vn -0.3121 -0.5279 0.7899
vn -0.5218 -0.1674 0.8365
vn -0.5912 0.0567 0.8045
vn 0.9453 -0.2517 0.2073
vn 0.9584 -0.0545 0.2803
vn 0.9518 0.0103 0.3066
vn 0.8955 0.2944 -0.3337
vn 0.8413 0.3333 -0.4255
vn 0.7083 0.2643 -0.6545
vn -0.9766 -0.0552 -0.2080
vn -0.9588 0.0814 -0.2721
vn -0.9298 0.0694 -0.3614
vt 0.562500 0.187500
vt 0.625000 0.187500
vt 0.625000 0.250000
vt 0.562500 0.250000
vt 0.562500 0.437500
vt 0.625000 0.437500
vt 0.625000 0.500000
vt 0.562500 0.500000
vt 0.562500 0.687500
vt 0.625000 0.687500
vt 0.625000 0.750000
vt 0.562500 0.750000
vt 0.562500 0.937500
vt 0.625000 0.937500
vt 0.625000 1.000000
vt 0.562500 1.000000
vt 0.312500 0.687500
vt 0.375000 0.687500
vt 0.375000 0.750000
vt 0.312500 0.750000
vt 0.812500 0.687500
vt 0.875000 0.687500
vt 0.875000 0.750000
vt 0.812500 0.750000
vt 0.812500 0.500000
vt 0.875000 0.500000
vt 0.875000 0.562500
vt 0.812500 0.562500
vt 0.875000 0.625000
vt 0.812500 0.625000
vt 0.312500 0.500000
vt 0.375000 0.500000
vt 0.375000 0.562500
vt 0.312500 0.562500
vt 0.375000 0.625000
vt 0.312500 0.625000
vt 0.625000 0.562500
vt 0.562500 0.562500
vt 0.625000 0.625000
vt 0.562500 0.625000
vt 0.562500 0.000000
vt 0.625000 0.000000
vt 0.625000 0.062500
vt 0.562500 0.062500
vt 0.625000 0.125000
vt 0.562500 0.125000
vt 0.125000 0.625000
vt 0.187500 0.625000
vt 0.187500 0.687500
vt 0.125000 0.687500
vt 0.250000 0.625000
vt 0.250000 0.687500
vt 0.125000 0.562500
vt 0.187500 0.562500
vt 0.250000 0.562500
vt 0.125000 0.500000
vt 0.187500 0.500000
vt 0.250000 0.500000
vt 0.687500 0.625000
vt 0.687500 0.687500
vt 0.750000 0.625000
vt 0.750000 0.687500
vt 0.687500 0.562500
vt 0.750000 0.562500
vt 0.687500 0.500000
vt 0.750000 0.500000
vt 0.687500 0.750000
vt 0.750000 0.750000
vt 0.187500 0.750000
vt 0.125000 0.750000
vt 0.250000 0.750000
vt 0.625000 0.812500
vt 0.562500 0.812500
vt 0.625000 0.875000
vt 0.562500 0.875000
vt 0.625000 0.312500
vt 0.562500 0.312500
vt 0.625000 0.375000
vt 0.562500 0.375000
vt 0.375000 0.375000
vt 0.437500 0.375000
vt 0.437500 0.437500
vt 0.375000 0.437500
vt 0.500000 0.375000
vt 0.500000 0.437500
vt 0.375000 0.312500
vt 0.437500 0.312500
vt 0.500000 0.312500
vt 0.375000 0.250000
vt 0.437500 0.250000
vt 0.500000 0.250000
vt 0.375000 0.875000
vt 0.437500 0.875000
vt 0.437500 0.937500
vt 0.375000 0.937500
vt 0.500000 0.875000
vt 0.500000 0.937500
vt 0.375000 0.812500
vt 0.437500 0.812500
vt 0.500000 0.812500
vt 0.437500 0.750000
vt 0.500000 0.750000
vt 0.375000 0.125000
vt 0.437500 0.125000
vt 0.437500 0.187500
vt 0.375000 0.187500
vt 0.500000 0.125000
vt 0.500000 0.187500
vt 0.375000 0.062500
vt 0.437500 0.062500
vt 0.500000 0.062500
vt 0.375000 0.000000
vt 0.437500 0.000000
vt 0.500000 0.000000
vt 0.437500 0.625000
vt 0.437500 0.687500
vt 0.500000 0.625000
vt 0.500000 0.687500
vt 0.437500 0.562500
vt 0.500000 0.562500
vt 0.437500 0.500000
vt 0.500000 0.500000
vt 0.437500 1.000000
vt 0.375000 1.000000
vt 0.500000 1.000000
s 0
usemtl マテリアル.001
f 78/1/1 14/2/1 4/3/1 54/4/1
f 96/5/2 26/6/2 8/7/2 57/8/2
f 69/9/3 20/10/3 6/11/3 60/12/3
f 87/13/4 32/14/4 2/15/4 53/16/4
f 48/17/5 15/18/5 5/19/5 29/20/5
f 39/21/6 12/22/6 2/23/6 32/24/6
f 24/25/7 4/26/7 14/27/7 33/28/7
f 33/28/8 14/27/8 13/29/8 36/30/8
f 36/30/9 13/29/9 12/22/9 39/21/9
f 21/31/10 7/32/10 17/33/10 42/34/10
f 42/34/11 17/33/11 16/35/11 45/36/11
f 45/36/12 16/35/12 15/18/12 48/17/12
f 57/8/13 8/7/13 18/37/13 63/38/13
f 63/38/14 18/37/14 19/39/14 66/40/14
f 66/40/15 19/39/15 20/10/15 69/9/15
f 53/41/16 2/42/16 12/43/16 72/44/16
f 72/44/17 12/43/17 13/45/17 75/46/17
f 75/46/18 13/45/18 14/2/18 78/1/18
f 10/47/19 47/48/19 50/49/19 11/50/19
f 47/48/20 46/51/20 49/52/20 50/49/20
f 46/51/21 45/36/21 48/17/21 49/52/21
f 9/53/22 44/54/22 47/48/22 10/47/22
f 44/54/23 43/55/23 46/51/23 47/48/23
f 43/55/24 42/34/24 45/36/24 46/51/24
f 3/56/25 23/57/25 44/54/25 9/53/25
f 23/57/26 22/58/26 43/55/26 44/54/26
f 22/58/27 21/31/27 42/34/27 43/55/27
f 19/39/28 38/59/28 41/60/28 20/10/28
f 38/59/29 37/61/29 40/62/29 41/60/29
f 37/61/30 36/30/30 39/21/30 40/62/30
f 18/37/31 35/63/31 38/59/31 19/39/31
f 35/63/32 34/64/32 37/61/32 38/59/32
f 34/64/33 33/28/33 36/30/33 37/61/33
f 8/7/34 26/65/34 35/63/34 18/37/34
f 26/65/35 25/66/35 34/64/35 35/63/35
f 25/66/36 24/25/36 33/28/36 34/64/36
f 20/10/37 41/60/37 30/67/37 6/11/37
f 41/60/38 40/62/38 31/68/38 30/67/38
f 40/62/39 39/21/39 32/24/39 31/68/39
f 11/50/40 50/49/40 27/69/40 1/70/40
f 50/49/41 49/52/41 28/71/41 27/69/41
f 49/52/42 48/17/42 29/20/42 28/71/42
f 60/12/43 6/11/43 30/72/43 81/73/43
f 81/73/44 30/72/44 31/74/44 84/75/44
f 84/75/45 31/74/45 32/14/45 87/13/45
f 54/4/46 4/3/46 24/76/46 90/77/46
f 90/77/47 24/76/47 25/78/47 93/79/47
f 93/79/48 25/78/48 26/6/48 96/5/48
f 22/80/49 95/81/49 98/82/49 21/83/49
f 95/81/50 94/84/50 97/85/50 98/82/50
f 94/84/51 93/79/51 96/5/51 97/85/51
f 23/86/52 92/87/52 95/81/52 22/80/52
f 92/87/53 91/88/53 94/84/53 95/81/53
f 91/88/54 90/77/54 93/79/54 94/84/54
f 3/89/55 56/90/55 92/87/55 23/86/55
f 56/90/56 55/91/56 91/88/56 92/87/56
f 55/91/57 54/4/57 90/77/57 91/88/57
f 28/92/58 86/93/58 89/94/58 27/95/58
f 86/93/59 85/96/59 88/97/59 89/94/59
f 85/96/60 84/75/60 87/13/60 88/97/60
f 29/98/61 83/99/61 86/93/61 28/92/61
f 83/99/62 82/100/62 85/96/62 86/93/62
f 82/100/63 81/73/63 84/75/63 85/96/63
f 5/19/64 62/101/64 83/99/64 29/98/64
f 62/101/65 61/102/65 82/100/65 83/99/65
f 61/102/66 60/12/66 81/73/66 82/100/66
f 10/103/67 77/104/67 80/105/67 9/106/67
f 77/104/68 76/107/68 79/108/68 80/105/68
f 76/107/69 75/46/69 78/1/69 79/108/69
f 11/109/70 74/110/70 77/104/70 10/103/70
f 74/110/71 73/111/71 76/107/71 77/104/71
f 73/111/72 72/44/72 75/46/72 76/107/72
f 1/112/73 51/113/73 74/110/73 11/109/73
f 51/113/74 52/114/74 73/111/74 74/110/74
f 52/114/75 53/41/75 72/44/75 73/111/75
f 16/35/76 68/115/76 71/116/76 15/18/76
f 68/115/77 67/117/77 70/118/77 71/116/77
f 67/117/78 66/40/78 69/9/78 70/118/78
f 17/33/79 65/119/79 68/115/79 16/35/79
f 65/119/80 64/120/80 67/117/80 68/115/80
f 64/120/81 63/38/81 66/40/81 67/117/81
f 7/32/82 59/121/82 65/119/82 17/33/82
f 59/121/83 58/122/83 64/120/83 65/119/83
f 58/122/84 57/8/84 63/38/84 64/120/84
f 27/95/85 89/94/85 51/123/85 1/124/85
f 89/94/86 88/97/86 52/125/86 51/123/86
f 88/97/87 87/13/87 53/16/87 52/125/87
f 15/18/88 71/116/88 62/101/88 5/19/88
f 71/116/89 70/118/89 61/102/89 62/101/89
f 70/118/90 69/9/90 60/12/90 61/102/90
f 21/83/91 98/82/91 59/121/91 7/32/91
f 98/82/92 97/85/92 58/122/92 59/121/92
f 97/85/93 96/5/93 57/8/93 58/122/93
f 9/106/94 80/105/94 56/90/94 3/89/94
f 80/105/95 79/108/95 55/91/95 56/90/95
f 79/108/96 78/1/96 54/4/96 55/91/96
