# Blender 4.4.1
# www.blender.org
mtllib pillBugEnemy.mtl
o pillBug
v 0.491566 -0.424322 0.647387
v -0.448796 -0.458851 0.655806
v 0.596332 -0.578632 0.191471
v 0.561855 -0.512592 0.464887
v 0.303228 -0.491307 0.725367
v 0.025719 -0.531671 0.766174
v -0.254688 -0.511793 0.730361
v -0.515673 -0.552158 0.474532
v -0.550096 -0.620729 0.201734
v -0.524242 -0.263352 0.701928
v -0.573314 0.141985 0.736670
v 0.573114 0.184080 0.726408
v 0.553286 -0.223787 0.692282
v 0.342468 -0.749028 0.212977
v 0.325982 -0.665002 0.502650
v 0.031230 -0.814387 0.222202
v 0.030617 -0.723362 0.527062
v -0.284077 -0.772034 0.218585
v -0.268622 -0.686835 0.507972
v -0.726148 -0.243045 0.205638
v -0.671399 -0.315604 0.465485
v -0.767424 -0.043673 -0.029339
v -0.736481 0.105195 0.479831
v 0.707642 0.010490 -0.042543
v 0.733922 0.159187 0.466667
v 0.709988 -0.315985 0.159591
v 0.699628 -0.265261 0.453212
v -0.312638 0.170749 0.895301
v -0.281426 -0.255290 0.847755
v 0.000881 0.188687 0.946389
v 0.016700 -0.254336 0.896356
v 0.313907 0.193755 0.889693
v 0.313178 -0.233456 0.842432
v 0.460584 0.420884 0.653329
v -0.479777 0.386355 0.661746
v 0.581648 -0.076993 0.608878
v 0.537011 0.211690 0.660574
v 0.268333 0.462947 0.741502
v -0.011141 0.477360 0.787431
v -0.289583 0.442461 0.746497
v -0.540516 0.172124 0.670220
v -0.564780 -0.119089 0.619141
v -0.554366 0.507778 0.499890
v -0.595337 0.621468 0.243338
v 0.551092 0.663565 0.233076
v 0.523162 0.547343 0.490244
v 0.324810 -0.133210 0.766413
v 0.297734 0.178955 0.808894
v 0.012577 -0.160341 0.821185
v 0.000838 0.169753 0.863995
v -0.301735 -0.156216 0.772022
v -0.296869 0.157121 0.814217
v -0.731747 -0.050141 0.371529
v -0.692519 0.254721 0.445728
v -0.675361 -0.053634 0.008130
v -0.748447 0.354588 0.166146
v 0.676189 -0.004007 -0.003969
v 0.721956 0.408579 0.152982
v 0.678169 0.001630 0.358908
v 0.678510 0.305063 0.433455
v -0.340927 0.793619 0.290019
v -0.317564 0.658668 0.559703
v -0.029507 0.859567 0.303624
v -0.021653 0.714860 0.587375
v 0.285618 0.816625 0.284410
v 0.277039 0.680501 0.554380
v 0.499896 -0.809249 -0.001029
v -0.440466 -0.843778 0.007389
v 0.589313 -0.531125 -0.397639
v 0.563433 -0.713317 -0.182134
v 0.312200 -0.913200 -0.002915
v 0.035014 -0.972132 -0.002225
v -0.245716 -0.933686 0.002079
v -0.514095 -0.752882 -0.172488
v -0.557115 -0.573221 -0.387377
v -0.510310 -0.766382 0.194927
v -0.549435 -0.559901 0.525146
v 0.596993 -0.517805 0.514884
v 0.567217 -0.726816 0.185281
v 0.332357 -0.650931 -0.514102
v 0.325281 -0.835511 -0.275099
v 0.020084 -0.699352 -0.551071
v 0.029422 -0.891950 -0.298001
v -0.294188 -0.673938 -0.508493
v -0.269323 -0.857344 -0.269775
v -0.707091 -0.401616 -0.195455
v -0.664689 -0.607352 0.018385
v -0.718561 0.099096 -0.077593
v -0.719999 -0.375406 0.349611
v 0.706534 0.151423 -0.090350
v 0.750403 -0.321414 0.336448
v 0.746510 -0.348241 -0.208467
v 0.706339 -0.557009 0.006112
v -0.284148 -0.669035 0.633112
v -0.263668 -0.877516 0.279231
v 0.030913 -0.697268 0.667236
v 0.035568 -0.913874 0.298689
v 0.342396 -0.646029 0.627503
v 0.330937 -0.855684 0.273909
v 0.476318 -0.338241 -0.702813
v -0.464043 -0.372771 -0.694395
v 0.563101 0.134559 -0.595222
v 0.537657 -0.133546 -0.683415
v 0.285475 -0.377862 -0.792522
v 0.006707 -0.404480 -0.835947
v -0.272442 -0.398347 -0.787528
v -0.539871 -0.173111 -0.673769
v -0.583327 0.092464 -0.584959
v -0.526058 -0.519173 -0.550314
v -0.549175 -0.771210 -0.312495
v 0.597254 -0.729114 -0.322758
v 0.551469 -0.479607 -0.559960
v 0.299301 0.194401 -0.739347
v 0.293237 -0.096129 -0.821797
v -0.015263 0.206130 -0.785577
v -0.004780 -0.100194 -0.870908
v -0.327244 0.171394 -0.733737
v -0.301367 -0.117962 -0.816474
v -0.719519 -0.024109 -0.348673
v -0.680331 -0.298505 -0.462019
v -0.738530 -0.081452 0.006660
v -0.718790 -0.542259 -0.199553
v 0.771865 -0.025934 -0.006875
v 0.751614 -0.488267 -0.212716
v 0.693720 0.029164 -0.361660
v 0.690697 -0.248162 -0.474293
v -0.284480 -0.908047 -0.384301
v -0.280727 -0.635061 -0.632002
v 0.030384 -0.945556 -0.410368
v 0.017652 -0.662205 -0.670415
v 0.342065 -0.885041 -0.389909
v 0.313876 -0.613228 -0.637326
v 0.448392 0.432943 -0.659151
v -0.491969 0.398414 -0.650733
v 0.550636 0.571009 -0.197488
v 0.515661 0.516695 -0.473410
v 0.254172 0.489762 -0.730487
v -0.026292 0.511587 -0.764684
v -0.303745 0.469276 -0.725493
v -0.561867 0.477130 -0.463764
v -0.595792 0.528913 -0.187226
v -0.553877 0.200503 -0.705848
v -0.577819 -0.114733 -0.819631
v 0.568609 -0.072638 -0.829893
v 0.523651 0.240069 -0.715495
v 0.284662 0.723095 -0.205959
v 0.268616 0.653027 -0.499346
v -0.030629 0.765710 -0.206771
v -0.030640 0.690620 -0.515942
v -0.341882 0.700089 -0.200351
v -0.325988 0.631194 -0.494023
v -0.741303 0.263596 -0.168448
v -0.699745 0.229583 -0.464670
v -0.745662 -0.096291 0.008349
v -0.738122 -0.103280 -0.558642
v 0.749423 -0.041393 -0.005035
v 0.732280 -0.049288 -0.571805
v 0.709827 0.317588 -0.181611
v 0.671282 0.279925 -0.476943
v -0.318928 -0.116033 -0.983695
v -0.314049 0.217848 -0.855756
v -0.006007 -0.108161 -1.040653
v -0.017664 0.241374 -0.909092
v 0.307617 -0.093027 -0.989303
v 0.280555 0.239681 -0.861078
v 0.441159 0.768060 -0.092585
v -0.499202 0.733531 -0.084166
v 0.556674 0.533985 0.325163
v 0.514250 0.693677 0.094936
v 0.246334 0.857897 -0.095966
v -0.034434 0.896309 -0.096027
v -0.311582 0.837412 -0.090971
v -0.563277 0.654111 0.104582
v -0.589754 0.491890 0.335426
v -0.565852 0.634709 -0.262580
v -0.596943 0.471782 -0.550133
v 0.549485 0.513878 -0.560395
v 0.511675 0.674276 -0.272226
v 0.293280 0.644876 0.435938
v 0.269089 0.806186 0.181700
v -0.021147 0.673698 0.475052
v -0.029771 0.842892 0.205749
v -0.333264 0.621870 0.441546
v -0.325516 0.784353 0.187023
v -0.746203 0.292678 0.162851
v -0.705456 0.481467 -0.069401
v -0.787071 -0.110425 0.011564
v -0.750816 0.291983 -0.355355
v 0.791808 -0.052449 -0.002571
v 0.719586 0.345974 -0.368517
v 0.724200 0.346670 0.149688
v 0.665572 0.531810 -0.081674
v -0.342059 0.589666 -0.672936
v -0.329362 0.755362 -0.361604
v -0.030479 0.637444 -0.716080
v -0.033951 0.811384 -0.390529
v 0.284486 0.612672 -0.678545
v 0.265242 0.777195 -0.366927
vn 0.2067 -0.9369 0.2818
vn 0.2051 -0.9368 0.2834
vn -0.1308 -0.9491 0.2864
vn 0.5531 -0.7912 0.2609
vn 0.5532 -0.7912 0.2609
vn 0.5194 -0.6736 0.5258
vn 0.2014 -0.7623 0.6151
vn 0.2015 -0.7623 0.6151
vn -0.1339 -0.7746 0.6181
vn -0.1340 -0.7746 0.6181
vn -0.4591 -0.7095 0.5346
vn -0.4889 -0.8295 0.2702
vn -0.9910 -0.0998 0.0894
vn -0.9037 -0.4220 0.0726
vn -0.7291 -0.4606 0.5061
vn -0.8251 -0.1462 0.5458
vn 0.9987 -0.0210 -0.0454
vn 0.8433 -0.0852 0.5306
vn 0.8433 -0.0851 0.5307
vn 0.8432 -0.0850 0.5309
vn 0.7699 -0.4056 0.4927
vn 0.9073 -0.3680 0.2033
vn -0.1536 -0.1202 0.9808
vn -0.1588 -0.1168 0.9804
vn -0.1529 -0.1207 0.9808
vn 0.1789 -0.1085 0.9779
vn -0.5046 -0.1322 0.8532
vn -0.4692 -0.3702 0.8017
vn -0.1443 -0.4243 0.8940
vn -0.1444 -0.4242 0.8940
vn 0.1910 -0.4119 0.8910
vn 0.1911 -0.4119 0.8910
vn 0.5093 -0.3343 0.7930
vn 0.5282 -0.0947 0.8438
vn 0.5302 -0.0962 0.8424
vn 0.5281 -0.0943 0.8439
vn 0.1832 -0.1186 0.9759
vn 0.1831 -0.1185 0.9759
vn 0.1815 -0.1171 0.9764
vn -0.1549 -0.1295 0.9794
vn 0.5324 -0.0687 0.8437
vn 0.5325 -0.0687 0.8436
vn 0.4942 0.2098 0.8436
vn 0.1696 0.2442 0.9548
vn 0.1696 0.2441 0.9548
vn -0.1699 0.2317 0.9578
vn -0.1700 0.2317 0.9578
vn -0.4931 0.1735 0.8525
vn -0.5109 -0.1070 0.8530
vn -0.9815 -0.1172 -0.1512
vn -0.8324 -0.0277 0.5535
vn -0.7607 0.2395 0.6032
vn -0.8597 0.4018 0.3155
vn 0.9941 -0.1088 -0.0037
vn 0.8334 0.4640 0.3003
vn 0.7518 0.2951 0.5897
vn 0.9222 0.0746 0.3795
vn -0.2053 0.8688 0.4506
vn -0.2036 0.8684 0.4522
vn 0.1475 0.8813 0.4490
vn -0.5617 0.7194 0.4086
vn -0.5618 0.7194 0.4085
vn -0.5173 0.5529 0.6532
vn -0.1897 0.6277 0.7550
vn -0.1898 0.6277 0.7550
vn 0.1567 0.6404 0.7519
vn 0.4870 0.5898 0.6442
vn 0.5147 0.7589 0.3989
vn 0.1930 -0.7783 -0.5975
vn 0.1915 -0.7795 -0.5964
vn -0.1444 -0.7919 -0.5934
vn 0.5419 -0.6728 -0.5036
vn 0.5420 -0.6728 -0.5037
vn 0.5178 -0.8177 -0.2515
vn 0.2003 -0.9446 -0.2599
vn 0.2003 -0.9446 -0.2600
vn -0.1351 -0.9569 -0.2569
vn -0.1351 -0.9569 -0.2570
vn -0.4608 -0.8537 -0.2428
vn -0.5001 -0.7110 -0.4943
vn -0.9996 -0.0175 -0.0228
vn -0.8460 -0.4800 -0.2319
vn -0.7258 -0.6861 -0.0496
vn -0.8148 -0.5300 0.2351
vn 0.9965 0.0824 -0.0112
vn 0.8556 -0.4686 0.2200
vn 0.8555 -0.4687 0.2201
vn 0.7732 -0.6310 -0.0630
vn 0.8512 -0.4467 -0.2755
vn -0.1312 -0.8572 0.4980
vn -0.1358 -0.8550 0.5005
vn -0.1307 -0.8575 0.4976
vn 0.2021 -0.8453 0.4946
vn -0.4865 -0.7648 0.4224
vn -0.4564 -0.8695 0.1889
vn -0.1305 -0.9733 0.1887
vn -0.1305 -0.9733 0.1888
vn 0.2048 -0.9610 0.1857
vn 0.2049 -0.9610 0.1858
vn 0.5222 -0.8336 0.1801
vn 0.5489 -0.7267 0.4130
vn 0.5503 -0.7266 0.4113
vn 0.5488 -0.7268 0.4131
vn 0.1514 0.2685 -0.9513
vn 0.1499 0.2670 -0.9520
vn -0.1860 0.2547 -0.9490
vn 0.5060 0.2258 -0.8325
vn 0.5060 0.2258 -0.8324
vn 0.4845 -0.0625 -0.8726
vn 0.1630 -0.1065 -0.9809
vn 0.1631 -0.1064 -0.9809
vn -0.1723 -0.1188 -0.9779
vn -0.1724 -0.1187 -0.9779
vn -0.4941 -0.0984 -0.8638
vn -0.5360 0.1875 -0.8231
vn -0.9911 -0.1122 -0.0711
vn -0.8708 0.0218 -0.4912
vn -0.7481 -0.2194 -0.6262
vn -0.8020 -0.3745 -0.4653
vn 0.9763 0.0721 -0.2038
vn 0.8192 -0.3145 -0.4797
vn 0.8213 -0.3071 -0.4807
vn 0.8189 -0.3150 -0.4798
vn 0.7509 -0.1644 -0.6396
vn 0.8836 0.0685 -0.4632
vn -0.1403 -0.6729 -0.7263
vn 0.1763 -0.6613 -0.7292
vn -0.4800 -0.5859 -0.6530
vn -0.4779 -0.5050 -0.7188
vn -0.1555 -0.5386 -0.8281
vn -0.1556 -0.5386 -0.8281
vn 0.1798 -0.5262 -0.8311
vn 0.1798 -0.5263 -0.8311
vn 0.5007 -0.4690 -0.7275
vn 0.5099 -0.5495 -0.6618
vn 0.1323 0.9628 -0.2355
vn 0.1307 0.9627 -0.2371
vn -0.2052 0.9503 -0.2341
vn 0.4887 0.8422 -0.2278
vn 0.4888 0.8421 -0.2277
vn 0.4585 0.7361 -0.4980
vn 0.1332 0.8055 -0.5774
vn 0.1332 0.8056 -0.5773
vn -0.2022 0.7932 -0.5744
vn -0.2022 0.7933 -0.5743
vn -0.5201 0.7002 -0.4892
vn -0.5532 0.8039 -0.2184
vn -0.9999 0.0055 -0.0134
vn -0.8661 0.4613 -0.1926
vn -0.7706 0.4309 -0.4695
vn -0.8171 0.2419 -0.5233
vn 0.9950 0.0943 -0.0314
vn 0.7878 0.3013 -0.5373
vn 0.7906 0.3071 -0.5297
vn 0.7876 0.3009 -0.5377
vn 0.7284 0.4860 -0.4829
vn 0.8343 0.5112 -0.2064
vn -0.1766 0.3416 -0.9231
vn 0.1346 0.3530 -0.9259
vn -0.5069 0.3149 -0.8024
vn -0.5107 0.3752 -0.7736
vn -0.1925 0.4577 -0.8680
vn -0.1925 0.4576 -0.8681
vn 0.1428 0.4700 -0.8710
vn 0.1429 0.4699 -0.8711
vn 0.4679 0.4111 -0.7824
vn 0.4680 0.3507 -0.8111
vn 0.1436 0.8409 0.5218
vn 0.1419 0.8419 0.5207
vn -0.1940 0.8295 0.5237
vn 0.4979 0.7529 0.4304
vn 0.4980 0.7528 0.4304
vn 0.4594 0.8724 0.1670
vn 0.1336 0.9762 0.1708
vn -0.2017 0.9639 0.1738
vn -0.2018 0.9639 0.1739
vn -0.5191 0.8364 0.1757
vn -0.5441 0.7146 0.4398
vn -0.9952 0.0976 0.0087
vn -0.8524 0.4688 0.2316
vn -0.7738 0.6334 0.0038
vn -0.8376 0.5070 -0.2031
vn 0.9853 0.1703 -0.0090
vn 0.7944 0.5671 -0.2173
vn 0.7965 0.5666 -0.2109
vn 0.7944 0.5670 -0.2177
vn 0.7252 0.6884 -0.0096
vn 0.8197 0.5302 0.2167
vn -0.1967 0.8639 -0.4637
vn 0.1245 0.8757 -0.4666
vn -0.5329 0.7558 -0.3805
vn -0.5221 0.8137 -0.2556
vn -0.2049 0.9404 -0.2716
vn -0.2049 0.9403 -0.2716
vn 0.1305 0.9527 -0.2746
vn 0.4564 0.8496 -0.2644
vn 0.4692 0.7928 -0.3891
vn 0.4763 0.7932 -0.3795
vn 0.4691 0.7926 -0.3895
vn 0.2083 -0.9371 0.2802
vn -0.1340 -0.9496 0.2833
vn 0.5530 -0.7912 0.2610
vn 0.4746 -0.6699 0.5709
vn 0.2013 -0.7622 0.6152
vn -0.1339 -0.7745 0.6182
vn -0.4140 -0.7025 0.5789
vn -0.4888 -0.8295 0.2703
vn -0.9744 -0.1562 0.1617
vn -0.8158 -0.5281 0.2357
vn -0.7306 -0.4107 0.5455
vn -0.8253 -0.1467 0.5453
vn 0.9954 -0.0820 0.0493
vn 0.8435 -0.0854 0.5304
vn 0.7684 -0.3556 0.5321
vn 0.8702 -0.4794 0.1135
vn -0.1594 -0.1164 0.9803
vn 0.1850 -0.1038 0.9772
vn -0.5069 -0.1343 0.8515
vn -0.4225 -0.4132 0.8067
vn 0.1909 -0.4120 0.8909
vn 0.4661 -0.3806 0.7987
vn 0.5305 -0.0963 0.8422
vn 0.1848 -0.1199 0.9754
vn -0.1580 -0.1325 0.9785
vn 0.5324 -0.0686 0.8437
vn 0.4483 0.2501 0.8582
vn 0.1695 0.2443 0.9548
vn -0.1699 0.2318 0.9578
vn -0.4500 0.2171 0.8662
vn -0.5107 -0.1069 0.8531
vn -0.9728 0.0716 0.2202
vn -0.8324 -0.0276 0.5535
vn -0.7645 0.2947 0.5733
vn -0.8596 0.4019 0.3154
vn 0.9895 -0.0355 0.1402
vn 0.8333 0.4641 0.3002
vn 0.7510 0.3503 0.5598
vn 0.8641 -0.1210 0.4886
vn -0.2070 0.8692 0.4490
vn 0.1507 0.8823 0.4458
vn -0.5616 0.7194 0.4087
vn -0.4703 0.5413 0.6970
vn -0.1897 0.6276 0.7551
vn 0.1566 0.6403 0.7520
vn 0.4417 0.5748 0.6888
vn 0.5146 0.7589 0.3990
vn 0.1946 -0.7771 -0.5986
vn -0.1477 -0.7896 -0.5955
vn 0.5418 -0.6729 -0.5036
vn 0.4743 -0.8523 -0.2205
vn 0.2002 -0.9447 -0.2599
vn -0.1350 -0.9570 -0.2569
vn -0.4143 -0.8850 -0.2125
vn -0.5000 -0.7111 -0.4943
vn -0.9766 -0.2146 -0.0128
vn -0.8299 -0.4751 -0.2925
vn -0.7252 -0.6884 0.0140
vn -0.8149 -0.5299 0.2348
vn 0.9824 -0.1868 0.0022
vn 0.8556 -0.4686 0.2199
vn 0.7739 -0.6334 0.0006
vn 0.8513 -0.4467 -0.2753
vn -0.1364 -0.8548 0.5007
vn 0.2077 -0.8422 0.4976
vn -0.4883 -0.7648 0.4204
vn -0.4106 -0.8985 0.1555
vn -0.1304 -0.9733 0.1887
vn 0.4780 -0.8659 0.1475
vn 0.5505 -0.7266 0.4110
vn 0.1530 0.2700 -0.9506
vn -0.1893 0.2575 -0.9476
vn 0.5059 0.2257 -0.8325
vn 0.4408 -0.1048 -0.8915
vn -0.1722 -0.1189 -0.9779
vn -0.4478 -0.1374 -0.8835
vn -0.5359 0.1875 -0.8232
vn -0.9913 0.0159 -0.1305
vn -0.8537 0.0900 -0.5130
vn -0.7457 -0.2794 -0.6048
vn -0.8051 -0.3663 -0.4665
vn 0.9809 0.0417 -0.1902
vn 0.8213 -0.3066 -0.4810
vn 0.7533 -0.2243 -0.6183
vn 0.8395 0.1966 -0.5066
vn -0.1546 -0.6627 -0.7327
vn 0.1897 -0.6501 -0.7358
vn -0.4897 -0.5742 -0.6561
vn -0.4340 -0.4840 -0.7599
vn -0.1555 -0.5385 -0.8282
vn 0.1797 -0.5262 -0.8312
vn 0.4546 -0.4514 -0.7678
vn 0.5187 -0.5372 -0.6651
vn 0.1339 0.9630 -0.2339
vn -0.2084 0.9504 -0.2308
vn 0.4887 0.8422 -0.2279
vn 0.4132 0.7314 -0.5425
vn 0.1331 0.8055 -0.5774
vn -0.2021 0.7932 -0.5744
vn -0.4754 0.6988 -0.5345
vn -0.5531 0.8039 -0.2185
vn -0.9755 0.1562 -0.1548
vn -0.8598 0.4795 -0.1757
vn -0.7692 0.3830 -0.5114
vn -0.8206 0.2482 -0.5149
vn 0.9626 0.2227 -0.1540
vn 0.7908 0.3073 -0.5293
vn 0.7298 0.4381 -0.5248
vn 0.8213 0.5425 -0.1764
vn -0.1928 0.3536 -0.9153
vn 0.1499 0.3661 -0.9184
vn -0.5181 0.3249 -0.7912
vn -0.4674 0.4217 -0.7770
vn -0.1924 0.4577 -0.8680
vn 0.1428 0.4701 -0.8710
vn 0.4212 0.4543 -0.7850
vn 0.4786 0.3615 -0.8001
vn 0.1452 0.8399 0.5230
vn -0.1971 0.8273 0.5261
vn 0.4131 0.9008 0.1339
vn 0.1335 0.9762 0.1707
vn -0.2017 0.9639 0.1737
vn -0.4755 0.8682 0.1419
vn -0.5440 0.7147 0.4397
vn -0.9753 0.2208 0.0084
vn -0.8525 0.4688 0.2315
vn -0.7743 0.6300 -0.0597
vn -0.8398 0.5063 -0.1961
vn 0.9565 0.2917 -0.0089
vn 0.7968 0.5664 -0.2107
vn 0.7248 0.6851 -0.0732
vn 0.8198 0.5302 0.2165
vn -0.2087 0.8668 -0.4528
vn 0.1365 0.8795 -0.4559
vn -0.5404 0.7558 -0.3698
vn -0.4781 0.8487 -0.2259
vn -0.2048 0.9404 -0.2715
vn 0.1304 0.9527 -0.2745
vn 0.4105 0.8814 -0.2339
vn 0.4768 0.7931 -0.3789
vt 0.466882 0.308183
vt 0.525542 0.245884
vt 0.525542 0.314726
vt 0.450968 0.203903
vt 0.505170 0.180028
vt 0.458665 0.357759
vt 0.509613 0.377182
vt 0.423770 0.343908
vt 0.418826 0.308443
vt 0.462442 0.255487
vt 0.405074 0.217848
vt 0.399306 0.182531
vt 0.428410 0.159396
vt 0.471060 0.124903
vt 0.402048 0.073654
vt 0.311740 0.094480
vt 0.384960 0.010947
vt 0.389750 0.126086
vt 0.364423 0.170293
vt 0.366828 0.454280
vt 0.481012 0.431135
vt 0.462080 0.507837
vt 0.393970 0.365758
vt 0.430522 0.399942
vt 0.357409 0.219115
vt 0.278609 0.283347
vt 0.276991 0.217156
vt 0.372887 0.321317
vt 0.296619 0.347097
vt 0.287450 0.154442
vt 0.362494 0.270630
vt 0.325278 0.404074
vt 0.928673 0.306532
vt 0.989159 0.244388
vt 0.989584 0.312380
vt 0.913360 0.202156
vt 0.970089 0.179132
vt 0.921671 0.356297
vt 0.975394 0.374537
vt 0.884881 0.342983
vt 0.878914 0.307198
vt 0.923925 0.253936
vt 0.865425 0.215838
vt 0.860791 0.179700
vt 0.892394 0.156366
vt 0.938783 0.123598
vt 0.896861 0.075173
vt 0.803712 0.088654
vt 0.854378 0.011898
vt 0.854211 0.121505
vt 0.825159 0.166387
vt 0.857748 0.445961
vt 0.950057 0.427124
vt 0.931681 0.499451
vt 0.854806 0.365934
vt 0.895100 0.399596
vt 0.816689 0.216573
vt 0.758496 0.278482
vt 0.758496 0.210434
vt 0.832175 0.320623
vt 0.778434 0.343540
vt 0.774201 0.147930
vt 0.820949 0.269147
vt 0.811911 0.398542
vt 0.084374 0.232715
vt 0.010875 0.274768
vt 0.030649 0.209695
vt 0.068959 0.336354
vt 0.010875 0.342787
vt 0.106442 0.187879
vt 0.063461 0.155017
vt 0.135779 0.211124
vt 0.130166 0.246399
vt 0.073266 0.284038
vt 0.116711 0.336595
vt 0.111798 0.371909
vt 0.077045 0.385600
vt 0.026445 0.404643
vt 0.054973 0.460329
vt 0.165252 0.480962
vt 0.064969 0.565610
vt 0.104898 0.428012
vt 0.141498 0.393697
vt 0.219289 0.122454
vt 0.107753 0.108374
vt 0.149607 0.010861
vt 0.170637 0.198942
vt 0.145584 0.155106
vt 0.162469 0.349365
vt 0.252859 0.310911
vt 0.234938 0.374339
vt 0.177707 0.247570
vt 0.254385 0.245014
vt 0.206475 0.430954
vt 0.172710 0.298876
vt 0.243863 0.182485
vt 0.903137 0.770894
vt 0.961630 0.712081
vt 0.960019 0.777905
vt 0.892030 0.666919
vt 0.946178 0.648077
vt 0.894888 0.820092
vt 0.945093 0.838006
vt 0.859635 0.806480
vt 0.854957 0.770346
vt 0.900313 0.718622
vt 0.845026 0.677639
vt 0.841945 0.641283
vt 0.873581 0.620528
vt 0.918949 0.592448
vt 0.837825 0.583185
vt 0.844890 0.479957
vt 0.882112 0.544567
vt 0.807330 0.625600
vt 0.771768 0.555805
vt 0.897440 0.963493
vt 0.867832 0.863816
vt 0.919740 0.890774
vt 0.809545 0.904818
vt 0.829191 0.829110
vt 0.725426 0.672878
vt 0.797300 0.729656
vt 0.725426 0.737403
vt 0.739180 0.800439
vt 0.740963 0.611729
vt 0.796091 0.675597
vt 0.807605 0.782718
vt 0.767421 0.856849
vt 0.336838 0.710258
vt 0.395088 0.650950
vt 0.393912 0.716885
vt 0.325137 0.606022
vt 0.379331 0.586917
vt 0.328995 0.759576
vt 0.379402 0.777220
vt 0.293539 0.746357
vt 0.288454 0.710123
vt 0.333663 0.657842
vt 0.277977 0.616886
vt 0.274891 0.580408
vt 0.306556 0.559648
vt 0.351829 0.531291
vt 0.314012 0.482241
vt 0.207912 0.496660
vt 0.280378 0.409471
vt 0.270959 0.522670
vt 0.240248 0.564486
vt 0.246953 0.842857
vt 0.353523 0.832711
vt 0.337171 0.911312
vt 0.263320 0.769561
vt 0.302499 0.803426
vt 0.159651 0.612729
vt 0.229942 0.669499
vt 0.159651 0.677415
vt 0.174040 0.740478
vt 0.175812 0.551703
vt 0.228634 0.614820
vt 0.240817 0.723094
vt 0.203381 0.796371
vt 0.576586 0.425737
vt 0.506423 0.470929
vt 0.522223 0.406445
vt 0.565424 0.529955
vt 0.508209 0.537296
vt 0.595393 0.379442
vt 0.550199 0.350608
vt 0.626797 0.400425
vt 0.623558 0.436666
vt 0.568153 0.477540
vt 0.613645 0.529220
vt 0.609137 0.565326
vt 0.574002 0.579183
vt 0.523727 0.597792
vt 0.551260 0.654533
vt 0.655668 0.664174
vt 0.574390 0.738927
vt 0.601528 0.622552
vt 0.639637 0.587704
vt 0.693205 0.313672
vt 0.589124 0.300984
vt 0.629601 0.223403
vt 0.661344 0.385013
vt 0.631479 0.342885
vt 0.726156 0.559167
vt 0.671069 0.488562
vt 0.739858 0.495929
vt 0.739858 0.431224
vt 0.697935 0.615872
vt 0.660905 0.541413
vt 0.672327 0.434758
vt 0.724286 0.369829
vt 0.412123 0.263114
vt 0.871860 0.261599
vt 0.123287 0.291490
vt 0.849578 0.724048
vt 0.282725 0.663564
vt 0.618954 0.482981
s 1
usemtl マテリアル.003
f 15/1/1 16/2/1 14/3/2
f 16/2/3 19/4/3 18/5/3
f 4/6/4 14/3/4 3/7/5
f 1/8/6 15/1/6 4/6/6
f 5/9/7 17/10/7 15/1/8
f 17/10/9 7/11/9 19/4/10
f 19/4/11 2/12/11 8/13/11
f 18/5/12 8/13/12 9/14/12
f 20/15/13 23/16/13 22/17/13
f 9/14/14 21/18/14 20/15/14
f 2/12/15 21/18/15 8/13/15
f 10/19/16 23/16/16 21/18/16
f 25/20/17 26/21/17 24/22/17
f 25/20/18 13/23/19 27/24/20
f 27/24/21 1/8/21 4/6/21
f 26/21/22 4/6/22 3/7/22
f 29/25/23 30/26/24 28/27/25
f 30/26/26 33/28/26 32/29/26
f 11/30/27 29/25/27 28/27/27
f 2/12/28 29/25/28 10/19/28
f 7/11/29 31/31/29 29/25/30
f 31/31/31 5/9/31 33/28/32
f 33/28/33 1/8/33 13/23/33
f 33/28/34 12/32/35 32/29/36
f 48/33/37 49/34/38 47/35/39
f 49/34/40 52/36/40 51/37/40
f 37/38/41 47/35/41 36/39/42
f 34/40/43 48/33/43 37/38/43
f 38/41/44 50/42/44 48/33/45
f 50/42/46 40/43/46 52/36/47
f 52/36/48 35/44/48 41/45/48
f 51/37/49 41/45/49 42/46/49
f 53/47/50 56/48/50 55/49/50
f 41/45/51 53/47/51 42/46/51
f 35/44/52 54/50/52 41/45/52
f 43/51/53 56/48/53 54/50/53
f 58/52/54 59/53/54 57/54/54
f 58/52/55 46/55/55 60/56/55
f 60/56/56 34/40/56 37/38/56
f 59/53/57 37/38/57 36/39/57
f 62/57/58 63/58/58 61/59/59
f 63/58/60 66/60/60 65/61/60
f 43/51/61 61/59/61 44/62/62
f 35/44/63 62/57/63 43/51/63
f 40/43/64 64/63/64 62/57/65
f 64/63/66 38/41/66 66/60/66
f 66/60/67 34/40/67 46/55/67
f 65/61/68 46/55/68 45/64/68
f 81/65/69 82/66/69 80/67/70
f 82/66/71 85/68/71 84/69/71
f 70/70/72 80/67/72 69/71/73
f 67/72/74 81/65/74 70/70/74
f 71/73/75 83/74/75 81/65/76
f 83/74/77 73/75/77 85/68/78
f 85/68/79 68/76/79 74/77/79
f 84/69/80 74/77/80 75/78/80
f 86/79/81 89/80/81 88/81/81
f 74/77/82 86/79/82 75/78/82
f 68/76/83 87/82/83 74/77/83
f 76/83/84 89/80/84 87/82/84
f 91/84/85 92/85/85 90/86/85
f 91/84/86 79/87/86 93/88/87
f 93/88/88 67/72/88 70/70/88
f 92/85/89 70/70/89 69/71/89
f 95/89/90 96/90/91 94/91/92
f 96/90/93 99/92/93 98/93/93
f 77/94/94 95/89/94 94/91/94
f 68/76/95 95/89/95 76/83/95
f 73/75/96 97/95/96 95/89/97
f 97/95/98 71/73/98 99/92/99
f 99/92/100 67/72/100 79/87/100
f 99/92/101 78/96/102 98/93/103
f 114/97/104 115/98/104 113/99/105
f 115/98/106 118/100/106 117/101/106
f 103/102/107 113/99/107 102/103/108
f 100/104/109 114/97/109 103/102/109
f 104/105/110 116/106/110 114/97/111
f 116/106/112 106/107/112 118/100/113
f 118/100/114 101/108/114 107/109/114
f 117/101/115 107/109/115 108/110/115
f 120/111/116 121/112/116 119/113/116
f 107/109/117 119/113/117 108/110/117
f 101/108/118 120/111/118 107/109/118
f 109/114/119 122/115/119 120/111/119
f 123/116/120 126/117/120 125/118/120
f 124/119/121 112/120/122 126/117/123
f 126/117/124 100/104/124 103/102/124
f 125/118/125 103/102/125 102/103/125
f 127/121/126 130/122/126 129/123/126
f 130/122/127 131/124/127 129/123/127
f 110/125/128 128/126/128 127/121/128
f 101/108/129 128/126/129 109/114/129
f 106/107/130 130/122/130 128/126/131
f 130/122/132 104/105/132 132/127/133
f 132/127/134 100/104/134 112/120/134
f 132/127/135 111/128/135 131/124/135
f 147/129/136 148/130/136 146/131/137
f 148/130/138 151/132/138 150/133/138
f 136/134/139 146/131/139 135/135/140
f 133/136/141 147/129/141 136/134/141
f 137/137/142 149/138/142 147/129/143
f 149/138/144 139/139/144 151/132/145
f 151/132/146 134/140/146 140/141/146
f 150/133/147 140/141/147 141/142/147
f 152/143/148 155/144/148 154/145/148
f 140/141/149 152/143/149 141/142/149
f 134/140/150 153/146/150 140/141/150
f 142/147/151 155/144/151 153/146/151
f 157/148/152 158/149/152 156/150/152
f 157/148/153 145/151/154 159/152/155
f 159/152/156 133/136/156 136/134/156
f 158/149/157 136/134/157 135/135/157
f 160/153/158 163/154/158 162/155/158
f 163/154/159 164/156/159 162/155/159
f 143/157/160 161/158/160 160/153/160
f 134/140/161 161/158/161 142/147/161
f 139/139/162 163/154/162 161/158/163
f 163/154/164 137/137/164 165/159/165
f 165/159/166 133/136/166 145/151/166
f 165/159/167 144/160/167 164/156/167
f 180/161/168 181/162/168 179/163/169
f 181/162/170 184/164/170 183/165/170
f 169/166/171 179/163/171 168/167/172
f 166/168/173 180/161/173 169/166/173
f 170/169/174 182/170/174 180/161/174
f 182/170/175 172/171/175 184/164/176
f 184/164/177 167/172/177 173/173/177
f 183/165/178 173/173/178 174/174/178
f 185/175/179 188/176/179 187/177/179
f 173/173/180 185/175/180 174/174/180
f 167/172/181 186/178/181 173/173/181
f 175/179/182 188/176/182 186/178/182
f 190/180/183 191/181/183 189/182/183
f 190/180/184 178/183/185 192/184/186
f 192/184/187 166/168/187 169/166/187
f 191/181/188 169/166/188 168/167/188
f 193/185/189 196/186/189 195/187/189
f 196/186/190 197/188/190 195/187/190
f 176/189/191 194/190/191 193/185/191
f 167/172/192 194/190/192 175/179/192
f 172/171/193 196/186/193 194/190/194
f 196/186/195 170/169/195 198/191/195
f 198/191/196 166/168/196 178/183/196
f 198/191/197 177/192/198 197/188/199
f 15/1/1 17/10/200 16/2/1
f 16/2/201 17/10/201 19/4/201
f 4/6/4 15/1/202 14/3/4
f 1/8/203 5/9/203 15/1/203
f 5/9/7 6/193/204 17/10/7
f 17/10/9 6/193/205 7/11/9
f 19/4/206 7/11/206 2/12/206
f 18/5/207 19/4/207 8/13/207
f 20/15/208 21/18/208 23/16/208
f 9/14/209 8/13/209 21/18/209
f 2/12/210 10/19/210 21/18/210
f 10/19/211 11/30/211 23/16/211
f 25/20/212 27/24/212 26/21/212
f 25/20/18 12/32/213 13/23/19
f 27/24/214 13/23/214 1/8/214
f 26/21/215 27/24/215 4/6/215
f 29/25/23 31/31/216 30/26/24
f 30/26/217 31/31/217 33/28/217
f 11/30/218 10/19/218 29/25/218
f 2/12/219 7/11/219 29/25/219
f 7/11/29 6/193/29 31/31/29
f 31/31/31 6/193/220 5/9/31
f 33/28/221 5/9/221 1/8/221
f 33/28/34 13/23/222 12/32/35
f 48/33/37 50/42/223 49/34/38
f 49/34/224 50/42/224 52/36/224
f 37/38/41 48/33/225 47/35/41
f 34/40/226 38/41/226 48/33/226
f 38/41/44 39/194/227 50/42/44
f 50/42/46 39/194/228 40/43/46
f 52/36/229 40/43/229 35/44/229
f 51/37/230 52/36/230 41/45/230
f 53/47/231 54/50/231 56/48/231
f 41/45/51 54/50/232 53/47/51
f 35/44/233 43/51/233 54/50/233
f 43/51/234 44/62/234 56/48/234
f 58/52/235 60/56/235 59/53/235
f 58/52/55 45/64/236 46/55/55
f 60/56/237 46/55/237 34/40/237
f 59/53/238 60/56/238 37/38/238
f 62/57/58 64/63/239 63/58/58
f 63/58/240 64/63/240 66/60/240
f 43/51/61 62/57/241 61/59/61
f 35/44/242 40/43/242 62/57/242
f 40/43/64 39/194/243 64/63/64
f 64/63/66 39/194/244 38/41/66
f 66/60/245 38/41/245 34/40/245
f 65/61/246 66/60/246 46/55/246
f 81/65/69 83/74/247 82/66/69
f 82/66/248 83/74/248 85/68/248
f 70/70/72 81/65/249 80/67/72
f 67/72/250 71/73/250 81/65/250
f 71/73/75 72/195/251 83/74/75
f 83/74/77 72/195/252 73/75/77
f 85/68/253 73/75/253 68/76/253
f 84/69/254 85/68/254 74/77/254
f 86/79/255 87/82/255 89/80/255
f 74/77/256 87/82/256 86/79/256
f 68/76/257 76/83/257 87/82/257
f 76/83/258 77/94/258 89/80/258
f 91/84/259 93/88/259 92/85/259
f 91/84/86 78/96/260 79/87/86
f 93/88/261 79/87/261 67/72/261
f 92/85/262 93/88/262 70/70/262
f 95/89/90 97/95/263 96/90/91
f 96/90/264 97/95/264 99/92/264
f 77/94/265 76/83/265 95/89/265
f 68/76/266 73/75/266 95/89/266
f 73/75/96 72/195/267 97/95/96
f 97/95/98 72/195/98 71/73/98
f 99/92/268 71/73/268 67/72/268
f 99/92/101 79/87/269 78/96/102
f 114/97/104 116/106/270 115/98/104
f 115/98/271 116/106/271 118/100/271
f 103/102/107 114/97/272 113/99/107
f 100/104/273 104/105/273 114/97/273
f 104/105/110 105/196/110 116/106/110
f 116/106/112 105/196/274 106/107/112
f 118/100/275 106/107/275 101/108/275
f 117/101/276 118/100/276 107/109/276
f 120/111/277 122/115/277 121/112/277
f 107/109/278 120/111/278 119/113/278
f 101/108/279 109/114/279 120/111/279
f 109/114/280 110/125/280 122/115/280
f 123/116/281 124/119/281 126/117/281
f 124/119/121 111/128/282 112/120/122
f 126/117/283 112/120/283 100/104/283
f 125/118/284 126/117/284 103/102/284
f 127/121/285 128/126/285 130/122/285
f 130/122/286 132/127/286 131/124/286
f 110/125/287 109/114/287 128/126/287
f 101/108/288 106/107/288 128/126/288
f 106/107/130 105/196/289 130/122/130
f 130/122/132 105/196/290 104/105/132
f 132/127/291 104/105/291 100/104/291
f 132/127/292 112/120/292 111/128/292
f 147/129/136 149/138/293 148/130/136
f 148/130/294 149/138/294 151/132/294
f 136/134/139 147/129/295 146/131/139
f 133/136/296 137/137/296 147/129/296
f 137/137/142 138/197/297 149/138/142
f 149/138/144 138/197/298 139/139/144
f 151/132/299 139/139/299 134/140/299
f 150/133/300 151/132/300 140/141/300
f 152/143/301 153/146/301 155/144/301
f 140/141/302 153/146/302 152/143/302
f 134/140/303 142/147/303 153/146/303
f 142/147/304 143/157/304 155/144/304
f 157/148/305 159/152/305 158/149/305
f 157/148/153 144/160/306 145/151/154
f 159/152/307 145/151/307 133/136/307
f 158/149/308 159/152/308 136/134/308
f 160/153/309 161/158/309 163/154/309
f 163/154/310 165/159/310 164/156/310
f 143/157/311 142/147/311 161/158/311
f 134/140/312 139/139/312 161/158/312
f 139/139/162 138/197/313 163/154/162
f 163/154/164 138/197/314 137/137/164
f 165/159/315 137/137/315 133/136/315
f 165/159/316 145/151/316 144/160/316
f 180/161/168 182/170/317 181/162/168
f 181/162/318 182/170/318 184/164/318
f 169/166/171 180/161/171 179/163/171
f 166/168/319 170/169/319 180/161/319
f 170/169/174 171/198/320 182/170/174
f 182/170/175 171/198/321 172/171/175
f 184/164/322 172/171/322 167/172/322
f 183/165/323 184/164/323 173/173/323
f 185/175/324 186/178/324 188/176/324
f 173/173/180 186/178/325 185/175/180
f 167/172/326 175/179/326 186/178/326
f 175/179/327 176/189/327 188/176/327
f 190/180/328 192/184/328 191/181/328
f 190/180/184 177/192/329 178/183/185
f 192/184/330 178/183/330 166/168/330
f 191/181/331 192/184/331 169/166/331
f 193/185/332 194/190/332 196/186/332
f 196/186/333 198/191/333 197/188/333
f 176/189/334 175/179/334 194/190/334
f 167/172/335 172/171/335 194/190/335
f 172/171/193 171/198/336 196/186/193
f 196/186/195 171/198/337 170/169/195
f 198/191/338 170/169/338 166/168/338
f 198/191/197 178/183/339 177/192/198
