# Blender 4.5.3 LTS
# www.blender.org
mtllib playerBullet.mtl
o Cone
v 0.000000 0.100000 -0.030138
v 0.086603 -0.050000 -0.030138
v -0.086603 -0.050000 -0.030138
v 0.000000 0.000000 0.069862
vn 0.7746 0.4472 0.4472
vn -0.0000 -0.0000 -1.0000
vn -0.0000 -0.8944 0.4472
vn -0.7746 0.4472 0.4472
vt 0.250000 0.490000
vt 0.250000 0.250000
vt 0.457846 0.130000
vt 0.750000 0.490000
vt 0.957846 0.130000
vt 0.542154 0.130000
vt 0.042154 0.130000
s 0
usemtl Material.002
f 1/1/1 4/2/1 2/3/1
f 1/4/2 2/5/2 3/6/2
f 2/3/3 4/2/3 3/7/3
f 3/7/4 4/2/4 1/1/4
