# Blender 4.4.1
# www.blender.org
mtllib ratEnemy.mtl
o ratEnemy
v -0.151293 0.142714 0.125454
v -0.151293 0.142714 -0.159973
v 0.151293 0.142714 0.125454
v 0.151293 0.142714 -0.159973
v -0.184446 -0.000000 0.156728
v -0.173361 0.084672 0.146271
v -0.173361 0.163531 0.067412
v -0.184446 0.173987 -0.017260
v -0.173361 0.163531 -0.101932
v -0.173361 0.084672 -0.180790
v -0.184446 0.000000 -0.191247
v -0.089762 0.163531 -0.180790
v 0.000000 0.173987 -0.191247
v 0.089762 0.163531 -0.180790
v 0.173361 0.084672 -0.180790
v 0.184446 0.000000 -0.191247
v 0.173361 0.163531 -0.101932
v 0.184446 0.173987 -0.017260
v 0.173361 0.163531 0.067412
v 0.173361 0.084672 0.146271
v 0.184446 -0.000000 0.156728
v 0.071673 0.160550 0.218748
v 0.017779 0.164123 0.216990
v -0.071630 0.160436 0.218895
v -0.236570 -0.000000 0.077828
v -0.220581 0.090240 0.072980
v -0.254022 0.000000 -0.017260
v -0.236570 0.095087 -0.017260
v -0.236570 0.000000 -0.112347
v -0.220581 0.090240 -0.107499
v -0.100803 0.000000 -0.240415
v -0.041407 0.060312 -0.284789
v 0.000000 0.064481 -0.285702
v 0.100803 0.000000 -0.240415
v 0.041407 0.060312 -0.284789
v 0.236570 0.000000 -0.112347
v 0.220581 0.090240 -0.107499
v 0.254022 0.000000 -0.017260
v 0.236570 0.095087 -0.017260
v 0.236570 -0.000000 0.077828
v 0.220581 0.090240 0.072980
v 0.100803 -0.000000 0.269176
v 0.095664 0.090240 0.254094
v 0.000000 -0.000000 0.340675
v 0.000000 0.086881 0.269176
v -0.100803 -0.000000 0.269176
v -0.095664 0.090240 0.254094
v 0.095664 0.208074 -0.107499
v 0.000000 0.223155 -0.112347
v -0.095664 0.208074 -0.107499
v 0.100803 0.223155 -0.017260
v 0.000000 0.239618 -0.017260
v -0.100803 0.223155 -0.017260
v 0.078079 0.173387 0.189278
v 0.017825 0.178684 0.186038
v -0.077878 0.173373 0.189202
v -0.095664 0.090240 -0.225333
v -0.043180 -0.001012 -0.284385
v 0.000000 0.095087 -0.240415
v 0.043180 -0.001012 -0.284385
v 0.095664 0.090240 -0.225333
v -0.009164 -0.000131 -0.695307
v 0.009164 -0.000131 -0.695307
v -0.008788 0.012884 -0.695711
v 0.000000 0.013769 -0.696624
v 0.008788 0.012884 -0.695711
v 0.089762 0.140231 0.244080
v -0.017903 0.164131 0.217077
v 0.095664 0.208074 0.072980
v -0.017947 0.178804 0.185880
v 0.000000 0.150688 0.254536
v -0.089762 0.140231 0.244080
v 0.000000 0.223155 0.077828
v -0.095664 0.208074 0.072980
v 0.059823 0.195526 0.227369
v 0.031059 0.199099 0.226431
v 0.063242 0.208363 0.211641
v 0.031083 0.213660 0.209912
v -0.033349 0.199107 0.225396
v -0.057963 0.195412 0.226229
v -0.033370 0.213780 0.211104
v -0.060826 0.208349 0.212625
vn -0.9673 0.1792 0.1792
vn -0.9673 0.1809 0.1775
vn -0.9673 0.1809 -0.1775
vn -0.8216 0.1747 0.5427
vn -0.8216 0.1746 0.5427
vn -0.7305 0.4591 0.5055
vn -0.8216 0.5427 0.1746
vn -0.8216 0.5426 0.1747
vn -0.8216 0.5427 -0.1747
vn -0.8216 0.5427 -0.1746
vn -0.8216 0.5426 -0.1747
vn -0.7305 0.4591 -0.5055
vn -0.8216 0.1746 -0.5427
vn -0.9962 0.0268 -0.0824
vn -0.9962 0.0278 -0.0823
vn -0.9963 0.0262 -0.0824
vn -0.4993 0.1703 -0.8495
vn -0.4993 0.1704 -0.8495
vn -0.4994 0.1703 -0.8495
vn -0.4681 0.4506 -0.7602
vn -0.1585 0.5221 -0.8380
vn -0.1586 0.5221 -0.8380
vn 0.1585 0.5221 -0.8380
vn 0.1586 0.5221 -0.8380
vn 0.4681 0.4506 -0.7602
vn 0.4994 0.1703 -0.8495
vn 0.9673 0.1792 -0.1792
vn 0.9673 0.1809 -0.1775
vn 0.9673 0.1809 0.1775
vn 0.8216 0.1747 -0.5427
vn 0.8216 0.1746 -0.5427
vn 0.7305 0.4591 -0.5055
vn 0.8216 0.5427 -0.1746
vn 0.8216 0.5427 -0.1747
vn 0.8216 0.5426 -0.1747
vn 0.8216 0.5427 0.1746
vn 0.8216 0.5426 0.1747
vn 0.7305 0.4591 0.5055
vn 0.8216 0.1746 0.5427
vn 0.4804 0.5573 0.6772
vn -0.4804 0.5573 0.6772
vn 0.7940 0.1439 0.5906
vn 0.7987 0.2074 0.5648
vn 0.1391 0.2203 0.9655
vn 0.1441 0.2124 0.9665
vn 0.1450 0.2108 0.9667
vn -0.1441 0.2124 0.9665
vn -0.1391 0.2203 0.9655
vn -0.1450 0.2108 0.9667
vn -0.7987 0.2074 0.5648
vn -0.7940 0.1439 0.5906
vn 0.1612 0.9725 -0.1680
vn 0.1604 0.9723 -0.1699
vn 0.1588 0.9723 -0.1715
vn -0.1611 0.9725 -0.1680
vn -0.1604 0.9723 -0.1699
vn -0.1618 0.9724 -0.1683
vn 0.1604 0.9723 0.1699
vn 0.1612 0.9725 0.1680
vn 0.1588 0.9723 0.1715
vn -0.1604 0.9723 0.1699
vn -0.1612 0.9725 0.1680
vn -0.1618 0.9724 0.1683
vn 0.4681 0.7602 -0.4506
vn 0.1585 0.8380 -0.5221
vn 0.1586 0.8380 -0.5221
vn -0.1585 0.8380 -0.5221
vn -0.1584 0.8380 -0.5222
vn -0.4240 0.7584 -0.4950
vn -0.4993 0.8495 -0.1703
vn -0.4992 0.8495 -0.1704
vn -0.4993 0.8495 0.1703
vn -0.4992 0.8495 0.1704
vn -0.5813 0.7494 0.3172
vn -0.9537 0.2263 0.1981
vn 0.0483 -0.2230 0.9736
vn 0.4681 0.7602 0.4506
vn 0.4993 0.8495 0.1703
vn 0.4994 0.8495 0.1703
vn 0.4993 0.8495 -0.1703
vn 0.4994 0.8495 -0.1703
vn -0.6887 0.1575 -0.7077
vn -0.0953 0.8248 -0.5574
vn -0.0000 -0.9997 0.0230
vn 0.1268 0.8347 -0.5359
vn 0.6064 0.0123 -0.7950
vn 0.1005 -0.0280 -0.9945
vn 0.1090 0.9865 -0.1219
vn 0.1048 0.9870 -0.1220
vn 0.1120 0.9862 -0.1217
vn -0.1090 0.9865 -0.1218
vn -0.1048 0.9870 -0.1220
vn -0.1021 0.9873 -0.1221
vn 0.9962 0.0268 -0.0824
vn 0.9962 0.0278 -0.0823
vn 0.9962 0.0283 -0.0823
vn -0.0000 -1.0000 -0.0021
vn 0.0325 0.7909 0.6111
vn 0.1631 0.9217 0.3519
vn 0.2110 0.8844 0.4164
vn 0.6124 0.7274 0.3096
vn -0.1517 0.9051 0.3973
vn -0.0700 0.9529 0.2952
vn -0.3302 0.8379 0.4346
vn -0.0020 0.9252 0.3794
vn 0.0014 0.9252 0.3794
vn -0.0978 0.6943 0.7130
vn 0.0741 0.7646 0.6402
vn 0.9158 0.3640 0.1699
vn -0.0612 -0.2384 0.9692
vn -0.1516 0.5333 -0.8322
vn 0.9225 0.2376 0.3040
vn 0.0937 0.5642 -0.8203
vn -0.9074 0.1921 0.3737
vn -0.9673 0.1775 0.1809
vn -0.9673 0.1775 -0.1809
vn -0.8216 0.1747 0.5426
vn -0.7305 0.5055 0.4591
vn -0.7305 0.5055 -0.4591
vn -0.8216 0.1747 -0.5426
vn -0.9962 0.0283 -0.0823
vn -0.4992 0.1704 -0.8495
vn -0.4240 0.4950 -0.7584
vn -0.1585 0.5222 -0.8380
vn 0.1585 0.5222 -0.8380
vn 0.4240 0.4950 -0.7584
vn 0.4992 0.1704 -0.8495
vn 0.9673 0.1775 -0.1809
vn 0.9673 0.1775 0.1809
vn 0.8216 0.1747 -0.5426
vn 0.7305 0.5055 -0.4591
vn 0.7305 0.5055 0.4591
vn 0.8216 0.1747 0.5426
vn 0.1476 0.1712 0.9741
vn -0.1476 0.1712 0.9741
vn 0.8030 0.1755 0.5696
vn 0.7888 0.4500 0.4186
vn 0.1382 0.2215 0.9653
vn -0.1382 0.2215 0.9653
vn -0.7888 0.4500 0.4186
vn -0.8030 0.1755 0.5696
vn 0.1618 0.9724 -0.1683
vn -0.1588 0.9723 -0.1715
vn 0.1618 0.9724 0.1683
vn -0.1588 0.9723 0.1715
vn 0.4240 0.7584 -0.4950
vn 0.1584 0.8380 -0.5222
vn -0.1586 0.8380 -0.5221
vn -0.4681 0.7602 -0.4506
vn -0.4994 0.8495 -0.1703
vn -0.4994 0.8495 0.1703
vn -0.4681 0.7602 0.4506
vn -0.9372 0.3161 0.1473
vn 0.0637 -0.2042 0.9769
vn 0.5813 0.7494 0.3172
vn 0.4992 0.8495 0.1704
vn 0.4992 0.8495 -0.1704
vn -0.6064 0.0123 -0.7950
vn -0.1268 0.8347 -0.5359
vn 0.0953 0.8248 -0.5574
vn 0.6887 0.1575 -0.7077
vn -0.0000 -0.0943 -0.9955
vn -0.1005 -0.0280 -0.9945
vn 0.1021 0.9873 -0.1221
vn -0.1120 0.9862 -0.1217
vn 0.9963 0.0262 -0.0824
vn 0.1516 0.9057 0.3959
vn 0.0680 0.9532 0.2946
vn 0.0049 0.9252 0.3794
vn 0.3295 0.8373 0.4363
vn -0.0338 0.7913 0.6105
vn -0.1631 0.9219 0.3513
vn -0.6053 0.7326 0.3114
vn -0.2070 0.8852 0.4166
vn -0.0835 0.7133 0.6959
vn 0.0877 0.7472 0.6588
vn 0.9400 0.2387 0.2437
vn -0.0484 -0.2545 0.9659
vn -0.0977 0.5862 -0.8042
vn 0.9236 0.1731 0.3421
vn 0.1316 0.5244 -0.8413
vn -0.9044 0.2873 0.3155
vt 0.113590 0.497601
vt 0.036922 0.623230
vt 0.013038 0.511765
vt 0.172920 0.677113
vt 0.084930 0.726812
vt 0.105673 0.403205
vt 0.008116 0.402883
vt 0.179063 0.409478
vt 0.202310 0.476639
vt 0.139535 0.588993
vt 0.255258 0.642381
vt 0.274109 0.708060
vt 0.221725 0.754541
vt 0.148738 0.815548
vt 0.776061 0.051631
vt 0.959824 0.459610
vt 0.946597 0.464532
vt 0.228677 0.896068
vt 0.300496 0.816594
vt 0.387896 0.721701
vt 0.510217 0.776383
vt 0.418771 0.816469
vt 0.581306 0.663163
vt 0.608265 0.758583
vt 0.706752 0.693431
vt 0.668381 0.588504
vt 0.737777 0.598049
vt 0.810645 0.719614
vt 0.832380 0.608225
vt 0.735338 0.506534
vt 0.818496 0.386145
vt 0.836132 0.498968
vt 0.684921 0.324274
vt 0.776415 0.280175
vt 0.647559 0.523407
vt 0.714132 0.414696
vt 0.599490 0.356144
vt 0.581501 0.287372
vt 0.639048 0.241371
vt 0.720001 0.186889
vt 0.416849 0.016741
vt 0.315088 0.133471
vt 0.277038 0.007963
vt 0.165646 0.092900
vt 0.548662 0.119642
vt 0.630261 0.052592
vt 0.502965 0.157303
vt 0.432576 0.176742
vt 0.427613 0.119528
vt 0.241413 0.234687
vt 0.213771 0.184356
vt 0.172097 0.257732
vt 0.113190 0.251808
vt 0.008116 0.241399
vt 0.558794 0.565149
vt 0.425831 0.498656
vt 0.528182 0.468204
vt 0.352231 0.627773
vt 0.455356 0.596048
vt 0.501250 0.369873
vt 0.291600 0.433480
vt 0.395962 0.400199
vt 0.483746 0.689766
vt 0.346861 0.727944
vt 0.323833 0.530189
vt 0.048520 0.126829
vt 0.031958 0.068569
vt 0.052358 0.087619
vt 0.161713 0.123074
vt 0.108427 0.171815
vt 0.086364 0.123074
vt 0.623677 0.440277
vt 0.496589 0.832021
vt 0.466634 0.911290
vt 0.523100 0.819372
vt 0.560120 0.853932
vt 0.512129 0.866063
vt 0.552471 0.814871
vt 0.623225 0.863501
vt 0.969210 0.457720
vt 0.978607 0.455884
vt 0.982502 0.470314
vt 0.882093 0.018583
vt 0.837774 0.026939
vt 0.992711 0.008651
vt 0.926246 0.009388
vt 0.928930 0.473601
vt 0.692822 0.094361
vt 0.367243 0.238751
vt 0.421586 0.217748
vt 0.378071 0.274044
vt 0.336723 0.204851
vt 0.438187 0.249122
vt 0.330022 0.249946
vt 0.340698 0.285588
vt 0.277122 0.298035
vt 0.273282 0.262495
vt 0.112167 0.191524
vt 0.143144 0.174544
vt 0.128572 0.195087
vt 0.070157 0.080321
vt 0.070207 0.058859
vt 0.139602 0.231737
vt 0.175369 0.209694
vt 0.007318 0.022204
vt 0.106867 0.095076
vt 0.111171 0.059921
vt 0.077519 0.212482
vt 0.228937 0.560014
vt 0.618928 0.645471
vt 0.007318 0.111572
vt 0.961732 0.474435
vt 0.992711 0.455384
vt 0.079490 0.008097
vt 0.067778 0.178350
s 1
usemtl マテリアル
f 26/1/1 27/2/1 25/3/2
f 27/2/3 30/4/3 29/5/3
f 6/6/4 25/3/4 5/7/5
f 1/8/6 26/1/6 6/6/6
f 7/9/7 28/10/7 26/1/8
f 28/10/9 9/11/10 30/4/11
f 30/4/12 2/12/12 10/13/12
f 29/5/13 10/13/13 11/14/13
f 58/15/14 64/16/15 62/17/16
f 10/13/17 31/18/18 11/14/19
f 2/12/20 57/19/20 10/13/20
f 12/20/21 59/21/21 57/22/22
f 59/21/23 14/23/23 61/24/24
f 61/25/25 4/26/25 15/27/25
f 34/28/26 15/27/26 16/29/26
f 37/30/27 38/31/27 36/32/28
f 38/31/29 41/33/29 40/34/29
f 15/27/30 36/32/30 16/29/31
f 4/26/32 37/30/32 15/27/32
f 17/35/33 39/36/34 37/30/35
f 39/36/36 19/37/36 41/33/37
f 41/33/38 3/38/38 20/39/38
f 40/34/39 20/39/39 21/40/39
f 42/41/40 45/42/40 44/43/40
f 45/42/41 46/44/41 44/43/41
f 21/40/42 43/45/42 42/46/42
f 20/39/43 67/47/43 43/45/43
f 67/48/44 45/42/45 43/49/46
f 45/42/47 72/50/48 47/51/49
f 72/52/50 6/6/50 47/53/50
f 47/53/51 5/7/51 46/54/51
f 48/55/52 52/56/53 51/57/54
f 50/58/55 52/56/56 49/59/57
f 52/56/58 69/60/59 51/57/60
f 52/56/61 74/61/62 73/62/63
f 4/26/64 48/55/64 17/35/64
f 14/23/65 49/59/65 48/55/66
f 12/20/67 49/59/67 13/63/68
f 2/12/69 50/58/69 12/64/69
f 9/11/70 53/65/70 50/58/71
f 53/65/72 7/9/72 74/61/73
f 74/61/74 1/8/74 72/52/74
f 55/66/75 76/67/75 78/68/75
f 68/69/76 80/70/76 24/71/76
f 69/60/77 3/38/77 19/37/77
f 51/57/78 19/37/78 18/72/79
f 17/35/80 51/57/80 18/72/81
f 32/73/82 31/74/82 57/22/82
f 32/73/83 59/21/83 33/75/83
f 60/76/84 31/74/84 58/77/84
f 35/78/85 59/21/85 61/24/85
f 35/78/86 34/79/86 60/76/86
f 65/80/87 66/81/87 63/82/87
f 33/83/88 66/81/89 65/80/90
f 33/83/91 64/16/92 32/84/93
f 60/85/94 66/81/95 35/86/96
f 58/15/97 63/87/97 60/88/97
f 23/89/98 67/48/98 22/90/98
f 55/91/99 69/60/99 73/62/99
f 55/91/100 71/92/100 23/89/100
f 54/93/101 67/48/101 69/60/101
f 68/94/102 72/50/102 71/92/102
f 70/95/103 74/61/103 56/96/103
f 56/96/104 72/50/104 24/97/104
f 70/95/105 71/92/106 73/62/106
f 82/98/107 79/99/107 81/100/107
f 77/101/108 76/67/108 75/102/108
f 70/103/109 79/99/109 68/104/109
f 23/105/110 75/102/110 76/67/110
f 70/103/111 82/98/111 81/100/111
f 54/106/112 75/102/112 22/107/112
f 55/66/113 77/101/113 54/106/113
f 56/108/114 80/70/114 82/98/114
f 26/1/1 28/10/115 27/2/1
f 27/2/116 28/10/116 30/4/116
f 6/6/4 26/1/117 25/3/4
f 1/8/118 7/9/118 26/1/118
f 7/9/7 8/109/7 28/10/7
f 28/10/9 8/109/10 9/11/10
f 30/4/119 9/11/119 2/12/119
f 29/5/120 30/4/120 10/13/120
f 58/15/14 32/84/121 64/16/15
f 10/13/17 57/19/122 31/18/18
f 2/12/123 12/64/123 57/19/123
f 12/20/21 13/63/124 59/21/21
f 59/21/23 13/63/125 14/23/23
f 61/25/126 14/110/126 4/26/126
f 34/28/127 61/25/127 15/27/127
f 37/30/27 39/36/128 38/31/27
f 38/31/129 39/36/129 41/33/129
f 15/27/30 37/30/130 36/32/30
f 4/26/131 17/35/131 37/30/131
f 17/35/33 18/72/33 39/36/34
f 39/36/36 18/72/36 19/37/36
f 41/33/132 19/37/132 3/38/132
f 40/34/133 41/33/133 20/39/133
f 42/41/134 43/49/134 45/42/134
f 45/42/135 47/51/135 46/44/135
f 21/40/136 20/39/136 43/45/136
f 20/39/137 3/38/137 67/47/137
f 67/48/44 71/92/138 45/42/45
f 45/42/47 71/92/139 72/50/48
f 72/52/140 1/8/140 6/6/140
f 47/53/141 6/6/141 5/7/141
f 48/55/52 49/59/142 52/56/53
f 50/58/55 53/65/143 52/56/56
f 52/56/58 73/62/144 69/60/59
f 52/56/61 53/65/145 74/61/62
f 4/26/146 14/110/146 48/55/146
f 14/23/65 13/63/147 49/59/65
f 12/20/67 50/58/148 49/59/67
f 2/12/149 9/11/149 50/58/149
f 9/11/70 8/109/150 53/65/70
f 53/65/72 8/109/151 7/9/72
f 74/61/152 7/9/152 1/8/152
f 55/66/153 23/111/153 76/67/153
f 68/69/154 79/99/154 80/70/154
f 69/60/155 67/47/155 3/38/155
f 51/57/78 69/60/156 19/37/78
f 17/35/80 48/55/157 51/57/80
f 32/73/158 58/77/158 31/74/158
f 32/73/159 57/22/159 59/21/159
f 60/76/84 34/79/84 31/74/84
f 35/78/160 33/75/160 59/21/160
f 35/78/161 61/24/161 34/79/161
f 63/82/162 62/112/162 65/80/162
f 62/112/163 64/16/163 65/80/163
f 33/83/88 35/86/164 66/81/89
f 33/83/91 65/80/165 64/16/92
f 60/85/94 63/113/166 66/81/95
f 58/15/97 62/17/97 63/87/97
f 23/89/167 71/92/167 67/48/167
f 55/91/168 54/93/168 69/60/168
f 55/91/169 73/62/106 71/92/106
f 54/93/170 22/90/170 67/48/170
f 68/94/171 24/97/171 72/50/171
f 70/95/172 73/62/172 74/61/172
f 56/96/173 74/61/173 72/50/173
f 70/95/174 68/94/174 71/92/174
f 82/98/175 80/70/175 79/99/175
f 77/101/176 78/68/176 76/67/176
f 70/103/177 81/100/177 79/99/177
f 23/105/178 22/114/178 75/102/178
f 70/103/179 56/108/179 82/98/179
f 54/106/180 77/101/180 75/102/180
f 55/66/181 78/68/181 77/101/181
f 56/108/182 24/115/182 80/70/182
