# Blender 4.4.1
# www.blender.org
mtllib Rock.mtl
o Cube
v 0.606498 0.438214 -0.824087
v 0.900890 -1.000000 -1.220500
v 0.466512 0.425519 0.487437
v 1.000000 -1.000000 1.000000
v -0.453578 0.453578 -0.839451
v -0.713325 -0.713325 -0.985603
v -0.454805 0.471744 0.446884
v -0.811033 -0.844472 0.811033
v -0.866635 -0.866635 0.075043
v 0.573161 0.465199 0.095256
v -0.560009 0.423964 -0.134040
v 1.000000 -1.000000 0.000000
v 0.739442 -0.092184 -0.967667
v -0.855483 -0.033439 0.507031
v 0.725889 -0.023447 0.767474
v -0.521045 0.000000 -0.899417
v 0.826360 -0.069965 0.126398
v -0.911889 -0.050492 -0.274451
v -0.068598 -0.578660 -1.295519
v -0.088995 0.495321 0.635726
v 0.000000 -1.000000 1.000000
v -0.114690 0.532568 -0.910940
v 0.000000 -1.000000 -0.181839
v -0.085316 0.283627 0.108434
v -0.126213 0.000000 -0.976789
v -0.262501 -0.001678 0.978868
v -0.554349 0.554349 -0.597298
v 1.173341 -1.000000 -0.531558
v -0.856663 -0.856663 -0.603640
v 1.036050 0.531303 -0.591537
v 1.139741 -0.080661 -0.415543
v -0.892497 0.000000 -0.610086
v -0.110248 0.559781 0.005781
v -0.596124 -0.892497 -1.224053
v 0.500000 -1.000000 1.000000
v 0.373947 0.531303 -0.892390
v 0.286531 0.399565 0.117289
v 0.415543 -0.046092 -1.070286
v 0.465431 -0.622787 -1.326934
v 0.106264 0.321937 0.698145
v 0.500000 -1.000000 -0.071609
v 0.353715 -0.021768 0.769685
v -0.130586 0.734309 -0.498007
v 0.500000 -0.946248 -1.605868
v -0.495389 0.627845 -0.456139
v -0.327292 0.637406 -0.731172
v 0.244762 0.715131 -0.760367
v 0.513148 0.622042 -0.754876
v 0.669804 0.715131 -0.576805
v 0.548173 0.639608 0.105285
v 0.258268 0.571305 0.127475
v 0.002680 0.716397 -0.800362
v -0.476702 0.587160 -0.165702
v -0.092371 0.456883 0.117742
v -0.125447 0.646695 -0.578070
v 0.369584 0.644165 -0.577437
v 0.126226 0.663774 -0.074314
v 0.089745 0.740132 -0.427841
vn 0.2545 0.9362 -0.2425
vn -0.4941 0.5530 0.6708
vn -0.6772 0.3203 -0.6624
vn -0.0000 -1.0000 -0.0000
vn 0.8517 0.4965 0.1674
vn 0.3494 0.3115 -0.8837
vn 0.7887 0.3381 0.5135
vn -0.0188 -0.9994 -0.0276
vn -0.7939 0.6045 0.0654
vn 0.0685 0.5510 -0.8317
vn -0.9969 -0.0251 0.0742
vn 0.9099 0.0479 0.4121
vn 0.4239 0.3474 -0.8364
vn 0.9715 0.2311 0.0529
vn -0.7999 0.1097 -0.5900
vn -0.4174 0.0916 0.9041
vn 0.1846 0.1615 0.9695
vn -0.3669 0.3128 -0.8761
vn -0.8746 0.4694 0.1217
vn -0.1586 -0.9873 -0.0134
vn -0.2114 0.1403 -0.9673
vn -0.1690 -0.9855 0.0163
vn 0.2611 0.4454 0.8564
vn 0.1128 0.9885 -0.1009
vn -0.6821 0.3830 -0.6230
vn 0.3326 0.5847 -0.7399
vn -0.9980 -0.0552 -0.0322
vn 0.8629 0.1869 -0.4695
vn 0.3301 0.5991 -0.7295
vn 0.6431 -0.2886 -0.7093
vn 0.6742 0.1190 -0.7289
vn -0.8332 0.5444 0.0971
vn -0.1962 0.4374 -0.8776
vn -0.4765 0.1654 0.8635
vn -0.2369 0.9704 0.0471
vn 0.1791 0.4923 0.8518
vn 0.6454 0.6809 0.3460
vn 0.0029 0.2310 0.9730
vn -0.0671 0.4398 -0.8956
vn -0.0425 -0.9977 -0.0526
vn -0.0612 0.2125 -0.9752
vn 0.0959 0.9704 0.2218
vn 0.3946 0.9056 0.1556
vn -0.0132 0.9446 0.3278
vn -0.1138 0.9894 0.0899
vn 0.0397 0.9950 -0.0919
vn -0.2269 0.9717 0.0658
vn -0.2993 0.6267 -0.7195
vn -0.0075 -0.0572 0.9983
vn 0.0867 -0.0448 0.9952
vn -0.5138 0.7585 -0.4009
vn -0.2180 0.9327 0.2874
vn 0.0539 0.8115 -0.5819
vn -0.9929 -0.1186 0.0082
vn -0.2188 0.7780 0.5890
vt 0.750000 0.625000
vt 0.875000 0.625000
vt 0.875000 0.750000
vt 0.750000 0.750000
vt 0.500000 0.875000
vt 0.625000 0.875000
vt 0.625000 1.000000
vt 0.500000 1.000000
vt 0.500000 0.187500
vt 0.625000 0.187500
vt 0.625000 0.250000
vt 0.500000 0.250000
vt 0.312500 0.625000
vt 0.375000 0.625000
vt 0.375000 0.750000
vt 0.312500 0.750000
vt 0.500000 0.625000
vt 0.625000 0.625000
vt 0.625000 0.750000
vt 0.500000 0.750000
vt 0.500000 0.437500
vt 0.625000 0.437500
vt 0.625000 0.500000
vt 0.500000 0.500000
vt 0.500000 0.562500
vt 0.625000 0.562500
vt 0.312500 0.562500
vt 0.375000 0.562500
vt 0.500000 0.000000
vt 0.625000 0.000000
vt 0.625000 0.125000
vt 0.500000 0.125000
vt 0.625000 0.375000
vt 0.375000 0.000000
vt 0.375000 0.125000
vt 0.375000 0.437500
vt 0.375000 0.500000
vt 0.375000 0.187500
vt 0.375000 0.250000
vt 0.375000 0.875000
vt 0.375000 1.000000
vt 0.375000 0.812500
vt 0.500000 0.812500
vt 0.500000 0.375000
vt 0.375000 0.375000
vt 0.125000 0.562500
vt 0.250000 0.562500
vt 0.250000 0.625000
vt 0.125000 0.625000
vt 0.250000 0.750000
vt 0.125000 0.750000
vt 0.625000 0.812500
vt 0.687500 0.625000
vt 0.687500 0.750000
vt 0.125000 0.500000
vt 0.250000 0.500000
vt 0.312500 0.500000
vt 0.750000 0.562500
vt 0.875000 0.562500
vt 0.687500 0.562500
vt 0.687500 0.500000
vt 0.750000 0.500000
vt 0.875000 0.500000
s 0
usemtl Material
f 24/1/1 11/2/1 7/3/1 20/4/1
f 26/5/2 20/6/2 7/7/2 14/8/2
f 32/9/3 27/10/3 5/11/3 16/12/3
f 41/13/4 12/14/4 4/15/4 35/16/4
f 17/17/5 10/18/5 3/19/5 15/20/5
f 38/21/6 36/22/6 1/23/6 13/24/6
f 31/25/7 30/26/7 10/18/7 17/17/7
f 44/27/8 28/28/8 12/14/8 41/13/8
f 14/29/9 7/30/9 11/31/9 18/32/9
f 36/22/10 22/33/10 52/33/10 47/22/10
f 8/34/11 14/29/11 18/32/11 9/35/11
f 28/28/12 31/25/12 17/17/12 12/14/12
f 39/36/13 38/21/13 13/24/13 2/37/13
f 12/14/14 17/17/14 15/20/14 4/15/14
f 29/38/15 32/9/15 16/12/15 6/39/15
f 21/40/16 26/5/16 14/8/16 8/41/16
f 35/42/17 42/43/17 26/5/17 21/40/17
f 6/39/18 16/12/18 25/44/18 19/45/18
f 27/10/19 11/31/19 53/31/19 45/10/19
f 29/46/20 34/47/20 23/48/20 9/49/20
f 16/12/21 5/11/21 22/33/21 25/44/21
f 9/49/22 23/48/22 21/50/22 8/51/22
f 42/43/23 40/52/23 20/6/23 26/5/23
f 37/53/24 24/1/24 20/4/24 40/54/24
f 6/55/25 19/56/25 34/47/25 29/46/25
f 30/26/26 1/23/26 48/23/26 49/26/26
f 9/35/27 18/32/27 32/9/27 29/38/27
f 2/37/28 13/24/28 31/25/28 28/28/28
f 1/23/29 36/22/29 47/22/29 48/23/29
f 39/57/30 2/37/30 28/28/30 44/27/30
f 13/24/31 1/23/31 30/26/31 31/25/31
f 18/32/32 11/31/32 27/10/32 32/9/32
f 19/56/33 39/57/33 44/27/33 34/47/33
f 11/2/34 24/1/34 54/1/34 53/2/34
f 10/18/35 37/53/35 40/54/35 3/19/35
f 15/20/36 3/19/36 40/52/36 42/43/36
f 10/18/37 30/26/37 49/26/37 50/18/37
f 4/15/38 15/20/38 42/43/38 35/42/38
f 19/45/39 25/44/39 38/21/39 39/36/39
f 34/47/40 44/27/40 41/13/40 23/48/40
f 25/44/41 22/33/41 36/22/41 38/21/41
f 23/48/4 41/13/4 35/16/4 21/50/4
f 55/58/42 45/59/42 53/2/42 54/1/42
f 51/53/43 56/60/43 58/60/43 57/53/43
f 47/61/44 52/62/44 55/58/44 56/60/44
f 52/62/45 46/63/45 45/59/45 55/58/45
f 48/23/46 47/61/46 56/60/46 49/26/46
f 49/26/47 56/60/47 51/53/47 50/18/47
f 22/33/48 5/11/48 46/11/48 52/33/48
f 24/1/49 37/53/49 51/53/49 54/1/49
f 37/53/50 10/18/50 50/18/50 51/53/50
f 5/11/51 27/10/51 45/10/51 46/11/51
f 58/60/52 43/58/52 33/1/52 57/53/52
f 56/60/53 55/58/53 43/58/53 58/60/53
f 55/58/54 54/1/54 33/1/54 43/58/54
f 54/1/55 51/53/55 57/53/55 33/1/55
