# Blender 4.4.1
# www.blender.org
mtllib ShotLine.mtl
o 平面
v -0.000000 0.000000 1.487717
v -1.000000 0.000000 -0.843808
v 1.000000 0.000000 -0.843808
v 0.800000 0.000000 -1.153120
v 0.600000 0.000000 -1.296119
v 0.400000 0.000000 -1.414527
v 0.200000 0.000000 -1.495207
v 0.000000 0.000000 -1.525019
v -0.200000 0.000000 -1.495207
v -0.400000 0.000000 -1.414527
v -0.600000 0.000000 -1.296119
v -0.800000 0.000000 -1.153120
vn -0.0000 1.0000 -0.0000
vt 1.000000 0.000000
vt 1.000000 1.000000
vt 0.900000 1.000000
vt 0.100000 0.000000
vt 0.100000 1.000000
vt 0.000000 1.000000
vt 0.200000 0.000000
vt 0.200000 1.000000
vt 0.300000 0.000000
vt 0.300000 1.000000
vt 0.400000 0.000000
vt 0.400000 1.000000
vt 0.500000 0.000000
vt 0.500000 1.000000
vt 0.600000 0.000000
vt 0.600000 1.000000
vt 0.700000 0.000000
vt 0.700000 1.000000
vt 0.800000 0.000000
vt 0.800000 1.000000
vt 0.900000 0.000000
s 0
usemtl マテリアル
f 1/1/1 3/2/1 4/3/1
f 1/4/1 12/5/1 2/6/1
f 1/7/1 11/8/1 12/5/1
f 1/9/1 10/10/1 11/8/1
f 1/11/1 9/12/1 10/10/1
f 1/13/1 8/14/1 9/12/1
f 1/15/1 7/16/1 8/14/1
f 1/17/1 6/18/1 7/16/1
f 1/19/1 5/20/1 6/18/1
f 1/21/1 4/3/1 5/20/1
