# Blender 4.4.1
# www.blender.org
mtllib shotGun.mtl
o 立方体
v 0.079399 -0.107919 -0.388110
v 0.079399 0.107919 -0.388110
v 0.079399 -0.107919 0.042708
v 0.079399 0.107919 0.042708
v -0.079399 -0.107919 -0.388110
v -0.079399 0.107919 -0.388110
v -0.079399 -0.107919 0.042708
v -0.079399 0.107919 0.042708
v 0.058140 0.055532 0.207300
v 0.058140 -0.084032 0.100950
v -0.058140 -0.084032 0.100950
v -0.058140 0.055532 0.207300
v 0.079399 0.076124 0.213109
v 0.079399 -0.104624 0.095141
v -0.079399 -0.104624 0.095141
v -0.079399 0.076124 0.213109
v 0.058140 -0.078408 0.372456
v 0.058140 -0.167765 0.221448
v -0.058140 -0.167765 0.221448
v -0.058140 -0.078408 0.372456
v 0.058140 -0.054749 0.447798
v 0.058140 -0.219506 0.387438
v -0.058140 -0.219506 0.387438
v -0.058140 -0.054749 0.447798
v 0.073995 -0.045821 0.957749
v 0.073995 -0.314943 0.949188
v -0.073995 -0.314943 0.949188
v -0.073995 -0.045821 0.957749
v 0.000000 0.090117 -0.376443
v 0.000000 0.081135 -1.147904
v -0.006874 0.089440 -0.376443
v -0.005122 0.080630 -1.147904
v -0.013484 0.087435 -0.376443
v -0.010047 0.079136 -1.147904
v -0.019576 0.084179 -0.376443
v -0.014586 0.076710 -1.147904
v -0.024915 0.079797 -0.376443
v -0.018564 0.073445 -1.147904
v -0.029298 0.074457 -0.376443
v -0.021829 0.069467 -1.147904
v -0.032554 0.068365 -0.376443
v -0.024255 0.064928 -1.147904
v -0.034559 0.061755 -0.376443
v -0.025749 0.060003 -1.147904
v -0.035236 0.054881 -0.376443
v -0.026254 0.054881 -1.147904
v -0.034559 0.048007 -0.376443
v -0.025749 0.049759 -1.147904
v -0.032554 0.041397 -0.376443
v -0.024255 0.044834 -1.147904
v -0.029298 0.035305 -0.376443
v -0.021829 0.040295 -1.147904
v -0.024915 0.029966 -0.376443
v -0.018564 0.036317 -1.147904
v -0.019576 0.025584 -0.376443
v -0.014586 0.033052 -1.147904
v -0.013484 0.022328 -0.376443
v -0.010047 0.030626 -1.147904
v -0.006874 0.020322 -0.376443
v -0.005122 0.029132 -1.147904
v 0.000000 0.019645 -0.376443
v 0.000000 0.028627 -1.147904
v 0.006874 0.020322 -0.376443
v 0.005122 0.029132 -1.147904
v 0.013484 0.022328 -0.376443
v 0.010047 0.030626 -1.147904
v 0.019576 0.025584 -0.376443
v 0.014586 0.033052 -1.147904
v 0.024915 0.029966 -0.376443
v 0.018564 0.036317 -1.147904
v 0.029298 0.035305 -0.376443
v 0.021829 0.040295 -1.147904
v 0.032554 0.041397 -0.376443
v 0.024255 0.044834 -1.147904
v 0.034559 0.048007 -0.376443
v 0.025749 0.049759 -1.147904
v 0.035236 0.054881 -0.376443
v 0.026254 0.054881 -1.147904
v 0.034559 0.061755 -0.376443
v 0.025749 0.060003 -1.147904
v 0.032554 0.068365 -0.376443
v 0.024255 0.064928 -1.147904
v 0.029298 0.074457 -0.376443
v 0.021829 0.069467 -1.147904
v 0.024915 0.079797 -0.376443
v 0.018564 0.073445 -1.147904
v 0.019576 0.084179 -0.376443
v 0.014586 0.076710 -1.147904
v 0.013484 0.087435 -0.376443
v 0.010047 0.079136 -1.147904
v 0.006874 0.089440 -0.376443
v 0.005122 0.080630 -1.147904
v -0.006874 0.089440 -1.147904
v 0.000000 0.090117 -1.147904
v -0.013484 0.087435 -1.147904
v -0.019576 0.084179 -1.147904
v -0.024915 0.079797 -1.147904
v -0.029298 0.074457 -1.147904
v -0.032554 0.068365 -1.147904
v -0.034559 0.061755 -1.147904
v -0.035236 0.054881 -1.147904
v -0.034559 0.048007 -1.147904
v -0.032554 0.041397 -1.147904
v -0.029298 0.035305 -1.147904
v -0.024915 0.029966 -1.147904
v -0.019576 0.025584 -1.147904
v -0.013484 0.022327 -1.147904
v -0.006874 0.020322 -1.147904
v 0.000000 0.019645 -1.147904
v 0.006874 0.020322 -1.147904
v 0.013484 0.022327 -1.147904
v 0.019576 0.025584 -1.147904
v 0.024915 0.029966 -1.147904
v 0.029298 0.035305 -1.147904
v 0.032554 0.041397 -1.147904
v 0.034559 0.048007 -1.147904
v 0.035236 0.054881 -1.147904
v 0.034559 0.061755 -1.147904
v 0.032554 0.068365 -1.147904
v 0.029298 0.074457 -1.147904
v 0.024915 0.079797 -1.147904
v 0.019576 0.084179 -1.147904
v 0.013484 0.087435 -1.147904
v 0.006874 0.089440 -1.147904
v -0.005122 0.080630 -1.120548
v -0.000000 0.081135 -1.120548
v -0.010047 0.079136 -1.120548
v -0.014586 0.076710 -1.120548
v -0.018564 0.073445 -1.120548
v -0.021829 0.069467 -1.120548
v -0.024255 0.064928 -1.120548
v -0.025749 0.060003 -1.120548
v -0.026254 0.054881 -1.120548
v -0.025749 0.049759 -1.120548
v -0.024255 0.044834 -1.120548
v -0.021829 0.040295 -1.120548
v -0.018564 0.036317 -1.120548
v -0.014586 0.033052 -1.120548
v -0.010047 0.030626 -1.120548
v -0.005122 0.029132 -1.120548
v -0.000000 0.028627 -1.120548
v 0.005122 0.029132 -1.120548
v 0.010047 0.030626 -1.120548
v 0.014586 0.033052 -1.120548
v 0.018564 0.036317 -1.120548
v 0.021829 0.040295 -1.120548
v 0.024255 0.044834 -1.120548
v 0.025749 0.049759 -1.120548
v 0.026254 0.054881 -1.120548
v 0.025749 0.060003 -1.120548
v 0.024255 0.064928 -1.120548
v 0.021829 0.069467 -1.120548
v 0.018564 0.073445 -1.120548
v 0.014586 0.076710 -1.120548
v 0.010047 0.079136 -1.120548
v 0.005122 0.080630 -1.120548
v -0.000179 -0.018798 -0.377570
v -0.000179 -0.018798 -0.982480
v -0.003751 -0.019150 -0.377570
v -0.003751 -0.019150 -0.982480
v -0.007186 -0.020192 -0.377570
v -0.007186 -0.020192 -0.982480
v -0.010351 -0.021884 -0.377570
v -0.010351 -0.021884 -0.982480
v -0.013126 -0.024161 -0.377570
v -0.013126 -0.024161 -0.982480
v -0.015403 -0.026935 -0.377570
v -0.015403 -0.026935 -0.982480
v -0.017095 -0.030101 -0.377570
v -0.017095 -0.030101 -0.982480
v -0.018137 -0.033536 -0.377570
v -0.018137 -0.033536 -0.982480
v -0.018489 -0.037108 -0.377570
v -0.018489 -0.037108 -0.982480
v -0.018137 -0.040680 -0.377570
v -0.018137 -0.040680 -0.982480
v -0.017095 -0.044114 -0.377570
v -0.017095 -0.044114 -0.982480
v -0.015403 -0.047280 -0.377570
v -0.015403 -0.047280 -0.982480
v -0.013126 -0.050054 -0.377570
v -0.013126 -0.050054 -0.982480
v -0.010351 -0.052331 -0.377570
v -0.010351 -0.052331 -0.982480
v -0.007186 -0.054023 -0.377570
v -0.007186 -0.054023 -0.982480
v -0.003751 -0.055065 -0.377570
v -0.003751 -0.055065 -0.982480
v -0.000179 -0.055417 -0.377570
v -0.000179 -0.055417 -0.982480
v 0.003393 -0.055065 -0.377570
v 0.003393 -0.055065 -0.982480
v 0.006827 -0.054023 -0.377570
v 0.006827 -0.054023 -0.982480
v 0.009993 -0.052331 -0.377570
v 0.009993 -0.052331 -0.982480
v 0.012767 -0.050054 -0.377570
v 0.012767 -0.050054 -0.982480
v 0.015044 -0.047280 -0.377570
v 0.015044 -0.047280 -0.982480
v 0.016736 -0.044114 -0.377570
v 0.016736 -0.044114 -0.982480
v 0.017778 -0.040680 -0.377570
v 0.017778 -0.040680 -0.982480
v 0.018130 -0.037108 -0.377570
v 0.018130 -0.037108 -0.982480
v 0.017778 -0.033536 -0.377570
v 0.017778 -0.033536 -0.982480
v 0.016736 -0.030101 -0.377570
v 0.016736 -0.030101 -0.982480
v 0.015044 -0.026935 -0.377570
v 0.015044 -0.026935 -0.982480
v 0.012767 -0.024161 -0.377570
v 0.012767 -0.024161 -0.982480
v 0.009993 -0.021884 -0.377570
v 0.009993 -0.021884 -0.982480
v 0.006827 -0.020192 -0.377570
v 0.006827 -0.020192 -0.982480
v 0.003393 -0.019150 -0.377570
v 0.003393 -0.019150 -0.982480
v 0.023872 -0.061741 -1.010851
v 0.023872 0.107980 -1.010851
v 0.023872 -0.061741 -0.979785
v 0.023872 0.107980 -0.979785
v -0.024231 -0.061741 -1.010851
v -0.024231 0.107980 -1.010851
v -0.024231 -0.061741 -0.979785
v -0.024231 0.107980 -0.979785
v -0.000179 -0.007248 -0.659362
v -0.000179 -0.007248 -0.918158
v -0.006005 -0.007822 -0.659362
v -0.006005 -0.007822 -0.918158
v -0.011606 -0.009521 -0.659362
v -0.011606 -0.009521 -0.918158
v -0.016768 -0.012280 -0.659362
v -0.016768 -0.012280 -0.918158
v -0.021293 -0.015994 -0.659362
v -0.021293 -0.015994 -0.918158
v -0.025007 -0.020518 -0.659362
v -0.025007 -0.020518 -0.918158
v -0.027766 -0.025681 -0.659362
v -0.027766 -0.025681 -0.918158
v -0.029465 -0.031282 -0.659362
v -0.029465 -0.031282 -0.918158
v -0.030039 -0.037108 -0.659362
v -0.030039 -0.037108 -0.918158
v -0.029465 -0.042933 -0.659362
v -0.029465 -0.042933 -0.918158
v -0.027766 -0.048534 -0.659362
v -0.027766 -0.048534 -0.918158
v -0.025007 -0.053697 -0.659362
v -0.025007 -0.053697 -0.918158
v -0.021293 -0.058222 -0.659362
v -0.021293 -0.058222 -0.918158
v -0.016768 -0.061935 -0.659362
v -0.016768 -0.061935 -0.918158
v -0.011606 -0.064694 -0.659362
v -0.011606 -0.064694 -0.918158
v -0.006005 -0.066394 -0.659362
v -0.006005 -0.066394 -0.918158
v -0.000179 -0.066967 -0.659362
v -0.000179 -0.066967 -0.918158
v 0.005646 -0.066394 -0.659362
v 0.005646 -0.066394 -0.918158
v 0.011248 -0.064694 -0.659362
v 0.011248 -0.064694 -0.918158
v 0.016410 -0.061935 -0.659362
v 0.016410 -0.061935 -0.918158
v 0.020935 -0.058222 -0.659362
v 0.020935 -0.058222 -0.918158
v 0.024648 -0.053697 -0.659362
v 0.024648 -0.053697 -0.918158
v 0.027408 -0.048534 -0.659362
v 0.027408 -0.048534 -0.918158
v 0.029107 -0.042933 -0.659362
v 0.029107 -0.042933 -0.918158
v 0.029680 -0.037108 -0.659362
v 0.029680 -0.037108 -0.918158
v 0.029107 -0.031282 -0.659362
v 0.029107 -0.031282 -0.918158
v 0.027408 -0.025681 -0.659362
v 0.027408 -0.025681 -0.918158
v 0.024648 -0.020518 -0.659362
v 0.024648 -0.020518 -0.918158
v 0.020935 -0.015994 -0.659362
v 0.020935 -0.015994 -0.918158
v 0.016410 -0.012280 -0.659362
v 0.016410 -0.012280 -0.918158
v 0.011248 -0.009521 -0.659362
v 0.011248 -0.009521 -0.918158
v 0.005646 -0.007822 -0.659362
v 0.005646 -0.007822 -0.918158
v 0.014182 -0.147621 0.026744
v 0.014182 -0.100865 0.026744
v 0.014182 -0.147621 0.012708
v 0.014182 -0.100865 0.012708
v -0.014182 -0.147621 0.026744
v -0.014182 -0.100865 0.026744
v -0.014182 -0.147621 0.012708
v -0.014182 -0.100865 0.012708
v -0.011385 -0.156681 -0.061590
v 0.011385 -0.156681 -0.061590
v -0.011385 -0.155581 -0.048090
v 0.011385 -0.155581 -0.048090
v 0.014182 -0.177199 0.063018
v 0.014182 -0.085059 0.063018
v 0.011385 -0.173715 0.048983
v 0.014182 -0.085059 0.048983
v -0.014182 -0.177199 0.063018
v -0.014182 -0.085059 0.063018
v -0.011385 -0.173715 0.048983
v -0.014182 -0.085059 0.048983
v 0.014182 -0.177199 0.048983
v 0.011385 -0.160171 0.048983
v -0.014182 -0.177199 0.048983
v -0.011385 -0.160171 0.048983
v 0.011385 -0.160171 -0.047856
v -0.011385 -0.160171 -0.047856
v 0.011385 -0.173715 -0.047856
v -0.011385 -0.173715 -0.047856
v 0.011385 -0.084616 -0.053870
v -0.011385 -0.084616 -0.053870
v -0.011385 -0.085716 -0.067370
v 0.011385 -0.085716 -0.067370
vn 1.0000 -0.0000 -0.0000
vn -0.0000 0.9830 0.1834
vn -1.0000 -0.0000 -0.0000
vn -0.0000 -0.0000 -1.0000
vn -0.0000 -1.0000 -0.0000
vn -0.0000 1.0000 -0.0000
vn -0.0000 -0.9980 0.0627
vn 0.3468 -0.5685 0.7460
vn -0.0000 -0.2715 0.9624
vn -0.0000 -0.8212 -0.5706
vn -0.0000 0.7767 0.6299
vn 0.9996 0.0009 -0.0281
vn -0.0000 -0.9547 -0.2976
vn -0.0000 0.9541 -0.2996
vn -0.0000 -0.0318 0.9995
vn -0.9994 0.0115 -0.0313
vn -0.0000 -0.9859 -0.1675
vn -0.0000 0.9998 -0.0175
vn -0.0980 0.9952 -0.0000
vn -0.2903 0.9569 -0.0000
vn -0.4714 0.8819 -0.0000
vn -0.6344 0.7730 -0.0000
vn -0.7730 0.6344 -0.0000
vn -0.8819 0.4714 -0.0000
vn -0.9569 0.2903 -0.0000
vn -0.9952 0.0980 -0.0000
vn -0.9952 -0.0980 -0.0000
vn -0.9569 -0.2903 -0.0000
vn -0.8819 -0.4714 -0.0000
vn -0.7730 -0.6344 -0.0000
vn -0.6344 -0.7730 -0.0000
vn -0.4714 -0.8819 -0.0000
vn -0.2903 -0.9569 -0.0000
vn -0.0980 -0.9952 -0.0000
vn 0.0980 -0.9952 -0.0000
vn 0.2903 -0.9569 -0.0000
vn 0.4714 -0.8819 -0.0000
vn 0.6344 -0.7730 -0.0000
vn 0.7730 -0.6344 -0.0000
vn 0.8819 -0.4714 -0.0000
vn 0.9569 -0.2903 -0.0000
vn 0.9952 -0.0980 -0.0000
vn 0.9952 0.0980 -0.0000
vn 0.9569 0.2903 -0.0000
vn 0.8819 0.4714 -0.0000
vn 0.7730 0.6344 -0.0000
vn 0.6344 0.7730 -0.0000
vn 0.4714 0.8819 -0.0000
vn 0.2903 0.9569 -0.0000
vn 0.0980 0.9952 -0.0000
vn -0.0000 -0.0000 1.0000
vn -0.0000 -0.0509 -0.9987
vn -0.0000 0.6276 0.7785
vn -0.0000 -0.0812 -0.9967
vn -0.0000 0.0812 0.9967
vn -0.2878 -0.5234 0.8020
vn 0.9994 0.0115 -0.0313
vn -0.9996 0.0009 -0.0281
vt 0.271289 0.401113
vt 0.332925 0.321928
vt 0.343580 0.392253
vt 0.196681 0.328259
vt 0.269063 0.302693
vt 0.265413 0.331388
vt 0.472044 0.294885
vt 0.415485 0.380082
vt 0.402152 0.310218
vt 0.196681 0.403054
vt 0.273230 0.475721
vt 0.198622 0.477662
vt 0.237310 0.168843
vt 0.271362 0.126955
vt 0.275924 0.187505
vt 0.331031 0.313361
vt 0.455613 0.269372
vt 0.401011 0.301485
vt 0.263026 0.246648
vt 0.259923 0.295336
vt 0.211500 0.243540
vt 0.272956 0.240413
vt 0.198467 0.298463
vt 0.208397 0.292228
vt 0.202360 0.236183
vt 0.353279 0.187440
vt 0.402682 0.197778
vt 0.383176 0.217305
vt 0.317547 0.192202
vt 0.336955 0.140420
vt 0.371635 0.167949
vt 0.216378 0.114873
vt 0.280532 0.111572
vt 0.388086 0.147782
vt 0.360351 0.039195
vt 0.443779 0.071150
vt 0.422186 0.177634
vt 0.334919 0.125316
vt 0.500553 0.009439
vt 0.489898 0.113579
vt 0.292811 0.021564
vt 0.818602 0.080596
vt 0.825739 0.153264
vt 0.818617 0.153265
vt 0.597817 0.080646
vt 0.604938 0.153292
vt 0.597817 0.153292
vt 0.604923 0.080645
vt 0.612059 0.153292
vt 0.612044 0.080642
vt 0.619180 0.153292
vt 0.619166 0.080640
vt 0.626301 0.153292
vt 0.626288 0.080638
vt 0.633423 0.153292
vt 0.633410 0.080636
vt 0.640545 0.153292
vt 0.640532 0.080634
vt 0.647667 0.153292
vt 0.647654 0.080632
vt 0.654789 0.153292
vt 0.654777 0.080630
vt 0.661911 0.153291
vt 0.661899 0.080628
vt 0.669034 0.153291
vt 0.669022 0.080627
vt 0.676157 0.153291
vt 0.676144 0.080625
vt 0.683280 0.153290
vt 0.683267 0.080624
vt 0.690403 0.153290
vt 0.690390 0.080622
vt 0.697527 0.153289
vt 0.697513 0.080621
vt 0.704650 0.153288
vt 0.704636 0.080619
vt 0.711773 0.153287
vt 0.711758 0.080618
vt 0.718896 0.153286
vt 0.718881 0.080616
vt 0.726019 0.153284
vt 0.726004 0.080615
vt 0.733142 0.153283
vt 0.733127 0.080613
vt 0.740265 0.153281
vt 0.740250 0.080612
vt 0.747388 0.153280
vt 0.747373 0.080610
vt 0.754511 0.153278
vt 0.754496 0.080609
vt 0.761634 0.153277
vt 0.761619 0.080607
vt 0.768756 0.153276
vt 0.768741 0.080606
vt 0.775879 0.153274
vt 0.775864 0.080604
vt 0.783002 0.153273
vt 0.782987 0.080603
vt 0.790125 0.153271
vt 0.790110 0.080602
vt 0.797248 0.153270
vt 0.797233 0.080600
vt 0.804371 0.153268
vt 0.804356 0.080599
vt 0.811494 0.153267
vt 0.811479 0.080597
vt 0.618394 0.065409
vt 0.612858 0.066212
vt 0.616818 0.063518
vt 0.598721 0.071468
vt 0.590879 0.079266
vt 0.593568 0.070479
vt 0.603998 0.071453
vt 0.609171 0.070412
vt 0.614027 0.068371
vt 0.611834 0.079252
vt 0.618373 0.076542
vt 0.622095 0.061624
vt 0.624288 0.072594
vt 0.625001 0.057147
vt 0.629347 0.067532
vt 0.627019 0.052148
vt 0.633342 0.061508
vt 0.637230 0.047493
vt 0.636042 0.054701
vt 0.627859 0.046823
vt 0.636963 0.040290
vt 0.627710 0.041495
vt 0.635270 0.033366
vt 0.626531 0.036369
vt 0.632305 0.026961
vt 0.624370 0.031599
vt 0.628146 0.021290
vt 0.621281 0.027360
vt 0.622960 0.016539
vt 0.617427 0.023830
vt 0.616944 0.012896
vt 0.612944 0.021128
vt 0.610338 0.010502
vt 0.602843 0.018586
vt 0.608020 0.019357
vt 0.597602 0.018791
vt 0.603400 0.009439
vt 0.592475 0.019923
vt 0.596428 0.009701
vt 0.587708 0.022037
vt 0.589648 0.011260
vt 0.583455 0.025009
vt 0.583277 0.014101
vt 0.579895 0.028742
vt 0.577588 0.018130
vt 0.577168 0.033082
vt 0.572831 0.023186
vt 0.575402 0.037839
vt 0.569197 0.029037
vt 0.565549 0.042094
vt 0.566771 0.035390
vt 0.574483 0.042831
vt 0.565618 0.048967
vt 0.574543 0.047973
vt 0.567010 0.055681
vt 0.575594 0.053007
vt 0.569705 0.062042
vt 0.577634 0.057730
vt 0.573612 0.067777
vt 0.580593 0.061978
vt 0.578558 0.072667
vt 0.584359 0.065587
vt 0.584377 0.076560
vt 0.588720 0.068487
vt 0.608465 0.068067
vt 0.622259 0.032859
vt 0.589871 0.066342
vt 0.594272 0.068147
vt 0.593242 0.022225
vt 0.620160 0.060082
vt 0.588921 0.024144
vt 0.622771 0.056001
vt 0.585030 0.026823
vt 0.624528 0.051460
vt 0.581787 0.030196
vt 0.625362 0.046648
vt 0.579282 0.034126
vt 0.625243 0.041777
vt 0.577608 0.038442
vt 0.624229 0.037157
vt 0.576830 0.043028
vt 0.576939 0.047742
vt 0.619477 0.028994
vt 0.577870 0.052298
vt 0.615992 0.025793
vt 0.598957 0.069043
vt 0.579734 0.056566
vt 0.611911 0.023328
vt 0.603765 0.068985
vt 0.582431 0.060413
vt 0.607436 0.021715
vt 0.585897 0.063668
vt 0.602717 0.021014
vt 0.597900 0.021247
vt 0.572578 0.421276
vt 0.565549 0.349558
vt 0.572578 0.349558
vt 0.790494 0.421276
vt 0.783464 0.349558
vt 0.790494 0.349558
vt 0.783464 0.421276
vt 0.776435 0.349558
vt 0.776435 0.421276
vt 0.769405 0.349558
vt 0.769405 0.421276
vt 0.762376 0.349558
vt 0.762376 0.421276
vt 0.755346 0.349558
vt 0.755346 0.421276
vt 0.748317 0.349558
vt 0.748317 0.421276
vt 0.741287 0.349558
vt 0.741287 0.421276
vt 0.734258 0.349558
vt 0.734258 0.421276
vt 0.727228 0.349558
vt 0.727228 0.421276
vt 0.720199 0.349558
vt 0.720199 0.421276
vt 0.713169 0.349558
vt 0.713169 0.421276
vt 0.706140 0.349558
vt 0.706140 0.421276
vt 0.699110 0.349558
vt 0.699110 0.421276
vt 0.692081 0.349558
vt 0.692081 0.421276
vt 0.685051 0.349558
vt 0.685051 0.421276
vt 0.678022 0.349558
vt 0.678022 0.421276
vt 0.670992 0.349558
vt 0.663962 0.421276
vt 0.663962 0.349558
vt 0.656933 0.349558
vt 0.656933 0.421276
vt 0.649903 0.349558
vt 0.649903 0.421276
vt 0.642874 0.349558
vt 0.642874 0.421276
vt 0.635844 0.349558
vt 0.628815 0.421276
vt 0.628815 0.349558
vt 0.621785 0.421276
vt 0.621785 0.349558
vt 0.614756 0.349558
vt 0.614756 0.421276
vt 0.607726 0.349558
vt 0.607726 0.421276
vt 0.600697 0.349558
vt 0.600697 0.421276
vt 0.593667 0.349558
vt 0.586637 0.421276
vt 0.586637 0.349558
vt 0.579608 0.349558
vt 0.579608 0.421276
vt 0.196681 0.568256
vt 0.268399 0.639974
vt 0.196681 0.639974
vt 0.268399 0.568256
vt 0.340116 0.639974
vt 0.340116 0.568256
vt 0.411834 0.639974
vt 0.411834 0.568256
vt 0.483551 0.639974
vt 0.411834 0.711691
vt 0.340116 0.711691
vt 0.340116 0.496539
vt 0.476513 0.798638
vt 0.447261 0.732782
vt 0.453933 0.730568
vt 0.469841 0.800851
vt 0.440589 0.734995
vt 0.463169 0.803065
vt 0.433917 0.737208
vt 0.456497 0.805278
vt 0.427245 0.739421
vt 0.449825 0.807491
vt 0.420573 0.741635
vt 0.443153 0.809704
vt 0.413901 0.743848
vt 0.436481 0.811918
vt 0.407229 0.746061
vt 0.429809 0.814131
vt 0.400556 0.748274
vt 0.423137 0.816344
vt 0.393884 0.750488
vt 0.416465 0.818558
vt 0.387212 0.752701
vt 0.409793 0.820771
vt 0.380540 0.754914
vt 0.403121 0.822984
vt 0.373868 0.757127
vt 0.396449 0.825197
vt 0.367196 0.759341
vt 0.389777 0.827411
vt 0.360524 0.761554
vt 0.383105 0.829624
vt 0.353852 0.763767
vt 0.376433 0.831837
vt 0.347180 0.765981
vt 0.369761 0.834050
vt 0.340508 0.768194
vt 0.363089 0.836264
vt 0.333836 0.770407
vt 0.356417 0.838477
vt 0.327164 0.772620
vt 0.349745 0.840690
vt 0.320492 0.774834
vt 0.343073 0.842903
vt 0.313820 0.777047
vt 0.336401 0.845117
vt 0.307148 0.779260
vt 0.323057 0.849543
vt 0.300476 0.781473
vt 0.293804 0.783687
vt 0.316385 0.851757
vt 0.287132 0.785900
vt 0.303041 0.856183
vt 0.280460 0.788113
vt 0.273788 0.790326
vt 0.296369 0.858396
vt 0.267116 0.792540
vt 0.289697 0.860610
vt 0.260444 0.794753
vt 0.283025 0.862823
vt 0.253772 0.796966
vt 0.276353 0.865036
vt 0.247100 0.799179
vt 0.269681 0.867249
vt 0.240428 0.801393
vt 0.454094 0.814469
vt 0.458412 0.808922
vt 0.465266 0.863935
vt 0.258529 0.791109
vt 0.253212 0.795707
vt 0.245392 0.732943
vt 0.724979 0.172169
vt 0.653646 0.260555
vt 0.659132 0.249749
vt 0.739730 0.330681
vt 0.643011 0.251211
vt 0.565549 0.330681
vt 0.649584 0.243751
vt 0.575420 0.172169
vt 0.177804 0.034170
vt 0.136060 0.027429
vt 0.119885 0.033849
vt 0.143554 0.023784
vt 0.124677 0.045004
vt 0.148585 0.014594
vt 0.154142 0.023264
vt 0.172849 0.045331
vt 0.137919 0.983028
vt 0.127307 0.981001
vt 0.135704 0.990561
vt 0.119885 0.983078
vt 0.117471 0.977050
vt 0.142178 0.981785
vt 0.143957 0.985329
vt 0.152123 0.979381
vt 0.139964 0.983484
vt 0.136545 0.981251
vt 0.162151 0.976706
vt 0.159841 0.982753
vt 0.161711 0.027383
vt 0.009439 0.983078
vt 0.147169 0.016688
vt 0.150139 0.009439
vt 0.151288 0.015349
vt 0.486363 0.365763
vt 0.225672 0.141736
vt 0.546672 0.051867
vt 0.196681 0.009439
vt 0.825724 0.080594
vt 0.565549 0.421276
vt 0.670992 0.421276
vt 0.635844 0.421276
vt 0.593667 0.421276
vt 0.483551 0.568256
vt 0.411834 0.496539
vt 0.329729 0.847330
vt 0.309713 0.853970
vt 0.263008 0.869463
vt 0.463729 0.804324
vt 0.485337 0.869463
vt 0.492313 0.868594
vt 0.483489 0.797769
vt 0.498985 0.866380
vt 0.490500 0.798278
vt 0.505097 0.862908
vt 0.497277 0.800144
vt 0.503560 0.803297
vt 0.510414 0.858310
vt 0.509107 0.807615
vt 0.514732 0.852763
vt 0.513705 0.812932
vt 0.517885 0.846480
vt 0.517177 0.819044
vt 0.520260 0.832692
vt 0.519390 0.825716
vt 0.519751 0.839703
vt 0.478326 0.868954
vt 0.471549 0.867088
vt 0.459719 0.859617
vt 0.455121 0.854300
vt 0.450941 0.820752
vt 0.451648 0.848188
vt 0.449074 0.827529
vt 0.449435 0.841516
vt 0.448566 0.834540
vt 0.224628 0.731437
vt 0.233452 0.802262
vt 0.217956 0.733651
vt 0.226441 0.801753
vt 0.219664 0.799887
vt 0.211844 0.737123
vt 0.213381 0.796734
vt 0.202209 0.747268
vt 0.207834 0.792416
vt 0.199056 0.753551
vt 0.203236 0.787099
vt 0.199764 0.780987
vt 0.197190 0.760328
vt 0.197551 0.774315
vt 0.196681 0.767339
vt 0.206527 0.741721
vt 0.231604 0.730568
vt 0.238615 0.731077
vt 0.251675 0.736096
vt 0.262847 0.785562
vt 0.257222 0.740414
vt 0.266000 0.779279
vt 0.261820 0.745731
vt 0.265293 0.751843
vt 0.267867 0.772502
vt 0.267506 0.758515
vt 0.268375 0.765491
vt 0.140831 0.982261
vt 0.009439 0.033849
s 0
usemtl マテリアル.004
f 2/1/1 3/2/1 1/3/1
f 8/4/2 13/5/2 4/6/2
f 8/7/3 5/8/3 7/9/3
f 6/10/4 1/11/4 5/12/4
f 7/9/5 1/3/5 3/2/5
f 4/6/6 6/10/6 8/4/6
f 11/13/3 20/14/3 12/15/3
f 3/2/1 13/5/1 14/16/1
f 7/9/3 16/17/3 8/7/3
f 3/2/7 15/18/7 7/9/7
f 10/19/8 13/5/8 9/20/8
f 11/21/9 14/22/9 10/19/9
f 9/20/9 16/23/9 12/24/9
f 12/24/8 15/25/8 11/21/8
f 10/26/10 19/27/10 11/28/10
f 9/29/11 20/14/11 17/30/11
f 10/26/1 17/30/1 18/31/1
f 20/14/3 23/32/3 24/33/3
f 22/34/12 25/35/12 26/36/12
f 18/31/13 23/37/13 19/27/13
f 20/14/14 21/38/14 17/30/14
f 17/30/1 22/34/1 18/31/1
f 25/39/15 27/40/15 26/36/15
f 23/32/16 28/41/16 24/33/16
f 23/37/17 26/36/17 27/40/17
f 24/33/18 25/35/18 21/38/18
f 94/42/19 31/43/19 29/44/19
f 93/45/20 33/46/20 31/47/20
f 95/48/21 35/49/21 33/46/21
f 96/50/22 37/51/22 35/49/22
f 97/52/23 39/53/23 37/51/23
f 98/54/24 41/55/24 39/53/24
f 99/56/25 43/57/25 41/55/25
f 100/58/26 45/59/26 43/57/26
f 101/60/27 47/61/27 45/59/27
f 102/62/28 49/63/28 47/61/28
f 103/64/29 51/65/29 49/63/29
f 104/66/30 53/67/30 51/65/30
f 105/68/31 55/69/31 53/67/31
f 106/70/32 57/71/32 55/69/32
f 107/72/33 59/73/33 57/71/33
f 108/74/34 61/75/34 59/73/34
f 109/76/35 63/77/35 61/75/35
f 110/78/36 65/79/36 63/77/36
f 111/80/37 67/81/37 65/79/37
f 112/82/38 69/83/38 67/81/38
f 113/84/39 71/85/39 69/83/39
f 114/86/40 73/87/40 71/85/40
f 115/88/41 75/89/41 73/87/41
f 116/90/42 77/91/42 75/89/42
f 117/92/43 79/93/43 77/91/43
f 118/94/44 81/95/44 79/93/44
f 119/96/45 83/97/45 81/95/45
f 120/98/46 85/99/46 83/97/46
f 121/100/47 87/101/47 85/99/47
f 122/102/48 89/103/48 87/101/48
f 123/104/49 91/105/49 89/103/49
f 124/106/50 29/44/50 91/105/50
f 40/107/39 129/108/39 130/109/39
f 32/110/4 94/111/4 30/112/4
f 34/113/4 93/45/4 32/110/4
f 36/114/4 95/48/4 34/113/4
f 38/115/4 96/116/4 36/114/4
f 40/107/4 97/117/4 38/115/4
f 42/118/4 98/119/4 40/107/4
f 44/120/4 99/121/4 42/118/4
f 46/122/4 100/123/4 44/120/4
f 46/122/4 102/124/4 101/125/4
f 48/126/4 103/127/4 102/124/4
f 50/128/4 104/129/4 103/127/4
f 52/130/4 105/131/4 104/129/4
f 54/132/4 106/133/4 105/131/4
f 56/134/4 107/135/4 106/133/4
f 58/136/4 108/137/4 107/135/4
f 60/138/4 109/139/4 108/137/4
f 64/140/4 109/139/4 62/141/4
f 66/142/4 110/143/4 64/140/4
f 68/144/4 111/145/4 66/142/4
f 70/146/4 112/147/4 68/144/4
f 72/148/4 113/149/4 70/146/4
f 74/150/4 114/151/4 72/148/4
f 76/152/4 115/153/4 74/150/4
f 78/154/4 116/155/4 76/152/4
f 78/154/4 118/156/4 117/157/4
f 80/158/4 119/159/4 118/156/4
f 82/160/4 120/161/4 119/159/4
f 84/162/4 121/163/4 120/161/4
f 86/164/4 122/165/4 121/163/4
f 88/166/4 123/167/4 122/165/4
f 90/168/4 124/169/4 123/167/4
f 92/170/4 94/111/4 124/169/4
f 129/108/4 128/171/4 137/172/4
f 30/112/34 156/173/34 126/174/34
f 66/142/21 144/175/21 68/144/21
f 42/118/40 130/109/40 131/176/40
f 68/144/22 145/177/22 70/146/22
f 44/120/41 131/176/41 132/178/41
f 70/146/23 146/179/23 72/148/23
f 44/120/42 133/180/42 46/122/42
f 72/148/24 147/181/24 74/150/24
f 46/122/43 134/182/43 48/126/43
f 74/150/25 148/183/25 76/152/25
f 48/126/44 135/184/44 50/128/44
f 76/152/26 149/185/26 78/154/26
f 50/128/45 136/186/45 52/130/45
f 80/158/27 149/185/27 150/187/27
f 52/130/46 137/172/46 54/132/46
f 82/160/28 150/187/28 151/188/28
f 54/132/47 138/189/47 56/134/47
f 84/162/29 151/188/29 152/190/29
f 56/134/48 139/191/48 58/136/48
f 32/110/35 126/174/35 125/192/35
f 86/164/30 152/190/30 153/193/30
f 58/136/49 140/194/49 60/138/49
f 34/113/36 125/192/36 127/195/36
f 88/166/31 153/193/31 154/196/31
f 60/138/50 141/197/50 62/141/50
f 36/114/37 127/195/37 128/171/37
f 90/168/32 154/196/32 155/198/32
f 62/141/19 142/199/19 64/140/19
f 38/115/38 128/171/38 129/108/38
f 92/170/33 155/198/33 156/173/33
f 64/140/20 143/200/20 66/142/20
f 158/201/19 159/202/19 157/203/19
f 160/204/20 161/205/20 159/206/20
f 162/207/21 163/208/21 161/205/21
f 164/209/22 165/210/22 163/208/22
f 166/211/23 167/212/23 165/210/23
f 168/213/24 169/214/24 167/212/24
f 170/215/25 171/216/25 169/214/25
f 172/217/26 173/218/26 171/216/26
f 174/219/27 175/220/27 173/218/27
f 176/221/28 177/222/28 175/220/28
f 178/223/29 179/224/29 177/222/29
f 180/225/30 181/226/30 179/224/30
f 182/227/31 183/228/31 181/226/31
f 184/229/32 185/230/32 183/228/32
f 186/231/33 187/232/33 185/230/33
f 188/233/34 189/234/34 187/232/34
f 190/235/35 191/236/35 189/234/35
f 192/237/36 193/238/36 191/236/36
f 193/238/37 196/239/37 195/240/37
f 196/239/38 197/241/38 195/240/38
f 198/242/39 199/243/39 197/241/39
f 200/244/40 201/245/40 199/243/40
f 202/246/41 203/247/41 201/245/41
f 203/247/42 206/248/42 205/249/42
f 205/249/43 208/250/43 207/251/43
f 208/250/44 209/252/44 207/251/44
f 210/253/45 211/254/45 209/252/45
f 212/255/46 213/256/46 211/254/46
f 214/257/47 215/258/47 213/256/47
f 215/258/48 218/259/48 217/260/48
f 218/259/49 219/261/49 217/260/49
f 220/262/50 157/203/50 219/261/50
f 222/263/1 223/264/1 221/265/1
f 224/266/51 227/267/51 223/264/51
f 228/268/3 225/269/3 227/267/3
f 226/270/4 221/271/4 225/269/4
f 227/267/5 221/272/5 223/273/5
f 224/274/6 226/270/6 228/268/6
f 230/275/19 231/276/19 229/277/19
f 232/278/20 233/279/20 231/276/20
f 234/280/21 235/281/21 233/279/21
f 236/282/22 237/283/22 235/281/22
f 238/284/23 239/285/23 237/283/23
f 240/286/24 241/287/24 239/285/24
f 242/288/25 243/289/25 241/287/25
f 244/290/26 245/291/26 243/289/26
f 246/292/27 247/293/27 245/291/27
f 248/294/28 249/295/28 247/293/28
f 250/296/29 251/297/29 249/295/29
f 252/298/30 253/299/30 251/297/30
f 254/300/31 255/301/31 253/299/31
f 256/302/32 257/303/32 255/301/32
f 258/304/33 259/305/33 257/303/33
f 260/306/34 261/307/34 259/305/34
f 262/308/35 263/309/35 261/307/35
f 264/310/36 265/311/36 263/309/36
f 266/312/37 267/313/37 265/311/37
f 268/314/38 269/315/38 267/313/38
f 270/316/39 271/317/39 269/315/39
f 272/318/40 273/319/40 271/317/40
f 273/319/41 276/320/41 275/321/41
f 276/320/42 277/322/42 275/321/42
f 278/323/43 279/324/43 277/322/43
f 279/324/44 282/325/44 281/326/44
f 282/325/45 283/327/45 281/326/45
f 284/328/46 285/329/46 283/327/46
f 286/330/47 287/331/47 285/329/47
f 288/332/48 289/333/48 287/331/48
f 290/334/49 291/335/49 289/333/49
f 292/336/50 229/337/50 291/335/50
f 238/338/4 236/339/4 254/340/4
f 287/341/51 289/342/51 267/343/51
f 294/344/3 295/345/3 293/346/3
f 296/347/51 299/348/51 295/345/51
f 300/349/1 297/350/1 299/348/1
f 298/351/4 293/346/4 297/350/4
f 299/348/6 293/346/6 295/345/6
f 318/352/52 304/353/52 317/354/52
f 317/354/3 302/355/3 319/356/3
f 304/353/3 324/357/3 302/355/3
f 319/356/53 301/358/53 320/359/53
f 306/360/3 313/361/3 305/362/3
f 314/363/3 319/356/3 307/364/3
f 312/365/1 309/366/1 315/367/1
f 310/368/4 305/362/4 309/366/4
f 315/367/6 305/362/6 313/361/6
f 314/363/51 313/361/51 308/369/51
f 311/370/51 313/361/51 307/364/51
f 314/363/51 312/365/51 316/371/51
f 316/371/51 315/367/51 311/370/51
f 318/352/1 301/358/1 303/372/1
f 311/370/1 318/352/1 316/371/1
f 307/364/6 320/359/6 311/370/6
f 316/373/5 317/354/5 314/363/5
f 303/372/54 321/374/54 304/353/54
f 302/355/55 323/375/55 301/358/55
f 303/372/1 323/375/1 322/376/1
f 2/1/1 4/6/1 3/2/1
f 8/4/2 16/23/2 13/5/2
f 8/7/3 6/377/3 5/8/3
f 6/10/4 2/1/4 1/11/4
f 7/9/5 5/8/5 1/3/5
f 4/6/6 2/1/6 6/10/6
f 11/13/3 19/378/3 20/14/3
f 3/2/1 4/6/1 13/5/1
f 7/9/3 15/18/3 16/17/3
f 3/2/7 14/16/7 15/18/7
f 10/19/56 14/22/56 13/5/56
f 11/21/9 15/25/9 14/22/9
f 9/20/9 13/5/9 16/23/9
f 12/24/56 16/23/56 15/25/56
f 10/26/10 18/31/10 19/27/10
f 9/29/11 12/15/11 20/14/11
f 10/26/1 9/29/1 17/30/1
f 20/14/3 19/378/3 23/32/3
f 22/34/57 21/38/57 25/35/57
f 18/31/13 22/34/13 23/37/13
f 20/14/14 24/33/14 21/38/14
f 17/30/1 21/38/1 22/34/1
f 25/39/15 28/379/15 27/40/15
f 23/32/58 27/380/58 28/41/58
f 23/37/17 22/34/17 26/36/17
f 24/33/18 28/41/18 25/35/18
f 94/42/19 93/381/19 31/43/19
f 93/45/20 95/48/20 33/46/20
f 95/48/21 96/50/21 35/49/21
f 96/50/22 97/52/22 37/51/22
f 97/52/23 98/54/23 39/53/23
f 98/54/24 99/56/24 41/55/24
f 99/56/25 100/58/25 43/57/25
f 100/58/26 101/60/26 45/59/26
f 101/60/27 102/62/27 47/61/27
f 102/62/28 103/64/28 49/63/28
f 103/64/29 104/66/29 51/65/29
f 104/66/30 105/68/30 53/67/30
f 105/68/31 106/70/31 55/69/31
f 106/70/32 107/72/32 57/71/32
f 107/72/33 108/74/33 59/73/33
f 108/74/34 109/76/34 61/75/34
f 109/76/35 110/78/35 63/77/35
f 110/78/36 111/80/36 65/79/36
f 111/80/37 112/82/37 67/81/37
f 112/82/38 113/84/38 69/83/38
f 113/84/39 114/86/39 71/85/39
f 114/86/40 115/88/40 73/87/40
f 115/88/41 116/90/41 75/89/41
f 116/90/42 117/92/42 77/91/42
f 117/92/43 118/94/43 79/93/43
f 118/94/44 119/96/44 81/95/44
f 119/96/45 120/98/45 83/97/45
f 120/98/46 121/100/46 85/99/46
f 121/100/47 122/102/47 87/101/47
f 122/102/48 123/104/48 89/103/48
f 123/104/49 124/106/49 91/105/49
f 124/106/50 94/42/50 29/44/50
f 40/107/39 38/115/39 129/108/39
f 32/110/4 93/45/4 94/111/4
f 34/113/4 95/48/4 93/45/4
f 36/114/4 96/116/4 95/48/4
f 38/115/4 97/117/4 96/116/4
f 40/107/4 98/119/4 97/117/4
f 42/118/4 99/121/4 98/119/4
f 44/120/4 100/123/4 99/121/4
f 46/122/4 101/125/4 100/123/4
f 46/122/4 48/126/4 102/124/4
f 48/126/4 50/128/4 103/127/4
f 50/128/4 52/130/4 104/129/4
f 52/130/4 54/132/4 105/131/4
f 54/132/4 56/134/4 106/133/4
f 56/134/4 58/136/4 107/135/4
f 58/136/4 60/138/4 108/137/4
f 60/138/4 62/141/4 109/139/4
f 64/140/4 110/143/4 109/139/4
f 66/142/4 111/145/4 110/143/4
f 68/144/4 112/147/4 111/145/4
f 70/146/4 113/149/4 112/147/4
f 72/148/4 114/151/4 113/149/4
f 74/150/4 115/153/4 114/151/4
f 76/152/4 116/155/4 115/153/4
f 78/154/4 117/157/4 116/155/4
f 78/154/4 80/158/4 118/156/4
f 80/158/4 82/160/4 119/159/4
f 82/160/4 84/162/4 120/161/4
f 84/162/4 86/164/4 121/163/4
f 86/164/4 88/166/4 122/165/4
f 88/166/4 90/168/4 123/167/4
f 90/168/4 92/170/4 124/169/4
f 92/170/4 30/112/4 94/111/4
f 127/195/4 125/192/4 140/194/4
f 125/192/4 126/174/4 141/197/4
f 126/174/4 156/173/4 142/199/4
f 156/173/4 155/198/4 143/200/4
f 155/198/4 154/196/4 143/200/4
f 154/196/4 153/193/4 144/175/4
f 143/200/4 154/196/4 144/175/4
f 153/193/4 152/190/4 145/177/4
f 152/190/4 151/188/4 146/179/4
f 145/177/4 152/190/4 146/179/4
f 151/188/4 150/187/4 147/181/4
f 150/187/4 149/185/4 148/183/4
f 147/181/4 150/187/4 148/183/4
f 147/181/4 146/179/4 151/188/4
f 145/177/4 144/175/4 153/193/4
f 143/200/4 142/199/4 156/173/4
f 142/199/4 141/197/4 126/174/4
f 141/197/4 140/194/4 125/192/4
f 140/194/4 139/191/4 127/195/4
f 139/191/4 138/189/4 127/195/4
f 138/189/4 137/172/4 128/171/4
f 127/195/4 138/189/4 128/171/4
f 137/172/4 136/186/4 129/108/4
f 136/186/4 135/184/4 130/109/4
f 129/108/4 136/186/4 130/109/4
f 135/184/4 134/182/4 132/178/4
f 134/182/4 133/180/4 132/178/4
f 132/178/4 131/176/4 135/184/4
f 131/176/4 130/109/4 135/184/4
f 30/112/34 92/170/34 156/173/34
f 66/142/21 143/200/21 144/175/21
f 42/118/40 40/107/40 130/109/40
f 68/144/22 144/175/22 145/177/22
f 44/120/41 42/118/41 131/176/41
f 70/146/23 145/177/23 146/179/23
f 44/120/42 132/178/42 133/180/42
f 72/148/24 146/179/24 147/181/24
f 46/122/43 133/180/43 134/182/43
f 74/150/25 147/181/25 148/183/25
f 48/126/44 134/182/44 135/184/44
f 76/152/26 148/183/26 149/185/26
f 50/128/45 135/184/45 136/186/45
f 80/158/27 78/154/27 149/185/27
f 52/130/46 136/186/46 137/172/46
f 82/160/28 80/158/28 150/187/28
f 54/132/47 137/172/47 138/189/47
f 84/162/29 82/160/29 151/188/29
f 56/134/48 138/189/48 139/191/48
f 32/110/35 30/112/35 126/174/35
f 86/164/30 84/162/30 152/190/30
f 58/136/49 139/191/49 140/194/49
f 34/113/36 32/110/36 125/192/36
f 88/166/31 86/164/31 153/193/31
f 60/138/50 140/194/50 141/197/50
f 36/114/37 34/113/37 127/195/37
f 90/168/32 88/166/32 154/196/32
f 62/141/19 141/197/19 142/199/19
f 38/115/38 36/114/38 128/171/38
f 92/170/33 90/168/33 155/198/33
f 64/140/20 142/199/20 143/200/20
f 158/201/19 160/382/19 159/202/19
f 160/204/20 162/207/20 161/205/20
f 162/207/21 164/209/21 163/208/21
f 164/209/22 166/211/22 165/210/22
f 166/211/23 168/213/23 167/212/23
f 168/213/24 170/215/24 169/214/24
f 170/215/25 172/217/25 171/216/25
f 172/217/26 174/219/26 173/218/26
f 174/219/27 176/221/27 175/220/27
f 176/221/28 178/223/28 177/222/28
f 178/223/29 180/225/29 179/224/29
f 180/225/30 182/227/30 181/226/30
f 182/227/31 184/229/31 183/228/31
f 184/229/32 186/231/32 185/230/32
f 186/231/33 188/233/33 187/232/33
f 188/233/34 190/235/34 189/234/34
f 190/235/35 192/237/35 191/236/35
f 192/237/36 194/383/36 193/238/36
f 193/238/37 194/383/37 196/239/37
f 196/239/38 198/242/38 197/241/38
f 198/242/39 200/244/39 199/243/39
f 200/244/40 202/246/40 201/245/40
f 202/246/41 204/384/41 203/247/41
f 203/247/42 204/384/42 206/248/42
f 205/249/43 206/248/43 208/250/43
f 208/250/44 210/253/44 209/252/44
f 210/253/45 212/255/45 211/254/45
f 212/255/46 214/257/46 213/256/46
f 214/257/47 216/385/47 215/258/47
f 215/258/48 216/385/48 218/259/48
f 218/259/49 220/262/49 219/261/49
f 220/262/50 158/201/50 157/203/50
f 222/263/1 224/266/1 223/264/1
f 224/266/51 228/268/51 227/267/51
f 228/268/3 226/270/3 225/269/3
f 226/270/4 222/386/4 221/271/4
f 227/267/5 225/269/5 221/272/5
f 224/274/6 222/387/6 226/270/6
f 230/275/19 232/278/19 231/276/19
f 232/278/20 234/280/20 233/279/20
f 234/280/21 236/282/21 235/281/21
f 236/282/22 238/284/22 237/283/22
f 238/284/23 240/286/23 239/285/23
f 240/286/24 242/288/24 241/287/24
f 242/288/25 244/290/25 243/289/25
f 244/290/26 246/292/26 245/291/26
f 246/292/27 248/294/27 247/293/27
f 248/294/28 250/296/28 249/295/28
f 250/296/29 252/298/29 251/297/29
f 252/298/30 254/300/30 253/299/30
f 254/300/31 256/302/31 255/301/31
f 256/302/32 258/304/32 257/303/32
f 258/304/33 260/306/33 259/305/33
f 260/306/34 262/308/34 261/307/34
f 262/308/35 264/310/35 263/309/35
f 264/310/36 266/312/36 265/311/36
f 266/312/37 268/314/37 267/313/37
f 268/314/38 270/316/38 269/315/38
f 270/316/39 272/318/39 271/317/39
f 272/318/40 274/388/40 273/319/40
f 273/319/41 274/388/41 276/320/41
f 276/320/42 278/323/42 277/322/42
f 278/323/43 280/389/43 279/324/43
f 279/324/44 280/389/44 282/325/44
f 282/325/45 284/328/45 283/327/45
f 284/328/46 286/330/46 285/329/46
f 286/330/47 288/332/47 287/331/47
f 288/332/48 290/334/48 289/333/48
f 290/334/49 292/336/49 291/335/49
f 292/336/50 230/390/50 229/337/50
f 234/391/4 232/278/4 260/392/4
f 232/278/4 230/275/4 262/393/4
f 230/275/4 292/394/4 264/395/4
f 292/394/4 290/396/4 266/397/4
f 290/396/4 288/398/4 266/397/4
f 288/398/4 286/399/4 268/400/4
f 266/397/4 288/398/4 268/400/4
f 286/399/4 284/401/4 270/402/4
f 284/401/4 282/403/4 272/404/4
f 270/402/4 284/401/4 272/404/4
f 282/403/4 280/405/4 276/406/4
f 280/405/4 278/407/4 276/406/4
f 276/406/4 274/408/4 282/403/4
f 274/408/4 272/404/4 282/403/4
f 270/402/4 268/400/4 286/399/4
f 266/397/4 264/395/4 292/394/4
f 264/395/4 262/393/4 230/275/4
f 262/393/4 260/392/4 232/278/4
f 260/392/4 258/409/4 234/391/4
f 258/409/4 256/410/4 234/391/4
f 256/410/4 254/340/4 236/339/4
f 234/391/4 256/410/4 236/339/4
f 254/340/4 252/411/4 238/338/4
f 252/411/4 250/412/4 240/413/4
f 238/338/4 252/411/4 240/413/4
f 250/412/4 248/414/4 242/415/4
f 248/414/4 246/416/4 244/417/4
f 242/415/4 248/414/4 244/417/4
f 242/415/4 240/413/4 250/412/4
f 291/335/51 229/337/51 261/418/51
f 229/337/51 231/419/51 259/420/51
f 231/419/51 233/421/51 259/420/51
f 233/421/51 235/422/51 257/423/51
f 259/420/51 233/421/51 257/423/51
f 235/422/51 237/424/51 253/425/51
f 237/424/51 239/426/51 251/427/51
f 239/426/51 241/428/51 251/427/51
f 241/428/51 243/429/51 249/430/51
f 251/427/51 241/428/51 249/430/51
f 243/429/51 245/431/51 247/432/51
f 247/432/51 249/430/51 243/429/51
f 251/427/51 253/425/51 237/424/51
f 253/425/51 255/433/51 235/422/51
f 255/433/51 257/423/51 235/422/51
f 259/420/51 261/418/51 229/337/51
f 261/418/51 263/434/51 291/335/51
f 263/434/51 265/435/51 291/335/51
f 265/435/51 267/343/51 289/342/51
f 291/335/51 265/435/51 289/342/51
f 267/343/51 269/436/51 285/437/51
f 269/436/51 271/438/51 283/439/51
f 271/438/51 273/440/51 283/439/51
f 273/440/51 275/441/51 281/442/51
f 283/439/51 273/440/51 281/442/51
f 275/441/51 277/443/51 279/444/51
f 279/444/51 281/442/51 275/441/51
f 283/439/51 285/437/51 269/436/51
f 285/437/51 287/341/51 267/343/51
f 294/344/3 296/347/3 295/345/3
f 296/347/51 300/349/51 299/348/51
f 300/349/1 298/351/1 297/350/1
f 298/351/4 294/344/4 293/346/4
f 299/348/6 297/350/6 293/346/6
f 318/352/52 303/372/52 304/353/52
f 317/354/3 304/353/3 302/355/3
f 304/353/3 321/374/3 324/357/3
f 319/356/53 302/355/53 301/358/53
f 306/360/3 308/369/3 313/361/3
f 314/363/3 317/354/3 319/356/3
f 312/365/1 310/445/1 309/366/1
f 310/368/4 306/360/4 305/362/4
f 315/367/6 309/366/6 305/362/6
f 314/363/51 307/364/51 313/361/51
f 311/370/51 315/367/51 313/361/51
f 314/363/51 308/369/51 312/365/51
f 316/371/51 312/365/51 315/367/51
f 318/352/1 320/359/1 301/358/1
f 311/370/1 320/359/1 318/352/1
f 307/364/6 319/356/6 320/359/6
f 316/373/5 318/446/5 317/354/5
f 303/372/54 322/376/54 321/374/54
f 302/355/55 324/357/55 323/375/55
f 303/372/1 301/358/1 323/375/1
