# Blender 4.4.1
# www.blender.org
mtllib SideGround.mtl
o 立方体
v -9.754098 -0.803279 69.426231
v -9.815574 0.945554 69.569672
v -9.754098 -0.803279 -69.426231
v -9.815574 0.945554 -69.569672
v -0.245902 -0.803279 69.426231
v -0.245902 0.803279 69.426231
v -0.245902 -0.803279 -69.426231
v -0.245902 0.803279 -69.426231
v -9.815574 -0.852459 -46.666664
v -9.815574 -0.852459 -23.333330
v -9.815574 -0.852459 0.000002
v -9.815574 -0.852459 23.333334
v -9.815574 -0.852459 46.666668
v -10.000000 0.945554 46.666664
v -10.000000 0.945554 23.333330
v -10.000000 0.945554 -0.000002
v -10.000000 0.945554 -23.333336
v -10.000000 0.945554 -46.666668
v -0.184426 -0.852459 46.666664
v -0.184426 -0.852459 23.333330
v -0.184426 -0.852459 -0.000002
v -0.184426 -0.852459 -23.333336
v -0.184426 -0.852459 -46.666668
v -0.184426 0.852459 -46.666664
v -0.184426 0.852459 -23.333330
v -0.147541 0.956444 0.000002
v -0.615452 0.591630 23.333332
v -0.184426 0.852459 46.666668
v -9.815574 -0.852459 52.500000
v -9.815574 -0.852459 58.333332
v -9.815574 -0.852459 64.166664
v -0.184426 0.852459 52.500000
v -0.350867 0.740516 58.333328
v -0.355286 0.742335 64.125420
v -10.000000 0.945554 64.166664
v -10.000000 0.945554 58.333332
v -10.000000 0.945554 52.500000
v -0.184426 -0.852459 64.166664
v -0.184426 -0.852459 58.333332
v -0.184426 -0.852459 52.500000
v -9.815574 -0.852459 29.166668
v -9.815574 -0.852459 35.000000
v -9.815574 -0.852459 40.833336
v -10.000000 0.945554 40.833332
v -10.000000 0.945554 34.999996
v -10.000000 0.945554 29.166664
v -0.184426 -0.852459 40.833332
v -0.184426 -0.852459 34.999996
v -0.184426 -0.852459 29.166664
v -0.622429 0.571961 29.166668
v -0.622429 0.571961 35.000000
v -0.184426 0.852459 40.833336
v -9.815574 -0.852459 5.833335
v -9.815574 -0.852459 11.666668
v -9.815574 -0.852459 17.500000
v -10.000000 0.945554 17.499998
v -10.000000 0.945554 11.666664
v -10.000000 0.945554 5.833332
v -0.184426 -0.852459 17.499998
v -0.184426 -0.852459 11.666664
v -0.184426 -0.852459 5.833332
v 0.000000 0.945554 5.833335
v 0.000000 0.945554 11.666668
v -0.147541 0.956444 17.500000
v -9.815574 -0.852459 -17.499998
v -9.815574 -0.852459 -11.666665
v -9.815574 -0.852459 -5.833332
v -10.000000 0.945554 -5.833335
v -10.000000 0.945554 -11.666668
v -10.000000 0.945554 -17.500000
v -0.184426 -0.852459 -5.833335
v -0.184426 -0.852459 -11.666668
v -0.184426 -0.852459 -17.500000
v -0.184426 0.852459 -17.499998
v -0.184426 0.852459 -11.666665
v -0.184426 0.852459 -5.833332
v -9.815574 -0.852459 -40.833332
v -9.815574 -0.852459 -34.999996
v -9.815574 -0.852459 -29.166664
v -10.000000 0.945554 -29.166668
v -10.000000 0.945554 -35.000000
v -10.000000 0.945554 -40.833336
v -0.184426 -0.852459 -29.166668
v -0.184426 -0.852459 -35.000000
v -0.184426 -0.852459 -40.833336
v -0.184426 0.852459 -40.833332
v -0.184426 0.852459 -34.999996
v -0.184426 0.852459 -29.166664
v -10.000000 0.945554 -52.500000
v -10.000000 0.945554 -58.333332
v -10.000000 0.945554 -64.166664
v -0.184426 -0.852459 -52.500000
v -0.184426 -0.852459 -58.333332
v -0.184426 -0.852459 -64.166664
v -9.815574 -0.852459 -64.166664
v -9.815574 -0.852459 -58.333332
v -9.815574 -0.852459 -52.500000
v -0.147541 0.956444 -64.166664
v 0.000000 0.945554 -58.333332
v -0.147541 0.956444 -52.500000
v -2.500000 -0.852459 -69.569672
v -5.000000 -0.852459 -69.569672
v -7.500000 -0.852459 -69.569672
v -7.500000 0.945554 -70.000000
v -5.000000 0.945554 -70.000000
v -2.500000 0.956444 -69.655739
v -7.500000 -0.852459 69.569672
v -5.000000 -0.852459 69.569672
v -2.500000 -0.852459 69.569672
v -2.528280 0.917713 69.328552
v -5.000000 0.945554 70.000000
v -7.500000 0.945554 70.000000
v -7.982888 3.530908 46.666664
v -4.754098 1.124127 -46.092899
v -2.500000 1.074476 -46.666664
v -5.752382 3.397567 24.799475
v -4.815574 1.093095 -23.333332
v -2.500000 1.000000 -23.333332
v -7.500000 3.589221 23.333332
v -5.753244 3.416750 1.645419
v -1.785207 1.349465 -1.645419
v -7.471162 3.600688 -0.000001
v -4.754098 1.124127 22.759563
v -2.527908 1.212122 23.398453
v -7.814367 3.689520 -23.292456
v -4.754098 1.124127 47.240433
v -2.500000 1.074476 46.666664
v -2.500000 -1.000000 -46.666668
v -5.000000 -1.000000 -46.666668
v -7.500000 -1.000000 -46.666664
v -2.500000 -1.000000 -23.333334
v -5.000000 -1.000000 -23.333332
v -7.500000 -1.000000 -23.333332
v -2.500000 -1.000000 -0.000001
v -5.000000 -1.000000 -0.000000
v -7.500000 -1.000000 0.000001
v -2.500000 -1.000000 23.333332
v -5.000000 -1.000000 23.333334
v -7.500000 -1.000000 23.333336
v -2.500000 -1.000000 46.666664
v -5.000000 -1.000000 46.666664
v -7.500000 -1.000000 46.666664
v -8.039109 3.495448 -48.146481
v -4.815574 1.093095 52.500000
v -2.500000 1.000000 52.500000
v -5.438365 3.615444 69.012894
v -4.671227 1.165959 58.292088
v -2.500000 1.001440 58.333328
v -7.745902 3.752157 -69.426231
v -4.567527 1.227285 63.198803
v -2.510605 1.114641 64.146873
v -2.500000 -1.000000 52.500000
v -5.000000 -1.000000 52.500000
v -7.500000 -1.000000 52.500000
v -2.500000 -1.000000 58.333332
v -5.000000 -1.000000 58.333332
v -7.500000 -1.000000 58.333332
v -2.500000 -1.000000 64.166664
v -5.000000 -1.000000 64.166664
v -7.500000 -1.000000 64.166664
v -2.500000 -1.000000 29.166664
v -5.000000 -1.000000 29.166666
v -7.500000 -1.000000 29.166668
v -2.500000 -1.000000 34.999996
v -5.000000 -1.000000 34.999996
v -7.500000 -1.000000 35.000000
v -2.500000 -1.000000 40.833332
v -5.000000 -1.000000 40.833332
v -7.500000 -1.000000 40.833336
v -9.506517 3.592660 -58.333332
v -4.247618 1.403421 30.632811
v -2.527908 1.209305 29.166668
v -9.497602 3.572621 -52.583214
v -4.247618 1.403421 33.533859
v -2.500000 1.212122 35.000004
v -9.396702 3.476333 -48.146481
v -9.578508 3.616643 -28.147758
v -2.051997 1.244021 40.833336
v -2.500000 -1.000000 5.833332
v -5.000000 -1.000000 5.833333
v -7.500000 -1.000000 5.833334
v -2.500000 -1.000000 11.666665
v -5.000000 -1.000000 11.666666
v -7.500000 -1.000000 11.666668
v -2.500000 -1.000000 17.499998
v -5.000000 -1.000000 17.499998
v -7.500000 -1.000000 17.500000
v -9.399019 3.503982 -11.666668
v -9.399019 3.503982 -5.833335
v -9.815574 3.792799 11.666664
v -9.815574 3.792799 17.499996
v -9.412457 3.513299 34.999996
v -9.412457 3.513299 40.833328
v -9.675646 3.684836 58.333328
v -4.754098 1.124127 18.073771
v -2.500000 1.093095 17.930326
v -2.500000 -1.000000 -17.500000
v -5.000000 -1.000000 -17.499998
v -7.500000 -1.000000 -17.499998
v -2.500000 -1.000000 -11.666668
v -5.000000 -1.000000 -11.666667
v -7.500000 -1.000000 -11.666666
v -2.500000 -1.000000 -5.833334
v -5.000000 -1.000000 -5.833333
v -7.500000 -1.000000 -5.833332
v -9.657970 3.683667 64.125420
v -4.754098 1.124127 -18.073771
v -2.500000 1.074476 -17.499998
v -9.815574 3.792799 -23.333336
v -9.815574 3.792799 -17.500002
v -2.007163 1.252692 -11.666666
v -9.399019 3.503982 -0.000002
v -9.399019 3.523047 5.833331
v -1.959099 1.262396 -5.945482
v -2.500000 -1.000000 -40.833336
v -5.000000 -1.000000 -40.833336
v -7.500000 -1.000000 -40.833336
v -2.500000 -1.000000 -35.000000
v -5.000000 -1.000000 -35.000000
v -7.500000 -1.000000 -35.000000
v -2.500000 -1.000000 -29.166668
v -5.000000 -1.000000 -29.166664
v -7.500000 -1.000000 -29.166664
v -7.063324 1.220427 -39.923439
v -4.985984 1.136501 -40.800629
v -2.500000 1.000000 -40.833336
v -7.063324 1.220427 -35.909897
v -4.989488 1.134733 -35.000000
v -2.500000 1.000000 -35.000000
v -9.412457 3.513299 23.333330
v -4.815574 1.093095 -29.166664
v -2.500000 1.000000 -29.166664
v -2.500000 -1.000000 -64.166664
v -5.000000 -1.000000 -64.166664
v -7.500000 -1.000000 -64.166664
v -2.500000 -1.000000 -58.333328
v -5.000000 -1.000000 -58.333328
v -7.500000 -1.000000 -58.333328
v -2.500000 -1.000000 -52.500000
v -5.000000 -1.000000 -52.500000
v -7.500000 -1.000000 -52.500000
v -9.412457 3.513299 29.166664
v -9.447342 3.508686 46.666664
v -2.254098 1.124127 -64.740433
v -9.815574 3.792799 52.500000
v -9.549852 3.619892 68.949661
v -7.500000 3.680746 69.191620
v -9.754098 3.752157 -69.426231
v -9.497602 3.572621 -64.083458
v -2.254098 1.124127 -51.926231
v -10.000000 2.290790 -64.166664
v -9.815574 2.290790 -69.569672
v -7.500000 2.290790 70.000000
v -9.657970 2.299137 69.201927
v -10.000000 2.290790 52.500000
v -9.965115 2.320444 46.666664
v -9.965115 2.320444 29.166662
v -10.000000 2.290790 23.333330
v -10.000000 2.290790 5.833331
v -10.000000 2.290790 -0.000002
v -10.000000 2.290790 -17.500002
v -10.000000 2.290790 -23.333336
v -9.666361 2.091309 -40.833336
v -9.852459 2.285024 -46.666668
v -2.528838 2.049077 0.000001
v -0.791695 1.850974 1.645421
v -9.973488 2.302058 64.135727
v -9.986744 2.302058 58.333328
v -9.965115 2.320444 40.833332
v -9.965115 2.320444 34.999996
v -10.000000 2.290790 17.499996
v -10.000000 2.290790 11.666664
v -0.612997 1.941887 5.945485
v -0.184426 2.168865 11.666669
v -0.245902 2.137833 16.926231
v -2.500000 2.253038 5.833334
v -2.500000 2.261960 11.666668
v -2.500000 2.168865 17.069674
v -10.000000 2.290790 -5.833335
v -10.000000 2.290790 -11.666669
v -9.727482 2.290253 -29.133963
v -9.666361 2.091309 -35.000000
v -10.000000 2.290790 -52.500000
v -10.000000 2.290790 -58.333332
v -0.245902 2.137833 -63.592896
v -0.184426 2.168865 -58.333332
v -0.245902 2.137833 -53.073772
v -2.528528 2.081195 -64.100098
v -2.500000 2.244540 -58.333328
v -2.528528 2.081195 -52.566566
v -7.500000 2.285024 -69.655739
v -5.000000 2.168865 -69.569672
v -2.745902 2.137833 -69.426231
v -2.938364 2.038717 69.021141
v -5.028280 2.284011 69.353294
v -7.481664 2.473715 -46.666668
v -5.028528 2.092511 -46.733238
v -3.086657 1.951425 -48.035530
v -7.203153 2.467211 -23.333334
v -5.296847 2.108864 -23.333332
v -6.730735 2.770525 -1.495888
v -4.971162 2.564351 -0.000000
v -7.254098 2.424527 22.759562
v -5.000000 2.308952 23.333334
v -3.252382 1.905800 24.799477
v -6.935713 2.620926 46.775196
v -5.000000 2.071992 46.666664
v -3.236878 1.889996 45.055817
v -7.315574 2.383885 52.500000
v -5.184426 2.168865 52.500000
v -7.184483 2.472622 58.292088
v -5.297842 2.115068 58.333328
v -7.067528 2.540364 63.198803
v -5.008838 2.291025 64.150169
v -2.938364 2.049660 65.079536
v -6.747618 2.739611 30.632807
v -5.000000 2.320767 29.166668
v -3.252382 1.905800 27.700527
v -6.747618 2.739611 33.533859
v -5.000000 2.330643 35.000000
v -3.236878 1.913627 36.610851
v -6.763123 2.749115 42.444183
v -5.027908 2.513353 40.833332
v -3.075915 1.989697 40.833336
v -4.507163 2.625908 5.833333
v -7.254098 2.424527 12.240436
v -5.000000 2.359500 11.666666
v -7.315574 2.383885 17.499998
v -5.000000 2.187484 17.499998
v -7.315574 2.383885 -17.500000
v -5.000000 2.187484 -17.499998
v -2.745902 2.137833 -16.926228
v -7.254098 2.424527 -12.240438
v -5.028838 2.530728 -11.666667
v -3.076949 1.989791 -11.554517
v -6.730735 2.770525 -4.337447
v -5.028838 2.557626 -5.833333
v -3.028885 1.999496 -5.833333
v -7.489489 2.132787 -40.833336
v -5.245902 2.137833 -41.407104
v -7.489489 2.132787 -35.000000
v -5.430836 2.044481 -34.035595
v -7.505607 2.415354 -29.133963
v -5.327507 2.103589 -29.125786
v -7.254098 2.424527 -64.740433
v -4.978603 2.489369 -64.116745
v -4.586753 2.563450 -58.333332
v -6.913343 2.668662 -51.131134
v -4.978604 2.491530 -52.500000
v -7.684426 3.792799 52.500000
v -7.797842 3.693280 58.333328
v -7.500000 3.729156 64.141914
v -5.438365 3.617413 65.079536
v -7.472092 3.592911 29.166662
v -5.752382 3.397567 27.700523
v -7.472092 3.592911 34.999996
v -5.752382 3.397567 36.466141
v -7.500000 3.589221 40.833332
v -5.752382 3.417320 39.367195
v -7.500000 3.828930 5.833332
v -5.588965 3.525356 5.833333
v -7.500000 3.817184 11.666665
v -5.245902 3.752157 11.092896
v -7.684426 3.792799 17.499998
v -7.684426 3.792799 -17.500000
v -7.500000 3.581622 -11.666667
v -5.769265 3.406158 -10.170780
v -7.471162 3.585435 -5.833335
v -5.769265 3.406158 -7.329222
v -7.907476 3.623718 -28.147758
v -7.507132 3.649014 -64.100098
v -5.622317 3.503307 -62.797798
v -7.500000 3.851070 -58.333328
v -5.484568 3.594373 -58.333332
v -7.507132 3.649014 -52.566566
v -5.622317 3.503307 -53.868866
vn -0.9973 -0.0701 -0.0233
vn 0.0818 -0.0251 -0.9963
vn 0.9986 0.0532 -0.0051
vn -0.1247 -0.1605 0.9791
vn 0.0436 -0.9989 0.0187
vn 0.2237 0.5024 -0.8352
vn -0.9984 0.0549 0.0127
vn 0.3202 0.8024 0.5036
vn 0.9271 0.3747 0.0103
vn 0.9661 0.2540 -0.0465
vn -0.2617 0.1453 0.9541
vn 0.0636 -0.9980 -0.0000
vn 0.9999 -0.0105 0.0031
vn 1.0000 -0.0000 -0.0000
vn 0.9999 -0.0105 -0.0031
vn 0.9918 0.1202 0.0435
vn -0.9948 -0.1020 -0.0000
vn -0.9973 -0.0701 0.0233
vn 0.3379 0.7192 -0.6071
vn 0.3510 0.7585 -0.5490
vn 0.8656 0.4942 0.0801
vn 0.9986 0.0504 0.0147
vn 0.9944 0.1052 0.0004
vn 0.9570 0.2899 0.0011
vn 0.9558 0.2939 -0.0000
vn 0.9895 0.1385 -0.0405
vn 0.2993 0.7497 -0.5903
vn 0.2178 0.5103 0.8320
vn 0.3927 0.8777 -0.2745
vn 0.9980 -0.0612 -0.0127
vn 0.9948 -0.1020 -0.0000
vn 0.9980 -0.0612 0.0127
vn 0.4032 0.8787 -0.2556
vn -1.0000 0.0049 0.0011
vn 0.8979 0.4402 -0.0026
vn 0.2178 0.5103 -0.8320
vn -0.9999 0.0147 0.0011
vn 0.9551 0.2957 0.0194
vn 0.9924 0.1212 0.0189
vn -0.9961 0.0747 0.0476
vn 0.2513 0.6549 0.7127
vn 0.9998 -0.0108 -0.0151
vn 0.0436 -0.9989 -0.0187
vn 0.9396 0.3397 -0.0415
vn 0.3933 0.8747 0.2833
vn 0.6923 0.7216 0.0002
vn 0.8189 0.5731 -0.0309
vn 0.9579 0.2845 0.0390
vn 0.8974 0.4412 -0.0031
vn 0.5899 0.8059 -0.0501
vn 0.1049 0.5622 0.8204
vn 0.7749 0.6321 -0.0007
vn 0.0796 0.9962 -0.0341
vn -0.9997 0.0254 -0.0000
vn 0.9060 0.4232 -0.0000
vn -0.0636 -0.9980 -0.0000
vn -0.0000 -1.0000 -0.0000
vn -0.0436 -0.9989 -0.0187
vn -0.0000 -0.9996 -0.0273
vn 0.0636 0.9980 -0.0000
vn 0.0474 0.9989 0.0029
vn -0.9994 -0.0000 -0.0341
vn 0.0544 0.9985 0.0002
vn 0.0408 0.9992 0.0002
vn 0.0795 0.9968 0.0064
vn 0.0401 0.9992 0.0064
vn 0.2198 0.9756 -0.0017
vn 0.9769 0.2137 -0.0025
vn 0.8737 0.4846 -0.0427
vn 0.1487 0.9887 -0.0214
vn 0.2922 0.7635 0.5760
vn 0.0795 0.9968 -0.0064
vn 0.0324 0.9994 -0.0097
vn -1.0000 -0.0000 -0.0000
vn 0.6092 0.7917 -0.0454
vn 0.9924 0.1212 -0.0189
vn 0.8904 0.4545 -0.0237
vn 0.1257 0.2337 0.9642
vn 0.6315 0.7731 0.0589
vn 0.2653 0.9631 -0.0459
vn 0.2202 0.3867 0.8956
vn 0.3199 0.9474 -0.0010
vn 0.1105 0.9939 -0.0007
vn 0.3129 0.9498 0.0020
vn 0.9405 0.3382 -0.0337
vn -0.9601 0.2796 -0.0000
vn 0.1455 0.9893 -0.0096
vn 0.0693 0.9975 -0.0168
vn -0.9716 0.2366 -0.0091
vn 0.0911 0.9958 0.0107
vn 0.0574 0.9983 -0.0071
vn -0.9816 0.1901 0.0188
vn 0.0324 0.9994 0.0097
vn -0.9946 0.1010 -0.0233
vn 0.1451 0.9892 0.0199
vn 0.1780 0.9836 0.0292
vn -0.0114 0.9999 -0.0118
vn 0.1235 0.5361 0.8351
vn 0.2403 0.9704 -0.0233
vn 0.8049 0.5932 -0.0132
vn -0.9999 0.0128 0.0030
vn 0.0402 0.9992 -0.0000
vn 0.0993 0.2727 -0.9569
vn 0.0898 0.9958 0.0161
vn -0.9999 0.0128 -0.0030
vn 0.1088 0.9940 0.0119
vn 0.0232 0.2892 -0.9570
vn -0.0436 -0.9989 0.0187
vn -0.0000 -0.9996 0.0273
vn 0.0111 0.0713 0.9974
vn 0.1334 -0.0514 0.9897
vn -0.0000 -0.2328 0.9725
vn -0.1247 -0.1605 -0.9791
vn -0.0000 -0.2328 -0.9725
vn 0.0683 -0.1414 -0.9876
vn 0.7816 0.6217 -0.0504
vn -0.8975 0.4411 -0.0007
vn -0.9331 0.3597 0.0013
vn -0.9043 0.4269 0.0016
vn 0.6581 0.7510 -0.0540
vn -0.9265 0.3755 0.0261
vn -0.9668 0.2524 -0.0389
vn 0.9165 0.3982 -0.0384
vn 0.7808 0.6228 0.0500
vn -0.2279 0.3627 0.9036
vn 0.8638 0.5037 0.0135
vn -0.9796 0.2005 0.0099
vn -0.9897 0.1340 -0.0497
vn 0.7432 0.6690 -0.0012
vn -0.9598 0.2776 0.0411
vn 0.3629 0.7086 -0.6051
vn 0.3674 0.8271 0.4254
vn 0.9755 0.2188 0.0229
vn -0.0505 0.9976 0.0465
vn -0.0191 0.9998 -0.0000
vn -0.0378 0.9984 -0.0412
vn -0.8961 0.4439 -0.0000
vn 0.2365 0.4055 0.8830
vn 0.0061 0.9998 0.0177
vn 0.1590 0.9869 0.0258
vn 0.9716 0.2361 -0.0181
vn 0.0061 0.9998 -0.0177
vn 0.1583 0.9871 -0.0261
vn 0.3658 0.8826 -0.2954
vn 0.0938 0.9952 -0.0264
vn 0.0174 0.9988 -0.0448
vn 0.1013 0.9943 -0.0323
vn 0.0836 0.9961 0.0281
vn 0.2681 0.9634 -0.0042
vn 0.9371 0.3491 -0.0020
vn 0.1411 0.9899 -0.0127
vn 0.0242 0.9991 -0.0346
vn 0.1303 0.9915 -0.0017
vn 0.0275 0.9996 0.0118
vn 0.0252 0.9994 0.0236
vn 0.0595 0.9980 0.0195
vn 0.0964 0.9951 -0.0239
vn 0.1038 0.9943 0.0263
vn 0.6707 0.7395 0.0568
vn 0.1542 0.9875 -0.0319
vn 0.1957 0.9802 -0.0306
vn 0.9714 0.2367 -0.0179
vn 0.2569 0.9660 -0.0283
vn 0.3138 0.6934 -0.6486
vn 0.2305 0.9731 -0.0011
vn 0.2279 0.9737 -0.0013
vn 0.8533 0.5213 0.0049
vn 0.1590 0.9869 -0.0284
vn 0.1411 0.9900 -0.0032
vn 0.1851 0.9825 0.0210
vn 0.2094 0.9763 0.0553
vn 0.2345 0.9704 0.0577
vn 0.0700 0.9974 -0.0150
vn 0.2348 0.9719 -0.0159
vn 0.1202 0.9927 -0.0016
vn 0.1619 0.9868 -0.0095
vn 0.1425 0.9880 0.0591
vn 0.1472 0.9869 0.0662
vn 0.1159 0.9933 0.0022
vn 0.3789 0.8707 0.3136
vn 0.5669 0.8237 -0.0062
vn -0.1098 0.1264 -0.9859
vn -0.0260 0.9996 0.0116
vn -0.0286 0.9992 0.0268
vn 0.0265 0.9993 -0.0246
vn -0.0462 0.9989 -0.0013
vn -0.0188 0.9989 0.0423
vn -0.0291 0.9996 0.0041
vn -0.0062 0.9989 -0.0468
vn -0.0021 0.9998 0.0178
vn -0.0134 0.9999 -0.0026
vn -0.0403 0.9992 -0.0002
vn -0.0410 0.9992 -0.0000
vn -0.0403 0.9992 0.0002
vn -0.1046 0.9943 -0.0213
vn -0.0781 0.9966 -0.0248
vn -0.0055 1.0000 0.0020
vn 0.0251 0.9996 -0.0092
vn -0.0192 0.9989 0.0438
vn -0.0415 0.9991 -0.0002
vn -0.0190 0.9994 0.0274
vn -0.0835 0.9963 -0.0192
vn -0.0835 0.9963 0.0192
vn 0.1125 0.9932 0.0300
vn 0.1125 0.9932 -0.0300
vn 0.1028 0.9947 -0.0008
vn 0.0851 0.9961 -0.0219
vn 0.1487 0.9882 -0.0352
vn 0.1053 0.9944 -0.0015
vn 0.1109 0.9938 -0.0008
vn 0.0419 0.9991 0.0056
vn 0.7748 0.6207 0.1203
vn -0.9331 0.3597 -0.0013
vn -0.9925 0.1219 -0.0000
vn 0.8002 0.5996 -0.0113
vn 0.3180 0.7478 -0.5828
vn 0.9537 0.3008 0.0023
vn -0.9864 0.1588 0.0433
vn 0.9793 0.1967 -0.0470
vn 0.3677 0.6331 -0.6811
vn -0.9753 0.2211 0.0026
vn 0.7623 0.6472 -0.0000
vn 0.3694 0.8777 0.3052
vn -0.9855 0.1693 0.0143
vn -0.0196 0.1251 -0.9920
vn -0.9121 0.4100 -0.0026
vn 0.8212 0.5707 -0.0008
vn 0.4312 0.8380 0.3344
vn -0.9073 0.4204 -0.0000
vn -0.9614 0.2724 0.0397
vn 0.9107 0.4113 -0.0392
vn 0.4287 0.8395 -0.3339
vn 0.1700 0.4049 0.8984
vn 0.7586 0.6516 -0.0020
vn -0.0208 0.6127 -0.7900
vn -0.0446 0.7993 0.5992
vn 0.9368 0.3499 -0.0011
vn -0.9603 0.2759 -0.0407
vt 0.375000 0.239583
vt 0.625000 0.239583
vt 0.625000 0.250000
vt 0.375000 0.250000
vt 0.375000 0.437500
vt 0.625000 0.437500
vt 0.625000 0.500000
vt 0.375000 0.500000
vt 0.375000 0.739583
vt 0.625000 0.739583
vt 0.625000 0.750000
vt 0.375000 0.750000
vt 0.375000 0.937500
vt 0.625000 0.937500
vt 0.625000 1.000000
vt 0.375000 1.000000
vt 0.312500 0.739583
vt 0.312500 0.750000
vt 0.687500 0.593750
vt 0.750000 0.593750
vt 0.625000 0.218750
vt 0.625000 0.208333
vt 0.750000 0.708333
vt 0.687500 0.708333
vt 0.687500 0.750000
vt 0.687500 0.739583
vt 0.687500 0.510417
vt 0.687500 0.500000
vt 0.312500 0.531250
vt 0.375000 0.531250
vt 0.375000 0.541667
vt 0.312500 0.541667
vt 0.312500 0.572917
vt 0.375000 0.572917
vt 0.375000 0.583333
vt 0.312500 0.583333
vt 0.312500 0.614583
vt 0.375000 0.614583
vt 0.375000 0.625000
vt 0.312500 0.625000
vt 0.312500 0.656250
vt 0.375000 0.656250
vt 0.375000 0.666667
vt 0.312500 0.666667
vt 0.312500 0.697917
vt 0.375000 0.697917
vt 0.375000 0.708333
vt 0.312500 0.708333
vt 0.625000 0.531250
vt 0.625000 0.541667
vt 0.625000 0.572917
vt 0.625000 0.583333
vt 0.625000 0.614583
vt 0.625000 0.625000
vt 0.625000 0.656250
vt 0.625000 0.666667
vt 0.625000 0.697917
vt 0.625000 0.708333
vt 0.375000 0.031250
vt 0.625000 0.031250
vt 0.625000 0.041667
vt 0.375000 0.041667
vt 0.375000 0.072917
vt 0.625000 0.072917
vt 0.625000 0.083333
vt 0.375000 0.083333
vt 0.375000 0.114583
vt 0.625000 0.114583
vt 0.625000 0.125000
vt 0.375000 0.125000
vt 0.375000 0.156250
vt 0.625000 0.156250
vt 0.625000 0.166667
vt 0.375000 0.166667
vt 0.375000 0.197917
vt 0.625000 0.197917
vt 0.375000 0.208333
vt 0.375000 0.000000
vt 0.625000 0.000000
vt 0.625000 0.010417
vt 0.375000 0.010417
vt 0.625000 0.020833
vt 0.375000 0.020833
vt 0.750000 0.739583
vt 0.687500 0.666667
vt 0.750000 0.666667
vt 0.687500 0.541667
vt 0.687500 0.531250
vt 0.375000 0.718750
vt 0.312500 0.718750
vt 0.375000 0.729167
vt 0.312500 0.729167
vt 0.625000 0.718750
vt 0.625000 0.729167
vt 0.625000 0.052083
vt 0.375000 0.052083
vt 0.625000 0.062500
vt 0.375000 0.062500
vt 0.625000 0.677083
vt 0.375000 0.677083
vt 0.625000 0.687500
vt 0.375000 0.687500
vt 0.312500 0.677083
vt 0.312500 0.687500
vt 0.750000 0.562500
vt 0.812500 0.562500
vt 0.687500 0.687500
vt 0.750000 0.687500
vt 0.625000 0.093750
vt 0.375000 0.093750
vt 0.625000 0.104167
vt 0.375000 0.104167
vt 0.625000 0.635417
vt 0.375000 0.635417
vt 0.625000 0.645833
vt 0.375000 0.645833
vt 0.312500 0.635417
vt 0.312500 0.645833
vt 0.687500 0.625000
vt 0.750000 0.583333
vt 0.750000 0.572917
vt 0.625000 0.135417
vt 0.375000 0.135417
vt 0.625000 0.145833
vt 0.375000 0.145833
vt 0.625000 0.593750
vt 0.375000 0.593750
vt 0.625000 0.604167
vt 0.375000 0.604167
vt 0.312500 0.593750
vt 0.312500 0.604167
vt 0.625000 0.510417
vt 0.750000 0.718750
vt 0.625000 0.177083
vt 0.375000 0.177083
vt 0.625000 0.187500
vt 0.375000 0.187500
vt 0.625000 0.552083
vt 0.375000 0.552083
vt 0.625000 0.562500
vt 0.375000 0.562500
vt 0.312500 0.552083
vt 0.312500 0.562500
vt 0.812500 0.552083
vt 0.750000 0.552083
vt 0.375000 0.510417
vt 0.625000 0.520833
vt 0.375000 0.520833
vt 0.312500 0.500000
vt 0.312500 0.510417
vt 0.312500 0.520833
vt 0.750000 0.677083
vt 0.687500 0.677083
vt 0.375000 0.218750
vt 0.625000 0.229167
vt 0.375000 0.229167
vt 0.750000 0.541667
vt 0.750000 0.729167
vt 0.687500 0.614583
vt 0.750000 0.656250
vt 0.687500 0.656250
vt 0.125000 0.520833
vt 0.187500 0.520833
vt 0.187500 0.531250
vt 0.125000 0.531250
vt 0.250000 0.520833
vt 0.250000 0.531250
vt 0.125000 0.510417
vt 0.187500 0.510417
vt 0.250000 0.510417
vt 0.125000 0.500000
vt 0.187500 0.500000
vt 0.250000 0.500000
vt 0.687500 0.562500
vt 0.687500 0.572917
vt 0.687500 0.552083
vt 0.125000 0.562500
vt 0.187500 0.562500
vt 0.187500 0.572917
vt 0.125000 0.572917
vt 0.250000 0.562500
vt 0.250000 0.572917
vt 0.125000 0.552083
vt 0.187500 0.552083
vt 0.250000 0.552083
vt 0.125000 0.541667
vt 0.187500 0.541667
vt 0.250000 0.541667
vt 0.687500 0.604167
vt 0.687500 0.583333
vt 0.125000 0.604167
vt 0.187500 0.604167
vt 0.187500 0.614583
vt 0.125000 0.614583
vt 0.250000 0.604167
vt 0.250000 0.614583
vt 0.125000 0.593750
vt 0.187500 0.593750
vt 0.250000 0.593750
vt 0.125000 0.583333
vt 0.187500 0.583333
vt 0.250000 0.583333
vt 0.687500 0.697917
vt 0.625000 0.875000
vt 0.125000 0.645833
vt 0.187500 0.645833
vt 0.187500 0.656250
vt 0.125000 0.656250
vt 0.250000 0.645833
vt 0.250000 0.656250
vt 0.125000 0.635417
vt 0.187500 0.635417
vt 0.250000 0.635417
vt 0.125000 0.625000
vt 0.187500 0.625000
vt 0.250000 0.625000
vt 0.625000 0.812500
vt 0.125000 0.687500
vt 0.187500 0.687500
vt 0.187500 0.697917
vt 0.125000 0.697917
vt 0.250000 0.687500
vt 0.250000 0.697917
vt 0.125000 0.677083
vt 0.187500 0.677083
vt 0.250000 0.677083
vt 0.125000 0.666667
vt 0.187500 0.666667
vt 0.250000 0.666667
vt 0.125000 0.729167
vt 0.187500 0.729167
vt 0.187500 0.739583
vt 0.125000 0.739583
vt 0.250000 0.729167
vt 0.250000 0.739583
vt 0.125000 0.718750
vt 0.187500 0.718750
vt 0.250000 0.718750
vt 0.125000 0.708333
vt 0.187500 0.708333
vt 0.250000 0.708333
vt 0.687500 0.729167
vt 0.687500 0.718750
vt 0.625000 0.375000
vt 0.625000 0.312500
vt 0.187500 0.750000
vt 0.125000 0.750000
vt 0.250000 0.750000
vt 0.375000 0.812500
vt 0.375000 0.875000
vt 0.375000 0.312500
vt 0.375000 0.375000
vt 0.750000 0.520833
vt 0.750000 0.510417
vt 0.750000 0.635417
vt 0.750000 0.625000
vt 0.812500 0.583333
vt 0.812500 0.572917
vt 0.750000 0.531250
vt 0.750000 0.645833
vt 0.812500 0.625000
vt 0.812500 0.614583
vt 0.812500 0.666667
vt 0.812500 0.531250
vt 0.812500 0.656250
vt 0.812500 0.645833
vt 0.812500 0.541667
vt 0.875000 0.541667
vt 0.875000 0.552083
vt 0.875000 0.562500
vt 0.875000 0.572917
vt 0.687500 0.520833
vt 0.750000 0.500000
vt 0.812500 0.500000
vt 0.812500 0.510417
vt 0.750000 0.604167
vt 0.750000 0.614583
vt 0.812500 0.593750
vt 0.812500 0.604167
vt 0.687500 0.645833
vt 0.687500 0.635417
vt 0.812500 0.708333
vt 0.812500 0.697917
vt 0.750000 0.697917
vt 0.812500 0.677083
vt 0.812500 0.687500
vt 0.812500 0.718750
vt 0.812500 0.729167
vt 0.812500 0.739583
vt 0.750000 0.750000
vt 0.875000 0.739583
vt 0.875000 0.750000
vt 0.812500 0.750000
vt 0.875000 0.531250
vt 0.875000 0.583333
vt 0.875000 0.614583
vt 0.875000 0.625000
vt 0.875000 0.656250
vt 0.875000 0.666667
vt 0.875000 0.697917
vt 0.875000 0.708333
vt 0.875000 0.718750
vt 0.875000 0.729167
vt 0.875000 0.677083
vt 0.875000 0.687500
vt 0.875000 0.635417
vt 0.812500 0.635417
vt 0.875000 0.645833
vt 0.875000 0.593750
vt 0.875000 0.604167
vt 0.875000 0.500000
vt 0.875000 0.510417
vt 0.875000 0.520833
vt 0.812500 0.520833
s 0
usemtl マテリアル
f 95/1/1 91/2/1 4/3/1 3/4/1
f 101/5/2 106/6/2 8/7/2 7/8/2
f 38/9/3 34/10/3 6/11/3 5/12/3
f 107/13/4 112/14/4 2/15/4 1/16/4
f 158/17/5 38/9/5 5/12/5 109/18/5
f 208/19/6 207/20/6 331/20/6 332/19/6
f 89/21/7 18/22/7 264/22/7 283/21/7
f 126/23/8 127/24/8 308/24/8 307/23/8
f 110/25/9 151/26/9 315/26/9 294/25/9
f 244/27/10 106/28/10 293/28/10 288/27/10
f 2/15/11 112/14/11 253/14/11 254/15/11
f 239/29/12 92/30/12 23/31/12 128/32/12
f 221/33/12 83/34/12 22/35/12 131/36/12
f 203/37/12 71/38/12 21/39/12 134/40/12
f 185/41/12 59/42/12 20/43/12 137/44/12
f 167/45/12 47/46/12 19/47/12 140/48/12
f 92/30/13 100/49/13 24/50/13 23/31/13
f 83/34/14 88/51/14 25/52/14 22/35/14
f 71/38/15 76/53/15 26/54/15 21/39/15
f 59/42/16 64/55/16 27/56/16 20/43/16
f 47/46/14 52/57/14 28/58/14 19/47/14
f 29/59/17 37/60/17 14/61/17 13/62/17
f 41/63/17 46/64/17 15/65/17 12/66/17
f 53/67/17 58/68/17 16/69/17 11/70/17
f 65/71/17 70/72/17 17/73/17 10/74/17
f 77/75/17 82/76/17 18/22/17 9/77/17
f 1/78/18 2/79/18 35/80/18 31/81/18
f 31/81/17 35/80/17 36/82/17 30/83/17
f 30/83/17 36/82/17 37/60/17 29/59/17
f 151/26/19 150/84/19 314/84/19 315/26/19
f 124/85/20 123/86/20 304/86/20 305/85/20
f 115/87/21 250/88/21 290/88/21 298/87/21
f 140/48/12 19/47/12 40/89/12 152/90/12
f 152/90/12 40/89/12 39/91/12 155/92/12
f 155/92/12 39/91/12 38/9/12 158/17/12
f 19/47/14 28/58/14 32/93/14 40/89/14
f 40/89/22 32/93/22 33/94/22 39/91/22
f 39/91/23 33/94/23 34/10/23 38/9/23
f 13/62/17 14/61/17 44/95/17 43/96/17
f 43/96/17 44/95/17 45/97/17 42/98/17
f 42/98/17 45/97/17 46/64/17 41/63/17
f 20/43/24 27/56/24 50/99/24 49/100/24
f 49/100/25 50/99/25 51/101/25 48/102/25
f 48/102/26 51/101/26 52/57/26 47/46/26
f 137/44/12 20/43/12 49/100/12 161/103/12
f 161/103/12 49/100/12 48/102/12 164/104/12
f 164/104/12 48/102/12 47/46/12 167/45/12
f 228/105/27 227/106/27 341/106/27 342/105/27
f 250/88/28 100/49/28 287/49/28 290/88/28
f 175/107/29 174/108/29 320/108/29 321/107/29
f 12/66/17 15/65/17 56/109/17 55/110/17
f 55/110/17 56/109/17 57/111/17 54/112/17
f 54/112/17 57/111/17 58/68/17 53/67/17
f 21/39/30 26/54/30 62/113/30 61/114/30
f 61/114/31 62/113/31 63/115/31 60/116/31
f 60/116/32 63/115/32 64/55/32 59/42/32
f 134/40/12 21/39/12 61/114/12 179/117/12
f 179/117/12 61/114/12 60/116/12 182/118/12
f 182/118/12 60/116/12 59/42/12 185/41/12
f 26/54/33 121/119/33 265/119/33 266/54/33
f 37/60/34 36/82/34 268/82/34 255/60/34
f 117/120/35 231/121/35 344/121/35 300/120/35
f 11/70/17 16/69/17 68/122/17 67/123/17
f 67/123/17 68/122/17 69/124/17 66/125/17
f 66/125/17 69/124/17 70/72/17 65/71/17
f 22/35/14 25/52/14 74/126/14 73/127/14
f 73/127/14 74/126/14 75/128/14 72/129/14
f 72/129/14 75/128/14 76/53/14 71/38/14
f 131/36/12 22/35/12 73/127/12 197/130/12
f 197/130/12 73/127/12 72/129/12 200/131/12
f 200/131/12 72/129/12 71/38/12 203/37/12
f 98/132/36 244/27/36 288/27/36 285/132/36
f 36/82/37 35/80/37 267/80/37 268/82/37
f 144/133/38 126/23/38 307/23/38 310/133/38
f 10/74/17 17/73/17 80/134/17 79/135/17
f 79/135/17 80/134/17 81/136/17 78/137/17
f 78/137/17 81/136/17 82/76/17 77/75/17
f 23/31/14 24/50/14 86/138/14 85/139/14
f 85/139/14 86/138/14 87/140/14 84/141/14
f 84/141/14 87/140/14 88/51/14 83/34/14
f 128/32/12 23/31/12 85/139/12 215/142/12
f 215/142/12 85/139/12 84/141/12 218/143/12
f 218/143/12 84/141/12 83/34/12 221/33/12
f 64/55/39 63/115/39 274/115/39 275/55/39
f 35/80/40 2/79/40 254/79/40 267/80/40
f 224/144/41 225/145/41 340/145/41 339/144/41
f 7/8/42 8/7/42 98/132/42 94/146/42
f 94/146/30 98/132/30 99/147/30 93/148/30
f 93/148/32 99/147/32 100/49/32 92/30/32
f 101/149/43 7/8/43 94/146/43 233/150/43
f 233/150/12 94/146/12 93/148/12 236/151/12
f 236/151/12 93/148/12 92/30/12 239/29/12
f 63/115/44 62/113/44 273/113/44 274/115/44
f 171/152/45 172/153/45 318/153/45 317/152/45
f 172/153/46 124/85/46 305/85/46 318/153/46
f 9/77/17 18/22/17 89/21/17 97/154/17
f 97/154/17 89/21/17 90/155/17 96/156/17
f 96/156/17 90/155/17 91/2/17 95/1/17
f 62/113/47 26/54/47 266/54/47 273/113/47
f 225/145/48 114/157/48 297/157/48 340/145/48
f 147/158/49 144/133/49 310/133/49 312/158/49
f 121/119/50 214/159/50 338/159/50 265/119/50
f 195/160/51 196/161/51 278/161/51 329/160/51
f 174/108/52 171/152/52 317/152/52 320/108/52
f 8/7/53 106/28/53 244/27/53 98/132/53
f 46/64/54 45/97/54 270/97/54 257/64/54
f 227/106/55 224/144/55 339/144/55 341/106/55
f 96/162/56 238/163/56 241/164/56 97/165/56
f 238/163/57 237/166/57 240/167/57 241/164/57
f 237/166/57 236/151/57 239/29/57 240/167/57
f 95/168/56 235/169/56 238/163/56 96/162/56
f 235/169/57 234/170/57 237/166/57 238/163/57
f 234/170/57 233/150/57 236/151/57 237/166/57
f 3/171/58 103/172/58 235/169/58 95/168/58
f 103/172/59 102/173/59 234/170/59 235/169/59
f 102/173/59 101/149/59 233/150/59 234/170/59
f 87/140/60 229/174/60 232/175/60 88/51/60
f 229/174/61 228/105/61 231/121/61 232/175/61
f 4/3/62 91/2/62 251/2/62 252/3/62
f 86/138/60 226/176/60 229/174/60 87/140/60
f 226/176/63 225/145/63 228/105/63 229/174/63
f 225/145/64 224/144/64 227/106/64 228/105/64
f 24/50/65 115/87/65 226/176/65 86/138/65
f 115/87/66 114/157/66 225/145/66 226/176/66
f 45/97/54 44/95/54 269/95/54 270/97/54
f 78/177/56 220/178/56 223/179/56 79/180/56
f 220/178/57 219/181/57 222/182/57 223/179/57
f 219/181/57 218/143/57 221/33/57 222/182/57
f 77/183/56 217/184/56 220/178/56 78/177/56
f 217/184/57 216/185/57 219/181/57 220/178/57
f 216/185/57 215/142/57 218/143/57 219/181/57
f 9/186/56 130/187/56 217/184/56 77/183/56
f 130/187/57 129/188/57 216/185/57 217/184/57
f 129/188/57 128/32/57 215/142/57 216/185/57
f 75/128/67 211/189/67 214/159/67 76/53/67
f 123/86/68 195/160/68 329/160/68 304/86/68
f 150/84/69 147/158/69 312/158/69 314/84/69
f 74/126/70 208/19/70 211/189/70 75/128/70
f 114/157/71 115/87/71 298/87/71 297/157/71
f 44/95/54 14/61/54 256/61/54 269/95/54
f 25/52/72 118/190/72 208/19/72 74/126/72
f 118/190/73 117/120/73 207/20/73 208/19/73
f 58/68/74 57/111/74 272/111/74 259/68/74
f 66/191/56 202/192/56 205/193/56 67/194/56
f 202/192/57 201/195/57 204/196/57 205/193/57
f 201/195/57 200/131/57 203/37/57 204/196/57
f 65/197/56 199/198/56 202/192/56 66/191/56
f 199/198/57 198/199/57 201/195/57 202/192/57
f 198/199/57 197/130/57 200/131/57 201/195/57
f 10/200/56 133/201/56 199/198/56 65/197/56
f 133/201/57 132/202/57 198/199/57 199/198/57
f 132/202/57 131/36/57 197/130/57 198/199/57
f 100/49/39 99/147/39 286/147/39 287/49/39
f 57/111/74 56/109/74 271/109/74 272/111/74
f 178/203/75 175/107/75 321/107/75 324/203/75
f 99/147/76 98/132/76 285/132/76 286/147/76
f 231/121/77 228/105/77 342/105/77 344/121/77
f 56/109/74 15/65/74 258/65/74 271/109/74
f 70/72/74 69/124/74 280/124/74 261/72/74
f 112/14/78 111/204/78 295/204/78 253/14/78
f 127/24/79 178/203/79 324/203/79 308/24/79
f 54/205/56 184/206/56 187/207/56 55/208/56
f 184/206/57 183/209/57 186/210/57 187/207/57
f 183/209/57 182/118/57 185/41/57 186/210/57
f 53/211/56 181/212/56 184/206/56 54/205/56
f 181/212/57 180/213/57 183/209/57 184/206/57
f 180/213/57 179/117/57 182/118/57 183/209/57
f 11/214/56 136/215/56 181/212/56 53/211/56
f 136/215/57 135/216/57 180/213/57 181/212/57
f 135/216/57 134/40/57 179/117/57 180/213/57
f 51/101/80 175/107/80 178/203/80 52/57/80
f 69/124/74 68/122/74 279/122/74 280/124/74
f 111/204/81 110/217/81 294/217/81 295/204/81
f 50/99/82 172/153/82 175/107/82 51/101/82
f 172/153/83 171/152/83 174/108/83 175/107/83
f 68/122/74 16/69/74 260/69/74 279/122/74
f 27/56/84 124/85/84 172/153/84 50/99/84
f 207/20/85 117/120/85 300/120/85 331/20/85
f 82/76/86 81/136/86 282/136/86 263/76/86
f 42/218/56 166/219/56 169/220/56 43/221/56
f 166/219/57 165/222/57 168/223/57 169/220/57
f 165/222/57 164/104/57 167/45/57 168/223/57
f 41/224/56 163/225/56 166/219/56 42/218/56
f 163/225/57 162/226/57 165/222/57 166/219/57
f 162/226/57 161/103/57 164/104/57 165/222/57
f 12/227/56 139/228/56 163/225/56 41/224/56
f 139/228/57 138/229/57 162/226/57 163/225/57
f 138/229/57 137/44/57 161/103/57 162/226/57
f 30/230/56 157/231/56 160/232/56 31/233/56
f 157/231/57 156/234/57 159/235/57 160/232/57
f 156/234/57 155/92/57 158/17/57 159/235/57
f 29/236/56 154/237/56 157/231/56 30/230/56
f 154/237/57 153/238/57 156/234/57 157/231/57
f 153/238/57 152/90/57 155/92/57 156/234/57
f 13/239/56 142/240/56 154/237/56 29/236/56
f 142/240/57 141/241/57 153/238/57 154/237/57
f 141/241/57 140/48/57 152/90/57 153/238/57
f 33/94/87 148/242/87 151/26/87 34/10/87
f 148/242/88 147/158/88 150/84/88 151/26/88
f 81/136/89 80/134/89 281/134/89 282/136/89
f 32/93/90 145/243/90 148/242/90 33/94/90
f 145/243/91 144/133/91 147/158/91 148/242/91
f 18/22/92 82/76/92 263/76/92 264/22/92
f 28/58/65 127/24/65 145/243/65 32/93/65
f 127/24/93 126/23/93 144/133/93 145/243/93
f 80/134/94 17/73/94 262/73/94 281/134/94
f 43/221/56 169/220/56 142/240/56 13/239/56
f 169/220/57 168/223/57 141/241/57 142/240/57
f 168/223/57 167/45/57 140/48/57 141/241/57
f 55/208/56 187/207/56 139/228/56 12/227/56
f 187/207/57 186/210/57 138/229/57 139/228/57
f 186/210/57 185/41/57 137/44/57 138/229/57
f 67/194/56 205/193/56 136/215/56 11/214/56
f 205/193/57 204/196/57 135/216/57 136/215/57
f 204/196/57 203/37/57 134/40/57 135/216/57
f 79/180/56 223/179/56 133/201/56 10/200/56
f 223/179/57 222/182/57 132/202/57 133/201/57
f 222/182/57 221/33/57 131/36/57 132/202/57
f 97/165/56 241/164/56 130/187/56 9/186/56
f 241/164/57 240/167/57 129/188/57 130/187/57
f 240/167/57 239/29/57 128/32/57 129/188/57
f 52/57/95 178/203/95 127/24/95 28/58/95
f 17/73/74 70/72/74 261/72/74 262/73/74
f 16/69/74 58/68/74 259/68/74 260/69/74
f 64/55/96 196/161/96 124/85/96 27/56/96
f 196/161/97 195/160/97 123/86/97 124/85/97
f 196/161/98 64/55/98 275/55/98 278/161/98
f 76/53/99 214/159/99 121/119/99 26/54/99
f 211/189/100 208/19/100 332/19/100 335/189/100
f 15/65/101 46/64/101 257/64/101 258/65/101
f 88/51/60 232/175/60 118/190/60 25/52/60
f 232/175/102 231/121/102 117/120/102 118/190/102
f 106/6/103 105/244/103 292/244/103 293/6/103
f 100/49/104 250/88/104 115/87/104 24/50/104
f 14/61/105 37/60/105 255/60/105 256/61/105
f 91/2/74 90/155/74 284/155/74 251/2/74
f 34/10/106 151/26/106 110/25/106 6/11/106
f 105/244/107 104/245/107 291/245/107 292/244/107
f 90/155/74 89/21/74 283/21/74 284/155/74
f 31/233/108 160/232/108 107/246/108 1/247/108
f 160/232/109 159/235/109 108/248/109 107/246/109
f 159/235/109 158/17/109 109/18/109 108/248/109
f 5/12/110 6/11/110 110/217/110 109/249/110
f 109/249/111 110/217/111 111/204/111 108/250/111
f 108/250/112 111/204/112 112/14/112 107/13/112
f 3/4/113 4/3/113 104/245/113 103/251/113
f 103/251/114 104/245/114 105/244/114 102/252/114
f 102/252/115 105/244/115 106/6/115 101/5/115
f 347/253/116 346/254/116 372/254/116 374/253/116
f 260/69/117 259/68/117 213/68/117 212/69/117
f 284/155/118 283/21/118 173/21/118 170/155/118
f 258/65/119 257/64/119 242/64/119 230/65/119
f 325/255/120 302/256/120 120/256/120 361/255/120
f 283/21/121 264/22/121 176/22/121 173/21/121
f 256/61/122 255/60/122 245/60/122 243/61/122
f 299/257/123 343/258/123 370/258/123 125/257/123
f 349/259/124 347/253/124 374/253/124 376/259/124
f 254/15/125 253/14/125 247/14/125 246/15/125
f 327/260/126 325/255/126 361/255/126 363/260/126
f 252/3/127 251/2/127 249/2/127 248/3/127
f 281/134/128 262/73/128 209/73/128 177/134/128
f 301/261/129 336/262/129 368/262/129 122/261/129
f 261/72/130 280/124/130 188/124/130 210/72/130
f 304/86/131 303/263/131 119/263/131 116/86/131
f 348/264/132 349/259/132 376/259/132 375/264/132
f 328/265/133 326/266/133 362/266/133 364/265/133
f 296/267/134 264/268/134 263/269/134 339/144/134
f 339/144/135 263/269/135 282/270/135 341/106/135
f 341/106/136 282/270/136 281/271/136 343/258/136
f 280/124/137 279/122/137 189/122/137 188/124/137
f 326/266/138 327/260/138 363/260/138 362/266/138
f 279/122/137 260/69/137 212/69/137 189/122/137
f 286/147/139 289/272/139 290/88/139 287/49/139
f 289/272/140 347/253/140 349/259/140 290/88/140
f 303/263/141 328/265/141 364/265/141 119/263/141
f 285/132/142 288/27/142 289/272/142 286/147/142
f 288/27/143 346/254/143 347/253/143 289/272/143
f 302/256/144 301/261/144 122/261/144 120/256/144
f 293/28/145 292/273/145 346/254/145 288/27/145
f 292/273/146 291/274/146 345/275/146 346/254/146
f 342/105/147 341/106/147 343/258/147 344/121/147
f 297/157/148 296/267/148 339/144/148 340/145/148
f 335/189/149 334/276/149 337/277/149 338/159/149
f 330/278/150 299/257/150 125/257/150 365/278/150
f 332/19/151 331/20/151 334/276/151 335/189/151
f 331/20/152 330/278/152 333/279/152 334/276/152
f 300/120/153 299/257/153 330/278/153 331/20/153
f 274/115/154 277/280/154 278/161/154 275/55/154
f 277/280/155 327/260/155 329/160/155 278/161/155
f 327/260/156 326/266/156 328/265/156 329/160/156
f 273/113/157 276/281/157 277/280/157 274/115/157
f 276/281/158 325/255/158 327/260/158 277/280/158
f 306/282/159 322/283/159 358/283/159 113/282/159
f 266/54/160 265/119/160 276/281/160 273/113/160
f 265/119/161 302/256/161 325/255/161 276/281/161
f 333/279/162 330/278/162 365/278/162 366/279/162
f 321/107/163 320/108/163 323/284/163 324/203/163
f 346/254/164 345/275/164 371/275/164 372/254/164
f 317/152/165 316/285/165 319/286/165 320/108/165
f 305/85/166 304/86/166 317/152/166 318/153/166
f 309/287/167 306/282/167 113/282/167 350/287/167
f 312/158/168 311/288/168 313/289/168 314/84/168
f 310/133/169 309/287/169 311/288/169 312/158/169
f 307/23/170 306/282/170 309/287/170 310/133/170
f 324/203/171 323/284/171 307/23/171 308/24/171
f 323/284/172 322/283/172 306/282/172 307/23/172
f 329/160/173 328/265/173 303/263/173 304/86/173
f 338/159/174 337/277/174 302/256/174 265/119/174
f 337/277/175 336/262/175 301/261/175 302/256/175
f 344/121/176 343/258/176 299/257/176 300/120/176
f 290/88/177 349/259/177 297/157/177 298/87/177
f 349/259/178 348/264/178 296/267/178 297/157/178
f 315/26/179 314/84/179 295/290/179 294/25/179
f 322/283/180 323/284/180 359/284/180 358/283/180
f 214/159/181 211/189/181 335/189/181 338/159/181
f 104/245/182 4/3/182 252/3/182 291/245/182
f 352/289/183 206/291/183 246/292/183 247/293/183
f 375/264/184 173/294/184 176/268/184 143/267/184
f 370/258/185 177/271/185 209/295/185 125/257/185
f 368/262/186 189/296/186 212/297/186 122/261/186
f 364/265/187 191/298/187 230/299/187 119/263/187
f 358/283/188 193/300/188 243/301/188 113/282/188
f 113/282/189 243/301/189 245/302/189 350/287/189
f 350/287/190 245/302/190 194/303/190 351/288/190
f 351/288/191 194/303/191 206/291/191 352/289/191
f 119/263/192 230/299/192 242/304/192 354/285/192
f 354/285/193 242/304/193 192/305/193 356/286/193
f 356/286/194 192/305/194 193/300/194 358/283/194
f 122/261/195 212/297/195 213/306/195 360/307/195
f 360/307/196 213/306/196 190/308/196 362/266/196
f 362/266/197 190/308/197 191/298/197 364/265/197
f 125/257/198 209/295/198 210/309/198 365/278/198
f 365/278/199 210/309/199 188/310/199 366/279/199
f 366/279/200 188/310/200 189/296/200 368/262/200
f 149/274/201 248/311/201 249/312/201 371/275/201
f 371/275/202 249/312/202 170/313/202 373/314/202
f 373/314/203 170/313/203 173/294/203 375/264/203
f 374/253/204 373/314/204 375/264/204 376/259/204
f 372/254/205 371/275/205 373/314/205 374/253/205
f 367/276/206 366/279/206 368/262/206 369/277/206
f 361/255/207 360/307/207 362/266/207 363/260/207
f 120/256/208 122/261/208 360/307/208 361/255/208
f 357/108/209 356/286/209 358/283/209 359/284/209
f 116/86/210 119/263/210 354/285/210 355/152/210
f 353/84/211 352/289/211 247/293/211 146/290/211
f 296/267/212 348/264/212 375/264/212 143/267/212
f 251/2/213 284/155/213 170/155/213 249/2/213
f 262/73/214 261/72/214 210/72/214 209/73/214
f 323/284/215 320/108/215 357/108/215 359/284/215
f 334/276/216 333/279/216 366/279/216 367/276/216
f 295/290/217 314/84/217 353/84/217 146/290/217
f 267/80/218 254/79/218 246/79/218 206/80/218
f 345/275/219 291/274/219 149/274/219 371/275/219
f 314/84/220 313/289/220 352/289/220 353/84/220
f 268/82/221 267/80/221 206/80/221 194/82/221
f 319/286/222 316/285/222 354/285/222 356/286/222
f 336/262/223 337/277/223 369/277/223 368/262/223
f 255/60/224 268/82/224 194/82/224 245/60/224
f 291/245/225 252/3/225 248/3/225 149/245/225
f 269/95/226 256/61/226 243/61/226 193/95/226
f 317/152/227 304/86/227 116/86/227 355/152/227
f 316/285/228 317/152/228 355/152/228 354/285/228
f 270/97/229 269/95/229 193/95/229 192/97/229
f 257/64/229 270/97/229 192/97/229 242/64/229
f 271/109/230 258/65/230 230/65/230 191/109/230
f 313/289/231 311/288/231 351/288/231 352/289/231
f 320/108/232 319/286/232 356/286/232 357/108/232
f 253/14/233 295/204/233 146/204/233 247/14/233
f 272/111/214 271/109/214 191/109/214 190/111/214
f 337/277/234 334/276/234 367/276/234 369/277/234
f 343/258/235 281/271/235 177/271/235 370/258/235
f 264/268/236 296/267/236 143/267/236 176/268/236
f 311/288/237 309/287/237 350/287/237 351/288/237
f 259/68/238 272/111/238 190/111/238 213/68/238
