# Blender 4.4.1
# www.blender.org
mtllib SignBoard.mtl
o 立方体
v -1.548919 1.250023 0.133870
v -1.548919 1.269911 0.137429
v -1.590105 1.269911 0.133870
v -1.548919 2.765832 0.137429
v -1.548919 2.785721 0.133870
v -1.590105 2.765832 0.133870
v -1.548919 1.250023 -0.133870
v -1.590105 1.269911 -0.133870
v -1.548919 1.269911 -0.137429
v -1.548919 2.785721 -0.133870
v -1.548919 2.765832 -0.137429
v -1.590105 2.765832 -0.133870
v 1.548919 1.250023 0.133870
v 1.590105 1.269911 0.133870
v 1.548919 1.269911 0.137429
v 1.548919 2.785721 0.133870
v 1.548919 2.765832 0.137429
v 1.590105 2.765832 0.133870
v 1.548919 1.269911 -0.137429
v 1.590105 1.269911 -0.133870
v 1.548919 1.250023 -0.133870
v 1.548919 2.765832 -0.137429
v 1.548919 2.785721 -0.133870
v 1.590105 2.765832 -0.133870
v 0.059282 1.230134 -0.102844
v 0.071998 1.250023 -0.106403
v 0.141655 1.250023 -0.102194
v 0.100469 1.230134 -0.099284
v -0.059282 1.230134 -0.102844
v -0.100469 1.230134 -0.099284
v -0.141655 1.250023 -0.102194
v -0.071998 1.250023 -0.106403
v -0.059282 1.230134 0.102844
v -0.071998 1.250023 0.106403
v -0.141655 1.250023 0.102194
v -0.100469 1.230134 0.099284
v 0.059282 1.230134 0.102844
v 0.100469 1.230134 0.099284
v 0.141655 1.250023 0.102194
v 0.071998 1.250023 0.106403
v 0.292798 1.250023 -0.133870
v 0.210425 1.250023 -0.117930
v 0.192030 1.250023 -0.133870
v 0.251612 1.269911 -0.137429
v -0.292798 1.250023 -0.133870
v -0.251612 1.269911 -0.137429
v -0.192030 1.250023 -0.133870
v -0.210425 1.250023 -0.117930
v -0.292798 1.250023 0.133870
v -0.210425 1.250023 0.117930
v -0.192030 1.250023 0.133870
v -0.251612 1.269911 0.137429
v 0.292798 1.250023 0.133870
v 0.251612 1.269911 0.137429
v 0.192030 1.250023 0.133870
v 0.210425 1.250023 0.117930
v 0.059282 0.011488 -0.102844
v 0.100469 0.011488 -0.099284
v 0.059282 -0.008400 -0.099284
v -0.059282 0.011488 -0.102844
v -0.059282 -0.008400 -0.099284
v -0.100469 0.011488 -0.099284
v -0.059282 0.011488 0.102844
v -0.100469 0.011488 0.099284
v -0.059282 -0.008400 0.099284
v 0.059282 0.011488 0.102844
v 0.059282 -0.008400 0.099284
v 0.100469 0.011488 0.099284
vn -0.0000 -0.0000 1.0000
vn -0.0000 -0.0000 -1.0000
vn 1.0000 -0.0000 -0.0000
vn -1.0000 -0.0000 -0.0000
vn -0.0000 1.0000 -0.0000
vn -0.0000 -1.0000 -0.0000
vn -0.0848 -0.1755 0.9808
vn -0.0848 0.1755 0.9808
vn -0.0848 -0.1755 -0.9808
vn -0.0848 0.1755 -0.9808
vn 0.0848 -0.1755 0.9808
vn 0.0848 0.1755 0.9808
vn 0.0848 -0.1755 -0.9808
vn 0.0848 0.1755 -0.9808
vn 0.0677 -0.2489 -0.9662
vn -0.0677 -0.2489 -0.9662
vn -0.0677 -0.2489 0.9662
vn 0.0677 -0.2489 0.9662
vn -0.0000 -0.7001 -0.7141
vn -0.0000 -0.7001 0.7141
vn -0.4348 -0.9005 -0.0000
vn -0.0861 -0.0000 0.9963
vn -0.4348 0.9005 -0.0000
vn -0.0861 -0.0000 -0.9963
vn -0.0000 -0.1762 -0.9844
vn 0.0861 -0.0000 -0.9963
vn 0.4348 -0.9005 -0.0000
vn 0.4348 0.9005 -0.0000
vn 0.0861 -0.0000 0.9963
vn -0.0000 -0.1762 0.9844
vn -0.0000 0.1762 -0.9844
vn -0.0000 0.1762 0.9844
vt 0.621762 0.753231
vt 0.621762 0.996769
vt 0.378238 0.997229
vt 0.378238 0.914048
vt 0.378238 0.835952
vt 0.378238 0.752771
vt 0.353071 0.380235
vt 0.312541 0.462589
vt 0.312541 0.462589
vt 0.353071 0.380235
vt 0.378238 0.503238
vt 0.621762 0.503238
vt 0.621762 0.746762
vt 0.378238 0.746762
vt 0.621762 0.253231
vt 0.621762 0.496769
vt 0.378238 0.497229
vt 0.378238 0.414048
vt 0.378238 0.335952
vt 0.378238 0.252771
vt 0.378238 0.003238
vt 0.621762 0.003238
vt 0.621762 0.246762
vt 0.378238 0.246762
vt 0.628238 0.503238
vt 0.871762 0.503238
vt 0.871762 0.746762
vt 0.628238 0.746762
vt 0.294231 0.503238
vt 0.372436 0.503238
vt 0.372436 0.746762
vt 0.294231 0.746762
vt 0.333112 0.807704
vt 0.251275 0.766138
vt 0.251275 0.766138
vt 0.333113 0.807704
vt 0.299553 0.496925
vt 0.360449 0.816415
vt 0.360449 0.816415
vt 0.299553 0.496925
vt 0.312407 0.468725
vt 0.333246 0.801568
vt 0.252547 0.759623
vt 0.351799 0.386750
vt 0.225345 0.744776
vt 0.364653 0.358551
vt 0.364653 0.358551
vt 0.225345 0.744776
vt 0.363048 0.362512
vt 0.225134 0.735366
vt 0.218420 0.735087
vt 0.366729 0.353695
vt 0.309993 0.467335
vt 0.355727 0.374512
vt 0.366273 0.351094
vt 0.300285 0.483216
vt 0.362149 0.812422
vt 0.299669 0.506366
vt 0.296574 0.509915
vt 0.368277 0.817970
vt 0.245999 0.764000
vt 0.338280 0.810819
vt 0.357753 0.824231
vt 0.225689 0.758126
vt 0.127564 0.746762
vt 0.127564 0.750000
vt 0.125000 0.746762
vt 0.621762 0.000000
vt 0.625000 0.003238
vt 0.127564 0.503238
vt 0.125000 0.503238
vt 0.127564 0.500000
vt 0.625000 0.246762
vt 0.621762 0.250000
vt 0.375000 0.746762
vt 0.372436 0.750000
vt 0.625000 0.753238
vt 0.621762 0.750000
vt 0.372436 0.500000
vt 0.375000 0.503238
vt 0.625000 0.496762
vt 0.621762 0.500000
vt 0.292048 0.499507
vt 0.295250 0.495357
vt 0.291667 0.500000
vt 0.372842 0.338729
vt 0.375000 0.333333
vt 0.373907 0.335881
vt 0.210492 0.744604
vt 0.210355 0.750237
vt 0.208333 0.750000
vt 0.374246 0.832706
vt 0.375000 0.833333
vt 0.367901 0.827431
vt 0.378238 0.000000
vt 0.205769 0.503238
vt 0.208333 0.500000
vt 0.291667 0.750000
vt 0.625000 0.253238
vt 0.205769 0.746762
vt 0.625000 0.996762
vt 0.292746 0.504317
vt 0.373921 0.829016
s 0
usemtl マテリアル.001
f 17/1/1 4/2/1 2/3/1 52/4/1 54/5/1 15/6/1
f 29/7/2 25/8/2 57/9/2 60/10/2
f 20/11/3 24/12/3 18/13/3 14/14/3
f 11/15/2 22/16/2 19/17/2 44/18/2 46/19/2 9/20/2
f 3/21/4 6/22/4 12/23/4 8/24/4
f 23/25/5 10/26/5 5/27/5 16/28/5
f 41/29/6 21/30/6 13/31/6 53/32/6
f 37/33/1 33/34/1 63/35/1 66/36/1
f 28/37/3 38/38/3 68/39/3 58/40/3
f 59/41/6 67/42/6 65/43/6 61/44/6
f 36/45/4 30/46/4 62/47/4 64/48/4
f 31/49/6 35/50/6 50/51/6 48/52/6
f 26/53/6 32/54/6 47/55/6 43/56/6
f 39/57/6 27/58/6 42/59/6 56/60/6
f 34/61/6 40/62/6 55/63/6 51/64/6
f 1/65/7 2/66/7 3/67/7
f 4/68/8 5/69/8 6/22/8
f 7/70/9 8/71/9 9/72/9
f 10/73/10 11/74/10 12/23/10
f 13/31/11 14/75/11 15/76/11
f 16/77/12 17/1/12 18/78/12
f 19/79/13 20/80/13 21/30/13
f 22/16/14 23/81/14 24/82/14
f 25/8/15 26/53/15 27/58/15 28/37/15
f 29/7/16 30/46/16 31/49/16 32/54/16
f 33/34/17 34/61/17 35/50/17 36/45/17
f 37/33/18 38/38/18 39/57/18 40/62/18
f 41/83/19 42/84/19 43/56/19 44/85/19
f 45/86/19 46/87/19 47/88/19 48/52/19
f 49/89/20 50/51/20 51/90/20 52/91/20
f 53/92/20 54/93/20 55/63/20 56/94/20
f 57/9/13 58/40/13 59/41/13
f 60/10/9 61/44/9 62/47/9
f 63/35/7 64/48/7 65/43/7
f 66/36/11 67/42/11 68/39/11
f 7/70/21 1/65/21 3/67/21 8/71/21
f 2/95/22 4/68/22 6/22/22 3/21/22
f 5/69/23 10/73/23 12/23/23 6/22/23
f 11/15/24 9/20/24 8/24/24 12/23/24
f 45/96/25 7/70/25 9/72/25 46/97/25
f 24/12/26 20/11/26 19/17/26 22/16/26
f 13/31/27 21/30/27 20/11/27 14/14/27
f 23/25/28 16/28/28 18/13/28 24/12/28
f 17/1/29 15/6/29 14/14/29 18/13/29
f 53/32/30 13/31/30 15/76/30 54/98/30
f 21/30/25 41/29/25 44/85/25 19/79/25
f 43/56/25 47/55/25 46/87/25 44/85/25
f 10/99/31 23/81/31 22/16/31 11/15/31
f 1/65/30 49/100/30 52/91/30 2/66/30
f 51/64/30 55/63/30 54/93/30 52/91/30
f 16/77/32 5/101/32 4/2/32 17/1/32
f 48/52/6 50/51/6 49/89/6 45/86/6
f 41/102/6 53/103/6 56/60/6 42/59/6
f 25/8/25 29/7/25 32/54/25 26/53/25
f 33/34/30 37/33/30 40/62/30 34/61/30
f 30/46/21 36/45/21 35/50/21 31/49/21
f 27/58/27 39/57/27 38/38/27 28/37/27
f 42/59/6 27/58/6 26/53/6 43/56/6
f 31/49/6 48/52/6 47/55/6 32/54/6
f 50/51/6 35/50/6 34/61/6 51/64/6
f 39/57/6 56/60/6 55/63/6 40/62/6
f 59/41/25 61/44/25 60/10/25 57/9/25
f 65/43/30 67/42/30 66/36/30 63/35/30
f 61/44/21 65/43/21 64/48/21 62/47/21
f 58/40/27 68/39/27 67/42/27 59/41/27
f 29/7/24 60/10/24 62/47/24 30/46/24
f 63/35/22 33/34/22 36/45/22 64/48/22
f 28/37/26 58/40/26 57/9/26 25/8/26
f 37/33/29 66/36/29 68/39/29 38/38/29
f 7/70/6 45/96/6 49/100/6 1/65/6
