# Blender 4.4.1
# www.blender.org
mtllib smallEnemy.mtl
o smallEnemy
v -0.099217 -0.184659 0.024413
v -0.099217 -0.057649 -0.128047
v 0.099217 -0.184659 0.024413
v 0.099217 -0.057649 -0.128047
v -0.113689 -0.094596 -0.106308
v -0.120959 -0.137859 -0.065733
v -0.113689 -0.169951 -0.015853
v -0.113689 -0.023886 0.128213
v -0.113689 0.003101 -0.097558
v 0.058865 -0.052988 -0.162383
v 0.000000 -0.053920 -0.172622
v -0.058865 -0.052644 -0.154591
v 0.113689 0.003101 -0.097558
v 0.113689 -0.169951 -0.015853
v 0.120959 -0.137859 -0.065733
v 0.113689 -0.094596 -0.106308
v 0.113689 -0.023886 0.128213
v -0.058865 -0.205042 0.026269
v 0.000000 -0.215280 0.027202
v 0.058865 -0.205042 0.026269
v -0.144656 -0.021682 0.077161
v -0.155141 -0.017582 0.014468
v -0.144656 -0.006790 -0.047424
v -0.062736 0.002933 -0.128765
v 0.000000 0.000831 -0.139576
v 0.062736 0.002933 -0.128765
v 0.144656 -0.006790 -0.047424
v 0.155141 -0.017582 0.014468
v 0.144656 -0.021682 0.077161
v 0.062736 -0.031405 0.158502
v 0.000000 -0.035996 0.168513
v -0.062736 -0.031405 0.158502
v -0.058626 -0.061396 -0.254111
v 0.058626 -0.061396 -0.254111
v -0.066106 -0.124962 -0.251838
v 0.066106 -0.124962 -0.251838
v -0.062736 -0.184334 -0.229019
v 0.000000 -0.189733 -0.238618
v 0.062736 -0.184334 -0.229019
v -0.106453 -0.114535 0.095402
v -0.106453 -0.033139 -0.101331
v 0.106453 -0.031648 -0.098075
v 0.106453 -0.114535 0.095402
v -0.132830 -0.059067 -0.062653
v -0.141707 -0.087228 -0.008504
v -0.129173 -0.105556 0.049712
v 0.060801 -0.032928 -0.125831
v 0.000000 -0.034450 -0.136067
v -0.060801 -0.032928 -0.125831
v 0.129173 -0.105556 0.049712
v 0.140955 -0.087228 -0.008504
v 0.132077 -0.059067 -0.062652
v -0.060801 -0.131696 0.112890
v 0.000000 -0.140005 0.119059
v 0.060801 -0.131696 0.112890
v 0.106453 -0.177305 0.004280
v 0.060801 -0.212228 -0.106642
v 0.000000 -0.221884 -0.110364
v -0.060801 -0.212228 -0.106642
v -0.079041 -0.058577 -0.138239
v -0.079041 -0.194851 0.025341
v -0.088213 -0.190623 -0.123513
v -0.093533 -0.148166 -0.167932
v -0.084693 -0.094782 -0.198356
v -0.083627 -0.206385 -0.086662
v -0.106453 -0.076122 -0.117178
v 0.106453 -0.076122 -0.117178
v -0.060801 -0.073177 -0.215228
v 0.000000 -0.061423 -0.225499
v 0.060801 -0.060152 -0.215228
v -0.083627 -0.069800 -0.203452
v 0.079041 -0.051716 -0.144400
v 0.079041 -0.194851 0.025341
v 0.084693 -0.094782 -0.198356
v 0.093533 -0.148166 -0.167932
v 0.088213 -0.190623 -0.123513
v 0.083627 -0.201622 -0.100511
v 0.083627 -0.069800 -0.203452
v 0.117324 -0.116227 -0.086021
v -0.064421 -0.093179 -0.252975
v 0.064421 -0.093179 -0.252975
v -0.090873 -0.121474 -0.183144
v 0.090873 -0.121474 -0.183144
v 0.117324 -0.153905 -0.040793
v -0.064421 -0.154648 -0.240429
v 0.000148 -0.085353 -0.250602
v 0.064421 -0.154648 -0.240429
v -0.090873 -0.169394 -0.145723
v 0.090873 -0.169394 -0.145723
v 0.029433 -0.053454 -0.167502
v 0.047581 -0.060794 -0.259585
v 0.077265 -0.000071 -0.366335
v 0.031368 -0.187034 -0.233819
v 0.030400 -0.217056 -0.108503
v 0.030400 -0.060787 -0.220363
v 0.048707 -0.050272 -0.294860
v 0.032356 -0.085924 -0.312498
v -0.029433 -0.053454 -0.167502
v -0.047554 -0.060794 -0.259585
v -0.077172 -0.000316 -0.366394
v -0.031368 -0.187034 -0.233819
v -0.030400 -0.217056 -0.108503
v -0.030400 -0.060787 -0.220363
v -0.048983 -0.050511 -0.294918
v -0.032065 -0.086163 -0.312556
v -0.099217 0.223634 0.123246
v -0.099217 0.223634 -0.075188
v 0.099217 0.223634 0.123246
v 0.099217 0.223634 -0.075188
v -0.122442 0.065552 0.146471
v -0.120959 0.124418 0.144988
v -0.113689 0.183283 0.137718
v -0.113689 0.238107 0.082894
v -0.120959 0.245376 0.024029
v -0.113689 0.238107 -0.034836
v -0.113689 0.183283 -0.089660
v -0.120959 0.124418 -0.096930
v -0.122442 0.065552 -0.098413
v -0.058865 0.238107 -0.089660
v 0.000000 0.245376 -0.096930
v 0.058865 0.238107 -0.089660
v 0.113689 0.183283 -0.089660
v 0.120959 0.124418 -0.096930
v 0.122442 0.065552 -0.098413
v 0.113689 0.238107 -0.034836
v 0.120959 0.245376 0.024029
v 0.113689 0.238107 0.082894
v 0.113689 0.183283 0.137718
v 0.120959 0.124418 0.144988
v 0.122442 0.065552 0.146471
v 0.058865 0.238107 0.137718
v 0.000000 0.245376 0.144988
v -0.058865 0.238107 0.137718
v -0.155793 0.061681 0.091595
v -0.155141 0.124418 0.090135
v -0.144656 0.187154 0.086765
v -0.167085 0.058311 0.024029
v -0.166586 0.124418 0.024029
v -0.155141 0.190524 0.024029
v -0.155793 0.061681 -0.043537
v -0.155141 0.124418 -0.042077
v -0.144656 0.187154 -0.038707
v -0.067566 0.061681 -0.131764
v -0.066106 0.124418 -0.131112
v -0.062736 0.187154 -0.120627
v 0.000000 0.058311 -0.143056
v 0.000000 0.124418 -0.142557
v 0.000000 0.190524 -0.131112
v 0.067566 0.061681 -0.131764
v 0.066106 0.124418 -0.131112
v 0.062736 0.187154 -0.120627
v 0.155793 0.061681 -0.043537
v 0.155141 0.124418 -0.042077
v 0.144656 0.187154 -0.038707
v 0.167085 0.058311 0.024029
v 0.166586 0.124418 0.024029
v 0.155141 0.190524 0.024029
v 0.155793 0.061681 0.091595
v 0.155141 0.124418 0.090135
v 0.144656 0.187154 0.086765
v 0.084534 0.061681 0.179822
v 0.082707 0.124418 0.179170
v 0.078491 0.187154 0.168685
v 0.000000 0.058311 0.191114
v 0.000000 0.124417 0.190615
v 0.000000 0.190524 0.179170
v -0.084534 0.061681 0.179822
v -0.082707 0.124418 0.179170
v -0.078491 0.187154 0.168685
v 0.062736 0.269074 -0.038707
v 0.000000 0.279559 -0.042077
v -0.062736 0.269074 -0.038707
v 0.066106 0.279559 0.024029
v 0.000000 0.291004 0.024029
v -0.066106 0.279559 0.024029
v 0.062736 0.269074 0.086765
v 0.000000 0.279559 0.090135
v -0.062736 0.269074 0.086765
vn 0.2995 0.7204 0.6256
vn -0.1710 -0.6070 -0.7761
vn 0.4081 -0.5631 -0.7186
vn -0.4710 -0.1570 -0.8680
vn 0.0194 0.9998 -0.0087
vn 0.0448 0.9988 0.0194
vn 0.9665 -0.0111 -0.2565
vn 0.9643 -0.0520 -0.2598
vn 0.9307 -0.3136 -0.1883
vn 0.5728 -0.8171 0.0648
vn -0.1719 -0.9838 0.0514
vn -0.4522 -0.8852 0.1097
vn -0.9006 -0.3630 -0.2391
vn -0.9379 -0.0965 -0.3333
vn -0.4720 -0.8303 -0.2964
vn -0.1663 -0.9592 -0.2285
vn 0.1184 -0.9658 -0.2305
vn 0.8346 -0.5430 -0.0932
vn -0.1683 -0.0965 -0.9810
vn -0.1715 -0.0908 -0.9810
vn -0.1676 -0.0976 -0.9810
vn -0.9639 -0.1363 -0.2289
vn -0.9397 -0.3271 0.0993
vn -0.9358 0.1929 -0.2952
vn -0.4387 -0.3218 -0.8390
vn 0.1715 -0.0907 -0.9810
vn 0.1683 -0.0965 -0.9810
vn 0.1676 -0.0976 -0.9810
vn 0.5197 -0.0967 -0.8489
vn 0.5192 -0.0972 -0.8491
vn 0.5190 -0.0975 -0.8492
vn 0.7347 0.6625 -0.1458
vn 0.0040 0.9906 -0.1367
vn 0.0068 0.9909 -0.1347
vn 0.0067 0.9904 -0.1381
vn -0.0000 0.9895 -0.1446
vn -0.0074 0.9904 -0.1378
vn -0.0082 0.9905 -0.1373
vn -0.3762 0.9172 -0.1314
vn 0.4328 0.8953 -0.1055
vn 0.5386 -0.8233 -0.1791
vn 0.4988 0.8041 -0.3236
vn 0.4085 -0.9111 0.0552
vn 0.9431 -0.1646 -0.2890
vn 0.9394 0.0376 -0.3406
vn 0.8358 0.5453 -0.0642
vn 0.9274 0.1570 -0.3396
vn -0.9173 -0.3369 -0.2122
vn -0.9375 0.0191 -0.3474
vn 0.9526 0.0495 -0.3002
vn 0.8594 0.4818 0.1711
vn 0.9172 -0.1872 -0.3516
vn -0.9636 -0.2300 0.1362
vn -0.9632 -0.2260 0.1457
vn -0.9631 -0.2257 0.1463
vn -0.8524 -0.4252 -0.3043
vn 0.9173 -0.3369 -0.2122
vn 0.9221 -0.3030 -0.2407
vn 0.4312 -0.6304 -0.6456
vn 0.6803 -0.5279 -0.5085
vn 0.8730 0.1726 -0.4562
vn -0.0000 0.9901 -0.1405
vn 0.1198 -0.9630 -0.2414
vn 0.8909 0.0867 -0.4458
vn -0.8861 -0.0516 -0.4606
vn -0.7546 -0.2723 -0.5970
vn -0.4448 0.0491 -0.8943
vn -0.1125 0.9422 -0.3155
vn -0.1660 -0.9620 -0.2167
vn 0.8028 -0.0196 -0.5959
vn -0.3271 0.9093 0.2572
vn -0.1714 -0.3619 -0.9163
vn -0.9857 0.0579 0.1582
vn -0.6831 -0.5262 -0.5064
vn -0.9192 -0.3079 -0.2455
vn -0.9858 0.0109 0.1676
vn -0.9852 0.0136 0.1708
vn -0.9864 0.0074 0.1645
vn -0.9708 0.1697 0.1697
vn -0.9708 0.1713 0.1681
vn -0.9852 0.0136 -0.1708
vn -0.9858 0.0109 -0.1676
vn -0.9864 0.0074 -0.1645
vn -0.9708 0.1697 -0.1697
vn -0.9708 0.1713 -0.1681
vn -0.8550 0.0209 0.5182
vn -0.8367 0.1678 0.5213
vn -0.8367 0.1677 0.5214
vn -0.7501 0.4446 0.4896
vn -0.8367 0.5213 0.1678
vn -0.8367 0.5213 -0.1678
vn -0.7501 0.4446 -0.4896
vn -0.8367 0.1678 -0.5213
vn -0.8367 0.1677 -0.5214
vn -0.8550 0.0209 -0.5182
vn -0.1676 0.0109 -0.9858
vn -0.1708 0.0136 -0.9852
vn -0.1645 0.0074 -0.9864
vn -0.1697 0.1697 -0.9708
vn -0.1681 0.1713 -0.9708
vn 0.1708 0.0136 -0.9852
vn 0.1676 0.0109 -0.9858
vn 0.1645 0.0074 -0.9864
vn 0.1697 0.1697 -0.9708
vn 0.1681 0.1713 -0.9708
vn -0.5182 0.0209 -0.8550
vn -0.5213 0.1678 -0.8367
vn -0.5214 0.1677 -0.8367
vn -0.4896 0.4446 -0.7501
vn -0.1678 0.5213 -0.8367
vn 0.1678 0.5213 -0.8367
vn 0.4896 0.4446 -0.7501
vn 0.5213 0.1678 -0.8367
vn 0.5214 0.1677 -0.8367
vn 0.5182 0.0209 -0.8550
vn 0.9858 0.0109 -0.1676
vn 0.9852 0.0136 -0.1708
vn 0.9864 0.0074 -0.1645
vn 0.9708 0.1697 -0.1697
vn 0.9708 0.1713 -0.1681
vn 0.9852 0.0136 0.1708
vn 0.9858 0.0109 0.1676
vn 0.9864 0.0074 0.1645
vn 0.9708 0.1697 0.1697
vn 0.9708 0.1713 0.1681
vn 0.8550 0.0209 -0.5182
vn 0.8367 0.1678 -0.5213
vn 0.8367 0.1677 -0.5214
vn 0.7501 0.4446 -0.4896
vn 0.8367 0.5213 -0.1678
vn 0.8367 0.5213 0.1678
vn 0.7501 0.4446 0.4896
vn 0.8367 0.1678 0.5213
vn 0.8367 0.1677 0.5214
vn 0.8550 0.0209 0.5182
vn 0.1350 0.0114 0.9908
vn 0.1376 0.0132 0.9904
vn 0.1321 0.0075 0.9912
vn 0.1361 0.1708 0.9759
vn 0.1365 0.1703 0.9759
vn 0.1350 0.1722 0.9758
vn -0.1376 0.0132 0.9904
vn -0.1350 0.0114 0.9908
vn -0.1321 0.0075 0.9912
vn -0.1365 0.1703 0.9759
vn -0.1361 0.1708 0.9759
vn -0.1350 0.1722 0.9758
vn 0.6653 0.0353 0.7457
vn 0.6589 0.0277 0.7518
vn 0.6587 0.0270 0.7519
vn 0.6594 0.1689 0.7326
vn 0.6586 0.1696 0.7331
vn 0.6564 0.1718 0.7346
vn 0.6166 0.4523 0.6444
vn 0.1487 0.5386 0.8294
vn 0.1506 0.5368 0.8301
vn 0.1337 0.5518 0.8232
vn -0.1506 0.5368 0.8301
vn -0.1487 0.5386 0.8294
vn -0.1337 0.5518 0.8232
vn -0.6166 0.4523 0.6444
vn -0.6586 0.1696 0.7331
vn -0.6594 0.1689 0.7326
vn -0.6564 0.1718 0.7346
vn -0.6589 0.0277 0.7517
vn -0.6653 0.0353 0.7457
vn -0.6587 0.0270 0.7519
vn 0.1697 0.9708 -0.1697
vn 0.1681 0.9708 -0.1713
vn -0.1697 0.9708 -0.1697
vn -0.1713 0.9708 -0.1681
vn 0.1697 0.9708 0.1697
vn 0.1681 0.9708 0.1713
vn -0.1697 0.9708 0.1697
vn -0.1713 0.9708 0.1681
vn 0.4896 0.7501 -0.4446
vn 0.1678 0.8367 -0.5213
vn -0.1678 0.8367 -0.5213
vn -0.1677 0.8367 -0.5214
vn -0.4446 0.7501 -0.4896
vn -0.5213 0.8367 -0.1678
vn -0.5213 0.8367 0.1678
vn -0.4446 0.7501 0.4896
vn -0.1678 0.8367 0.5213
vn -0.1677 0.8367 0.5214
vn 0.1678 0.8367 0.5213
vn 0.4896 0.7501 0.4446
vn 0.5213 0.8367 0.1678
vn 0.5214 0.8367 0.1677
vn 0.5213 0.8367 -0.1678
vn 0.5214 0.8367 -0.1677
vn 0.9724 -0.1594 0.1705
vn 0.9766 -0.1323 -0.1698
vn 0.8439 -0.1254 -0.5217
vn 0.5213 -0.0850 -0.8491
vn 0.5212 -0.0854 -0.8491
vn 0.5218 -0.0848 -0.8488
vn 0.1713 -0.0597 -0.9834
vn 0.1696 -0.0616 -0.9836
vn 0.1676 -0.0640 -0.9838
vn -0.1696 -0.0616 -0.9836
vn -0.1712 -0.0598 -0.9834
vn -0.1676 -0.0640 -0.9838
vn -0.5212 -0.0854 -0.8491
vn -0.5218 -0.0848 -0.8488
vn -0.8439 -0.1254 -0.5217
vn -0.9766 -0.1323 -0.1698
vn -0.9724 -0.1594 0.1705
vn -0.8334 -0.1877 0.5198
vn -0.5609 -0.2793 0.7793
vn -0.6129 -0.2441 0.7515
vn -0.6576 -0.2119 0.7229
vn -0.1564 -0.2392 0.9583
vn -0.1490 -0.2442 0.9582
vn -0.1380 -0.2517 0.9579
vn 0.1490 -0.2442 0.9582
vn 0.1564 -0.2392 0.9583
vn 0.1380 -0.2517 0.9579
vn 0.6129 -0.2441 0.7515
vn 0.5610 -0.2793 0.7793
vn 0.6576 -0.2119 0.7229
vn 0.8334 -0.1877 0.5198
vn -0.9742 -0.1262 -0.1870
vn -0.9623 -0.0558 -0.2662
vn -0.4387 -0.8834 -0.1650
vn 0.1719 -0.9838 0.0514
vn -0.8335 -0.2457 0.4950
vn -0.8409 -0.4254 0.3345
vn -0.5181 -0.3274 0.7902
vn -0.4724 -0.6507 0.5946
vn -0.1729 -0.4105 0.8953
vn 0.1486 -0.4246 0.8931
vn 0.4514 -0.3766 0.8089
vn 0.8335 -0.2457 0.4950
vn 0.9642 -0.2362 0.1208
vn 0.9573 -0.1603 -0.2404
vn 0.9000 -0.3978 0.1782
vn 0.9496 -0.3077 -0.0596
vn 0.9463 -0.1218 -0.2994
vn 0.3851 -0.7085 0.5913
vn 0.1431 -0.7655 0.6273
vn -0.1431 -0.7655 0.6273
vn -0.4703 -0.0971 -0.8771
vn -0.8201 -0.0189 -0.5719
vn -0.9166 0.1383 -0.3751
vn -0.3682 0.6333 -0.6807
vn -0.0667 0.8803 -0.4696
vn -0.0676 0.8806 -0.4690
vn -0.0670 0.8805 -0.4692
vn 0.0701 0.8729 -0.4828
vn 0.9855 0.0579 0.1593
vn 0.8862 -0.0541 -0.4601
vn 0.1714 -0.3619 -0.9163
vn -0.5708 0.7942 0.2087
vn -0.0156 0.9994 -0.0311
vn 0.9358 0.1929 -0.2952
vn 0.9650 -0.0737 -0.2515
vn 0.9011 -0.4124 -0.1340
vn 0.4387 -0.8834 -0.1650
vn -0.1533 -0.9866 0.0556
vn -0.1538 -0.9870 0.0474
vn -0.2015 -0.9779 0.0558
vn -0.9431 -0.1646 -0.2890
vn -0.9394 0.0376 -0.3406
vn -0.5386 -0.8233 -0.1791
vn -0.1198 -0.9630 -0.2414
vn 0.1660 -0.9620 -0.2167
vn 0.7191 -0.6949 0.0046
vn -0.1721 -0.0895 -0.9810
vn -0.9426 -0.1300 -0.3075
vn -0.9469 -0.3150 -0.0646
vn -0.9665 -0.0111 -0.2565
vn -0.5882 0.8029 -0.0968
vn 0.1721 -0.0895 -0.9810
vn 0.5673 -0.2411 -0.7874
vn 0.0076 0.9909 -0.1341
vn -0.0249 0.9471 -0.3199
vn 0.1852 0.9436 -0.2746
vn 0.4674 -0.8302 -0.3038
vn 0.3618 0.8090 -0.4632
vn 0.3810 0.6509 -0.6566
vn 0.4523 -0.8896 0.0643
vn 0.9006 -0.3630 -0.2391
vn 0.9379 -0.0965 -0.3333
vn 0.3952 -0.1674 -0.9032
vn 0.9375 0.0191 -0.3474
vn -0.9011 -0.4124 -0.1340
vn -0.9274 0.1570 -0.3396
vn 0.9628 -0.0801 -0.2579
vn 0.4457 0.0493 -0.8938
vn 0.8524 -0.4252 -0.3043
vn -0.9637 -0.2304 0.1349
vn -0.9172 -0.1872 -0.3516
vn 0.8823 -0.4438 -0.1569
vn 0.7560 -0.2718 -0.5955
vn -0.8734 0.1709 -0.4561
vn 0.1663 -0.9592 -0.2285
vn 0.9224 0.1525 -0.3549
vn 0.8610 0.2008 -0.4674
vn -0.0194 0.9998 -0.0087
vn 0.1710 -0.6061 -0.7768
vn -0.1757 0.8562 0.4859
vn -0.0023 0.9269 -0.3752
vn -0.4538 0.8903 0.0379
vn -0.4311 -0.6310 -0.6449
vn -0.8581 0.4827 0.1752
vn -0.3919 0.9122 -0.1194
vn -0.1184 -0.9658 -0.2305
vn 0.8246 -0.1636 -0.5416
vn -0.0447 0.9988 0.0194
vn -0.4084 -0.5634 -0.7182
vn -0.2982 0.7218 0.6245
vn -0.9852 0.0142 0.1706
vn -0.9708 0.1681 0.1713
vn -0.9852 0.0142 -0.1706
vn -0.9708 0.1681 -0.1713
vn -0.8482 0.0347 0.5286
vn -0.7501 0.4896 0.4446
vn -0.8367 0.5214 0.1677
vn -0.8367 0.5214 -0.1677
vn -0.7501 0.4896 -0.4446
vn -0.8482 0.0347 -0.5286
vn -0.1706 0.0142 -0.9852
vn -0.1713 0.1681 -0.9708
vn 0.1706 0.0142 -0.9852
vn 0.1713 0.1681 -0.9708
vn -0.5286 0.0347 -0.8482
vn -0.4446 0.4896 -0.7501
vn -0.1677 0.5214 -0.8367
vn 0.1677 0.5214 -0.8367
vn 0.4446 0.4896 -0.7501
vn 0.5286 0.0347 -0.8482
vn 0.9852 0.0142 -0.1706
vn 0.9708 0.1681 -0.1713
vn 0.9852 0.0142 0.1706
vn 0.9708 0.1681 0.1713
vn 0.8482 0.0347 -0.5286
vn 0.7501 0.4896 -0.4446
vn 0.8367 0.5214 -0.1677
vn 0.8367 0.5214 0.1677
vn 0.7501 0.4896 0.4446
vn 0.8482 0.0347 0.5286
vn 0.1371 0.0143 0.9905
vn 0.1376 0.1690 0.9760
vn -0.1371 0.0143 0.9905
vn -0.1376 0.1690 0.9760
vn 0.6659 0.0355 0.7452
vn 0.6616 0.1667 0.7311
vn 0.4514 0.5839 0.6747
vn 0.1677 0.5214 0.8367
vn -0.1677 0.5214 0.8367
vn -0.4514 0.5839 0.6747
vn -0.6616 0.1667 0.7311
vn -0.6659 0.0355 0.7452
vn 0.1713 0.9708 -0.1681
vn -0.1681 0.9708 -0.1713
vn 0.1713 0.9708 0.1681
vn -0.1681 0.9708 0.1713
vn 0.4446 0.7501 -0.4896
vn 0.1677 0.8367 -0.5214
vn -0.4896 0.7501 -0.4446
vn -0.5214 0.8367 -0.1677
vn -0.5214 0.8367 0.1677
vn -0.4896 0.7501 0.4446
vn 0.1677 0.8367 0.5214
vn 0.4446 0.7501 0.4896
vn 0.9733 -0.1723 0.1515
vn 0.9709 -0.1457 -0.1900
vn 0.9724 -0.1372 -0.1887
vn 0.9707 -0.1471 -0.1901
vn 0.8366 -0.1056 -0.5376
vn 0.1715 -0.0595 -0.9834
vn -0.1715 -0.0595 -0.9834
vn -0.5206 -0.0862 -0.8495
vn -0.8365 -0.1062 -0.5376
vn -0.8358 -0.1098 -0.5379
vn -0.8366 -0.1056 -0.5376
vn -0.9707 -0.1471 -0.1901
vn -0.9733 -0.1723 0.1515
vn -0.8416 -0.1993 0.5019
vn -0.5195 -0.3045 0.7984
vn -0.1697 -0.2297 0.9584
vn 0.1697 -0.2297 0.9584
vn 0.5195 -0.3045 0.7984
vn 0.8416 -0.1993 0.5019
vn -0.9606 -0.1489 -0.2349
vn -0.9650 -0.0737 -0.2515
vn -0.9526 0.0495 -0.3002
vn -0.8591 -0.5005 -0.1072
vn -0.6588 -0.7451 0.1037
vn 0.1538 -0.9870 0.0474
vn 0.1533 -0.9866 0.0556
vn -0.8791 -0.2869 0.3807
vn -0.9000 -0.3978 0.1782
vn -0.4514 -0.3766 0.8089
vn -0.3851 -0.7085 0.5913
vn -0.1486 -0.4246 0.8931
vn 0.1729 -0.4105 0.8953
vn 0.5181 -0.3274 0.7902
vn 0.8791 -0.2869 0.3807
vn 0.9631 -0.2257 0.1463
vn 0.9726 -0.1359 -0.1885
vn 0.8409 -0.4254 0.3345
vn 0.9434 -0.3190 0.0905
vn 0.9660 -0.1275 -0.2247
vn 0.4724 -0.6507 0.5946
vn 0.1675 -0.7542 0.6349
vn -0.1675 -0.7542 0.6349
vn -0.5223 -0.0155 -0.8526
vn -0.8356 -0.1108 -0.5380
vn -0.8872 0.0802 -0.4543
vn -0.8640 0.1742 -0.4724
vn -0.5845 0.6504 -0.4852
vn -0.3406 0.5946 -0.7284
vn -0.2243 0.7967 -0.5612
vn -0.0582 0.8775 -0.4760
vn 0.0670 0.8805 -0.4692
vn 0.0676 0.8806 -0.4690
vn 0.0666 0.8803 -0.4697
vn 0.0582 0.8775 -0.4760
vn 0.0978 0.8322 0.5458
vn 0.1682 0.8569 0.4873
vn -0.1079 0.8333 0.5422
vn 0.0009 0.7238 -0.6900
vn 0.4528 0.8910 0.0314
vt 0.739873 0.342497
vt 0.766154 0.342911
vt 0.764105 0.351210
vt 0.821631 0.447751
vt 0.886841 0.451679
vt 0.872977 0.473815
vt 0.744266 0.300892
vt 0.771831 0.277856
vt 0.764925 0.340267
vt 0.778046 0.477863
vt 0.791905 0.507058
vt 0.774143 0.500863
vt 0.752011 0.418920
vt 0.797603 0.448091
vt 0.762181 0.448203
vt 0.731767 0.395038
vt 0.741796 0.360685
vt 0.750126 0.362128
vt 0.608485 0.320640
vt 0.696082 0.332569
vt 0.693766 0.354222
vt 0.599395 0.265913
vt 0.686267 0.279974
vt 0.688988 0.305646
vt 0.587727 0.208258
vt 0.676702 0.226962
vt 0.680660 0.254510
vt 0.574047 0.160457
vt 0.579691 0.123618
vt 0.667764 0.204550
vt 0.926035 0.566075
vt 0.981768 0.684407
vt 0.925471 0.687468
vt 0.885378 0.599722
vt 0.905663 0.690658
vt 0.846885 0.556510
vt 0.859423 0.493151
vt 0.866539 0.572147
vt 0.810229 0.525852
vt 0.826116 0.476273
vt 0.829262 0.540363
vt 0.900117 0.577394
vt 0.951947 0.554124
vt 0.745853 0.278960
vt 0.715806 0.173425
vt 0.580982 0.180704
vt 0.690492 0.544815
vt 0.618659 0.496144
vt 0.655591 0.474354
vt 0.749271 0.649580
vt 0.823268 0.630380
vt 0.790361 0.693960
vt 0.861587 0.665274
vt 0.826839 0.736939
vt 0.759562 0.583534
vt 0.777756 0.596529
vt 0.733594 0.547358
vt 0.737048 0.572797
vt 0.609537 0.407066
vt 0.573567 0.435251
vt 0.560378 0.356470
vt 0.633402 0.370992
vt 0.678898 0.420498
vt 0.713648 0.369437
vt 0.700236 0.448522
vt 0.713892 0.480681
vt 0.723560 0.516123
vt 0.660851 0.390476
vt 0.690070 0.192438
vt 0.609733 0.347702
vt 0.593078 0.105022
vt 0.741826 0.319237
vt 0.807284 0.465702
vt 0.605635 0.296260
vt 0.735505 0.739275
vt 0.766628 0.793374
vt 0.841589 0.483528
vt 0.595259 0.236312
vt 0.820388 0.445607
vt 0.783320 0.401328
vt 0.742526 0.154920
vt 0.800769 0.278305
vt 0.539663 0.298926
vt 0.794572 0.455138
vt 0.483621 0.327524
vt 0.356219 0.969748
vt 0.396104 0.891103
vt 0.421717 0.947745
vt 0.324132 0.858264
vt 0.338999 0.911758
vt 0.481449 0.913090
vt 0.419320 0.815326
vt 0.449282 0.862025
vt 0.291731 0.982382
vt 0.273216 0.869651
vt 0.280426 0.924679
vt 0.272767 0.828861
vt 0.307936 0.811949
vt 0.372250 0.838138
vt 0.395628 0.771179
vt 0.432716 0.757397
vt 0.461688 0.785902
vt 0.497193 0.827004
vt 0.533345 0.872863
vt 0.594388 0.592859
vt 0.506276 0.565862
vt 0.563425 0.529999
vt 0.483812 0.653902
vt 0.539715 0.623438
vt 0.519770 0.474285
vt 0.417001 0.548342
vt 0.468522 0.510787
vt 0.544457 0.783856
vt 0.585616 0.833017
vt 0.495984 0.740394
vt 0.430595 0.683334
vt 0.451048 0.600745
vt 0.367622 0.583879
vt 0.343993 0.500373
vt 0.301572 0.550299
vt 0.288189 0.511920
vt 0.325427 0.437971
vt 0.266213 0.462251
vt 0.240212 0.409962
vt 0.298581 0.379744
vt 0.181659 0.439678
vt 0.165047 0.526230
vt 0.124794 0.478860
vt 0.243476 0.537642
vt 0.214069 0.490589
vt 0.076899 0.528663
vt 0.163963 0.605334
vt 0.121960 0.569024
vt 0.273256 0.577934
vt 0.202729 0.570440
vt 0.198908 0.639777
vt 0.168583 0.664340
vt 0.131901 0.646494
vt 0.085237 0.616450
vt 0.037907 0.581559
vt 0.006349 0.782892
vt 0.101834 0.821858
vt 0.047536 0.856242
vt 0.115640 0.722612
vt 0.060120 0.752176
vt 0.096235 0.924834
vt 0.197454 0.851807
vt 0.146992 0.889358
vt 0.056974 0.659368
vt 0.004917 0.621606
vt 0.115023 0.688821
vt 0.176476 0.706892
vt 0.155821 0.787670
vt 0.237675 0.803533
vt 0.227738 0.866812
vt 0.229545 0.931880
vt 0.241426 0.995083
vt 0.315033 0.614410
vt 0.299970 0.696387
vt 0.268683 0.650437
vt 0.380515 0.717819
vt 0.348919 0.665391
vt 0.225649 0.681207
vt 0.281917 0.770062
vt 0.252447 0.726480
vt 0.399435 0.633407
vt 0.440934 0.715368
vt 0.328131 0.744315
vt 0.205947 0.755927
vt 0.235736 0.609599
vt 0.404461 0.209047
vt 0.369288 0.315694
vt 0.316286 0.252716
vt 0.443550 0.267833
vt 0.421323 0.375755
vt 0.524832 0.382615
vt 0.468964 0.428369
vt 0.650872 0.562836
vt 0.674860 0.626591
vt 0.613635 0.654982
vt 0.639150 0.715179
vt 0.668315 0.780292
vt 0.698359 0.845977
vt 0.801496 0.840189
vt 0.733795 0.903805
vt 0.771309 0.941842
vt 0.848462 0.876542
vt 0.845746 0.995083
vt 0.236429 0.021653
vt 0.361545 0.081632
vt 0.253148 0.127754
vt 0.374450 0.149206
vt 0.273845 0.186701
vt 0.703240 0.683111
vt 0.886256 0.694119
vt 0.627921 0.050369
vt 0.857240 0.771293
vt 0.902175 0.785950
vt 0.905073 0.910455
vt 0.483074 0.074696
vt 0.356654 0.004917
vt 0.496965 0.006030
vt 0.473824 0.128494
vt 0.492428 0.177545
vt 0.516584 0.236110
vt 0.566192 0.140845
vt 0.960523 0.803325
vt 0.712054 0.605528
vt 0.813054 0.443063
vt 0.350962 0.791558
vt 0.343080 0.560839
s 1
usemtl マテリアル.009
f 81/1/1 92/2/1 96/3/1
f 105/4/2 38/5/2 101/6/2
f 87/7/3 93/8/3 97/9/3
f 68/10/4 64/11/4 71/12/4
f 69/13/5 99/14/5 103/15/5
f 95/16/6 34/17/6 91/18/6
f 67/19/7 74/20/7 78/21/7
f 79/22/8 75/23/8 83/24/8
f 84/25/9 76/26/9 89/27/9
f 56/28/10 73/29/10 77/30/10
f 102/31/11 19/32/11 18/33/11
f 65/34/12 18/33/12 61/35/12
f 88/36/13 37/37/13 62/38/13
f 82/39/14 35/40/14 63/41/14
f 62/38/15 59/42/15 65/34/15
f 101/6/16 58/43/16 102/31/16
f 39/44/17 94/45/17 93/8/17
f 14/46/18 77/30/18 76/26/18
f 49/47/19 25/48/20 48/49/21
f 44/50/22 6/51/22 45/52/22
f 45/52/23 7/53/23 46/54/23
f 66/55/24 64/11/24 5/56/24
f 60/57/25 66/55/25 2/58/25
f 25/48/26 47/59/27 48/49/28
f 26/60/29 42/61/30 47/59/31
f 72/62/32 67/19/32 78/21/32
f 90/63/33 70/64/34 95/16/35
f 11/65/36 103/15/37 98/66/38
f 12/67/39 71/12/39 60/57/39
f 10/68/40 78/21/40 70/64/40
f 76/26/41 57/69/41 39/44/41
f 47/59/42 4/70/42 72/62/42
f 77/30/43 20/71/43 57/69/43
f 89/27/44 39/44/44 87/7/44
f 83/24/45 36/72/45 81/1/45
f 70/64/46 74/20/46 34/17/46
f 74/20/47 81/1/47 34/17/47
f 88/36/48 62/38/48 6/51/48
f 64/11/49 80/73/49 82/39/49
f 16/74/50 83/24/50 74/20/50
f 91/18/51 81/1/51 96/3/51
f 75/23/52 87/7/52 36/72/52
f 22/75/53 46/54/54 21/76/55
f 63/41/56 85/77/56 88/36/56
f 15/78/57 89/27/57 75/23/57
f 36/72/58 97/9/59 92/2/60
f 100/79/61 86/80/61 105/4/61
f 11/65/36 95/16/35 69/13/62
f 93/8/63 58/81/63 38/82/63
f 52/83/64 16/74/64 67/19/64
f 97/9/65 38/82/65 86/80/65
f 35/40/66 105/4/66 85/77/66
f 99/14/67 80/73/67 33/84/67
f 98/66/68 68/10/68 12/67/68
f 37/37/69 102/31/69 59/42/69
f 42/61/70 27/85/70 52/83/70
f 103/15/71 33/84/71 68/10/71
f 85/77/72 101/6/72 37/37/72
f 80/73/73 100/79/74 35/40/75
f 134/86/76 138/87/77 137/88/78
f 136/89/79 138/87/79 135/90/80
f 138/87/81 140/91/82 137/88/83
f 138/87/84 142/92/84 141/93/85
f 110/94/86 135/90/86 134/86/86
f 112/95/87 135/90/87 111/96/88
f 106/97/89 136/89/89 112/95/89
f 113/98/90 139/99/90 136/89/90
f 139/99/91 115/100/91 142/92/91
f 142/92/92 107/101/92 116/102/92
f 141/93/93 116/102/93 117/103/94
f 141/93/95 118/104/95 140/91/95
f 143/105/96 147/106/97 146/107/98
f 145/108/99 147/106/99 144/109/100
f 147/106/101 149/110/102 146/107/103
f 147/106/104 151/111/104 150/112/105
f 118/104/106 144/113/106 143/114/106
f 116/102/107 144/113/107 117/103/108
f 107/101/109 145/115/109 116/102/109
f 119/116/110 148/117/110 145/108/110
f 148/117/111 121/118/111 151/111/111
f 151/119/112 109/120/112 122/121/112
f 150/122/113 122/121/113 123/123/114
f 150/122/115 124/124/115 149/125/115
f 152/126/116 156/127/117 155/128/118
f 154/129/119 156/127/119 153/130/120
f 156/127/121 158/131/122 155/128/123
f 156/127/124 160/132/124 159/133/125
f 124/124/126 153/130/126 152/126/126
f 122/121/127 153/130/127 123/123/128
f 109/120/129 154/129/129 122/121/129
f 125/134/130 157/135/130 154/129/130
f 157/135/131 127/136/131 160/132/131
f 160/132/132 108/137/132 128/138/132
f 159/133/133 128/138/133 129/139/134
f 159/133/135 130/140/135 158/131/135
f 161/141/136 165/142/137 164/143/138
f 163/144/139 165/142/140 162/145/141
f 165/142/142 167/146/143 164/143/144
f 165/142/145 169/147/146 168/148/147
f 130/140/148 162/149/149 161/150/150
f 128/138/151 162/149/152 129/139/153
f 108/137/154 163/151/154 128/138/154
f 131/152/155 166/153/156 163/144/157
f 166/153/158 133/154/159 169/147/160
f 169/155/161 106/97/161 112/95/161
f 168/156/162 112/95/163 111/96/164
f 168/156/165 110/94/166 167/157/167
f 170/158/168 174/159/168 173/160/169
f 172/161/170 174/159/170 171/162/171
f 174/159/172 176/163/172 173/160/173
f 174/159/174 178/164/174 177/165/175
f 109/120/176 170/158/176 125/134/176
f 121/118/177 171/162/177 170/158/177
f 119/116/178 171/162/178 120/166/179
f 107/101/180 172/161/180 119/167/180
f 115/100/181 175/168/181 172/161/181
f 175/168/182 113/98/182 178/164/182
f 178/164/183 106/97/183 133/154/183
f 177/165/184 133/154/184 132/169/185
f 177/165/186 131/152/186 176/163/186
f 176/163/187 108/137/187 127/136/187
f 173/160/188 127/136/188 126/170/189
f 125/134/190 173/160/190 126/170/191
f 29/171/192 155/172/192 158/173/192
f 28/174/193 152/175/193 155/172/193
f 152/175/194 13/176/194 124/177/194
f 13/176/195 149/110/196 124/177/197
f 26/60/198 146/107/199 149/110/200
f 146/107/201 24/178/202 143/105/203
f 143/105/204 9/179/204 118/180/205
f 9/179/206 140/181/206 118/180/206
f 140/181/207 22/75/207 137/182/207
f 137/182/208 21/76/208 134/183/208
f 134/183/209 8/184/209 110/185/209
f 8/184/210 167/186/211 110/185/212
f 32/187/213 164/188/214 167/186/215
f 164/189/216 30/190/217 161/191/218
f 161/191/219 17/192/220 130/193/221
f 17/192/222 158/173/222 130/193/222
f 23/194/223 45/52/223 22/75/223
f 82/39/224 63/41/224 5/56/224
f 61/35/225 1/195/225 7/53/225
f 94/45/226 20/71/226 19/196/226
f 21/76/227 40/197/227 8/184/227
f 46/54/228 1/195/228 40/197/228
f 40/197/229 32/187/229 8/184/229
f 1/195/230 53/198/230 40/197/230
f 53/198/231 31/199/231 32/187/231
f 55/200/232 31/201/232 54/202/232
f 43/203/233 30/190/233 55/200/233
f 43/203/234 29/171/234 17/192/234
f 28/174/235 50/204/235 51/205/235
f 27/85/236 51/205/236 52/83/236
f 50/204/237 3/206/237 56/28/237
f 51/205/238 14/46/238 84/25/238
f 52/83/239 15/78/239 79/22/239
f 55/200/240 20/71/240 73/29/240
f 20/71/241 54/202/241 19/196/241
f 54/207/242 18/33/242 19/32/242
f 41/208/243 24/178/243 49/47/243
f 23/194/244 41/208/244 44/50/244
f 41/208/245 2/58/245 66/55/245
f 2/58/246 41/208/246 49/47/246
f 48/49/247 11/65/248 98/66/249
f 47/59/250 10/68/250 90/63/250
f 81/1/251 36/72/58 92/2/60
f 105/4/252 86/80/252 38/5/252
f 87/7/253 39/44/253 93/8/253
f 68/10/254 33/84/254 64/11/254
f 95/16/255 70/64/255 34/17/255
f 67/19/256 16/74/256 74/20/256
f 79/22/257 15/78/257 75/23/257
f 84/25/258 14/46/258 76/26/258
f 56/28/259 3/206/259 73/29/259
f 18/33/260 59/42/260 102/31/260
f 102/31/261 58/43/261 19/32/261
f 65/34/262 59/42/262 18/33/262
f 88/36/263 85/77/263 37/37/263
f 82/39/264 80/73/264 35/40/264
f 62/38/265 37/37/265 59/42/265
f 101/6/266 38/5/266 58/43/266
f 39/44/267 57/69/267 94/45/267
f 14/46/268 56/28/268 77/30/268
f 49/47/19 24/178/269 25/48/20
f 44/50/270 5/56/270 6/51/270
f 45/52/271 6/51/271 7/53/271
f 66/55/272 71/12/272 64/11/272
f 60/57/273 71/12/273 66/55/273
f 25/48/26 26/60/274 47/59/27
f 26/60/29 13/176/195 42/61/30
f 72/62/275 4/70/275 67/19/275
f 90/63/33 10/68/276 70/64/34
f 11/65/36 69/13/62 103/15/37
f 12/67/277 68/10/277 71/12/277
f 10/68/278 72/62/278 78/21/278
f 76/26/279 77/30/279 57/69/279
f 72/62/280 10/68/280 47/59/280
f 47/59/281 42/61/281 4/70/281
f 77/30/282 73/29/282 20/71/282
f 89/27/283 76/26/283 39/44/283
f 83/24/284 75/23/284 36/72/284
f 70/64/285 78/21/285 74/20/285
f 74/20/286 83/24/286 81/1/286
f 7/53/287 6/51/287 62/38/287
f 6/51/48 63/41/48 88/36/48
f 64/11/288 33/84/288 80/73/288
f 16/74/289 79/22/289 83/24/289
f 91/18/290 34/17/290 81/1/290
f 75/23/291 89/27/291 87/7/291
f 22/75/53 45/52/292 46/54/54
f 63/41/293 35/40/293 85/77/293
f 15/78/294 84/25/294 89/27/294
f 36/72/295 87/7/295 97/9/295
f 92/2/296 97/9/296 86/80/296
f 11/65/36 90/63/33 95/16/35
f 93/8/297 94/45/297 58/81/297
f 67/19/298 4/70/298 42/61/298
f 42/61/299 52/83/299 67/19/299
f 69/13/300 95/16/300 91/18/300
f 97/9/301 93/8/301 38/82/301
f 96/3/302 86/80/303 91/18/304
f 35/40/75 100/79/74 105/4/305
f 99/14/306 104/209/306 80/73/306
f 98/66/307 103/15/307 68/10/307
f 37/37/308 101/6/308 102/31/308
f 42/61/309 13/176/309 27/85/309
f 103/15/310 99/14/310 33/84/310
f 85/77/311 105/4/311 101/6/311
f 80/73/312 104/209/312 100/79/312
f 134/86/76 135/90/313 138/87/77
f 136/89/79 139/99/314 138/87/79
f 138/87/81 141/93/315 140/91/82
f 138/87/84 139/99/316 142/92/84
f 110/94/317 111/96/317 135/90/317
f 112/95/87 136/89/87 135/90/87
f 106/97/318 113/98/318 136/89/318
f 113/98/90 114/210/319 139/99/90
f 139/99/91 114/210/320 115/100/91
f 142/92/321 115/100/321 107/101/321
f 141/93/93 142/92/93 116/102/93
f 141/93/322 117/103/322 118/104/322
f 143/105/96 144/109/323 147/106/97
f 145/108/99 148/117/324 147/106/99
f 147/106/101 150/112/325 149/110/102
f 147/106/104 148/117/326 151/111/104
f 118/104/327 117/103/327 144/113/327
f 116/102/107 145/115/107 144/113/107
f 107/101/328 119/167/328 145/115/328
f 119/116/110 120/166/329 148/117/110
f 148/117/111 120/166/330 121/118/111
f 151/119/331 121/211/331 109/120/331
f 150/122/113 151/119/113 122/121/113
f 150/122/332 123/123/332 124/124/332
f 152/126/116 153/130/333 156/127/117
f 154/129/119 157/135/334 156/127/119
f 156/127/121 159/133/335 158/131/122
f 156/127/124 157/135/336 160/132/124
f 124/124/337 123/123/337 153/130/337
f 122/121/127 154/129/127 153/130/127
f 109/120/338 125/134/338 154/129/338
f 125/134/130 126/170/339 157/135/130
f 157/135/131 126/170/340 127/136/131
f 160/132/341 127/136/341 108/137/341
f 159/133/133 160/132/133 128/138/133
f 159/133/342 129/139/342 130/140/342
f 161/141/136 162/145/343 165/142/137
f 163/144/139 166/153/344 165/142/140
f 165/142/142 168/148/345 167/146/143
f 165/142/145 166/153/346 169/147/146
f 130/140/148 129/139/347 162/149/149
f 128/138/151 163/151/348 162/149/152
f 108/137/349 131/152/349 163/151/349
f 131/152/155 132/169/350 166/153/156
f 166/153/158 132/169/351 133/154/159
f 169/155/352 133/154/352 106/97/352
f 168/156/162 169/155/353 112/95/163
f 168/156/165 111/96/354 110/94/166
f 170/158/168 171/162/355 174/159/168
f 172/161/170 175/168/356 174/159/170
f 174/159/172 177/165/357 176/163/172
f 174/159/174 175/168/358 178/164/174
f 109/120/359 121/211/359 170/158/359
f 121/118/177 120/166/360 171/162/177
f 119/116/178 172/161/178 171/162/178
f 107/101/361 115/100/361 172/161/361
f 115/100/181 114/210/362 175/168/181
f 175/168/182 114/210/363 113/98/182
f 178/164/364 113/98/364 106/97/364
f 177/165/184 178/164/184 133/154/184
f 177/165/186 132/169/365 131/152/186
f 176/163/366 131/152/366 108/137/366
f 173/160/188 176/163/188 127/136/188
f 125/134/190 170/158/190 173/160/190
f 29/171/367 28/174/367 155/172/367
f 28/174/368 27/85/369 152/175/370
f 152/175/371 27/85/371 13/176/371
f 13/176/195 26/60/29 149/110/196
f 26/60/198 25/48/372 146/107/199
f 146/107/201 25/48/373 24/178/202
f 143/105/204 24/178/374 9/179/204
f 9/179/375 23/194/376 140/181/377
f 140/181/378 23/194/378 22/75/378
f 137/182/379 22/75/379 21/76/379
f 134/183/380 21/76/380 8/184/380
f 8/184/210 32/187/381 167/186/211
f 32/187/213 31/199/382 164/188/214
f 164/189/216 31/201/383 30/190/217
f 161/191/219 30/190/384 17/192/220
f 17/192/385 29/171/385 158/173/385
f 23/194/386 44/50/386 45/52/386
f 6/51/387 5/56/387 63/41/387
f 5/56/388 64/11/388 82/39/388
f 62/38/389 65/34/389 7/53/389
f 65/34/390 61/35/390 7/53/390
f 19/196/391 58/81/391 94/45/391
f 94/45/392 57/69/392 20/71/392
f 21/76/393 46/54/393 40/197/393
f 46/54/394 7/53/394 1/195/394
f 40/197/395 53/198/395 32/187/395
f 1/195/396 18/33/396 53/198/396
f 53/198/397 54/207/397 31/199/397
f 55/200/398 30/190/398 31/201/398
f 43/203/399 17/192/399 30/190/399
f 43/203/400 50/204/400 29/171/400
f 28/174/401 29/171/401 50/204/401
f 27/85/369 28/174/368 51/205/402
f 56/28/237 14/46/237 50/204/237
f 50/204/403 43/203/403 3/206/403
f 84/25/238 15/78/238 51/205/238
f 51/205/404 50/204/404 14/46/404
f 79/22/239 16/74/239 52/83/239
f 52/83/405 51/205/405 15/78/405
f 73/29/240 3/206/240 55/200/240
f 3/206/406 43/203/406 55/200/406
f 20/71/407 55/200/407 54/202/407
f 54/207/408 53/198/408 18/33/408
f 41/208/409 9/179/409 24/178/409
f 23/194/376 9/179/375 41/208/410
f 66/55/411 5/56/411 44/50/411
f 44/50/412 41/208/412 66/55/412
f 12/67/413 60/57/413 49/47/413
f 60/57/414 2/58/414 49/47/414
f 98/66/415 12/67/415 49/47/415
f 49/47/416 48/49/247 98/66/249
f 90/63/417 11/65/418 48/49/419
f 48/49/419 47/59/420 90/63/417
f 86/80/303 100/79/421 104/209/422
f 96/3/302 92/2/423 86/80/303
f 86/80/303 69/13/424 91/18/304
f 104/209/422 99/14/425 86/80/303
f 99/14/425 69/13/424 86/80/303
