# Blender 4.4.1
# www.blender.org
mtllib smallPlayerGhost.mtl
o Body
v 0.152912 0.159426 0.159891
v -0.152912 0.159426 0.159891
v 0.152912 0.159426 -0.159891
v -0.152912 0.159426 -0.159891
v 0.193052 -0.292350 0.191091
v 0.175217 0.094587 0.183213
v 0.090723 0.182680 0.183213
v -0.000000 0.194361 0.194929
v -0.090723 0.182680 0.183213
v -0.175217 0.094587 0.183213
v -0.235384 -0.343012 0.229052
v 0.246789 -0.035854 0.135561
v 0.264804 -0.032244 0.000000
v -0.175217 0.182680 0.094863
v -0.186421 0.194361 -0.000000
v -0.175217 0.182680 -0.094863
v -0.175217 0.094587 -0.183213
v -0.222525 -0.333758 -0.218275
v 0.246789 -0.035854 -0.135561
v 0.106285 -0.035854 -0.258052
v -0.090723 0.182680 -0.183213
v -0.000000 0.194361 -0.194929
v 0.090723 0.182680 -0.183213
v 0.175217 0.094587 -0.183213
v 0.193052 -0.296576 -0.209557
v 0.000000 -0.032244 -0.276889
v -0.106285 -0.035854 -0.258052
v 0.175217 0.182680 -0.094863
v 0.186421 0.194361 0.000000
v 0.175217 0.182680 0.094863
v 0.117410 -0.360582 0.295184
v 0.096688 0.100807 0.233118
v -0.246789 -0.035854 -0.111136
v 0.000000 -0.288528 0.283304
v -0.000000 0.106222 0.236360
v -0.125479 -0.272043 0.297410
v -0.096688 0.100807 0.233118
v -0.264804 -0.032244 -0.000000
v -0.245947 -0.283405 0.124954
v -0.222943 0.100807 0.101101
v -0.306517 -0.312592 -0.021759
v -0.239103 0.106222 -0.000000
v -0.246789 -0.035854 0.111136
v -0.232596 -0.292236 -0.112407
v -0.222943 0.100807 -0.101101
v -0.112062 -0.290321 -0.307920
v -0.096688 0.100807 -0.233118
v -0.106285 -0.035854 0.258052
v 0.000000 -0.283117 -0.275312
v 0.000000 0.106222 -0.236359
v 0.125479 -0.327337 -0.307920
v 0.096688 0.100807 -0.233118
v -0.000000 -0.032244 0.276889
v 0.286601 -0.309177 -0.113825
v 0.222943 0.100807 -0.123321
v 0.280364 -0.280515 0.000000
v 0.239103 0.106222 0.000000
v 0.106285 -0.035854 0.258052
v 0.298812 -0.334782 0.116942
v 0.222943 0.100807 0.123321
v 0.193344 -0.040001 -0.202168
v -0.193344 -0.040001 -0.202168
v -0.193344 -0.040001 0.202168
v 0.193344 -0.040001 0.202168
v -0.096688 0.232439 -0.101101
v -0.101882 0.249287 -0.000000
v -0.096688 0.232439 0.101101
v -0.000000 0.249287 -0.106533
v -0.000000 0.267677 -0.000000
v -0.000000 0.249287 0.106533
v 0.096688 0.232439 -0.101101
v 0.101883 0.249287 0.000000
v 0.096688 0.232439 0.101101
vn 0.9932 0.1157 -0.0117
vn 0.9908 0.0748 0.1126
vn 0.9817 0.1754 -0.0735
vn 0.1006 0.2442 0.9645
vn 0.1277 0.2250 0.9660
vn 0.1776 0.1887 0.9658
vn -0.1277 0.2250 0.9660
vn -0.1006 0.2442 0.9645
vn -0.1776 0.1887 0.9658
vn -0.9578 0.0055 -0.2873
vn -0.8510 0.1160 -0.5122
vn -0.7822 0.1631 -0.6013
vn 0.5372 0.1879 0.8223
vn 0.5371 0.1880 0.8223
vn 0.5369 0.1881 0.8224
vn 0.4830 0.4642 0.7424
vn 0.4839 0.4633 0.7424
vn 0.5061 0.4408 0.7414
vn 0.1141 0.4722 0.8741
vn 0.1124 0.4737 0.8735
vn 0.0578 0.5227 0.8506
vn -0.1124 0.4737 0.8735
vn -0.1141 0.4722 0.8741
vn -0.0578 0.5227 0.8506
vn -0.4839 0.4633 0.7424
vn -0.4830 0.4642 0.7424
vn -0.5061 0.4408 0.7414
vn -0.5371 0.1880 0.8223
vn -0.5372 0.1879 0.8223
vn -0.5369 0.1881 0.8224
vn -0.0567 0.0452 -0.9974
vn 0.1598 0.1369 -0.9776
vn 0.2642 0.1797 -0.9476
vn 0.9922 0.0857 -0.0910
vn 0.9921 0.1227 -0.0243
vn 0.9892 0.1455 0.0176
vn -0.9698 0.1805 0.1640
vn -0.9698 0.1807 0.1637
vn -0.9698 0.1812 0.1631
vn -0.9698 0.1807 -0.1637
vn -0.9698 0.1805 -0.1640
vn -0.9698 0.1812 -0.1631
vn -0.8437 0.1844 0.5041
vn -0.8438 0.1845 0.5040
vn -0.8438 0.1846 0.5038
vn -0.7644 0.4566 0.4553
vn -0.7644 0.4566 0.4552
vn -0.7640 0.4344 0.4770
vn -0.8470 0.5062 0.1624
vn -0.8470 0.5061 0.1625
vn -0.8470 0.5062 -0.1624
vn -0.8470 0.5061 -0.1625
vn -0.7644 0.4566 -0.4552
vn -0.7644 0.4566 -0.4553
vn -0.7640 0.4344 -0.4770
vn -0.8438 0.1845 -0.5040
vn -0.8437 0.1844 -0.5041
vn -0.8438 0.1846 -0.5038
vn -0.5554 0.1563 0.8167
vn -0.5817 0.1694 0.7956
vn -0.6003 0.1787 0.7796
vn -0.8988 0.0564 0.4346
vn -0.9599 0.1284 0.2491
vn -0.9710 0.1511 0.1851
vn -0.9072 -0.0085 -0.4205
vn -0.9746 0.0770 -0.2102
vn -0.8624 -0.0452 -0.5042
vn -0.9716 0.0428 0.2327
vn -0.9453 0.0857 0.3148
vn -0.9871 0.0056 0.1602
vn -0.1006 0.2442 -0.9645
vn -0.1276 0.2250 -0.9660
vn -0.1776 0.1887 -0.9658
vn 0.1276 0.2250 -0.9660
vn 0.1006 0.2442 -0.9645
vn 0.1776 0.1887 -0.9658
vn -0.5372 0.1879 -0.8223
vn -0.5371 0.1880 -0.8223
vn -0.5369 0.1881 -0.8224
vn -0.4830 0.4642 -0.7424
vn -0.4839 0.4633 -0.7424
vn -0.5061 0.4408 -0.7414
vn -0.1141 0.4722 -0.8741
vn -0.1124 0.4737 -0.8735
vn -0.0578 0.5227 -0.8506
vn 0.1124 0.4737 -0.8735
vn 0.1141 0.4722 -0.8741
vn 0.0578 0.5227 -0.8506
vn 0.4839 0.4633 -0.7424
vn 0.4830 0.4642 -0.7424
vn 0.5061 0.4408 -0.7414
vn 0.5371 0.1880 -0.8223
vn 0.5372 0.1879 -0.8223
vn 0.5369 0.1881 -0.8224
vn 0.7333 -0.0064 0.6799
vn 0.6232 0.0386 0.7811
vn 0.5872 0.0519 0.8078
vn -0.1100 0.0529 0.9925
vn 0.0133 0.1051 0.9944
vn -0.1753 0.0246 0.9842
vn -0.6425 0.1581 -0.7498
vn -0.6071 0.1328 -0.7834
vn -0.6591 0.1590 -0.7351
vn 0.1212 0.0481 0.9915
vn 0.0076 0.0963 0.9953
vn -0.0315 0.1125 0.9932
vn 0.9741 0.1814 -0.1350
vn 0.9741 0.1814 -0.1349
vn 0.9741 0.1820 -0.1343
vn 0.9741 0.1814 0.1349
vn 0.9741 0.1814 0.1350
vn 0.9741 0.1820 0.1343
vn 0.7590 0.1888 -0.6231
vn 0.7595 0.1894 -0.6224
vn 0.7600 0.1899 -0.6216
vn 0.6937 0.5138 -0.5048
vn 0.6916 0.5025 -0.5188
vn 0.6777 0.4440 -0.5862
vn 0.8407 0.5214 -0.1459
vn 0.8414 0.5198 -0.1477
vn 0.8355 0.5332 -0.1329
vn 0.8414 0.5198 0.1477
vn 0.8407 0.5214 0.1459
vn 0.8355 0.5332 0.1329
vn 0.6916 0.5025 0.5188
vn 0.6937 0.5138 0.5048
vn 0.6777 0.4440 0.5862
vn 0.7595 0.1894 0.6224
vn 0.7590 0.1888 0.6231
vn 0.7600 0.1899 0.6216
vn 0.0689 0.0400 -0.9968
vn -0.1201 0.1205 -0.9854
vn 0.1743 -0.0062 -0.9847
vn 0.6167 0.0592 -0.7850
vn 0.7493 0.1285 -0.6496
vn 0.7915 0.1533 -0.5917
vn 0.7299 0.0432 -0.6822
vn 0.7620 0.0266 -0.6470
vn 0.7176 0.0493 -0.6947
vn -0.1767 0.9697 -0.1689
vn -0.1767 0.9697 -0.1690
vn -0.1784 0.9696 -0.1674
vn -0.1767 0.9697 0.1689
vn -0.1767 0.9697 0.1690
vn -0.1750 0.9697 0.1706
vn 0.1767 0.9697 -0.1690
vn 0.1767 0.9697 -0.1689
vn 0.1784 0.9696 -0.1674
vn 0.1767 0.9697 0.1690
vn 0.1767 0.9697 0.1689
vn 0.1750 0.9697 0.1706
vn -0.4824 0.7439 -0.4625
vn -0.4834 0.7439 -0.4615
vn -0.4599 0.7442 -0.4844
vn -0.5373 0.8270 -0.1654
vn -0.5372 0.8271 -0.1654
vn -0.5373 0.8270 0.1654
vn -0.5373 0.8270 0.1653
vn -0.4824 0.7439 0.4625
vn -0.4834 0.7439 0.4615
vn -0.5055 0.7428 0.4390
vn -0.1748 0.8363 0.5196
vn -0.1749 0.8363 0.5196
vn -0.1749 0.8364 0.5195
vn 0.1749 0.8363 0.5196
vn 0.1748 0.8363 0.5196
vn 0.1749 0.8364 0.5195
vn 0.4834 0.7439 0.4615
vn 0.4824 0.7439 0.4625
vn 0.5055 0.7428 0.4390
vn 0.5373 0.8270 0.1654
vn 0.5373 0.8270 0.1653
vn 0.5373 0.8270 -0.1654
vn 0.5372 0.8271 -0.1654
vn 0.4834 0.7439 -0.4615
vn 0.4824 0.7439 -0.4625
vn 0.4599 0.7442 -0.4844
vn 0.1749 0.8363 -0.5196
vn 0.1748 0.8363 -0.5196
vn -0.1748 0.8363 -0.5196
vn -0.1749 0.8363 -0.5196
vn 0.6238 0.0070 0.7816
vn 0.7471 0.0805 0.6598
vn 0.5385 -0.0376 0.8418
vn 0.9853 0.1633 -0.0507
vn 0.9892 0.0620 0.1331
vn 0.9929 0.1035 0.0591
vn 0.0479 0.2806 0.9586
vn -0.0479 0.2806 0.9586
vn -0.9860 -0.0538 -0.1581
vn 0.5374 0.1877 0.8222
vn 0.4604 0.4863 0.7427
vn 0.1692 0.4193 0.8920
vn -0.1692 0.4193 0.8920
vn -0.4604 0.4863 0.7427
vn -0.5374 0.1877 0.8222
vn -0.1743 -0.0062 -0.9847
vn 0.9892 0.0620 -0.1331
vn -0.9698 0.1800 0.1647
vn -0.9698 0.1800 -0.1647
vn -0.8436 0.1842 0.5043
vn -0.7640 0.4783 0.4331
vn -0.7640 0.4783 -0.4331
vn -0.8436 0.1842 -0.5043
vn -0.5392 0.1484 0.8290
vn -0.8616 0.0254 0.5070
vn -0.9050 -0.0108 -0.4253
vn -0.9852 0.1053 -0.1350
vn -0.9743 0.0707 -0.2138
vn -0.9721 0.0416 0.2309
vn -0.9263 0.1098 0.3605
vn -0.9459 0.0837 0.3135
vn -0.0478 0.2806 -0.9586
vn 0.0478 0.2806 -0.9586
vn -0.5374 0.1877 -0.8222
vn -0.4604 0.4863 -0.7427
vn -0.1692 0.4193 -0.8920
vn 0.1692 0.4193 -0.8920
vn 0.4604 0.4863 -0.7427
vn 0.5374 0.1877 -0.8222
vn 0.7805 -0.0283 0.6245
vn -0.0430 0.0847 0.9955
vn 0.1302 0.1527 0.9797
vn 0.0778 0.1585 0.9843
vn -0.6025 0.1304 -0.7874
vn -0.5409 0.0995 -0.8352
vn -0.5638 0.1109 -0.8185
vn 0.1753 0.0246 0.9842
vn 0.9741 0.1808 -0.1356
vn 0.9741 0.1808 0.1356
vn 0.7585 0.1882 -0.6239
vn 0.7002 0.5615 -0.4410
vn 0.8470 0.5062 -0.1624
vn 0.8470 0.5062 0.1624
vn 0.7002 0.5615 0.4410
vn 0.7585 0.1882 0.6239
vn 0.0687 0.0400 -0.9968
vn -0.1978 0.1526 -0.9683
vn -0.1202 0.1205 -0.9854
vn 0.5408 0.0236 -0.8408
vn 0.7793 0.0172 -0.6264
vn -0.1750 0.9697 -0.1706
vn -0.1784 0.9696 0.1674
vn 0.1750 0.9697 -0.1706
vn 0.1784 0.9696 0.1674
vn -0.5055 0.7428 -0.4390
vn -0.5373 0.8270 -0.1653
vn -0.5372 0.8271 0.1654
vn -0.4599 0.7442 0.4844
vn 0.4599 0.7442 0.4844
vn 0.5372 0.8271 0.1654
vn 0.5373 0.8270 -0.1653
vn 0.5055 0.7428 -0.4390
vn 0.1749 0.8364 -0.5195
vn -0.1749 0.8364 -0.5195
vn 0.5956 -0.0113 0.8032
vn 0.7734 0.0981 0.6263
vn 0.7345 0.0407 0.6774
vt 0.414320 0.004075
vt 0.455845 0.158050
vt 0.344264 0.027039
vt 0.581341 0.838956
vt 0.667732 0.792954
vt 0.659883 0.854564
vt 0.593686 0.728948
vt 0.673733 0.731136
vt 0.238877 0.503755
vt 0.078608 0.522650
vt 0.085276 0.455772
vt 0.506238 0.916641
vt 0.579898 0.969571
vt 0.523922 0.988967
vt 0.494891 0.880211
vt 0.552671 0.895203
vt 0.526757 0.828908
vt 0.585899 0.783771
vt 0.538232 0.726647
vt 0.577477 0.667150
vt 0.518080 0.669514
vt 0.536721 0.636503
vt 0.619687 0.600117
vt 0.568903 0.569419
vt 0.185344 0.677426
vt 0.039359 0.722107
vt 0.040100 0.655917
vt 0.174321 0.905116
vt 0.043224 0.995925
vt 0.020076 0.933541
vt 0.490238 0.621546
vt 0.448054 0.538756
vt 0.512022 0.550185
vt 0.388513 0.610090
vt 0.383146 0.535672
vt 0.481017 0.668172
vt 0.439544 0.614323
vt 0.387133 0.657600
vt 0.350701 0.650665
vt 0.339869 0.614335
vt 0.323412 0.541774
vt 0.316082 0.339421
vt 0.128557 0.313365
vt 0.199563 0.269315
vt 0.285023 0.389125
vt 0.137660 0.380923
vt 0.196902 0.619967
vt 0.217963 0.563995
vt 0.262730 0.444618
vt 0.263736 0.691935
vt 0.179378 0.737941
vt 0.251332 0.801623
vt 0.171680 0.798259
vt 0.267072 0.560407
vt 0.293317 0.635150
vt 0.318343 0.701895
vt 0.259384 0.746988
vt 0.306784 0.804109
vt 0.266767 0.862985
vt 0.326434 0.861227
vt 0.307263 0.894219
vt 0.223671 0.929428
vt 0.273926 0.960795
vt 0.316281 0.098735
vt 0.234832 0.206446
vt 0.353003 0.290689
vt 0.036627 0.571786
vt 0.387032 0.239896
vt 0.239316 0.128302
vt 0.344175 0.908228
vt 0.396831 0.993457
vt 0.319006 0.978223
vt 0.467135 0.922084
vt 0.476095 0.995925
vt 0.363758 0.862866
vt 0.405440 0.917065
vt 0.458138 0.873502
vt 0.025301 0.857614
vt 0.004075 0.791158
vt 0.373603 0.705624
vt 0.422527 0.765438
vt 0.367186 0.759179
vt 0.483528 0.718002
vt 0.428383 0.713429
vt 0.361481 0.812815
vt 0.471497 0.825213
vt 0.416660 0.817493
vt 0.325546 0.679265
vt 0.433996 0.663593
vt 0.477878 0.771649
vt 0.411025 0.867504
vt 0.308496 0.827451
vt 0.312529 0.752998
vt 0.423149 0.193736
vt 0.512388 0.105134
vt 0.519896 0.851273
vt 0.532571 0.777786
vt 0.536244 0.702993
vt 0.183356 0.982029
vt 0.170604 0.856859
s 1
usemtl マテリアル.003
f 56/1/1 12/2/2 59/3/3
f 32/4/4 53/5/5 58/6/6
f 53/5/7 37/7/8 48/8/9
f 38/9/10 44/10/11 41/11/12
f 6/12/13 58/13/14 64/14/15
f 1/15/16 32/16/17 6/12/18
f 7/17/19 35/18/20 32/4/21
f 35/18/22 9/19/23 37/7/24
f 37/20/25 2/21/26 10/22/27
f 48/23/28 10/22/29 63/24/30
f 27/25/31 49/26/32 46/27/33
f 19/28/34 56/29/35 54/30/36
f 40/31/37 38/32/38 43/33/39
f 38/32/40 45/34/41 33/35/42
f 10/22/43 43/33/44 63/24/45
f 2/21/46 40/31/47 10/22/48
f 14/36/49 42/37/49 40/31/50
f 42/37/51 16/38/51 45/34/52
f 45/34/53 4/39/54 17/40/55
f 33/35/56 17/40/57 62/41/58
f 48/42/59 11/43/60 36/44/61
f 63/45/62 39/46/63 11/43/64
f 62/47/65 44/10/66 33/48/67
f 38/9/68 39/46/69 43/49/70
f 47/50/71 26/51/72 27/25/73
f 26/51/74 52/52/75 20/53/76
f 17/40/77 27/54/78 62/41/79
f 4/39/80 47/55/81 17/40/82
f 21/56/83 50/57/84 47/50/85
f 50/57/86 23/58/87 52/52/88
f 52/59/89 3/60/90 24/61/91
f 20/62/92 24/61/93 61/63/94
f 12/2/95 5/64/96 59/3/97
f 48/42/98 34/65/99 53/66/100
f 18/67/101 27/25/102 46/27/103
f 58/68/104 34/65/105 31/69/106
f 55/70/107 13/71/108 19/72/109
f 13/71/110 60/73/111 12/74/112
f 24/61/113 19/72/114 61/63/115
f 3/60/116 55/70/117 24/61/118
f 28/75/119 57/76/120 55/70/121
f 57/76/122 30/77/123 60/73/124
f 60/73/125 1/15/126 6/12/127
f 12/74/128 6/12/129 64/14/130
f 20/53/131 49/26/132 26/51/133
f 20/53/134 25/78/135 51/79/136
f 25/78/137 19/28/138 54/30/139
f 65/80/140 69/81/141 68/82/142
f 67/83/143 69/81/144 66/84/145
f 69/81/146 71/85/147 68/82/148
f 69/81/149 73/86/150 72/87/151
f 4/39/152 65/80/153 21/88/154
f 16/38/155 66/84/155 65/80/156
f 14/36/157 66/84/157 15/89/158
f 2/21/159 67/83/160 14/36/161
f 9/19/162 70/90/163 67/83/164
f 70/90/165 7/17/166 73/86/167
f 73/86/168 1/15/169 30/77/170
f 72/87/171 30/77/171 29/91/172
f 72/87/173 28/75/173 71/85/174
f 71/85/175 3/60/176 23/92/177
f 68/82/178 23/58/179 22/93/179
f 21/56/180 68/82/181 22/93/180
f 58/68/182 5/64/183 64/94/184
f 56/1/185 13/95/186 12/2/187
f 32/4/4 35/18/188 53/5/5
f 53/5/7 35/18/189 37/7/8
f 38/9/10 33/48/190 44/10/11
f 6/12/13 32/16/191 58/13/14
f 1/15/16 7/96/192 32/16/17
f 7/17/19 8/97/193 35/18/20
f 35/18/22 8/97/194 9/19/23
f 37/20/25 9/98/195 2/21/26
f 48/23/28 37/20/196 10/22/29
f 27/25/31 26/51/197 49/26/32
f 19/28/34 13/99/198 56/29/35
f 40/31/37 42/37/199 38/32/38
f 38/32/40 42/37/200 45/34/41
f 10/22/43 40/31/201 43/33/44
f 2/21/46 14/36/202 40/31/47
f 14/36/49 15/89/49 42/37/49
f 42/37/51 15/89/51 16/38/51
f 45/34/53 16/38/203 4/39/54
f 33/35/56 45/34/204 17/40/57
f 48/42/59 63/45/205 11/43/60
f 63/45/62 43/49/206 39/46/63
f 62/47/207 18/67/208 44/10/209
f 38/9/210 41/11/211 39/46/212
f 47/50/71 50/57/213 26/51/72
f 26/51/74 50/57/214 52/52/75
f 17/40/77 47/55/215 27/54/78
f 4/39/80 21/88/216 47/55/81
f 21/56/83 22/93/217 50/57/84
f 50/57/86 22/93/218 23/58/87
f 52/59/89 23/92/219 3/60/90
f 20/62/92 52/59/220 24/61/93
f 12/2/95 64/94/221 5/64/96
f 48/42/222 36/44/223 34/65/224
f 18/67/225 62/47/226 27/25/227
f 58/68/104 53/66/228 34/65/105
f 55/70/107 57/76/229 13/71/108
f 13/71/110 57/76/230 60/73/111
f 24/61/113 55/70/231 19/72/114
f 3/60/116 28/75/232 55/70/117
f 28/75/119 29/91/233 57/76/120
f 57/76/122 29/91/234 30/77/123
f 60/73/125 30/77/235 1/15/126
f 12/74/128 60/73/236 6/12/129
f 20/53/237 51/79/238 49/26/239
f 20/53/134 61/100/240 25/78/135
f 25/78/137 61/100/241 19/28/138
f 65/80/140 66/84/242 69/81/141
f 67/83/143 70/90/243 69/81/144
f 69/81/146 72/87/244 71/85/147
f 69/81/149 70/90/245 73/86/150
f 4/39/152 16/38/246 65/80/153
f 16/38/155 15/89/247 66/84/155
f 14/36/157 67/83/248 66/84/157
f 2/21/159 9/98/249 67/83/160
f 9/19/162 8/97/162 70/90/163
f 70/90/165 8/97/166 7/17/166
f 73/86/168 7/96/250 1/15/169
f 72/87/171 73/86/251 30/77/171
f 72/87/173 29/91/252 28/75/173
f 71/85/175 28/75/253 3/60/176
f 68/82/178 71/85/254 23/58/179
f 21/56/180 65/80/255 68/82/181
f 58/68/256 31/69/257 5/64/258
