# Blender 4.4.1
# www.blender.org
mtllib Title_BigShotGun.mtl
o 立方体
v 0.848146 -0.204176 0.751111
v 0.564890 0.287727 0.960896
v -0.053120 -0.389405 -0.031477
v -0.336377 0.102498 0.178308
v 1.058953 0.046007 0.449120
v 0.775696 0.537910 0.658905
v 0.157687 -0.139222 -0.333468
v -0.125570 0.352681 -0.123682
v -0.583729 -0.054167 -0.212023
v -0.178088 -0.326513 -0.154486
v -0.023724 -0.143317 -0.375619
v -0.429365 0.129030 -0.433155
v -0.651127 -0.043228 -0.162131
v -0.167133 -0.404439 -0.123520
v 0.043674 -0.154256 -0.425510
v -0.440320 0.206955 -0.464122
v -0.753456 -0.430429 -0.642215
v -0.320280 -0.569152 -0.454758
v -0.165917 -0.385955 -0.675891
v -0.599092 -0.247233 -0.863348
v -0.942119 -0.408903 -0.756079
v -0.599627 -0.758438 -0.806571
v -0.445263 -0.575242 -1.027704
v -0.787756 -0.225706 -0.977212
v -2.041695 -0.632787 -1.643584
v -1.670601 -1.242445 -1.889608
v -1.474142 -1.009290 -2.171044
v -1.845236 -0.399632 -1.925021
v 0.669248 0.367231 0.771404
v 2.294923 0.678448 2.164045
v 0.679262 0.376517 0.757674
v 2.302385 0.685366 2.153814
v 0.690668 0.382362 0.743155
v 2.310884 0.689721 2.142996
v 0.703029 0.384539 0.728405
v 2.320093 0.691343 2.132006
v 0.715867 0.382964 0.713992
v 2.329659 0.690169 2.121267
v 0.728693 0.377699 0.700467
v 2.339214 0.686247 2.111192
v 0.741011 0.368945 0.688354
v 2.348391 0.679725 2.102167
v 0.752347 0.357039 0.678116
v 2.356838 0.670854 2.094538
v 0.762267 0.342440 0.670147
v 2.364230 0.659976 2.088600
v 0.770389 0.325707 0.664754
v 2.370282 0.647508 2.084582
v 0.776402 0.307484 0.662142
v 2.374762 0.633930 2.082636
v 0.780075 0.288470 0.662413
v 2.377498 0.619763 2.082838
v 0.781263 0.269397 0.665559
v 2.378384 0.605553 2.085181
v 0.779926 0.250999 0.671453
v 2.377388 0.591845 2.089572
v 0.776112 0.233981 0.679874
v 2.374547 0.579165 2.095846
v 0.769970 0.218995 0.690494
v 2.369969 0.568000 2.103760
v 0.761733 0.206622 0.702909
v 2.363832 0.558780 2.113010
v 0.751719 0.197335 0.716639
v 2.356370 0.551861 2.123241
v 0.740312 0.191493 0.731159
v 2.347871 0.547507 2.134060
v 0.727951 0.189316 0.745909
v 2.338662 0.545885 2.145050
v 0.715113 0.190891 0.760322
v 2.329096 0.547059 2.155788
v 0.702288 0.196154 0.773846
v 2.319541 0.550981 2.165864
v 0.689970 0.204908 0.785960
v 2.310364 0.557503 2.174889
v 0.678634 0.216813 0.796197
v 2.301917 0.566374 2.182517
v 0.668714 0.231413 0.804166
v 2.294525 0.577251 2.188456
v 0.660592 0.248146 0.809560
v 2.288474 0.589720 2.192474
v 0.654579 0.266369 0.812171
v 2.283993 0.603298 2.194419
v 0.650906 0.285382 0.811900
v 2.281257 0.617465 2.194217
v 0.649717 0.304458 0.808755
v 2.280371 0.631675 2.191875
v 0.651054 0.322856 0.802861
v 2.281367 0.645383 2.187483
v 0.654868 0.339874 0.794441
v 2.284209 0.658063 2.181209
v 0.661011 0.354858 0.783819
v 2.288786 0.669227 2.173295
v 2.293149 0.708205 2.159045
v 2.283135 0.698918 2.172776
v 2.304555 0.714049 2.144526
v 2.316916 0.716227 2.129776
v 2.329754 0.714651 2.115363
v 2.342581 0.709387 2.101838
v 2.354898 0.700632 2.089725
v 2.366234 0.688727 2.079487
v 2.376154 0.674127 2.071518
v 2.384276 0.657395 2.066125
v 2.390290 0.639171 2.063513
v 2.393962 0.620158 2.063784
v 2.395150 0.601085 2.066930
v 2.393813 0.582686 2.072824
v 2.390000 0.565666 2.081244
v 2.383857 0.550682 2.091865
v 2.375620 0.538310 2.104280
v 2.365606 0.529023 2.118010
v 2.354200 0.523178 2.132529
v 2.341838 0.521003 2.147280
v 2.329000 0.522579 2.161693
v 2.316175 0.527841 2.175217
v 2.303858 0.536595 2.187331
v 2.292521 0.548501 2.197568
v 2.282601 0.563100 2.205537
v 2.274479 0.579833 2.210931
v 2.268466 0.598056 2.213542
v 2.264793 0.617070 2.213272
v 2.263604 0.636145 2.210126
v 2.264941 0.654543 2.204232
v 2.268755 0.671562 2.195812
v 2.274899 0.686545 2.185190
v 2.245157 0.673605 2.104121
v 2.237695 0.666686 2.114353
v 2.253655 0.677959 2.093303
v 2.262865 0.679581 2.082313
v 2.272430 0.678407 2.071575
v 2.281985 0.674485 2.061499
v 2.291163 0.667963 2.052474
v 2.299609 0.659092 2.044846
v 2.307002 0.648215 2.038907
v 2.313053 0.635746 2.034889
v 2.317533 0.622168 2.032943
v 2.320270 0.608001 2.033145
v 2.321156 0.593791 2.035488
v 2.320160 0.580083 2.039880
v 2.317318 0.567403 2.046154
v 2.312741 0.556239 2.054068
v 2.306604 0.547018 2.063317
v 2.299142 0.540100 2.073549
v 2.290643 0.535745 2.084367
v 2.281434 0.534123 2.095357
v 2.271868 0.535297 2.106095
v 2.262313 0.539219 2.116171
v 2.253135 0.545741 2.125196
v 2.244689 0.554612 2.132824
v 2.237297 0.565490 2.138763
v 2.231245 0.577958 2.142781
v 2.226765 0.591536 2.144727
v 2.224029 0.605703 2.144525
v 2.223142 0.619913 2.142182
v 2.224138 0.633621 2.137790
v 2.226980 0.646301 2.131516
v 2.231558 0.657465 2.123603
v 0.814779 0.119776 0.667251
v 2.080244 0.379855 1.766079
v 0.819983 0.124601 0.660116
v 2.085447 0.384680 1.758944
v 0.825911 0.127638 0.652570
v 2.091375 0.387717 1.751399
v 0.832333 0.128768 0.644907
v 2.097797 0.388848 1.743735
v 0.839005 0.127951 0.637416
v 2.104469 0.388030 1.736245
v 0.845668 0.125216 0.630390
v 2.111132 0.385296 1.729218
v 0.852069 0.120667 0.624095
v 2.117533 0.380746 1.722924
v 0.857960 0.114480 0.618775
v 2.123425 0.374559 1.717603
v 0.863115 0.106894 0.614634
v 2.128580 0.366973 1.713462
v 0.867336 0.098198 0.611831
v 2.132800 0.358278 1.710660
v 0.870459 0.088730 0.610475
v 2.135924 0.348810 1.709303
v 0.872368 0.078849 0.610615
v 2.137832 0.338929 1.709444
v 0.872986 0.068940 0.612249
v 2.138450 0.329019 1.711078
v 0.872290 0.059379 0.615314
v 2.137754 0.319458 1.714142
v 0.870309 0.050536 0.619688
v 2.135773 0.310615 1.718517
v 0.867116 0.042750 0.625208
v 2.132581 0.302829 1.724036
v 0.862836 0.036320 0.631659
v 2.128301 0.296399 1.730487
v 0.857633 0.031494 0.638794
v 2.123097 0.291574 1.737622
v 0.851707 0.028459 0.646337
v 2.117171 0.288538 1.745165
v 0.845283 0.027327 0.654002
v 2.110747 0.287406 1.752831
v 0.838612 0.028146 0.661491
v 2.104077 0.288225 1.760319
v 0.831949 0.030881 0.668517
v 2.097414 0.290960 1.767346
v 0.825548 0.035430 0.674812
v 2.091012 0.295510 1.773641
v 0.819658 0.041615 0.680132
v 2.085122 0.301694 1.778960
v 0.814503 0.049201 0.684273
v 2.079967 0.309280 1.783101
v 0.810283 0.057896 0.687075
v 2.075747 0.317976 1.785904
v 0.807158 0.067367 0.688432
v 2.072622 0.327446 1.787261
v 0.805249 0.077248 0.688292
v 2.070714 0.337327 1.787120
v 0.804631 0.087157 0.686658
v 2.070096 0.347236 1.785486
v 0.805326 0.096717 0.683596
v 2.070790 0.356796 1.782424
v 0.807308 0.105561 0.679219
v 2.072773 0.365640 1.778048
v 0.810499 0.113346 0.673701
v 2.075964 0.373425 1.772530
v 2.164024 0.256293 1.821615
v 1.941289 0.643093 1.986577
v 2.099034 0.242936 1.765183
v 1.876299 0.629736 1.930145
v 2.227881 0.332078 1.730137
v 2.005147 0.718878 1.895098
v 2.162892 0.318721 1.673705
v 1.940157 0.705522 1.838666
v 1.389127 0.267254 1.190356
v 1.930525 0.378523 1.660463
v 1.397614 0.275125 1.178719
v 1.939012 0.386393 1.648826
v 1.407279 0.280077 1.166416
v 1.948678 0.391346 1.636523
v 1.417753 0.281922 1.153918
v 1.959151 0.393190 1.624025
v 1.428634 0.280586 1.141703
v 1.970032 0.391855 1.611809
v 1.439502 0.276127 1.130242
v 1.980900 0.387396 1.600349
v 1.449940 0.268708 1.119977
v 1.991338 0.379976 1.590084
v 1.459546 0.258619 1.111302
v 2.000944 0.369888 1.581409
v 1.467954 0.246246 1.104548
v 2.009352 0.357515 1.574655
v 1.474836 0.232066 1.099978
v 2.016234 0.343335 1.570085
v 1.479931 0.216625 1.097765
v 2.021329 0.327893 1.567872
v 1.483044 0.200511 1.097994
v 2.024442 0.311780 1.568101
v 1.484052 0.184347 1.100659
v 2.025450 0.295616 1.570766
v 1.482918 0.168756 1.105655
v 2.024316 0.280025 1.575762
v 1.479686 0.154336 1.112790
v 2.021084 0.265604 1.582897
v 1.474482 0.141637 1.121790
v 2.015880 0.252906 1.591897
v 1.467500 0.131152 1.132312
v 2.008898 0.242421 1.602419
v 1.459015 0.123281 1.143947
v 2.000413 0.234550 1.614054
v 1.449347 0.118330 1.156252
v 1.990745 0.229598 1.626359
v 1.438874 0.116485 1.168751
v 1.980272 0.227754 1.638858
v 1.427994 0.117818 1.180965
v 1.969392 0.229087 1.651072
v 1.417127 0.122281 1.192424
v 1.958525 0.233549 1.662531
v 1.406687 0.129699 1.202691
v 1.948085 0.240968 1.672798
v 1.397081 0.139787 1.211366
v 1.938479 0.251056 1.681473
v 1.388676 0.152160 1.218117
v 1.930074 0.263429 1.688224
v 1.381791 0.166340 1.222690
v 1.923189 0.277609 1.692797
v 1.376696 0.181782 1.224903
v 1.918094 0.293051 1.695010
v 1.373584 0.197897 1.224673
v 1.914982 0.309166 1.694780
v 1.372576 0.214057 1.222009
v 1.913974 0.325326 1.692116
v 1.373709 0.229651 1.217013
v 1.915107 0.340919 1.687120
v 1.376940 0.244071 1.209878
v 1.918339 0.355340 1.679985
v 1.382147 0.256769 1.200876
v 1.923545 0.368038 1.670983
v 0.118957 -0.370276 -0.165092
v 0.057596 -0.263717 -0.119647
v 0.148320 -0.364241 -0.139595
v 0.086959 -0.257682 -0.094150
v 0.156610 -0.325589 -0.219032
v 0.095250 -0.219030 -0.173588
v 0.185974 -0.319554 -0.193536
v 0.124613 -0.212995 -0.148091
v 0.349581 -0.312665 -0.062059
v 0.319354 -0.348538 -0.018757
v 0.319896 -0.315962 -0.085513
v 0.289668 -0.351836 -0.042211
v 0.081889 -0.453281 -0.259733
v -0.039032 -0.243290 -0.170177
v 0.110391 -0.434900 -0.236171
v -0.009671 -0.237256 -0.144682
v 0.119543 -0.408594 -0.313673
v -0.001378 -0.198604 -0.224117
v 0.140618 -0.399026 -0.279473
v 0.027983 -0.192569 -0.198622
v 0.111250 -0.447247 -0.234238
v 0.092616 -0.404033 -0.223006
v 0.148904 -0.402560 -0.288178
v 0.122844 -0.368159 -0.266309
v 0.295202 -0.362397 -0.047097
v 0.325430 -0.326523 -0.090399
v 0.312977 -0.393264 -0.060261
v 0.343204 -0.357391 -0.103563
v 0.208628 -0.187619 0.037264
v 0.238856 -0.151745 -0.006039
v 0.268541 -0.148448 0.017415
v 0.238314 -0.184321 0.060718
vn -0.4735 -0.5619 0.6783
vn -0.5970 0.7709 0.2219
vn 0.4735 0.5619 -0.6783
vn 0.7461 0.1533 0.6479
vn 0.4681 -0.8129 -0.3467
vn -0.4681 0.8129 0.3467
vn 0.4204 -0.8209 -0.3866
vn -0.4547 -0.7714 -0.4452
vn -0.5910 -0.3683 -0.7177
vn 0.8102 -0.5800 0.0850
vn -0.8335 0.5347 -0.1388
vn -0.4531 -0.5554 0.6973
vn -0.4547 -0.5495 0.7009
vn -0.4528 -0.5567 0.6965
vn 0.6689 -0.7304 -0.1382
vn -0.2230 0.8215 0.5248
vn -0.7309 -0.1791 -0.6586
vn 0.4935 0.5680 -0.6587
vn 0.4918 0.5737 -0.6550
vn 0.4912 0.5757 -0.6537
vn 0.5864 -0.7757 -0.2332
vn -0.4549 0.8154 0.3580
vn -0.4194 0.8640 0.2785
vn -0.3105 0.9410 0.1349
vn -0.1896 0.9818 -0.0140
vn -0.0614 0.9848 -0.1624
vn 0.0690 0.9501 -0.3044
vn 0.1969 0.8787 -0.4348
vn 0.3172 0.7737 -0.5485
vn 0.4253 0.6389 -0.6410
vn 0.5171 0.4795 -0.7090
vn 0.5890 0.3018 -0.7497
vn 0.6382 0.1124 -0.7616
vn 0.6630 -0.0815 -0.7442
vn 0.6622 -0.2718 -0.6983
vn 0.6360 -0.4519 -0.6255
vn 0.6360 -0.4520 -0.6255
vn 0.5854 -0.6147 -0.5286
vn 0.5854 -0.6146 -0.5287
vn 0.5122 -0.7539 -0.4115
vn 0.4194 -0.8640 -0.2785
vn 0.3105 -0.9410 -0.1349
vn 0.3104 -0.9410 -0.1348
vn 0.1895 -0.9818 0.0141
vn 0.1896 -0.9818 0.0140
vn 0.0614 -0.9848 0.1624
vn -0.0690 -0.9501 0.3043
vn -0.1969 -0.8787 0.4348
vn -0.3172 -0.7737 0.5485
vn -0.4253 -0.6389 0.6410
vn -0.5171 -0.4795 0.7090
vn -0.5890 -0.3018 0.7497
vn -0.6382 -0.1124 0.7616
vn -0.6630 0.0814 0.7442
vn -0.6622 0.2718 0.6983
vn -0.6360 0.4520 0.6255
vn -0.5854 0.6147 0.5286
vn -0.5122 0.7539 0.4115
vn -0.0690 -0.9501 0.3044
vn 0.7461 0.1534 0.6479
vn 0.7462 0.1534 0.6479
vn 0.5123 -0.7538 -0.4115
vn -0.3172 -0.7737 0.5484
vn -0.4253 -0.6390 0.6410
vn 0.3172 0.7737 -0.5484
vn 0.4253 0.6390 -0.6410
vn -0.6629 0.0813 0.7442
vn 0.4194 -0.8641 -0.2784
vn 0.6630 -0.0814 -0.7442
vn 0.6629 -0.0813 -0.7442
vn 0.3105 -0.9410 -0.1348
vn -0.5123 0.7538 0.4115
vn -0.4194 0.8641 0.2784
vn -0.3105 0.9410 0.1348
vn -0.1896 0.9818 -0.0141
vn -0.0615 0.9848 -0.1623
vn 0.0690 0.9501 -0.3043
vn 0.1970 0.8787 -0.4348
vn 0.5890 0.3017 -0.7497
vn 0.6382 0.1125 -0.7616
vn 0.6622 -0.2719 -0.6982
vn -0.1970 -0.8787 0.4348
vn -0.6382 -0.1125 0.7616
vn -0.6360 0.4520 0.6254
vn -0.5854 0.6147 0.5287
vn -0.7461 -0.1533 -0.6479
vn 0.0693 0.9500 -0.3046
vn 0.1968 0.8789 -0.4346
vn 0.6383 0.1122 -0.7616
vn 0.5122 -0.7540 -0.4114
vn 0.4195 -0.8640 -0.2786
vn 0.0615 -0.9848 0.1623
vn -0.0691 -0.9500 0.3045
vn -0.0691 -0.9500 0.3044
vn -0.1969 -0.8788 0.4347
vn -0.4254 -0.6388 0.6411
vn -0.5170 -0.4797 0.7090
vn -0.6382 -0.1123 0.7616
vn -0.5853 0.6148 0.5286
vn -0.5122 0.7538 0.4115
vn 0.7690 0.1118 0.6294
vn -0.8747 0.3908 -0.2868
vn 0.7817 0.0869 0.6176
vn -0.7817 -0.0869 -0.6176
vn -0.2171 -0.3867 -0.8963
vn -0.4552 -0.5475 0.7021
vn 0.4938 0.5667 -0.6595
vn 0.7462 0.1534 0.6478
vn 0.7461 0.1533 0.6480
vn 0.7461 0.1532 0.6480
vn -0.7461 -0.1534 -0.6479
vn -0.7462 -0.1534 -0.6479
vt 0.271289 0.401113
vt 0.332925 0.321928
vt 0.343580 0.392253
vt 0.196681 0.328259
vt 0.269063 0.302693
vt 0.265413 0.331388
vt 0.472044 0.294885
vt 0.415485 0.380082
vt 0.402152 0.310218
vt 0.196681 0.403054
vt 0.273230 0.475721
vt 0.198622 0.477662
vt 0.237310 0.168843
vt 0.271362 0.126955
vt 0.275924 0.187505
vt 0.331031 0.313361
vt 0.455613 0.269372
vt 0.401011 0.301485
vt 0.263026 0.246648
vt 0.259923 0.295336
vt 0.211500 0.243540
vt 0.272956 0.240413
vt 0.198467 0.298463
vt 0.208397 0.292228
vt 0.202360 0.236183
vt 0.353279 0.187440
vt 0.402682 0.197778
vt 0.383176 0.217305
vt 0.317547 0.192202
vt 0.336955 0.140420
vt 0.371635 0.167949
vt 0.216378 0.114873
vt 0.280532 0.111572
vt 0.388086 0.147782
vt 0.360351 0.039195
vt 0.443779 0.071150
vt 0.422186 0.177634
vt 0.334919 0.125316
vt 0.500553 0.009439
vt 0.489898 0.113579
vt 0.292811 0.021564
vt 0.818602 0.080596
vt 0.825739 0.153264
vt 0.818617 0.153265
vt 0.597817 0.080646
vt 0.604938 0.153292
vt 0.597817 0.153292
vt 0.604923 0.080645
vt 0.612059 0.153292
vt 0.612044 0.080642
vt 0.619180 0.153292
vt 0.619166 0.080640
vt 0.626301 0.153292
vt 0.626288 0.080638
vt 0.633423 0.153292
vt 0.633410 0.080636
vt 0.640545 0.153292
vt 0.640532 0.080634
vt 0.647667 0.153292
vt 0.647654 0.080632
vt 0.654789 0.153292
vt 0.654777 0.080630
vt 0.661911 0.153291
vt 0.661899 0.080628
vt 0.669034 0.153291
vt 0.669022 0.080627
vt 0.676157 0.153291
vt 0.676144 0.080625
vt 0.683280 0.153290
vt 0.683267 0.080624
vt 0.690403 0.153290
vt 0.690390 0.080622
vt 0.697527 0.153289
vt 0.697513 0.080621
vt 0.704650 0.153288
vt 0.704636 0.080619
vt 0.711773 0.153287
vt 0.711758 0.080618
vt 0.718896 0.153286
vt 0.718881 0.080616
vt 0.726019 0.153284
vt 0.726004 0.080615
vt 0.733142 0.153283
vt 0.733127 0.080613
vt 0.740265 0.153281
vt 0.740250 0.080612
vt 0.747388 0.153280
vt 0.747373 0.080610
vt 0.754511 0.153278
vt 0.754496 0.080609
vt 0.761634 0.153277
vt 0.761619 0.080607
vt 0.768756 0.153276
vt 0.768741 0.080606
vt 0.775879 0.153274
vt 0.775864 0.080604
vt 0.783002 0.153273
vt 0.782987 0.080603
vt 0.790125 0.153271
vt 0.790110 0.080602
vt 0.797248 0.153270
vt 0.797233 0.080600
vt 0.804371 0.153268
vt 0.804356 0.080599
vt 0.811494 0.153267
vt 0.811479 0.080597
vt 0.618394 0.065409
vt 0.612858 0.066212
vt 0.616818 0.063518
vt 0.598721 0.071468
vt 0.590879 0.079266
vt 0.593568 0.070479
vt 0.603998 0.071453
vt 0.609171 0.070412
vt 0.614027 0.068371
vt 0.611834 0.079252
vt 0.618373 0.076542
vt 0.622095 0.061624
vt 0.624288 0.072594
vt 0.625001 0.057147
vt 0.629347 0.067532
vt 0.627019 0.052148
vt 0.633342 0.061508
vt 0.637230 0.047493
vt 0.636042 0.054701
vt 0.627859 0.046823
vt 0.636963 0.040290
vt 0.627710 0.041495
vt 0.635270 0.033366
vt 0.626531 0.036369
vt 0.632305 0.026961
vt 0.624370 0.031599
vt 0.628146 0.021290
vt 0.621281 0.027360
vt 0.622960 0.016539
vt 0.617427 0.023830
vt 0.616944 0.012896
vt 0.612944 0.021128
vt 0.610338 0.010502
vt 0.602843 0.018586
vt 0.608020 0.019357
vt 0.597602 0.018791
vt 0.603400 0.009439
vt 0.592475 0.019923
vt 0.596428 0.009701
vt 0.587708 0.022037
vt 0.589648 0.011260
vt 0.583455 0.025009
vt 0.583277 0.014101
vt 0.579895 0.028742
vt 0.577588 0.018130
vt 0.577168 0.033082
vt 0.572831 0.023186
vt 0.575402 0.037839
vt 0.569197 0.029037
vt 0.565549 0.042094
vt 0.566771 0.035390
vt 0.574483 0.042831
vt 0.565618 0.048967
vt 0.574543 0.047973
vt 0.567010 0.055681
vt 0.575594 0.053007
vt 0.569705 0.062042
vt 0.577634 0.057730
vt 0.573612 0.067777
vt 0.580593 0.061978
vt 0.578558 0.072667
vt 0.584359 0.065587
vt 0.584377 0.076560
vt 0.588720 0.068487
vt 0.608465 0.068067
vt 0.622259 0.032859
vt 0.589871 0.066342
vt 0.594272 0.068147
vt 0.593242 0.022225
vt 0.620160 0.060082
vt 0.588921 0.024144
vt 0.622771 0.056001
vt 0.585030 0.026823
vt 0.624528 0.051460
vt 0.581787 0.030196
vt 0.625362 0.046648
vt 0.579282 0.034126
vt 0.625243 0.041777
vt 0.577608 0.038442
vt 0.624229 0.037157
vt 0.576830 0.043028
vt 0.576939 0.047742
vt 0.619477 0.028994
vt 0.577870 0.052298
vt 0.615992 0.025793
vt 0.598957 0.069043
vt 0.579734 0.056566
vt 0.611911 0.023328
vt 0.603765 0.068985
vt 0.582431 0.060413
vt 0.607436 0.021715
vt 0.585897 0.063668
vt 0.602717 0.021014
vt 0.597900 0.021247
vt 0.572578 0.421276
vt 0.565549 0.349558
vt 0.572578 0.349558
vt 0.790494 0.421276
vt 0.783464 0.349558
vt 0.790494 0.349558
vt 0.783464 0.421276
vt 0.776435 0.349558
vt 0.776435 0.421276
vt 0.769405 0.349558
vt 0.769405 0.421276
vt 0.762376 0.349558
vt 0.762376 0.421276
vt 0.755346 0.349558
vt 0.755346 0.421276
vt 0.748317 0.349558
vt 0.748317 0.421276
vt 0.741287 0.349558
vt 0.741287 0.421276
vt 0.734258 0.349558
vt 0.734258 0.421276
vt 0.727228 0.349558
vt 0.727228 0.421276
vt 0.720199 0.349558
vt 0.720199 0.421276
vt 0.713169 0.349558
vt 0.713169 0.421276
vt 0.706140 0.349558
vt 0.706140 0.421276
vt 0.699110 0.349558
vt 0.699110 0.421276
vt 0.692081 0.349558
vt 0.692081 0.421276
vt 0.685051 0.349558
vt 0.685051 0.421276
vt 0.678022 0.349558
vt 0.678022 0.421276
vt 0.670992 0.349558
vt 0.663962 0.421276
vt 0.663962 0.349558
vt 0.656933 0.349558
vt 0.656933 0.421276
vt 0.649903 0.349558
vt 0.649903 0.421276
vt 0.642874 0.349558
vt 0.642874 0.421276
vt 0.635844 0.349558
vt 0.628815 0.421276
vt 0.628815 0.349558
vt 0.621785 0.421276
vt 0.621785 0.349558
vt 0.614756 0.349558
vt 0.614756 0.421276
vt 0.607726 0.349558
vt 0.607726 0.421276
vt 0.600697 0.349558
vt 0.600697 0.421276
vt 0.593667 0.349558
vt 0.586637 0.421276
vt 0.586637 0.349558
vt 0.579608 0.349558
vt 0.579608 0.421276
vt 0.196681 0.568256
vt 0.268399 0.639974
vt 0.196681 0.639974
vt 0.268399 0.568256
vt 0.340116 0.639974
vt 0.340116 0.568256
vt 0.411834 0.639974
vt 0.411834 0.568256
vt 0.483551 0.639974
vt 0.411834 0.711691
vt 0.340116 0.711691
vt 0.340116 0.496539
vt 0.476513 0.798638
vt 0.447261 0.732782
vt 0.453933 0.730568
vt 0.469841 0.800851
vt 0.440589 0.734995
vt 0.463169 0.803065
vt 0.433917 0.737208
vt 0.456497 0.805278
vt 0.427245 0.739421
vt 0.449825 0.807491
vt 0.420573 0.741635
vt 0.443153 0.809704
vt 0.413901 0.743848
vt 0.436481 0.811918
vt 0.407229 0.746061
vt 0.429809 0.814131
vt 0.400556 0.748274
vt 0.423137 0.816344
vt 0.393884 0.750488
vt 0.416465 0.818558
vt 0.387212 0.752701
vt 0.409793 0.820771
vt 0.380540 0.754914
vt 0.403121 0.822984
vt 0.373868 0.757127
vt 0.396449 0.825197
vt 0.367196 0.759341
vt 0.389777 0.827411
vt 0.360524 0.761554
vt 0.383105 0.829624
vt 0.353852 0.763767
vt 0.376433 0.831837
vt 0.347180 0.765981
vt 0.369761 0.834050
vt 0.340508 0.768194
vt 0.363089 0.836264
vt 0.333836 0.770407
vt 0.356417 0.838477
vt 0.327164 0.772620
vt 0.349745 0.840690
vt 0.320492 0.774834
vt 0.343073 0.842903
vt 0.313820 0.777047
vt 0.336401 0.845117
vt 0.307148 0.779260
vt 0.323057 0.849543
vt 0.300476 0.781473
vt 0.293804 0.783687
vt 0.316385 0.851757
vt 0.287132 0.785900
vt 0.303041 0.856183
vt 0.280460 0.788113
vt 0.273788 0.790326
vt 0.296369 0.858396
vt 0.267116 0.792540
vt 0.289697 0.860610
vt 0.260444 0.794753
vt 0.283025 0.862823
vt 0.253772 0.796966
vt 0.276353 0.865036
vt 0.247100 0.799179
vt 0.269681 0.867249
vt 0.240428 0.801393
vt 0.454094 0.814469
vt 0.458412 0.808922
vt 0.465266 0.863935
vt 0.258529 0.791109
vt 0.253212 0.795707
vt 0.245392 0.732943
vt 0.724979 0.172169
vt 0.653646 0.260555
vt 0.659132 0.249749
vt 0.739730 0.330681
vt 0.643011 0.251211
vt 0.565549 0.330681
vt 0.649584 0.243751
vt 0.575420 0.172169
vt 0.177804 0.034170
vt 0.136060 0.027429
vt 0.119885 0.033849
vt 0.143554 0.023784
vt 0.124677 0.045004
vt 0.148585 0.014594
vt 0.154142 0.023264
vt 0.172849 0.045331
vt 0.137919 0.983028
vt 0.127307 0.981001
vt 0.135704 0.990561
vt 0.119885 0.983078
vt 0.117471 0.977050
vt 0.142178 0.981785
vt 0.143957 0.985329
vt 0.152123 0.979381
vt 0.139964 0.983484
vt 0.136545 0.981251
vt 0.162151 0.976706
vt 0.159841 0.982753
vt 0.161711 0.027383
vt 0.009439 0.983078
vt 0.147169 0.016688
vt 0.150139 0.009439
vt 0.151288 0.015349
vt 0.486363 0.365763
vt 0.225672 0.141736
vt 0.546672 0.051867
vt 0.196681 0.009439
vt 0.825724 0.080594
vt 0.565549 0.421276
vt 0.670992 0.421276
vt 0.635844 0.421276
vt 0.593667 0.421276
vt 0.483551 0.568256
vt 0.411834 0.496539
vt 0.329729 0.847330
vt 0.309713 0.853970
vt 0.263008 0.869463
vt 0.463729 0.804324
vt 0.485337 0.869463
vt 0.492313 0.868594
vt 0.483489 0.797769
vt 0.498985 0.866380
vt 0.490500 0.798278
vt 0.505097 0.862908
vt 0.497277 0.800144
vt 0.503560 0.803297
vt 0.510414 0.858310
vt 0.509107 0.807615
vt 0.514732 0.852763
vt 0.513705 0.812932
vt 0.517885 0.846480
vt 0.517177 0.819044
vt 0.520260 0.832692
vt 0.519390 0.825716
vt 0.519751 0.839703
vt 0.478326 0.868954
vt 0.471549 0.867088
vt 0.459719 0.859617
vt 0.455121 0.854300
vt 0.450941 0.820752
vt 0.451648 0.848188
vt 0.449074 0.827529
vt 0.449435 0.841516
vt 0.448566 0.834540
vt 0.224628 0.731437
vt 0.233452 0.802262
vt 0.217956 0.733651
vt 0.226441 0.801753
vt 0.219664 0.799887
vt 0.211844 0.737123
vt 0.213381 0.796734
vt 0.202209 0.747268
vt 0.207834 0.792416
vt 0.199056 0.753551
vt 0.203236 0.787099
vt 0.199764 0.780987
vt 0.197190 0.760328
vt 0.197551 0.774315
vt 0.196681 0.767339
vt 0.206527 0.741721
vt 0.231604 0.730568
vt 0.238615 0.731077
vt 0.251675 0.736096
vt 0.262847 0.785562
vt 0.257222 0.740414
vt 0.266000 0.779279
vt 0.261820 0.745731
vt 0.265293 0.751843
vt 0.267867 0.772502
vt 0.267506 0.758515
vt 0.268375 0.765491
vt 0.140831 0.982261
vt 0.009439 0.033849
s 1
usemtl マテリアル.004
f 2/1/1 3/2/1 1/3/1
f 8/4/2 13/5/2 4/6/2
f 8/7/3 5/8/3 7/9/3
f 6/10/4 1/11/4 5/12/4
f 7/9/5 1/3/5 3/2/5
f 4/6/6 6/10/6 8/4/6
f 11/13/3 20/14/3 12/15/3
f 3/2/1 13/5/1 14/16/1
f 7/9/3 16/17/3 8/7/3
f 3/2/7 15/18/7 7/9/7
f 10/19/8 13/5/8 9/20/8
f 11/21/9 14/22/9 10/19/9
f 9/20/9 16/23/9 12/24/9
f 12/24/8 15/25/8 11/21/8
f 10/26/10 19/27/10 11/28/10
f 9/29/11 20/14/11 17/30/11
f 10/26/1 17/30/1 18/31/1
f 20/14/3 23/32/3 24/33/3
f 22/34/12 25/35/13 26/36/14
f 18/31/15 23/37/15 19/27/15
f 20/14/16 21/38/16 17/30/16
f 17/30/1 22/34/1 18/31/1
f 25/39/17 27/40/17 26/36/17
f 23/32/18 28/41/19 24/33/20
f 23/37/21 26/36/21 27/40/21
f 24/33/22 25/35/22 21/38/22
f 94/42/23 31/43/23 29/44/23
f 93/45/24 33/46/24 31/47/24
f 95/48/25 35/49/25 33/46/25
f 96/50/26 37/51/26 35/49/26
f 97/52/27 39/53/27 37/51/27
f 98/54/28 41/55/28 39/53/28
f 99/56/29 43/57/29 41/55/29
f 100/58/30 45/59/30 43/57/30
f 101/60/31 47/61/31 45/59/31
f 102/62/32 49/63/32 47/61/32
f 103/64/33 51/65/33 49/63/33
f 104/66/34 53/67/34 51/65/34
f 105/68/35 55/69/35 53/67/35
f 106/70/36 57/71/37 55/69/37
f 107/72/38 59/73/39 57/71/39
f 108/74/40 61/75/40 59/73/40
f 109/76/41 63/77/41 61/75/41
f 110/78/42 65/79/43 63/77/43
f 111/80/44 67/81/45 65/79/45
f 112/82/46 69/83/46 67/81/46
f 113/84/47 71/85/47 69/83/47
f 114/86/48 73/87/48 71/85/48
f 115/88/49 75/89/49 73/87/49
f 116/90/50 77/91/50 75/89/50
f 117/92/51 79/93/51 77/91/51
f 118/94/52 81/95/52 79/93/52
f 119/96/53 83/97/53 81/95/53
f 120/98/54 85/99/54 83/97/54
f 121/100/55 87/101/55 85/99/55
f 122/102/56 89/103/56 87/101/56
f 123/104/57 91/105/57 89/103/57
f 124/106/58 29/44/58 91/105/58
f 40/107/59 129/108/59 130/109/59
f 32/110/60 94/111/4 30/112/4
f 34/113/60 93/45/4 32/110/60
f 36/114/4 95/48/60 34/113/60
f 38/115/4 96/116/4 36/114/4
f 40/107/4 97/117/60 38/115/4
f 42/118/4 98/119/4 40/107/4
f 44/120/4 99/121/4 42/118/4
f 46/122/4 100/123/4 44/120/4
f 46/122/4 102/124/4 101/125/4
f 48/126/4 103/127/4 102/124/4
f 50/128/4 104/129/4 103/127/4
f 52/130/4 105/131/60 104/129/4
f 54/132/4 106/133/4 105/131/60
f 56/134/60 107/135/4 106/133/4
f 58/136/61 108/137/4 107/135/4
f 60/138/60 109/139/4 108/137/4
f 64/140/4 109/139/4 62/141/4
f 66/142/4 110/143/4 64/140/4
f 68/144/4 111/145/60 66/142/4
f 70/146/4 112/147/4 68/144/4
f 72/148/4 113/149/4 70/146/4
f 74/150/4 114/151/4 72/148/4
f 76/152/4 115/153/60 74/150/4
f 78/154/60 116/155/60 76/152/4
f 78/154/60 118/156/60 117/157/4
f 80/158/60 119/159/4 118/156/60
f 82/160/4 120/161/4 119/159/4
f 84/162/60 121/163/4 120/161/4
f 86/164/60 122/165/4 121/163/4
f 88/166/60 123/167/4 122/165/4
f 90/168/4 124/169/60 123/167/4
f 92/170/4 94/111/4 124/169/60
f 129/108/61 128/171/60 137/172/4
f 30/112/62 156/173/62 126/174/62
f 66/142/25 144/175/25 68/144/25
f 42/118/48 130/109/48 131/176/48
f 68/144/26 145/177/26 70/146/26
f 44/120/63 131/176/63 132/178/63
f 70/146/27 146/179/27 72/148/27
f 44/120/64 133/180/64 46/122/64
f 72/148/28 147/181/28 74/150/28
f 46/122/51 134/182/51 48/126/51
f 74/150/65 148/183/65 76/152/65
f 48/126/52 135/184/52 50/128/52
f 76/152/66 149/185/66 78/154/66
f 50/128/53 136/186/53 52/130/53
f 80/158/31 149/185/31 150/187/31
f 52/130/54 137/172/67 54/132/54
f 82/160/32 150/187/32 151/188/32
f 54/132/55 138/189/55 56/134/55
f 84/162/33 151/188/33 152/190/33
f 56/134/56 139/191/56 58/136/56
f 32/110/68 126/174/68 125/192/68
f 86/164/69 152/190/70 153/193/70
f 58/136/57 140/194/57 60/138/57
f 34/113/71 125/192/71 127/195/71
f 88/166/35 153/193/35 154/196/35
f 60/138/72 141/197/72 62/141/72
f 36/114/45 127/195/45 128/171/45
f 90/168/37 154/196/37 155/198/37
f 62/141/73 142/199/73 64/140/73
f 38/115/46 128/171/46 129/108/46
f 92/170/38 155/198/38 156/173/38
f 64/140/74 143/200/74 66/142/74
f 158/201/23 159/202/23 157/203/23
f 160/204/74 161/205/74 159/206/74
f 162/207/75 163/208/75 161/205/75
f 164/209/76 165/210/76 163/208/76
f 166/211/77 167/212/77 165/210/77
f 168/213/78 169/214/78 167/212/78
f 170/215/65 171/216/65 169/214/65
f 172/217/30 173/218/30 171/216/30
f 174/219/31 175/220/31 173/218/31
f 176/221/79 177/222/79 175/220/79
f 178/223/80 179/224/80 177/222/80
f 180/225/69 181/226/69 179/224/69
f 182/227/81 183/228/81 181/226/81
f 184/229/36 185/230/36 183/228/36
f 186/231/38 187/232/38 185/230/38
f 188/233/62 189/234/62 187/232/62
f 190/235/41 191/236/41 189/234/41
f 192/237/43 193/238/43 191/236/43
f 193/238/45 196/239/45 195/240/45
f 196/239/46 197/241/46 195/240/46
f 198/242/47 199/243/47 197/241/47
f 200/244/82 201/245/82 199/243/82
f 202/246/63 203/247/63 201/245/63
f 203/247/50 206/248/50 205/249/50
f 205/249/51 208/250/51 207/251/51
f 208/250/52 209/252/52 207/251/52
f 210/253/83 211/254/83 209/252/83
f 212/255/54 213/256/54 211/254/54
f 214/257/55 215/258/55 213/256/55
f 215/258/84 218/259/84 217/260/84
f 218/259/85 219/261/85 217/260/85
f 220/262/72 157/203/72 219/261/72
f 222/263/1 223/264/1 221/265/1
f 224/266/86 227/267/86 223/264/86
f 228/268/3 225/269/3 227/267/3
f 226/270/4 221/271/4 225/269/4
f 227/267/5 221/272/5 223/273/5
f 224/274/6 226/270/6 228/268/6
f 230/275/23 231/276/23 229/277/23
f 232/278/74 233/279/74 231/276/74
f 234/280/25 235/281/25 233/279/25
f 236/282/26 237/283/26 235/281/26
f 238/284/77 239/285/77 237/283/87
f 240/286/88 241/287/78 239/285/78
f 242/288/65 243/289/65 241/287/65
f 244/290/30 245/291/30 243/289/30
f 246/292/31 247/293/31 245/291/31
f 248/294/32 249/295/32 247/293/32
f 250/296/80 251/297/89 249/295/89
f 252/298/69 253/299/69 251/297/69
f 254/300/81 255/301/81 253/299/81
f 256/302/37 257/303/37 255/301/37
f 258/304/39 259/305/39 257/303/39
f 260/306/90 261/307/90 259/305/90
f 262/308/91 263/309/91 261/307/91
f 264/310/43 265/311/43 263/309/43
f 266/312/45 267/313/45 265/311/45
f 268/314/92 269/315/92 267/313/92
f 270/316/93 271/317/94 269/315/94
f 272/318/95 273/319/95 271/317/95
f 273/319/63 276/320/63 275/321/63
f 276/320/96 277/322/96 275/321/96
f 278/323/97 279/324/97 277/322/97
f 279/324/52 282/325/52 281/326/52
f 282/325/98 283/327/98 281/326/98
f 284/328/67 285/329/67 283/327/67
f 286/330/55 287/331/55 285/329/55
f 288/332/56 289/333/56 287/331/56
f 290/334/99 291/335/99 289/333/99
f 292/336/100 229/337/100 291/335/100
f 238/338/61 236/339/60 254/340/4
f 287/341/86 289/342/86 267/343/86
f 294/344/3 295/345/3 293/346/3
f 296/347/86 299/348/86 295/345/86
f 300/349/1 297/350/1 299/348/1
f 298/351/4 293/346/4 297/350/4
f 299/348/6 293/346/6 295/345/6
f 318/352/101 304/353/101 317/354/101
f 317/354/3 302/355/3 319/356/3
f 304/353/3 324/357/3 302/355/3
f 319/356/102 301/358/102 320/359/102
f 306/360/3 313/361/3 305/362/3
f 314/363/3 319/356/3 307/364/3
f 312/365/1 309/366/1 315/367/1
f 310/368/4 305/362/4 309/366/4
f 315/367/6 305/362/6 313/361/6
f 314/363/86 313/361/86 308/369/86
f 311/370/86 313/361/86 307/364/86
f 314/363/86 312/365/86 316/371/86
f 316/371/86 315/367/86 311/370/86
f 318/352/1 301/358/1 303/372/1
f 311/370/1 318/352/1 316/371/1
f 307/364/6 320/359/6 311/370/6
f 316/373/5 317/354/5 314/363/5
f 303/372/103 321/374/103 304/353/103
f 302/355/104 323/375/104 301/358/104
f 303/372/1 323/375/1 322/376/1
f 2/1/1 4/6/1 3/2/1
f 8/4/2 16/23/2 13/5/2
f 8/7/3 6/377/3 5/8/3
f 6/10/4 2/1/4 1/11/4
f 7/9/5 5/8/5 1/3/5
f 4/6/6 2/1/6 6/10/6
f 11/13/3 19/378/3 20/14/3
f 3/2/1 4/6/1 13/5/1
f 7/9/3 15/18/3 16/17/3
f 3/2/7 14/16/7 15/18/7
f 10/19/105 14/22/105 13/5/105
f 11/21/9 15/25/9 14/22/9
f 9/20/9 13/5/9 16/23/9
f 12/24/105 16/23/105 15/25/105
f 10/26/10 18/31/10 19/27/10
f 9/29/11 12/15/11 20/14/11
f 10/26/1 9/29/1 17/30/1
f 20/14/3 19/378/3 23/32/3
f 22/34/12 21/38/106 25/35/13
f 18/31/15 22/34/15 23/37/15
f 20/14/16 24/33/16 21/38/16
f 17/30/1 21/38/1 22/34/1
f 25/39/17 28/379/17 27/40/17
f 23/32/18 27/380/107 28/41/19
f 23/37/21 22/34/21 26/36/21
f 24/33/22 28/41/22 25/35/22
f 94/42/23 93/381/23 31/43/23
f 93/45/24 95/48/24 33/46/24
f 95/48/25 96/50/25 35/49/25
f 96/50/26 97/52/26 37/51/26
f 97/52/27 98/54/27 39/53/27
f 98/54/28 99/56/28 41/55/28
f 99/56/29 100/58/29 43/57/29
f 100/58/30 101/60/30 45/59/30
f 101/60/31 102/62/31 47/61/31
f 102/62/32 103/64/32 49/63/32
f 103/64/33 104/66/33 51/65/33
f 104/66/34 105/68/34 53/67/34
f 105/68/35 106/70/35 55/69/35
f 106/70/36 107/72/36 57/71/37
f 107/72/38 108/74/38 59/73/39
f 108/74/40 109/76/40 61/75/40
f 109/76/41 110/78/41 63/77/41
f 110/78/42 111/80/42 65/79/43
f 111/80/44 112/82/44 67/81/45
f 112/82/46 113/84/46 69/83/46
f 113/84/47 114/86/47 71/85/47
f 114/86/48 115/88/48 73/87/48
f 115/88/49 116/90/49 75/89/49
f 116/90/50 117/92/50 77/91/50
f 117/92/51 118/94/51 79/93/51
f 118/94/52 119/96/52 81/95/52
f 119/96/53 120/98/53 83/97/53
f 120/98/54 121/100/54 85/99/54
f 121/100/55 122/102/55 87/101/55
f 122/102/56 123/104/56 89/103/56
f 123/104/57 124/106/57 91/105/57
f 124/106/58 94/42/58 29/44/58
f 40/107/59 38/115/59 129/108/59
f 32/110/60 93/45/4 94/111/4
f 34/113/60 95/48/60 93/45/4
f 36/114/4 96/116/4 95/48/60
f 38/115/4 97/117/60 96/116/4
f 40/107/4 98/119/4 97/117/60
f 42/118/4 99/121/4 98/119/4
f 44/120/4 100/123/4 99/121/4
f 46/122/4 101/125/4 100/123/4
f 46/122/4 48/126/4 102/124/4
f 48/126/4 50/128/4 103/127/4
f 50/128/4 52/130/4 104/129/4
f 52/130/4 54/132/4 105/131/60
f 54/132/4 56/134/60 106/133/4
f 56/134/60 58/136/61 107/135/4
f 58/136/61 60/138/60 108/137/4
f 60/138/60 62/141/4 109/139/4
f 64/140/4 110/143/4 109/139/4
f 66/142/4 111/145/60 110/143/4
f 68/144/4 112/147/4 111/145/60
f 70/146/4 113/149/4 112/147/4
f 72/148/4 114/151/4 113/149/4
f 74/150/4 115/153/60 114/151/4
f 76/152/4 116/155/60 115/153/60
f 78/154/60 117/157/4 116/155/60
f 78/154/60 80/158/60 118/156/60
f 80/158/60 82/160/4 119/159/4
f 82/160/4 84/162/60 120/161/4
f 84/162/60 86/164/60 121/163/4
f 86/164/60 88/166/60 122/165/4
f 88/166/60 90/168/4 123/167/4
f 90/168/4 92/170/4 124/169/60
f 92/170/4 30/112/4 94/111/4
f 127/195/4 125/192/4 140/194/4
f 125/192/4 126/174/4 141/197/60
f 126/174/4 156/173/4 142/199/60
f 156/173/4 155/198/60 143/200/60
f 155/198/60 154/196/4 143/200/60
f 154/196/4 153/193/60 144/175/4
f 143/200/60 154/196/4 144/175/4
f 153/193/60 152/190/61 145/177/4
f 152/190/61 151/188/4 146/179/4
f 145/177/4 152/190/61 146/179/4
f 151/188/4 150/187/60 147/181/60
f 150/187/60 149/185/108 148/183/108
f 147/181/60 150/187/60 148/183/108
f 147/181/60 146/179/4 151/188/4
f 145/177/4 144/175/4 153/193/60
f 143/200/60 142/199/60 156/173/4
f 142/199/60 141/197/60 126/174/4
f 141/197/60 140/194/4 125/192/4
f 140/194/4 139/191/4 127/195/4
f 139/191/4 138/189/61 127/195/4
f 138/189/61 137/172/4 128/171/60
f 127/195/4 138/189/61 128/171/60
f 137/172/4 136/186/4 129/108/61
f 136/186/4 135/184/4 130/109/4
f 129/108/61 136/186/4 130/109/4
f 135/184/4 134/182/109 132/178/4
f 134/182/109 133/180/110 132/178/4
f 132/178/4 131/176/4 135/184/4
f 131/176/4 130/109/4 135/184/4
f 30/112/62 92/170/62 156/173/62
f 66/142/25 143/200/25 144/175/25
f 42/118/48 40/107/48 130/109/48
f 68/144/26 144/175/26 145/177/26
f 44/120/63 42/118/63 131/176/63
f 70/146/27 145/177/27 146/179/27
f 44/120/64 132/178/64 133/180/64
f 72/148/28 146/179/28 147/181/28
f 46/122/51 133/180/51 134/182/51
f 74/150/65 147/181/65 148/183/65
f 48/126/52 134/182/52 135/184/52
f 76/152/66 148/183/66 149/185/66
f 50/128/53 135/184/53 136/186/53
f 80/158/31 78/154/31 149/185/31
f 52/130/54 136/186/67 137/172/67
f 82/160/32 80/158/32 150/187/32
f 54/132/55 137/172/55 138/189/55
f 84/162/33 82/160/33 151/188/33
f 56/134/56 138/189/56 139/191/56
f 32/110/68 30/112/68 126/174/68
f 86/164/69 84/162/69 152/190/70
f 58/136/57 139/191/57 140/194/57
f 34/113/71 32/110/71 125/192/71
f 88/166/35 86/164/35 153/193/35
f 60/138/72 140/194/72 141/197/72
f 36/114/45 34/113/45 127/195/45
f 90/168/37 88/166/37 154/196/37
f 62/141/73 141/197/73 142/199/73
f 38/115/46 36/114/46 128/171/46
f 92/170/38 90/168/38 155/198/38
f 64/140/74 142/199/74 143/200/74
f 158/201/23 160/382/23 159/202/23
f 160/204/74 162/207/74 161/205/74
f 162/207/75 164/209/75 163/208/75
f 164/209/76 166/211/76 165/210/76
f 166/211/77 168/213/77 167/212/77
f 168/213/78 170/215/78 169/214/78
f 170/215/65 172/217/65 171/216/65
f 172/217/30 174/219/30 173/218/30
f 174/219/31 176/221/31 175/220/31
f 176/221/79 178/223/79 177/222/79
f 178/223/80 180/225/80 179/224/80
f 180/225/69 182/227/69 181/226/69
f 182/227/81 184/229/81 183/228/81
f 184/229/36 186/231/36 185/230/36
f 186/231/38 188/233/38 187/232/38
f 188/233/62 190/235/62 189/234/62
f 190/235/41 192/237/41 191/236/41
f 192/237/43 194/383/43 193/238/43
f 193/238/45 194/383/45 196/239/45
f 196/239/46 198/242/46 197/241/46
f 198/242/47 200/244/47 199/243/47
f 200/244/82 202/246/82 201/245/82
f 202/246/63 204/384/63 203/247/63
f 203/247/50 204/384/50 206/248/50
f 205/249/51 206/248/51 208/250/51
f 208/250/52 210/253/52 209/252/52
f 210/253/83 212/255/83 211/254/83
f 212/255/54 214/257/54 213/256/54
f 214/257/55 216/385/55 215/258/55
f 215/258/84 216/385/84 218/259/84
f 218/259/85 220/262/85 219/261/85
f 220/262/72 158/201/72 157/203/72
f 222/263/1 224/266/1 223/264/1
f 224/266/86 228/268/86 227/267/86
f 228/268/3 226/270/3 225/269/3
f 226/270/4 222/386/4 221/271/4
f 227/267/5 225/269/5 221/272/5
f 224/274/6 222/387/6 226/270/6
f 230/275/23 232/278/23 231/276/23
f 232/278/74 234/280/74 233/279/74
f 234/280/25 236/282/25 235/281/25
f 236/282/26 238/284/26 237/283/26
f 238/284/77 240/286/87 239/285/77
f 240/286/88 242/288/78 241/287/78
f 242/288/65 244/290/65 243/289/65
f 244/290/30 246/292/30 245/291/30
f 246/292/31 248/294/31 247/293/31
f 248/294/32 250/296/32 249/295/32
f 250/296/80 252/298/80 251/297/89
f 252/298/69 254/300/69 253/299/69
f 254/300/81 256/302/81 255/301/81
f 256/302/37 258/304/37 257/303/37
f 258/304/39 260/306/39 259/305/39
f 260/306/90 262/308/90 261/307/90
f 262/308/91 264/310/91 263/309/91
f 264/310/43 266/312/43 265/311/43
f 266/312/45 268/314/45 267/313/45
f 268/314/92 270/316/92 269/315/92
f 270/316/93 272/318/93 271/317/94
f 272/318/95 274/388/95 273/319/95
f 273/319/63 274/388/63 276/320/63
f 276/320/96 278/323/96 277/322/96
f 278/323/97 280/389/97 279/324/97
f 279/324/52 280/389/52 282/325/52
f 282/325/98 284/328/98 283/327/98
f 284/328/67 286/330/67 285/329/67
f 286/330/55 288/332/55 287/331/55
f 288/332/56 290/334/56 289/333/56
f 290/334/99 292/336/99 291/335/99
f 292/336/100 230/390/100 229/337/100
f 234/391/4 232/278/4 260/392/4
f 232/278/4 230/275/4 262/393/4
f 230/275/4 292/394/4 264/395/4
f 292/394/4 290/396/4 266/397/60
f 290/396/4 288/398/4 266/397/60
f 288/398/4 286/399/61 268/400/60
f 266/397/60 288/398/4 268/400/60
f 286/399/61 284/401/60 270/402/4
f 284/401/60 282/403/61 272/404/4
f 270/402/4 284/401/60 272/404/4
f 282/403/61 280/405/108 276/406/4
f 280/405/108 278/407/4 276/406/4
f 276/406/4 274/408/4 282/403/61
f 274/408/4 272/404/4 282/403/61
f 270/402/4 268/400/60 286/399/61
f 266/397/60 264/395/4 292/394/4
f 264/395/4 262/393/4 230/275/4
f 262/393/4 260/392/4 232/278/4
f 260/392/4 258/409/4 234/391/4
f 258/409/4 256/410/4 234/391/4
f 256/410/4 254/340/4 236/339/60
f 234/391/4 256/410/4 236/339/60
f 254/340/4 252/411/4 238/338/61
f 252/411/4 250/412/4 240/413/61
f 238/338/61 252/411/4 240/413/61
f 250/412/4 248/414/4 242/415/4
f 248/414/4 246/416/4 244/417/109
f 242/415/4 248/414/4 244/417/109
f 242/415/4 240/413/61 250/412/4
f 291/335/111 229/337/111 261/418/86
f 229/337/111 231/419/86 259/420/86
f 231/419/86 233/421/111 259/420/86
f 233/421/111 235/422/112 257/423/86
f 259/420/86 233/421/111 257/423/86
f 235/422/112 237/424/111 253/425/86
f 237/424/111 239/426/86 251/427/86
f 239/426/86 241/428/86 251/427/86
f 241/428/86 243/429/86 249/430/86
f 251/427/86 241/428/86 249/430/86
f 243/429/86 245/431/86 247/432/86
f 247/432/86 249/430/86 243/429/86
f 251/427/86 253/425/86 237/424/111
f 253/425/86 255/433/86 235/422/112
f 255/433/86 257/423/86 235/422/112
f 259/420/86 261/418/86 229/337/111
f 261/418/86 263/434/86 291/335/111
f 263/434/86 265/435/86 291/335/111
f 265/435/86 267/343/86 289/342/86
f 291/335/111 265/435/86 289/342/86
f 267/343/86 269/436/86 285/437/112
f 269/436/86 271/438/111 283/439/86
f 271/438/111 273/440/112 283/439/86
f 273/440/112 275/441/112 281/442/86
f 283/439/86 273/440/112 281/442/86
f 275/441/112 277/443/86 279/444/86
f 279/444/86 281/442/86 275/441/112
f 283/439/86 285/437/112 269/436/86
f 285/437/112 287/341/86 267/343/86
f 294/344/3 296/347/3 295/345/3
f 296/347/86 300/349/86 299/348/86
f 300/349/1 298/351/1 297/350/1
f 298/351/4 294/344/4 293/346/4
f 299/348/6 297/350/6 293/346/6
f 318/352/101 303/372/101 304/353/101
f 317/354/3 304/353/3 302/355/3
f 304/353/3 321/374/3 324/357/3
f 319/356/102 302/355/102 301/358/102
f 306/360/3 308/369/3 313/361/3
f 314/363/3 317/354/3 319/356/3
f 312/365/1 310/445/1 309/366/1
f 310/368/4 306/360/4 305/362/4
f 315/367/6 309/366/6 305/362/6
f 314/363/86 307/364/86 313/361/86
f 311/370/86 315/367/86 313/361/86
f 314/363/86 308/369/86 312/365/86
f 316/371/86 312/365/86 315/367/86
f 318/352/1 320/359/1 301/358/1
f 311/370/1 320/359/1 318/352/1
f 307/364/6 319/356/6 320/359/6
f 316/373/5 318/446/5 317/354/5
f 303/372/103 322/376/103 321/374/103
f 302/355/104 324/357/104 323/375/104
f 303/372/1 301/358/1 323/375/1
