# Blender 4.5.3 LTS
# www.blender.org
mtllib tombstone.mtl
o Cube
v -0.750000 -0.200000 0.500000
v -0.750000 0.200000 0.500000
v -0.750000 -0.200000 -0.500000
v -0.750000 0.200000 -0.500000
v 0.750000 -0.200000 0.500000
v 0.750000 0.200000 0.500000
v 0.750000 -0.200000 -0.500000
v 0.750000 0.200000 -0.500000
vn -1.0000 -0.0000 -0.0000
vn -0.0000 -0.0000 -1.0000
vn 1.0000 -0.0000 -0.0000
vn -0.0000 -0.0000 1.0000
vn -0.0000 -1.0000 -0.0000
vn -0.0000 1.0000 -0.0000
vt 0.625000 0.000000
vt 0.375000 0.250000
vt 0.375000 0.000000
vt 0.625000 0.250000
vt 0.375000 0.500000
vt 0.625000 0.500000
vt 0.375000 0.750000
vt 0.625000 0.750000
vt 0.375000 1.000000
vt 0.125000 0.750000
vt 0.125000 0.500000
vt 0.875000 0.500000
vt 0.625000 1.000000
vt 0.875000 0.750000
s 1
usemtl Material.004
f 2/1/1 3/2/1 1/3/1
f 4/4/2 7/5/2 3/2/2
f 8/6/3 5/7/3 7/5/3
f 6/8/4 1/9/4 5/7/4
f 7/5/5 1/10/5 3/11/5
f 4/12/6 6/8/6 8/6/6
f 2/1/1 4/4/1 3/2/1
f 4/4/2 8/6/2 7/5/2
f 8/6/3 6/8/3 5/7/3
f 6/8/4 2/13/4 1/9/4
f 7/5/5 5/7/5 1/10/5
f 4/12/6 2/14/6 6/8/6
o Cube.001
v -0.375000 0.185114 0.125000
v -0.375000 1.585114 0.125000
v -0.375000 0.185114 -0.125000
v -0.375000 1.585114 -0.125000
v 0.375000 0.185114 0.125000
v 0.375000 1.585114 0.125000
v 0.375000 0.185114 -0.125000
v 0.375000 1.585114 -0.125000
v -0.457176 0.031719 0.000000
v -0.457176 0.885114 0.152392
v -0.457176 1.738509 0.000000
v -0.457176 0.885114 -0.152392
v 0.000000 0.031719 -0.152392
v 0.000000 1.738509 -0.152392
v 0.457176 0.885114 -0.152392
v 0.457176 0.031719 0.000000
v 0.457176 1.738509 0.000000
v 0.457176 0.885114 0.152392
v 0.000000 0.031719 0.152392
v 0.000000 1.738509 0.152392
v -0.629629 0.885114 0.000000
v 0.000000 0.885114 -0.209876
v 0.629629 0.885114 0.000000
v 0.000000 0.885114 0.209877
v 0.000000 0.054344 0.000000
v 0.000000 1.848073 0.000000
vn -0.7331 -0.1481 0.6638
vn -0.6584 0.1065 0.7451
vn -0.6584 0.1065 -0.7451
vn -0.7331 -0.1481 -0.6638
vn -0.0999 -0.0669 -0.9928
vn -0.1246 0.0534 -0.9908
vn 0.1246 0.0534 -0.9908
vn 0.0999 -0.0669 -0.9928
vn 0.7331 -0.1481 -0.6638
vn 0.6584 0.1065 -0.7451
vn 0.6584 0.1065 0.7451
vn 0.7331 -0.1481 0.6638
vn 0.0999 -0.0669 0.9928
vn 0.1246 0.0534 0.9908
vn -0.1246 0.0534 0.9908
vn -0.0999 -0.0669 0.9928
vn 0.0317 -0.6416 -0.7664
vn 0.3665 -0.9203 0.1366
vn 0.3665 -0.9203 -0.1366
vn 0.0317 -0.6416 0.7664
vn 0.1389 0.5798 -0.8028
vn -0.3509 0.7603 -0.5466
vn -0.3509 0.7603 0.5466
vn 0.1389 0.5798 0.8028
vn -0.6584 -0.1065 0.7451
vn -0.7331 0.1481 0.6638
vn -0.7331 0.1481 -0.6638
vn -0.6584 -0.1065 -0.7451
vn -0.1246 -0.0534 -0.9908
vn -0.0999 0.0669 -0.9928
vn 0.0999 0.0669 -0.9928
vn 0.1246 -0.0534 -0.9908
vn 0.6584 -0.1065 -0.7451
vn 0.7331 0.1481 -0.6638
vn 0.7331 0.1481 0.6638
vn 0.6584 -0.1065 0.7451
vn 0.1246 -0.0534 0.9908
vn 0.0999 0.0669 0.9928
vn -0.0999 0.0669 0.9928
vn -0.1246 -0.0534 0.9908
vn -0.3665 -0.9203 0.1366
vn -0.0317 -0.6416 -0.7664
vn -0.0317 -0.6416 0.7664
vn -0.3665 -0.9203 -0.1366
vn 0.3509 0.7603 -0.5466
vn -0.1389 0.5798 -0.8028
vn -0.1389 0.5798 0.8028
vn 0.3509 0.7603 0.5466
vt 0.375000 0.000000
vt 0.500000 0.125000
vt 0.375000 0.125000
vt 0.625000 0.000000
vt 0.500000 0.000000
vt 0.625000 0.250000
vt 0.500000 0.250000
vt 0.375000 0.250000
vt 0.500000 0.375000
vt 0.375000 0.375000
vt 0.625000 0.500000
vt 0.500000 0.500000
vt 0.375000 0.500000
vt 0.500000 0.625000
vt 0.375000 0.625000
vt 0.625000 0.750000
vt 0.500000 0.750000
vt 0.375000 0.750000
vt 0.500000 0.875000
vt 0.375000 0.875000
vt 0.625000 1.000000
vt 0.500000 1.000000
vt 0.375000 1.000000
vt 0.125000 0.500000
vt 0.250000 0.625000
vt 0.125000 0.625000
vt 0.250000 0.500000
vt 0.250000 0.750000
vt 0.125000 0.750000
vt 0.750000 0.625000
vt 0.625000 0.625000
vt 0.875000 0.500000
vt 0.750000 0.500000
vt 0.875000 0.750000
vt 0.750000 0.750000
vt 0.625000 0.125000
vt 0.625000 0.375000
vt 0.625000 0.875000
vt 0.875000 0.625000
s 1
usemtl Material.005
f 9/15/7 29/16/7 17/17/7
f 10/18/8 29/16/8 18/19/8
f 29/16/9 12/20/9 20/21/9
f 29/16/10 11/22/10 17/17/10
f 11/22/11 30/23/11 21/24/11
f 12/20/12 30/23/12 20/21/12
f 30/23/13 16/25/13 23/26/13
f 30/23/14 15/27/14 21/24/14
f 15/27/15 31/28/15 24/29/15
f 16/25/16 31/28/16 23/26/16
f 31/28/17 14/30/17 26/31/17
f 31/28/18 13/32/18 24/29/18
f 13/32/19 32/33/19 27/34/19
f 14/30/20 32/33/20 26/31/20
f 32/33/21 10/35/21 18/36/21
f 32/33/22 9/37/22 27/34/22
f 11/38/23 33/39/23 17/40/23
f 15/27/24 33/39/24 21/41/24
f 33/39/25 13/32/25 27/42/25
f 33/39/26 9/43/26 17/40/26
f 16/25/27 34/44/27 25/45/27
f 12/46/28 34/44/28 22/47/28
f 34/44/29 10/48/29 28/49/29
f 34/44/30 14/30/30 25/45/30
f 9/15/31 18/19/31 29/16/31
f 10/18/32 19/50/32 29/16/32
f 29/16/33 19/50/33 12/20/33
f 29/16/34 20/21/34 11/22/34
f 11/22/35 20/21/35 30/23/35
f 12/20/36 22/51/36 30/23/36
f 30/23/37 22/51/37 16/25/37
f 30/23/38 23/26/38 15/27/38
f 15/27/39 23/26/39 31/28/39
f 16/25/40 25/45/40 31/28/40
f 31/28/41 25/45/41 14/30/41
f 31/28/42 26/31/42 13/32/42
f 13/32/43 26/31/43 32/33/43
f 14/30/44 28/52/44 32/33/44
f 32/33/45 28/52/45 10/35/45
f 32/33/46 18/36/46 9/37/46
f 11/38/47 21/41/47 33/39/47
f 15/27/48 24/29/48 33/39/48
f 33/39/49 24/29/49 13/32/49
f 33/39/50 27/42/50 9/43/50
f 16/25/51 22/47/51 34/44/51
f 12/46/52 19/53/52 34/44/52
f 34/44/53 19/53/53 10/48/53
f 34/44/54 28/49/54 14/30/54
