# Blender 4.4.1
# www.blender.org
mtllib tyoutinEnemy.mtl
o TyoutinEnemy
v -0.283636 -0.468026 0.148933
v -0.283636 -0.246322 -0.356697
v 0.283636 -0.468026 0.148933
v 0.283636 -0.246322 -0.356697
v -0.325009 -0.330978 -0.277224
v -0.345791 -0.416625 -0.138957
v -0.325009 -0.462516 0.022766
v -0.325009 -0.373858 0.250907
v -0.345791 -0.221018 0.364395
v -0.325009 -0.119814 -0.328476
v 0.168281 -0.269725 -0.416921
v 0.000000 -0.281481 -0.447172
v -0.168281 -0.269725 -0.416921
v 0.325009 -0.119814 -0.328476
v 0.325009 -0.462516 0.022766
v 0.345791 -0.416625 -0.138957
v 0.325009 -0.330978 -0.277224
v 0.345791 -0.221018 0.364395
v 0.325009 -0.373858 0.250907
v -0.168281 -0.523769 0.162462
v 0.000000 -0.551769 0.169258
v 0.168281 -0.523769 0.162462
v -0.413536 -0.327514 0.114829
v -0.443510 -0.159733 0.224625
v -0.443510 -0.266636 -0.050466
v -0.413536 -0.187327 -0.204888
v -0.179347 -0.095800 -0.413628
v 0.000000 -0.093301 -0.445782
v 0.179347 -0.095800 -0.413628
v 0.413536 -0.187327 -0.204888
v 0.443510 -0.266636 -0.050466
v 0.413536 -0.327514 0.114829
v 0.443510 -0.188303 0.220116
v 0.179347 -0.419041 0.323569
v 0.188981 -0.259209 0.451495
v 0.000000 -0.439971 0.344849
v 0.000000 -0.271997 0.480658
v -0.179347 -0.419041 0.323569
v -0.188981 -0.259209 0.451495
v -0.202751 -0.438760 -0.376688
v 0.000000 -0.436235 -0.387223
v 0.202751 -0.438760 -0.376688
v -0.213642 -0.510094 -0.196796
v -0.202751 -0.517573 -0.410764
v 0.213642 -0.510094 -0.196796
v -0.202751 -0.578947 -0.015250
v 0.000000 -0.583953 -0.006370
v 0.202751 -0.578947 -0.015250
v 0.000000 -0.514905 -0.421299
v 0.202751 -0.517573 -0.410764
v -0.213642 -0.592948 -0.230873
v 0.213642 -0.592948 -0.230873
v -0.202751 -0.665701 -0.049326
v 0.000000 -0.670990 -0.040446
v 0.202751 -0.665701 -0.049326
v -0.283636 0.399169 0.193744
v -0.283636 0.278712 -0.356051
v 0.283636 0.399168 0.193744
v 0.283636 0.278712 -0.356051
v -0.345791 0.117370 0.340948
v -0.325009 0.287978 0.269210
v -0.325009 0.417704 0.069258
v -0.345791 0.403585 -0.100211
v -0.325009 0.346237 -0.256935
v -0.325009 0.149951 -0.360781
v -0.345791 -0.029483 -0.329327
v -0.168281 0.312957 -0.408834
v 0.000000 0.330158 -0.435348
v 0.168281 0.312956 -0.408834
v 0.325009 0.149951 -0.360781
v 0.345791 -0.029483 -0.329327
v 0.325009 0.346237 -0.256935
v 0.345791 0.403585 -0.100211
v 0.325009 0.417703 0.069258
v 0.325009 0.287978 0.269210
v 0.345791 0.117370 0.340948
v 0.207140 0.450984 0.256785
v 0.000000 0.477011 0.257981
v -0.207140 0.450984 0.256785
v -0.443510 0.084072 0.188970
v -0.413536 0.268557 0.124644
v -0.476229 0.043943 0.005811
v -0.443510 0.240494 -0.052132
v -0.443510 0.003814 -0.177348
v -0.413536 0.192391 -0.223000
v -0.188981 -0.050233 -0.424035
v -0.179347 0.142662 -0.449973
v 0.000000 -0.057181 -0.455745
v 0.000000 0.146317 -0.481977
v 0.188981 -0.050233 -0.424035
v 0.179347 0.142662 -0.449973
v 0.443510 0.003814 -0.177348
v 0.413536 0.192391 -0.223000
v 0.476229 0.043943 0.005811
v 0.443510 0.240494 -0.052132
v 0.443510 0.084072 0.188970
v 0.413536 0.268557 0.124644
v 0.232620 0.138119 0.435656
v 0.220761 0.318286 0.351617
v 0.000000 0.145067 0.467367
v 0.000000 0.334670 0.357433
v -0.232620 0.138119 0.435656
v -0.220761 0.318286 0.351617
v 0.202751 0.465837 -0.320596
v 0.000000 0.465088 -0.331584
v -0.202751 0.465837 -0.320596
v 0.213642 0.505217 -0.124524
v 0.202751 0.550426 -0.338944
v -0.213642 0.505217 -0.124524
v 0.202751 0.542003 0.072412
v 0.000000 0.545346 0.082536
v -0.202751 0.542003 0.072412
v 0.000000 0.549635 -0.349932
v -0.202751 0.550426 -0.338944
v 0.213642 0.592037 -0.142872
v -0.213642 0.592037 -0.142872
v 0.202751 0.630907 0.054064
v -0.202751 0.630907 0.054064
v 0.000000 0.634439 0.064188
vn 0.5251 -0.1287 -0.8412
vn 0.1674 -0.2600 -0.9510
vn 0.1686 -0.2554 -0.9520
vn 0.1691 -0.2533 -0.9525
vn -0.7425 -0.6341 0.2158
vn -0.8229 -0.4067 0.3969
vn -0.8229 -0.4067 0.3968
vn 0.9934 -0.1104 0.0320
vn -0.8106 -0.1381 -0.5691
vn -0.8657 -0.3567 -0.3512
vn -0.8657 -0.3567 -0.3511
vn -0.8481 -0.5283 -0.0409
vn -0.8480 -0.5283 -0.0409
vn -0.1674 -0.2600 -0.9510
vn -0.1686 -0.2554 -0.9520
vn -0.1668 -0.2622 -0.9505
vn -0.4475 -0.2880 -0.8467
vn -0.4648 -0.0128 -0.8853
vn -0.9685 -0.2320 0.0902
vn 0.8453 -0.0560 -0.5313
vn 0.4648 -0.0128 -0.8853
vn 0.1765 0.0073 -0.9843
vn 0.1764 0.0073 -0.9843
vn -0.1765 0.0073 -0.9843
vn -0.1764 0.0073 -0.9843
vn -0.7510 -0.1788 -0.6356
vn -0.9623 -0.1155 -0.2461
vn 0.8106 -0.1381 -0.5691
vn 0.9844 -0.0748 -0.1595
vn 0.8092 -0.4552 0.3714
vn 0.7425 -0.6341 0.2158
vn 0.8481 -0.5283 -0.0409
vn 0.8480 -0.5283 -0.0409
vn 0.8657 -0.3567 -0.3512
vn 0.8657 -0.3567 -0.3511
vn 0.1632 -0.6224 0.7655
vn 0.1620 -0.6216 0.7664
vn 0.1635 -0.6225 0.7654
vn -0.1620 -0.6216 0.7664
vn -0.1632 -0.6224 0.7655
vn -0.1635 -0.6225 0.7654
vn 0.4279 -0.7709 0.4718
vn 0.5025 -0.5585 0.6600
vn 0.5025 -0.5584 0.6601
vn -0.5025 -0.5585 0.6600
vn -0.5025 -0.5584 0.6601
vn -0.4279 -0.7709 0.4718
vn -0.1600 -0.8326 0.5302
vn -0.1600 -0.8327 0.5302
vn 0.1600 -0.8326 0.5302
vn 0.1600 -0.8327 0.5302
vn -0.0497 -0.3649 0.9297
vn -0.0501 -0.3643 0.9300
vn -0.0502 -0.3641 0.9300
vn 0.9984 0.0216 -0.0518
vn 0.9984 0.0220 -0.0514
vn 0.9984 0.0221 -0.0512
vn -0.0000 -0.9253 -0.3792
vn 0.0065 -0.9229 -0.3849
vn 0.0528 0.3968 -0.9164
vn 0.0526 0.3965 -0.9165
vn 0.0528 0.3969 -0.9163
vn -0.7315 -0.2412 -0.6378
vn -0.0478 -0.2220 -0.9739
vn 0.1894 -0.3547 -0.9156
vn 0.4775 -0.1101 -0.8717
vn 0.7531 -0.5946 -0.2814
vn 0.6287 -0.7389 -0.2425
vn 0.4410 -0.8294 0.3430
vn 0.1685 -0.9696 0.1777
vn -0.0368 -0.9523 0.3028
vn -0.6484 -0.7397 0.1803
vn -0.7031 -0.7027 -0.1090
vn -0.6373 -0.6085 -0.4727
vn -0.9984 0.0216 -0.0518
vn -0.9984 0.0220 -0.0514
vn -0.9984 0.0214 -0.0520
vn 0.0497 -0.3649 0.9297
vn 0.0501 -0.3643 0.9300
vn 0.0497 -0.3651 0.9296
vn -0.0528 0.3968 -0.9164
vn -0.0526 0.3965 -0.9165
vn -0.0526 0.3963 -0.9166
vn 0.9984 -0.0205 0.0520
vn 0.9985 -0.0209 0.0516
vn 0.9985 -0.0211 0.0514
vn -0.9984 -0.0205 0.0520
vn -0.9985 -0.0209 0.0516
vn -0.9984 -0.0205 0.0521
vn -0.9707 0.2027 0.1291
vn -0.9707 0.2018 0.1308
vn -0.9707 0.2027 0.1290
vn -0.9744 0.1052 -0.1989
vn -0.9739 0.1061 -0.2005
vn -0.9749 0.1042 -0.1970
vn -0.8312 0.2985 0.4690
vn -0.8312 0.2985 0.4691
vn -0.7481 0.5401 0.3856
vn -0.8483 0.5260 0.0603
vn -0.8484 0.5260 0.0604
vn -0.8586 0.4340 -0.2727
vn -0.8586 0.4340 -0.2728
vn -0.7706 0.2688 -0.5779
vn -0.8409 0.0026 -0.5412
vn -0.1703 -0.1246 -0.9775
vn -0.1701 -0.1245 -0.9775
vn -0.1686 -0.1231 -0.9780
vn 0.1701 -0.1245 -0.9775
vn 0.1703 -0.1246 -0.9775
vn 0.1686 -0.1231 -0.9780
vn -0.5234 -0.0879 -0.8475
vn -0.5235 -0.0879 -0.8475
vn -0.5053 0.1933 -0.8410
vn -0.1752 0.2420 -0.9543
vn -0.1752 0.2419 -0.9543
vn 0.1752 0.2420 -0.9543
vn 0.1752 0.2419 -0.9543
vn 0.5053 0.1933 -0.8410
vn 0.5234 -0.0879 -0.8475
vn 0.5235 -0.0879 -0.8475
vn 0.9739 0.1061 -0.2005
vn 0.9744 0.1052 -0.1989
vn 0.9749 0.1042 -0.1970
vn 0.9707 0.2018 0.1308
vn 0.9707 0.2027 0.1291
vn 0.9707 0.2027 0.1290
vn 0.8409 0.0026 -0.5412
vn 0.7706 0.2688 -0.5779
vn 0.8586 0.4340 -0.2727
vn 0.8586 0.4340 -0.2728
vn 0.8483 0.5260 0.0603
vn 0.8484 0.5260 0.0604
vn 0.7481 0.5401 0.3856
vn 0.8312 0.2985 0.4690
vn 0.8312 0.2985 0.4691
vn 0.1347 0.4261 0.8946
vn -0.1347 0.4261 0.8946
vn 0.6401 0.3624 0.6775
vn 0.6369 0.3603 0.6816
vn 0.6367 0.3600 0.6819
vn 0.5992 0.5901 0.5410
vn 0.0647 0.5846 0.8087
vn -0.0647 0.5846 0.8087
vn -0.5992 0.5901 0.5410
vn -0.6369 0.3603 0.6816
vn -0.6401 0.3624 0.6775
vn -0.6367 0.3600 0.6819
vn 0.9985 -0.0114 -0.0531
vn 0.9985 -0.0113 -0.0532
vn 0.9985 -0.0112 -0.0532
vn -0.0523 0.2015 0.9781
vn -0.0522 0.2017 0.9780
vn -0.0522 0.2018 0.9780
vn -0.0000 0.9797 -0.2006
vn -0.0062 0.9785 -0.2061
vn -0.9985 -0.0114 -0.0531
vn -0.9985 -0.0113 -0.0532
vn -0.9985 -0.0115 -0.0530
vn 0.7048 0.4138 -0.5761
vn 0.0453 0.4917 -0.8696
vn -0.1840 0.5992 -0.7792
vn -0.4743 0.3574 -0.8046
vn -0.7333 0.6576 -0.1728
vn -0.7088 0.6995 -0.0915
vn -0.6936 0.6523 0.3055
vn -0.0335 0.9313 0.3627
vn 0.1146 0.8919 0.4376
vn 0.6786 0.6593 0.3237
vn 0.6086 0.7934 0.0085
vn 0.6116 0.7134 -0.3421
vn 0.0537 -0.2117 -0.9758
vn 0.0537 -0.2117 -0.9759
vn -0.9985 0.0111 0.0531
vn -0.9985 0.0110 0.0531
vn -0.9985 0.0112 0.0530
vn 0.9985 0.0111 0.0531
vn 0.9985 0.0110 0.0531
vn 0.9985 0.0110 0.0532
vn -0.0537 -0.2117 -0.9758
vn -0.0537 -0.2117 -0.9759
vn -0.0537 -0.2118 -0.9758
vn 0.0523 0.2015 0.9781
vn 0.0522 0.2017 0.9780
vn 0.0523 0.2014 0.9781
vn -0.0000 -0.9768 0.2140
vn -0.0000 0.8326 0.5539
vn 0.4475 -0.2880 -0.8467
vn 0.1668 -0.2622 -0.9505
vn -0.7388 -0.6174 0.2704
vn -0.8228 -0.4066 0.3970
vn 0.9612 -0.2650 0.0767
vn -0.7620 -0.1527 -0.6293
vn -0.8481 -0.5283 -0.0408
vn -0.1691 -0.2533 -0.9525
vn -0.5251 -0.1287 -0.8412
vn -0.5077 0.0261 -0.8611
vn -0.9927 -0.1125 0.0437
vn 0.7510 -0.1788 -0.6356
vn 0.5077 0.0261 -0.8611
vn 0.1766 0.0074 -0.9843
vn -0.1766 0.0074 -0.9843
vn -0.8454 -0.0560 -0.5313
vn -0.9844 -0.0748 -0.1595
vn 0.7620 -0.1527 -0.6293
vn 0.9623 -0.1155 -0.2461
vn 0.7893 -0.4316 0.4367
vn 0.7388 -0.6174 0.2704
vn 0.8481 -0.5283 -0.0408
vn 0.1604 -0.6206 0.7676
vn -0.1604 -0.6206 0.7676
vn 0.4712 -0.7350 0.4876
vn 0.5026 -0.5585 0.6599
vn -0.5026 -0.5585 0.6599
vn -0.4712 -0.7350 0.4876
vn -0.1601 -0.8326 0.5302
vn 0.1601 -0.8326 0.5302
vn -0.0497 -0.3651 0.9296
vn 0.9984 0.0214 -0.0520
vn -0.0080 -0.9221 -0.3868
vn 0.0080 -0.9221 -0.3868
vn 0.0069 -0.9226 -0.3857
vn 0.0079 -0.9284 -0.3716
vn -0.0079 -0.9284 -0.3716
vn 0.0526 0.3963 -0.9166
vn -0.4775 -0.1101 -0.8717
vn -0.1894 -0.3547 -0.9156
vn 0.0478 -0.2220 -0.9739
vn 0.7315 -0.2412 -0.6378
vn 0.6373 -0.6085 -0.4727
vn 0.7031 -0.7027 -0.1090
vn 0.6484 -0.7397 0.1803
vn 0.0368 -0.9523 0.3028
vn -0.1685 -0.9696 0.1777
vn -0.4410 -0.8294 0.3430
vn -0.6287 -0.7389 -0.2425
vn -0.7532 -0.5946 -0.2814
vn -0.9984 0.0221 -0.0512
vn 0.0502 -0.3641 0.9300
vn -0.0528 0.3969 -0.9163
vn 0.9984 -0.0205 0.0521
vn -0.9985 -0.0211 0.0514
vn -0.9706 0.2007 0.1327
vn -0.9739 0.1062 -0.2007
vn -0.8313 0.2986 0.4689
vn -0.7507 0.5698 0.3343
vn -0.8483 0.5260 0.0602
vn -0.8587 0.4340 -0.2727
vn -0.7734 0.3250 -0.5442
vn -0.8409 0.0025 -0.5411
vn -0.1718 -0.1259 -0.9771
vn 0.1718 -0.1259 -0.9771
vn -0.5234 -0.0878 -0.8476
vn -0.4615 0.2365 -0.8550
vn -0.1751 0.2421 -0.9543
vn 0.1751 0.2421 -0.9543
vn 0.4615 0.2365 -0.8550
vn 0.5234 -0.0878 -0.8476
vn 0.9739 0.1062 -0.2007
vn 0.9706 0.2007 0.1327
vn 0.8409 0.0025 -0.5411
vn 0.7734 0.3250 -0.5442
vn 0.8587 0.4340 -0.2727
vn 0.8483 0.5260 0.0602
vn 0.7507 0.5698 0.3343
vn 0.8313 0.2986 0.4689
vn 0.0599 0.5007 0.8635
vn -0.0599 0.5007 0.8635
vn 0.6405 0.3627 0.6769
vn 0.7295 0.4457 0.5189
vn 0.0765 0.5711 0.8173
vn -0.0765 0.5711 0.8173
vn -0.7295 0.4457 0.5189
vn -0.6405 0.3627 0.6769
vn 0.9985 -0.0115 -0.0530
vn -0.0523 0.2014 0.9781
vn 0.0075 0.9781 -0.2080
vn -0.0075 0.9781 -0.2080
vn -0.0064 0.9783 -0.2069
vn -0.0074 0.9811 -0.1932
vn 0.0074 0.9811 -0.1932
vn -0.9985 -0.0112 -0.0532
vn 0.4743 0.3574 -0.8046
vn 0.1840 0.5992 -0.7792
vn -0.0453 0.4917 -0.8696
vn -0.7048 0.4138 -0.5761
vn -0.6116 0.7134 -0.3421
vn -0.6086 0.7934 0.0085
vn -0.6786 0.6593 0.3237
vn -0.1146 0.8919 0.4376
vn 0.0335 0.9313 0.3627
vn 0.6936 0.6523 0.3055
vn 0.7088 0.6995 -0.0915
vn 0.7333 0.6576 -0.1728
vn 0.0537 -0.2118 -0.9758
vn -0.9985 0.0110 0.0532
vn 0.9985 0.0112 0.0530
vn 0.0522 0.2018 0.9780
vn -0.2172 0.6981 0.6823
vn -0.0000 0.9158 0.4016
vn 0.0338 0.8161 0.5769
vn -0.1844 0.9781 0.0969
vn 0.4634 0.5648 0.6828
vt 0.954761 0.247579
vt 0.972795 0.173492
vt 0.993685 0.254315
vt 0.952448 0.178140
vt 0.928316 0.100576
vt 0.682980 0.211824
vt 0.655736 0.163219
vt 0.704227 0.183418
vt 0.640772 0.213361
vt 0.581715 0.142013
vt 0.833167 0.430785
vt 0.878925 0.338785
vt 0.968150 0.415979
vt 0.764904 0.121905
vt 0.786458 0.053793
vt 0.794677 0.100753
vt 0.731733 0.150782
vt 0.730030 0.077495
vt 0.686214 0.116315
vt 0.854910 0.065764
vt 0.915910 0.111343
vt 0.862368 0.046256
vt 0.828152 0.121843
vt 0.923538 0.300300
vt 0.990287 0.337688
vt 0.909374 0.232904
vt 0.893168 0.196769
vt 0.864434 0.156019
vt 0.785144 0.014260
vt 0.701827 0.006315
vt 0.884242 0.259497
vt 0.774681 0.370132
vt 0.827443 0.363011
vt 0.782779 0.328158
vt 0.814311 0.311198
vt 0.850852 0.288449
vt 0.684502 0.411773
vt 0.683258 0.312142
vt 0.725406 0.349646
vt 0.585331 0.294684
vt 0.653003 0.264696
vt 0.757429 0.305359
vt 0.755959 0.440201
vt 0.569390 0.219769
vt 0.701494 0.240114
vt 0.727631 0.274214
vt 0.757021 0.248972
vt 0.755011 0.211522
vt 0.772425 0.235688
vt 0.853134 0.221554
vt 0.817315 0.241642
vt 0.835739 0.218765
vt 0.773064 0.190471
vt 0.820241 0.194340
vt 0.834735 0.181783
vt 0.798005 0.157942
vt 0.828930 0.255275
vt 0.792367 0.273588
vt 0.737954 0.210448
vt 0.761277 0.177057
vt 0.793806 0.256484
vt 0.798284 0.175528
vt 0.196529 0.441623
vt 0.241696 0.517252
vt 0.175414 0.504415
vt 0.253315 0.448585
vt 0.310498 0.518678
vt 0.143278 0.426058
vt 0.114918 0.482578
vt 0.166274 0.384816
vt 0.209725 0.385171
vt 0.262212 0.389287
vt 0.311001 0.451131
vt 0.356038 0.400743
vt 0.366391 0.445184
vt 0.377103 0.509235
vt 0.477361 0.331592
vt 0.556760 0.259218
vt 0.555191 0.335904
vt 0.475487 0.188954
vt 0.553178 0.182600
vt 0.443100 0.490453
vt 0.421750 0.421238
vt 0.405964 0.327624
vt 0.476566 0.260271
vt 0.404219 0.194796
vt 0.417542 0.100800
vt 0.352390 0.123014
vt 0.361573 0.078316
vt 0.437067 0.031048
vt 0.370599 0.014005
vt 0.303769 0.006315
vt 0.248447 0.077886
vt 0.235028 0.009548
vt 0.191863 0.086336
vt 0.169106 0.024120
vt 0.306046 0.073826
vt 0.258898 0.136930
vt 0.206537 0.142423
vt 0.163110 0.143919
vt 0.139039 0.103295
vt 0.109205 0.047539
vt 0.076910 0.191077
vt 0.006315 0.266447
vt 0.009303 0.186597
vt 0.078865 0.339937
vt 0.011400 0.346192
vt 0.100097 0.129230
vt 0.063064 0.070884
vt 0.132594 0.196320
vt 0.080014 0.265479
vt 0.134392 0.333234
vt 0.103668 0.401154
vt 0.068180 0.460452
vt 0.330014 0.192173
vt 0.265645 0.211900
vt 0.263827 0.185475
vt 0.192174 0.264006
vt 0.224316 0.308788
vt 0.205717 0.327064
vt 0.221011 0.263628
vt 0.319698 0.262332
vt 0.331853 0.332195
vt 0.266988 0.314166
vt 0.312914 0.308272
vt 0.311074 0.131858
vt 0.349888 0.261935
vt 0.406375 0.261193
vt 0.387373 0.367041
vt 0.314504 0.392986
vt 0.265865 0.340629
vt 0.140203 0.356731
vt 0.136131 0.264742
vt 0.204056 0.200614
vt 0.311709 0.216585
vt 0.223129 0.218396
vt 0.024934 0.615424
vt 0.065074 0.542421
vt 0.111503 0.517155
vt 0.993685 0.822275
vt 0.737620 0.634418
vt 0.621015 0.018230
vt 0.626284 0.360452
vt 0.384600 0.155881
vt 0.137786 0.172678
vt 0.121401 0.832949
vt 0.063385 0.798423
vt 0.024157 0.746384
vt 0.006315 0.696627
vt 0.865202 0.818634
vt 0.798225 0.779729
vt 0.754713 0.714528
vt 0.745896 0.552925
vt 0.776021 0.480557
s 1
usemtl マテリアル.001
f 14/1/1 90/2/1 71/3/1
f 29/4/2 88/5/3 90/2/4
f 1/6/5 23/7/5 7/8/5
f 8/9/6 24/10/6 23/7/7
f 33/11/8 31/12/8 94/13/8
f 5/14/9 10/15/9 2/16/9
f 6/17/10 26/18/10 5/14/11
f 7/8/12 25/19/12 6/17/13
f 27/20/14 88/5/15 28/21/16
f 10/15/17 86/22/17 27/20/17
f 2/16/18 27/20/18 13/23/18
f 24/10/19 25/19/19 23/7/19
f 30/24/20 71/3/20 92/25/20
f 29/4/21 4/26/21 11/27/21
f 28/21/22 11/27/22 12/28/23
f 13/23/24 28/21/24 12/28/25
f 26/18/26 66/29/26 10/15/26
f 25/19/27 84/30/27 26/18/27
f 14/1/28 17/31/28 4/26/28
f 31/12/29 92/25/29 94/13/29
f 33/11/30 19/32/30 32/33/30
f 32/33/31 3/34/31 15/35/31
f 31/12/32 15/35/32 16/36/33
f 30/24/34 16/36/34 17/31/35
f 35/37/36 36/38/37 34/39/38
f 36/38/39 39/40/40 38/41/41
f 3/34/42 34/39/42 22/42/42
f 18/43/43 34/39/43 19/32/44
f 38/41/45 9/44/45 8/9/46
f 38/41/47 1/6/47 20/45/47
f 36/38/48 20/45/48 21/46/49
f 22/42/50 36/38/50 21/46/51
f 47/47/52 53/48/53 54/49/54
f 42/50/55 52/51/56 50/52/57
f 54/49/58 51/53/58 49/54/59
f 41/55/60 50/52/61 49/54/62
f 2/16/63 40/56/63 5/14/63
f 13/23/64 41/55/64 40/56/64
f 11/27/65 41/55/65 12/28/65
f 4/26/66 42/50/66 11/27/66
f 17/31/67 45/57/67 42/50/67
f 16/36/68 48/58/68 45/57/68
f 48/58/69 3/34/69 22/42/69
f 47/47/70 22/42/70 21/46/70
f 47/47/71 20/45/71 46/59/71
f 46/59/72 1/6/72 7/8/72
f 6/17/73 46/59/73 7/8/73
f 5/14/74 43/60/74 6/17/74
f 40/56/75 51/53/76 43/60/77
f 47/47/78 55/61/79 48/58/80
f 41/55/81 44/62/82 40/56/83
f 45/57/84 55/61/85 52/51/86
f 43/60/87 53/48/88 46/59/89
f 81/63/90 82/64/91 80/65/92
f 83/66/93 84/67/94 82/64/95
f 61/68/96 80/65/96 60/69/97
f 56/70/98 81/63/98 61/68/98
f 62/71/99 83/66/99 81/63/100
f 63/72/101 85/73/101 83/66/102
f 85/73/103 57/74/103 65/75/103
f 85/73/104 66/76/104 84/67/104
f 87/77/105 88/78/106 86/79/107
f 88/78/108 91/80/109 90/81/110
f 65/75/111 86/82/111 66/76/112
f 57/74/113 87/83/113 65/75/113
f 67/84/114 89/85/114 87/77/115
f 89/85/116 69/86/116 91/80/117
f 91/87/118 59/88/118 70/89/118
f 90/90/119 70/89/119 71/91/120
f 92/92/121 95/93/122 94/94/123
f 94/94/124 97/95/125 96/96/126
f 71/91/127 93/97/127 92/92/127
f 59/88/128 93/97/128 70/89/128
f 93/97/129 73/98/129 95/93/130
f 95/93/131 74/99/131 97/95/132
f 97/95/133 58/100/133 75/101/133
f 96/96/134 75/101/134 76/102/135
f 99/103/136 100/104/136 98/105/136
f 100/104/137 103/106/137 102/107/137
f 76/102/138 99/108/139 98/109/140
f 58/100/141 99/108/141 75/101/141
f 77/110/142 101/111/142 99/103/142
f 101/111/143 79/112/143 103/106/143
f 103/113/144 56/70/144 61/68/144
f 103/113/145 60/69/146 102/114/147
f 104/115/148 115/116/149 107/117/150
f 111/118/151 118/119/152 112/120/153
f 119/121/154 115/116/154 113/122/155
f 106/123/156 116/124/157 114/125/158
f 59/88/159 104/115/159 72/126/159
f 69/86/160 105/127/160 104/115/160
f 67/84/161 105/127/161 68/128/161
f 57/74/162 106/123/162 67/129/162
f 64/130/163 109/131/163 106/123/163
f 109/131/164 62/71/164 112/120/164
f 112/120/165 56/70/165 79/132/165
f 112/120/166 78/133/166 111/118/166
f 110/134/167 78/133/167 77/110/167
f 110/134/168 58/100/168 74/99/168
f 107/117/169 74/99/169 73/98/169
f 72/126/170 107/117/170 73/98/170
f 105/127/171 108/135/172 104/115/172
f 109/131/173 118/119/174 116/124/175
f 107/117/176 117/136/177 110/134/178
f 105/127/179 114/125/180 113/122/181
f 111/118/182 117/136/183 119/121/184
f 100/137/185 102/138/185 60/139/185
f 94/13/186 82/140/186 37/141/186
f 14/1/187 29/4/187 90/2/187
f 29/4/2 28/21/188 88/5/3
f 1/6/189 8/9/189 23/7/189
f 8/9/6 9/44/190 24/10/6
f 33/11/191 32/33/191 31/12/191
f 5/14/192 26/18/192 10/15/192
f 6/17/10 25/19/10 26/18/10
f 7/8/12 23/7/193 25/19/12
f 27/20/14 86/22/194 88/5/15
f 10/15/195 66/29/195 86/22/195
f 2/16/196 10/15/196 27/20/196
f 24/10/197 82/142/197 25/19/197
f 30/24/198 14/1/198 71/3/198
f 29/4/199 14/1/199 4/26/199
f 28/21/22 29/4/200 11/27/22
f 13/23/24 27/20/201 28/21/24
f 26/18/202 84/30/202 66/29/202
f 25/19/203 82/142/203 84/30/203
f 14/1/204 30/24/204 17/31/204
f 31/12/205 30/24/205 92/25/205
f 33/11/206 18/43/206 19/32/206
f 32/33/207 19/32/207 3/34/207
f 31/12/32 32/33/208 15/35/32
f 30/24/34 31/12/34 16/36/34
f 35/37/36 37/143/209 36/38/37
f 36/38/39 37/143/210 39/40/40
f 3/34/211 19/32/211 34/39/211
f 18/43/43 35/37/212 34/39/43
f 38/41/45 39/40/213 9/44/45
f 38/41/214 8/9/214 1/6/214
f 36/38/48 38/41/215 20/45/48
f 22/42/50 34/39/216 36/38/50
f 47/47/52 46/59/217 53/48/53
f 42/50/55 45/57/218 52/51/56
f 44/62/219 49/54/219 51/53/219
f 49/54/59 50/52/220 52/51/221
f 54/49/222 52/51/222 55/61/222
f 49/54/59 52/51/221 54/49/58
f 54/49/223 53/48/223 51/53/223
f 41/55/60 42/50/224 50/52/61
f 2/16/225 13/23/225 40/56/225
f 13/23/226 12/28/226 41/55/226
f 11/27/227 42/50/227 41/55/227
f 4/26/228 17/31/228 42/50/228
f 17/31/229 16/36/229 45/57/229
f 16/36/230 15/35/230 48/58/230
f 48/58/231 15/35/231 3/34/231
f 47/47/232 48/58/232 22/42/232
f 47/47/233 21/46/233 20/45/233
f 46/59/234 20/45/234 1/6/234
f 6/17/235 43/60/235 46/59/235
f 5/14/236 40/56/236 43/60/236
f 40/56/75 44/62/237 51/53/76
f 47/47/78 54/49/238 55/61/79
f 41/55/81 49/54/239 44/62/82
f 45/57/84 48/58/240 55/61/85
f 43/60/87 51/53/241 53/48/88
f 81/63/90 83/66/242 82/64/91
f 83/66/93 85/73/243 84/67/94
f 61/68/96 81/63/244 80/65/96
f 56/70/245 62/71/245 81/63/245
f 62/71/99 63/72/246 83/66/99
f 63/72/101 64/130/247 85/73/101
f 85/73/248 64/130/248 57/74/248
f 85/73/104 65/75/249 66/76/104
f 87/77/105 89/85/250 88/78/106
f 88/78/108 89/85/251 91/80/109
f 65/75/111 87/83/252 86/82/111
f 57/74/253 67/129/253 87/83/253
f 67/84/114 68/128/254 89/85/114
f 89/85/116 68/128/255 69/86/116
f 91/87/256 69/144/256 59/88/256
f 90/90/119 91/87/257 70/89/119
f 92/92/121 93/97/258 95/93/122
f 94/94/124 95/93/259 97/95/125
f 71/91/127 70/89/260 93/97/127
f 59/88/261 72/126/261 93/97/261
f 93/97/129 72/126/262 73/98/129
f 95/93/131 73/98/263 74/99/131
f 97/95/264 74/99/264 58/100/264
f 96/96/134 97/95/265 75/101/134
f 99/103/266 101/111/266 100/104/266
f 100/104/267 101/111/267 103/106/267
f 76/102/138 75/101/268 99/108/139
f 58/100/269 77/145/269 99/108/269
f 77/110/270 78/133/270 101/111/270
f 101/111/271 78/133/271 79/112/271
f 103/113/272 79/132/272 56/70/272
f 103/113/145 61/68/273 60/69/146
f 104/115/148 108/135/274 115/116/149
f 111/118/151 119/121/275 118/119/152
f 108/135/276 113/122/276 115/116/276
f 113/122/155 114/125/277 116/124/278
f 119/121/279 116/124/279 118/119/279
f 113/122/155 116/124/278 119/121/154
f 119/121/280 117/136/280 115/116/280
f 106/123/156 109/131/281 116/124/157
f 59/88/282 69/144/282 104/115/282
f 69/86/283 68/128/283 105/127/283
f 67/84/284 106/123/284 105/127/284
f 57/74/285 64/130/285 106/123/285
f 64/130/286 63/72/286 109/131/286
f 109/131/287 63/72/287 62/71/287
f 112/120/288 62/71/288 56/70/288
f 112/120/289 79/112/289 78/133/289
f 110/134/290 111/118/290 78/133/290
f 110/134/291 77/145/291 58/100/291
f 107/117/292 110/134/292 74/99/292
f 72/126/293 104/115/293 107/117/293
f 105/127/171 113/122/294 108/135/172
f 109/131/173 112/120/295 118/119/174
f 107/117/176 115/116/296 117/136/177
f 105/127/179 106/123/180 114/125/180
f 111/118/182 110/134/297 117/136/183
f 60/139/185 80/65/185 100/137/185
f 80/65/185 82/64/185 100/137/185
f 82/64/185 94/146/185 100/137/185
f 94/146/185 96/147/185 100/137/185
f 96/147/185 76/148/185 100/137/185
f 76/148/185 98/149/185 100/137/185
f 82/140/298 24/150/298 37/141/298
f 24/150/299 9/151/299 39/152/299
f 37/141/299 24/150/299 39/152/299
f 37/141/300 35/153/300 94/13/300
f 35/153/301 18/154/301 33/11/301
f 94/13/302 35/153/302 33/11/302
