# Blender 4.4.1
# www.blender.org
mtllib wave.mtl
o 球
v 0.293182 0.293182 0.104471
v 0.383061 0.383061 -0.085759
v 0.414622 -0.000000 0.104471
v 0.541730 -0.000000 -0.085759
v 0.293182 -0.293182 0.104471
v 0.383061 -0.383061 -0.085759
v 0.000000 -0.414622 0.104471
v 0.000000 -0.541730 -0.085759
v -0.293182 -0.293182 0.104471
v -0.383061 -0.383061 -0.085759
v -0.414622 -0.000000 0.104471
v -0.541730 -0.000000 -0.085759
v -0.293182 0.293182 0.104471
v -0.383061 0.383061 -0.085759
v 0.000000 0.414622 0.104471
v 0.000000 0.541730 -0.085759
vn 0.3256 0.7862 0.5253
vn 0.7862 0.3256 0.5253
vn 0.7862 -0.3256 0.5253
vn 0.3256 -0.7862 0.5253
vn -0.3256 -0.7862 0.5253
vn -0.7862 -0.3256 0.5253
vn -0.7862 0.3256 0.5253
vn -0.3256 0.7862 0.5253
vt 0.750000 0.625000
vt 0.750000 0.750000
vt 0.625000 0.750000
vt 0.625000 0.625000
vt 0.500000 0.750000
vt 0.500000 0.625000
vt 0.375000 0.750000
vt 0.375000 0.625000
vt 0.250000 0.750000
vt 0.250000 0.625000
vt 0.125000 0.750000
vt 0.125000 0.625000
vt 0.000000 0.750000
vt 0.000000 0.625000
vt 1.000000 0.625000
vt 1.000000 0.750000
vt 0.875000 0.750000
vt 0.875000 0.625000
s 0
usemtl マテリアル
f 16/1/1 15/2/1 1/3/1 2/4/1
f 2/4/2 1/3/2 3/5/2 4/6/2
f 4/6/3 3/5/3 5/7/3 6/8/3
f 6/8/4 5/7/4 7/9/4 8/10/4
f 8/10/5 7/9/5 9/11/5 10/12/5
f 10/12/6 9/11/6 11/13/6 12/14/6
f 12/15/7 11/16/7 13/17/7 14/18/7
f 14/18/8 13/17/8 15/2/8 16/1/8
