# Blender 4.5.2 LTS
# www.blender.org
mtllib WhiteSkyDome.mtl
o 球
v 0.000000 114.805038 -277.163849
v 0.000000 0.000000 -300.000000
v 0.000000 -114.805038 -277.163849
v 0.000000 -277.163849 -114.805038
v 43.933990 277.163849 -106.066025
v 81.179420 212.132034 -195.984436
v 106.066017 114.805038 -256.066010
v 114.805038 0.000000 -277.163849
v 106.066017 -114.805038 -256.066010
v 81.179420 -212.132034 -195.984436
v 43.933990 -277.163849 -106.066025
v 81.179428 277.163849 -81.179413
v 150.000000 212.132034 -149.999985
v 195.984436 114.805038 -195.984436
v 212.132050 0.000000 -212.132019
v 195.984436 -114.805038 -195.984436
v 150.000000 -212.132034 -149.999985
v 81.179428 -277.163849 -81.179413
v 106.066025 277.163849 -43.933968
v 195.984436 212.132034 -81.179390
v 256.066010 114.805038 -106.066010
v 277.163879 0.000000 -114.804993
v 256.066010 -114.805038 -106.066010
v 195.984436 -212.132034 -81.179390
v 106.066025 -277.163849 -43.933968
v 114.805031 277.163849 0.000023
v 212.132019 212.132034 0.000023
v 277.163849 114.805038 0.000015
v 300.000000 0.000000 0.000053
v 277.163849 -114.805038 0.000015
v 212.132019 -212.132034 0.000023
v 114.805031 -277.163849 0.000023
v 106.066010 277.163849 43.934010
v 195.984406 212.132034 81.179436
v 256.066010 114.805038 106.066032
v 277.163818 0.000000 114.805084
v 256.066010 -114.805038 106.066032
v 195.984406 -212.132034 81.179436
v 106.066010 -277.163849 43.934010
v 81.179390 277.163849 81.179436
v 149.999954 212.132034 150.000000
v 195.984436 114.805038 195.984467
v 212.131973 0.000000 212.132080
v 195.984436 -114.805038 195.984467
v 149.999954 -212.132034 150.000000
v 81.179390 -277.163849 81.179436
v 43.933952 277.163849 106.066025
v 81.179359 212.132034 195.984421
v 106.065994 114.805038 256.066040
v 114.804939 0.000000 277.163879
v 106.065994 -114.805038 256.066040
v 81.179359 -212.132034 195.984421
v 43.933952 -277.163849 106.066025
v -0.000034 277.163849 114.805023
v -0.000046 212.132034 212.131989
v -0.000046 114.805038 277.163879
v -0.000099 0.000000 300.000000
v -0.000046 -114.805038 277.163879
v -0.000046 -212.132034 212.131989
v -0.000034 -277.163849 114.805023
v 0.000000 -300.000000 0.000000
v 0.000000 300.000000 0.000000
v -43.934013 277.163849 106.065994
v -81.179451 212.132034 195.984375
v -106.066078 114.805038 256.066010
v -114.805130 0.000000 277.163818
v -106.066078 -114.805038 256.066010
v -81.179451 -212.132034 195.984375
v -43.934013 -277.163849 106.065994
v -81.179436 277.163849 81.179375
v -150.000000 212.132034 149.999908
v -195.984497 114.805038 195.984406
v -212.132111 0.000000 212.131958
v -195.984497 -114.805038 195.984406
v -150.000000 -212.132034 149.999908
v -81.179436 -277.163849 81.179375
v -106.066017 277.163849 43.933937
v -195.984406 212.132034 81.179329
v -256.066040 114.805038 106.065956
v -277.163910 0.000000 114.804924
v -256.066040 -114.805038 106.065956
v -195.984406 -212.132034 81.179329
v -106.066017 -277.163849 43.933937
v -114.805008 277.163849 -0.000046
v -212.131958 212.132034 -0.000076
v -277.163849 114.805038 -0.000076
v -300.000000 0.000000 -0.000122
v -277.163849 -114.805038 -0.000076
v -212.131958 -212.132034 -0.000076
v -114.805008 -277.163849 -0.000046
v -106.065979 277.163849 -43.934021
v -195.984344 212.132034 -81.179459
v -256.065979 114.805038 -106.066086
v -277.163788 0.000000 -114.805153
v -256.065979 -114.805038 -106.066086
v -195.984344 -212.132034 -81.179459
v -106.065979 -277.163849 -43.934021
v -81.179367 277.163849 -81.179436
v -149.999878 212.132034 -150.000000
v -195.984375 114.805038 -195.984497
v -212.131912 0.000000 -212.132111
v -195.984375 -114.805038 -195.984497
v -149.999878 -212.132034 -150.000000
v -81.179367 -277.163849 -81.179436
v -43.933929 277.163849 -106.066017
v -81.179298 212.132034 -195.984406
v -106.065926 114.805038 -256.066040
v -114.804878 0.000000 -277.163879
v -106.065926 -114.805038 -256.066040
v -81.179298 -212.132034 -195.984406
v -43.933929 -277.163849 -106.066017
v 0.000053 277.163849 -114.805008
v 0.000099 212.132034 -212.131958
v 0.000099 -212.132034 -212.131958
vn -0.1915 -0.1915 0.9626
vn -0.1098 -0.8264 0.5522
vn -0.1098 0.8264 0.5522
vn -0.1915 0.1915 0.9626
vn -0.1632 -0.5481 0.8203
vn -0.0388 -0.9800 0.1949
vn -0.0388 0.9800 0.1949
vn -0.1632 0.5481 0.8203
vn -0.3128 0.8264 0.4681
vn -0.5453 0.1915 0.8161
vn -0.4647 -0.5481 0.6954
vn -0.1104 -0.9800 0.1653
vn -0.1104 0.9800 0.1653
vn -0.4647 0.5481 0.6954
vn -0.5453 -0.1915 0.8161
vn -0.3128 -0.8264 0.4681
vn -0.1653 -0.9800 0.1104
vn -0.1653 0.9800 0.1104
vn -0.6954 0.5481 0.4647
vn -0.8161 -0.1915 0.5453
vn -0.4681 -0.8264 0.3128
vn -0.4681 0.8264 0.3128
vn -0.8161 0.1915 0.5453
vn -0.6954 -0.5481 0.4647
vn -0.8203 0.5481 0.1632
vn -0.9626 -0.1915 0.1915
vn -0.5522 -0.8264 0.1098
vn -0.5522 0.8264 0.1098
vn -0.9626 0.1915 0.1915
vn -0.8203 -0.5481 0.1632
vn -0.1949 -0.9800 0.0388
vn -0.1949 0.9800 0.0388
vn -0.5522 0.8264 -0.1098
vn -0.9626 0.1915 -0.1915
vn -0.8203 -0.5481 -0.1632
vn -0.1949 -0.9800 -0.0388
vn -0.1949 0.9800 -0.0388
vn -0.8203 0.5481 -0.1632
vn -0.9626 -0.1915 -0.1915
vn -0.5522 -0.8264 -0.1098
vn -0.8161 0.1915 -0.5453
vn -0.6954 -0.5481 -0.4647
vn -0.1653 -0.9800 -0.1104
vn -0.1653 0.9800 -0.1104
vn -0.6954 0.5481 -0.4647
vn -0.8161 -0.1915 -0.5453
vn -0.4681 -0.8264 -0.3128
vn -0.4681 0.8264 -0.3128
vn -0.1104 0.9800 -0.1653
vn -0.4647 0.5481 -0.6954
vn -0.5453 -0.1915 -0.8161
vn -0.3128 -0.8264 -0.4681
vn -0.3128 0.8264 -0.4681
vn -0.5453 0.1915 -0.8161
vn -0.4647 -0.5481 -0.6954
vn -0.1104 -0.9800 -0.1653
vn -0.1915 -0.1915 -0.9626
vn -0.1098 -0.8264 -0.5522
vn -0.1098 0.8264 -0.5522
vn -0.1915 0.1915 -0.9626
vn -0.1632 -0.5481 -0.8203
vn -0.0388 -0.9800 -0.1949
vn -0.0388 0.9800 -0.1949
vn -0.1632 0.5481 -0.8203
vn 0.1098 0.8264 -0.5522
vn 0.1915 0.1915 -0.9626
vn 0.1632 -0.5481 -0.8203
vn 0.0388 -0.9800 -0.1949
vn 0.0388 0.9800 -0.1949
vn 0.1632 0.5481 -0.8203
vn 0.1915 -0.1915 -0.9626
vn 0.1098 -0.8264 -0.5522
vn 0.4647 -0.5481 -0.6954
vn 0.1104 -0.9800 -0.1653
vn 0.1104 0.9800 -0.1653
vn 0.4647 0.5481 -0.6954
vn 0.5453 -0.1915 -0.8161
vn 0.3128 -0.8264 -0.4681
vn 0.3128 0.8264 -0.4681
vn 0.5453 0.1915 -0.8161
vn 0.1653 0.9800 -0.1104
vn 0.6954 0.5481 -0.4647
vn 0.8161 -0.1915 -0.5453
vn 0.4681 -0.8264 -0.3128
vn 0.4681 0.8264 -0.3128
vn 0.8161 0.1915 -0.5453
vn 0.6954 -0.5481 -0.4647
vn 0.1653 -0.9800 -0.1104
vn 0.5522 -0.8264 -0.1098
vn 0.5522 0.8264 -0.1098
vn 0.9626 0.1915 -0.1915
vn 0.8203 -0.5481 -0.1632
vn 0.1949 -0.9800 -0.0388
vn 0.1949 0.9800 -0.0388
vn 0.8203 0.5481 -0.1632
vn 0.9626 -0.1915 -0.1915
vn 0.5522 0.8264 0.1098
vn 0.9626 0.1915 0.1915
vn 0.8203 -0.5481 0.1632
vn 0.1949 -0.9800 0.0388
vn 0.1949 0.9800 0.0388
vn 0.8203 0.5481 0.1632
vn 0.9626 -0.1915 0.1915
vn 0.5522 -0.8264 0.1098
vn 0.1653 -0.9800 0.1104
vn 0.1653 0.9800 0.1104
vn 0.6954 0.5481 0.4647
vn 0.8161 -0.1915 0.5453
vn 0.4681 -0.8264 0.3128
vn 0.4681 0.8264 0.3128
vn 0.8161 0.1915 0.5453
vn 0.6954 -0.5481 0.4647
vn 0.4647 0.5481 0.6954
vn 0.5453 -0.1915 0.8161
vn 0.3128 -0.8264 0.4681
vn 0.3128 0.8264 0.4681
vn 0.5453 0.1915 0.8161
vn 0.4647 -0.5481 0.6954
vn 0.1104 -0.9800 0.1653
vn 0.1104 0.9800 0.1653
vn 0.1098 0.8264 0.5522
vn 0.1915 0.1915 0.9626
vn 0.1632 -0.5481 0.8203
vn 0.0388 -0.9800 0.1949
vn 0.0388 0.9800 0.1949
vn 0.1632 0.5481 0.8203
vn 0.1915 -0.1915 0.9626
vn 0.1098 -0.8264 0.5522
vt 0.750000 0.500000
vt 0.687500 0.500000
vt 0.687500 0.625000
vt 0.750000 0.625000
vt 0.750000 0.750000
vt 0.687500 0.750000
vt 0.687500 0.875000
vt 0.750000 0.875000
vt 0.750000 0.125000
vt 0.687500 0.125000
vt 0.687500 0.250000
vt 0.750000 0.250000
vt 0.750000 0.375000
vt 0.687500 0.375000
vt 0.718750 1.000000
vt 0.718750 0.000000
vt 0.625000 0.125000
vt 0.625000 0.250000
vt 0.625000 0.375000
vt 0.625000 0.500000
vt 0.625000 0.625000
vt 0.625000 0.750000
vt 0.625000 0.875000
vt 0.656250 1.000000
vt 0.656250 0.000000
vt 0.562500 0.875000
vt 0.593750 1.000000
vt 0.593750 0.000000
vt 0.562500 0.125000
vt 0.562500 0.250000
vt 0.562500 0.375000
vt 0.562500 0.500000
vt 0.562500 0.625000
vt 0.562500 0.750000
vt 0.500000 0.250000
vt 0.500000 0.375000
vt 0.500000 0.500000
vt 0.500000 0.625000
vt 0.500000 0.750000
vt 0.500000 0.875000
vt 0.500000 0.125000
vt 0.531250 1.000000
vt 0.531250 0.000000
vt 0.437500 0.125000
vt 0.437500 0.250000
vt 0.437500 0.375000
vt 0.437500 0.500000
vt 0.437500 0.625000
vt 0.437500 0.750000
vt 0.437500 0.875000
vt 0.468750 1.000000
vt 0.468750 0.000000
vt 0.375000 0.375000
vt 0.375000 0.500000
vt 0.375000 0.625000
vt 0.375000 0.750000
vt 0.375000 0.875000
vt 0.406250 1.000000
vt 0.406250 0.000000
vt 0.375000 0.125000
vt 0.375000 0.250000
vt 0.343750 0.000000
vt 0.312500 0.125000
vt 0.312500 0.250000
vt 0.312500 0.375000
vt 0.312500 0.500000
vt 0.312500 0.625000
vt 0.312500 0.750000
vt 0.312500 0.875000
vt 0.343750 1.000000
vt 0.250000 0.500000
vt 0.250000 0.625000
vt 0.250000 0.750000
vt 0.250000 0.875000
vt 0.250000 0.125000
vt 0.250000 0.250000
vt 0.250000 0.375000
vt 0.281250 1.000000
vt 0.281250 0.000000
vt 0.187500 0.125000
vt 0.187500 0.250000
vt 0.187500 0.375000
vt 0.187500 0.500000
vt 0.187500 0.625000
vt 0.187500 0.750000
vt 0.187500 0.875000
vt 0.218750 1.000000
vt 0.218750 0.000000
vt 0.125000 0.625000
vt 0.125000 0.750000
vt 0.125000 0.875000
vt 0.156250 1.000000
vt 0.156250 0.000000
vt 0.125000 0.125000
vt 0.125000 0.250000
vt 0.125000 0.375000
vt 0.125000 0.500000
vt 0.093750 0.000000
vt 0.062500 0.125000
vt 0.062500 0.250000
vt 0.062500 0.375000
vt 0.062500 0.500000
vt 0.062500 0.625000
vt 0.062500 0.750000
vt 0.062500 0.875000
vt 0.093750 1.000000
vt 0.000000 0.750000
vt 0.000000 0.875000
vt 0.000000 0.125000
vt 0.000000 0.250000
vt 0.000000 0.375000
vt 0.000000 0.500000
vt 0.000000 0.625000
vt 0.031250 1.000000
vt 0.031250 0.000000
vt 1.000000 0.125000
vt 0.937500 0.125000
vt 0.937500 0.250000
vt 1.000000 0.250000
vt 1.000000 0.375000
vt 0.937500 0.375000
vt 0.937500 0.500000
vt 1.000000 0.500000
vt 1.000000 0.625000
vt 0.937500 0.625000
vt 0.937500 0.750000
vt 1.000000 0.750000
vt 1.000000 0.875000
vt 0.937500 0.875000
vt 0.968750 1.000000
vt 0.968750 0.000000
vt 0.875000 0.875000
vt 0.906250 1.000000
vt 0.906250 0.000000
vt 0.875000 0.125000
vt 0.875000 0.250000
vt 0.875000 0.375000
vt 0.875000 0.500000
vt 0.875000 0.625000
vt 0.875000 0.750000
vt 0.812500 0.250000
vt 0.812500 0.375000
vt 0.812500 0.500000
vt 0.812500 0.625000
vt 0.812500 0.750000
vt 0.812500 0.875000
vt 0.812500 0.125000
vt 0.843750 1.000000
vt 0.843750 0.000000
vt 0.781250 1.000000
vt 0.781250 0.000000
s 0
usemtl マテリアル
f 2/1/1 8/2/1 7/3/1 1/4/1
f 113/5/2 6/6/2 5/7/2 112/8/2
f 4/9/3 11/10/3 10/11/3 114/12/3
f 3/13/4 9/14/4 8/2/4 2/1/4
f 1/4/5 7/3/5 6/6/5 113/5/5
f 112/8/6 5/7/6 62/15/6
f 61/16/7 11/10/7 4/9/7
f 114/12/8 10/11/8 9/14/8 3/13/8
f 11/10/9 18/17/9 17/18/9 10/11/9
f 9/14/10 16/19/10 15/20/10 8/2/10
f 7/3/11 14/21/11 13/22/11 6/6/11
f 5/7/12 12/23/12 62/24/12
f 61/25/13 18/17/13 11/10/13
f 10/11/14 17/18/14 16/19/14 9/14/14
f 8/2/15 15/20/15 14/21/15 7/3/15
f 6/6/16 13/22/16 12/23/16 5/7/16
f 12/23/17 19/26/17 62/27/17
f 61/28/18 25/29/18 18/17/18
f 17/18/19 24/30/19 23/31/19 16/19/19
f 15/20/20 22/32/20 21/33/20 14/21/20
f 13/22/21 20/34/21 19/26/21 12/23/21
f 18/17/22 25/29/22 24/30/22 17/18/22
f 16/19/23 23/31/23 22/32/23 15/20/23
f 14/21/24 21/33/24 20/34/24 13/22/24
f 24/30/25 31/35/25 30/36/25 23/31/25
f 22/32/26 29/37/26 28/38/26 21/33/26
f 20/34/27 27/39/27 26/40/27 19/26/27
f 25/29/28 32/41/28 31/35/28 24/30/28
f 23/31/29 30/36/29 29/37/29 22/32/29
f 21/33/30 28/38/30 27/39/30 20/34/30
f 19/26/31 26/40/31 62/42/31
f 61/43/32 32/41/32 25/29/32
f 32/41/33 39/44/33 38/45/33 31/35/33
f 30/36/34 37/46/34 36/47/34 29/37/34
f 28/38/35 35/48/35 34/49/35 27/39/35
f 26/40/36 33/50/36 62/51/36
f 61/52/37 39/44/37 32/41/37
f 31/35/38 38/45/38 37/46/38 30/36/38
f 29/37/39 36/47/39 35/48/39 28/38/39
f 27/39/40 34/49/40 33/50/40 26/40/40
f 37/46/41 44/53/41 43/54/41 36/47/41
f 35/48/42 42/55/42 41/56/42 34/49/42
f 33/50/43 40/57/43 62/58/43
f 61/59/44 46/60/44 39/44/44
f 38/45/45 45/61/45 44/53/45 37/46/45
f 36/47/46 43/54/46 42/55/46 35/48/46
f 34/49/47 41/56/47 40/57/47 33/50/47
f 39/44/48 46/60/48 45/61/48 38/45/48
f 61/62/49 53/63/49 46/60/49
f 45/61/50 52/64/50 51/65/50 44/53/50
f 43/54/51 50/66/51 49/67/51 42/55/51
f 41/56/52 48/68/52 47/69/52 40/57/52
f 46/60/53 53/63/53 52/64/53 45/61/53
f 44/53/54 51/65/54 50/66/54 43/54/54
f 42/55/55 49/67/55 48/68/55 41/56/55
f 40/57/56 47/69/56 62/70/56
f 50/66/57 57/71/57 56/72/57 49/67/57
f 48/68/58 55/73/58 54/74/58 47/69/58
f 53/63/59 60/75/59 59/76/59 52/64/59
f 51/65/60 58/77/60 57/71/60 50/66/60
f 49/67/61 56/72/61 55/73/61 48/68/61
f 47/69/62 54/74/62 62/78/62
f 61/79/63 60/75/63 53/63/63
f 52/64/64 59/76/64 58/77/64 51/65/64
f 60/75/65 69/80/65 68/81/65 59/76/65
f 58/77/66 67/82/66 66/83/66 57/71/66
f 56/72/67 65/84/67 64/85/67 55/73/67
f 54/74/68 63/86/68 62/87/68
f 61/88/69 69/80/69 60/75/69
f 59/76/70 68/81/70 67/82/70 58/77/70
f 57/71/71 66/83/71 65/84/71 56/72/71
f 55/73/72 64/85/72 63/86/72 54/74/72
f 65/84/73 72/89/73 71/90/73 64/85/73
f 63/86/74 70/91/74 62/92/74
f 61/93/75 76/94/75 69/80/75
f 68/81/76 75/95/76 74/96/76 67/82/76
f 66/83/77 73/97/77 72/89/77 65/84/77
f 64/85/78 71/90/78 70/91/78 63/86/78
f 69/80/79 76/94/79 75/95/79 68/81/79
f 67/82/80 74/96/80 73/97/80 66/83/80
f 61/98/81 83/99/81 76/94/81
f 75/95/82 82/100/82 81/101/82 74/96/82
f 73/97/83 80/102/83 79/103/83 72/89/83
f 71/90/84 78/104/84 77/105/84 70/91/84
f 76/94/85 83/99/85 82/100/85 75/95/85
f 74/96/86 81/101/86 80/102/86 73/97/86
f 72/89/87 79/103/87 78/104/87 71/90/87
f 70/91/88 77/105/88 62/106/88
f 78/104/89 85/107/89 84/108/89 77/105/89
f 83/99/90 90/109/90 89/110/90 82/100/90
f 81/101/91 88/111/91 87/112/91 80/102/91
f 79/103/92 86/113/92 85/107/92 78/104/92
f 77/105/93 84/108/93 62/114/93
f 61/115/94 90/109/94 83/99/94
f 82/100/95 89/110/95 88/111/95 81/101/95
f 80/102/96 87/112/96 86/113/96 79/103/96
f 90/116/97 97/117/97 96/118/97 89/119/97
f 88/120/98 95/121/98 94/122/98 87/123/98
f 86/124/99 93/125/99 92/126/99 85/127/99
f 84/128/100 91/129/100 62/130/100
f 61/131/101 97/117/101 90/116/101
f 89/119/102 96/118/102 95/121/102 88/120/102
f 87/123/103 94/122/103 93/125/103 86/124/103
f 85/127/104 92/126/104 91/129/104 84/128/104
f 91/129/105 98/132/105 62/133/105
f 61/134/106 104/135/106 97/117/106
f 96/118/107 103/136/107 102/137/107 95/121/107
f 94/122/108 101/138/108 100/139/108 93/125/108
f 92/126/109 99/140/109 98/132/109 91/129/109
f 97/117/110 104/135/110 103/136/110 96/118/110
f 95/121/111 102/137/111 101/138/111 94/122/111
f 93/125/112 100/139/112 99/140/112 92/126/112
f 103/136/113 110/141/113 109/142/113 102/137/113
f 101/138/114 108/143/114 107/144/114 100/139/114
f 99/140/115 106/145/115 105/146/115 98/132/115
f 104/135/116 111/147/116 110/141/116 103/136/116
f 102/137/117 109/142/117 108/143/117 101/138/117
f 100/139/118 107/144/118 106/145/118 99/140/118
f 98/132/119 105/146/119 62/148/119
f 61/149/120 111/147/120 104/135/120
f 111/147/121 4/9/121 114/12/121 110/141/121
f 109/142/122 3/13/122 2/1/122 108/143/122
f 107/144/123 1/4/123 113/5/123 106/145/123
f 105/146/124 112/8/124 62/150/124
f 61/151/125 4/9/125 111/147/125
f 110/141/126 114/12/126 3/13/126 109/142/126
f 108/143/127 2/1/127 1/4/127 107/144/127
f 106/145/128 113/5/128 112/8/128 105/146/128
