# Blender 4.4.1
# www.blender.org
mtllib 7.mtl
o テキスト
v -0.039682 0.007377 0.050874
v 0.023911 0.149824 0.050874
v -0.051128 0.149824 0.050874
v -0.051128 0.173481 0.050874
v 0.061049 0.173481 0.050874
v -0.017552 -0.002289 0.050874
v -0.039682 0.007377 -0.050874
v 0.023911 0.149824 -0.050874
v -0.051128 0.149824 -0.050874
v -0.051128 0.173481 -0.050874
v 0.061049 0.173481 -0.050874
v -0.017552 -0.002289 -0.050874
v -0.039682 0.007377 -0.050874
v -0.039682 0.007377 0.050874
v 0.023911 0.149824 -0.050874
v 0.023911 0.149824 0.050874
v -0.051128 0.149824 -0.050874
v -0.051128 0.149824 0.050874
v -0.051128 0.173481 -0.050874
v -0.051128 0.173481 0.050874
v 0.061049 0.173481 -0.050874
v 0.061049 0.173481 0.050874
v -0.017552 -0.002289 -0.050874
v -0.017552 -0.002289 0.050874
vn -0.0000 -0.0000 1.0000
vn -0.0000 -0.0000 -1.0000
vn -0.9325 -0.3612 -0.0000
vn -0.8389 -0.5442 -0.0000
vn -0.7071 -0.7071 -0.0000
vn -0.7071 0.7071 -0.0000
vn 0.8391 0.5440 -0.0000
vn 0.3609 -0.9326 -0.0000
vt 0.400000 0.000000
vt 0.800000 0.000000
vt 0.600000 0.000000
vt 0.200000 0.000000
vt 1.000000 0.000000
vt 0.000000 0.000000
vt 0.000000 1.000000
vt 0.166667 1.000000
vt 0.166667 0.000000
vt 0.333333 1.000000
vt 0.333333 0.000000
vt 0.500000 1.000000
vt 0.500000 0.000000
vt 0.666667 1.000000
vt 0.666667 0.000000
vt 0.833333 1.000000
vt 0.833333 0.000000
vt 1.000000 1.000000
s 0
usemtl マテリアル
f 3/1/1 5/2/1 4/3/1
f 3/1/1 2/4/1 5/2/1
f 2/4/1 6/5/1 5/2/1
f 1/6/1 6/5/1 2/4/1
f 9/1/2 10/3/2 11/2/2
f 9/1/2 11/2/2 8/4/2
f 8/4/2 11/2/2 12/5/2
f 7/6/2 8/4/2 12/5/2
s 1
f 14/7/3 16/8/4 15/9/4 13/6/3
f 16/8/4 18/10/5 17/11/5 15/9/4
f 18/10/5 20/12/6 19/13/6 17/11/5
f 20/12/6 22/14/7 21/15/7 19/13/6
f 22/14/7 24/16/8 23/17/8 21/15/7
f 24/16/8 14/18/3 13/5/3 23/17/8
