# Blender 4.4.1
# www.blender.org
mtllib 7.mtl
o テキスト
v -0.156000 0.100000 0.271000
v 0.094000 0.100000 -0.289000
v -0.201000 0.100000 -0.289000
v -0.201000 0.100000 -0.382000
v 0.240000 0.100000 -0.382000
v -0.069000 0.100000 0.309000
v -0.156000 -0.100000 0.271000
v 0.094000 -0.100000 -0.289000
v -0.201000 -0.100000 -0.289000
v -0.201000 -0.100000 -0.382000
v 0.240000 -0.100000 -0.382000
v -0.069000 -0.100000 0.309000
v -0.156000 -0.100000 0.271000
v -0.156000 0.100000 0.271000
v 0.094000 -0.100000 -0.289000
v 0.094000 0.100000 -0.289000
v -0.201000 -0.100000 -0.289000
v -0.201000 0.100000 -0.289000
v -0.201000 -0.100000 -0.382000
v -0.201000 0.100000 -0.382000
v 0.240000 -0.100000 -0.382000
v 0.240000 0.100000 -0.382000
v -0.069000 -0.100000 0.309000
v -0.069000 0.100000 0.309000
vn -0.0000 1.0000 -0.0000
vn -0.0000 -1.0000 -0.0000
vn -0.8389 -0.0000 0.5443
vn -0.9325 -0.0000 0.3612
vn -0.7071 -0.0000 0.7071
vn -0.8389 -0.0000 0.5442
vn -0.7071 -0.0000 -0.7071
vn 0.8391 -0.0000 -0.5439
vn 0.3609 -0.0000 0.9326
vn 0.8391 -0.0000 -0.5440
vt 0.400000 0.000000
vt 0.800000 0.000000
vt 0.600000 0.000000
vt 0.200000 0.000000
vt 1.000000 0.000000
vt 0.000000 0.000000
vt 0.166667 1.000000
vt 0.000000 1.000000
vt 0.333333 1.000000
vt 0.166667 0.000000
vt 0.500000 1.000000
vt 0.333333 0.000000
vt 0.666667 1.000000
vt 0.500000 0.000000
vt 0.833333 1.000000
vt 0.666667 0.000000
vt 1.000000 1.000000
vt 0.833333 0.000000
s 0
usemtl マテリアル
f 3/1/1 5/2/1 4/3/1
f 3/1/1 2/4/1 5/2/1
f 2/4/1 6/5/1 5/2/1
f 1/6/1 6/5/1 2/4/1
f 9/1/2 10/3/2 11/2/2
f 9/1/2 11/2/2 8/4/2
f 8/4/2 11/2/2 12/5/2
f 7/6/2 8/4/2 12/5/2
s 1
f 16/7/3 13/6/4 14/8/4
f 18/9/5 15/10/6 16/7/3
f 20/11/7 17/12/5 18/9/5
f 22/13/8 19/14/7 20/11/7
f 24/15/9 21/16/10 22/13/8
f 14/17/4 23/18/9 24/15/9
f 16/7/3 15/10/6 13/6/4
f 18/9/5 17/12/5 15/10/6
f 20/11/7 19/14/7 17/12/5
f 22/13/8 21/16/10 19/14/7
f 24/15/9 23/18/9 21/16/10
f 14/17/4 13/5/4 23/18/9
