# Blender 4.4.1
# www.blender.org
mtllib AzarasiOpen.mtl
o Cube
v 0.067491 0.501881 -0.793841
v 0.067491 0.457510 -0.804188
v 0.202008 0.012479 0.488098
v 0.202008 -0.012479 0.488098
v 0.200812 -0.074645 -0.288469
v 0.225083 -0.074645 -0.116521
v 0.116269 0.092167 0.312811
v 0.055528 0.012479 0.594842
v 0.055528 -0.012479 0.594842
v 0.116269 -0.092167 0.312811
v 0.225083 -0.124967 -0.116521
v 0.200812 -0.124967 -0.288469
v 0.469676 -0.014482 -0.456846
v 0.157173 -0.012479 0.594842
v 0.212400 0.321829 -0.418292
v 0.157173 0.012479 0.594842
v 0.305417 0.080268 -0.529423
v 0.034422 0.057954 0.377171
v 0.199247 0.481284 -0.561037
v 0.034422 -0.057954 0.377171
v 0.054417 0.479509 -0.836231
v 0.135125 -0.057954 0.377171
v 0.054417 0.523879 -0.825885
v 0.135125 0.057954 0.377171
v 0.000319 -0.114473 -0.458742
v 0.033753 0.012479 0.488098
v 0.033753 -0.012479 0.488098
v 0.000319 0.401443 -0.411146
v 0.000000 -0.167630 -0.312811
v 0.000000 -0.167756 0.000000
v 0.000000 -0.104059 0.312811
v 0.000000 0.197436 -0.312811
v 0.000000 0.205664 0.000000
v 0.000000 0.092167 0.312811
v -0.001012 -0.260441 -0.863126
v 0.000319 0.514615 -0.548207
v 0.000319 0.457510 -0.804188
v 0.000319 0.524932 -0.784969
v 0.000319 0.483865 -0.847548
v 0.000319 0.528235 -0.837201
v 0.195321 0.142374 -0.312811
v 0.230574 0.111801 0.000000
v 0.189706 -0.104925 -0.000000
v 0.195321 -0.142374 -0.312811
v 0.257924 -0.085153 -0.289908
v 0.283852 -0.085153 -0.244231
v 0.283852 -0.124967 -0.244231
v 0.257924 -0.124967 -0.289908
v -0.066853 0.501881 -0.793841
v -0.066853 0.457510 -0.804188
v -0.202008 0.012479 0.488098
v -0.202008 -0.012479 0.488098
v -0.200812 -0.074645 -0.288469
v -0.225083 -0.074645 -0.116521
v -0.116269 0.092167 0.312811
v -0.055528 0.012479 0.594842
v -0.055528 -0.012479 0.594842
v -0.116269 -0.092167 0.312811
v -0.225083 -0.124967 -0.116521
v -0.200812 -0.124967 -0.288469
v -0.469037 -0.014482 -0.456846
v -0.157173 -0.012479 0.594842
v -0.211762 0.321829 -0.418292
v -0.157173 0.012479 0.594842
v -0.311029 0.080268 -0.529423
v -0.034422 0.057954 0.377171
v -0.198608 0.481284 -0.561037
v -0.034422 -0.057954 0.377171
v -0.053778 0.479509 -0.836231
v -0.135125 -0.057954 0.377171
v -0.053778 0.523879 -0.825885
v -0.135125 0.057954 0.377171
v -0.033753 0.012479 0.488098
v -0.033753 -0.012479 0.488098
v -0.195321 0.142374 -0.312811
v -0.230574 0.111801 0.000000
v -0.189706 -0.104925 -0.000000
v -0.195321 -0.142374 -0.312811
v -0.257924 -0.085153 -0.289908
v -0.283852 -0.085153 -0.244231
v -0.283852 -0.124967 -0.244231
v -0.257924 -0.124967 -0.289908
v 0.426537 -0.055429 -0.487093
v 0.364653 -0.096163 -0.556190
v 0.300299 -0.136896 -0.625287
v 0.249752 -0.177629 -0.694384
v 0.229286 -0.218363 -0.763481
v 0.209808 -0.198074 -0.794025
v 0.213084 -0.175837 -0.742210
v 0.231571 -0.141888 -0.681579
v 0.259132 -0.107813 -0.605282
v 0.287006 -0.034220 -0.538088
v -0.425899 -0.055429 -0.487093
v -0.364015 -0.096163 -0.556190
v -0.299661 -0.136896 -0.625287
v -0.249113 -0.177629 -0.694384
v -0.228647 -0.218363 -0.763481
v 0.000319 -0.263299 -0.750533
v 0.000319 -0.222566 -0.681436
v 0.000319 -0.181832 -0.612338
v 0.000319 -0.141099 -0.543241
v 0.000319 -0.100365 -0.474144
v -0.291521 -0.034220 -0.538088
v -0.262401 -0.107813 -0.605282
v -0.233702 -0.141888 -0.681579
v -0.214459 -0.175837 -0.742210
v -0.211048 -0.198074 -0.794025
v 0.369836 0.109435 -0.668435
v -0.376694 0.109435 -0.668435
v 0.286592 -0.005289 -0.782657
v 0.223160 -0.077075 -0.914097
v -0.292267 -0.005289 -0.782657
v -0.228139 -0.077075 -0.914097
vn -0.0000 -0.9253 0.3793
vn 0.8564 -0.0000 -0.5164
vn 0.2085 0.9451 0.2514
vn 0.5321 0.1689 0.8296
vn 0.9084 -0.0000 0.4180
vn 0.9536 -0.0972 0.2851
vn 0.1708 -0.9003 -0.4004
vn 0.2226 -0.9731 0.0600
vn 0.2347 -0.9612 0.1450
vn 0.9220 -0.0000 0.3873
vn 0.0469 -0.8561 0.5147
vn -0.0000 -0.0000 1.0000
vn -0.0000 1.0000 -0.0000
vn -0.1913 -0.9813 -0.0226
vn 0.8762 0.4339 -0.2097
vn -0.8818 -0.0000 0.4716
vn -0.0000 0.8830 0.4694
vn 0.8571 0.1813 -0.4822
vn 0.2167 0.2217 -0.9507
vn 0.9405 0.0771 -0.3308
vn 0.0204 -0.8400 -0.5422
vn -1.0000 -0.0000 -0.0060
vn 0.2078 0.9782 0.0061
vn 0.2260 0.7030 0.6743
vn 0.9597 -0.0000 -0.2812
vn 0.2532 0.9358 0.2454
vn 0.3300 0.9438 0.0151
vn 0.1664 0.4569 0.8738
vn -0.9798 -0.0000 0.1999
vn -0.0000 -1.0000 -0.0000
vn -0.0000 0.9253 0.3793
vn 0.9924 0.0274 -0.1201
vn 0.1002 -0.9923 0.0728
vn 0.9755 -0.0000 -0.2201
vn 0.9565 -0.1464 0.2524
vn 0.8697 -0.0000 -0.4937
vn -0.0252 -0.0000 -0.9997
vn 0.1427 0.9892 -0.0329
vn -0.8564 -0.0000 -0.5164
vn -0.2085 0.9451 0.2514
vn -0.5332 0.1694 0.8288
vn -0.9084 -0.0000 0.4180
vn -0.9536 -0.0972 0.2851
vn -0.1707 -0.9000 -0.4010
vn -0.2226 -0.9731 0.0600
vn -0.2347 -0.9612 0.1450
vn -0.9220 -0.0000 0.3873
vn -0.0469 -0.8561 0.5147
vn -0.8792 0.4425 -0.1765
vn 0.8818 -0.0000 0.4716
vn -0.8547 0.1927 -0.4820
vn -0.2167 0.2217 -0.9507
vn -0.9405 0.0771 -0.3308
vn -0.0204 -0.8400 -0.5422
vn 1.0000 -0.0000 -0.0060
vn -0.2078 0.9782 0.0061
vn -0.2260 0.7030 0.6743
vn -0.9597 -0.0000 -0.2812
vn -0.2532 0.9358 0.2454
vn -0.3300 0.9438 0.0151
vn -0.1665 0.4573 0.8736
vn 0.9798 -0.0000 0.1999
vn -0.9924 0.0274 -0.1201
vn -0.1002 -0.9923 0.0728
vn -0.9755 -0.0000 -0.2201
vn -0.9565 -0.1464 0.2524
vn -0.8697 -0.0000 -0.4937
vn 0.0252 -0.0000 -0.9997
vn -0.1427 0.9892 -0.0329
vn -0.0000 -0.5887 -0.8083
vn 0.4039 -0.6221 -0.6708
vn -0.4050 -0.6367 -0.6563
vn -0.0000 0.7423 -0.6700
vn 0.1910 -0.9812 -0.0272
vn 0.1518 -0.9080 0.3904
vn 0.1150 -0.8774 0.4657
vn 0.1368 -0.8799 0.4550
vn 0.1646 -0.8749 0.4555
vn 0.1871 -0.8581 0.4782
vn -0.0000 0.0755 -0.9971
vn -0.0000 0.6743 -0.7385
vn -0.0000 0.9131 -0.4078
vn -0.0000 0.8725 -0.4886
vn -0.0000 0.9190 -0.3944
vn 0.5171 -0.6339 -0.5751
vn -0.3325 0.6014 -0.7265
vn 0.7693 -0.4555 -0.4480
vn -0.6203 0.4876 -0.6144
vn -0.2992 0.8455 0.4424
vn -0.3579 0.8654 0.3506
vn 0.3194 0.6119 -0.7236
vn -0.7451 -0.3803 -0.5479
vn 0.5917 0.5213 -0.6150
vn 0.1444 -0.7093 -0.6900
vn -0.1518 -0.9080 0.3904
vn -0.1150 -0.8774 0.4657
vn -0.1368 -0.8799 0.4550
vn -0.1646 -0.8749 0.4555
vn -0.1871 -0.8581 0.4782
vn 0.9032 0.1833 -0.3882
vn -0.1484 -0.7113 -0.6870
vn -0.7659 -0.4751 -0.4333
vn -0.4975 0.7644 0.4101
vn 0.9681 -0.1619 -0.1913
vn 0.3079 0.8453 0.4367
vn 0.3146 -0.6859 -0.6562
vn -0.9927 0.1205 0.0111
vn 0.8765 0.4658 0.1217
vn -0.5263 -0.6399 -0.5599
vn -0.9068 0.1749 -0.3835
vn -0.9666 -0.1853 -0.1771
vn 0.5096 0.7629 0.3978
vn 0.3500 0.8709 0.3449
vn -0.8866 0.4465 0.1208
vn 0.9897 0.1434 0.0036
vn -0.3289 -0.6882 -0.6467
vn 0.7413 -0.3648 -0.5634
vt 0.654204 0.099428
vt 0.608983 0.099428
vt 0.578949 0.045814
vt 0.654504 0.045814
vt 0.790531 0.716013
vt 0.842467 0.716013
vt 0.820436 0.768408
vt 0.809252 0.768408
vt 0.890138 0.020649
vt 0.858796 0.022782
vt 0.864709 0.005343
vt 0.888648 -0.000000
vt -0.000000 0.069687
vt 0.135984 0.011084
vt 0.133497 0.094046
vt 0.115558 0.161222
vt 0.779063 0.499053
vt 0.756515 0.499053
vt 0.754443 0.444415
vt 0.772283 0.444415
vt 0.766851 0.549668
vt 0.862766 0.551379
vt 0.858173 0.686449
vt 0.775576 0.686449
vt 0.278895 0.689920
vt 0.308193 0.900630
vt 0.221698 0.777432
vt 0.214137 0.689736
vt 0.669661 0.410047
vt 0.581952 0.406712
vt 0.584474 0.267510
vt 0.669661 0.275807
vt 0.617450 0.131569
vt 0.669661 0.133139
vt 0.822042 0.814255
vt 0.810858 0.814255
vt 0.320118 0.633750
vt 0.314155 0.632490
vt 0.314155 0.587251
vt 0.320118 0.588511
vt 0.131668 0.429973
vt 0.206450 0.433918
vt 0.198015 0.474116
vt 0.152838 0.471732
vt 0.701101 0.620811
vt 0.700725 0.517994
vt 0.749048 0.620213
vt 0.876639 0.659769
vt 0.975943 0.505278
vt 0.981782 0.601266
vt 0.878074 0.721086
vt 0.797124 0.337488
vt 0.817524 0.306694
vt 0.869554 0.306694
vt 0.885208 0.337488
vt 0.172754 0.346335
vt 0.224431 0.349062
vt 0.207726 0.380870
vt 0.162968 0.378509
vt 0.881948 0.439947
vt 0.897971 0.427255
vt 0.883276 0.361788
vt 0.865658 0.361772
vt 0.863563 0.337488
vt 0.881182 0.337504
vt 0.876639 0.422739
vt 0.892663 0.410047
vt 0.519795 0.838256
vt 0.519795 0.808093
vt 0.542197 0.808099
vt 0.537106 0.832389
vt 0.838131 0.257424
vt 0.849334 0.257424
vt 0.897127 0.113136
vt 0.806500 0.116220
vt 0.895761 0.192287
vt 0.797124 0.208590
vt 0.119545 0.219728
vt 0.227939 0.202991
vt 0.223778 0.085637
vt 0.235344 -0.000000
vt 0.838054 0.208590
vt 0.849258 0.208590
vt 0.599082 0.000000
vt 0.644726 0.000000
vt 0.779303 0.421160
vt 0.876639 0.410047
vt 0.579486 0.393967
vt 0.568588 0.320167
vt 0.756754 0.421160
vt 0.749048 0.410047
vt 0.755078 0.422908
vt 0.772917 0.422908
vt 0.553840 0.394584
vt 0.542197 0.374980
vt 0.359675 0.706488
vt 0.376016 0.706228
vt 0.372604 0.731933
vt 0.359675 0.732139
vt 0.831514 0.337488
vt 0.831514 0.403084
vt 0.797124 0.359696
vt 0.805765 0.341564
vt 0.685118 0.099428
vt 0.684817 0.045814
vt 0.760372 0.045814
vt 0.730338 0.099428
vt 0.390164 0.587839
vt 0.353435 0.621598
vt 0.343049 0.617395
vt 0.341933 0.568322
vt 0.912864 0.005343
vt 0.918589 0.022782
vt 0.516755 0.216257
vt 0.542197 0.314351
vt 0.423710 0.266404
vt 0.367001 0.191747
vt 0.481362 0.381831
vt 0.507987 0.327340
vt 0.524554 0.334044
vt 0.502301 0.390305
vt 0.473894 0.437109
vt 0.414989 0.568310
vt 0.338285 0.537271
vt 0.384238 0.398034
vt 0.221698 0.602015
vt 0.308193 0.479103
vt 0.754848 0.267510
vt 0.757369 0.406712
vt 0.721871 0.131569
vt 0.334891 0.668352
vt 0.324505 0.664149
vt 0.314155 0.588511
vt 0.314155 0.633750
vt 0.308193 0.632490
vt 0.308193 0.587251
vt 0.311235 0.439446
vt 0.292550 0.479103
vt 0.247374 0.476720
vt 0.236453 0.435501
vt 0.487503 0.180424
vt 0.324505 0.106995
vt 0.749048 0.814255
vt 0.836974 0.814255
vt 0.822828 0.841589
vt 0.770891 0.841589
vt 0.276107 0.351788
vt 0.283081 0.384846
vt 0.238323 0.382485
vt 0.373620 0.019277
vt 0.353416 0.016062
vt 0.881182 0.386088
vt 0.863563 0.386072
vt 0.349486 -0.000000
vt 0.369691 0.003214
vt 0.519795 0.777929
vt 0.537106 0.783804
vt 0.802736 0.891212
vt 0.791553 0.891212
vt 0.983575 0.116220
vt 0.985907 0.208590
vt 0.324505 0.230541
vt 0.307120 0.103207
vt 0.324505 0.021030
vt 0.803667 0.938024
vt 0.792483 0.938024
vt 0.694595 0.000000
vt 0.740239 0.000000
vt 0.509988 0.312615
vt 0.759835 0.393967
vt 0.770734 0.320167
vt 0.530928 0.321089
vt 0.531907 0.316888
vt 0.515340 0.310184
vt 0.797124 0.374980
vt 0.785481 0.394584
vt 0.359675 0.706537
vt 0.359675 0.732186
vt 0.346747 0.731942
vt 0.343335 0.706228
vt 0.855149 0.345388
vt 0.863563 0.365376
vt 0.831514 0.404857
vt 0.149943 0.974992
vt 0.235093 0.918028
vt 0.235093 0.930563
vt 0.149943 0.859955
vt 0.235093 0.905493
vt 0.851230 0.907884
vt 0.836974 0.919665
vt 0.542197 0.831575
vt 0.558514 0.839442
vt 0.563201 0.933812
vt 0.090745 0.900254
vt 0.090745 0.821716
vt 0.108068 0.861056
vt 0.700725 0.723628
vt 0.556214 0.620811
vt 0.560962 0.620811
vt 0.560586 0.812203
vt 0.595997 0.620811
vt 0.595621 0.784415
vt 0.631032 0.620811
vt 0.630656 0.755517
vt 0.666066 0.620811
vt 0.665690 0.732818
vt 0.019077 0.918911
vt 0.019077 0.803874
vt 0.035646 0.807331
vt 0.035646 0.915292
vt 0.054238 0.812533
vt 0.054238 0.909859
vt 0.068670 0.817667
vt 0.068670 0.904494
vt 0.081066 0.821111
vt 0.081066 0.900897
vt 0.970569 0.410024
vt 0.940961 0.390660
vt 0.970569 0.317748
vt 0.031936 0.940384
vt 0.046339 0.928829
vt 0.143559 0.732287
vt 0.115594 0.707384
vt 0.143559 0.619501
vt 0.060742 0.916814
vt 0.075144 0.907374
vt 0.097138 0.708904
vt 0.058726 0.736931
vt 0.058726 0.624422
vt 0.745371 0.949214
vt 0.699644 0.878255
vt 0.745371 0.831575
vt 0.031937 0.781307
vt 0.046339 0.792849
vt 1.000000 0.920804
vt 0.978876 0.915597
vt 1.000000 0.814255
vt 0.060742 0.804852
vt 0.075144 0.814279
vt 0.940961 0.321547
vt 0.885208 0.284611
vt 0.940961 0.208590
vt 0.542197 0.410047
vt 0.560586 0.429419
vt 0.595621 0.457207
vt 0.630656 0.486105
vt 0.665690 0.508804
vt 0.914217 0.775981
vt 0.876639 0.811903
vt 0.876639 0.721086
vt 0.699644 0.926180
vt 0.634906 0.926180
vt 0.695312 0.831575
vt 0.099783 0.580614
vt 0.071930 0.597952
vt 0.071930 0.494001
vt 0.145238 0.584579
vt 0.132122 0.604483
vt 0.132122 0.496462
vt 0.970356 0.317748
vt 0.940961 0.296246
vt 0.970356 0.208590
vt 0.058726 0.737634
vt 0.018456 0.708060
vt 0.058726 0.624422
vt 0.927325 0.898710
vt 0.188306 0.573261
vt 0.167972 0.588339
vt 0.167972 0.500753
vt 0.944771 0.814012
vt 0.914217 0.793618
vt 0.944771 0.721086
vt 0.973773 0.794811
vt 0.944771 0.813217
vt 0.944771 0.721086
vt 0.921819 0.403905
vt 0.885209 0.367774
vt 0.921819 0.321547
vt 0.187586 0.715362
vt 0.158324 0.734247
vt 0.158324 0.628113
vt 0.323019 0.587251
vt 0.308193 0.566989
vt 0.323019 0.479103
vt 0.978876 0.858078
vt 0.927325 0.932773
vt 0.927325 0.814255
vt 0.058298 0.567795
vt 0.027190 0.590867
vt 0.027190 0.501383
vt 0.049854 0.479160
vt 0.029578 0.464222
vt 0.049854 0.390018
vt 0.634906 0.831575
vt 0.993584 0.409944
vt 0.970569 0.410024
vt 0.970569 0.297799
s 0
usemtl Material
f 20/1/1 22/2/1 4/3/1 27/4/1
f 22/5/2 24/6/2 3/7/2 4/8/2
f 38/9/3 1/10/3 23/11/3 40/12/3
f 13/13/4 15/14/4 41/15/4 44/16/4
f 6/17/5 11/18/5 47/19/5 46/20/5
f 43/21/6 42/22/6 7/23/6 10/24/6
f 25/25/7 13/26/7 44/27/7 29/28/7
f 29/29/8 44/30/8 43/31/8 30/32/8
f 30/32/9 43/31/9 10/33/9 31/34/9
f 4/8/10 3/7/10 16/35/10 14/36/10
f 31/34/11 10/33/11 22/2/11 20/1/11
f 14/37/12 16/38/12 8/39/12 9/40/12
f 3/41/13 26/42/13 8/43/13 16/44/13
f 98/45/14 97/46/14 35/47/14
f 17/48/15 19/49/15 15/50/15 13/51/15
f 31/52/16 20/53/16 18/54/16 34/55/16
f 7/56/17 34/57/17 18/58/17 24/59/17
f 2/60/18 1/61/18 19/49/18 17/48/18
f 39/62/19 40/63/19 23/64/19 21/65/19
f 1/61/20 2/60/20 21/66/20 23/67/20
f 2/68/21 37/69/21 39/70/21 21/71/21
f 20/53/22 27/72/22 26/73/22 18/54/22
f 1/10/23 38/9/23 36/74/23 19/75/23
f 19/75/24 36/74/24 28/76/24 15/77/24
f 10/24/25 7/23/25 24/6/25 22/5/25
f 42/78/26 33/79/26 34/57/26 7/56/26
f 41/15/27 32/80/27 33/79/27 42/78/27
f 15/14/28 28/81/28 32/80/28 41/15/28
f 26/73/29 27/72/29 9/82/29 8/83/29
f 27/4/30 4/3/30 14/84/30 9/85/30
f 24/59/31 18/58/31 26/42/31 3/41/31
f 6/17/32 5/86/32 41/87/32 42/22/32
f 12/88/33 11/89/33 43/31/33 44/30/33
f 5/86/34 12/90/34 44/91/34 41/87/34
f 11/18/35 6/17/35 42/22/35 43/21/35
f 48/92/36 45/93/36 46/20/36 47/19/36
f 11/89/30 12/88/30 48/94/30 47/95/30
f 12/96/37 5/97/37 45/98/37 48/99/37
f 5/100/38 6/101/38 46/102/38 45/103/38
f 68/104/1 74/105/1 52/106/1 70/107/1
f 70/108/39 52/109/39 51/110/39 72/111/39
f 38/9/40 40/12/40 71/112/40 49/113/40
f 61/114/41 78/115/41 75/116/41 63/117/41
f 54/118/42 80/119/42 81/120/42 59/121/42
f 77/122/43 58/123/43 55/124/43 76/125/43
f 25/25/44 29/28/44 78/126/44 61/127/44
f 29/29/45 30/32/45 77/128/45 78/129/45
f 30/32/46 31/34/46 58/130/46 77/128/46
f 52/109/47 62/131/47 64/132/47 51/110/47
f 31/34/48 68/104/48 70/107/48 58/130/48
f 62/133/12 57/134/12 56/135/12 64/136/12
f 51/137/13 64/138/13 56/139/13 73/140/13
f 65/141/49 61/114/49 63/117/49 67/142/49
f 31/143/50 34/144/50 66/145/50 68/146/50
f 55/147/17 72/148/17 66/149/17 34/57/17
f 50/150/51 65/141/51 67/142/51 49/151/51
f 39/62/52 69/152/52 71/153/52 40/63/52
f 49/151/53 71/154/53 69/155/53 50/150/53
f 50/156/54 69/157/54 39/70/54 37/69/54
f 68/146/55 66/145/55 73/158/55 74/159/55
f 49/113/56 67/160/56 36/74/56 38/9/56
f 67/160/57 63/161/57 28/76/57 36/74/57
f 58/123/58 70/108/58 72/111/58 55/124/58
f 76/162/59 55/147/59 34/57/59 33/79/59
f 75/163/60 76/162/60 33/79/60 32/80/60
f 63/164/61 75/163/61 32/80/61 28/81/61
f 73/158/62 56/165/62 57/166/62 74/159/62
f 74/105/30 57/167/30 62/168/30 52/106/30
f 72/148/31 51/137/31 73/140/31 66/149/31
f 54/118/63 76/125/63 75/116/63 53/169/63
f 60/170/64 78/129/64 77/128/64 59/171/64
f 53/169/65 75/116/65 78/115/65 60/172/65
f 59/121/66 77/122/66 76/125/66 54/118/66
f 82/173/67 81/120/67 80/119/67 79/174/67
f 59/171/30 81/175/30 82/176/30 60/170/30
f 60/177/68 82/178/68 79/179/68 53/180/68
f 53/100/69 79/181/69 80/182/69 54/183/69
f 17/184/70 37/185/70 2/186/70
f 65/187/70 50/188/70 37/185/70
f 37/185/70 17/184/70 65/187/70
f 88/189/71 87/190/71 35/144/71
f 97/191/72 107/192/72 35/193/72
f 107/194/73 88/195/73 35/196/73
f 87/197/74 98/45/74 35/47/74
f 13/191/75 25/198/75 102/199/75 83/200/75
f 83/200/76 102/199/76 101/201/76 84/202/76
f 84/202/77 101/201/77 100/203/77 85/204/77
f 85/204/78 100/203/78 99/205/78 86/206/78
f 86/206/79 99/205/79 98/45/79 87/197/79
f 65/207/80 17/208/80 92/209/80 103/210/80
f 103/210/81 92/209/81 91/211/81 104/212/81
f 104/212/82 91/211/82 90/213/82 105/214/82
f 105/214/83 90/213/83 89/215/83 106/216/83
f 106/216/84 89/215/84 88/195/84 107/194/84
f 85/217/85 90/218/85 110/219/85
f 93/220/86 103/210/86 104/212/86 94/221/86
f 84/222/87 85/223/87 110/224/87
f 95/225/88 105/214/88 106/216/88 96/226/88
f 91/227/89 84/228/89 110/229/89
f 61/230/90 65/231/90 109/232/90
f 92/209/91 83/233/91 84/234/91 91/211/91
f 93/235/92 61/236/92 109/237/92
f 90/213/93 85/238/93 86/239/93 89/215/93
f 83/240/94 92/241/94 108/242/94
f 25/198/95 61/243/95 93/244/95 102/199/95
f 102/199/96 93/244/96 94/245/96 101/201/96
f 101/201/97 94/245/97 95/246/97 100/203/97
f 100/203/98 95/246/98 96/247/98 99/205/98
f 99/205/99 96/247/99 97/46/99 98/45/99
f 65/248/100 103/249/100 109/250/100
f 103/251/101 93/252/101 109/253/101
f 95/254/102 94/255/102 112/256/102
f 89/257/103 86/258/103 111/259/103
f 86/260/104 87/261/104 111/262/104
f 94/263/105 104/264/105 112/265/105
f 87/190/106 88/189/106 111/266/106
f 88/267/107 89/268/107 111/269/107
f 104/270/108 105/271/108 112/272/108
f 105/273/109 95/274/109 112/275/109
f 92/276/110 17/277/110 108/278/110
f 97/279/111 96/280/111 113/281/111
f 96/282/112 106/283/112 113/284/112
f 17/285/113 13/286/113 108/287/113
f 90/288/114 91/289/114 110/290/114
f 106/291/115 107/292/115 113/293/115
f 107/192/116 97/191/116 113/294/116
f 13/295/117 83/296/117 108/297/117
