# Blender 4.4.1
# www.blender.org
mtllib enemy.mtl
o 立方体
v 0.782387 0.000000 0.253699
v -0.000000 0.782387 0.253699
v -0.782387 0.000000 0.253699
v -0.000000 -0.782387 0.252670
v 0.368821 0.184411 -0.529718
v 0.184410 0.368821 -0.529718
v 0.184411 0.368821 -0.178320
v 0.368821 0.184410 -0.178320
v -0.368821 -0.184411 -0.178320
v -0.184410 -0.368821 -0.178320
v -0.368821 -0.184411 -0.529718
v -0.184410 -0.368821 -0.529718
v 0.184411 -0.368821 -0.178320
v 0.368821 -0.184410 -0.178320
v -0.184411 0.368821 -0.178320
v -0.368821 0.184410 -0.178320
v 0.368821 -0.184411 -0.529718
v 0.184410 -0.368821 -0.529718
v -0.368821 0.184411 -0.529718
v -0.184410 0.368821 -0.529718
v -0.000000 0.000000 -0.864571
v 0.130398 0.130398 -0.043313
v 0.130398 -0.130398 -0.043313
v -0.130398 0.130398 -0.043313
v -0.130398 -0.130398 -0.043313
vn 0.9133 0.4073 -0.0000
vn -0.4927 -0.0000 0.8702
vn -0.4073 -0.9133 -0.0000
vn -0.0000 0.6722 -0.7404
vn 0.9133 -0.4073 -0.0000
vn -0.9133 0.4073 -0.0000
vn 0.8843 -0.0000 -0.4668
vn 0.4598 0.4598 -0.7597
vn -0.9133 -0.4073 -0.0000
vn -0.7071 -0.7071 -0.0000
vn -0.0000 0.7215 0.6924
vn -0.0000 -0.4927 0.8702
vn 0.4073 0.9133 -0.0000
vn 0.7071 0.7071 -0.0000
vn 0.3866 0.3866 0.8373
vn -0.0000 -0.0000 1.0000
vn -0.7224 -0.0000 0.6915
vn 0.3866 -0.3866 0.8373
vn -0.4598 -0.4598 -0.7597
vn -0.0000 -0.8841 -0.4673
vn 0.4598 -0.4598 -0.7597
vn -0.4073 0.9133 -0.0000
vn -0.7071 0.7071 -0.0000
vn 0.4073 -0.9133 -0.0000
vn 0.7071 -0.7071 -0.0000
vn -0.6722 -0.0000 -0.7404
vn -0.4598 0.4598 -0.7597
vn -0.0000 0.4927 0.8702
vn 0.7224 -0.0000 0.6915
vn -0.0000 0.8843 -0.4668
vn 0.6722 -0.0000 -0.7404
vn -0.3866 -0.3866 0.8373
vn 0.4927 -0.0000 0.8702
vn -0.0000 -0.6722 -0.7404
vn -0.8843 -0.0000 -0.4668
vn -0.0000 -0.7224 0.6915
vn -0.3866 0.3866 0.8373
vt 0.181899 0.000127
vt 0.272785 0.272785
vt 0.181899 0.272785
vt 0.272785 0.454557
vt 0.181899 0.545443
vt 0.181899 0.454557
vt 0.272785 0.818101
vt 0.181899 0.818101
vt 0.454810 0.436661
vt 0.363924 0.527547
vt 0.363924 0.436661
vt 0.330520 0.172824
vt 0.617927 0.172824
vt 0.589186 0.259046
vt 0.330520 0.000127
vt 0.617927 0.000127
vt 0.589186 0.086349
vt 0.363924 0.436408
vt 0.454810 0.345522
vt 0.454811 0.436408
vt 0.273038 0.527547
vt 0.000127 0.545443
vt 0.091013 0.545443
vt 0.091013 0.818101
vt 0.000127 0.454557
vt 0.091013 0.454557
vt 0.000127 0.000127
vt 0.091013 0.000127
vt 0.091013 0.272785
vt 0.091013 0.363671
vt 0.181899 0.363671
vt 0.000127 0.363671
vt 0.000127 0.272785
vt 0.091013 0.908987
vt 0.000127 0.908987
vt 0.000127 0.818101
vt 0.273038 0.436408
vt 0.363924 0.345522
vt 0.273038 0.172571
vt 0.301779 0.086349
vt 0.560445 0.172571
vt 0.273038 0.345268
vt 0.301779 0.259046
vt 0.560445 0.345268
vt 0.272785 0.908987
vt 0.181899 0.908987
vt 0.272785 0.999873
vt 0.272785 0.363671
vt 0.272785 0.545443
vt 0.454810 0.527548
s 0
usemtl マテリアル
f 6/1/1 2/2/1 7/3/1
f 16/4/2 9/5/2 25/6/2
f 9/5/3 3/7/3 11/8/3
f 20/9/4 6/10/4 21/11/4
f 13/12/5 4/13/5 18/14/5
f 15/15/6 2/16/6 20/17/6
f 17/18/7 5/19/7 1/20/7
f 21/11/8 6/10/8 5/21/8
f 4/22/9 10/23/9 12/24/9
f 9/5/10 12/24/10 10/23/10
f 13/25/11 10/23/11 4/22/11
f 25/6/12 10/23/12 23/26/12
f 1/27/13 5/28/13 8/29/13
f 6/1/14 8/29/14 5/28/14
f 7/3/15 22/30/15 8/29/15
f 24/31/16 23/26/16 22/30/16
f 8/29/17 14/32/17 1/33/17
f 14/32/18 23/26/18 13/25/18
f 12/24/19 11/8/19 21/34/19
f 12/24/20 18/35/20 4/36/20
f 18/37/21 21/38/21 17/18/21
f 3/39/22 16/40/22 19/41/22
f 15/15/23 19/41/23 16/40/23
f 1/42/24 14/43/24 17/44/24
f 13/12/25 17/44/25 14/43/25
f 11/8/26 19/45/26 21/46/26
f 21/46/27 19/45/27 20/47/27
f 7/3/28 15/48/28 24/31/28
f 24/31/2 16/4/2 25/6/2
f 16/4/29 3/49/29 9/5/29
f 20/9/30 2/50/30 6/10/30
f 17/18/31 21/38/31 5/19/31
f 9/5/10 11/8/10 12/24/10
f 13/25/12 23/26/12 10/23/12
f 25/6/32 9/5/32 10/23/32
f 6/1/14 7/3/14 8/29/14
f 7/3/28 24/31/28 22/30/28
f 24/31/16 25/6/16 23/26/16
f 8/29/33 22/30/33 14/32/33
f 14/32/33 22/30/33 23/26/33
f 12/24/34 21/34/34 18/35/34
f 15/15/23 20/17/23 19/41/23
f 13/12/25 18/14/25 17/44/25
f 11/8/35 3/7/35 19/45/35
f 7/3/36 2/2/36 15/48/36
f 24/31/37 15/48/37 16/4/37
