# Blender 4.4.1
# www.blender.org
mtllib Ice.mtl
o ice
v -0.183549 -0.091238 0.071970
v -0.235449 0.238770 0.093263
v -0.180679 -0.091238 -0.078898
v -0.231319 0.236457 -0.100383
v -0.071970 -0.091238 -0.183549
v -0.093184 0.237613 -0.235878
v 0.078898 -0.091238 -0.180679
v 0.100046 0.234005 -0.229109
v 0.183549 -0.091238 -0.071970
v 0.233297 0.234421 -0.091483
v 0.180679 -0.091238 0.078898
v 0.235700 0.238262 0.102765
v 0.071970 -0.091238 0.183549
v 0.095486 0.252598 0.243769
v -0.078898 -0.091238 0.180679
v -0.100383 0.236550 0.230996
v -0.201617 0.248307 -0.075968
v -0.193338 0.248307 0.086565
v -0.090928 0.248307 -0.206849
v 0.137964 0.248307 -0.163777
v 0.224823 0.248307 -0.063508
v 0.212283 0.248307 0.106746
v 0.079674 0.248307 0.202208
v -0.075152 0.248307 0.190802
v -0.259011 0.234005 -0.113104
v -0.263139 0.234034 0.103183
v -0.103172 0.234005 -0.263125
v 0.113104 0.234005 -0.259011
v 0.263125 0.234005 -0.103172
v 0.259395 0.234165 0.113266
v 0.104239 0.238913 0.265930
v -0.113104 0.234005 0.259011
v -0.259011 0.274152 -0.113104
v -0.263125 0.274152 0.103172
v -0.103172 0.274152 -0.263125
v 0.113104 0.274152 -0.259011
v 0.263125 0.274152 -0.103172
v 0.261466 0.274152 0.114171
v 0.104176 0.274152 0.265752
v -0.113104 0.274152 0.259011
v -0.011507 0.556389 -0.019913
v -0.081501 0.521545 0.032043
v -0.029093 0.507633 -0.071792
v 0.032373 0.499118 -0.064157
v 0.086696 0.503011 -0.033954
v 0.041587 0.522384 0.034492
v 0.033054 0.514779 0.080478
v -0.026444 0.485711 0.073115
v -0.159438 0.488289 -0.069124
v -0.133093 0.470576 0.052701
v -0.048783 0.465886 -0.119664
v 0.052708 0.454288 -0.114213
v 0.133338 0.473145 -0.048556
v 0.127269 0.485285 0.066572
v 0.045148 0.482766 0.118809
v -0.052432 0.480345 0.106545
v 0.063347 0.351654 0.163518
v -0.075151 0.351344 0.172356
v 0.163012 0.351114 -0.064018
v 0.215058 0.356329 0.094069
v -0.058151 0.347944 -0.150101
v 0.083956 0.354095 -0.199390
v -0.157752 0.351346 0.061912
v -0.157383 0.351597 -0.068340
v 0.065580 0.421049 0.174942
v 0.146935 0.417343 -0.056077
v -0.060579 0.418598 -0.154576
v -0.148415 0.420101 0.058455
v -0.071666 0.420106 0.139297
v 0.176582 0.422382 0.078492
v 0.067032 0.417169 -0.153880
v -0.154539 0.422338 -0.067492
v -0.073685 0.295511 0.177663
v 0.225638 0.287194 0.098400
v 0.084369 0.285013 -0.204072
v -0.189403 0.297493 -0.075943
v 0.073724 0.306634 0.189380
v 0.194159 0.289764 -0.076589
v -0.080858 0.302941 -0.192294
v -0.180949 0.298445 0.076026
vn -0.9879 -0.1539 -0.0188
vn -0.6854 -0.1526 -0.7120
vn 0.0188 -0.1484 -0.9887
vn 0.7124 -0.1484 -0.6858
vn 0.9885 -0.1499 0.0188
vn 0.6839 -0.1657 0.7105
vn -0.0000 -1.0000 -0.0000
vn -0.0188 -0.1529 0.9881
vn -0.7121 -0.1519 0.6855
vn -0.1200 0.5035 0.8556
vn 0.0284 0.9221 -0.3860
vn -0.3801 0.8366 -0.3944
vn -0.1796 -0.9835 0.0217
vn -0.5624 0.8269 -0.0043
vn 0.0250 -0.9965 -0.0792
vn 0.0934 -0.9909 0.0970
vn -0.3408 0.8810 0.3281
vn -0.0318 -0.0000 0.9995
vn -0.6935 -0.0000 -0.7204
vn 0.9986 -0.0519 0.0076
vn -0.7204 0.0004 0.6935
vn -0.9998 -0.0000 -0.0190
vn 0.0190 -0.0000 -0.9998
vn 0.7014 0.0048 0.7127
vn 0.7204 -0.0000 -0.6935
vn 0.1252 -0.9848 -0.1207
vn 0.0874 -0.9962 0.0018
vn 0.2123 0.9471 -0.2407
vn 0.3436 0.9390 -0.0175
vn -0.4316 -0.8337 -0.3444
vn 0.2720 0.9344 0.2300
vn -0.0093 -0.9999 0.0120
vn -0.0080 0.9081 0.4188
vn 0.6799 0.6970 -0.2279
vn 0.7894 0.5818 -0.1957
vn 0.0119 0.7323 -0.6809
vn -0.9772 -0.0676 0.2015
vn -0.6949 0.2862 0.6597
vn 0.3740 0.6887 0.6211
vn 0.5769 0.2456 -0.7790
vn -0.5397 0.5830 -0.6073
vn -0.6306 0.7370 0.2435
vn -0.1238 0.7437 -0.6570
vn 0.1828 0.7025 -0.6878
vn 0.2675 0.7693 -0.5803
vn 0.5244 0.8492 -0.0619
vn 0.2310 0.8843 0.4058
vn -0.3944 0.6403 0.6592
vn 0.2959 0.8801 0.3713
vn -0.4224 0.7242 -0.5451
vn 0.6649 0.4584 -0.5897
vn 0.3405 0.5261 0.7792
vn -0.7131 0.4550 0.5333
vn -0.8605 0.5095 -0.0015
vn -0.3295 0.0619 -0.9421
vn 0.9751 0.1384 -0.1734
vn 0.0632 0.0961 0.9934
vn -0.6359 -0.0705 -0.7686
vn 0.7486 0.2551 -0.6120
vn 0.6501 -0.1437 0.7462
vn -0.7189 0.1319 0.6825
vn -0.9980 0.0395 0.0492
vn -0.3026 0.5030 -0.8096
vn 0.8542 0.4279 -0.2953
vn 0.0565 0.4303 0.9009
vn -0.0965 0.2697 0.9581
vn 0.9480 -0.3106 0.0698
vn 0.1438 -0.6289 -0.7641
vn -0.9692 0.2407 0.0524
vn -0.6502 0.3068 0.6951
vn 0.5684 0.2316 0.7895
vn 0.7129 0.3324 -0.6175
vn -0.7043 0.3011 -0.6429
vn -0.9879 -0.1541 -0.0192
vn -0.6909 -0.1569 -0.7057
vn 0.0317 -0.1551 -0.9874
vn 0.7106 -0.1497 -0.6875
vn 0.9864 -0.1641 -0.0090
vn 0.6900 -0.1704 0.7035
vn -0.0234 -0.9899 0.1397
vn -0.0503 -0.1690 0.9843
vn -0.7065 -0.1557 0.6903
vn -0.2008 0.6219 0.7569
vn 0.0108 0.9370 -0.3490
vn -0.2133 0.9309 -0.2964
vn -0.0138 -0.9999 0.0005
vn -0.4609 0.8868 -0.0339
vn 0.1038 -0.8274 -0.5519
vn 0.0628 -0.9965 0.0555
vn -0.3218 0.9048 0.2788
vn -0.0310 0.0050 0.9995
vn 0.9999 -0.0000 0.0172
vn -0.7204 -0.0000 0.6936
vn -0.9998 0.0003 -0.0191
vn 0.6930 -0.0522 0.7191
vn 0.0519 -0.9964 -0.0669
vn 0.1739 -0.9846 0.0155
vn 0.2780 0.9226 -0.2676
vn 0.4064 0.9137 0.0077
vn -0.1270 -0.9870 -0.0984
vn 0.3234 0.8846 0.3359
vn -0.0516 0.9603 0.2741
vn 0.0593 0.7902 0.6099
vn -0.4445 0.8934 0.0653
vn 0.0609 0.9702 -0.2345
vn 0.1825 0.6848 -0.7055
vn -0.0948 0.7999 0.5925
vn 0.9721 0.2333 0.0267
vn 0.1091 0.5726 -0.8125
vn -0.9540 0.2955 0.0516
vn -0.5141 0.5306 0.6739
vn 0.5451 0.5476 0.6349
vn 0.5537 0.6984 -0.4536
vn -0.4239 -0.0539 -0.9041
vn -0.4266 0.9039 0.0315
vn -0.1274 0.7729 -0.6216
vn 0.1213 0.7634 -0.6344
vn 0.2997 0.7539 -0.5846
vn 0.3968 0.9179 0.0017
vn 0.7772 0.5815 0.2404
vn -0.0406 0.9910 0.1275
vn -0.4577 0.6903 0.5603
vn -0.6559 0.4711 -0.5898
vn 0.8632 0.0393 -0.5033
vn 0.5217 0.1326 0.8428
vn -0.6862 0.0510 0.7256
vn -0.9100 0.4119 0.0480
vn 0.0212 0.6781 -0.7347
vn 0.8286 0.4798 -0.2886
vn -0.1054 0.4770 0.8726
vn -0.6785 0.0361 -0.7337
vn 0.7485 0.5082 -0.4260
vn 0.3689 0.4114 0.8335
vn -0.7608 0.3121 0.5690
vn -0.9909 0.1344 -0.0025
vn 0.0047 -0.0630 -0.9980
vn 0.9423 0.2548 -0.2171
vn -0.2476 -0.1496 0.9572
vn -0.0719 0.2072 0.9756
vn 0.8166 0.5603 -0.1387
vn -0.0400 0.2641 -0.9637
vn -0.9672 0.2493 0.0493
vn -0.6447 0.2235 0.7310
vn 0.5145 0.0073 0.8575
vn 0.7039 0.3480 -0.6192
vn -0.7501 0.1866 -0.6344
vt 0.000137 0.180343
vt 0.209883 0.105219
vt 0.056943 0.236033
vt 0.102481 0.302795
vt 0.338881 0.320892
vt 0.130942 0.381765
vt 0.144131 0.470587
vt 0.365437 0.457062
vt 0.137945 0.561430
vt 0.362165 0.602061
vt 0.110910 0.647471
vt 0.298288 0.191804
vt 0.358748 0.313588
vt 0.250587 0.859071
vt 0.063455 0.725741
vt 0.000137 0.795987
vt 0.657054 0.563622
vt 0.587377 0.731837
vt 0.419162 0.662160
vt 0.604152 0.216189
vt 0.654741 0.198327
vt 0.634260 0.224496
vt 0.491833 0.163903
vt 0.565435 0.000137
vt 0.588630 0.058679
vt 0.736579 0.047178
vt 0.765168 0.006432
vt 0.381509 0.605399
vt 0.851782 0.142871
vt 0.903358 0.140329
vt 0.339302 0.745900
vt 0.267399 0.872333
vt 0.283309 0.201050
vt 0.221343 0.093648
vt 0.855412 0.259745
vt 0.903358 0.329495
vt 0.291386 0.890533
vt 0.237517 0.076893
vt 0.320186 0.177155
vt 0.418887 0.452800
vt 0.409001 0.610385
vt 0.155751 0.978469
vt 0.176028 0.999863
vt 0.136332 0.000137
vt 0.385482 0.303557
vt 0.363262 0.755469
vt 0.387060 0.455056
vt 0.147771 0.955480
vt 0.120728 0.021286
vt 0.486183 0.313531
vt 0.419162 0.141430
vt 0.595469 0.425692
vt 0.424551 0.351999
vt 0.324240 0.739532
vt 0.760519 0.426482
vt 0.583541 0.493671
vt 0.792889 0.472489
vt 0.673743 0.243481
vt 0.674967 0.221399
vt 0.697391 0.244562
vt 0.740549 0.208883
vt 0.686891 0.191728
vt 0.702801 0.160541
vt 0.702716 0.300410
vt 0.721406 0.254452
vt 0.742602 0.265519
vt 0.651073 0.301089
vt 0.629050 0.258103
vt 0.658137 0.278016
vt 0.610726 0.267351
vt 0.642997 0.170319
vt 0.717676 0.215549
vt 0.692394 0.279899
vt 0.650489 0.247493
vt 0.683651 0.259419
vt 0.701017 0.224857
vt 0.648568 0.224904
vt 0.663635 0.212216
vt 0.736324 0.376634
vt 0.636705 0.342818
vt 0.718842 0.335745
vt 0.808526 0.296800
vt 0.776951 0.195634
vt 0.824409 0.175357
vt 0.607855 0.100549
vt 0.717579 0.125476
vt 0.623032 0.135347
vt 0.531451 0.299363
vt 0.568034 0.199456
vt 0.575105 0.284414
vt 0.616194 0.385276
vt 0.772866 0.279430
vt 0.735118 0.083196
vt 0.530745 0.182873
vt 0.116524 0.036576
vt 0.419162 0.563622
vt 0.488839 0.493946
vt 0.587377 0.493946
vt 0.657054 0.662160
vt 0.488839 0.731837
s 0
usemtl マテリアル
f 1/1/1 4/2/1 3/3/1
f 4/2/2 5/4/2 3/3/2
f 5/4/3 8/5/3 7/6/3
f 8/5/4 9/7/4 7/6/4
f 10/8/5 11/9/5 9/7/5
f 12/10/6 13/11/6 11/9/6
f 8/5/7 27/12/7 28/13/7
f 13/11/8 16/14/8 15/15/8
f 16/14/9 1/16/9 15/15/9
f 7/17/7 11/18/7 15/19/7
f 69/20/10 55/21/10 56/22/10
f 24/23/11 39/24/11 23/25/11
f 22/26/12 39/24/12 38/27/12
f 10/8/13 30/28/13 12/10/13
f 21/29/14 38/27/14 37/30/14
f 16/14/15 31/31/15 32/32/15
f 6/33/16 25/34/16 27/12/16
f 20/35/17 37/30/17 36/36/17
f 31/31/18 40/37/18 32/32/18
f 27/12/19 33/38/19 35/39/19
f 30/28/20 37/40/20 38/41/20
f 26/42/21 40/37/21 34/43/21
f 25/34/22 34/44/22 33/38/22
f 28/13/23 35/39/23 36/45/23
f 30/28/24 39/46/24 31/31/24
f 28/13/25 37/40/25 29/47/25
f 2/48/26 32/32/26 26/42/26
f 4/2/27 26/49/27 25/34/27
f 18/50/28 40/51/28 24/23/28
f 17/52/29 34/53/29 18/50/29
f 12/10/30 31/31/30 14/54/30
f 19/55/31 33/56/31 17/52/31
f 8/5/32 29/47/32 10/8/32
f 19/55/33 36/36/33 35/57/33
f 41/58/34 46/59/34 44/60/34
f 66/61/35 54/62/35 70/63/35
f 67/64/36 52/65/36 71/66/36
f 72/67/37 50/68/37 49/69/37
f 69/20/38 50/68/38 68/70/38
f 65/71/39 54/62/39 55/21/39
f 66/61/40 52/65/40 53/72/40
f 72/67/41 51/73/41 67/64/41
f 42/74/42 49/69/42 50/68/42
f 43/75/43 49/69/43 41/58/43
f 44/60/44 51/73/44 43/75/44
f 45/76/45 52/65/45 44/60/45
f 45/76/46 54/62/46 53/72/46
f 46/59/47 55/21/47 54/62/47
f 48/77/48 55/21/48 47/78/48
f 42/74/49 56/22/49 48/77/49
f 79/79/50 64/80/50 61/81/50
f 75/82/51 59/83/51 78/84/51
f 77/85/52 60/86/52 57/87/52
f 80/88/53 58/89/53 63/90/53
f 76/91/54 63/90/54 64/80/54
f 75/82/55 61/81/55 62/92/55
f 78/84/56 60/86/56 74/93/56
f 73/94/57 57/87/57 58/89/57
f 64/80/58 67/64/58 61/81/58
f 59/83/59 71/66/59 66/61/59
f 57/87/60 70/63/60 65/71/60
f 63/90/61 69/20/61 68/70/61
f 64/80/62 68/70/62 72/67/62
f 61/81/63 71/66/63 62/92/63
f 59/83/64 70/63/64 60/86/64
f 57/87/65 69/20/65 58/89/65
f 24/23/66 77/85/66 73/94/66
f 21/29/67 74/93/67 22/26/67
f 19/55/68 75/82/68 20/35/68
f 17/52/69 80/88/69 76/91/69
f 18/50/70 73/94/70 80/88/70
f 22/26/71 77/85/71 23/25/71
f 20/35/72 78/84/72 21/29/72
f 19/55/73 76/91/73 79/79/73
f 1/1/74 2/95/74 4/2/74
f 4/2/75 6/33/75 5/4/75
f 5/4/76 6/33/76 8/5/76
f 8/5/77 10/8/77 9/7/77
f 10/8/78 12/10/78 11/9/78
f 12/10/79 14/54/79 13/11/79
f 8/5/80 6/33/80 27/12/80
f 13/11/81 14/54/81 16/14/81
f 16/14/82 2/48/82 1/16/82
f 15/19/7 1/96/7 3/97/7
f 3/97/7 5/98/7 7/17/7
f 7/17/7 9/99/7 11/18/7
f 11/18/7 13/100/7 15/19/7
f 15/19/7 3/97/7 7/17/7
f 69/20/83 65/71/83 55/21/83
f 24/23/84 40/51/84 39/24/84
f 22/26/85 23/25/85 39/24/85
f 10/8/86 29/47/86 30/28/86
f 21/29/87 22/26/87 38/27/87
f 16/14/88 14/54/88 31/31/88
f 6/33/89 4/2/89 25/34/89
f 20/35/90 21/29/90 37/30/90
f 31/31/91 39/46/91 40/37/91
f 27/12/19 25/34/19 33/38/19
f 30/28/92 29/47/92 37/40/92
f 26/42/93 32/32/93 40/37/93
f 25/34/94 26/49/94 34/44/94
f 28/13/23 27/12/23 35/39/23
f 30/28/95 38/41/95 39/46/95
f 28/13/25 36/45/25 37/40/25
f 2/48/96 16/14/96 32/32/96
f 4/2/97 2/95/97 26/49/97
f 18/50/98 34/53/98 40/51/98
f 17/52/99 33/56/99 34/53/99
f 12/10/100 30/28/100 31/31/100
f 19/55/101 35/57/101 33/56/101
f 8/5/7 28/13/7 29/47/7
f 19/55/102 20/35/102 36/36/102
f 41/58/103 42/74/103 48/77/103
f 48/77/104 47/78/104 46/59/104
f 46/59/105 45/76/105 44/60/105
f 44/60/106 43/75/106 41/58/106
f 41/58/107 48/77/107 46/59/107
f 66/61/108 53/72/108 54/62/108
f 67/64/109 51/73/109 52/65/109
f 72/67/110 68/70/110 50/68/110
f 69/20/111 56/22/111 50/68/111
f 65/71/112 70/63/112 54/62/112
f 66/61/113 71/66/113 52/65/113
f 72/67/114 49/69/114 51/73/114
f 42/74/115 41/58/115 49/69/115
f 43/75/116 51/73/116 49/69/116
f 44/60/117 52/65/117 51/73/117
f 45/76/118 53/72/118 52/65/118
f 45/76/119 46/59/119 54/62/119
f 46/59/120 47/78/120 55/21/120
f 48/77/121 56/22/121 55/21/121
f 42/74/122 50/68/122 56/22/122
f 79/79/123 76/91/123 64/80/123
f 75/82/124 62/92/124 59/83/124
f 77/85/125 74/93/125 60/86/125
f 80/88/126 73/94/126 58/89/126
f 76/91/127 80/88/127 63/90/127
f 75/82/128 79/79/128 61/81/128
f 78/84/129 59/83/129 60/86/129
f 73/94/130 77/85/130 57/87/130
f 64/80/131 72/67/131 67/64/131
f 59/83/132 62/92/132 71/66/132
f 57/87/133 60/86/133 70/63/133
f 63/90/134 58/89/134 69/20/134
f 64/80/135 63/90/135 68/70/135
f 61/81/136 67/64/136 71/66/136
f 59/83/137 66/61/137 70/63/137
f 57/87/138 65/71/138 69/20/138
f 24/23/139 23/25/139 77/85/139
f 21/29/140 78/84/140 74/93/140
f 19/55/141 79/79/141 75/82/141
f 17/52/142 18/50/142 80/88/142
f 18/50/143 24/23/143 73/94/143
f 22/26/144 74/93/144 77/85/144
f 20/35/145 75/82/145 78/84/145
f 19/55/146 17/52/146 76/91/146
