# Blender 4.4.1
# www.blender.org
mtllib Menu.mtl
o テキスト
v 0.812500 -0.062500 0.100000
v 0.812500 0.062500 0.100000
v 1.687500 0.062500 0.100000
v 1.687500 -0.062500 0.100000
v 0.125000 -0.437500 0.100000
v 0.125000 -0.312500 0.100000
v 0.500000 -0.312500 0.100000
v 0.500000 -0.062500 0.100000
v 0.125000 -0.062500 0.100000
v 0.125000 0.062500 0.100000
v 0.625000 0.062500 0.100000
v 0.625000 -0.312500 0.100000
v 0.687500 -0.312500 0.100000
v 0.687500 -0.437500 0.100000
v -0.687500 0.312500 0.100000
v -0.687500 0.437500 0.100000
v -0.062500 0.437500 0.100000
v -0.062500 0.312500 0.100000
v -0.812500 -0.437500 0.100000
v -0.812500 -0.312500 0.100000
v 0.062500 -0.312500 0.100000
v 0.062500 -0.437500 0.100000
v -1.750000 -0.437500 0.100000
v -1.750000 -0.312500 0.100000
v -1.375000 -0.312500 0.100000
v -1.375000 -0.062500 0.100000
v -1.750000 -0.062500 0.100000
v -1.750000 0.062500 0.100000
v -1.375000 0.062500 0.100000
v -1.375000 0.437500 0.100000
v -0.937500 0.437500 0.100000
v -0.937500 0.312500 0.100000
v -1.250000 0.312500 0.100000
v -1.250000 0.062500 0.100000
v -0.875000 0.062500 0.100000
v -0.875000 -0.062500 0.100000
v -1.250000 -0.062500 0.100000
v -1.250000 -0.437500 0.100000
v 0.812500 -0.062500 -0.100000
v 0.812500 0.062500 -0.100000
v 1.687500 0.062500 -0.100000
v 1.687500 -0.062500 -0.100000
v 0.125000 -0.437500 -0.100000
v 0.125000 -0.312500 -0.100000
v 0.500000 -0.312500 -0.100000
v 0.500000 -0.062500 -0.100000
v 0.125000 -0.062500 -0.100000
v 0.125000 0.062500 -0.100000
v 0.625000 0.062500 -0.100000
v 0.625000 -0.312500 -0.100000
v 0.687500 -0.312500 -0.100000
v 0.687500 -0.437500 -0.100000
v -0.687500 0.312500 -0.100000
v -0.687500 0.437500 -0.100000
v -0.062500 0.437500 -0.100000
v -0.062500 0.312500 -0.100000
v -0.812500 -0.437500 -0.100000
v -0.812500 -0.312500 -0.100000
v 0.062500 -0.312500 -0.100000
v 0.062500 -0.437500 -0.100000
v -1.750000 -0.437500 -0.100000
v -1.750000 -0.312500 -0.100000
v -1.375000 -0.312500 -0.100000
v -1.375000 -0.062500 -0.100000
v -1.750000 -0.062500 -0.100000
v -1.750000 0.062500 -0.100000
v -1.375000 0.062500 -0.100000
v -1.375000 0.437500 -0.100000
v -0.937500 0.437500 -0.100000
v -0.937500 0.312500 -0.100000
v -1.250000 0.312500 -0.100000
v -1.250000 0.062500 -0.100000
v -0.875000 0.062500 -0.100000
v -0.875000 -0.062500 -0.100000
v -1.250000 -0.062500 -0.100000
v -1.250000 -0.437500 -0.100000
v -1.750000 -0.437500 -0.100000
v -1.750000 -0.437500 0.100000
v -1.750000 -0.312500 -0.100000
v -1.750000 -0.312500 0.100000
v -1.375000 -0.312500 -0.100000
v -1.375000 -0.312500 0.100000
v -1.375000 -0.062500 -0.100000
v -1.375000 -0.062500 0.100000
v -1.750000 -0.062500 -0.100000
v -1.750000 -0.062500 0.100000
v -1.750000 0.062500 -0.100000
v -1.750000 0.062500 0.100000
v -1.375000 0.062500 -0.100000
v -1.375000 0.062500 0.100000
v -1.375000 0.437500 -0.100000
v -1.375000 0.437500 0.100000
v -0.937500 0.437500 -0.100000
v -0.937500 0.437500 0.100000
v -0.937500 0.312500 -0.100000
v -0.937500 0.312500 0.100000
v -1.250000 0.312500 -0.100000
v -1.250000 0.312500 0.100000
v -1.250000 0.062500 -0.100000
v -1.250000 0.062500 0.100000
v -0.875000 0.062500 -0.100000
v -0.875000 0.062500 0.100000
v -0.875000 -0.062500 -0.100000
v -0.875000 -0.062500 0.100000
v -1.250000 -0.062500 -0.100000
v -1.250000 -0.062500 0.100000
v -1.250000 -0.437500 -0.100000
v -1.250000 -0.437500 0.100000
v -0.812500 -0.437500 -0.100000
v -0.812500 -0.437500 0.100000
v -0.812500 -0.312500 -0.100000
v -0.812500 -0.312500 0.100000
v 0.062500 -0.312500 -0.100000
v 0.062500 -0.312500 0.100000
v 0.062500 -0.437500 -0.100000
v 0.062500 -0.437500 0.100000
v -0.687500 0.312500 -0.100000
v -0.687500 0.312500 0.100000
v -0.687500 0.437500 -0.100000
v -0.687500 0.437500 0.100000
v -0.062500 0.437500 -0.100000
v -0.062500 0.437500 0.100000
v -0.062500 0.312500 -0.100000
v -0.062500 0.312500 0.100000
v 0.125000 -0.437500 -0.100000
v 0.125000 -0.437500 0.100000
v 0.125000 -0.312500 -0.100000
v 0.125000 -0.312500 0.100000
v 0.500000 -0.312500 -0.100000
v 0.500000 -0.312500 0.100000
v 0.500000 -0.062500 -0.100000
v 0.500000 -0.062500 0.100000
v 0.125000 -0.062500 -0.100000
v 0.125000 -0.062500 0.100000
v 0.125000 0.062500 -0.100000
v 0.125000 0.062500 0.100000
v 0.625000 0.062500 -0.100000
v 0.625000 0.062500 0.100000
v 0.625000 -0.312500 -0.100000
v 0.625000 -0.312500 0.100000
v 0.687500 -0.312500 -0.100000
v 0.687500 -0.312500 0.100000
v 0.687500 -0.437500 -0.100000
v 0.687500 -0.437500 0.100000
v 0.812500 -0.062500 -0.100000
v 0.812500 -0.062500 0.100000
v 0.812500 0.062500 -0.100000
v 0.812500 0.062500 0.100000
v 1.687500 0.062500 -0.100000
v 1.687500 0.062500 0.100000
v 1.687500 -0.062500 -0.100000
v 1.687500 -0.062500 0.100000
vn -0.0000 -0.0000 1.0000
vn -0.0000 -0.0000 -1.0000
vn -0.7071 -0.7071 -0.0000
vn -0.7071 0.7071 -0.0000
vn 0.7071 0.7071 -0.0000
vn 0.7071 -0.7071 -0.0000
vt 0.000000 0.000000
vt 0.666667 0.000000
vt 0.333333 0.000000
vt 1.000000 0.000000
vt 0.444444 0.000000
vt 0.555556 0.000000
vt 0.777778 0.000000
vt 0.222222 0.000000
vt 0.111111 0.000000
vt 0.888889 0.000000
vt 0.571429 0.000000
vt 0.857143 0.000000
vt 0.714286 0.000000
vt 0.285714 0.000000
vt 0.142857 0.000000
vt 0.428571 0.000000
vt 0.400000 0.000000
vt 0.466667 0.000000
vt 0.533333 0.000000
vt 0.600000 0.000000
vt 0.733333 0.000000
vt 0.266667 0.000000
vt 0.800000 0.000000
vt 0.866667 0.000000
vt 0.200000 0.000000
vt 0.133333 0.000000
vt 0.933333 0.000000
vt 0.066667 0.000000
vt 0.000000 1.000000
vt 0.062500 1.000000
vt 0.062500 0.000000
vt 0.125000 1.000000
vt 0.125000 0.000000
vt 0.187500 1.000000
vt 0.187500 0.000000
vt 0.250000 1.000000
vt 0.250000 0.000000
vt 0.312500 1.000000
vt 0.312500 0.000000
vt 0.375000 1.000000
vt 0.375000 0.000000
vt 0.437500 1.000000
vt 0.437500 0.000000
vt 0.500000 1.000000
vt 0.500000 0.000000
vt 0.562500 1.000000
vt 0.562500 0.000000
vt 0.625000 1.000000
vt 0.625000 0.000000
vt 0.687500 1.000000
vt 0.687500 0.000000
vt 0.750000 1.000000
vt 0.750000 0.000000
vt 0.812500 1.000000
vt 0.812500 0.000000
vt 0.875000 1.000000
vt 0.875000 0.000000
vt 0.937500 1.000000
vt 0.937500 0.000000
vt 1.000000 1.000000
vt 0.100000 1.000000
vt 0.100000 0.000000
vt 0.200000 1.000000
vt 0.300000 1.000000
vt 0.300000 0.000000
vt 0.400000 1.000000
vt 0.600000 1.000000
vt 0.700000 1.000000
vt 0.700000 0.000000
vt 0.800000 1.000000
vt 0.900000 1.000000
vt 0.900000 0.000000
s 0
usemtl マテリアル
f 1/1/1 3/2/1 2/3/1
f 1/1/1 4/4/1 3/2/1
f 9/5/1 11/2/1 10/6/1
f 9/5/1 8/3/1 11/2/1
f 8/3/1 12/7/1 11/2/1
f 7/8/1 12/7/1 8/3/1
f 5/1/1 7/8/1 6/9/1
f 5/1/1 12/7/1 7/8/1
f 5/1/1 13/10/1 12/7/1
f 5/1/1 14/4/1 13/10/1
f 19/11/1 21/12/1 20/13/1
f 19/11/1 22/4/1 21/12/1
f 15/1/1 17/14/1 16/15/1
f 15/1/1 18/16/1 17/14/1
f 29/17/1 33/2/1 30/18/1
f 33/2/1 31/19/1 30/18/1
f 33/2/1 32/20/1 31/19/1
f 29/17/1 34/21/1 33/2/1
f 27/22/1 29/17/1 28/3/1
f 27/22/1 34/21/1 29/17/1
f 27/22/1 35/23/1 34/21/1
f 27/22/1 36/24/1 35/23/1
f 26/25/1 36/24/1 27/22/1
f 25/26/1 37/27/1 26/25/1
f 37/27/1 36/24/1 26/25/1
f 25/26/1 38/4/1 37/27/1
f 23/1/1 25/26/1 24/28/1
f 23/1/1 38/4/1 25/26/1
f 39/1/2 40/3/2 41/2/2
f 39/1/2 41/2/2 42/4/2
f 47/5/2 48/6/2 49/2/2
f 47/5/2 49/2/2 46/3/2
f 46/3/2 49/2/2 50/7/2
f 45/8/2 46/3/2 50/7/2
f 43/1/2 44/9/2 45/8/2
f 43/1/2 45/8/2 50/7/2
f 43/1/2 50/7/2 51/10/2
f 43/1/2 51/10/2 52/4/2
f 57/11/2 58/13/2 59/12/2
f 57/11/2 59/12/2 60/4/2
f 53/1/2 54/15/2 55/14/2
f 53/1/2 55/14/2 56/16/2
f 67/17/2 68/18/2 71/2/2
f 71/2/2 68/18/2 69/19/2
f 71/2/2 69/19/2 70/20/2
f 67/17/2 71/2/2 72/21/2
f 65/22/2 66/3/2 67/17/2
f 65/22/2 67/17/2 72/21/2
f 65/22/2 72/21/2 73/23/2
f 65/22/2 73/23/2 74/24/2
f 64/25/1 65/22/1 74/24/1
f 63/26/2 64/25/2 75/27/2
f 75/27/1 64/25/1 74/24/1
f 63/26/2 75/27/2 76/4/2
f 61/1/2 62/28/2 63/26/2
f 61/1/2 63/26/2 76/4/2
s 1
f 78/29/3 80/30/4 79/31/4 77/1/3
f 80/30/4 82/32/4 81/33/4 79/31/4
f 82/32/4 84/34/3 83/35/3 81/33/4
f 84/34/3 86/36/3 85/37/3 83/35/3
f 86/36/3 88/38/4 87/39/4 85/37/3
f 88/38/4 90/40/4 89/41/4 87/39/4
f 90/40/4 92/42/4 91/43/4 89/41/4
f 92/42/4 94/44/5 93/45/5 91/43/4
f 94/44/5 96/46/6 95/47/6 93/45/5
f 96/46/6 98/48/6 97/49/6 95/47/6
f 98/48/6 100/50/5 99/51/5 97/49/6
f 100/50/5 102/52/5 101/53/5 99/51/5
f 102/52/5 104/54/6 103/55/6 101/53/5
f 104/54/6 106/56/6 105/57/6 103/55/6
f 106/56/6 108/58/6 107/59/6 105/57/6
f 108/58/6 78/60/3 77/4/3 107/59/6
f 110/29/3 112/36/4 111/37/4 109/1/3
f 112/36/4 114/44/5 113/45/5 111/37/4
f 114/44/5 116/52/6 115/53/6 113/45/5
f 116/52/6 110/60/3 109/4/3 115/53/6
f 118/29/3 120/36/4 119/37/4 117/1/3
f 120/36/4 122/44/5 121/45/5 119/37/4
f 122/44/5 124/52/6 123/53/6 121/45/5
f 124/52/6 118/60/3 117/4/3 123/53/6
f 126/29/3 128/61/4 127/62/4 125/1/3
f 128/61/4 130/63/4 129/25/4 127/62/4
f 130/63/4 132/64/3 131/65/3 129/25/4
f 132/64/3 134/66/3 133/17/3 131/65/3
f 134/66/3 136/44/4 135/45/4 133/17/3
f 136/44/4 138/67/5 137/20/5 135/45/4
f 138/67/5 140/68/5 139/69/5 137/20/5
f 140/68/5 142/70/5 141/23/5 139/69/5
f 142/70/5 144/71/6 143/72/6 141/23/5
f 144/71/6 126/60/3 125/4/3 143/72/6
f 146/29/3 148/36/4 147/37/4 145/1/3
f 148/36/4 150/44/5 149/45/5 147/37/4
f 150/44/5 152/52/6 151/53/6 149/45/5
f 152/52/6 146/60/3 145/4/3 151/53/6
