# Blender 4.4.1
# www.blender.org
mtllib plot.mtl
o Cube
v 0.189794 -0.190437 -0.822866
v 1.185269 0.190437 0.962955
v 1.185269 -0.190437 0.962955
v -0.189794 -0.190437 -0.822866
v -1.185269 0.190437 0.962955
v -1.185269 -0.190437 0.962955
v 0.000000 -0.128081 -1.251751
v 0.000000 0.190437 0.769738
v 0.000000 -0.190437 0.769738
v 0.000000 0.128081 -1.251751
v 0.426366 0.000000 -0.822866
v -0.997054 0.000000 0.769738
v 0.997054 0.000000 0.769738
v -0.426366 0.000000 -0.822866
v 0.000000 0.000000 -1.566995
v 0.000000 0.000000 0.297907
v -1.185269 0.095219 0.962955
v 0.426366 0.095219 -0.822866
v 1.185269 0.095219 0.962955
v -0.426366 0.095219 -0.822866
v 0.000000 0.095219 -1.383441
v 0.000000 0.095219 0.618047
v 0.426366 -0.095219 -0.822866
v 1.185269 -0.095219 0.962955
v -0.426366 -0.095219 -0.822866
v 0.000000 -0.095219 -1.383441
v 0.000000 -0.095219 0.618047
v -1.185269 -0.095219 0.962955
v -0.616330 -0.190437 -0.026564
v 0.616330 0.190437 -0.026564
v -0.616330 0.190437 -0.026564
v 0.616330 -0.190437 -0.026564
v 0.000000 -0.313170 -0.026564
v 0.000000 0.313170 -0.026564
v 0.616330 0.000000 -0.026564
v -0.616330 0.000000 -0.026564
v 0.616330 0.095219 -0.026564
v -0.616330 0.095219 -0.026564
v -0.616330 -0.095219 -0.026564
v 0.616330 -0.095219 -0.026564
v 0.441745 -0.190437 0.543191
v 0.046686 0.152099 -1.123277
v 0.045545 -0.150660 -1.123212
v 0.441745 0.190437 0.543191
v 0.308165 0.000000 0.618047
v 0.308165 0.000000 -1.123212
v 0.725572 0.095219 0.563336
v 0.308165 0.095219 -1.123212
v 0.308165 -0.095219 -1.123212
v 0.725572 -0.095219 0.563336
v 0.154011 0.190437 -0.026564
v -0.045545 -0.150660 -1.123212
v -0.441745 0.190437 0.543191
v -0.441745 -0.190437 0.543191
v -0.046686 0.152099 -1.123277
v -0.308165 0.000000 -1.123212
v -0.308165 0.000000 0.618047
v -0.308165 0.095219 -1.123212
v -0.725572 0.095219 0.563336
v -0.725572 -0.095219 0.563336
v -0.308165 -0.095219 -1.123212
v 0.441745 0.520449 1.068735
v 0.308165 0.520449 0.413061
v -0.441745 0.520449 1.068735
v -0.308165 0.520449 0.413061
v -0.220872 -0.190437 0.656465
v -0.154083 0.000000 -1.345104
v -0.154083 0.095219 -1.253326
v -0.154083 -0.095219 -1.253326
v -0.154083 0.190437 -0.026564
v -0.047828 -0.153538 -1.123343
v -0.220872 0.190437 0.656465
v -0.154083 0.000000 0.457977
v -0.362786 0.095219 0.590692
v -0.362786 -0.095219 0.590692
v -0.154083 -0.190437 -0.026564
v 0.047828 -0.153538 -1.123343
v 0.220872 0.190437 0.656465
v 0.154083 0.000000 0.457977
v 0.362786 0.095219 0.590692
v 0.362786 -0.095219 0.590692
v 0.154083 -0.190437 -0.026564
v 0.220872 -0.190437 0.656465
v 0.154083 0.000000 -1.345104
v 0.154083 0.095219 -1.253326
v 0.154083 -0.095219 -1.253326
vn -0.0000 1.0000 -0.0000
vn 0.4500 -0.6007 0.6608
vn -0.1958 0.9750 -0.1050
vn -0.0000 -1.0000 -0.0000
vn 0.8669 -0.0000 -0.4984
vn 0.1958 0.9750 -0.1050
vn -0.1999 0.9491 -0.2434
vn -0.3277 -0.9426 0.0634
vn 0.1710 -0.6832 0.7099
vn 0.3278 0.9426 0.0634
vn -0.1099 0.8971 0.4279
vn -0.5449 -0.6896 -0.4770
vn 0.9305 -0.0000 -0.3662
vn 0.8208 0.3684 -0.4365
vn -0.9727 -0.0000 -0.2320
vn 0.3511 -0.5845 0.7315
vn -0.1099 -0.8971 0.4279
vn -0.5449 0.6896 -0.4770
vn 0.8208 -0.3684 -0.4365
vn 0.3511 0.5845 0.7315
vn 0.4500 0.6007 0.6608
vn -0.6094 -0.7570 -0.2359
vn 0.2839 -0.9406 -0.1863
vn -0.1996 -0.9477 -0.2492
vn 0.1710 0.6832 0.7099
vn 0.6094 -0.7570 -0.2359
vn -0.8669 -0.0000 -0.4984
vn -0.8208 -0.3684 -0.4365
vn 0.9727 -0.0000 -0.2320
vn -0.8208 0.3684 -0.4365
vn 0.4926 0.8638 -0.1059
vn -0.4851 -0.8681 -0.1052
vn -0.0640 -0.9979 -0.0029
vn 0.7811 0.6221 -0.0547
vn -0.4500 0.6007 0.6608
vn 0.2130 -0.9503 -0.2272
vn 0.7171 0.3026 -0.6278
vn -0.3511 0.5845 0.7315
vn 0.7171 -0.3026 -0.6278
vn -0.3511 -0.5845 0.7315
vn -0.4500 -0.6007 0.6608
vn 0.2062 0.9476 -0.2442
vn 0.0640 -0.9979 -0.0029
vn -0.2839 -0.9406 -0.1863
vn -0.2249 -0.2792 0.9335
vn 0.2292 0.3880 0.8927
vn -0.9305 -0.0000 -0.3662
vn 0.2292 -0.3880 0.8927
vn -0.2249 0.2792 0.9335
vn 0.9164 -0.2467 0.3150
vn 0.9164 0.2467 -0.3151
vn -0.3277 0.9426 0.0634
vn -0.1710 -0.6832 0.7099
vn 0.1099 0.8971 0.4279
vn 0.1099 -0.8971 0.4279
vn -0.1710 0.6832 0.7099
vn -0.4925 0.8638 -0.1059
vn -0.7811 0.6221 -0.0547
vn -0.2130 -0.9503 -0.2272
vn -0.7171 0.3026 -0.6278
vn -0.7171 -0.3026 -0.6278
vn -0.2062 0.9476 -0.2442
vn 0.3277 -0.9426 0.0634
vn 0.1999 0.9491 -0.2434
vn 0.5449 -0.6896 -0.4770
vn 0.5449 0.6896 -0.4770
vn 0.1996 -0.9477 -0.2492
vn 0.4851 -0.8681 -0.1052
vn 0.2249 -0.2792 0.9335
vn -0.2292 0.3880 0.8927
vn -0.2292 -0.3880 0.8927
vn 0.2249 0.2792 0.9335
vn 0.9273 0.3477 0.1388
vn 0.9273 -0.3477 -0.1388
vn 0.2631 -0.8170 0.5131
vn -0.2631 -0.8170 0.5131
vt 0.570312 0.722656
vt 0.507812 0.722656
vt 0.433594 0.593750
vt 0.531250 0.648438
vt 0.871094 0.757812
vt 0.902344 0.656250
vt 0.902344 0.917969
vt 0.871094 0.917969
vt 0.535156 0.828125
vt 0.585938 0.867188
vt 0.550781 0.867188
vt 0.609375 0.722656
vt 0.671875 0.722656
vt 0.746094 0.593750
vt 0.648438 0.648438
vt 0.292969 0.121094
vt 0.292969 0.144531
vt 0.054688 0.144531
vt 0.054688 0.121094
vt 0.597656 0.867188
vt 0.648438 0.828125
vt 0.632812 0.867188
vt 0.570312 0.882812
vt 0.589844 0.882812
vt 0.589844 0.902344
vt 0.589844 0.722656
vt 0.589844 0.617188
vt 0.562500 0.632812
vt 0.871094 0.375000
vt 0.902344 0.425781
vt 0.902344 0.503906
vt 0.871094 0.503906
vt 0.621094 0.632812
vt 0.332031 0.414062
vt 0.257812 0.460938
vt 0.203125 0.515625
vt 0.203125 0.406250
vt 0.570312 0.898438
vt 0.589844 0.925781
vt 0.554688 0.078125
vt 0.554688 0.097656
vt 0.480469 0.097656
vt 0.480469 0.078125
vt 0.292969 0.078125
vt 0.292969 0.097656
vt 0.101562 0.097656
vt 0.054688 0.078125
vt 0.289062 0.187500
vt 0.289062 0.210938
vt 0.484375 0.210938
vt 0.484375 0.187500
vt 0.804688 0.757812
vt 0.835938 0.609375
vt 0.835938 0.851562
vt 0.804688 0.917969
vt 0.554688 0.121094
vt 0.480469 0.121094
vt 0.289062 0.234375
vt 0.484375 0.234375
vt 0.769531 0.656250
vt 0.769531 0.917969
vt 0.566406 0.828125
vt 0.292969 0.054688
vt 0.054688 0.054688
vt 0.617188 0.828125
vt 0.769531 0.425781
vt 0.804688 0.375000
vt 0.804688 0.503906
vt 0.769531 0.503906
vt 0.050781 0.164062
vt 0.050781 0.187500
vt 0.289062 0.164062
vt 0.097656 0.210938
vt 0.050781 0.234375
vt 0.050781 0.257812
vt 0.289062 0.257812
vt 0.804688 0.410156
vt 0.832031 0.527344
vt 0.769531 0.089844
vt 0.804688 0.089844
vt 0.804688 0.250000
vt 0.769531 0.347656
vt 0.609375 0.882812
vt 0.605469 0.097656
vt 0.582031 0.121094
vt 0.835938 0.156250
vt 0.871094 0.089844
vt 0.871094 0.250000
vt 0.835938 0.394531
vt 0.582031 0.078125
vt 0.902344 0.089844
vt 0.902344 0.347656
vt 0.769531 0.582031
vt 0.804688 0.628906
vt 0.835938 0.558594
vt 0.871094 0.628906
vt 0.558594 0.234375
vt 0.558594 0.210938
vt 0.558594 0.187500
vt 0.902344 0.582031
vt 0.234375 0.816406
vt 0.433594 0.816406
vt 0.281250 0.929688
vt 0.050781 0.929688
vt 0.238281 0.679688
vt 0.437500 0.679688
vt 0.281250 0.796875
vt 0.054688 0.796875
vt 0.148438 0.460938
vt 0.078125 0.414062
vt 0.847656 0.503906
vt 0.589844 0.234375
vt 0.613281 0.210938
vt 0.589844 0.187500
vt 0.609375 0.898438
vt 0.835938 0.449219
vt 0.195312 0.816406
vt 0.199219 0.679688
vt 0.648438 0.578125
vt 0.531250 0.578125
s 0
usemtl Material
f 70/1/1 31/2/1 5/3/1 53/4/1
f 59/5/2 53/6/2 5/7/2 17/8/2
f 20/9/3 38/2/3 31/2/3 70/1/3 55/10/3 58/11/3
f 82/12/4 32/13/4 3/14/4 41/15/4
f 37/16/5 30/17/5 2/18/5 19/19/5
f 42/20/6 51/12/6 30/13/6 37/13/6 18/21/6 48/22/6
f 68/23/7 55/10/7 10/24/7 21/25/7
f 76/1/8 33/26/8 9/27/8 66/28/8
f 80/29/9 78/30/9 8/31/9 22/32/9
f 51/12/10 34/26/10 8/27/10 78/33/10
f 81/34/11 79/35/11 16/36/11 27/37/11
f 69/23/12 67/38/12 15/39/12 26/25/12
f 49/40/13 46/41/13 11/42/13 23/43/13
f 40/44/14 35/45/14 13/46/14 24/47/14
f 39/48/15 36/49/15 14/50/15 25/51/15
f 60/52/16 57/53/16 12/54/16 28/55/16
f 79/35/17 80/34/17 22/37/17 16/36/17
f 67/38/18 68/23/18 21/25/18 15/39/18
f 46/41/13 48/56/13 18/57/13 11/42/13
f 35/45/19 37/16/19 19/19/19 13/46/19
f 36/49/15 38/58/15 20/59/15 14/50/15
f 57/53/20 59/5/20 17/8/20 12/54/20
f 54/60/21 60/52/21 28/55/21 6/61/21
f 29/2/22 39/2/22 25/9/22 4/62/22
f 32/63/5 40/44/5 24/47/5 3/64/5
f 43/20/23 49/22/23 23/21/23 1/65/23
f 71/10/24 69/23/24 26/25/24 7/24/24
f 83/66/25 81/67/25 27/68/25 9/69/25
f 1/65/26 23/21/26 40/13/26 32/13/26
f 6/70/27 28/71/27 39/48/27 29/72/27
f 12/73/28 17/74/28 38/58/28 36/49/28
f 11/42/29 18/57/29 37/16/29 35/45/29
f 28/71/30 12/73/30 36/49/30 39/48/30
f 23/43/29 11/42/29 35/45/29 40/44/29
f 42/20/31 10/24/31 34/26/31 51/12/31
f 71/10/32 7/24/32 33/26/32 76/1/32
f 43/20/33 1/65/33 32/13/33 82/12/33
f 17/74/27 5/75/27 31/76/27 38/58/27
f 77/77/34 43/77/34 82/78/34
f 3/79/35 24/80/35 50/81/35 41/82/35
f 77/20/36 86/83/36 49/22/36 43/20/36
f 84/84/37 85/85/37 48/56/37 46/41/37
f 13/86/38 19/87/38 47/88/38 45/89/38
f 86/90/39 84/84/39 46/41/39 49/40/39
f 24/80/40 13/86/40 45/89/40 50/81/40
f 30/13/1 51/12/1 44/15/1 2/14/1
f 19/87/41 2/91/41 44/92/41 47/88/41
f 85/83/42 42/20/42 48/22/42
f 82/12/4 41/15/4 83/33/4
f 4/62/43 52/10/43 76/1/43 29/2/43
f 4/62/44 25/9/44 61/11/44 52/10/44
f 66/93/45 75/94/45 60/52/45 54/60/45
f 73/95/46 74/96/46 59/5/46 57/53/46
f 14/50/47 20/59/47 58/97/47 56/98/47
f 75/94/48 73/95/48 57/53/48 60/52/48
f 25/51/47 14/50/47 56/98/47 61/99/47
f 29/2/4 76/1/4 54/4/4 6/3/4
f 74/96/49 72/100/49 53/6/49 59/5/49
f 70/1/1 53/4/1 72/28/1
f 53/101/50 70/102/50 65/103/50 64/104/50
f 44/105/51 51/106/51 63/107/51 62/108/51
f 34/26/52 70/1/52 72/28/52 8/27/52
f 22/32/53 8/31/53 72/100/53 74/96/53
f 27/37/54 16/36/54 73/109/54 75/110/54
f 16/36/55 22/37/55 74/110/55 73/109/55
f 9/69/56 27/68/56 75/94/56 66/93/56
f 10/24/57 55/10/57 70/1/57 34/26/57
f 52/77/58 71/77/58 76/111/58
f 52/10/59 61/11/59 69/23/59 71/10/59
f 56/98/60 58/97/60 68/112/60 67/113/60
f 61/99/61 56/98/61 67/113/61 69/114/61
f 76/1/4 66/28/4 54/4/4
f 58/11/62 55/10/62 68/23/62
f 33/26/63 82/12/63 83/33/63 9/27/63
f 21/25/64 10/24/64 42/20/64 85/83/64
f 26/25/65 15/39/65 84/115/65 86/83/65
f 15/39/66 21/25/66 85/83/66 84/115/66
f 7/24/67 26/25/67 86/83/67 77/20/67
f 7/24/68 77/20/68 82/12/68 33/26/68
f 41/82/69 50/81/69 81/67/69 83/66/69
f 45/89/70 47/88/70 80/29/70 79/116/70
f 50/81/71 45/89/71 79/116/71 81/67/71
f 51/12/1 78/33/1 44/15/1
f 47/88/72 44/92/72 78/30/72 80/29/72
f 72/117/73 70/102/73 65/103/73 64/104/73
f 78/118/74 51/106/74 63/107/74 62/108/74
f 62/119/75 78/33/75 44/15/75
f 72/28/76 64/120/76 53/4/76
