# Blender 4.4.1
# www.blender.org
mtllib Retry.mtl
o テキスト
v 1.312500 -0.437500 0.100000
v 1.312500 -0.062500 0.100000
v 0.937500 -0.062500 0.100000
v 0.937500 0.062500 0.100000
v 1.687500 0.062500 0.100000
v 1.687500 0.437500 0.100000
v 1.812500 0.437500 0.100000
v 1.812500 -0.062500 0.100000
v 1.437500 -0.062500 0.100000
v 1.437500 -0.437500 0.100000
v 0.000000 0.312500 0.100000
v 0.000000 0.437500 0.100000
v 0.875000 0.437500 0.100000
v 0.875000 0.312500 0.100000
v 0.000000 -0.437500 0.100000
v 0.000000 -0.312500 0.100000
v 0.750000 -0.312500 0.100000
v 0.750000 -0.062500 0.100000
v 0.000000 -0.062500 0.100000
v 0.000000 0.062500 0.100000
v 0.875000 0.062500 0.100000
v 0.875000 -0.437500 0.100000
v -0.937500 -0.437500 0.100000
v -0.937500 0.437500 0.100000
v -0.812500 0.437500 0.100000
v -0.812500 0.062500 0.100000
v -0.062500 0.062500 0.100000
v -0.062500 -0.062500 0.100000
v -0.812500 -0.062500 0.100000
v -0.812500 -0.437500 0.100000
v -1.875000 -0.187500 0.100000
v -1.875000 0.437500 0.100000
v -1.750000 0.437500 0.100000
v -1.750000 -0.187500 0.100000
v -1.437500 -0.437500 0.100000
v -1.437500 -0.312500 0.100000
v -1.125000 -0.312500 0.100000
v -1.125000 0.437500 0.100000
v -1.000000 0.437500 0.100000
v -1.000000 -0.437500 0.100000
v 1.312500 -0.437500 -0.100000
v 1.312500 -0.062500 -0.100000
v 0.937500 -0.062500 -0.100000
v 0.937500 0.062500 -0.100000
v 1.687500 0.062500 -0.100000
v 1.687500 0.437500 -0.100000
v 1.812500 0.437500 -0.100000
v 1.812500 -0.062500 -0.100000
v 1.437500 -0.062500 -0.100000
v 1.437500 -0.437500 -0.100000
v 0.000000 0.312500 -0.100000
v 0.000000 0.437500 -0.100000
v 0.875000 0.437500 -0.100000
v 0.875000 0.312500 -0.100000
v 0.000000 -0.437500 -0.100000
v 0.000000 -0.312500 -0.100000
v 0.750000 -0.312500 -0.100000
v 0.750000 -0.062500 -0.100000
v 0.000000 -0.062500 -0.100000
v 0.000000 0.062500 -0.100000
v 0.875000 0.062500 -0.100000
v 0.875000 -0.437500 -0.100000
v -0.937500 -0.437500 -0.100000
v -0.937500 0.437500 -0.100000
v -0.812500 0.437500 -0.100000
v -0.812500 0.062500 -0.100000
v -0.062500 0.062500 -0.100000
v -0.062500 -0.062500 -0.100000
v -0.812500 -0.062500 -0.100000
v -0.812500 -0.437500 -0.100000
v -1.875000 -0.187500 -0.100000
v -1.875000 0.437500 -0.100000
v -1.750000 0.437500 -0.100000
v -1.750000 -0.187500 -0.100000
v -1.437500 -0.437500 -0.100000
v -1.437500 -0.312500 -0.100000
v -1.125000 -0.312500 -0.100000
v -1.125000 0.437500 -0.100000
v -1.000000 0.437500 -0.100000
v -1.000000 -0.437500 -0.100000
v -1.437500 -0.437500 -0.100000
v -1.437500 -0.437500 0.100000
v -1.437500 -0.312500 -0.100000
v -1.437500 -0.312500 0.100000
v -1.125000 -0.312500 -0.100000
v -1.125000 -0.312500 0.100000
v -1.125000 0.437500 -0.100000
v -1.125000 0.437500 0.100000
v -1.000000 0.437500 -0.100000
v -1.000000 0.437500 0.100000
v -1.000000 -0.437500 -0.100000
v -1.000000 -0.437500 0.100000
v -1.875000 -0.187500 -0.100000
v -1.875000 -0.187500 0.100000
v -1.875000 0.437500 -0.100000
v -1.875000 0.437500 0.100000
v -1.750000 0.437500 -0.100000
v -1.750000 0.437500 0.100000
v -1.750000 -0.187500 -0.100000
v -1.750000 -0.187500 0.100000
v -0.937500 -0.437500 -0.100000
v -0.937500 -0.437500 0.100000
v -0.937500 0.437500 -0.100000
v -0.937500 0.437500 0.100000
v -0.812500 0.437500 -0.100000
v -0.812500 0.437500 0.100000
v -0.812500 0.062500 -0.100000
v -0.812500 0.062500 0.100000
v -0.062500 0.062500 -0.100000
v -0.062500 0.062500 0.100000
v -0.062500 -0.062500 -0.100000
v -0.062500 -0.062500 0.100000
v -0.812500 -0.062500 -0.100000
v -0.812500 -0.062500 0.100000
v -0.812500 -0.437500 -0.100000
v -0.812500 -0.437500 0.100000
v 0.000000 -0.437500 -0.100000
v 0.000000 -0.437500 0.100000
v 0.000000 -0.312500 -0.100000
v 0.000000 -0.312500 0.100000
v 0.750000 -0.312500 -0.100000
v 0.750000 -0.312500 0.100000
v 0.750000 -0.062500 -0.100000
v 0.750000 -0.062500 0.100000
v 0.000000 -0.062500 -0.100000
v 0.000000 -0.062500 0.100000
v 0.000000 0.062500 -0.100000
v 0.000000 0.062500 0.100000
v 0.875000 0.062500 -0.100000
v 0.875000 0.062500 0.100000
v 0.875000 -0.437500 -0.100000
v 0.875000 -0.437500 0.100000
v 0.000000 0.312500 -0.100000
v 0.000000 0.312500 0.100000
v 0.000000 0.437500 -0.100000
v 0.000000 0.437500 0.100000
v 0.875000 0.437500 -0.100000
v 0.875000 0.437500 0.100000
v 0.875000 0.312500 -0.100000
v 0.875000 0.312500 0.100000
v 1.312500 -0.437500 -0.100000
v 1.312500 -0.437500 0.100000
v 1.312500 -0.062500 -0.100000
v 1.312500 -0.062500 0.100000
v 0.937500 -0.062500 -0.100000
v 0.937500 -0.062500 0.100000
v 0.937500 0.062500 -0.100000
v 0.937500 0.062500 0.100000
v 1.687500 0.062500 -0.100000
v 1.687500 0.062500 0.100000
v 1.687500 0.437500 -0.100000
v 1.687500 0.437500 0.100000
v 1.812500 0.437500 -0.100000
v 1.812500 0.437500 0.100000
v 1.812500 -0.062500 -0.100000
v 1.812500 -0.062500 0.100000
v 1.437500 -0.062500 -0.100000
v 1.437500 -0.062500 0.100000
v 1.437500 -0.437500 -0.100000
v 1.437500 -0.437500 0.100000
vn -0.0000 -0.0000 1.0000
vn -0.0000 -0.0000 -1.0000
vn -0.7071 -0.7071 -0.0000
vn -0.7071 0.7071 -0.0000
vn 0.7071 0.7071 -0.0000
vn 0.7071 -0.7071 -0.0000
vt 0.444444 0.000000
vt 0.666667 0.000000
vt 0.555556 0.000000
vt 0.777778 0.000000
vt 0.222222 0.000000
vt 0.333333 0.000000
vt 0.111111 0.000000
vt 0.000000 0.000000
vt 0.888889 0.000000
vt 1.000000 0.000000
vt 0.727273 0.000000
vt 0.909091 0.000000
vt 0.818182 0.000000
vt 0.636364 0.000000
vt 0.545455 0.000000
vt 0.363636 0.000000
vt 0.454545 0.000000
vt 0.181818 0.000000
vt 0.090909 0.000000
vt 0.272727 0.000000
vt 0.285714 0.000000
vt 0.142857 0.000000
vt 0.428571 0.000000
vt 0.857143 0.000000
vt 0.571429 0.000000
vt 0.714286 0.000000
vt 0.000000 1.000000
vt 0.166667 1.000000
vt 0.166667 0.000000
vt 0.333333 1.000000
vt 0.500000 1.000000
vt 0.500000 0.000000
vt 0.666667 1.000000
vt 0.833333 1.000000
vt 0.833333 0.000000
vt 1.000000 1.000000
vt 0.250000 1.000000
vt 0.250000 0.000000
vt 0.750000 1.000000
vt 0.750000 0.000000
vt 0.125000 1.000000
vt 0.125000 0.000000
vt 0.375000 1.000000
vt 0.375000 0.000000
vt 0.625000 1.000000
vt 0.625000 0.000000
vt 0.875000 1.000000
vt 0.875000 0.000000
vt 0.100000 1.000000
vt 0.100000 0.000000
vt 0.200000 1.000000
vt 0.200000 0.000000
vt 0.300000 1.000000
vt 0.300000 0.000000
vt 0.400000 1.000000
vt 0.400000 0.000000
vt 0.600000 1.000000
vt 0.600000 0.000000
vt 0.700000 1.000000
vt 0.700000 0.000000
vt 0.800000 1.000000
vt 0.800000 0.000000
vt 0.900000 1.000000
vt 0.900000 0.000000
s 0
usemtl マテリアル
f 5/1/1 7/2/1 6/3/1
f 5/1/1 8/4/1 7/2/1
f 3/5/1 5/1/1 4/6/1
f 3/5/1 8/4/1 5/1/1
f 2/7/1 8/4/1 3/5/1
f 1/8/1 9/9/1 2/7/1
f 9/9/1 8/4/1 2/7/1
f 1/8/1 10/10/1 9/9/1
f 19/11/1 21/12/1 20/13/1
f 19/11/1 18/14/1 21/12/1
f 18/14/1 22/10/1 21/12/1
f 17/15/1 22/10/1 18/14/1
f 15/16/1 17/15/1 16/17/1
f 15/16/1 22/10/1 17/15/1
f 11/8/1 13/18/1 12/19/1
f 11/8/1 14/20/1 13/18/1
f 23/8/1 25/21/1 24/22/1
f 23/8/1 26/23/1 25/21/1
f 23/8/1 29/24/1 26/23/1
f 29/24/1 27/25/1 26/23/1
f 29/24/1 28/26/1 27/25/1
f 23/8/1 30/10/1 29/24/1
f 37/2/1 39/9/1 38/4/1
f 37/2/1 40/10/1 39/9/1
f 35/1/1 37/2/1 36/3/1
f 35/1/1 40/10/1 37/2/1
f 31/8/1 33/5/1 32/7/1
f 31/8/1 34/6/1 33/5/1
f 45/1/2 46/3/2 47/2/2
f 45/1/2 47/2/2 48/4/2
f 43/5/2 44/6/2 45/1/2
f 43/5/2 45/1/2 48/4/2
f 42/7/1 43/5/1 48/4/1
f 41/8/2 42/7/2 49/9/2
f 49/9/1 42/7/1 48/4/1
f 41/8/2 49/9/2 50/10/2
f 59/11/2 60/13/2 61/12/2
f 59/11/2 61/12/2 58/14/2
f 58/14/2 61/12/2 62/10/2
f 57/15/2 58/14/2 62/10/2
f 55/16/2 56/17/2 57/15/2
f 55/16/2 57/15/2 62/10/2
f 51/8/2 52/19/2 53/18/2
f 51/8/2 53/18/2 54/20/2
f 63/8/2 64/22/2 65/21/2
f 63/8/2 65/21/2 66/23/2
f 63/8/2 66/23/2 69/24/2
f 69/24/2 66/23/2 67/25/2
f 69/24/2 67/25/2 68/26/2
f 63/8/2 69/24/2 70/10/2
f 77/2/2 78/4/2 79/9/2
f 77/2/2 79/9/2 80/10/2
f 75/1/2 76/3/2 77/2/2
f 75/1/2 77/2/2 80/10/2
f 71/8/2 72/7/2 73/5/2
f 71/8/2 73/5/2 74/6/2
s 1
f 82/27/3 84/28/4 83/29/4 81/8/3
f 84/28/4 86/30/4 85/6/4 83/29/4
f 86/30/4 88/31/4 87/32/4 85/6/4
f 88/31/4 90/33/5 89/2/5 87/32/4
f 90/33/5 92/34/6 91/35/6 89/2/5
f 92/34/6 82/36/3 81/10/3 91/35/6
f 94/27/3 96/37/4 95/38/4 93/8/3
f 96/37/4 98/31/5 97/32/5 95/38/4
f 98/31/5 100/39/6 99/40/6 97/32/5
f 100/39/6 94/36/3 93/10/3 99/40/6
f 102/27/3 104/41/4 103/42/4 101/8/3
f 104/41/4 106/37/5 105/38/5 103/42/4
f 106/37/5 108/43/5 107/44/5 105/38/5
f 108/43/5 110/31/5 109/32/5 107/44/5
f 110/31/5 112/45/6 111/46/6 109/32/5
f 112/45/6 114/39/6 113/40/6 111/46/6
f 114/39/6 116/47/6 115/48/6 113/40/6
f 116/47/6 102/36/3 101/10/3 115/48/6
f 118/27/3 120/41/4 119/42/4 117/8/3
f 120/41/4 122/37/4 121/38/4 119/42/4
f 122/37/4 124/43/3 123/44/3 121/38/4
f 124/43/3 126/31/3 125/32/3 123/44/3
f 126/31/3 128/45/4 127/46/4 125/32/3
f 128/45/4 130/39/5 129/40/5 127/46/4
f 130/39/5 132/47/6 131/48/6 129/40/5
f 132/47/6 118/36/3 117/10/3 131/48/6
f 134/27/3 136/37/4 135/38/4 133/8/3
f 136/37/4 138/31/5 137/32/5 135/38/4
f 138/31/5 140/39/6 139/40/6 137/32/5
f 140/39/6 134/36/3 133/10/3 139/40/6
f 142/27/3 144/49/3 143/50/3 141/8/3
f 144/49/3 146/51/3 145/52/3 143/50/3
f 146/51/3 148/53/4 147/54/4 145/52/3
f 148/53/4 150/55/4 149/56/4 147/54/4
f 150/55/4 152/31/4 151/32/4 149/56/4
f 152/31/4 154/57/5 153/58/5 151/32/4
f 154/57/5 156/59/6 155/60/6 153/58/5
f 156/59/6 158/61/6 157/62/6 155/60/6
f 158/61/6 160/63/6 159/64/6 157/62/6
f 160/63/6 142/36/3 141/10/3 159/64/6
