# Blender 4.4.1
# www.blender.org
mtllib Syrup.mtl
o syrup
v -0.011642 0.562403 -0.021039
v -0.085448 0.525661 0.033747
v -0.030187 0.510992 -0.075742
v 0.034627 0.502013 -0.067691
v 0.091907 0.506118 -0.035844
v 0.044342 0.526547 0.036330
v 0.035345 0.518527 0.084820
v -0.027393 0.487877 0.077056
v -0.167629 0.490595 -0.072928
v -0.139849 0.471918 0.055529
v -0.050949 0.466972 -0.126221
v 0.056069 0.454742 -0.120473
v 0.141089 0.474627 -0.051240
v 0.134690 0.487427 0.070156
v 0.048098 0.484771 0.125237
v -0.054796 0.482219 0.112305
v 0.008172 0.354619 0.172381
v -0.078753 0.346193 0.181700
v -0.060826 0.342608 -0.158315
v 0.089018 0.349094 -0.210288
v -0.165851 0.346195 0.065243
v -0.165462 0.346460 -0.072102
v 0.069641 0.419693 0.184427
v 0.166900 0.400275 -0.065700
v -0.063387 0.417109 -0.163034
v -0.156006 0.418694 0.061597
v -0.075077 0.418700 0.146841
v 0.184547 0.433227 0.082725
v 0.071172 0.415603 -0.162300
v -0.162464 0.421053 -0.071208
vn -0.1200 0.5035 0.8556
vn 0.6799 0.6970 -0.2279
vn 0.7393 0.6726 -0.0320
vn 0.0119 0.7323 -0.6809
vn -0.9772 -0.0676 0.2015
vn -0.6949 0.2862 0.6597
vn 0.3740 0.6887 0.6211
vn 0.5453 0.3384 -0.7669
vn -0.5397 0.5830 -0.6073
vn -0.6306 0.7370 0.2435
vn -0.1238 0.7437 -0.6570
vn 0.1828 0.7025 -0.6878
vn 0.2675 0.7693 -0.5803
vn 0.5244 0.8492 -0.0619
vn 0.2310 0.8843 0.4058
vn -0.3944 0.6403 0.6592
vn 0.2959 0.8801 0.3713
vn -0.6359 -0.0705 -0.7686
vn -0.7189 0.1319 0.6825
vn -0.9980 0.0395 0.0492
vn -0.3026 0.5030 -0.8096
vn 0.0549 0.4304 0.9010
vn 0.6321 0.5577 -0.5379
vn -0.2008 0.6219 0.7569
vn 0.0593 0.7902 0.6099
vn -0.4445 0.8934 0.0653
vn 0.0609 0.9702 -0.2345
vn 0.1825 0.6848 -0.7055
vn -0.0948 0.7999 0.5925
vn 0.9160 0.3545 -0.1876
vn 0.1091 0.5726 -0.8125
vn -0.9540 0.2955 0.0516
vn -0.5141 0.5306 0.6739
vn 0.4905 0.5981 0.6338
vn 0.5627 0.6952 -0.4473
vn -0.4239 -0.0539 -0.9041
vn -0.4266 0.9039 0.0315
vn -0.1274 0.7729 -0.6216
vn 0.1213 0.7634 -0.6344
vn 0.2997 0.7539 -0.5846
vn 0.3968 0.9179 0.0017
vn 0.7772 0.5815 0.2404
vn -0.0406 0.9910 0.1275
vn -0.4577 0.6903 0.5603
vn -0.6785 0.0361 -0.7337
vn -0.7608 0.3121 0.5690
vn -0.9909 0.1344 -0.0025
vn 0.0047 -0.0630 -0.9980
vn -0.2513 0.0586 0.9661
vt 0.604152 0.216189
vt 0.654741 0.198327
vt 0.634260 0.224496
vt 0.673743 0.243481
vt 0.674967 0.221399
vt 0.697391 0.244562
vt 0.702801 0.160541
vt 0.717676 0.215549
vt 0.686891 0.191728
vt 0.702716 0.300410
vt 0.721406 0.254452
vt 0.742602 0.265519
vt 0.651073 0.301089
vt 0.629050 0.258103
vt 0.658137 0.278016
vt 0.610726 0.267351
vt 0.642997 0.170319
vt 0.740549 0.208883
vt 0.692394 0.279899
vt 0.650489 0.247493
vt 0.683651 0.259419
vt 0.701017 0.224857
vt 0.648568 0.224904
vt 0.663635 0.212216
vt 0.636705 0.342818
vt 0.718842 0.335745
vt 0.575105 0.284414
vt 0.772866 0.279430
vt 0.623032 0.135347
vt 0.568034 0.199456
s 0
usemtl マテリアル.001
f 27/1/1 15/2/1 16/3/1
f 1/4/2 6/5/2 4/6/2
f 28/7/3 13/8/3 14/9/3
f 25/10/4 12/11/4 29/12/4
f 30/13/5 10/14/5 9/15/5
f 27/1/6 10/14/6 26/16/6
f 23/17/7 14/9/7 15/2/7
f 24/18/8 12/11/8 13/8/8
f 30/13/9 11/19/9 25/10/9
f 2/20/10 9/15/10 10/14/10
f 3/21/11 9/15/11 1/4/11
f 4/6/12 11/19/12 3/21/12
f 5/22/13 12/11/13 4/6/13
f 5/22/14 14/9/14 13/8/14
f 6/5/15 15/2/15 14/9/15
f 8/23/16 15/2/16 7/24/16
f 2/20/17 16/3/17 8/23/17
f 22/25/18 25/10/18 19/26/18
f 21/27/19 27/1/19 26/16/19
f 22/25/20 26/16/20 30/13/20
f 19/26/21 29/12/21 20/28/21
f 17/29/22 27/1/22 18/30/22
f 20/28/23 29/12/23 24/18/23
f 27/1/24 23/17/24 15/2/24
f 1/4/25 2/20/25 8/23/25
f 8/23/26 7/24/26 6/5/26
f 6/5/27 5/22/27 4/6/27
f 4/6/28 3/21/28 1/4/28
f 1/4/29 8/23/29 6/5/29
f 28/7/30 24/18/30 13/8/30
f 25/10/31 11/19/31 12/11/31
f 30/13/32 26/16/32 10/14/32
f 27/1/33 16/3/33 10/14/33
f 23/17/34 28/7/34 14/9/34
f 24/18/35 29/12/35 12/11/35
f 30/13/36 9/15/36 11/19/36
f 2/20/37 1/4/37 9/15/37
f 3/21/38 11/19/38 9/15/38
f 4/6/39 12/11/39 11/19/39
f 5/22/40 13/8/40 12/11/40
f 5/22/41 6/5/41 14/9/41
f 6/5/42 7/24/42 15/2/42
f 8/23/43 16/3/43 15/2/43
f 2/20/44 10/14/44 16/3/44
f 22/25/45 30/13/45 25/10/45
f 21/27/46 18/30/46 27/1/46
f 22/25/47 21/27/47 26/16/47
f 19/26/48 25/10/48 29/12/48
f 17/29/49 23/17/49 27/1/49
