<?xml version="1.0" encoding="UTF-8" standalone="no"?>
<!DOCTYPE svg PUBLIC "-//W3C//DTD SVG 1.1//EN"
 "http://www.w3.org/Graphics/SVG/1.1/DTD/svg11.dtd">
<!-- Generated by graphviz version 14.1.1 (20251213.1925)
 -->
<!-- Title: engine/include/utility/DebugTool/App/CrashHandler.h Pages: 1 -->
<svg width="221pt" height="96pt"
 viewBox="0.00 0.00 221.00 96.00" xmlns="http://www.w3.org/2000/svg" xmlns:xlink="http://www.w3.org/1999/xlink">
<g id="graph0" class="graph" transform="scale(1 1) rotate(0) translate(4 92)">
<title>engine/include/utility/DebugTool/App/CrashHandler.h</title>
<!-- Node1 -->
<g id="Node000001" class="node">
<title>Node1</title>
<g id="a_Node000001"><a xlink:title=" ">
<polygon fill="#999999" stroke="#666666" points="189.88,-88 32.88,-88 32.88,-56 189.88,-56 189.88,-88"/>
<text xml:space="preserve" text-anchor="start" x="40.88" y="-74.5" font-family="Helvetica,sans-Serif" font-size="10.00">engine/include/utility</text>
<text xml:space="preserve" text-anchor="middle" x="111.38" y="-62.5" font-family="Helvetica,sans-Serif" font-size="10.00">/DebugTool/App/CrashHandler.h</text>
</a>
</g>
</g>
<!-- Node2 -->
<g id="Node000002" class="node">
<title>Node2</title>
<g id="a_Node000002"><a xlink:title=" ">
<polygon fill="#e0e0e0" stroke="#999999" points="64.75,-20 0,-20 0,0 64.75,0 64.75,-20"/>
<text xml:space="preserve" text-anchor="middle" x="32.38" y="-6.5" font-family="Helvetica,sans-Serif" font-size="10.00">Windows.h</text>
</a>
</g>
</g>
<!-- Node1&#45;&gt;Node2 -->
<g id="edge1_Node000001_Node000002" class="edge">
<title>Node1&#45;&gt;Node2</title>
<g id="a_edge1_Node000001_Node000002"><a xlink:title=" ">
<path fill="none" stroke="#63b8ff" d="M91.03,-55.55C79.6,-46.87 65.35,-36.04 53.76,-27.24"/>
<polygon fill="#63b8ff" stroke="#63b8ff" points="56.05,-24.58 45.97,-21.32 51.81,-30.16 56.05,-24.58"/>
</a>
</g>
</g>
<!-- Node3 -->
<g id="Node000003" class="node">
<title>Node3</title>
<g id="a_Node000003"><a xlink:title=" ">
<polygon fill="#e0e0e0" stroke="#999999" points="140.38,-20 82.38,-20 82.38,0 140.38,0 140.38,-20"/>
<text xml:space="preserve" text-anchor="middle" x="111.38" y="-6.5" font-family="Helvetica,sans-Serif" font-size="10.00">dbghelp.h</text>
</a>
</g>
</g>
<!-- Node1&#45;&gt;Node3 -->
<g id="edge2_Node000001_Node000003" class="edge">
<title>Node1&#45;&gt;Node3</title>
<g id="a_edge2_Node000001_Node000003"><a xlink:title=" ">
<path fill="none" stroke="#63b8ff" d="M111.38,-55.55C111.38,-48.34 111.38,-39.66 111.38,-31.88"/>
<polygon fill="#63b8ff" stroke="#63b8ff" points="114.88,-31.92 111.38,-21.92 107.88,-31.92 114.88,-31.92"/>
</a>
</g>
</g>
<!-- Node4 -->
<g id="Node000004" class="node">
<title>Node4</title>
<g id="a_Node000004"><a xlink:title=" ">
<polygon fill="#e0e0e0" stroke="#999999" points="212.5,-20 158.25,-20 158.25,0 212.5,0 212.5,-20"/>
<text xml:space="preserve" text-anchor="middle" x="185.38" y="-6.5" font-family="Helvetica,sans-Serif" font-size="10.00">strsafe.h</text>
</a>
</g>
</g>
<!-- Node1&#45;&gt;Node4 -->
<g id="edge3_Node000001_Node000004" class="edge">
<title>Node1&#45;&gt;Node4</title>
<g id="a_edge3_Node000001_Node000004"><a xlink:title=" ">
<path fill="none" stroke="#63b8ff" d="M130.43,-55.55C141.03,-46.95 154.22,-36.26 165.02,-27.5"/>
<polygon fill="#63b8ff" stroke="#63b8ff" points="167.03,-30.38 172.6,-21.36 162.62,-24.94 167.03,-30.38"/>
</a>
</g>
</g>
</g>
</svg>
