<?xml version="1.0" encoding="UTF-8" standalone="no"?>
<!DOCTYPE svg PUBLIC "-//W3C//DTD SVG 1.1//EN"
 "http://www.w3.org/Graphics/SVG/1.1/DTD/svg11.dtd">
<!-- Generated by graphviz version 14.1.1 (20251213.1925)
 -->
<!-- Title: engine/src/graphic/DirectXCommon/Descriptors/DescriptorHeapManager.cpp Pages: 1 -->
<svg width="471pt" height="356pt"
 viewBox="0.00 0.00 471.00 356.00" xmlns="http://www.w3.org/2000/svg" xmlns:xlink="http://www.w3.org/1999/xlink">
<g id="graph0" class="graph" transform="scale(1 1) rotate(0) translate(4 352)">
<title>engine/src/graphic/DirectXCommon/Descriptors/DescriptorHeapManager.cpp</title>
<!-- Node1 -->
<g id="Node000001" class="node">
<title>Node1</title>
<g id="a_Node000001"><a xlink:title=" ">
<polygon fill="#999999" stroke="#666666" points="292,-348 147,-348 147,-304 292,-304 292,-348"/>
<text xml:space="preserve" text-anchor="start" x="155" y="-334.5" font-family="Helvetica,sans-Serif" font-size="10.00">engine/src/graphic</text>
<text xml:space="preserve" text-anchor="start" x="155" y="-322.5" font-family="Helvetica,sans-Serif" font-size="10.00">/DirectXCommon/Descriptors</text>
<text xml:space="preserve" text-anchor="middle" x="219.5" y="-310.5" font-family="Helvetica,sans-Serif" font-size="10.00">/DescriptorHeapManager.cpp</text>
</a>
</g>
</g>
<!-- Node2 -->
<g id="Node000002" class="node">
<title>Node2</title>
<g id="a_Node000002"><a xlink:href="_descriptor_heap_manager_8h.html" target="_top" xlink:title=" ">
<polygon fill="white" stroke="#666666" points="292,-268 147,-268 147,-224 292,-224 292,-268"/>
<text xml:space="preserve" text-anchor="start" x="155" y="-254.5" font-family="Helvetica,sans-Serif" font-size="10.00">engine/include/graphic</text>
<text xml:space="preserve" text-anchor="start" x="155" y="-242.5" font-family="Helvetica,sans-Serif" font-size="10.00">/DirectXCommon/Descriptors</text>
<text xml:space="preserve" text-anchor="middle" x="219.5" y="-230.5" font-family="Helvetica,sans-Serif" font-size="10.00">/DescriptorHeapManager.h</text>
</a>
</g>
</g>
<!-- Node1&#45;&gt;Node2 -->
<g id="edge1_Node000001_Node000002" class="edge">
<title>Node1&#45;&gt;Node2</title>
<g id="a_edge1_Node000001_Node000002"><a xlink:title=" ">
<path fill="none" stroke="#63b8ff" d="M219.5,-303.69C219.5,-296.29 219.5,-287.82 219.5,-279.72"/>
<polygon fill="#63b8ff" stroke="#63b8ff" points="223,-279.8 219.5,-269.8 216,-279.8 223,-279.8"/>
</a>
</g>
</g>
<!-- Node3 -->
<g id="Node000003" class="node">
<title>Node3</title>
<g id="a_Node000003"><a xlink:href="_rtv_descriptor_heap_8h.html" target="_top" xlink:title=" ">
<polygon fill="white" stroke="#666666" points="147.62,-188 39.38,-188 39.38,-168 147.62,-168 147.62,-188"/>
<text xml:space="preserve" text-anchor="middle" x="93.5" y="-174.5" font-family="Helvetica,sans-Serif" font-size="10.00">RtvDescriptorHeap.h</text>
</a>
</g>
</g>
<!-- Node2&#45;&gt;Node3 -->
<g id="edge2_Node000002_Node000003" class="edge">
<title>Node2&#45;&gt;Node3</title>
<g id="a_edge2_Node000002_Node000003"><a xlink:title=" ">
<path fill="none" stroke="#63b8ff" d="M178.59,-223.57C159.79,-213.72 137.98,-202.3 121.14,-193.48"/>
<polygon fill="#63b8ff" stroke="#63b8ff" points="123.2,-190.61 112.72,-189.07 119.95,-196.81 123.2,-190.61"/>
</a>
</g>
</g>
<!-- Node11 -->
<g id="Node000011" class="node">
<title>Node11</title>
<g id="a_Node000011"><a xlink:href="_srv_descriptor_heap_8h.html" target="_top" xlink:title=" ">
<polygon fill="white" stroke="#666666" points="273.25,-188 165.75,-188 165.75,-168 273.25,-168 273.25,-188"/>
<text xml:space="preserve" text-anchor="middle" x="219.5" y="-174.5" font-family="Helvetica,sans-Serif" font-size="10.00">SrvDescriptorHeap.h</text>
</a>
</g>
</g>
<!-- Node2&#45;&gt;Node11 -->
<g id="edge12_Node000002_Node000011" class="edge">
<title>Node2&#45;&gt;Node11</title>
<g id="a_edge12_Node000002_Node000011"><a xlink:title=" ">
<path fill="none" stroke="#63b8ff" d="M219.5,-223.75C219.5,-216.13 219.5,-207.53 219.5,-199.93"/>
<polygon fill="#63b8ff" stroke="#63b8ff" points="223,-199.93 219.5,-189.93 216,-199.93 223,-199.93"/>
</a>
</g>
</g>
<!-- Node12 -->
<g id="Node000012" class="node">
<title>Node12</title>
<g id="a_Node000012"><a xlink:href="_dsv_descriptor_heap_8h.html" target="_top" xlink:title=" ">
<polygon fill="white" stroke="#666666" points="401.75,-188 291.25,-188 291.25,-168 401.75,-168 401.75,-188"/>
<text xml:space="preserve" text-anchor="middle" x="346.5" y="-174.5" font-family="Helvetica,sans-Serif" font-size="10.00">DsvDescriptorHeap.h</text>
</a>
</g>
</g>
<!-- Node2&#45;&gt;Node12 -->
<g id="edge15_Node000002_Node000012" class="edge">
<title>Node2&#45;&gt;Node12</title>
<g id="a_edge15_Node000002_Node000012"><a xlink:title=" ">
<path fill="none" stroke="#63b8ff" d="M260.73,-223.57C279.69,-213.72 301.67,-202.3 318.64,-193.48"/>
<polygon fill="#63b8ff" stroke="#63b8ff" points="319.88,-196.78 327.14,-189.06 316.65,-190.57 319.88,-196.78"/>
</a>
</g>
</g>
<!-- Node4 -->
<g id="Node000004" class="node">
<title>Node4</title>
<g id="a_Node000004"><a xlink:href="_i_descriptor_heap_8h.html" target="_top" xlink:title=" ">
<polygon fill="white" stroke="#666666" points="222.25,-132 126.75,-132 126.75,-112 222.25,-112 222.25,-132"/>
<text xml:space="preserve" text-anchor="middle" x="174.5" y="-118.5" font-family="Helvetica,sans-Serif" font-size="10.00">IDescriptorHeap.h</text>
</a>
</g>
</g>
<!-- Node3&#45;&gt;Node4 -->
<g id="edge3_Node000003_Node000004" class="edge">
<title>Node3&#45;&gt;Node4</title>
<g id="a_edge3_Node000003_Node000004"><a xlink:title=" ">
<path fill="none" stroke="#63b8ff" d="M107.61,-167.59C119.5,-159.67 136.77,-148.16 150.78,-138.82"/>
<polygon fill="#63b8ff" stroke="#63b8ff" points="152.64,-141.78 159.02,-133.32 148.76,-135.95 152.64,-141.78"/>
</a>
</g>
</g>
<!-- Node10 -->
<g id="Node000010" class="node">
<title>Node10</title>
<g id="a_Node000010"><a xlink:title=" ">
<polygon fill="#e0e0e0" stroke="#999999" points="288.62,-132 240.38,-132 240.38,-112 288.62,-112 288.62,-132"/>
<text xml:space="preserve" text-anchor="middle" x="264.5" y="-118.5" font-family="Helvetica,sans-Serif" font-size="10.00">cassert</text>
</a>
</g>
</g>
<!-- Node3&#45;&gt;Node10 -->
<g id="edge11_Node000003_Node000010" class="edge">
<title>Node3&#45;&gt;Node10</title>
<g id="a_edge11_Node000003_Node000010"><a xlink:title=" ">
<path fill="none" stroke="#63b8ff" d="M123.29,-167.59C152.77,-158.28 197.92,-144.03 229.19,-134.15"/>
<polygon fill="#63b8ff" stroke="#63b8ff" points="230.11,-137.53 238.59,-131.18 228,-130.86 230.11,-137.53"/>
</a>
</g>
</g>
<!-- Node5 -->
<g id="Node000005" class="node">
<title>Node5</title>
<g id="a_Node000005"><a xlink:title=" ">
<polygon fill="#e0e0e0" stroke="#999999" points="37,-76 0,-76 0,-56 37,-56 37,-76"/>
<text xml:space="preserve" text-anchor="middle" x="18.5" y="-62.5" font-family="Helvetica,sans-Serif" font-size="10.00">wrl.h</text>
</a>
</g>
</g>
<!-- Node4&#45;&gt;Node5 -->
<g id="edge4_Node000004_Node000005" class="edge">
<title>Node4&#45;&gt;Node5</title>
<g id="a_edge4_Node000004_Node000005"><a xlink:title=" ">
<path fill="none" stroke="#63b8ff" d="M147.33,-111.59C119.43,-101.94 76.17,-86.96 47.59,-77.07"/>
<polygon fill="#63b8ff" stroke="#63b8ff" points="49.08,-73.88 38.49,-73.92 46.79,-80.5 49.08,-73.88"/>
</a>
</g>
</g>
<!-- Node6 -->
<g id="Node000006" class="node">
<title>Node6</title>
<g id="a_Node000006"><a xlink:title=" ">
<polygon fill="#e0e0e0" stroke="#999999" points="199.75,-20 149.25,-20 149.25,0 199.75,0 199.75,-20"/>
<text xml:space="preserve" text-anchor="middle" x="174.5" y="-6.5" font-family="Helvetica,sans-Serif" font-size="10.00">d3d12.h</text>
</a>
</g>
</g>
<!-- Node4&#45;&gt;Node6 -->
<g id="edge5_Node000004_Node000006" class="edge">
<title>Node4&#45;&gt;Node6</title>
<g id="a_edge5_Node000004_Node000006"><a xlink:title=" ">
<path fill="none" stroke="#63b8ff" d="M135.08,-111.66C116.33,-105.02 95.61,-93.98 84.5,-76 68.46,-50.04 106.69,-31.33 138.19,-20.83"/>
<polygon fill="#63b8ff" stroke="#63b8ff" points="139.01,-24.24 147.51,-17.91 136.92,-17.56 139.01,-24.24"/>
</a>
</g>
</g>
<!-- Node7 -->
<g id="Node000007" class="node">
<title>Node7</title>
<g id="a_Node000007"><a xlink:title=" ">
<polygon fill="#e0e0e0" stroke="#999999" points="462.62,-76 420.38,-76 420.38,-56 462.62,-56 462.62,-76"/>
<text xml:space="preserve" text-anchor="middle" x="441.5" y="-62.5" font-family="Helvetica,sans-Serif" font-size="10.00">queue</text>
</a>
</g>
</g>
<!-- Node4&#45;&gt;Node7 -->
<g id="edge6_Node000004_Node000007" class="edge">
<title>Node4&#45;&gt;Node7</title>
<g id="a_edge6_Node000004_Node000007"><a xlink:title=" ">
<path fill="none" stroke="#63b8ff" d="M222.48,-113.39C268.23,-105.81 339.25,-93.16 409.19,-76.38"/>
<polygon fill="#63b8ff" stroke="#63b8ff" points="409.58,-79.88 418.47,-74.12 407.93,-73.08 409.58,-79.88"/>
</a>
</g>
</g>
<!-- Node8 -->
<g id="Node000008" class="node">
<title>Node8</title>
<g id="a_Node000008"><a xlink:href="_descriptor_generate_config_8h.html" target="_top" xlink:title=" ">
<polygon fill="white" stroke="#666666" points="255.25,-76 93.75,-76 93.75,-56 255.25,-56 255.25,-76"/>
<text xml:space="preserve" text-anchor="middle" x="174.5" y="-62.5" font-family="Helvetica,sans-Serif" font-size="10.00">Data/DescriptorGenerateConfig.h</text>
</a>
</g>
</g>
<!-- Node4&#45;&gt;Node8 -->
<g id="edge7_Node000004_Node000008" class="edge">
<title>Node4&#45;&gt;Node8</title>
<g id="a_edge7_Node000004_Node000008"><a xlink:title=" ">
<path fill="none" stroke="#63b8ff" d="M174.5,-111.59C174.5,-105.01 174.5,-95.96 174.5,-87.73"/>
<polygon fill="#63b8ff" stroke="#63b8ff" points="178,-87.81 174.5,-77.81 171,-87.81 178,-87.81"/>
</a>
</g>
</g>
<!-- Node9 -->
<g id="Node000009" class="node">
<title>Node9</title>
<g id="a_Node000009"><a xlink:href="_descriptor_handles_8h.html" target="_top" xlink:title=" ">
<polygon fill="white" stroke="#666666" points="402.12,-76 272.88,-76 272.88,-56 402.12,-56 402.12,-76"/>
<text xml:space="preserve" text-anchor="middle" x="337.5" y="-62.5" font-family="Helvetica,sans-Serif" font-size="10.00">Data/DescriptorHandles.h</text>
</a>
</g>
</g>
<!-- Node4&#45;&gt;Node9 -->
<g id="edge9_Node000004_Node000009" class="edge">
<title>Node4&#45;&gt;Node9</title>
<g id="a_edge9_Node000004_Node000009"><a xlink:title=" ">
<path fill="none" stroke="#63b8ff" d="M202.89,-111.59C229.26,-102.86 268.76,-89.77 298.16,-80.03"/>
<polygon fill="#63b8ff" stroke="#63b8ff" points="299.06,-83.42 307.45,-76.96 296.86,-76.78 299.06,-83.42"/>
</a>
</g>
</g>
<!-- Node8&#45;&gt;Node6 -->
<g id="edge8_Node000008_Node000006" class="edge">
<title>Node8&#45;&gt;Node6</title>
<g id="a_edge8_Node000008_Node000006"><a xlink:title=" ">
<path fill="none" stroke="#63b8ff" d="M174.5,-55.59C174.5,-49.01 174.5,-39.96 174.5,-31.73"/>
<polygon fill="#63b8ff" stroke="#63b8ff" points="178,-31.81 174.5,-21.81 171,-31.81 178,-31.81"/>
</a>
</g>
</g>
<!-- Node9&#45;&gt;Node6 -->
<g id="edge10_Node000009_Node000006" class="edge">
<title>Node9&#45;&gt;Node6</title>
<g id="a_edge10_Node000009_Node000006"><a xlink:title=" ">
<path fill="none" stroke="#63b8ff" d="M309.11,-55.59C281.85,-46.56 240.56,-32.88 210.9,-23.06"/>
<polygon fill="#63b8ff" stroke="#63b8ff" points="212.18,-19.8 201.59,-19.97 209.98,-26.44 212.18,-19.8"/>
</a>
</g>
</g>
<!-- Node11&#45;&gt;Node4 -->
<g id="edge13_Node000011_Node000004" class="edge">
<title>Node11&#45;&gt;Node4</title>
<g id="a_edge13_Node000011_Node000004"><a xlink:title=" ">
<path fill="none" stroke="#63b8ff" d="M211.66,-167.59C205.53,-160.24 196.83,-149.8 189.39,-140.87"/>
<polygon fill="#63b8ff" stroke="#63b8ff" points="192.31,-138.9 183.22,-133.46 186.93,-143.38 192.31,-138.9"/>
</a>
</g>
</g>
<!-- Node11&#45;&gt;Node10 -->
<g id="edge14_Node000011_Node000010" class="edge">
<title>Node11&#45;&gt;Node10</title>
<g id="a_edge14_Node000011_Node000010"><a xlink:title=" ">
<path fill="none" stroke="#63b8ff" d="M227.34,-167.59C233.47,-160.24 242.17,-149.8 249.61,-140.87"/>
<polygon fill="#63b8ff" stroke="#63b8ff" points="252.07,-143.38 255.78,-133.46 246.69,-138.9 252.07,-143.38"/>
</a>
</g>
</g>
<!-- Node12&#45;&gt;Node4 -->
<g id="edge16_Node000012_Node000004" class="edge">
<title>Node12&#45;&gt;Node4</title>
<g id="a_edge16_Node000012_Node000004"><a xlink:title=" ">
<path fill="none" stroke="#63b8ff" d="M316.54,-167.59C288.59,-158.82 246.67,-145.66 215.6,-135.9"/>
<polygon fill="#63b8ff" stroke="#63b8ff" points="216.73,-132.59 206.14,-132.93 214.63,-139.27 216.73,-132.59"/>
</a>
</g>
</g>
<!-- Node12&#45;&gt;Node10 -->
<g id="edge17_Node000012_Node000010" class="edge">
<title>Node12&#45;&gt;Node10</title>
<g id="a_edge17_Node000012_Node000010"><a xlink:title=" ">
<path fill="none" stroke="#63b8ff" d="M332.22,-167.59C320.06,-159.59 302.36,-147.93 288.1,-138.54"/>
<polygon fill="#63b8ff" stroke="#63b8ff" points="290.44,-135.89 280.16,-133.31 286.59,-141.73 290.44,-135.89"/>
</a>
</g>
</g>
</g>
</svg>
