<?xml version="1.0" encoding="UTF-8" standalone="no"?>
<!DOCTYPE svg PUBLIC "-//W3C//DTD SVG 1.1//EN"
 "http://www.w3.org/Graphics/SVG/1.1/DTD/svg11.dtd">
<!-- Generated by graphviz version 14.1.1 (20251213.1925)
 -->
<!-- Title: engine/include/input/DirectInput/DirectInputManager.h Pages: 1 -->
<svg width="1201pt" height="256pt"
 viewBox="0.00 0.00 1201.00 256.00" xmlns="http://www.w3.org/2000/svg" xmlns:xlink="http://www.w3.org/1999/xlink">
<g id="graph0" class="graph" transform="scale(1 1) rotate(0) translate(4 252)">
<title>engine/include/input/DirectInput/DirectInputManager.h</title>
<!-- Node1 -->
<g id="Node000001" class="node">
<title>Node1</title>
<g id="a_Node000001"><a xlink:title=" ">
<polygon fill="#999999" stroke="#666666" points="628.25,-248 464.5,-248 464.5,-216 628.25,-216 628.25,-248"/>
<text xml:space="preserve" text-anchor="start" x="472.5" y="-234.5" font-family="Helvetica,sans-Serif" font-size="10.00">engine/include/input</text>
<text xml:space="preserve" text-anchor="middle" x="546.38" y="-222.5" font-family="Helvetica,sans-Serif" font-size="10.00">/DirectInput/DirectInputManager.h</text>
</a>
</g>
</g>
<!-- Node2 -->
<g id="Node000002" class="node">
<title>Node2</title>
<g id="a_Node000002"><a xlink:href="_input_interface_8h.html" target="_top" xlink:title=" ">
<polygon fill="white" stroke="#666666" points="529.5,-180 427.25,-180 427.25,-148 529.5,-148 529.5,-180"/>
<text xml:space="preserve" text-anchor="start" x="435.25" y="-166.5" font-family="Helvetica,sans-Serif" font-size="10.00">engine/include/input</text>
<text xml:space="preserve" text-anchor="middle" x="478.38" y="-154.5" font-family="Helvetica,sans-Serif" font-size="10.00">/InputInterface.h</text>
</a>
</g>
</g>
<!-- Node1&#45;&gt;Node2 -->
<g id="edge1_Node000001_Node000002" class="edge">
<title>Node1&#45;&gt;Node2</title>
<g id="a_edge1_Node000001_Node000002"><a xlink:title=" ">
<path fill="none" stroke="#63b8ff" d="M522.38,-207.71C512.98,-198.59 502.46,-188.37 494.06,-180.22"/>
<polygon fill="#63b8ff" stroke="#63b8ff" points="519.9,-210.18 529.52,-214.64 524.78,-205.16 519.9,-210.18"/>
</a>
</g>
</g>
<!-- Node14 -->
<g id="Node000014" class="node">
<title>Node14</title>
<g id="a_Node000014"><a xlink:href="_direct_input_manager_8cpp.html" target="_top" xlink:title=" ">
<polygon fill="white" stroke="#666666" points="683.38,-180 547.38,-180 547.38,-148 683.38,-148 683.38,-180"/>
<text xml:space="preserve" text-anchor="start" x="555.38" y="-166.5" font-family="Helvetica,sans-Serif" font-size="10.00">engine/src/input/DirectInput</text>
<text xml:space="preserve" text-anchor="middle" x="615.38" y="-154.5" font-family="Helvetica,sans-Serif" font-size="10.00">/DirectInputManager.cpp</text>
</a>
</g>
</g>
<!-- Node1&#45;&gt;Node14 -->
<g id="edge13_Node000001_Node000014" class="edge">
<title>Node1&#45;&gt;Node14</title>
<g id="a_edge13_Node000001_Node000014"><a xlink:title=" ">
<path fill="none" stroke="#63b8ff" d="M570.43,-207.99C580.05,-198.79 590.85,-188.46 599.46,-180.22"/>
<polygon fill="#63b8ff" stroke="#63b8ff" points="568.28,-205.2 563.47,-214.65 573.12,-210.26 568.28,-205.2"/>
</a>
</g>
</g>
<!-- Node3 -->
<g id="Node000003" class="node">
<title>Node3</title>
<g id="a_Node000003"><a xlink:href="_key_config_edit_8cpp.html" target="_top" xlink:title=" ">
<polygon fill="white" stroke="#666666" points="100.75,-106 0,-106 0,-74 100.75,-74 100.75,-106"/>
<text xml:space="preserve" text-anchor="start" x="8" y="-92.5" font-family="Helvetica,sans-Serif" font-size="10.00">editor/src/UI/Edit</text>
<text xml:space="preserve" text-anchor="middle" x="50.38" y="-80.5" font-family="Helvetica,sans-Serif" font-size="10.00">/KeyConfigEdit.cpp</text>
</a>
</g>
</g>
<!-- Node2&#45;&gt;Node3 -->
<g id="edge2_Node000002_Node000003" class="edge">
<title>Node2&#45;&gt;Node3</title>
<g id="a_edge2_Node000002_Node000003"><a xlink:title=" ">
<path fill="none" stroke="#63b8ff" d="M415.48,-158.12C341.64,-151.51 215.86,-137.5 110.38,-112 104.05,-110.47 97.45,-108.53 91.04,-106.45"/>
<polygon fill="#63b8ff" stroke="#63b8ff" points="415.1,-161.6 425.37,-158.99 415.71,-154.63 415.1,-161.6"/>
</a>
</g>
</g>
<!-- Node4 -->
<g id="Node000004" class="node">
<title>Node4</title>
<g id="a_Node000004"><a xlink:href="_input_debug_view_8cpp.html" target="_top" xlink:title=" ">
<polygon fill="white" stroke="#666666" points="227.88,-106 118.88,-106 118.88,-74 227.88,-74 227.88,-106"/>
<text xml:space="preserve" text-anchor="start" x="126.88" y="-92.5" font-family="Helvetica,sans-Serif" font-size="10.00">editor/src/UI/View</text>
<text xml:space="preserve" text-anchor="middle" x="173.38" y="-80.5" font-family="Helvetica,sans-Serif" font-size="10.00">/InputDebugView.cpp</text>
</a>
</g>
</g>
<!-- Node2&#45;&gt;Node4 -->
<g id="edge3_Node000002_Node000004" class="edge">
<title>Node2&#45;&gt;Node4</title>
<g id="a_edge3_Node000002_Node000004"><a xlink:title=" ">
<path fill="none" stroke="#63b8ff" d="M416.17,-151.76C367.25,-142.46 297.53,-128.18 237.38,-112 231.16,-110.33 224.67,-108.41 218.3,-106.42"/>
<polygon fill="#63b8ff" stroke="#63b8ff" points="415.25,-155.15 425.73,-153.56 416.55,-148.27 415.25,-155.15"/>
</a>
</g>
</g>
<!-- Node5 -->
<g id="Node000005" class="node">
<title>Node5</title>
<g id="a_Node000005"><a xlink:href="_input_log_view_8cpp.html" target="_top" xlink:title=" ">
<polygon fill="white" stroke="#666666" points="342.5,-106 246.25,-106 246.25,-74 342.5,-74 342.5,-106"/>
<text xml:space="preserve" text-anchor="start" x="254.25" y="-92.5" font-family="Helvetica,sans-Serif" font-size="10.00">editor/src/UI/View</text>
<text xml:space="preserve" text-anchor="middle" x="294.38" y="-80.5" font-family="Helvetica,sans-Serif" font-size="10.00">/InputLogView.cpp</text>
</a>
</g>
</g>
<!-- Node2&#45;&gt;Node5 -->
<g id="edge4_Node000002_Node000005" class="edge">
<title>Node2&#45;&gt;Node5</title>
<g id="a_edge4_Node000002_Node000005"><a xlink:title=" ">
<path fill="none" stroke="#63b8ff" d="M428.32,-143.41C398.58,-131.78 361.42,-117.23 333.78,-106.42"/>
<polygon fill="#63b8ff" stroke="#63b8ff" points="426.91,-146.62 437.49,-147 429.46,-140.1 426.91,-146.62"/>
</a>
</g>
</g>
<!-- Node6 -->
<g id="Node000006" class="node">
<title>Node6</title>
<g id="a_Node000006"><a xlink:href="_scene_view_8cpp.html" target="_top" xlink:title=" ">
<polygon fill="white" stroke="#666666" points="455.75,-106 361,-106 361,-74 455.75,-74 455.75,-106"/>
<text xml:space="preserve" text-anchor="start" x="369" y="-92.5" font-family="Helvetica,sans-Serif" font-size="10.00">editor/src/UI/View</text>
<text xml:space="preserve" text-anchor="middle" x="408.38" y="-80.5" font-family="Helvetica,sans-Serif" font-size="10.00">/SceneView.cpp</text>
</a>
</g>
</g>
<!-- Node2&#45;&gt;Node6 -->
<g id="edge5_Node000002_Node000006" class="edge">
<title>Node2&#45;&gt;Node6</title>
<g id="a_edge5_Node000002_Node000006"><a xlink:title=" ">
<path fill="none" stroke="#63b8ff" d="M455.79,-139.77C445.11,-128.78 432.66,-115.98 423.2,-106.25"/>
<polygon fill="#63b8ff" stroke="#63b8ff" points="452.99,-141.92 462.47,-146.65 458.01,-137.04 452.99,-141.92"/>
</a>
</g>
</g>
<!-- Node7 -->
<g id="Node000007" class="node">
<title>Node7</title>
<g id="a_Node000007"><a xlink:href="_windows_engine_core_8h.html" target="_top" xlink:title=" ">
<polygon fill="white" stroke="#666666" points="625.25,-106 473.5,-106 473.5,-74 625.25,-74 625.25,-106"/>
<text xml:space="preserve" text-anchor="start" x="481.5" y="-92.5" font-family="Helvetica,sans-Serif" font-size="10.00">engine/include/WindowsEngine</text>
<text xml:space="preserve" text-anchor="middle" x="549.38" y="-80.5" font-family="Helvetica,sans-Serif" font-size="10.00">Core.h</text>
</a>
</g>
</g>
<!-- Node2&#45;&gt;Node7 -->
<g id="edge6_Node000002_Node000007" class="edge">
<title>Node2&#45;&gt;Node7</title>
<g id="a_edge6_Node000002_Node000007"><a xlink:title=" ">
<path fill="none" stroke="#63b8ff" d="M501.28,-139.77C512.12,-128.78 524.74,-115.98 534.34,-106.25"/>
<polygon fill="#63b8ff" stroke="#63b8ff" points="499.02,-137.08 494.5,-146.65 504.01,-141.99 499.02,-137.08"/>
</a>
</g>
</g>
<!-- Node11 -->
<g id="Node000011" class="node">
<title>Node11</title>
<g id="a_Node000011"><a xlink:href="_csharp_on_q_f_e_linker_8cpp.html" target="_top" xlink:title=" ">
<polygon fill="white" stroke="#666666" points="817.88,-106 642.88,-106 642.88,-74 817.88,-74 817.88,-106"/>
<text xml:space="preserve" text-anchor="start" x="650.88" y="-92.5" font-family="Helvetica,sans-Serif" font-size="10.00">engine/src/assets/Script</text>
<text xml:space="preserve" text-anchor="middle" x="730.38" y="-80.5" font-family="Helvetica,sans-Serif" font-size="10.00">/QFElinker/CsharpOnQFELinker.cpp</text>
</a>
</g>
</g>
<!-- Node2&#45;&gt;Node11 -->
<g id="edge10_Node000002_Node000011" class="edge">
<title>Node2&#45;&gt;Node11</title>
<g id="a_edge10_Node000002_Node000011"><a xlink:title=" ">
<path fill="none" stroke="#63b8ff" d="M540.81,-145.16C582.38,-133.28 636.47,-117.83 676.23,-106.47"/>
<polygon fill="#63b8ff" stroke="#63b8ff" points="540.09,-141.73 531.43,-147.84 542.01,-148.46 540.09,-141.73"/>
</a>
</g>
</g>
<!-- Node12 -->
<g id="Node000012" class="node">
<title>Node12</title>
<g id="a_Node000012"><a xlink:href="_lua_script_on_q_f_e_set_sub_module_base_8cpp.html" target="_top" xlink:title=" ">
<polygon fill="white" stroke="#666666" points="1008.38,-112 836.38,-112 836.38,-68 1008.38,-68 1008.38,-112"/>
<text xml:space="preserve" text-anchor="start" x="844.38" y="-98.5" font-family="Helvetica,sans-Serif" font-size="10.00">engine/src/assets/Script</text>
<text xml:space="preserve" text-anchor="start" x="844.38" y="-86.5" font-family="Helvetica,sans-Serif" font-size="10.00">/QFElinker/LuaScriptOnQFESetSub</text>
<text xml:space="preserve" text-anchor="middle" x="922.38" y="-74.5" font-family="Helvetica,sans-Serif" font-size="10.00">ModuleBase.cpp</text>
</a>
</g>
</g>
<!-- Node2&#45;&gt;Node12 -->
<g id="edge11_Node000002_Node000012" class="edge">
<title>Node2&#45;&gt;Node12</title>
<g id="a_edge11_Node000002_Node000012"><a xlink:title=" ">
<path fill="none" stroke="#63b8ff" d="M541.28,-147.6C667.63,-124.79 703.43,-133.37 827.38,-112 830.2,-111.51 833.08,-111 835.98,-110.46"/>
<polygon fill="#63b8ff" stroke="#63b8ff" points="540.69,-144.15 531.49,-149.4 541.96,-151.03 540.69,-144.15"/>
</a>
</g>
</g>
<!-- Node13 -->
<g id="Node000013" class="node">
<title>Node13</title>
<g id="a_Node000013"><a xlink:href="_input_interface_8cpp.html" target="_top" xlink:title=" ">
<polygon fill="white" stroke="#666666" points="1192.75,-100 1026,-100 1026,-80 1192.75,-80 1192.75,-100"/>
<text xml:space="preserve" text-anchor="middle" x="1109.38" y="-86.5" font-family="Helvetica,sans-Serif" font-size="10.00">engine/src/input/InputInterface.cpp</text>
</a>
</g>
</g>
<!-- Node2&#45;&gt;Node13 -->
<g id="edge12_Node000002_Node000013" class="edge">
<title>Node2&#45;&gt;Node13</title>
<g id="a_edge12_Node000002_Node000013"><a xlink:title=" ">
<path fill="none" stroke="#63b8ff" d="M541.07,-147.75C751.14,-114.99 809.88,-143.3 1017.38,-112 1036.17,-109.17 1056.82,-104.59 1073.79,-100.43"/>
<polygon fill="#63b8ff" stroke="#63b8ff" points="540.79,-144.24 531.46,-149.27 541.89,-151.16 540.79,-144.24"/>
</a>
</g>
</g>
<!-- Node8 -->
<g id="Node000008" class="node">
<title>Node8</title>
<g id="a_Node000008"><a xlink:href="main_8cpp.html" target="_top" xlink:title=" ">
<polygon fill="white" stroke="#666666" points="457.75,-26 375,-26 375,-6 457.75,-6 457.75,-26"/>
<text xml:space="preserve" text-anchor="middle" x="416.38" y="-12.5" font-family="Helvetica,sans-Serif" font-size="10.00">editor/main.cpp</text>
</a>
</g>
</g>
<!-- Node7&#45;&gt;Node8 -->
<g id="edge7_Node000007_Node000008" class="edge">
<title>Node7&#45;&gt;Node8</title>
<g id="a_edge7_Node000007_Node000008"><a xlink:title=" ">
<path fill="none" stroke="#63b8ff" d="M510.77,-68.1C485.37,-54.35 453.33,-37.01 433.87,-26.47"/>
<polygon fill="#63b8ff" stroke="#63b8ff" points="509.05,-71.15 519.51,-72.83 512.38,-64.99 509.05,-71.15"/>
</a>
</g>
</g>
<!-- Node9 -->
<g id="Node000009" class="node">
<title>Node9</title>
<g id="a_Node000009"><a xlink:href="_quick_forge_engine_8cpp.html" target="_top" xlink:title=" ">
<polygon fill="white" stroke="#666666" points="622.62,-26 476.12,-26 476.12,-6 622.62,-6 622.62,-26"/>
<text xml:space="preserve" text-anchor="middle" x="549.38" y="-12.5" font-family="Helvetica,sans-Serif" font-size="10.00">engine/QuickForgeEngine.cpp</text>
</a>
</g>
</g>
<!-- Node7&#45;&gt;Node9 -->
<g id="edge8_Node000007_Node000009" class="edge">
<title>Node7&#45;&gt;Node9</title>
<g id="a_edge8_Node000007_Node000009"><a xlink:title=" ">
<path fill="none" stroke="#63b8ff" d="M549.38,-62.34C549.38,-49.7 549.38,-35.41 549.38,-26.31"/>
<polygon fill="#63b8ff" stroke="#63b8ff" points="545.88,-62.22 549.38,-72.22 552.88,-62.22 545.88,-62.22"/>
</a>
</g>
</g>
<!-- Node10 -->
<g id="Node000010" class="node">
<title>Node10</title>
<g id="a_Node000010"><a xlink:href="_windows_engine_core_8cpp.html" target="_top" xlink:title=" ">
<polygon fill="white" stroke="#666666" points="775.62,-32 641.12,-32 641.12,0 775.62,0 775.62,-32"/>
<text xml:space="preserve" text-anchor="start" x="649.12" y="-18.5" font-family="Helvetica,sans-Serif" font-size="10.00">engine/src/WindowsEngine</text>
<text xml:space="preserve" text-anchor="middle" x="708.38" y="-6.5" font-family="Helvetica,sans-Serif" font-size="10.00">Core.cpp</text>
</a>
</g>
</g>
<!-- Node7&#45;&gt;Node10 -->
<g id="edge9_Node000007_Node000010" class="edge">
<title>Node7&#45;&gt;Node10</title>
<g id="a_edge9_Node000007_Node000010"><a xlink:title=" ">
<path fill="none" stroke="#63b8ff" d="M593.65,-68.95C619.17,-57.4 650.76,-43.09 674.32,-32.42"/>
<polygon fill="#63b8ff" stroke="#63b8ff" points="592.53,-65.62 584.86,-72.93 595.42,-71.99 592.53,-65.62"/>
</a>
</g>
</g>
</g>
</svg>
