<?xml version="1.0" encoding="UTF-8" standalone="no"?>
<!DOCTYPE svg PUBLIC "-//W3C//DTD SVG 1.1//EN"
 "http://www.w3.org/Graphics/SVG/1.1/DTD/svg11.dtd">
<!-- Generated by graphviz version 14.1.1 (20251213.1925)
 -->
<!-- Title: engine/include/assets/Script/LuaScriptResourceManager.h Pages: 1 -->
<svg width="1821pt" height="188pt"
 viewBox="0.00 0.00 1821.00 188.00" xmlns="http://www.w3.org/2000/svg" xmlns:xlink="http://www.w3.org/1999/xlink">
<g id="graph0" class="graph" transform="scale(1 1) rotate(0) translate(4 184)">
<title>engine/include/assets/Script/LuaScriptResourceManager.h</title>
<!-- Node1 -->
<g id="Node000001" class="node">
<title>Node1</title>
<g id="a_Node000001"><a xlink:title=" ">
<polygon fill="#999999" stroke="#666666" points="903.38,-180 726.88,-180 726.88,-148 903.38,-148 903.38,-180"/>
<text xml:space="preserve" text-anchor="start" x="734.88" y="-166.5" font-family="Helvetica,sans-Serif" font-size="10.00">engine/include/assets</text>
<text xml:space="preserve" text-anchor="middle" x="815.12" y="-154.5" font-family="Helvetica,sans-Serif" font-size="10.00">/Script/LuaScriptResourceManager.h</text>
</a>
</g>
</g>
<!-- Node2 -->
<g id="Node000002" class="node">
<title>Node2</title>
<g id="a_Node000002"><a xlink:href="_debug_console_8cpp.html" target="_top" xlink:title=" ">
<polygon fill="white" stroke="#666666" points="102.25,-106 0,-106 0,-74 102.25,-74 102.25,-106"/>
<text xml:space="preserve" text-anchor="start" x="8" y="-92.5" font-family="Helvetica,sans-Serif" font-size="10.00">editor/src/UI/Edit</text>
<text xml:space="preserve" text-anchor="middle" x="51.12" y="-80.5" font-family="Helvetica,sans-Serif" font-size="10.00">/DebugConsole.cpp</text>
</a>
</g>
</g>
<!-- Node1&#45;&gt;Node2 -->
<g id="edge1_Node000001_Node000002" class="edge">
<title>Node1&#45;&gt;Node2</title>
<g id="a_edge1_Node000001_Node000002"><a xlink:title=" ">
<path fill="none" stroke="#63b8ff" d="M715.22,-159.02C549.21,-151.86 223.65,-135.34 111.12,-112 104.32,-110.59 97.23,-108.6 90.4,-106.4"/>
<polygon fill="#63b8ff" stroke="#63b8ff" points="714.75,-162.5 724.89,-159.43 715.05,-155.51 714.75,-162.5"/>
</a>
</g>
</g>
<!-- Node3 -->
<g id="Node000003" class="node">
<title>Node3</title>
<g id="a_Node000003"><a xlink:href="_inspector_view_8cpp.html" target="_top" xlink:title=" ">
<polygon fill="white" stroke="#666666" points="219.75,-106 120.5,-106 120.5,-74 219.75,-74 219.75,-106"/>
<text xml:space="preserve" text-anchor="start" x="128.5" y="-92.5" font-family="Helvetica,sans-Serif" font-size="10.00">editor/src/UI/View</text>
<text xml:space="preserve" text-anchor="middle" x="170.12" y="-80.5" font-family="Helvetica,sans-Serif" font-size="10.00">/InspectorView.cpp</text>
</a>
</g>
</g>
<!-- Node1&#45;&gt;Node3 -->
<g id="edge2_Node000001_Node000003" class="edge">
<title>Node1&#45;&gt;Node3</title>
<g id="a_edge2_Node000001_Node000003"><a xlink:title=" ">
<path fill="none" stroke="#63b8ff" d="M714.99,-162.02C597.39,-159.09 397.03,-148.56 229.12,-112 222.54,-110.57 215.68,-108.59 209.07,-106.43"/>
<polygon fill="#63b8ff" stroke="#63b8ff" points="714.87,-165.51 724.95,-162.25 715.03,-158.52 714.87,-165.51"/>
</a>
</g>
</g>
<!-- Node4 -->
<g id="Node000004" class="node">
<title>Node4</title>
<g id="a_Node000004"><a xlink:href="_windows_engine_core_8h.html" target="_top" xlink:title=" ">
<polygon fill="white" stroke="#666666" points="390,-106 238.25,-106 238.25,-74 390,-74 390,-106"/>
<text xml:space="preserve" text-anchor="start" x="246.25" y="-92.5" font-family="Helvetica,sans-Serif" font-size="10.00">engine/include/WindowsEngine</text>
<text xml:space="preserve" text-anchor="middle" x="314.12" y="-80.5" font-family="Helvetica,sans-Serif" font-size="10.00">Core.h</text>
</a>
</g>
</g>
<!-- Node1&#45;&gt;Node4 -->
<g id="edge3_Node000001_Node000004" class="edge">
<title>Node1&#45;&gt;Node4</title>
<g id="a_edge3_Node000001_Node000004"><a xlink:title=" ">
<path fill="none" stroke="#63b8ff" d="M715.2,-154.15C630.61,-145.85 506.37,-131.75 399.12,-112 390.6,-110.43 381.66,-108.52 372.91,-106.5"/>
<polygon fill="#63b8ff" stroke="#63b8ff" points="714.81,-157.63 725.1,-155.11 715.48,-150.66 714.81,-157.63"/>
</a>
</g>
</g>
<!-- Node8 -->
<g id="Node000008" class="node">
<title>Node8</title>
<g id="a_Node000008"><a xlink:href="_lua_script_on_q_f_e_8cpp.html" target="_top" xlink:title=" ">
<polygon fill="white" stroke="#666666" points="530,-106 408.25,-106 408.25,-74 530,-74 530,-106"/>
<text xml:space="preserve" text-anchor="start" x="416.25" y="-92.5" font-family="Helvetica,sans-Serif" font-size="10.00">engine/src/assets/Script</text>
<text xml:space="preserve" text-anchor="middle" x="469.12" y="-80.5" font-family="Helvetica,sans-Serif" font-size="10.00">/LuaScriptOnQFE.cpp</text>
</a>
</g>
</g>
<!-- Node1&#45;&gt;Node8 -->
<g id="edge7_Node000001_Node000008" class="edge">
<title>Node1&#45;&gt;Node8</title>
<g id="a_edge7_Node000001_Node000008"><a xlink:title=" ">
<path fill="none" stroke="#63b8ff" d="M715.62,-147.3C662.87,-138.31 597.16,-126.02 539.12,-112 532.34,-110.36 525.24,-108.46 518.28,-106.48"/>
<polygon fill="#63b8ff" stroke="#63b8ff" points="714.73,-150.7 725.17,-148.92 715.9,-143.8 714.73,-150.7"/>
</a>
</g>
</g>
<!-- Node9 -->
<g id="Node000009" class="node">
<title>Node9</title>
<g id="a_Node000009"><a xlink:href="_lua_script_resource_manager_8cpp.html" target="_top" xlink:title=" ">
<polygon fill="white" stroke="#666666" points="706.38,-106 547.88,-106 547.88,-74 706.38,-74 706.38,-106"/>
<text xml:space="preserve" text-anchor="start" x="555.88" y="-92.5" font-family="Helvetica,sans-Serif" font-size="10.00">engine/src/assets/Script</text>
<text xml:space="preserve" text-anchor="middle" x="627.12" y="-80.5" font-family="Helvetica,sans-Serif" font-size="10.00">/LuaScriptResourceManager.cpp</text>
</a>
</g>
</g>
<!-- Node1&#45;&gt;Node9 -->
<g id="edge8_Node000001_Node000009" class="edge">
<title>Node1&#45;&gt;Node9</title>
<g id="a_edge8_Node000001_Node000009"><a xlink:title=" ">
<path fill="none" stroke="#63b8ff" d="M764.38,-143.56C733.93,-131.91 695.75,-117.28 667.39,-106.42"/>
<polygon fill="#63b8ff" stroke="#63b8ff" points="762.79,-146.7 773.38,-147.01 765.29,-140.17 762.79,-146.7"/>
</a>
</g>
</g>
<!-- Node10 -->
<g id="Node000010" class="node">
<title>Node10</title>
<g id="a_Node000010"><a xlink:href="_lua_script_on_q_f_e_set_getter_base_8cpp.html" target="_top" xlink:title=" ">
<polygon fill="white" stroke="#666666" points="906,-112 724.25,-112 724.25,-68 906,-68 906,-112"/>
<text xml:space="preserve" text-anchor="start" x="732.25" y="-98.5" font-family="Helvetica,sans-Serif" font-size="10.00">engine/src/assets/Script</text>
<text xml:space="preserve" text-anchor="start" x="732.25" y="-86.5" font-family="Helvetica,sans-Serif" font-size="10.00">/QFElinker/LuaScriptOnQFESetGetter</text>
<text xml:space="preserve" text-anchor="middle" x="815.12" y="-74.5" font-family="Helvetica,sans-Serif" font-size="10.00">Base.cpp</text>
</a>
</g>
</g>
<!-- Node1&#45;&gt;Node10 -->
<g id="edge9_Node000001_Node000010" class="edge">
<title>Node1&#45;&gt;Node10</title>
<g id="a_edge9_Node000001_Node000010"><a xlink:title=" ">
<path fill="none" stroke="#63b8ff" d="M815.12,-136.38C815.12,-128.43 815.12,-119.82 815.12,-112.26"/>
<polygon fill="#63b8ff" stroke="#63b8ff" points="811.63,-136.22 815.13,-146.22 818.63,-136.22 811.63,-136.22"/>
</a>
</g>
</g>
<!-- Node11 -->
<g id="Node000011" class="node">
<title>Node11</title>
<g id="a_Node000011"><a xlink:href="_lua_script_on_q_f_e_set_scene_function_8cpp.html" target="_top" xlink:title=" ">
<polygon fill="white" stroke="#666666" points="1106.38,-112 923.88,-112 923.88,-68 1106.38,-68 1106.38,-112"/>
<text xml:space="preserve" text-anchor="start" x="931.88" y="-98.5" font-family="Helvetica,sans-Serif" font-size="10.00">engine/src/assets/Script</text>
<text xml:space="preserve" text-anchor="start" x="931.88" y="-86.5" font-family="Helvetica,sans-Serif" font-size="10.00">/QFElinker/LuaScriptOnQFESetScene</text>
<text xml:space="preserve" text-anchor="middle" x="1015.12" y="-74.5" font-family="Helvetica,sans-Serif" font-size="10.00">Function.cpp</text>
</a>
</g>
</g>
<!-- Node1&#45;&gt;Node11 -->
<g id="edge10_Node000001_Node000011" class="edge">
<title>Node1&#45;&gt;Node11</title>
<g id="a_edge10_Node000001_Node000011"><a xlink:title=" ">
<path fill="none" stroke="#63b8ff" d="M868.75,-143.69C895.54,-134.05 928.04,-122.35 955.6,-112.43"/>
<polygon fill="#63b8ff" stroke="#63b8ff" points="867.68,-140.36 859.45,-147.04 870.05,-146.95 867.68,-140.36"/>
</a>
</g>
</g>
<!-- Node12 -->
<g id="Node000012" class="node">
<title>Node12</title>
<g id="a_Node000012"><a xlink:href="_lua_script_on_q_f_e_set_utilities_8cpp.html" target="_top" xlink:title=" ">
<polygon fill="white" stroke="#666666" points="1331.38,-106 1124.88,-106 1124.88,-74 1331.38,-74 1331.38,-106"/>
<text xml:space="preserve" text-anchor="start" x="1132.88" y="-92.5" font-family="Helvetica,sans-Serif" font-size="10.00">engine/src/assets/Script</text>
<text xml:space="preserve" text-anchor="middle" x="1228.12" y="-80.5" font-family="Helvetica,sans-Serif" font-size="10.00">/QFElinker/LuaScriptOnQFESetUtilities.cpp</text>
</a>
</g>
</g>
<!-- Node1&#45;&gt;Node12 -->
<g id="edge11_Node000001_Node000012" class="edge">
<title>Node1&#45;&gt;Node12</title>
<g id="a_edge11_Node000001_Node000012"><a xlink:title=" ">
<path fill="none" stroke="#63b8ff" d="M914.87,-146.44C973.27,-136.64 1048.42,-123.87 1115.12,-112 1125.05,-110.23 1135.45,-108.35 1145.76,-106.46"/>
<polygon fill="#63b8ff" stroke="#63b8ff" points="914.57,-142.94 905.29,-148.04 915.73,-149.84 914.57,-142.94"/>
</a>
</g>
</g>
<!-- Node13 -->
<g id="Node000013" class="node">
<title>Node13</title>
<g id="a_Node000013"><a xlink:href="_collider_manager_8cpp.html" target="_top" xlink:title=" ">
<polygon fill="white" stroke="#666666" points="1457.25,-106 1349,-106 1349,-74 1457.25,-74 1457.25,-106"/>
<text xml:space="preserve" text-anchor="start" x="1357" y="-92.5" font-family="Helvetica,sans-Serif" font-size="10.00">engine/src/collider</text>
<text xml:space="preserve" text-anchor="middle" x="1403.12" y="-80.5" font-family="Helvetica,sans-Serif" font-size="10.00">/ColliderManager.cpp</text>
</a>
</g>
</g>
<!-- Node1&#45;&gt;Node13 -->
<g id="edge12_Node000001_Node000013" class="edge">
<title>Node1&#45;&gt;Node13</title>
<g id="a_edge12_Node000001_Node000013"><a xlink:title=" ">
<path fill="none" stroke="#63b8ff" d="M915.19,-159.96C1021.59,-155.18 1194.28,-142.98 1340.12,-112 1347,-110.54 1354.18,-108.58 1361.13,-106.45"/>
<polygon fill="#63b8ff" stroke="#63b8ff" points="915.18,-156.46 905.34,-160.39 915.48,-163.45 915.18,-156.46"/>
</a>
</g>
</g>
<!-- Node14 -->
<g id="Node000014" class="node">
<title>Node14</title>
<g id="a_Node000014"><a xlink:href="_scene_object_8cpp.html" target="_top" xlink:title=" ">
<polygon fill="white" stroke="#666666" points="1643.25,-100 1475,-100 1475,-80 1643.25,-80 1643.25,-100"/>
<text xml:space="preserve" text-anchor="middle" x="1559.12" y="-86.5" font-family="Helvetica,sans-Serif" font-size="10.00">engine/src/scene/SceneObject.cpp</text>
</a>
</g>
</g>
<!-- Node1&#45;&gt;Node14 -->
<g id="edge13_Node000001_Node000014" class="edge">
<title>Node1&#45;&gt;Node14</title>
<g id="a_edge13_Node000001_Node000014"><a xlink:title=" ">
<path fill="none" stroke="#63b8ff" d="M915.1,-159.64C1043.33,-154.3 1272.31,-141.32 1466.12,-112 1485.11,-109.13 1505.98,-104.55 1523.14,-100.4"/>
<polygon fill="#63b8ff" stroke="#63b8ff" points="915.13,-156.13 905.28,-160.04 915.42,-163.13 915.13,-156.13"/>
</a>
</g>
</g>
<!-- Node15 -->
<g id="Node000015" class="node">
<title>Node15</title>
<g id="a_Node000015"><a xlink:href="_on_focus_event_8cpp.html" target="_top" xlink:title=" ">
<polygon fill="white" stroke="#666666" points="1813,-112 1661.25,-112 1661.25,-68 1813,-68 1813,-112"/>
<text xml:space="preserve" text-anchor="start" x="1669.25" y="-98.5" font-family="Helvetica,sans-Serif" font-size="10.00">engine/src/window/Window</text>
<text xml:space="preserve" text-anchor="start" x="1669.25" y="-86.5" font-family="Helvetica,sans-Serif" font-size="10.00">EventsManager/EventSystems</text>
<text xml:space="preserve" text-anchor="middle" x="1737.12" y="-74.5" font-family="Helvetica,sans-Serif" font-size="10.00">/OnFocusEvent.cpp</text>
</a>
</g>
</g>
<!-- Node1&#45;&gt;Node15 -->
<g id="edge14_Node000001_Node000015" class="edge">
<title>Node1&#45;&gt;Node15</title>
<g id="a_edge14_Node000001_Node000015"><a xlink:title=" ">
<path fill="none" stroke="#63b8ff" d="M914.71,-162.75C1072.18,-161.05 1387.91,-152.35 1652.12,-112 1654.98,-111.56 1657.88,-111.08 1660.8,-110.55"/>
<polygon fill="#63b8ff" stroke="#63b8ff" points="915.13,-159.25 905.16,-162.85 915.2,-166.25 915.13,-159.25"/>
</a>
</g>
</g>
<!-- Node5 -->
<g id="Node000005" class="node">
<title>Node5</title>
<g id="a_Node000005"><a xlink:href="main_8cpp.html" target="_top" xlink:title=" ">
<polygon fill="white" stroke="#666666" points="222.5,-26 139.75,-26 139.75,-6 222.5,-6 222.5,-26"/>
<text xml:space="preserve" text-anchor="middle" x="181.12" y="-12.5" font-family="Helvetica,sans-Serif" font-size="10.00">editor/main.cpp</text>
</a>
</g>
</g>
<!-- Node4&#45;&gt;Node5 -->
<g id="edge4_Node000004_Node000005" class="edge">
<title>Node4&#45;&gt;Node5</title>
<g id="a_edge4_Node000004_Node000005"><a xlink:title=" ">
<path fill="none" stroke="#63b8ff" d="M275.52,-68.1C250.12,-54.35 218.08,-37.01 198.62,-26.47"/>
<polygon fill="#63b8ff" stroke="#63b8ff" points="273.8,-71.15 284.26,-72.83 277.13,-64.99 273.8,-71.15"/>
</a>
</g>
</g>
<!-- Node6 -->
<g id="Node000006" class="node">
<title>Node6</title>
<g id="a_Node000006"><a xlink:href="_quick_forge_engine_8cpp.html" target="_top" xlink:title=" ">
<polygon fill="white" stroke="#666666" points="387.38,-26 240.88,-26 240.88,-6 387.38,-6 387.38,-26"/>
<text xml:space="preserve" text-anchor="middle" x="314.12" y="-12.5" font-family="Helvetica,sans-Serif" font-size="10.00">engine/QuickForgeEngine.cpp</text>
</a>
</g>
</g>
<!-- Node4&#45;&gt;Node6 -->
<g id="edge5_Node000004_Node000006" class="edge">
<title>Node4&#45;&gt;Node6</title>
<g id="a_edge5_Node000004_Node000006"><a xlink:title=" ">
<path fill="none" stroke="#63b8ff" d="M314.12,-62.34C314.12,-49.7 314.12,-35.41 314.12,-26.31"/>
<polygon fill="#63b8ff" stroke="#63b8ff" points="310.63,-62.22 314.13,-72.22 317.63,-62.22 310.63,-62.22"/>
</a>
</g>
</g>
<!-- Node7 -->
<g id="Node000007" class="node">
<title>Node7</title>
<g id="a_Node000007"><a xlink:href="_windows_engine_core_8cpp.html" target="_top" xlink:title=" ">
<polygon fill="white" stroke="#666666" points="540.38,-32 405.88,-32 405.88,0 540.38,0 540.38,-32"/>
<text xml:space="preserve" text-anchor="start" x="413.88" y="-18.5" font-family="Helvetica,sans-Serif" font-size="10.00">engine/src/WindowsEngine</text>
<text xml:space="preserve" text-anchor="middle" x="473.12" y="-6.5" font-family="Helvetica,sans-Serif" font-size="10.00">Core.cpp</text>
</a>
</g>
</g>
<!-- Node4&#45;&gt;Node7 -->
<g id="edge6_Node000004_Node000007" class="edge">
<title>Node4&#45;&gt;Node7</title>
<g id="a_edge6_Node000004_Node000007"><a xlink:title=" ">
<path fill="none" stroke="#63b8ff" d="M358.4,-68.95C383.92,-57.4 415.51,-43.09 439.07,-32.42"/>
<polygon fill="#63b8ff" stroke="#63b8ff" points="357.28,-65.62 349.61,-72.93 360.17,-71.99 357.28,-65.62"/>
</a>
</g>
</g>
</g>
</svg>
