<?xml version="1.0" encoding="UTF-8" standalone="no"?>
<!DOCTYPE svg PUBLIC "-//W3C//DTD SVG 1.1//EN"
 "http://www.w3.org/Graphics/SVG/1.1/DTD/svg11.dtd">
<!-- Generated by graphviz version 14.1.1 (20251213.1925)
 -->
<!-- Title: engine/include/assets/Script/QFElinker/LuaScriptOnQFESetUtilities.h Pages: 1 -->
<svg width="384pt" height="120pt"
 viewBox="0.00 0.00 384.00 120.00" xmlns="http://www.w3.org/2000/svg" xmlns:xlink="http://www.w3.org/1999/xlink">
<g id="graph0" class="graph" transform="scale(1 1) rotate(0) translate(4 116)">
<title>engine/include/assets/Script/QFElinker/LuaScriptOnQFESetUtilities.h</title>
<!-- Node1 -->
<g id="Node000001" class="node">
<title>Node1</title>
<g id="a_Node000001"><a xlink:title=" ">
<polygon fill="#999999" stroke="#666666" points="268.88,-112 133.62,-112 133.62,-68 268.88,-68 268.88,-112"/>
<text xml:space="preserve" text-anchor="start" x="141.62" y="-98.5" font-family="Helvetica,sans-Serif" font-size="10.00">engine/include/assets</text>
<text xml:space="preserve" text-anchor="start" x="141.62" y="-86.5" font-family="Helvetica,sans-Serif" font-size="10.00">/Script/QFElinker/LuaScript</text>
<text xml:space="preserve" text-anchor="middle" x="201.25" y="-74.5" font-family="Helvetica,sans-Serif" font-size="10.00">OnQFESetUtilities.h</text>
</a>
</g>
</g>
<!-- Node2 -->
<g id="Node000002" class="node">
<title>Node2</title>
<g id="a_Node000002"><a xlink:href="_lua_script_on_q_f_e_set_utilities_8cpp.html" target="_top" xlink:title=" ">
<polygon fill="white" stroke="#666666" points="206.5,-32 0,-32 0,0 206.5,0 206.5,-32"/>
<text xml:space="preserve" text-anchor="start" x="8" y="-18.5" font-family="Helvetica,sans-Serif" font-size="10.00">engine/src/assets/Script</text>
<text xml:space="preserve" text-anchor="middle" x="103.25" y="-6.5" font-family="Helvetica,sans-Serif" font-size="10.00">/QFElinker/LuaScriptOnQFESetUtilities.cpp</text>
</a>
</g>
</g>
<!-- Node1&#45;&gt;Node2 -->
<g id="edge1_Node000001_Node000002" class="edge">
<title>Node1&#45;&gt;Node2</title>
<g id="a_edge1_Node000001_Node000002"><a xlink:title=" ">
<path fill="none" stroke="#63b8ff" d="M163.2,-61.04C150,-51.34 135.67,-40.82 124.34,-32.5"/>
<polygon fill="#63b8ff" stroke="#63b8ff" points="160.76,-63.6 170.89,-66.7 164.91,-57.96 160.76,-63.6"/>
</a>
</g>
</g>
<!-- Node3 -->
<g id="Node000003" class="node">
<title>Node3</title>
<g id="a_Node000003"><a xlink:href="_set_q_f_e_linkers_8cpp.html" target="_top" xlink:title=" ">
<polygon fill="white" stroke="#666666" points="375.75,-32 224.75,-32 224.75,0 375.75,0 375.75,-32"/>
<text xml:space="preserve" text-anchor="start" x="232.75" y="-18.5" font-family="Helvetica,sans-Serif" font-size="10.00">engine/src/assets/Script</text>
<text xml:space="preserve" text-anchor="middle" x="300.25" y="-6.5" font-family="Helvetica,sans-Serif" font-size="10.00">/QFElinker/SetQFELinkers.cpp</text>
</a>
</g>
</g>
<!-- Node1&#45;&gt;Node3 -->
<g id="edge2_Node000001_Node000003" class="edge">
<title>Node1&#45;&gt;Node3</title>
<g id="a_edge2_Node000001_Node000003"><a xlink:title=" ">
<path fill="none" stroke="#63b8ff" d="M239.69,-61.04C253.03,-51.34 267.49,-40.82 278.94,-32.5"/>
<polygon fill="#63b8ff" stroke="#63b8ff" points="237.94,-57.99 231.91,-66.7 242.06,-63.65 237.94,-57.99"/>
</a>
</g>
</g>
</g>
</svg>
