<?xml version="1.0" encoding="UTF-8" standalone="no"?>
<!DOCTYPE svg PUBLIC "-//W3C//DTD SVG 1.1//EN"
 "http://www.w3.org/Graphics/SVG/1.1/DTD/svg11.dtd">
<!-- Generated by graphviz version 14.1.1 (20251213.1925)
 -->
<!-- Title: engine/include/core/Math/MyMath.h Pages: 1 -->
<svg width="541pt" height="120pt"
 viewBox="0.00 0.00 541.00 120.00" xmlns="http://www.w3.org/2000/svg" xmlns:xlink="http://www.w3.org/1999/xlink">
<g id="graph0" class="graph" transform="scale(1 1) rotate(0) translate(4 116)">
<title>engine/include/core/Math/MyMath.h</title>
<!-- Node1 -->
<g id="Node000001" class="node">
<title>Node1</title>
<g id="a_Node000001"><a xlink:title=" ">
<polygon fill="#999999" stroke="#666666" points="325.38,-112 225.38,-112 225.38,-80 325.38,-80 325.38,-112"/>
<text xml:space="preserve" text-anchor="start" x="233.38" y="-98.5" font-family="Helvetica,sans-Serif" font-size="10.00">engine/include/core</text>
<text xml:space="preserve" text-anchor="middle" x="275.38" y="-86.5" font-family="Helvetica,sans-Serif" font-size="10.00">/Math/MyMath.h</text>
</a>
</g>
</g>
<!-- Node2 -->
<g id="Node000002" class="node">
<title>Node2</title>
<g id="a_Node000002"><a xlink:href="_scene_view_8cpp.html" target="_top" xlink:title=" ">
<polygon fill="white" stroke="#666666" points="94.75,-38 0,-38 0,-6 94.75,-6 94.75,-38"/>
<text xml:space="preserve" text-anchor="start" x="8" y="-24.5" font-family="Helvetica,sans-Serif" font-size="10.00">editor/src/UI/View</text>
<text xml:space="preserve" text-anchor="middle" x="47.38" y="-12.5" font-family="Helvetica,sans-Serif" font-size="10.00">/SceneView.cpp</text>
</a>
</g>
</g>
<!-- Node1&#45;&gt;Node2 -->
<g id="edge1_Node000001_Node000002" class="edge">
<title>Node1&#45;&gt;Node2</title>
<g id="a_edge1_Node000001_Node000002"><a xlink:title=" ">
<path fill="none" stroke="#63b8ff" d="M214.21,-77.77C181.47,-68.3 140.55,-56.05 104.38,-44 99.17,-42.27 93.73,-40.37 88.36,-38.45"/>
<polygon fill="#63b8ff" stroke="#63b8ff" points="212.95,-81.05 223.53,-80.46 214.89,-74.33 212.95,-81.05"/>
</a>
</g>
</g>
<!-- Node3 -->
<g id="Node000003" class="node">
<title>Node3</title>
<g id="a_Node000003"><a xlink:href="_lua_script_on_q_e_f_set_my_math_8cpp.html" target="_top" xlink:title=" ">
<polygon fill="white" stroke="#666666" points="281.5,-44 113.25,-44 113.25,0 281.5,0 281.5,-44"/>
<text xml:space="preserve" text-anchor="start" x="121.25" y="-30.5" font-family="Helvetica,sans-Serif" font-size="10.00">engine/src/assets/Script</text>
<text xml:space="preserve" text-anchor="start" x="121.25" y="-18.5" font-family="Helvetica,sans-Serif" font-size="10.00">/QFElinker/LuaScriptOnQEFSetMy</text>
<text xml:space="preserve" text-anchor="middle" x="197.38" y="-6.5" font-family="Helvetica,sans-Serif" font-size="10.00">Math.cpp</text>
</a>
</g>
</g>
<!-- Node1&#45;&gt;Node3 -->
<g id="edge2_Node000001_Node000003" class="edge">
<title>Node1&#45;&gt;Node3</title>
<g id="a_edge2_Node000001_Node000003"><a xlink:title=" ">
<path fill="none" stroke="#63b8ff" d="M250.44,-71.98C240.8,-63.09 229.85,-52.97 220.4,-44.26"/>
<polygon fill="#63b8ff" stroke="#63b8ff" points="248,-74.49 257.72,-78.7 252.75,-69.35 248,-74.49"/>
</a>
</g>
</g>
<!-- Node4 -->
<g id="Node000004" class="node">
<title>Node4</title>
<g id="a_Node000004"><a xlink:href="_collider_manager_8cpp.html" target="_top" xlink:title=" ">
<polygon fill="white" stroke="#666666" points="407.5,-38 299.25,-38 299.25,-6 407.5,-6 407.5,-38"/>
<text xml:space="preserve" text-anchor="start" x="307.25" y="-24.5" font-family="Helvetica,sans-Serif" font-size="10.00">engine/src/collider</text>
<text xml:space="preserve" text-anchor="middle" x="353.38" y="-12.5" font-family="Helvetica,sans-Serif" font-size="10.00">/ColliderManager.cpp</text>
</a>
</g>
</g>
<!-- Node1&#45;&gt;Node4 -->
<g id="edge3_Node000001_Node000004" class="edge">
<title>Node1&#45;&gt;Node4</title>
<g id="a_edge3_Node000001_Node000004"><a xlink:title=" ">
<path fill="none" stroke="#63b8ff" d="M300.14,-72.14C312.02,-61.17 325.96,-48.31 336.59,-38.5"/>
<polygon fill="#63b8ff" stroke="#63b8ff" points="298,-69.35 293.03,-78.7 302.75,-74.49 298,-69.35"/>
</a>
</g>
</g>
<!-- Node5 -->
<g id="Node000005" class="node">
<title>Node5</title>
<g id="a_Node000005"><a xlink:href="_my_math_8cpp.html" target="_top" xlink:title=" ">
<polygon fill="white" stroke="#666666" points="533.12,-38 425.62,-38 425.62,-6 533.12,-6 533.12,-38"/>
<text xml:space="preserve" text-anchor="start" x="433.62" y="-24.5" font-family="Helvetica,sans-Serif" font-size="10.00">engine/src/core/Math</text>
<text xml:space="preserve" text-anchor="middle" x="479.38" y="-12.5" font-family="Helvetica,sans-Serif" font-size="10.00">/MyMath.cpp</text>
</a>
</g>
</g>
<!-- Node1&#45;&gt;Node5 -->
<g id="edge4_Node000001_Node000005" class="edge">
<title>Node1&#45;&gt;Node5</title>
<g id="a_edge4_Node000001_Node000005"><a xlink:title=" ">
<path fill="none" stroke="#63b8ff" d="M329.58,-75.87C362.75,-64.16 404.64,-49.38 435.68,-38.42"/>
<polygon fill="#63b8ff" stroke="#63b8ff" points="328.83,-72.42 320.57,-79.05 331.16,-79.02 328.83,-72.42"/>
</a>
</g>
</g>
</g>
</svg>
