<?xml version="1.0" encoding="UTF-8" standalone="no"?>
<!DOCTYPE svg PUBLIC "-//W3C//DTD SVG 1.1//EN"
 "http://www.w3.org/Graphics/SVG/1.1/DTD/svg11.dtd">
<!-- Generated by graphviz version 14.1.1 (20251213.1925)
 -->
<!-- Title: editor/include/UI/File/SaveScene.h Pages: 1 -->
<svg width="254pt" height="108pt"
 viewBox="0.00 0.00 254.00 108.00" xmlns="http://www.w3.org/2000/svg" xmlns:xlink="http://www.w3.org/1999/xlink">
<g id="graph0" class="graph" transform="scale(1 1) rotate(0) translate(4 104)">
<title>editor/include/UI/File/SaveScene.h</title>
<!-- Node1 -->
<g id="Node000001" class="node">
<title>Node1</title>
<g id="a_Node000001"><a xlink:title=" ">
<polygon fill="#999999" stroke="#666666" points="163.38,-100 57.38,-100 57.38,-68 163.38,-68 163.38,-100"/>
<text xml:space="preserve" text-anchor="start" x="65.38" y="-86.5" font-family="Helvetica,sans-Serif" font-size="10.00">editor/include/UI/File</text>
<text xml:space="preserve" text-anchor="middle" x="110.38" y="-74.5" font-family="Helvetica,sans-Serif" font-size="10.00">/SaveScene.h</text>
</a>
</g>
</g>
<!-- Node2 -->
<g id="Node000002" class="node">
<title>Node2</title>
<g id="a_Node000002"><a xlink:href="_save_scene_8cpp.html" target="_top" xlink:title=" ">
<polygon fill="white" stroke="#666666" points="88.75,-32 0,-32 0,0 88.75,0 88.75,-32"/>
<text xml:space="preserve" text-anchor="start" x="8" y="-18.5" font-family="Helvetica,sans-Serif" font-size="10.00">editor/src/UI/File</text>
<text xml:space="preserve" text-anchor="middle" x="44.38" y="-6.5" font-family="Helvetica,sans-Serif" font-size="10.00">/SaveScene.cpp</text>
</a>
</g>
</g>
<!-- Node1&#45;&gt;Node2 -->
<g id="edge1_Node000001_Node000002" class="edge">
<title>Node1&#45;&gt;Node2</title>
<g id="a_edge1_Node000001_Node000002"><a xlink:title=" ">
<path fill="none" stroke="#63b8ff" d="M87.08,-59.71C77.96,-50.59 67.75,-40.37 59.6,-32.22"/>
<polygon fill="#63b8ff" stroke="#63b8ff" points="84.45,-62.03 94,-66.62 89.4,-57.08 84.45,-62.03"/>
</a>
</g>
</g>
<!-- Node3 -->
<g id="Node000003" class="node">
<title>Node3</title>
<g id="a_Node000003"><a xlink:href="_u_i_manager_8cpp.html" target="_top" xlink:title=" ">
<polygon fill="white" stroke="#666666" points="246.25,-26 106.5,-26 106.5,-6 246.25,-6 246.25,-26"/>
<text xml:space="preserve" text-anchor="middle" x="176.38" y="-12.5" font-family="Helvetica,sans-Serif" font-size="10.00">editor/src/UI/UIManager.cpp</text>
</a>
</g>
</g>
<!-- Node1&#45;&gt;Node3 -->
<g id="edge2_Node000001_Node000003" class="edge">
<title>Node1&#45;&gt;Node3</title>
<g id="a_edge2_Node000001_Node000003"><a xlink:title=" ">
<path fill="none" stroke="#63b8ff" d="M133.67,-59.71C145.17,-48.2 158.41,-34.97 167.06,-26.32"/>
<polygon fill="#63b8ff" stroke="#63b8ff" points="131.35,-57.08 126.75,-66.62 136.3,-62.03 131.35,-57.08"/>
</a>
</g>
</g>
</g>
</svg>
