<?xml version="1.0" encoding="UTF-8" standalone="no"?>
<!DOCTYPE svg PUBLIC "-//W3C//DTD SVG 1.1//EN"
 "http://www.w3.org/Graphics/SVG/1.1/DTD/svg11.dtd">
<!-- Generated by graphviz version 14.1.1 (20251213.1925)
 -->
<!-- Title: engine/include/scene/SceneObject.h Pages: 1 -->
<svg width="372pt" height="96pt"
 viewBox="0.00 0.00 372.00 96.00" xmlns="http://www.w3.org/2000/svg" xmlns:xlink="http://www.w3.org/1999/xlink">
<g id="graph0" class="graph" transform="scale(1 1) rotate(0) translate(4 92)">
<title>engine/include/scene/SceneObject.h</title>
<!-- Node1 -->
<g id="Node000001" class="node">
<title>Node1</title>
<g id="a_Node000001"><a xlink:title=" ">
<polygon fill="#999999" stroke="#666666" points="237.38,-88 129.88,-88 129.88,-56 237.38,-56 237.38,-88"/>
<text xml:space="preserve" text-anchor="start" x="137.88" y="-74.5" font-family="Helvetica,sans-Serif" font-size="10.00">engine/include/scene</text>
<text xml:space="preserve" text-anchor="middle" x="183.62" y="-62.5" font-family="Helvetica,sans-Serif" font-size="10.00">/SceneObject.h</text>
</a>
</g>
</g>
<!-- Node2 -->
<g id="Node000002" class="node">
<title>Node2</title>
<g id="a_Node000002"><a xlink:href="_scene_manager_8cpp.html" target="_top" xlink:title=" ">
<polygon fill="white" stroke="#666666" points="177.25,-20 0,-20 0,0 177.25,0 177.25,-20"/>
<text xml:space="preserve" text-anchor="middle" x="88.62" y="-6.5" font-family="Helvetica,sans-Serif" font-size="10.00">engine/src/scene/SceneManager.cpp</text>
</a>
</g>
</g>
<!-- Node1&#45;&gt;Node2 -->
<g id="edge1_Node000001_Node000002" class="edge">
<title>Node1&#45;&gt;Node2</title>
<g id="a_edge1_Node000001_Node000002"><a xlink:title=" ">
<path fill="none" stroke="#63b8ff" d="M149.67,-49.55C133.85,-39.56 115.85,-28.2 103.52,-20.41"/>
<polygon fill="#63b8ff" stroke="#63b8ff" points="147.56,-52.36 157.88,-54.74 151.29,-46.44 147.56,-52.36"/>
</a>
</g>
</g>
<!-- Node3 -->
<g id="Node000003" class="node">
<title>Node3</title>
<g id="a_Node000003"><a xlink:href="_scene_object_8cpp.html" target="_top" xlink:title=" ">
<polygon fill="white" stroke="#666666" points="363.75,-20 195.5,-20 195.5,0 363.75,0 363.75,-20"/>
<text xml:space="preserve" text-anchor="middle" x="279.62" y="-6.5" font-family="Helvetica,sans-Serif" font-size="10.00">engine/src/scene/SceneObject.cpp</text>
</a>
</g>
</g>
<!-- Node1&#45;&gt;Node3 -->
<g id="edge2_Node000001_Node000003" class="edge">
<title>Node1&#45;&gt;Node3</title>
<g id="a_edge2_Node000001_Node000003"><a xlink:title=" ">
<path fill="none" stroke="#63b8ff" d="M217.94,-49.55C233.92,-39.56 252.11,-28.2 264.57,-20.41"/>
<polygon fill="#63b8ff" stroke="#63b8ff" points="216.26,-46.48 209.63,-54.75 219.97,-52.41 216.26,-46.48"/>
</a>
</g>
</g>
</g>
</svg>
