<?xml version="1.0" encoding="UTF-8" standalone="no"?>
<!DOCTYPE svg PUBLIC "-//W3C//DTD SVG 1.1//EN"
 "http://www.w3.org/Graphics/SVG/1.1/DTD/svg11.dtd">
<!-- Generated by graphviz version 14.1.1 (20251213.1925)
 -->
<!-- Title: engine/include/utility/memory/VariableLengthPool.h Pages: 1 -->
<svg width="280pt" height="152pt"
 viewBox="0.00 0.00 280.00 152.00" xmlns="http://www.w3.org/2000/svg" xmlns:xlink="http://www.w3.org/1999/xlink">
<g id="graph0" class="graph" transform="scale(1 1) rotate(0) translate(4 148)">
<title>engine/include/utility/memory/VariableLengthPool.h</title>
<!-- Node1 -->
<g id="Node000001" class="node">
<title>Node1</title>
<g id="a_Node000001"><a xlink:title=" ">
<polygon fill="#999999" stroke="#666666" points="266.62,-144 117.88,-144 117.88,-112 266.62,-112 266.62,-144"/>
<text xml:space="preserve" text-anchor="start" x="125.88" y="-130.5" font-family="Helvetica,sans-Serif" font-size="10.00">engine/include/utility</text>
<text xml:space="preserve" text-anchor="middle" x="192.25" y="-118.5" font-family="Helvetica,sans-Serif" font-size="10.00">/memory/VariableLengthPool.h</text>
</a>
</g>
</g>
<!-- Node2 -->
<g id="Node000002" class="node">
<title>Node2</title>
<g id="a_Node000002"><a xlink:href="_i_variable_length_pool_container_8h.html" target="_top" xlink:title=" ">
<polygon fill="white" stroke="#666666" points="152.5,-76 0,-76 0,-56 152.5,-56 152.5,-76"/>
<text xml:space="preserve" text-anchor="middle" x="76.25" y="-62.5" font-family="Helvetica,sans-Serif" font-size="10.00">IVariableLengthPoolContainer.h</text>
</a>
</g>
</g>
<!-- Node1&#45;&gt;Node2 -->
<g id="edge1_Node000001_Node000002" class="edge">
<title>Node1&#45;&gt;Node2</title>
<g id="a_edge1_Node000001_Node000002"><a xlink:title=" ">
<path fill="none" stroke="#63b8ff" d="M162.38,-111.55C144.59,-102.35 122.14,-90.74 104.62,-81.68"/>
<polygon fill="#63b8ff" stroke="#63b8ff" points="106.27,-78.59 95.78,-77.1 103.06,-84.81 106.27,-78.59"/>
</a>
</g>
</g>
<!-- Node4 -->
<g id="Node000004" class="node">
<title>Node4</title>
<g id="a_Node000004"><a xlink:title=" ">
<polygon fill="#e0e0e0" stroke="#999999" points="213.75,-76 170.75,-76 170.75,-56 213.75,-56 213.75,-76"/>
<text xml:space="preserve" text-anchor="middle" x="192.25" y="-62.5" font-family="Helvetica,sans-Serif" font-size="10.00">vector</text>
</a>
</g>
</g>
<!-- Node1&#45;&gt;Node4 -->
<g id="edge3_Node000001_Node000004" class="edge">
<title>Node1&#45;&gt;Node4</title>
<g id="a_edge3_Node000001_Node000004"><a xlink:title=" ">
<path fill="none" stroke="#63b8ff" d="M192.25,-111.55C192.25,-104.34 192.25,-95.66 192.25,-87.88"/>
<polygon fill="#63b8ff" stroke="#63b8ff" points="195.75,-87.92 192.25,-77.92 188.75,-87.92 195.75,-87.92"/>
</a>
</g>
</g>
<!-- Node5 -->
<g id="Node000005" class="node">
<title>Node5</title>
<g id="a_Node000005"><a xlink:title=" ">
<polygon fill="#e0e0e0" stroke="#999999" points="272.25,-76 232.25,-76 232.25,-56 272.25,-56 272.25,-76"/>
<text xml:space="preserve" text-anchor="middle" x="252.25" y="-62.5" font-family="Helvetica,sans-Serif" font-size="10.00">stack</text>
</a>
</g>
</g>
<!-- Node1&#45;&gt;Node5 -->
<g id="edge4_Node000001_Node000005" class="edge">
<title>Node1&#45;&gt;Node5</title>
<g id="a_edge4_Node000001_Node000005"><a xlink:title=" ">
<path fill="none" stroke="#63b8ff" d="M207.7,-111.55C216.03,-103.22 226.34,-92.91 234.95,-84.3"/>
<polygon fill="#63b8ff" stroke="#63b8ff" points="237.18,-87.02 241.77,-77.48 232.23,-82.07 237.18,-87.02"/>
</a>
</g>
</g>
<!-- Node3 -->
<g id="Node000003" class="node">
<title>Node3</title>
<g id="a_Node000003"><a xlink:title=" ">
<polygon fill="#e0e0e0" stroke="#999999" points="100.38,-20 52.12,-20 52.12,0 100.38,0 100.38,-20"/>
<text xml:space="preserve" text-anchor="middle" x="76.25" y="-6.5" font-family="Helvetica,sans-Serif" font-size="10.00">cstddef</text>
</a>
</g>
</g>
<!-- Node2&#45;&gt;Node3 -->
<g id="edge2_Node000002_Node000003" class="edge">
<title>Node2&#45;&gt;Node3</title>
<g id="a_edge2_Node000002_Node000003"><a xlink:title=" ">
<path fill="none" stroke="#63b8ff" d="M76.25,-55.59C76.25,-49.01 76.25,-39.96 76.25,-31.73"/>
<polygon fill="#63b8ff" stroke="#63b8ff" points="79.75,-31.81 76.25,-21.81 72.75,-31.81 79.75,-31.81"/>
</a>
</g>
</g>
</g>
</svg>
