<?xml version="1.0" encoding="UTF-8" standalone="no"?>
<!DOCTYPE svg PUBLIC "-//W3C//DTD SVG 1.1//EN"
 "http://www.w3.org/Graphics/SVG/1.1/DTD/svg11.dtd">
<!-- Generated by graphviz version 14.1.1 (20251213.1925)
 -->
<!-- Title: engine/include/input/Mic/WASAPIMicrophoneDevice.h Pages: 1 -->
<svg width="299pt" height="96pt"
 viewBox="0.00 0.00 299.00 96.00" xmlns="http://www.w3.org/2000/svg" xmlns:xlink="http://www.w3.org/1999/xlink">
<g id="graph0" class="graph" transform="scale(1 1) rotate(0) translate(4 92)">
<title>engine/include/input/Mic/WASAPIMicrophoneDevice.h</title>
<!-- Node1 -->
<g id="Node000001" class="node">
<title>Node1</title>
<g id="a_Node000001"><a xlink:title=" ">
<polygon fill="#999999" stroke="#666666" points="227.5,-88 61.5,-88 61.5,-56 227.5,-56 227.5,-88"/>
<text xml:space="preserve" text-anchor="start" x="69.5" y="-74.5" font-family="Helvetica,sans-Serif" font-size="10.00">engine/include/input</text>
<text xml:space="preserve" text-anchor="middle" x="144.5" y="-62.5" font-family="Helvetica,sans-Serif" font-size="10.00">/Mic/WASAPIMicrophoneDevice.h</text>
</a>
</g>
</g>
<!-- Node2 -->
<g id="Node000002" class="node">
<title>Node2</title>
<g id="a_Node000002"><a xlink:title=" ">
<polygon fill="#e0e0e0" stroke="#999999" points="37,-20 0,-20 0,0 37,0 37,-20"/>
<text xml:space="preserve" text-anchor="middle" x="18.5" y="-6.5" font-family="Helvetica,sans-Serif" font-size="10.00">wrl.h</text>
</a>
</g>
</g>
<!-- Node1&#45;&gt;Node2 -->
<g id="edge1_Node000001_Node000002" class="edge">
<title>Node1&#45;&gt;Node2</title>
<g id="a_edge1_Node000001_Node000002"><a xlink:title=" ">
<path fill="none" stroke="#63b8ff" d="M112.05,-55.55C92.09,-46.04 66.72,-33.96 47.44,-24.78"/>
<polygon fill="#63b8ff" stroke="#63b8ff" points="49.06,-21.67 38.52,-20.54 46.05,-27.99 49.06,-21.67"/>
</a>
</g>
</g>
<!-- Node3 -->
<g id="Node000003" class="node">
<title>Node3</title>
<g id="a_Node000003"><a xlink:title=" ">
<polygon fill="#e0e0e0" stroke="#999999" points="137.5,-20 55.5,-20 55.5,0 137.5,0 137.5,-20"/>
<text xml:space="preserve" text-anchor="middle" x="96.5" y="-6.5" font-family="Helvetica,sans-Serif" font-size="10.00">mmdeviceapi.h</text>
</a>
</g>
</g>
<!-- Node1&#45;&gt;Node3 -->
<g id="edge2_Node000001_Node000003" class="edge">
<title>Node1&#45;&gt;Node3</title>
<g id="a_edge2_Node000001_Node000003"><a xlink:title=" ">
<path fill="none" stroke="#63b8ff" d="M132.14,-55.55C125.75,-47.56 117.91,-37.76 111.21,-29.39"/>
<polygon fill="#63b8ff" stroke="#63b8ff" points="113.95,-27.21 104.97,-21.59 108.49,-31.59 113.95,-27.21"/>
</a>
</g>
</g>
<!-- Node4 -->
<g id="Node000004" class="node">
<title>Node4</title>
<g id="a_Node000004"><a xlink:title=" ">
<polygon fill="#e0e0e0" stroke="#999999" points="229.75,-20 155.25,-20 155.25,0 229.75,0 229.75,-20"/>
<text xml:space="preserve" text-anchor="middle" x="192.5" y="-6.5" font-family="Helvetica,sans-Serif" font-size="10.00">AudioClient.h</text>
</a>
</g>
</g>
<!-- Node1&#45;&gt;Node4 -->
<g id="edge3_Node000001_Node000004" class="edge">
<title>Node1&#45;&gt;Node4</title>
<g id="a_edge3_Node000001_Node000004"><a xlink:title=" ">
<path fill="none" stroke="#63b8ff" d="M156.86,-55.55C163.25,-47.56 171.09,-37.76 177.79,-29.39"/>
<polygon fill="#63b8ff" stroke="#63b8ff" points="180.51,-31.59 184.03,-21.59 175.05,-27.21 180.51,-31.59"/>
</a>
</g>
</g>
<!-- Node5 -->
<g id="Node000005" class="node">
<title>Node5</title>
<g id="a_Node000005"><a xlink:title=" ">
<polygon fill="#e0e0e0" stroke="#999999" points="291,-20 248,-20 248,0 291,0 291,-20"/>
<text xml:space="preserve" text-anchor="middle" x="269.5" y="-6.5" font-family="Helvetica,sans-Serif" font-size="10.00">vector</text>
</a>
</g>
</g>
<!-- Node1&#45;&gt;Node5 -->
<g id="edge4_Node000001_Node000005" class="edge">
<title>Node1&#45;&gt;Node5</title>
<g id="a_edge4_Node000001_Node000005"><a xlink:title=" ">
<path fill="none" stroke="#63b8ff" d="M176.69,-55.55C196.13,-46.22 220.73,-34.41 239.72,-25.29"/>
<polygon fill="#63b8ff" stroke="#63b8ff" points="241.03,-28.55 248.54,-21.06 238.01,-22.23 241.03,-28.55"/>
</a>
</g>
</g>
</g>
</svg>
