<?xml version="1.0" encoding="UTF-8" standalone="no"?>
<!DOCTYPE svg PUBLIC "-//W3C//DTD SVG 1.1//EN"
 "http://www.w3.org/Graphics/SVG/1.1/DTD/svg11.dtd">
<!-- Generated by graphviz version 14.1.1 (20251213.1925)
 -->
<!-- Title: engine/src/utility Pages: 1 -->
<svg width="439pt" height="128pt"
 viewBox="0.00 0.00 439.00 128.00" xmlns="http://www.w3.org/2000/svg" xmlns:xlink="http://www.w3.org/1999/xlink">
<g id="graph0" class="graph" transform="scale(1 1) rotate(0) translate(4 124)">
<title>engine/src/utility</title>
<g id="clust1" class="cluster">
<title>clusterdir_3d9126aa00c041bc0b8f859d1965a0f4</title>
<g id="a_clust1"><a xlink:href="dir_3d9126aa00c041bc0b8f859d1965a0f4.html" target="_top" xlink:title="src">
<polygon fill="#edf0f7" stroke="#7f7f7f" stroke-dasharray="5,2" points="8,-40 8,-112 423,-112 423,-40 8,-40"/>
<text xml:space="preserve" text-anchor="middle" x="215.5" y="-98.5" font-family="Helvetica,sans-Serif" font-size="10.00">src</text>
</a>
</g>
</g>
<g id="clust2" class="cluster">
<title>clusterdir_dbcba12c455adbe37f30e009024f9c38</title>
<g id="a_clust2"><a xlink:href="dir_dbcba12c455adbe37f30e009024f9c38.html" target="_top">
<polygon fill="#edf0f7" stroke="#404040" stroke-width="2" points="16,-48 16,-84 415,-84 415,-48 16,-48"/>
</a>
</g>
</g>
<!-- dir_dbcba12c455adbe37f30e009024f9c38 -->
<g id="node1" class="node">
<title>dir_dbcba12c455adbe37f30e009024f9c38</title>
<text xml:space="preserve" text-anchor="middle" x="44" y="-62.5" font-family="Helvetica,sans-Serif" font-size="10.00">utility</text>
</g>
<!-- dir_bafa501d493553e442f19f5f8dd7b29c -->
<g id="node7" class="node">
<title>dir_bafa501d493553e442f19f5f8dd7b29c</title>
<g id="a_node7"><a xlink:href="dir_bafa501d493553e442f19f5f8dd7b29c.html" target="_top" xlink:title="include">
<polygon fill="#edf0f7" stroke="red" stroke-dasharray="5,2" points="249.38,-20 202.62,-20 202.62,0 249.38,0 249.38,-20"/>
<text xml:space="preserve" text-anchor="middle" x="226" y="-6.5" font-family="Helvetica,sans-Serif" font-size="10.00">include</text>
</a>
</g>
</g>
<!-- dir_dbcba12c455adbe37f30e009024f9c38&#45;&gt;dir_bafa501d493553e442f19f5f8dd7b29c -->
<g id="edge1" class="edge">
<title>dir_dbcba12c455adbe37f30e009024f9c38&#45;&gt;dir_bafa501d493553e442f19f5f8dd7b29c</title>
<g id="a_edge1"><a xlink:href="dir_000136_000080.html" target="_top">
<path fill="none" stroke="#63b8ff" d="M51.77,-56.26C57.18,-50.74 64.86,-43.93 73,-40 110.68,-21.83 158.71,-15.03 190.8,-12.49"/>
<polygon fill="#63b8ff" stroke="#63b8ff" points="191.02,-15.99 200.76,-11.82 190.55,-9 191.02,-15.99"/>
</a>
</g>
<g id="a_edge1&#45;headlabel"><a xlink:href="dir_000136_000080.html" target="_top" xlink:title="23">
<text xml:space="preserve" text-anchor="middle" x="189.14" y="-15.46" font-family="Helvetica,sans-Serif" font-size="10.00" fill="#63b8ff">23</text>
</a>
</g>
</g>
<!-- dir_cc262f47f9864bf6b242fcf3414a1d7b -->
<g id="node2" class="node">
<title>dir_cc262f47f9864bf6b242fcf3414a1d7b</title>
<g id="a_node2"><a xlink:href="dir_cc262f47f9864bf6b242fcf3414a1d7b.html" target="_top" xlink:title="DebugTool">
<polygon fill="#a2b4d6" stroke="#404040" points="144.25,-76 81.75,-76 81.75,-56 144.25,-56 144.25,-76"/>
<text xml:space="preserve" text-anchor="middle" x="113" y="-62.5" font-family="Helvetica,sans-Serif" font-size="10.00">DebugTool</text>
</a>
</g>
</g>
<!-- dir_cc262f47f9864bf6b242fcf3414a1d7b&#45;&gt;dir_bafa501d493553e442f19f5f8dd7b29c -->
<g id="edge2" class="edge">
<title>dir_cc262f47f9864bf6b242fcf3414a1d7b&#45;&gt;dir_bafa501d493553e442f19f5f8dd7b29c</title>
<g id="a_edge2"><a xlink:href="dir_000046_000080.html" target="_top">
<path fill="none" stroke="#63b8ff" d="M127.09,-55.61C134.85,-50.65 144.76,-44.64 154,-40 165.99,-33.98 179.54,-28.26 191.62,-23.51"/>
<polygon fill="#63b8ff" stroke="#63b8ff" points="192.73,-26.84 200.81,-19.99 190.22,-20.3 192.73,-26.84"/>
</a>
</g>
<g id="a_edge2&#45;headlabel"><a xlink:href="dir_000046_000080.html" target="_top" xlink:title="11">
<text xml:space="preserve" text-anchor="middle" x="191.8" y="-26.74" font-family="Helvetica,sans-Serif" font-size="10.00" fill="#63b8ff">11</text>
</a>
</g>
</g>
<!-- dir_480276941d41d960cf72e537be3dd656 -->
<g id="node3" class="node">
<title>dir_480276941d41d960cf72e537be3dd656</title>
<g id="a_node3"><a xlink:href="dir_480276941d41d960cf72e537be3dd656.html" target="_top" xlink:title="DirectX">
<polygon fill="#a2b4d6" stroke="#404040" points="211.5,-76 162.5,-76 162.5,-56 211.5,-56 211.5,-76"/>
<text xml:space="preserve" text-anchor="middle" x="187" y="-62.5" font-family="Helvetica,sans-Serif" font-size="10.00">DirectX</text>
</a>
</g>
</g>
<!-- dir_480276941d41d960cf72e537be3dd656&#45;&gt;dir_bafa501d493553e442f19f5f8dd7b29c -->
<g id="edge3" class="edge">
<title>dir_480276941d41d960cf72e537be3dd656&#45;&gt;dir_bafa501d493553e442f19f5f8dd7b29c</title>
<g id="a_edge3"><a xlink:href="dir_000056_000080.html" target="_top">
<path fill="none" stroke="#63b8ff" d="M193.79,-55.59C198.99,-48.39 206.33,-38.23 212.69,-29.43"/>
<polygon fill="#63b8ff" stroke="#63b8ff" points="215.38,-31.68 218.4,-21.53 209.71,-27.58 215.38,-31.68"/>
</a>
</g>
<g id="a_edge3&#45;headlabel"><a xlink:href="dir_000056_000080.html" target="_top" xlink:title="3">
<text xml:space="preserve" text-anchor="middle" x="216.46" y="-31.53" font-family="Helvetica,sans-Serif" font-size="10.00" fill="#63b8ff">3</text>
</a>
</g>
</g>
<!-- dir_4b4a23e36ba6e8c24a5255c274f4ec15 -->
<g id="node4" class="node">
<title>dir_4b4a23e36ba6e8c24a5255c274f4ec15</title>
<g id="a_node4"><a xlink:href="dir_4b4a23e36ba6e8c24a5255c274f4ec15.html" target="_top" xlink:title="FileSystems">
<polygon fill="#a2b4d6" stroke="#404040" points="300.38,-76 229.62,-76 229.62,-56 300.38,-56 300.38,-76"/>
<text xml:space="preserve" text-anchor="middle" x="265" y="-62.5" font-family="Helvetica,sans-Serif" font-size="10.00">FileSystems</text>
</a>
</g>
</g>
<!-- dir_4b4a23e36ba6e8c24a5255c274f4ec15&#45;&gt;dir_bafa501d493553e442f19f5f8dd7b29c -->
<g id="edge4" class="edge">
<title>dir_4b4a23e36ba6e8c24a5255c274f4ec15&#45;&gt;dir_bafa501d493553e442f19f5f8dd7b29c</title>
<g id="a_edge4"><a xlink:href="dir_000070_000080.html" target="_top">
<path fill="none" stroke="#63b8ff" d="M258.21,-55.59C253.01,-48.39 245.67,-38.23 239.31,-29.43"/>
<polygon fill="#63b8ff" stroke="#63b8ff" points="242.29,-27.58 233.6,-21.53 236.62,-31.68 242.29,-27.58"/>
</a>
</g>
<g id="a_edge4&#45;headlabel"><a xlink:href="dir_000070_000080.html" target="_top" xlink:title="1">
<text xml:space="preserve" text-anchor="middle" x="245.81" y="-24.11" font-family="Helvetica,sans-Serif" font-size="10.00" fill="#63b8ff">1</text>
</a>
</g>
</g>
<!-- dir_b01d2f216438fdec337de013aaecac81 -->
<g id="node5" class="node">
<title>dir_b01d2f216438fdec337de013aaecac81</title>
<g id="a_node5"><a xlink:href="dir_b01d2f216438fdec337de013aaecac81.html" target="_top" xlink:title="ID">
<polygon fill="#a2b4d6" stroke="#404040" points="347.4,-76 318.6,-76 318.6,-56 347.4,-56 347.4,-76"/>
<text xml:space="preserve" text-anchor="middle" x="333" y="-62.5" font-family="Helvetica,sans-Serif" font-size="10.00">ID</text>
</a>
</g>
</g>
<!-- dir_b01d2f216438fdec337de013aaecac81&#45;&gt;dir_bafa501d493553e442f19f5f8dd7b29c -->
<g id="edge5" class="edge">
<title>dir_b01d2f216438fdec337de013aaecac81&#45;&gt;dir_bafa501d493553e442f19f5f8dd7b29c</title>
<g id="a_edge5"><a xlink:href="dir_000076_000080.html" target="_top">
<path fill="none" stroke="#63b8ff" d="M325.86,-55.62C321.48,-50.41 315.48,-44.16 309,-40 294.33,-30.57 276.21,-23.78 260.66,-19.16"/>
<polygon fill="#63b8ff" stroke="#63b8ff" points="261.9,-15.87 251.33,-16.57 260.03,-22.61 261.9,-15.87"/>
</a>
</g>
<g id="a_edge5&#45;headlabel"><a xlink:href="dir_000076_000080.html" target="_top" xlink:title="1">
<text xml:space="preserve" text-anchor="middle" x="264.66" y="-10.19" font-family="Helvetica,sans-Serif" font-size="10.00" fill="#63b8ff">1</text>
</a>
</g>
</g>
<!-- dir_55fccc596a94d439e8f9eccd5e749820 -->
<g id="node6" class="node">
<title>dir_55fccc596a94d439e8f9eccd5e749820</title>
<g id="a_node6"><a xlink:href="dir_55fccc596a94d439e8f9eccd5e749820.html" target="_top" xlink:title="String">
<polygon fill="#a2b4d6" stroke="#404040" points="406.75,-76 365.25,-76 365.25,-56 406.75,-56 406.75,-76"/>
<text xml:space="preserve" text-anchor="middle" x="386" y="-62.5" font-family="Helvetica,sans-Serif" font-size="10.00">String</text>
</a>
</g>
</g>
<!-- dir_55fccc596a94d439e8f9eccd5e749820&#45;&gt;dir_bafa501d493553e442f19f5f8dd7b29c -->
<g id="edge6" class="edge">
<title>dir_55fccc596a94d439e8f9eccd5e749820&#45;&gt;dir_bafa501d493553e442f19f5f8dd7b29c</title>
<g id="a_edge6"><a xlink:href="dir_000132_000080.html" target="_top">
<path fill="none" stroke="#63b8ff" d="M377.1,-55.62C371.52,-50.28 363.91,-43.89 356,-40 325.81,-25.15 287.96,-17.82 260.89,-14.25"/>
<polygon fill="#63b8ff" stroke="#63b8ff" points="261.5,-10.79 251.15,-13.08 260.66,-17.74 261.5,-10.79"/>
</a>
</g>
<g id="a_edge6&#45;headlabel"><a xlink:href="dir_000132_000080.html" target="_top" xlink:title="5">
<text xml:space="preserve" text-anchor="middle" x="263.9" y="-4.72" font-family="Helvetica,sans-Serif" font-size="10.00" fill="#63b8ff">5</text>
</a>
</g>
</g>
</g>
</svg>
