# Blender 4.4.3
# www.blender.org
mtllib SignBoard.mtl
o 立方体
v -0.500000 -0.250000 0.050000
v -0.500000 0.250000 0.050000
v -0.500000 -0.250000 -0.050000
v -0.500000 0.250000 -0.050000
v 0.500000 -0.000670 0.050000
v 0.500000 0.000670 0.050000
v 0.500000 -0.000670 -0.050000
v 0.500000 0.000670 -0.050000
v 0.000000 -0.250000 -0.050000
v 0.000000 0.250000 -0.050000
v 0.000000 -0.250000 0.050000
v 0.000000 0.250000 0.050000
v -0.247984 -0.250000 -0.050000
v -0.247984 0.250000 0.050000
v -0.247984 0.250000 -0.050000
v -0.247984 -0.250000 0.050000
v -0.373096 0.000000 0.050000
v -0.373096 0.000000 -0.050000
v 0.500000 0.000000 -0.050000
v 0.500000 0.000000 0.050000
v 0.000000 0.000000 0.050000
v 0.000000 0.000000 -0.050000
v -0.247984 0.000000 -0.050000
v -0.247984 0.000000 0.050000
v 0.252118 0.250000 -0.050000
v 0.252118 -0.250000 0.050000
v 0.252118 -0.250000 -0.050000
v 0.252118 0.250000 0.050000
v 0.252118 0.000000 0.050000
v 0.252118 0.000000 -0.050000
v -0.373992 -0.250000 -0.050000
v -0.373992 0.250000 0.050000
v -0.373992 0.250000 -0.050000
v -0.373992 -0.250000 0.050000
v -0.373992 0.000000 -0.050000
v -0.373992 0.000000 0.050000
v 0.376059 0.250000 -0.050000
v 0.376059 -0.250000 0.050000
v 0.376059 0.000000 -0.050000
v 0.376059 -0.250000 -0.050000
v 0.376059 0.250000 0.050000
v 0.376059 0.000000 0.050000
v 0.000000 -0.750000 -0.050000
v 0.000000 -0.250000 -0.050000
v 0.009755 -0.750000 -0.049039
v 0.009755 -0.250000 -0.049039
v 0.019134 -0.750000 -0.046194
v 0.019134 -0.250000 -0.046194
v 0.027779 -0.750000 -0.041573
v 0.027779 -0.250000 -0.041573
v 0.035355 -0.750000 -0.035355
v 0.035355 -0.250000 -0.035355
v 0.041573 -0.750000 -0.027779
v 0.041573 -0.250000 -0.027779
v 0.046194 -0.750000 -0.019134
v 0.046194 -0.250000 -0.019134
v 0.049039 -0.750000 -0.009755
v 0.049039 -0.250000 -0.009755
v 0.050000 -0.750000 0.000000
v 0.050000 -0.250000 0.000000
v 0.049039 -0.750000 0.009755
v 0.049039 -0.250000 0.009755
v 0.046194 -0.750000 0.019134
v 0.046194 -0.250000 0.019134
v 0.041573 -0.750000 0.027779
v 0.041573 -0.250000 0.027779
v 0.035355 -0.750000 0.035355
v 0.035355 -0.250000 0.035355
v 0.027779 -0.750000 0.041573
v 0.027779 -0.250000 0.041573
v 0.019134 -0.750000 0.046194
v 0.019134 -0.250000 0.046194
v 0.009755 -0.750000 0.049039
v 0.009755 -0.250000 0.049039
v 0.000000 -0.750000 0.050000
v 0.000000 -0.250000 0.050000
v -0.009755 -0.750000 0.049039
v -0.009755 -0.250000 0.049039
v -0.019134 -0.750000 0.046194
v -0.019134 -0.250000 0.046194
v -0.027779 -0.750000 0.041573
v -0.027779 -0.250000 0.041573
v -0.035355 -0.750000 0.035355
v -0.035355 -0.250000 0.035355
v -0.041573 -0.750000 0.027779
v -0.041573 -0.250000 0.027779
v -0.046194 -0.750000 0.019134
v -0.046194 -0.250000 0.019134
v -0.049039 -0.750000 0.009755
v -0.049039 -0.250000 0.009755
v -0.050000 -0.750000 0.000000
v -0.050000 -0.250000 0.000000
v -0.049039 -0.750000 -0.009755
v -0.049039 -0.250000 -0.009755
v -0.046194 -0.750000 -0.019134
v -0.046194 -0.250000 -0.019134
v -0.041573 -0.750000 -0.027779
v -0.041573 -0.250000 -0.027779
v -0.035355 -0.750000 -0.035355
v -0.035355 -0.250000 -0.035355
v -0.027779 -0.750000 -0.041573
v -0.027779 -0.250000 -0.041573
v -0.019134 -0.750000 -0.046194
v -0.019134 -0.250000 -0.046194
v -0.009755 -0.750000 -0.049039
v -0.009755 -0.250000 -0.049039
vn -0.8917 -0.4526 -0.0000
vn -0.0000 -0.0000 -1.0000
vn 1.0000 -0.0000 -0.0000
vn -0.0000 -0.0000 1.0000
vn 0.8955 -0.4451 -0.0000
vn -0.0000 1.0000 -0.0000
vn -0.0000 -1.0000 -0.0000
vn -0.8917 0.4526 -0.0000
vn 0.8955 0.4451 -0.0000
vn 0.0980 -0.0000 -0.9952
vn 0.2903 -0.0000 -0.9569
vn 0.4714 -0.0000 -0.8819
vn 0.6344 -0.0000 -0.7730
vn 0.7730 -0.0000 -0.6344
vn 0.8819 -0.0000 -0.4714
vn 0.9569 -0.0000 -0.2903
vn 0.9952 -0.0000 -0.0980
vn 0.9952 -0.0000 0.0980
vn 0.9569 -0.0000 0.2903
vn 0.8819 -0.0000 0.4714
vn 0.7730 -0.0000 0.6344
vn 0.6344 -0.0000 0.7730
vn 0.4714 -0.0000 0.8819
vn 0.2903 -0.0000 0.9569
vn 0.0980 -0.0000 0.9952
vn -0.0980 -0.0000 0.9952
vn -0.2903 -0.0000 0.9569
vn -0.4714 -0.0000 0.8819
vn -0.6344 -0.0000 0.7730
vn -0.7730 -0.0000 0.6344
vn -0.8819 -0.0000 0.4714
vn -0.9569 -0.0000 0.2903
vn -0.9952 -0.0000 0.0980
vn -0.9952 -0.0000 -0.0980
vn -0.9569 -0.0000 -0.2903
vn -0.8819 -0.0000 -0.4714
vn -0.7730 -0.0000 -0.6344
vn -0.6344 -0.0000 -0.7730
vn -0.4714 -0.0000 -0.8819
vn -0.2903 -0.0000 -0.9569
vn -0.0980 -0.0000 -0.9952
vt 0.253772 0.000171
vt 0.338306 0.000171
vt 0.338306 0.169238
vt 0.253772 0.169238
vt 0.253772 0.317351
vt 0.338306 0.317351
vt 0.338306 0.338306
vt 0.253772 0.338306
vt 0.338306 0.507373
vt 0.253772 0.507373
vt 0.253772 0.655137
vt 0.338306 0.655137
vt 0.338306 0.676441
vt 0.253772 0.676441
vt 0.148284 0.338306
vt 0.169238 0.338306
vt 0.169238 0.507373
vt 0.148284 0.507373
vt 0.486069 0.338306
vt 0.507373 0.338306
vt 0.507373 0.507373
vt 0.486069 0.507373
vt 0.380215 0.338306
vt 0.422840 0.338306
vt 0.422840 0.507373
vt 0.380215 0.507373
vt 0.042779 0.338306
vt 0.084705 0.338306
vt 0.084705 0.507373
vt 0.042779 0.507373
vt 0.253772 0.549282
vt 0.338306 0.549282
vt 0.338306 0.591907
vt 0.253772 0.591907
vt 0.253772 0.211846
vt 0.338306 0.211846
vt 0.338306 0.253772
vt 0.253772 0.253772
vt 0.253772 0.190542
vt 0.338306 0.190542
vt 0.021475 0.338306
vt 0.021475 0.507373
vt 0.464766 0.338306
vt 0.464766 0.507373
vt 0.338306 0.633833
vt 0.253772 0.633833
vt 0.169238 0.591907
vt 0.169238 0.633833
vt 0.169238 0.190542
vt 0.169238 0.211846
vt 0.169238 0.253772
vt 0.169238 0.549282
vt 0.169238 0.655137
vt 0.169238 0.676441
vt 0.169238 0.317351
vt 0.169238 0.000171
vt 0.169238 0.169238
vt 0.253772 0.296397
vt 0.169238 0.296397
vt 0.169238 0.528328
vt 0.253772 0.528328
vt 0.338306 0.528328
vt 0.359260 0.338306
vt 0.359260 0.507373
vt 0.127330 0.338306
vt 0.127330 0.507373
vt 0.338306 0.296397
vt 0.000171 0.338306
vt 0.000171 0.507373
vt 0.507715 0.000171
vt 0.845850 0.000171
vt 0.845850 0.021304
vt 0.507715 0.021304
vt 0.845850 0.042438
vt 0.507715 0.042438
vt 0.845850 0.063571
vt 0.507715 0.063571
vt 0.845850 0.084705
vt 0.507715 0.084705
vt 0.845850 0.105838
vt 0.507715 0.105838
vt 0.845850 0.126972
vt 0.507715 0.126972
vt 0.845850 0.148105
vt 0.507715 0.148105
vt 0.845850 0.169238
vt 0.507715 0.169238
vt 0.845850 0.190372
vt 0.507715 0.190372
vt 0.845850 0.211505
vt 0.507715 0.211505
vt 0.845850 0.232639
vt 0.507715 0.232639
vt 0.845850 0.253772
vt 0.507715 0.253772
vt 0.845850 0.274906
vt 0.507715 0.274906
vt 0.845850 0.296039
vt 0.507715 0.296039
vt 0.845850 0.317172
vt 0.507715 0.317172
vt 0.845850 0.338306
vt 0.507715 0.338306
vt 0.845850 0.359439
vt 0.507715 0.359439
vt 0.845850 0.380573
vt 0.507715 0.380573
vt 0.845850 0.401706
vt 0.507715 0.401706
vt 0.845850 0.422839
vt 0.507715 0.422839
vt 0.845850 0.443973
vt 0.507715 0.443973
vt 0.845850 0.465106
vt 0.507715 0.465106
vt 0.845850 0.486240
vt 0.507715 0.486240
vt 0.845850 0.507373
vt 0.507715 0.507373
vt 0.845850 0.528507
vt 0.507715 0.528507
vt 0.845850 0.549640
vt 0.507715 0.549640
vt 0.845850 0.570773
vt 0.507715 0.570773
vt 0.845850 0.591907
vt 0.507715 0.591907
vt 0.845850 0.613040
vt 0.507715 0.613040
vt 0.845850 0.634174
vt 0.507715 0.634174
vt 0.500991 0.999829
vt 0.469174 0.999829
vt 0.437968 0.993622
vt 0.408573 0.981446
vt 0.382117 0.963769
vt 0.359619 0.941271
vt 0.341942 0.914816
vt 0.329767 0.885420
vt 0.323559 0.854214
vt 0.323559 0.822397
vt 0.329767 0.791191
vt 0.341943 0.761796
vt 0.359619 0.735341
vt 0.382118 0.712842
vt 0.408573 0.695166
vt 0.437968 0.682990
vt 0.469174 0.676783
vt 0.500991 0.676783
vt 0.532197 0.682990
vt 0.561592 0.695166
vt 0.588048 0.712843
vt 0.610546 0.735341
vt 0.628223 0.761796
vt 0.640398 0.791191
vt 0.646606 0.822397
vt 0.646606 0.854214
vt 0.640398 0.885420
vt 0.628222 0.914816
vt 0.610546 0.941271
vt 0.588047 0.963769
vt 0.561592 0.981446
vt 0.532197 0.993622
vt 0.845850 0.655307
vt 0.507715 0.655307
vt 0.845850 0.676441
vt 0.507715 0.676441
vt 0.006378 0.885420
vt 0.018554 0.914816
vt 0.036231 0.941271
vt 0.058729 0.963769
vt 0.085184 0.981446
vt 0.114580 0.993622
vt 0.145786 0.999829
vt 0.177603 0.999829
vt 0.208809 0.993622
vt 0.238204 0.981446
vt 0.264659 0.963769
vt 0.287157 0.941271
vt 0.304834 0.914816
vt 0.317010 0.885420
vt 0.323217 0.854214
vt 0.323217 0.822397
vt 0.317010 0.791191
vt 0.304834 0.761796
vt 0.287157 0.735341
vt 0.264659 0.712843
vt 0.238204 0.695166
vt 0.208809 0.682990
vt 0.177603 0.676783
vt 0.145785 0.676783
vt 0.114580 0.682990
vt 0.085184 0.695166
vt 0.058729 0.712843
vt 0.036231 0.735341
vt 0.018554 0.761796
vt 0.006378 0.791191
vt 0.000171 0.822397
vt 0.000171 0.854215
s 0
usemtl マテリアル.002
f 17/1/1 2/2/1 4/3/1 18/4/1
f 39/5/2 37/6/2 8/7/2 19/8/2
f 19/8/3 8/7/3 6/9/3 20/10/3
f 36/11/4 32/12/4 2/13/4 17/14/4
f 40/15/5 7/16/5 5/17/5 38/18/5
f 33/19/6 4/20/6 2/21/6 32/22/6
f 25/23/6 10/24/6 12/25/6 28/26/6
f 13/27/7 9/28/7 11/29/7 16/30/7
f 29/31/4 28/32/4 12/33/4 21/34/4
f 23/35/2 15/36/2 10/37/2 22/38/2
f 35/39/2 33/40/2 15/36/2 23/35/2
f 31/41/7 13/27/7 16/30/7 34/42/7
f 10/24/6 15/43/6 14/44/6 12/25/6
f 21/34/4 12/33/4 14/45/4 24/46/4
f 11/47/4 21/34/4 24/46/4 16/48/4
f 31/49/2 35/39/2 23/35/2 13/50/2
f 13/50/2 23/35/2 22/38/2 9/51/2
f 26/52/4 29/31/4 21/34/4 11/47/4
f 34/53/4 36/11/4 17/14/4 1/54/4
f 7/16/3 19/8/3 20/10/3 5/17/3
f 40/55/2 39/5/2 19/8/2 7/16/2
f 1/56/8 17/1/8 18/4/8 3/57/8
f 9/51/2 22/38/2 30/58/2 27/59/2
f 38/60/4 42/61/4 29/31/4 26/52/4
f 42/61/4 41/62/4 28/32/4 29/31/4
f 37/63/6 25/23/6 28/26/6 41/64/6
f 9/28/7 27/65/7 26/66/7 11/29/7
f 22/38/2 10/37/2 25/67/2 30/58/2
f 16/48/4 24/46/4 36/11/4 34/53/4
f 3/57/2 18/4/2 35/39/2 31/49/2
f 3/68/7 31/41/7 34/42/7 1/69/7
f 18/4/2 4/3/2 33/40/2 35/39/2
f 15/43/6 33/19/6 32/22/6 14/44/6
f 24/46/4 14/45/4 32/12/4 36/11/4
f 8/7/9 37/63/9 41/64/9 6/9/9
f 20/10/4 6/9/4 41/62/4 42/61/4
f 5/17/4 20/10/4 42/61/4 38/60/4
f 27/59/2 30/58/2 39/5/2 40/55/2
f 27/65/7 40/15/7 38/18/7 26/66/7
f 30/58/2 25/67/2 37/6/2 39/5/2
f 43/70/10 44/71/10 46/72/10 45/73/10
f 45/73/11 46/72/11 48/74/11 47/75/11
f 47/75/12 48/74/12 50/76/12 49/77/12
f 49/77/13 50/76/13 52/78/13 51/79/13
f 51/79/14 52/78/14 54/80/14 53/81/14
f 53/81/15 54/80/15 56/82/15 55/83/15
f 55/83/16 56/82/16 58/84/16 57/85/16
f 57/85/17 58/84/17 60/86/17 59/87/17
f 59/87/18 60/86/18 62/88/18 61/89/18
f 61/89/19 62/88/19 64/90/19 63/91/19
f 63/91/20 64/90/20 66/92/20 65/93/20
f 65/93/21 66/92/21 68/94/21 67/95/21
f 67/95/22 68/94/22 70/96/22 69/97/22
f 69/97/23 70/96/23 72/98/23 71/99/23
f 71/99/24 72/98/24 74/100/24 73/101/24
f 73/101/25 74/100/25 76/102/25 75/103/25
f 75/103/26 76/102/26 78/104/26 77/105/26
f 77/105/27 78/104/27 80/106/27 79/107/27
f 79/107/28 80/106/28 82/108/28 81/109/28
f 81/109/29 82/108/29 84/110/29 83/111/29
f 83/111/30 84/110/30 86/112/30 85/113/30
f 85/113/31 86/112/31 88/114/31 87/115/31
f 87/115/32 88/114/32 90/116/32 89/117/32
f 89/117/33 90/116/33 92/118/33 91/119/33
f 91/119/34 92/118/34 94/120/34 93/121/34
f 93/121/35 94/120/35 96/122/35 95/123/35
f 95/123/36 96/122/36 98/124/36 97/125/36
f 97/125/37 98/124/37 100/126/37 99/127/37
f 99/127/38 100/126/38 102/128/38 101/129/38
f 101/129/39 102/128/39 104/130/39 103/131/39
f 46/132/6 44/133/6 106/134/6 104/135/6 102/136/6 100/137/6 98/138/6 96/139/6 94/140/6 92/141/6 90/142/6 88/143/6 86/144/6 84/145/6 82/146/6 80/147/6 78/148/6 76/149/6 74/150/6 72/151/6 70/152/6 68/153/6 66/154/6 64/155/6 62/156/6 60/157/6 58/158/6 56/159/6 54/160/6 52/161/6 50/162/6 48/163/6
f 103/131/40 104/130/40 106/164/40 105/165/40
f 105/165/41 106/164/41 44/166/41 43/167/41
f 43/168/7 45/169/7 47/170/7 49/171/7 51/172/7 53/173/7 55/174/7 57/175/7 59/176/7 61/177/7 63/178/7 65/179/7 67/180/7 69/181/7 71/182/7 73/183/7 75/184/7 77/185/7 79/186/7 81/187/7 83/188/7 85/189/7 87/190/7 89/191/7 91/192/7 93/193/7 95/194/7 97/195/7 99/196/7 101/197/7 103/198/7 105/199/7
