# Blender 4.4.3
# www.blender.org
mtllib SignBoardName.mtl
o テキスト
v 0.272188 -0.125625 0.010000
v 0.272188 0.083750 0.010000
v 0.230313 0.083750 0.010000
v 0.230313 0.125625 0.010000
v 0.355938 0.125625 0.010000
v 0.355938 0.083750 0.010000
v 0.314063 0.083750 0.010000
v 0.314063 -0.125625 0.010000
v 0.083750 -0.125625 0.010000
v 0.083750 0.125625 0.010000
v 0.209375 0.125625 0.010000
v 0.209375 0.041875 0.010000
v 0.167500 0.041875 0.010000
v 0.167500 0.083750 0.010000
v 0.125625 0.083750 0.010000
v 0.125625 0.041875 0.010000
v 0.167500 0.041875 0.010000
v 0.167500 -0.000000 0.010000
v 0.125625 -0.000000 0.010000
v 0.125625 -0.125625 0.010000
v 0.167500 -0.125625 0.010000
v 0.167500 -0.000000 0.010000
v 0.209375 -0.000000 0.010000
v 0.209375 -0.125625 0.010000
v -0.062812 -0.125625 0.010000
v -0.062812 0.083750 0.010000
v -0.020938 0.083750 0.010000
v -0.020938 0.041875 0.010000
v 0.020938 0.041875 0.010000
v 0.020938 0.083750 0.010000
v 0.062812 0.083750 0.010000
v 0.062812 -0.125625 0.010000
v 0.020938 -0.125625 0.010000
v 0.020938 -0.000000 0.010000
v -0.020938 -0.000000 0.010000
v -0.020938 -0.125625 0.010000
v 0.020938 0.083750 0.010000
v 0.020938 0.125625 0.010000
v -0.020938 0.125625 0.010000
v -0.020938 0.083750 0.010000
v -0.167500 -0.125625 0.010000
v -0.167500 0.083750 0.010000
v -0.209375 0.083750 0.010000
v -0.209375 0.125625 0.010000
v -0.083750 0.125625 0.010000
v -0.083750 0.083750 0.010000
v -0.125625 0.083750 0.010000
v -0.125625 -0.125625 0.010000
v -0.355938 -0.125625 0.010000
v -0.355938 -0.083750 0.010000
v -0.272188 -0.083750 0.010000
v -0.272188 -0.125625 0.010000
v -0.272188 -0.083750 0.010000
v -0.272188 -0.000000 0.010000
v -0.230313 -0.000000 0.010000
v -0.230313 -0.083750 0.010000
v -0.314063 -0.000000 0.010000
v -0.314063 0.041875 0.010000
v -0.272188 0.041875 0.010000
v -0.272188 -0.000000 0.010000
v -0.355938 0.041875 0.010000
v -0.355938 0.083750 0.010000
v -0.314063 0.083750 0.010000
v -0.314063 0.041875 0.010000
v -0.314063 0.083750 0.010000
v -0.314063 0.125625 0.010000
v -0.230313 0.125625 0.010000
v -0.230313 0.083750 0.010000
v 0.272188 -0.125625 -0.010000
v 0.272188 0.083750 -0.010000
v 0.230313 0.083750 -0.010000
v 0.230313 0.125625 -0.010000
v 0.355938 0.125625 -0.010000
v 0.355938 0.083750 -0.010000
v 0.314063 0.083750 -0.010000
v 0.314063 -0.125625 -0.010000
v 0.083750 -0.125625 -0.010000
v 0.083750 0.125625 -0.010000
v 0.209375 0.125625 -0.010000
v 0.209375 0.041875 -0.010000
v 0.167500 0.041875 -0.010000
v 0.167500 0.083750 -0.010000
v 0.125625 0.083750 -0.010000
v 0.125625 0.041875 -0.010000
v 0.167500 0.041875 -0.010000
v 0.167500 0.000000 -0.010000
v 0.125625 0.000000 -0.010000
v 0.125625 -0.125625 -0.010000
v 0.167500 -0.125625 -0.010000
v 0.167500 0.000000 -0.010000
v 0.209375 0.000000 -0.010000
v 0.209375 -0.125625 -0.010000
v -0.062812 -0.125625 -0.010000
v -0.062812 0.083750 -0.010000
v -0.020938 0.083750 -0.010000
v -0.020938 0.041875 -0.010000
v 0.020938 0.041875 -0.010000
v 0.020938 0.083750 -0.010000
v 0.062812 0.083750 -0.010000
v 0.062812 -0.125625 -0.010000
v 0.020938 -0.125625 -0.010000
v 0.020938 0.000000 -0.010000
v -0.020938 0.000000 -0.010000
v -0.020938 -0.125625 -0.010000
v 0.020938 0.083750 -0.010000
v 0.020938 0.125625 -0.010000
v -0.020938 0.125625 -0.010000
v -0.020938 0.083750 -0.010000
v -0.167500 -0.125625 -0.010000
v -0.167500 0.083750 -0.010000
v -0.209375 0.083750 -0.010000
v -0.209375 0.125625 -0.010000
v -0.083750 0.125625 -0.010000
v -0.083750 0.083750 -0.010000
v -0.125625 0.083750 -0.010000
v -0.125625 -0.125625 -0.010000
v -0.355938 -0.125625 -0.010000
v -0.355938 -0.083750 -0.010000
v -0.272188 -0.083750 -0.010000
v -0.272188 -0.125625 -0.010000
v -0.272188 -0.083750 -0.010000
v -0.272188 0.000000 -0.010000
v -0.230313 0.000000 -0.010000
v -0.230313 -0.083750 -0.010000
v -0.314063 0.000000 -0.010000
v -0.314063 0.041875 -0.010000
v -0.272188 0.041875 -0.010000
v -0.272188 0.000000 -0.010000
v -0.355938 0.041875 -0.010000
v -0.355938 0.083750 -0.010000
v -0.314063 0.083750 -0.010000
v -0.314063 0.041875 -0.010000
v -0.314063 0.083750 -0.010000
v -0.314063 0.125625 -0.010000
v -0.230313 0.125625 -0.010000
v -0.230313 0.083750 -0.010000
v -0.355938 -0.125625 -0.010000
v -0.355938 -0.125625 0.010000
v -0.355938 -0.083750 -0.010000
v -0.355938 -0.083750 0.010000
v -0.272188 -0.083750 -0.010000
v -0.272188 -0.083750 0.010000
v -0.272188 -0.125625 -0.010000
v -0.272188 -0.125625 0.010000
v -0.272188 -0.083750 -0.010000
v -0.272188 -0.083750 0.010000
v -0.272188 0.000000 -0.010000
v -0.272188 -0.000000 0.010000
v -0.230313 0.000000 -0.010000
v -0.230313 -0.000000 0.010000
v -0.230313 -0.083750 -0.010000
v -0.230313 -0.083750 0.010000
v -0.314063 0.000000 -0.010000
v -0.314063 -0.000000 0.010000
v -0.314063 0.041875 -0.010000
v -0.314063 0.041875 0.010000
v -0.272188 0.041875 -0.010000
v -0.272188 0.041875 0.010000
v -0.272188 0.000000 -0.010000
v -0.272188 -0.000000 0.010000
v -0.355938 0.041875 -0.010000
v -0.355938 0.041875 0.010000
v -0.355938 0.083750 -0.010000
v -0.355938 0.083750 0.010000
v -0.314063 0.083750 -0.010000
v -0.314063 0.083750 0.010000
v -0.314063 0.041875 -0.010000
v -0.314063 0.041875 0.010000
v -0.314063 0.083750 -0.010000
v -0.314063 0.083750 0.010000
v -0.314063 0.125625 -0.010000
v -0.314063 0.125625 0.010000
v -0.230313 0.125625 -0.010000
v -0.230313 0.125625 0.010000
v -0.230313 0.083750 -0.010000
v -0.230313 0.083750 0.010000
v -0.167500 -0.125625 -0.010000
v -0.167500 -0.125625 0.010000
v -0.167500 0.083750 -0.010000
v -0.167500 0.083750 0.010000
v -0.209375 0.083750 -0.010000
v -0.209375 0.083750 0.010000
v -0.209375 0.125625 -0.010000
v -0.209375 0.125625 0.010000
v -0.083750 0.125625 -0.010000
v -0.083750 0.125625 0.010000
v -0.083750 0.083750 -0.010000
v -0.083750 0.083750 0.010000
v -0.125625 0.083750 -0.010000
v -0.125625 0.083750 0.010000
v -0.125625 -0.125625 -0.010000
v -0.125625 -0.125625 0.010000
v -0.062812 -0.125625 -0.010000
v -0.062812 -0.125625 0.010000
v -0.062812 0.083750 -0.010000
v -0.062812 0.083750 0.010000
v -0.020938 0.083750 -0.010000
v -0.020938 0.083750 0.010000
v -0.020938 0.041875 -0.010000
v -0.020938 0.041875 0.010000
v 0.020938 0.041875 -0.010000
v 0.020938 0.041875 0.010000
v 0.020938 0.083750 -0.010000
v 0.020938 0.083750 0.010000
v 0.062812 0.083750 -0.010000
v 0.062812 0.083750 0.010000
v 0.062812 -0.125625 -0.010000
v 0.062812 -0.125625 0.010000
v 0.020938 -0.125625 -0.010000
v 0.020938 -0.125625 0.010000
v 0.020938 0.000000 -0.010000
v 0.020938 -0.000000 0.010000
v -0.020938 0.000000 -0.010000
v -0.020938 -0.000000 0.010000
v -0.020938 -0.125625 -0.010000
v -0.020938 -0.125625 0.010000
v 0.020938 0.083750 -0.010000
v 0.020938 0.083750 0.010000
v 0.020938 0.125625 -0.010000
v 0.020938 0.125625 0.010000
v -0.020938 0.125625 -0.010000
v -0.020938 0.125625 0.010000
v -0.020938 0.083750 -0.010000
v -0.020938 0.083750 0.010000
v 0.083750 -0.125625 -0.010000
v 0.083750 -0.125625 0.010000
v 0.083750 0.125625 -0.010000
v 0.083750 0.125625 0.010000
v 0.209375 0.125625 -0.010000
v 0.209375 0.125625 0.010000
v 0.209375 0.041875 -0.010000
v 0.209375 0.041875 0.010000
v 0.167500 0.041875 -0.010000
v 0.167500 0.041875 0.010000
v 0.167500 0.083750 -0.010000
v 0.167500 0.083750 0.010000
v 0.125625 0.083750 -0.010000
v 0.125625 0.083750 0.010000
v 0.125625 0.041875 -0.010000
v 0.125625 0.041875 0.010000
v 0.167500 0.041875 -0.010000
v 0.167500 0.041875 0.010000
v 0.167500 0.000000 -0.010000
v 0.167500 -0.000000 0.010000
v 0.125625 0.000000 -0.010000
v 0.125625 -0.000000 0.010000
v 0.125625 -0.125625 -0.010000
v 0.125625 -0.125625 0.010000
v 0.167500 -0.125625 -0.010000
v 0.167500 -0.125625 0.010000
v 0.167500 0.000000 -0.010000
v 0.167500 -0.000000 0.010000
v 0.209375 0.000000 -0.010000
v 0.209375 -0.000000 0.010000
v 0.209375 -0.125625 -0.010000
v 0.209375 -0.125625 0.010000
v 0.272188 -0.125625 -0.010000
v 0.272188 -0.125625 0.010000
v 0.272188 0.083750 -0.010000
v 0.272188 0.083750 0.010000
v 0.230313 0.083750 -0.010000
v 0.230313 0.083750 0.010000
v 0.230313 0.125625 -0.010000
v 0.230313 0.125625 0.010000
v 0.355938 0.125625 -0.010000
v 0.355938 0.125625 0.010000
v 0.355938 0.083750 -0.010000
v 0.355938 0.083750 0.010000
v 0.314063 0.083750 -0.010000
v 0.314063 0.083750 0.010000
v 0.314063 -0.125625 -0.010000
v 0.314063 -0.125625 0.010000
vn -0.0000 -0.0000 1.0000
vn -0.0000 -0.0000 -1.0000
vn -0.7071 -0.7071 -0.0000
vn -0.7071 0.7071 -0.0000
vn 0.7071 0.7071 -0.0000
vn 0.7071 -0.7071 -0.0000
vt 0.285714 0.000000
vt 0.571429 0.000000
vt 0.428571 0.000000
vt 0.714286 0.000000
vt 0.142857 0.000000
vt 0.000000 0.000000
vt 0.857143 0.000000
vt 1.000000 0.000000
vt 0.400000 0.000000
vt 0.066667 0.000000
vt 0.133333 0.000000
vt 0.333333 0.000000
vt 0.200000 0.000000
vt 0.466667 0.000000
vt 0.266667 0.000000
vt 0.666667 0.000000
vt 0.533333 0.000000
vt 0.600000 0.000000
vt 0.733333 0.000000
vt 0.800000 0.000000
vt 0.933333 0.000000
vt 0.866667 0.000000
vt 0.842105 0.000000
vt 0.947368 0.000000
vt 0.894737 0.000000
vt 0.631579 0.000000
vt 0.736842 0.000000
vt 0.684211 0.000000
vt 0.789474 0.000000
vt 0.421053 0.000000
vt 0.526316 0.000000
vt 0.473684 0.000000
vt 0.578947 0.000000
vt 0.210526 0.000000
vt 0.315789 0.000000
vt 0.263158 0.000000
vt 0.368421 0.000000
vt 0.105263 0.000000
vt 0.052632 0.000000
vt 0.157895 0.000000
vt 0.000000 1.000000
vt 0.250000 1.000000
vt 0.250000 0.000000
vt 0.500000 1.000000
vt 0.500000 0.000000
vt 0.750000 1.000000
vt 0.750000 0.000000
vt 1.000000 1.000000
vt 0.125000 1.000000
vt 0.125000 0.000000
vt 0.375000 1.000000
vt 0.375000 0.000000
vt 0.625000 1.000000
vt 0.625000 0.000000
vt 0.875000 1.000000
vt 0.875000 0.000000
vt 0.083333 1.000000
vt 0.083333 0.000000
vt 0.166667 1.000000
vt 0.166667 0.000000
vt 0.333333 1.000000
vt 0.416667 1.000000
vt 0.416667 0.000000
vt 0.583333 1.000000
vt 0.583333 0.000000
vt 0.666667 1.000000
vt 0.833333 1.000000
vt 0.833333 0.000000
vt 0.916667 1.000000
vt 0.916667 0.000000
s 0
usemtl マテリアル.003
f 3/1/1 5/2/1 4/3/1
f 3/1/1 6/4/1 5/2/1
f 2/5/1 6/4/1 3/1/1
f 1/6/1 7/7/1 2/5/1
f 7/7/1 6/4/1 2/5/1
f 1/6/1 8/8/1 7/7/1
f 9/6/1 15/9/1 10/10/1
f 15/9/1 11/11/1 10/10/1
f 15/9/1 14/12/1 11/11/1
f 14/12/1 12/13/1 11/11/1
f 9/6/1 16/14/1 15/9/1
f 13/15/1 12/13/1 14/12/1
f 9/6/1 19/16/1 16/14/1
f 19/16/1 17/17/1 16/14/1
f 19/16/1 18/18/1 17/17/1
f 9/6/1 20/19/1 19/16/1
f 21/20/1 23/21/1 22/22/1
f 21/20/1 24/8/1 23/21/1
f 40/8/1 38/22/1 39/21/1
f 40/8/1 37/20/1 38/22/1
f 25/6/1 27/11/1 26/10/1
f 25/6/1 28/13/1 27/11/1
f 29/15/1 31/9/1 30/12/1
f 29/15/1 32/14/1 31/9/1
f 25/6/1 35/16/1 28/13/1
f 35/16/1 29/15/1 28/13/1
f 35/16/1 34/18/1 29/15/1
f 34/18/1 32/14/1 29/15/1
f 25/6/1 36/19/1 35/16/1
f 33/17/1 32/14/1 34/18/1
f 43/1/1 45/2/1 44/3/1
f 43/1/1 46/4/1 45/2/1
f 42/5/1 46/4/1 43/1/1
f 41/6/1 47/7/1 42/5/1
f 47/7/1 46/4/1 42/5/1
f 41/6/1 48/8/1 47/7/1
f 65/23/1 67/24/1 66/25/1
f 65/23/1 68/8/1 67/24/1
f 61/26/1 63/27/1 62/28/1
f 61/26/1 64/29/1 63/27/1
f 57/30/1 59/31/1 58/32/1
f 57/30/1 60/33/1 59/31/1
f 53/34/1 55/35/1 54/36/1
f 53/34/1 56/37/1 55/35/1
f 49/6/1 51/38/1 50/39/1
f 49/6/1 52/40/1 51/38/1
f 71/1/2 72/3/2 73/2/2
f 71/1/2 73/2/2 74/4/2
f 70/5/1 71/1/1 74/4/1
f 69/6/2 70/5/2 75/7/2
f 75/7/1 70/5/1 74/4/1
f 69/6/2 75/7/2 76/8/2
f 77/6/2 78/10/2 83/9/2
f 83/9/2 78/10/2 79/11/2
f 83/9/2 79/11/2 82/12/2
f 82/12/2 79/11/2 80/13/2
f 77/6/2 83/9/2 84/14/2
f 81/15/2 82/12/2 80/13/2
f 77/6/2 84/14/2 87/16/2
f 87/16/2 84/14/2 85/17/2
f 87/16/2 85/17/2 86/18/2
f 77/6/2 87/16/2 88/19/2
f 89/20/2 90/22/2 91/21/2
f 89/20/2 91/21/2 92/8/2
f 108/8/2 107/21/2 106/22/2
f 108/8/2 106/22/2 105/20/2
f 93/6/2 94/10/2 95/11/2
f 93/6/2 95/11/2 96/13/2
f 97/15/2 98/12/2 99/9/2
f 97/15/2 99/9/2 100/14/2
f 93/6/2 96/13/2 103/16/2
f 103/16/2 96/13/2 97/15/2
f 103/16/2 97/15/2 102/18/2
f 102/18/2 97/15/2 100/14/2
f 93/6/2 103/16/2 104/19/2
f 101/17/2 102/18/2 100/14/2
f 111/1/2 112/3/2 113/2/2
f 111/1/2 113/2/2 114/4/2
f 110/5/1 111/1/1 114/4/1
f 109/6/2 110/5/2 115/7/2
f 115/7/1 110/5/1 114/4/1
f 109/6/2 115/7/2 116/8/2
f 133/23/2 134/25/2 135/24/2
f 133/23/2 135/24/2 136/8/2
f 129/26/2 130/28/2 131/27/2
f 129/26/2 131/27/2 132/29/2
f 125/30/2 126/32/2 127/31/2
f 125/30/2 127/31/2 128/33/2
f 121/34/2 122/36/2 123/35/2
f 121/34/2 123/35/2 124/37/2
f 117/6/2 118/39/2 119/38/2
f 117/6/2 119/38/2 120/40/2
s 1
f 138/41/3 140/42/4 139/43/4 137/6/3
f 140/42/4 142/44/5 141/45/5 139/43/4
f 142/44/5 144/46/6 143/47/6 141/45/5
f 144/46/6 138/48/3 137/8/3 143/47/6
f 146/41/3 148/42/4 147/43/4 145/6/3
f 148/42/4 150/44/5 149/45/5 147/43/4
f 150/44/5 152/46/6 151/47/6 149/45/5
f 152/46/6 146/48/3 145/8/3 151/47/6
f 154/41/3 156/42/4 155/43/4 153/6/3
f 156/42/4 158/44/5 157/45/5 155/43/4
f 158/44/5 160/46/6 159/47/6 157/45/5
f 160/46/6 154/48/3 153/8/3 159/47/6
f 162/41/3 164/42/4 163/43/4 161/6/3
f 164/42/4 166/44/5 165/45/5 163/43/4
f 166/44/5 168/46/6 167/47/6 165/45/5
f 168/46/6 162/48/3 161/8/3 167/47/6
f 170/41/3 172/42/4 171/43/4 169/6/3
f 172/42/4 174/44/5 173/45/5 171/43/4
f 174/44/5 176/46/6 175/47/6 173/45/5
f 176/46/6 170/48/3 169/8/3 175/47/6
f 178/41/3 180/49/3 179/50/3 177/6/3
f 180/49/3 182/42/3 181/43/3 179/50/3
f 182/42/3 184/51/4 183/52/4 181/43/3
f 184/51/4 186/44/5 185/45/5 183/52/4
f 186/44/5 188/53/6 187/54/6 185/45/5
f 188/53/6 190/46/6 189/47/6 187/54/6
f 190/46/6 192/55/6 191/56/6 189/47/6
f 192/55/6 178/48/3 177/8/3 191/56/6
f 194/41/3 196/57/4 195/58/4 193/6/3
f 196/57/4 198/59/5 197/60/5 195/58/4
f 198/59/5 200/42/5 199/43/5 197/60/5
f 200/42/5 202/61/4 201/12/4 199/43/5
f 202/61/4 204/62/4 203/63/4 201/12/4
f 204/62/4 206/44/5 205/45/5 203/63/4
f 206/44/5 208/64/6 207/65/6 205/45/5
f 208/64/6 210/66/3 209/16/3 207/65/6
f 210/66/3 212/46/3 211/47/3 209/16/3
f 212/46/3 214/67/6 213/68/6 211/47/3
f 214/67/6 216/69/6 215/70/6 213/68/6
f 216/69/6 194/48/3 193/8/3 215/70/6
f 218/41/4 220/42/3 219/43/3 217/6/4
f 220/42/3 222/44/6 221/45/6 219/43/3
f 222/44/6 224/46/5 223/47/5 221/45/6
f 224/46/5 218/48/4 217/8/4 223/47/5
f 226/41/3 228/57/4 227/58/4 225/6/3
f 228/57/4 230/59/5 229/60/5 227/58/4
f 230/59/5 232/42/6 231/43/6 229/60/5
f 232/42/6 234/61/3 233/12/3 231/43/6
f 234/61/3 236/62/3 235/63/3 233/12/3
f 236/62/3 238/44/6 237/45/6 235/63/3
f 238/44/6 240/64/5 239/65/5 237/45/6
f 240/64/5 242/66/5 241/16/5 239/65/5
f 242/66/5 244/46/6 243/47/6 241/16/5
f 244/46/6 246/67/6 245/68/6 243/47/6
f 246/67/6 248/69/6 247/70/6 245/68/6
f 248/69/6 226/48/3 225/8/3 247/70/6
f 250/41/3 252/42/4 251/43/4 249/6/3
f 252/42/4 254/44/5 253/45/5 251/43/4
f 254/44/5 256/46/6 255/47/6 253/45/5
f 256/46/6 250/48/3 249/8/3 255/47/6
f 258/41/3 260/49/3 259/50/3 257/6/3
f 260/49/3 262/42/3 261/43/3 259/50/3
f 262/42/3 264/51/4 263/52/4 261/43/3
f 264/51/4 266/44/5 265/45/5 263/52/4
f 266/44/5 268/53/6 267/54/6 265/45/5
f 268/53/6 270/46/6 269/47/6 267/54/6
f 270/46/6 272/55/6 271/56/6 269/47/6
f 272/55/6 258/48/3 257/8/3 271/56/6
