# MagicaVoxel @ Ephtracy

# group
o 

# material
mtllib expressway_fl.mtl
usemtl palette

# normals
vn -1 0 0
vn 1 0 0
vn 0 0 1
vn 0 0 -1
vn 0 -1 0
vn 0 1 0

# texcoords
vt 0.0253906 0.5
vt 0.0292969 0.5
vt 0.0644531 0.5

# verts
v -3.2 3.5 3.2
v -3.2 3.5 -3.2
v -3.2 6.4 3.2
v -3.2 6.4 -3.2
v -2.5 4 3.2
v -2.5 4 -3.2
v -2.5 4.2 3.2
v -2.5 4.2 -3.2
v 0.3 3.4 1.2
v 0.3 3.4 -1.2
v 0.3 3.5 1.2
v 0.3 3.5 -1.2
v 0.4 3 1.2
v 0.4 3 -1.2
v 0.4 3.4 1.2
v 0.4 3.4 -1.2
v 0.5 3.2 1.3
v 0.5 3.2 1.2
v 0.5 3.2 -1.2
v 0.5 3.2 -1.3
v 0.5 3.5 1.3
v 0.5 3.5 1.2
v 0.5 3.5 -1.2
v 0.5 3.5 -1.3
v 0.6 2.9 1.2
v 0.6 2.9 -1.2
v 0.6 3 1.2
v 0.6 3 -1.2
v 0.7 3 1.3
v 0.7 3 1.2
v 0.7 3 -1.2
v 0.7 3 -1.3
v 0.7 3.2 1.3
v 0.7 3.2 1.2
v 0.7 3.2 -1.2
v 0.7 3.2 -1.3
v 0.9 2.7 1.2
v 0.9 2.7 -1.2
v 0.9 2.9 1.2
v 0.9 2.9 -1.2
v 1 2.9 1.3
v 1 2.9 1.2
v 1 2.9 -1.2
v 1 2.9 -1.3
v 1 3 1.3
v 1 3 1.2
v 1 3 -1.2
v 1 3 -1.3
v 1.3 2.6 1.2
v 1.3 2.6 -1.2
v 1.3 2.7 1.2
v 1.3 2.7 -1.2
v 1.4 2.7 1.3
v 1.4 2.7 1.2
v 1.4 2.7 -1.2
v 1.4 2.7 -1.3
v 1.4 2.9 1.3
v 1.4 2.9 1.2
v 1.4 2.9 -1.2
v 1.4 2.9 -1.3
v 1.8 0 1.2
v 1.8 0 -1.2
v 1.8 2.6 1.2
v 1.8 2.6 -1.2
v 1.9 2.6 1.3
v 1.9 2.6 1.2
v 1.9 2.6 -1.2
v 1.9 2.6 -1.3
v 1.9 2.7 1.3
v 1.9 2.7 1.2
v 1.9 2.7 -1.2
v 1.9 2.7 -1.3
v 2 2.4 1.3
v 2 2.4 1.2
v 2 2.4 -1.2
v 2 2.4 -1.3
v 2 2.6 1.3
v 2 2.6 1.2
v 2 2.6 -1.2
v 2 2.6 -1.3
v 2.1 0 1.3
v 2.1 0 1.2
v 2.1 0 -1.2
v 2.1 0 -1.3
v 2.1 2.4 1.3
v 2.1 2.4 1.2
v 2.1 2.4 -1.2
v 2.1 2.4 -1.3
v -3 6.2 3.2
v -3 6.2 -3.2
v -3 6.4 3.2
v -3 6.4 -3.2
v -2.9 4 3.2
v -2.9 4 -3.2
v -2.9 6.2 3.2
v -2.9 6.2 -3.2
v -2.3 4 3.2
v -2.3 4 -3.2
v -2.3 4.2 3.2
v -2.3 4.2 -3.2
v 3 0 1.3
v 3 0 1.2
v 3 0 -1.2
v 3 0 -1.3
v 3 3.5 1.3
v 3 3.5 1.2
v 3 3.5 -1.2
v 3 3.5 -1.3
v 3.2 0 1.2
v 3.2 0 -1.2
v 3.2 3.5 3.2
v 3.2 3.5 1.2
v 3.2 3.5 -1.2
v 3.2 3.5 -3.2
v 3.2 3.7 3.2
v 3.2 3.7 -3.2
v 3.2 3.8 3.2
v 3.2 3.8 -3.2
v 3.2 4 3.2
v 3.2 4 -3.2
v -3.2 3.5 3.2
v -3.2 6.4 3.2
v -3 6.2 3.2
v -3 6.4 3.2
v -2.9 3.7 3.2
v -2.9 4 3.2
v -2.9 6.2 3.2
v -2.5 4 3.2
v -2.5 4.2 3.2
v -2.3 4 3.2
v -2.3 4.2 3.2
v 2.7 3.8 3.2
v 2.7 4 3.2
v 2.8 3.8 3.2
v 2.8 4 3.2
v 2.9 3.8 3.2
v 2.9 4 3.2
v 3.2 3.5 3.2
v 3.2 3.7 3.2
v 3.2 3.8 3.2
v 3.2 4 3.2
v 0.5 3.2 1.3
v 0.5 3.5 1.3
v 0.7 3 1.3
v 0.7 3.2 1.3
v 1 2.9 1.3
v 1 3 1.3
v 1.4 2.7 1.3
v 1.4 2.9 1.3
v 1.9 2.6 1.3
v 1.9 2.7 1.3
v 2 2.4 1.3
v 2 2.6 1.3
v 2.1 0 1.3
v 2.1 2.4 1.3
v 3 0 1.3
v 3 3.5 1.3
v 0.3 3.4 1.2
v 0.3 3.5 1.2
v 0.4 3 1.2
v 0.4 3.4 1.2
v 0.5 3.2 1.2
v 0.5 3.5 1.2
v 0.6 2.9 1.2
v 0.6 3 1.2
v 0.7 3 1.2
v 0.7 3.2 1.2
v 0.9 2.7 1.2
v 0.9 2.9 1.2
v 1 2.9 1.2
v 1 3 1.2
v 1.3 2.6 1.2
v 1.3 2.7 1.2
v 1.4 2.7 1.2
v 1.4 2.9 1.2
v 1.8 0 1.2
v 1.8 2.6 1.2
v 1.9 2.6 1.2
v 1.9 2.7 1.2
v 2 2.4 1.2
v 2 2.6 1.2
v 2.1 0 1.2
v 2.1 2.4 1.2
v 3 0 1.2
v 3 3.5 1.2
v 3.2 0 1.2
v 3.2 3.5 1.2
v 0.3 3.4 -1.2
v 0.3 3.5 -1.2
v 0.4 3 -1.2
v 0.4 3.4 -1.2
v 0.5 3.2 -1.2
v 0.5 3.5 -1.2
v 0.6 2.9 -1.2
v 0.6 3 -1.2
v 0.7 3 -1.2
v 0.7 3.2 -1.2
v 0.9 2.7 -1.2
v 0.9 2.9 -1.2
v 1 2.9 -1.2
v 1 3 -1.2
v 1.3 2.6 -1.2
v 1.3 2.7 -1.2
v 1.4 2.7 -1.2
v 1.4 2.9 -1.2
v 1.8 0 -1.2
v 1.8 2.6 -1.2
v 1.9 2.6 -1.2
v 1.9 2.7 -1.2
v 2 2.4 -1.2
v 2 2.6 -1.2
v 2.1 0 -1.2
v 2.1 2.4 -1.2
v 3 0 -1.2
v 3 3.5 -1.2
v 3.2 0 -1.2
v 3.2 3.5 -1.2
v 0.5 3.2 -1.3
v 0.5 3.5 -1.3
v 0.7 3 -1.3
v 0.7 3.2 -1.3
v 1 2.9 -1.3
v 1 3 -1.3
v 1.4 2.7 -1.3
v 1.4 2.9 -1.3
v 1.9 2.6 -1.3
v 1.9 2.7 -1.3
v 2 2.4 -1.3
v 2 2.6 -1.3
v 2.1 0 -1.3
v 2.1 2.4 -1.3
v 3 0 -1.3
v 3 3.5 -1.3
v -3.2 3.5 -3.2
v -3.2 6.4 -3.2
v -3 6.2 -3.2
v -3 6.4 -3.2
v -2.9 3.7 -3.2
v -2.9 4 -3.2
v -2.9 6.2 -3.2
v -2.5 4 -3.2
v -2.5 4.2 -3.2
v -2.3 4 -3.2
v -2.3 4.2 -3.2
v 2.7 3.8 -3.2
v 2.7 4 -3.2
v 2.8 3.8 -3.2
v 2.8 4 -3.2
v 2.9 3.8 -3.2
v 2.9 4 -3.2
v 3.2 3.5 -3.2
v 3.2 3.7 -3.2
v 3.2 3.8 -3.2
v 3.2 4 -3.2
v 2.1 0 1.3
v 3 0 1.3
v 1.8 0 1.2
v 2.1 0 1.2
v 3 0 1.2
v 3.2 0 1.2
v 1.8 0 -1.2
v 2.1 0 -1.2
v 3 0 -1.2
v 3.2 0 -1.2
v 2.1 0 -1.3
v 3 0 -1.3
v 2 2.4 1.3
v 2.1 2.4 1.3
v 2 2.4 1.2
v 2.1 2.4 1.2
v 2 2.4 -1.2
v 2.1 2.4 -1.2
v 2 2.4 -1.3
v 2.1 2.4 -1.3
v 1.9 2.6 1.3
v 2 2.6 1.3
v 1.3 2.6 1.2
v 1.8 2.6 1.2
v 1.9 2.6 1.2
v 2 2.6 1.2
v 1.3 2.6 -1.2
v 1.8 2.6 -1.2
v 1.9 2.6 -1.2
v 2 2.6 -1.2
v 1.9 2.6 -1.3
v 2 2.6 -1.3
v 1.4 2.7 1.3
v 1.9 2.7 1.3
v 0.9 2.7 1.2
v 1.3 2.7 1.2
v 1.4 2.7 1.2
v 1.9 2.7 1.2
v 0.9 2.7 -1.2
v 1.3 2.7 -1.2
v 1.4 2.7 -1.2
v 1.9 2.7 -1.2
v 1.4 2.7 -1.3
v 1.9 2.7 -1.3
v 1 2.9 1.3
v 1.4 2.9 1.3
v 0.6 2.9 1.2
v 0.9 2.9 1.2
v 1 2.9 1.2
v 1.4 2.9 1.2
v 0.6 2.9 -1.2
v 0.9 2.9 -1.2
v 1 2.9 -1.2
v 1.4 2.9 -1.2
v 1 2.9 -1.3
v 1.4 2.9 -1.3
v 0.7 3 1.3
v 1 3 1.3
v 0.4 3 1.2
v 0.6 3 1.2
v 0.7 3 1.2
v 1 3 1.2
v 0.4 3 -1.2
v 0.6 3 -1.2
v 0.7 3 -1.2
v 1 3 -1.2
v 0.7 3 -1.3
v 1 3 -1.3
v 0.5 3.2 1.3
v 0.7 3.2 1.3
v 0.5 3.2 1.2
v 0.7 3.2 1.2
v 0.5 3.2 -1.2
v 0.7 3.2 -1.2
v 0.5 3.2 -1.3
v 0.7 3.2 -1.3
v 0.3 3.4 1.2
v 0.4 3.4 1.2
v 0.3 3.4 -1.2
v 0.4 3.4 -1.2
v -3.2 3.5 3.2
v 3.2 3.5 3.2
v 0.5 3.5 1.3
v 3 3.5 1.3
v 0.3 3.5 1.2
v 0.5 3.5 1.2
v 3 3.5 1.2
v 3.2 3.5 1.2
v 0.3 3.5 -1.2
v 0.5 3.5 -1.2
v 3 3.5 -1.2
v 3.2 3.5 -1.2
v 0.5 3.5 -1.3
v 3 3.5 -1.3
v -3.2 3.5 -3.2
v 3.2 3.5 -3.2
v -2.9 4 3.2
v -2.5 4 3.2
v -2.3 4 3.2
v 2.7 4 3.2
v 2.8 4 3.2
v 2.9 4 3.2
v 3.2 4 3.2
v 2.7 4 0.9
v 2.8 4 0.9
v 2.7 4 -0.8
v 2.8 4 -0.8
v -2.9 4 -3.2
v -2.5 4 -3.2
v -2.3 4 -3.2
v 2.7 4 -3.2
v 2.8 4 -3.2
v 2.9 4 -3.2
v 3.2 4 -3.2
v -2.5 4.2 3.2
v -2.3 4.2 3.2
v -2.5 4.2 -3.2
v -2.3 4.2 -3.2
v -3 6.2 3.2
v -2.9 6.2 3.2
v -3 6.2 -3.2
v -2.9 6.2 -3.2
v -3.2 6.4 3.2
v -3 6.4 3.2
v -3.2 6.4 -3.2
v -3 6.4 -3.2

# faces
f 3/2/1 2/2/1 1/2/1
f 4/2/1 2/2/1 3/2/1
f 7/2/1 6/2/1 5/2/1
f 8/2/1 6/2/1 7/2/1
f 11/2/1 10/2/1 9/2/1
f 12/2/1 10/2/1 11/2/1
f 15/2/1 14/2/1 13/2/1
f 16/2/1 14/2/1 15/2/1
f 21/2/1 18/2/1 17/2/1
f 22/2/1 18/2/1 21/2/1
f 23/2/1 20/2/1 19/2/1
f 24/2/1 20/2/1 23/2/1
f 27/2/1 26/2/1 25/2/1
f 28/2/1 26/2/1 27/2/1
f 33/2/1 30/2/1 29/2/1
f 34/2/1 30/2/1 33/2/1
f 35/2/1 32/2/1 31/2/1
f 36/2/1 32/2/1 35/2/1
f 39/2/1 38/2/1 37/2/1
f 40/2/1 38/2/1 39/2/1
f 45/2/1 42/2/1 41/2/1
f 46/2/1 42/2/1 45/2/1
f 47/2/1 44/2/1 43/2/1
f 48/2/1 44/2/1 47/2/1
f 51/2/1 50/2/1 49/2/1
f 52/2/1 50/2/1 51/2/1
f 57/2/1 54/2/1 53/2/1
f 58/2/1 54/2/1 57/2/1
f 59/2/1 56/2/1 55/2/1
f 60/2/1 56/2/1 59/2/1
f 63/2/1 62/2/1 61/2/1
f 64/2/1 62/2/1 63/2/1
f 69/2/1 66/2/1 65/2/1
f 70/2/1 66/2/1 69/2/1
f 71/2/1 68/2/1 67/2/1
f 72/2/1 68/2/1 71/2/1
f 77/2/1 74/2/1 73/2/1
f 78/2/1 74/2/1 77/2/1
f 79/2/1 76/2/1 75/2/1
f 80/2/1 76/2/1 79/2/1
f 85/2/1 82/2/1 81/2/1
f 86/2/1 82/2/1 85/2/1
f 87/2/1 84/2/1 83/2/1
f 88/2/1 84/2/1 87/2/1
f 89/2/2 90/2/2 91/2/2
f 91/2/2 90/2/2 92/2/2
f 93/2/2 94/2/2 95/2/2
f 95/2/2 94/2/2 96/2/2
f 97/2/2 98/2/2 99/2/2
f 99/2/2 98/2/2 100/2/2
f 101/2/2 102/2/2 105/2/2
f 105/2/2 102/2/2 106/2/2
f 103/2/2 104/2/2 107/2/2
f 107/2/2 104/2/2 108/2/2
f 109/2/2 110/2/2 112/2/2
f 112/2/2 110/2/2 113/2/2
f 111/2/2 112/2/2 115/2/2
f 113/2/2 114/2/2 115/2/2
f 112/2/2 113/2/2 115/2/2
f 115/2/2 114/2/2 116/2/2
f 115/1/2 116/1/2 117/1/2
f 117/1/2 116/1/2 118/1/2
f 117/3/2 118/3/2 119/3/2
f 119/3/2 118/3/2 120/3/2
f 123/2/3 122/2/3 121/2/3
f 124/2/3 122/2/3 123/2/3
f 125/2/3 123/2/3 121/2/3
f 126/2/3 123/2/3 125/2/3
f 127/2/3 123/2/3 126/2/3
f 128/1/3 126/1/3 125/1/3
f 130/1/3 128/1/3 125/1/3
f 130/2/3 129/2/3 128/2/3
f 131/2/3 129/2/3 130/2/3
f 132/1/3 130/1/3 125/1/3
f 133/1/3 130/1/3 132/1/3
f 134/1/3 132/1/3 125/1/3
f 134/3/3 133/3/3 132/3/3
f 135/3/3 133/3/3 134/3/3
f 136/1/3 134/1/3 125/1/3
f 136/1/3 135/1/3 134/1/3
f 137/1/3 135/1/3 136/1/3
f 138/2/3 125/2/3 121/2/3
f 139/1/3 136/1/3 125/1/3
f 139/2/3 125/2/3 138/2/3
f 140/3/3 137/3/3 136/3/3
f 140/1/3 136/1/3 139/1/3
f 141/3/3 137/3/3 140/3/3
f 145/2/3 143/2/3 142/2/3
f 147/2/3 145/2/3 144/2/3
f 149/2/3 147/2/3 146/2/3
f 151/2/3 149/2/3 148/2/3
f 153/2/3 151/2/3 150/2/3
f 155/2/3 153/2/3 152/2/3
f 156/2/3 155/2/3 154/2/3
f 157/2/3 143/2/3 145/2/3
f 157/2/3 155/2/3 156/2/3
f 157/2/3 145/2/3 147/2/3
f 157/2/3 153/2/3 155/2/3
f 157/2/3 147/2/3 149/2/3
f 157/2/3 151/2/3 153/2/3
f 157/2/3 149/2/3 151/2/3
f 161/2/3 159/2/3 158/2/3
f 162/2/3 161/2/3 160/2/3
f 163/2/3 159/2/3 161/2/3
f 163/2/3 161/2/3 162/2/3
f 165/2/3 162/2/3 160/2/3
f 166/2/3 162/2/3 165/2/3
f 166/2/3 165/2/3 164/2/3
f 167/2/3 162/2/3 166/2/3
f 169/2/3 166/2/3 164/2/3
f 170/2/3 166/2/3 169/2/3
f 170/2/3 169/2/3 168/2/3
f 171/2/3 166/2/3 170/2/3
f 173/2/3 170/2/3 168/2/3
f 174/2/3 170/2/3 173/2/3
f 174/2/3 173/2/3 172/2/3
f 175/2/3 170/2/3 174/2/3
f 177/2/3 174/2/3 172/2/3
f 178/2/3 174/2/3 177/2/3
f 178/2/3 177/2/3 176/2/3
f 179/2/3 174/2/3 178/2/3
f 180/2/3 178/2/3 176/2/3
f 181/2/3 178/2/3 180/2/3
f 182/2/3 180/2/3 176/2/3
f 183/2/3 180/2/3 182/2/3
f 186/2/3 185/2/3 184/2/3
f 187/2/3 185/2/3 186/2/3
f 188/2/4 189/2/4 191/2/4
f 190/2/4 191/2/4 192/2/4
f 191/2/4 189/2/4 193/2/4
f 192/2/4 191/2/4 193/2/4
f 190/2/4 192/2/4 195/2/4
f 195/2/4 192/2/4 196/2/4
f 194/2/4 195/2/4 196/2/4
f 196/2/4 192/2/4 197/2/4
f 194/2/4 196/2/4 199/2/4
f 199/2/4 196/2/4 200/2/4
f 198/2/4 199/2/4 200/2/4
f 200/2/4 196/2/4 201/2/4
f 198/2/4 200/2/4 203/2/4
f 203/2/4 200/2/4 204/2/4
f 202/2/4 203/2/4 204/2/4
f 204/2/4 200/2/4 205/2/4
f 202/2/4 204/2/4 207/2/4
f 207/2/4 204/2/4 208/2/4
f 206/2/4 207/2/4 208/2/4
f 208/2/4 204/2/4 209/2/4
f 206/2/4 208/2/4 210/2/4
f 210/2/4 208/2/4 211/2/4
f 206/2/4 210/2/4 212/2/4
f 212/2/4 210/2/4 213/2/4
f 214/2/4 215/2/4 216/2/4
f 216/2/4 215/2/4 217/2/4
f 218/2/4 219/2/4 221/2/4
f 220/2/4 221/2/4 223/2/4
f 222/2/4 223/2/4 225/2/4
f 224/2/4 225/2/4 227/2/4
f 226/2/4 227/2/4 229/2/4
f 228/2/4 229/2/4 231/2/4
f 230/2/4 231/2/4 232/2/4
f 221/2/4 219/2/4 233/2/4
f 232/2/4 231/2/4 233/2/4
f 223/2/4 221/2/4 233/2/4
f 231/2/4 229/2/4 233/2/4
f 225/2/4 223/2/4 233/2/4
f 229/2/4 227/2/4 233/2/4
f 227/2/4 225/2/4 233/2/4
f 234/2/4 235/2/4 236/2/4
f 236/2/4 235/2/4 237/2/4
f 234/2/4 236/2/4 238/2/4
f 238/2/4 236/2/4 239/2/4
f 239/2/4 236/2/4 240/2/4
f 238/1/4 239/1/4 241/1/4
f 238/1/4 241/1/4 243/1/4
f 241/2/4 242/2/4 243/2/4
f 243/2/4 242/2/4 244/2/4
f 238/1/4 243/1/4 245/1/4
f 245/1/4 243/1/4 246/1/4
f 238/1/4 245/1/4 247/1/4
f 245/3/4 246/3/4 247/3/4
f 247/3/4 246/3/4 248/3/4
f 238/1/4 247/1/4 249/1/4
f 247/1/4 248/1/4 249/1/4
f 249/1/4 248/1/4 250/1/4
f 234/2/4 238/2/4 251/2/4
f 238/1/4 249/1/4 252/1/4
f 251/2/4 238/2/4 252/2/4
f 249/3/4 250/3/4 253/3/4
f 252/1/4 249/1/4 253/1/4
f 253/3/4 250/3/4 254/3/4
f 258/2/5 256/2/5 255/2/5
f 259/2/5 256/2/5 258/2/5
f 261/2/5 258/2/5 257/2/5
f 261/2/5 260/2/5 259/2/5
f 261/2/5 259/2/5 258/2/5
f 262/2/5 260/2/5 261/2/5
f 263/2/5 260/2/5 262/2/5
f 264/2/5 260/2/5 263/2/5
f 265/2/5 263/2/5 262/2/5
f 266/2/5 263/2/5 265/2/5
f 269/2/5 268/2/5 267/2/5
f 270/2/5 268/2/5 269/2/5
f 273/2/5 272/2/5 271/2/5
f 274/2/5 272/2/5 273/2/5
f 279/2/5 276/2/5 275/2/5
f 280/2/5 276/2/5 279/2/5
f 281/2/5 278/2/5 277/2/5
f 282/2/5 278/2/5 281/2/5
f 285/2/5 284/2/5 283/2/5
f 286/2/5 284/2/5 285/2/5
f 291/2/5 288/2/5 287/2/5
f 292/2/5 288/2/5 291/2/5
f 293/2/5 290/2/5 289/2/5
f 294/2/5 290/2/5 293/2/5
f 297/2/5 296/2/5 295/2/5
f 298/2/5 296/2/5 297/2/5
f 303/2/5 300/2/5 299/2/5
f 304/2/5 300/2/5 303/2/5
f 305/2/5 302/2/5 301/2/5
f 306/2/5 302/2/5 305/2/5
f 309/2/5 308/2/5 307/2/5
f 310/2/5 308/2/5 309/2/5
f 315/2/5 312/2/5 311/2/5
f 316/2/5 312/2/5 315/2/5
f 317/2/5 314/2/5 313/2/5
f 318/2/5 314/2/5 317/2/5
f 321/2/5 320/2/5 319/2/5
f 322/2/5 320/2/5 321/2/5
f 325/2/5 324/2/5 323/2/5
f 326/2/5 324/2/5 325/2/5
f 329/2/5 328/2/5 327/2/5
f 330/2/5 328/2/5 329/2/5
f 333/2/5 332/2/5 331/2/5
f 334/2/5 332/2/5 333/2/5
f 337/2/5 336/2/5 335/2/5
f 338/2/5 336/2/5 337/2/5
f 339/2/5 337/2/5 335/2/5
f 340/2/5 337/2/5 339/2/5
f 341/2/5 336/2/5 338/2/5
f 342/2/5 336/2/5 341/2/5
f 343/2/5 339/2/5 335/2/5
f 347/2/5 344/2/5 343/2/5
f 348/2/5 346/2/5 345/2/5
f 349/2/5 343/2/5 335/2/5
f 349/2/5 348/2/5 347/2/5
f 349/2/5 347/2/5 343/2/5
f 350/2/5 346/2/5 348/2/5
f 350/2/5 348/2/5 349/2/5
f 353/1/6 354/1/6 358/1/6
f 354/3/6 355/3/6 358/3/6
f 355/1/6 356/1/6 359/1/6
f 358/3/6 355/3/6 359/3/6
f 353/1/6 358/1/6 360/1/6
f 358/1/6 359/1/6 360/1/6
f 359/1/6 356/1/6 361/1/6
f 360/1/6 359/1/6 361/1/6
f 351/1/6 352/1/6 362/1/6
f 362/1/6 352/1/6 363/1/6
f 353/1/6 360/1/6 364/1/6
f 360/3/6 361/3/6 365/3/6
f 364/1/6 360/1/6 365/1/6
f 361/1/6 356/1/6 366/1/6
f 365/3/6 361/3/6 366/3/6
f 356/3/6 357/3/6 367/3/6
f 366/1/6 356/1/6 367/1/6
f 367/3/6 357/3/6 368/3/6
f 369/2/6 370/2/6 371/2/6
f 371/2/6 370/2/6 372/2/6
f 373/2/6 374/2/6 375/2/6
f 375/2/6 374/2/6 376/2/6
f 377/2/6 378/2/6 379/2/6
f 379/2/6 378/2/6 380/2/6
