# Blender 4.5.2 LTS
# www.blender.org
mtllib ground.mtl
o 平面
v -1.742204 0.048667 24.951996
v 1.958840 0.076711 25.477850
v -1.501142 -0.103557 -24.728945
v 1.513928 -0.045829 -25.335680
v -2.177870 -0.200232 -24.288708
v -2.173357 0.305543 -22.935574
v -2.090122 -0.340149 -22.163740
v -1.885381 0.005669 -21.161259
v -1.721236 0.297561 -20.046419
v -1.833208 -0.041763 -19.243837
v -1.670550 -0.067503 -17.674089
v -1.781319 -0.060782 -17.185553
v -1.836090 -0.010082 -16.226822
v -1.749953 0.005174 -15.177796
v -1.929100 -0.115898 -14.458255
v -1.783002 -0.344673 -13.009108
v -1.796675 -0.226192 -11.966783
v -1.579859 0.069852 -11.222312
v -2.124141 0.107358 -10.441133
v -2.107137 0.053091 -9.103368
v -1.626386 0.069865 -8.571115
v -2.269235 -0.389505 -7.522749
v -1.886807 0.167468 -6.476958
v -1.666480 -0.181001 -5.397265
v -1.377114 0.085274 -4.041028
v -1.861383 0.069907 -3.434669
v -1.808663 0.033125 -2.491054
v -2.215888 0.273281 -1.360293
v -1.891995 0.149010 -0.504156
v -1.566374 -0.062035 0.558575
v -1.829449 0.008796 1.440935
v -2.080915 -0.049929 2.667249
v -1.578498 -0.366899 3.317204
v -1.471523 0.179636 4.090212
v -1.868715 -0.147185 5.432908
v -1.749852 0.095460 6.155561
v -1.787593 -0.059604 7.366120
v -2.177073 -0.114847 8.340762
v -1.858123 -0.141406 9.471255
v -1.827552 0.000135 10.250759
v -1.440721 0.280887 10.903201
v -1.820873 -0.000000 12.218627
v -1.613517 -0.397315 13.409826
v -1.388177 0.070580 13.912544
v -1.407598 0.233381 15.376226
v -1.605954 0.224526 16.177402
v -2.167713 -0.016862 16.953943
v -2.078029 0.281879 18.217772
v -1.822363 0.126666 19.068943
v -1.386522 0.159809 20.086199
v -1.587852 0.114519 21.326899
v -1.905667 0.365408 21.900339
v -1.561158 -0.310692 23.248755
v -1.416568 -0.055000 24.015989
v 1.837656 -0.035623 23.482464
v 1.789639 0.330504 23.344784
v 1.845347 -0.003496 22.089094
v 1.504622 0.039038 20.938457
v 1.805110 -0.006753 20.046373
v 1.721563 -0.273580 19.242025
v 1.814091 -0.176990 18.378077
v 2.232393 0.397958 16.944916
v 2.189872 -0.072114 16.129745
v 2.047895 -0.364635 15.128551
v 2.287288 0.111520 14.347887
v 1.532719 -0.053699 13.000362
v 1.857793 -0.043227 12.111041
v 2.043960 -0.089212 10.946230
v 1.928929 0.158960 10.060172
v 2.138710 -0.019081 8.952645
v 2.093702 -0.185965 8.072305
v 1.835927 -0.394007 7.612079
v 2.057055 0.024615 6.227556
v 1.888198 0.053855 5.550733
v 1.614884 0.155751 4.427094
v 1.787091 -0.009286 2.974361
v 1.480773 -0.005922 2.392579
v 1.617513 0.405708 1.225701
v 1.539841 0.065040 0.640357
v 1.884523 0.103885 -0.757084
v 1.936332 -0.169000 -1.121845
v 1.860121 0.040801 -2.481714
v 2.421097 0.130734 -3.693287
v 1.893358 0.016836 -4.482980
v 1.575881 -0.168899 -5.261331
v 1.252507 0.076391 -6.178656
v 1.843947 -0.200740 -7.568126
v 2.277021 0.065140 -7.949570
v 1.902324 0.075264 -9.225981
v 2.079581 0.051842 -10.514691
v 1.742321 0.035924 -11.271319
v 1.976372 -0.069353 -12.781063
v 1.849045 0.038937 -13.372890
v 1.673082 -0.083482 -14.264731
v 1.841674 -0.016470 -15.390532
v 1.825439 0.050964 -16.058416
v 1.854243 -0.059303 -16.810526
v 1.656617 -0.057230 -18.010225
v 1.700803 0.242927 -19.009111
v 1.885389 -0.520054 -20.233772
v 1.656942 0.195128 -20.843849
v 2.190544 0.224403 -21.872452
v 1.706609 0.033918 -23.013988
v 2.200987 -0.095636 -24.210083
v -1.472288 -0.039980 24.985806
v -0.760617 -0.120638 24.740118
v -0.393337 0.300352 25.201559
v 0.240557 0.016620 25.007938
v 0.741756 -0.099245 24.994806
v 1.079376 -0.213213 25.153471
v 1.699742 -0.141722 -24.909492
v 1.246775 0.118751 -25.175772
v 0.183269 0.038297 -25.007879
v -0.462216 -0.313463 -24.798830
v -0.729768 0.093681 -24.797859
v -1.222319 -0.186041 -24.650278
v 1.376651 -0.034114 23.942917
v 0.696135 -0.073885 24.042080
v -0.121387 0.034103 24.118048
v -0.227999 -0.061166 24.001160
v -0.825955 0.011494 23.897224
v -1.388779 -0.112366 24.114340
v 1.308439 -0.020731 23.004314
v 0.747824 0.015311 22.977922
v 0.553756 0.445020 22.991388
v -0.144476 0.175319 23.001141
v -0.709070 0.194955 22.985806
v -1.462936 0.134615 22.942865
v 1.688698 0.056624 21.775290
v 0.739146 -0.053562 22.096245
v 0.815536 0.015282 22.342934
v -0.531768 -0.013646 21.869722
v -0.578688 -0.332881 21.796669
v -1.722935 -0.191129 22.081543
v 1.276456 -0.026544 21.020578
v 0.837632 0.013256 21.030521
v 0.347591 0.021901 20.920780
v -0.202460 -0.127695 20.971090
v -0.824719 -0.035481 21.028156
v -1.772224 -0.018613 21.182369
v 1.251996 -0.237155 19.906525
v 0.948532 -0.056680 19.974392
v 0.303545 -0.033630 20.026356
v -0.219980 0.066213 20.119637
v -1.413105 0.037678 19.959915
v -1.250825 0.006736 20.451797
v 0.979391 -0.040719 19.565495
v 0.790285 0.359160 19.433273
v 0.345162 -0.337209 19.293922
v -0.430840 -0.018299 18.913589
v -0.289078 0.085935 18.920229
v -1.351402 0.008394 19.131605
v 1.328354 0.001628 18.123993
v 0.791853 -0.089347 18.099749
v 0.375381 -0.077448 18.114302
v -0.700034 0.196057 18.316168
v -0.740408 0.212546 17.771040
v -1.239208 -0.031693 18.201694
v 1.382960 0.020829 17.050556
v 0.762468 -0.247751 17.115498
v 0.550857 0.098857 17.064243
v -0.313746 0.001766 16.886759
v -1.240521 -0.154343 16.715841
v -1.576822 -0.453478 17.309425
v 1.822577 -0.130132 16.210798
v 0.809930 -0.014632 16.233826
v 0.264162 0.004523 16.066456
v -0.116310 0.194864 15.866117
v -0.849986 0.242939 16.006451
v -1.409637 -0.163430 16.044281
v 1.681675 0.400804 15.177964
v 0.830849 -0.042781 15.169954
v 0.233793 0.335906 14.859448
v -0.311453 0.005572 15.094012
v -1.037971 -0.057119 15.118645
v -1.561710 0.358551 15.147263
v 1.263494 0.246236 14.067459
v 0.606565 0.164399 14.040833
v 0.004800 -0.125929 14.506949
v -0.070218 0.162185 14.608870
v -1.377167 -0.188241 14.102204
v -0.936574 -0.048312 14.278718
v 1.281778 -0.007546 13.145201
v 0.329311 -0.116525 13.275541
v 0.323113 0.030760 13.216704
v -0.217442 0.070793 13.186439
v -0.604900 -0.137396 13.081724
v -1.327985 -0.003867 13.184999
v 1.459910 -0.188359 12.527403
v 0.716657 0.016685 12.215375
v 0.092278 -0.196327 12.364923
v -0.215129 -0.035074 12.244525
v -0.661472 -0.540276 12.329779
v -1.356460 -0.050474 12.231541
v 1.244073 0.054271 11.245533
v 0.522028 -0.092145 11.132619
v 0.166010 0.339428 11.658497
v -0.038748 0.415711 11.069697
v -1.012666 -0.057376 11.053862
v -1.390032 -0.105581 11.300127
v 0.877168 -0.007851 10.290021
v 0.348019 -0.197402 10.071295
v 0.311785 -0.032653 10.280693
v -0.198305 0.207408 10.503683
v -0.354693 -0.126592 10.401226
v -1.239180 0.052643 10.341634
v 1.185488 -0.067852 9.114569
v 1.146571 0.032938 9.240799
v 0.257982 -0.000166 9.011144
v -0.495564 -0.149466 9.429609
v -0.887264 0.140319 9.310699
v -1.177309 -0.004991 9.138731
v 1.440982 -0.269390 8.512091
v 0.973451 -0.055215 8.048965
v 0.164803 -0.014775 8.690553
v -0.693390 0.328564 8.228508
v -0.605728 -0.433133 8.041053
v -0.968692 0.206800 8.463648
v 1.180375 0.174190 7.171967
v 0.399174 -0.215559 7.285893
v 0.158267 -0.020321 7.235851
v -0.198001 -0.108929 7.790981
v -0.467214 -0.080600 7.484252
v -0.966639 -0.209853 7.646328
v 1.607324 0.290026 5.928535
v 0.734747 0.003984 6.233389
v -0.276654 0.243914 6.574575
v -0.182920 -0.039956 6.102128
v -0.356377 0.416421 6.315522
v -1.269976 -0.018965 6.359758
v 0.733677 0.158444 5.094373
v 1.342080 -0.183740 5.363431
v 0.283568 -0.019474 5.382583
v -0.276333 0.010175 5.337867
v -0.817027 -0.118389 5.298674
v -1.786839 0.275065 5.626321
v 0.925612 0.079524 4.519297
v 0.601846 0.043677 4.257953
v 0.150019 -0.401484 4.290530
v 0.127635 0.068878 4.495187
v -0.601469 0.288237 4.679652
v -1.135978 -0.134053 4.662169
v 1.283564 -0.015202 3.398154
v 0.660237 -0.012339 3.390290
v 0.124001 -0.019631 3.120782
v -0.349267 0.047295 3.351571
v -0.706777 0.227381 3.614920
v -1.344475 0.060650 3.405653
v 1.351469 0.080931 2.171623
v 0.803710 -0.007685 2.395762
v -0.001362 0.082471 2.451097
v -0.232919 0.024383 2.389360
v -0.704170 0.140035 2.321361
v -1.222502 0.064253 2.397728
v 0.717682 0.069170 1.716476
v 0.919177 -0.128713 1.461553
v 0.216439 -0.041994 1.435738
v -0.435942 -0.125169 1.313422
v -0.834138 0.102870 1.438776
v -1.095589 -0.133531 1.767838
v 1.608527 0.169428 0.388707
v 0.263670 0.299523 0.323705
v 0.656569 -0.393837 0.317558
v 0.173863 -0.246902 0.715240
v -0.841073 -0.207787 0.473023
v -1.502332 -0.301679 0.404976
v 1.635169 -0.061535 -0.882418
v 0.775873 0.097545 -0.469104
v 0.349459 -0.059722 -0.641912
v -0.055590 0.377356 -0.893285
v -0.562477 -0.135938 -0.845656
v -1.523229 0.159481 -0.150098
v 1.244339 -0.076463 -1.405073
v 0.901285 -0.047587 -1.374568
v 0.637419 0.251659 -1.802410
v -0.216014 0.121736 -1.523902
v -1.125008 0.013404 -1.708093
v -1.432073 0.038629 -1.503458
v 1.290170 -0.027914 -2.938704
v 0.721989 0.018286 -2.450125
v 0.256796 -0.231060 -2.692965
v -0.261546 -0.004049 -2.510317
v -0.664229 -0.332510 -2.509263
v -1.308441 0.137871 -2.422250
v 1.611516 -0.140913 -3.434029
v 1.110419 0.253573 -3.559243
v 0.049656 -0.103732 -3.705499
v -0.201496 -0.042737 -3.464479
v -1.040469 0.106362 -3.064430
v -1.304319 0.007768 -3.475132
v 1.303703 -0.003013 -4.432886
v 1.288082 0.104931 -4.556072
v 0.211231 -0.091093 -4.488888
v -0.231564 0.332987 -4.448589
v -0.849800 0.058562 -4.488824
v -1.279567 -0.024617 -4.440863
v 1.283322 -0.042940 -5.829782
v 0.770687 -0.034911 -5.331419
v 0.243726 0.138046 -5.577118
v -0.295264 -0.272125 -5.213371
v -0.825428 -0.092043 -5.431816
v -1.372335 0.029913 -5.506486
v 1.628326 0.015838 -6.366488
v 1.018094 -0.209664 -5.998424
v 0.199434 -0.128095 -6.295341
v -0.266054 -0.353868 -6.199898
v -0.861974 0.213209 -6.407825
v -1.582291 0.001178 -6.446565
v 1.253037 0.318459 -7.093777
v 0.233494 0.018936 -7.493065
v 0.038230 0.117667 -7.445328
v 0.178339 -0.295528 -7.247281
v -0.649455 -0.072708 -7.619319
v -1.383362 -0.044497 -7.365774
v 1.104076 0.148990 -8.549552
v 0.700614 0.218917 -7.975693
v -0.130431 -0.320480 -8.629121
v -0.238405 -0.044645 -8.409468
v -0.550539 -0.326964 -8.002376
v -0.916403 -0.344871 -8.144361
v 1.325064 -0.113844 -9.386093
v 0.873809 0.041824 -9.285657
v 0.254853 -0.029079 -9.319152
v -0.097554 0.161954 -8.927904
v -0.805847 0.010015 -9.359243
v -1.283157 0.236362 -8.950981
v 1.191176 -0.061343 -10.419422
v 0.875343 0.129006 -9.983663
v 0.432475 0.084501 -10.425172
v -0.378652 -0.026211 -10.303440
v -1.123205 0.109421 -10.431474
v -0.926999 -0.089582 -10.279009
v 1.574215 0.248073 -11.352768
v 0.788639 0.011045 -11.336311
v 0.122847 -0.059700 -11.159060
v 0.237103 -0.281924 -11.283719
v -0.934882 -0.421957 -11.435615
v -1.894832 -0.034088 -11.021576
v 1.305305 0.009538 -12.299709
v 0.806684 -0.020095 -12.297544
v 0.242806 0.048901 -12.191728
v -0.249661 -0.167305 -12.402006
v -1.086955 -0.390443 -12.101682
v -1.465775 -0.073888 -12.444316
v 1.281585 -0.056640 -13.292985
v 0.513089 0.372892 -13.227442
v 0.349506 -0.286030 -13.344085
v -0.199855 -0.196602 -13.415739
v -0.556982 -0.085961 -13.113210
v -1.564239 0.036155 -13.166080
v 1.447266 -0.058540 -14.426085
v 0.783543 0.013638 -14.260792
v 0.192911 0.023309 -14.225687
v -0.544351 -0.151369 -14.567335
v -0.890995 -0.052142 -14.495490
v -1.171754 0.170716 -14.332884
v 1.307065 -0.418432 -15.491435
v 0.675536 0.025428 -15.187279
v 0.146209 -0.010373 -15.163785
v -0.515702 -0.469223 -15.376481
v -0.821024 -0.020417 -14.957754
v -0.793818 0.209557 -15.436290
v 1.638663 0.006984 -16.319696
v 0.700690 -0.339760 -16.472595
v -0.037601 0.379478 -16.475185
v -0.245692 0.005940 -16.223831
v -0.669866 0.294269 -16.094841
v -1.198192 0.034352 -15.982354
v 0.924494 -0.151424 -17.136683
v 0.827738 -0.373753 -16.963535
v 0.189509 0.089862 -17.291689
v -0.293904 -0.029026 -17.223022
v -0.788436 0.243765 -17.430733
v -1.432984 -0.047812 -17.145630
v 1.271720 0.230441 -18.662458
v 0.764500 0.046710 -18.179007
v 0.111815 -0.015448 -18.338280
v -0.579321 -0.252586 -17.907406
v -0.868872 -0.005519 -18.240393
v -1.376117 0.023297 -17.999857
v 1.656772 -0.325932 -19.175819
v 0.750255 0.207605 -19.494480
v 0.272687 -0.026857 -19.086908
v -0.325779 0.103057 -19.101089
v -1.031341 -0.100206 -19.395021
v -1.434516 -0.342546 -19.346609
v 1.298530 -0.074170 -20.184708
v 0.856425 -0.114120 -19.930397
v 0.190529 -0.200753 -20.128321
v -0.296556 0.025199 -20.123030
v -0.791524 0.131994 -20.145685
v -0.966543 0.043852 -19.796604
v 1.281632 0.021958 -21.103207
v 0.755572 -0.002062 -21.126793
v 0.210209 0.094061 -21.214085
v 0.117972 0.098125 -20.940533
v -0.379184 0.012856 -20.959589
v -1.794379 0.039351 -21.083567
v 1.457470 -0.066287 -22.332325
v 0.616564 -0.222273 -22.195583
v 0.349419 0.046311 -22.327763
v -0.507389 0.032824 -22.217022
v -1.025135 -0.282299 -21.731867
v -0.763947 0.079047 -22.019129
v 1.096763 0.184065 -22.942579
v 0.546853 -0.268446 -22.868998
v -0.111425 -0.169351 -22.653208
v 0.051932 -0.136611 -23.166960
v -1.345176 -0.204500 -22.934793
v -1.445362 -0.169915 -23.142746
v 1.228792 0.095793 -23.801399
v 0.939455 -0.136413 -23.956930
v 0.588100 -0.358732 -23.798599
v -0.190304 -0.016685 -24.064566
v -0.459540 0.191826 -23.679638
v -1.108898 0.072123 -24.061567
vn 0.1274 0.9795 -0.1558
vn -0.3317 0.9416 0.0578
vn 0.0163 0.9998 0.0131
vn 0.1562 0.9816 0.1101
vn -0.2635 0.9639 0.0377
vn -0.3278 0.9296 -0.1685
vn 0.3771 0.9003 0.2171
vn 0.3409 0.9337 0.1099
vn 0.3294 0.9436 0.0336
vn -0.4152 0.8324 -0.3670
vn 0.9003 0.4246 0.0954
vn 0.1821 0.9622 -0.2025
vn 0.0245 0.9640 -0.2648
vn 0.0173 0.9609 -0.2763
vn -0.1373 0.9688 0.2065
vn 0.1334 0.9843 -0.1152
vn -0.1764 0.9796 -0.0963
vn -0.1080 0.9281 -0.3563
vn 0.5889 0.7944 0.1484
vn 0.3857 0.8970 0.2160
vn 0.2331 0.8930 -0.3850
vn -0.1316 0.9752 -0.1778
vn -0.1253 0.9844 -0.1232
vn 0.0566 0.9951 0.0811
vn 0.3917 -0.7549 -0.5260
vn -0.4514 0.8600 -0.2379
vn -0.4858 0.8581 -0.1661
vn 0.2018 0.9630 -0.1784
vn -0.1411 0.9896 0.0271
vn 0.0402 0.9795 -0.1974
vn -0.0211 0.9895 0.1431
vn 0.4472 0.8939 -0.0321
vn -0.2904 -0.9130 -0.2866
vn -0.2729 -0.9300 -0.2462
vn 0.5804 0.7999 -0.1525
vn -0.2054 0.9169 -0.3423
vn -0.1192 0.9907 0.0658
vn -0.0918 0.9558 0.2792
vn 0.7949 0.4953 -0.3505
vn 0.0683 0.9953 -0.0679
vn 0.1006 0.9948 0.0130
vn -0.5653 0.8012 -0.1962
vn -0.5085 0.8315 0.2235
vn -0.0442 0.9873 -0.1528
vn 0.2179 0.9339 0.2833
vn -0.6105 0.2659 -0.7461
vn 0.6041 0.7968 -0.0157
vn -0.4732 0.8752 0.1003
vn -0.3051 0.9458 -0.1115
vn 0.2581 0.9378 0.2322
vn 0.2315 0.9707 -0.0642
vn 0.4553 0.8335 -0.3131
vn -0.2657 0.9518 0.1534
vn 0.0427 0.8601 0.5084
vn 0.3979 0.9173 0.0152
vn 0.1191 0.9887 -0.0907
vn -0.6403 0.7554 -0.1394
vn 0.5701 0.6594 0.4901
vn 0.8483 -0.2726 -0.4540
vn -0.3963 0.9034 0.1639
vn 0.6451 0.7217 0.2511
vn -0.0391 0.8575 -0.5129
vn -0.6343 0.7729 0.0127
vn -0.0867 0.9471 -0.3090
vn 0.6662 0.1053 0.7383
vn -0.4756 0.8775 0.0624
vn -0.0438 0.9986 -0.0296
vn 0.6940 0.7178 0.0560
vn -0.0359 0.9797 -0.1972
vn -0.1610 0.9603 -0.2277
vn 0.0202 0.9997 -0.0165
vn 0.2123 0.9766 -0.0354
vn 0.4061 0.8688 0.2834
vn 0.1267 0.9567 0.2621
vn -0.0346 0.9948 0.0961
vn 0.6177 0.6897 0.3778
vn -0.4818 0.8467 0.2260
vn 0.1830 0.9212 0.3434
vn 0.2132 0.9746 -0.0682
vn -0.5077 0.8554 -0.1028
vn -0.4093 0.6836 -0.6042
vn -0.2518 0.9669 0.0419
vn -0.0680 0.9635 -0.2588
vn -0.2602 0.9646 -0.0425
vn -0.1729 0.9534 0.2473
vn -0.0866 0.9957 -0.0338
vn -0.2345 0.9646 0.1205
vn -0.0347 0.9992 -0.0216
vn -0.3931 0.9181 0.0503
vn 0.7799 0.5722 -0.2536
vn -0.2607 0.9445 -0.1998
vn -0.0715 0.9929 -0.0946
vn -0.8163 0.5315 0.2263
vn -0.0309 0.9980 -0.0545
vn -0.4371 0.8991 0.0247
vn 0.5063 0.8589 -0.0774
vn -0.8663 0.4990 0.0243
vn 0.6967 0.7149 -0.0598
vn -0.9431 0.2091 -0.2585
vn -0.0660 0.9978 -0.0091
vn -0.4354 0.8996 0.0338
vn 0.8906 0.3938 0.2274
vn -0.6036 0.7619 0.2349
vn 0.6930 0.7118 0.1145
vn 0.4827 0.8449 -0.2306
vn -0.3627 0.9295 0.0661
vn 0.8046 0.5161 0.2938
vn 0.2945 0.9493 0.1097
vn -0.4601 0.8207 -0.3387
vn -0.0689 0.9971 -0.0324
vn 0.1081 0.9941 -0.0000
vn -0.8231 0.5423 0.1686
vn 0.1112 0.9823 0.1507
vn 0.2644 0.9636 -0.0403
vn -0.2819 0.9517 0.1217
vn 0.0348 0.9449 0.3254
vn 0.4685 0.8653 -0.1782
vn -0.5341 0.8392 -0.1024
vn 0.1123 0.9845 0.1348
vn -0.1881 0.9633 0.1914
vn 0.1632 0.9864 -0.0205
vn -0.9500 0.2651 -0.1650
vn 0.4909 0.8472 0.2031
vn 0.4305 -0.8748 0.2225
vn 0.4088 0.9073 0.0979
vn -0.2237 0.9698 0.0970
vn -0.4872 0.8215 0.2963
vn -0.0801 0.9922 0.0950
vn -0.0594 0.9977 -0.0334
vn 0.5018 -0.7737 0.3868
vn -0.6084 0.0081 0.7936
vn 0.2321 0.8771 -0.4206
vn -0.1782 0.9190 -0.3517
vn -0.1399 0.9811 -0.1338
vn 0.4029 0.9092 -0.1051
vn 0.1572 0.9868 0.0380
vn 0.3210 0.9361 -0.1437
vn 0.1724 0.9842 0.0402
vn 0.2976 0.9358 -0.1888
vn -0.1718 0.9824 0.0733
vn 0.3470 0.9305 0.1170
vn -0.2469 0.9496 0.1931
vn 0.5938 0.7562 0.2749
vn -0.4042 0.8670 0.2914
vn 0.9436 0.1254 0.3063
vn -0.1250 0.9371 0.3259
vn -0.0231 0.9903 -0.1369
vn -0.3830 0.9091 0.1635
vn -0.1081 0.9040 -0.4136
vn -0.8460 0.3170 -0.4288
vn -0.9382 -0.1750 0.2986
vn -0.3592 0.8907 -0.2785
vn -0.3127 0.9456 0.0892
vn -0.2796 0.8861 -0.3697
vn -0.2755 0.9553 -0.1071
vn 0.3241 0.9319 -0.1631
vn -0.4556 0.8784 -0.1444
vn 0.4713 0.8737 0.1207
vn -0.3835 0.8614 0.3331
vn 0.4563 0.8698 0.1876
vn -0.2839 0.9582 0.0341
vn 0.6349 0.7438 0.2089
vn -0.6381 0.7655 -0.0823
vn 0.2180 0.9107 -0.3509
vn -0.3278 0.8770 -0.3514
vn 0.1649 0.9606 -0.2238
vn 0.2135 0.9764 0.0314
vn 0.3688 0.9193 -0.1373
vn 0.5538 0.6299 -0.5445
vn 0.2165 0.9540 0.2073
vn 0.7925 -0.4054 -0.4557
vn 0.1186 0.9857 0.1197
vn -0.1940 0.9803 -0.0378
vn 0.1702 0.9854 -0.0103
vn 0.4861 0.8213 0.2987
vn -0.3127 0.9486 -0.0492
vn 0.9507 0.2828 0.1273
vn 0.1131 0.9931 0.0324
vn -0.1761 0.9769 -0.1214
vn -0.4368 0.5378 0.7211
vn 0.3975 0.9175 -0.0122
vn -0.3365 0.9233 0.1850
vn 0.3361 0.8905 0.3066
vn 0.2671 0.9577 -0.1072
vn 0.1656 0.9779 0.1279
vn -0.0259 0.9123 -0.4088
vn -0.1863 0.9756 -0.1158
vn -0.2892 0.8879 -0.3577
vn 0.0879 0.9951 0.0463
vn 0.2915 0.9562 0.0285
vn 0.2468 0.9666 -0.0697
vn -0.1683 0.9469 0.2738
vn 0.7758 0.4910 -0.3964
vn 0.4210 0.8445 0.3311
vn 0.1138 0.9833 -0.1418
vn -0.2854 0.9196 0.2701
vn -0.1723 0.7545 0.6333
vn -0.7122 0.6929 -0.1127
vn 0.6651 0.7232 0.1858
vn -0.4589 0.7832 0.4196
vn 0.1034 0.9778 -0.1823
vn 0.9572 0.0768 0.2792
vn -0.6080 0.7895 0.0841
vn 0.4083 0.8681 -0.2822
vn -0.0720 0.9605 -0.2689
vn -0.8557 -0.4833 -0.1848
vn 0.0765 0.9469 0.3123
vn -0.1251 0.9919 0.0219
vn -0.1838 0.9266 -0.3280
vn 0.4688 0.8769 -0.1060
vn -0.1038 0.9876 -0.1177
vn 0.1040 0.9896 -0.0990
vn -0.6962 -0.7178 0.0070
vn -0.7043 0.2479 0.6653
vn -0.1467 0.9891 -0.0142
vn 0.4131 0.9087 -0.0605
vn 0.1366 0.9906 -0.0071
vn 0.1190 0.9846 0.1278
vn 0.0045 1.0000 0.0053
vn -0.8293 0.5039 -0.2415
vn -0.3076 0.9313 0.1953
vn 0.2682 0.9599 -0.0814
vn 0.9013 0.2081 -0.3798
vn -0.1682 0.9360 0.3093
vn 0.0054 0.9979 -0.0641
vn 0.3105 0.8984 0.3105
vn 0.3164 0.9311 -0.1815
vn -0.2360 0.8479 0.4748
vn 0.0454 0.9948 0.0911
vn -0.6987 0.6976 -0.1586
vn -0.5455 -0.8144 0.1977
vn -0.9837 0.1378 0.1155
vn 0.3991 0.9130 0.0848
vn 0.6501 0.5103 -0.5629
vn 0.0480 0.9971 0.0595
vn 0.1883 0.9739 -0.1267
vn -0.4177 0.7832 -0.4606
vn 0.1771 0.9755 0.1305
vn -0.1886 0.9640 0.1875
vn 0.9431 0.2641 0.2018
vn -0.1843 0.9821 0.0385
vn 0.6399 0.7595 -0.1174
vn -0.4405 0.8965 0.0466
vn -0.2526 0.9665 -0.0461
vn 0.7229 0.6163 -0.3124
vn -0.3927 0.8180 0.4202
vn 0.4833 0.8289 -0.2817
vn 0.0468 0.9989 -0.0040
vn -0.4268 0.8945 0.1333
vn -0.1634 0.9841 0.0692
vn -0.4988 0.8590 0.1154
vn -0.9801 -0.0667 -0.1872
vn 0.1881 0.9228 0.3363
vn -0.0275 0.9989 -0.0375
vn 0.5223 0.8415 -0.1381
vn -0.0605 0.9825 -0.1760
vn -0.4160 0.9071 -0.0649
vn 0.6121 0.7834 -0.1072
vn 0.2591 0.8928 -0.3684
vn 0.9660 0.2562 -0.0344
vn -0.3202 0.9463 -0.0454
vn -0.0232 0.9232 -0.3835
vn -0.0220 0.9870 0.1595
vn -0.3800 0.7980 -0.4678
vn 0.2442 0.8857 -0.3948
vn 0.6890 0.7147 -0.1201
vn -0.3219 0.9459 -0.0410
vn 0.8261 0.4529 0.3354
vn -0.1602 0.9857 -0.0525
vn -0.6440 0.6398 0.4194
vn -0.4385 0.8591 0.2638
vn -0.1303 0.7965 0.5905
vn -0.1886 0.9799 -0.0646
vn -0.6589 0.6717 0.3387
vn 0.1740 0.9833 -0.0533
vn -0.7435 0.6111 -0.2715
vn 0.4916 0.8655 -0.0961
vn 0.9674 -0.0579 -0.2467
vn -0.1014 0.9910 0.0875
vn -0.8354 0.5355 -0.1239
vn 0.3581 -0.9189 -0.1655
vn -0.4015 0.8781 -0.2601
vn 0.9502 0.2888 -0.1169
vn -0.4328 0.9015 0.0027
vn -0.1482 0.9445 -0.2930
vn 0.3284 0.9392 -0.1001
vn 0.6223 0.7783 0.0833
vn -0.2428 0.9691 -0.0440
vn -0.5106 0.8595 0.0236
vn -0.6387 0.6413 -0.4252
vn -0.1292 0.9705 0.2037
vn 0.8982 0.3768 0.2265
vn 0.5988 0.7322 0.3245
vn -0.0921 0.9491 -0.3013
vn -0.5387 0.8396 -0.0697
vn 0.4340 0.8715 0.2283
vn -0.4618 0.8864 -0.0325
vn 0.7698 0.1793 0.6126
vn -0.5304 0.8389 0.1222
vn -0.2215 0.8977 0.3808
vn 0.3320 0.9130 0.2370
vn 0.0697 0.9911 -0.1137
vn -0.3682 0.9036 0.2191
vn 0.6611 0.7183 -0.2167
vn -0.5516 0.8152 -0.1766
vn -0.1090 0.9538 -0.2800
vn 0.2338 0.9699 -0.0687
vn 0.0341 0.9847 0.1710
vn -0.1585 0.9755 -0.1523
vn 0.3505 0.9343 0.0651
vn -0.0832 0.9951 -0.0529
vn -0.2433 -0.9699 -0.0113
vn 0.2779 0.9371 0.2110
vn 0.0354 0.9758 0.2158
vn -0.1448 0.9378 -0.3156
vn 0.2588 0.9554 -0.1420
vn -0.2361 -0.9716 0.0168
vn -0.0263 0.9995 0.0180
vn 0.4337 0.8904 -0.1382
vn -0.7841 0.5563 -0.2751
vn 0.8897 0.4487 0.0847
vn 0.5780 0.8067 0.1232
vn 0.0265 0.9982 0.0535
vn -0.0356 0.9955 0.0878
vn -0.2372 0.9461 0.2204
vn 0.0305 0.9975 -0.0634
vn 0.0889 0.9944 -0.0565
vn 0.2225 -0.8419 0.4917
vn 0.1643 0.9704 0.1772
vn -0.9430 0.0639 0.3266
vn -0.2747 0.9362 -0.2195
vn 0.9480 0.0647 -0.3116
vn -0.0973 0.9938 0.0533
vn -0.7722 0.4666 0.4312
vn -0.0559 0.9393 -0.3384
vn -0.9647 0.1848 -0.1878
vn 0.0416 0.9831 -0.1784
vn 0.9082 0.4071 0.0968
vn 0.0676 0.9946 -0.0784
vn 0.9712 0.0997 -0.2163
vn -0.1311 0.9683 0.2125
vn 0.0286 0.9792 0.2008
vn -0.7224 0.6840 0.1014
vn 0.1571 0.8938 0.4201
vn -0.0464 0.9956 0.0812
vn 0.7281 0.6614 0.1801
vn 0.0870 0.9934 -0.0742
vn 0.0941 0.9846 0.1471
vn 0.3388 0.9127 -0.2282
vn 0.1279 0.9913 -0.0326
vn 0.3155 0.9489 0.0101
vn -0.2198 0.9674 -0.1255
vn -0.5338 0.8074 -0.2512
vn 0.4273 0.8858 -0.1810
vn -0.5106 0.8461 -0.1529
vn -0.3563 0.8458 0.3970
vn 0.3520 0.8944 0.2760
vn -0.6513 0.6284 0.4254
vn -0.0498 0.9973 -0.0531
vn -0.6554 0.1890 0.7313
vn -0.4505 0.8576 -0.2481
vn 0.5991 0.7868 -0.1483
vn -0.3439 0.9247 -0.1633
vn -0.3113 0.9112 -0.2699
vn 0.2784 0.9508 0.1361
vn -0.3662 0.8956 0.2524
vn -0.2387 0.8466 -0.4757
vn -0.2043 0.9470 -0.2477
vn 0.8094 0.3572 0.4661
vn 0.1867 0.9570 -0.2219
vn -0.4886 0.8561 -0.1685
vn 0.1724 0.9850 -0.0113
vn -0.0905 0.9559 0.2795
vn -0.0796 0.9817 -0.1729
vn -0.2364 0.9568 -0.1693
vn -0.2896 0.9226 -0.2548
vn 0.4866 0.8117 0.3231
vn 0.5554 0.8252 -0.1029
vn 0.0603 0.9953 0.0756
vn -0.1175 0.9851 -0.1258
vn 0.8773 0.1329 -0.4611
vn -0.1812 0.9339 0.3082
vn 0.9220 -0.3752 0.0960
vn 0.9692 -0.0658 0.2372
vn -0.2063 0.7692 -0.6048
vn 0.0713 0.9864 0.1482
vn -0.3424 0.9353 -0.0891
vn -0.2994 0.9521 0.0627
vn -0.0509 0.9759 -0.2121
vn -0.2564 0.9074 0.3330
vn 0.7258 0.6649 0.1763
vn -0.1597 0.8857 0.4360
vn 0.0791 0.9968 -0.0153
vn -0.2962 0.9534 -0.0581
vn 0.7930 0.4887 -0.3638
vn 0.0756 0.9955 -0.0577
vn -0.1342 0.9693 0.2062
vn -0.1788 0.9789 -0.0991
vn 0.0611 0.9958 0.0684
vn -0.6096 0.7871 0.0943
vn -0.0285 0.9889 -0.1461
vn -0.1052 0.9943 0.0190
vn 0.2070 0.9344 0.2899
vn -0.9616 0.1430 -0.2340
vn 0.5333 0.6411 0.5519
vn -0.3303 0.9327 -0.1448
vn -0.3695 0.9292 0.0016
vn 0.1801 0.9831 -0.0320
vn -0.2739 0.9500 0.1499
vn -0.2067 0.9442 0.2566
vn 0.5711 0.8197 -0.0446
vn 0.5984 0.7647 0.2390
vn -0.5650 0.8184 -0.1046
vn -0.5599 0.8111 -0.1694
vn -0.2982 0.9540 -0.0305
vn 0.6936 -0.6831 -0.2287
vn -0.0842 0.9712 -0.2228
vn -0.0752 0.8769 -0.4747
vn 0.7330 0.6692 -0.1218
vn -0.0974 0.8992 0.4265
vn -0.2663 0.9299 -0.2538
vn 0.0517 0.9177 -0.3940
vn -0.1702 0.9849 0.0330
vn -0.0216 0.9987 -0.0455
vn 0.2037 0.9533 -0.2229
vn -0.1969 0.9755 -0.0982
vn 0.3816 0.8903 -0.2486
vn -0.8927 -0.0117 -0.4505
vn -0.1691 0.9856 0.0022
vn 0.6532 0.7277 0.2094
vn -0.1590 0.9816 0.1053
vn -0.0501 0.9932 0.1049
vn 0.0287 0.7434 0.6682
vn 0.2778 0.8891 0.3638
vn -0.2448 0.9662 -0.0806
vn 0.4122 0.8928 -0.1816
vn 0.0675 0.8105 -0.5818
vn 0.4963 0.8672 0.0402
vn 0.5439 0.8036 -0.2419
vn -0.5150 0.8572 0.0022
vn 0.3576 0.8715 0.3356
vn 0.2113 0.9769 0.0305
vn -0.3552 0.9274 0.1173
vn 0.5645 0.7358 -0.3740
vn -0.2269 0.9717 0.0658
vn -0.0813 0.9548 -0.2859
vn 0.5691 0.6815 -0.4600
vn -0.3608 0.9302 -0.0668
vn 0.4733 0.8398 0.2659
vn -0.1526 0.9663 0.2071
vn -0.0460 0.9971 -0.0611
vn -0.4114 0.9114 0.0021
vn 0.5497 0.8335 -0.0557
vn -0.2717 0.8807 -0.3880
vn 0.5560 0.8267 0.0866
vn -0.3632 0.9213 0.1389
vn -0.2408 0.9618 -0.1303
vn 0.9147 0.3414 0.2161
vn 0.5808 0.6169 0.5310
vn -0.7435 0.6054 0.2842
vn -0.0770 0.9587 -0.2739
vn -0.3734 0.8774 0.3011
vn -0.2194 0.9748 -0.0408
vn 0.6668 0.7298 0.1510
vn 0.6776 0.6923 -0.2480
vn -0.2199 0.9752 -0.0241
vn 0.0170 0.9998 0.0107
vn 0.4260 0.8387 -0.3394
vn -0.3524 0.9358 -0.0106
vn 0.5741 0.8101 -0.1189
vn 0.2669 0.9628 -0.0420
vn 0.1130 0.9437 0.3110
vn -0.8995 0.2823 -0.3336
vn 0.1117 0.9936 0.0147
vn -0.8138 0.5476 0.1945
vn 0.3234 0.8459 0.4241
vn 0.2853 0.9583 -0.0137
vn -0.2773 0.9154 -0.2917
vn 0.1762 0.9254 0.3355
vn -0.0595 0.9961 -0.0649
vn -0.6477 0.7307 -0.2158
vn 0.7011 0.7017 -0.1269
vn -0.1375 0.9775 0.1601
vn -0.9108 -0.3861 -0.1464
vn 0.1159 0.9928 -0.0300
vn -0.2883 0.9447 -0.1561
vn 0.1818 0.9695 -0.1644
vn 0.1691 0.8839 -0.4360
vn -0.0754 0.9523 -0.2958
vn -0.6972 -0.5883 0.4097
vn -0.0144 0.9962 -0.0860
vn -0.2794 0.9398 0.1969
vn -0.1599 0.9479 -0.2755
vn -0.7633 -0.6238 0.1681
vn -0.1474 0.9836 -0.1044
vn -0.1227 0.9891 0.0819
vn -0.1195 0.9852 0.1228
vn 0.4956 0.8683 -0.0201
vn 0.1735 0.8347 0.5226
vn -0.1494 0.9527 0.2647
vn -0.3524 0.8983 0.2622
vn 0.7772 0.2922 0.5573
vn -0.4343 0.8833 -0.1768
vn 0.2735 0.9359 -0.2218
vn 0.5142 0.8574 -0.0223
vn 0.1595 0.8410 -0.5170
vn 0.1991 0.9702 0.1380
vn 0.7719 0.5526 -0.3145
vn 0.4565 0.5741 0.6797
vn 0.0067 0.9932 -0.1163
vn 0.4739 0.8786 0.0589
vn -0.0445 0.9705 -0.2369
vn 0.6020 0.7414 0.2967
vn -0.9546 -0.2892 0.0720
vn 0.0541 0.9909 0.1232
vn -0.0818 0.9045 0.4186
vn -0.5554 0.8257 0.0988
vn 0.1707 0.9422 0.2883
vn 0.3457 0.9359 -0.0673
vn -0.4649 0.8392 -0.2823
vn 0.3562 0.9278 -0.1109
vn -0.4365 0.8807 -0.1841
vn -0.5578 0.8250 0.0908
vn -0.2047 0.9657 -0.1595
vn -0.2999 0.7601 -0.5764
vn -0.5271 0.8346 0.1600
vn -0.1822 0.9817 -0.0555
vn -0.0119 0.9995 -0.0284
vn 0.7415 0.6709 -0.0035
vn -0.2565 0.9642 -0.0667
vn -0.4002 0.8520 0.3375
vn 0.6907 0.7066 0.1539
vn -0.1870 0.9662 -0.1774
vn 0.6296 0.7720 -0.0874
vn -0.1874 0.9748 -0.1212
vn 0.5949 0.7758 0.2102
vn 0.1611 0.9865 -0.0299
vn 0.2902 0.9550 0.0607
vn -0.4797 0.8773 0.0181
vn 0.5767 0.7938 0.1930
vn -0.2144 0.9738 0.0763
vn 0.5888 0.8082 -0.0104
vn -0.6307 0.7729 -0.0695
vn 0.1784 0.8311 -0.5267
vn 0.8131 0.5734 -0.1004
vn 0.1106 0.9933 0.0347
vn 0.0536 0.9949 -0.0852
vn 0.1359 0.9873 0.0823
vn -0.7126 0.6944 -0.1002
vn -0.0681 0.9677 0.2428
vn -0.2715 0.9437 -0.1889
vn 0.0760 0.9935 -0.0852
vn 0.9756 0.1855 0.1174
vn 0.3758 0.9176 0.1294
vn -0.0520 0.9285 0.3677
vn 0.4171 0.8915 0.1769
vn -0.7984 -0.4488 -0.4014
vn 0.0967 0.9796 -0.1760
vn 0.2705 0.9423 -0.1970
vn -0.1032 0.9471 -0.3039
vn 0.0693 0.9890 -0.1306
vn 0.0641 0.9589 -0.2765
vn 0.1063 0.9492 0.2960
vn -0.8208 -0.1151 -0.5594
vn 0.2847 0.9295 -0.2345
vn -0.6271 0.7766 0.0596
vn 0.2589 0.9488 -0.1807
vn -0.1995 0.9665 -0.1613
vn 0.1258 0.9857 -0.1122
vn -0.1083 0.9862 0.1253
vn -0.1358 0.9906 -0.0129
vn -0.2321 0.9705 -0.0660
vn 0.2376 0.9714 0.0056
vn -0.2876 0.9373 0.1967
vn -0.0149 0.9999 0.0025
vn -0.1312 0.9889 0.0702
vn 0.6831 0.7304 -0.0002
vn -0.6202 0.7843 0.0165
vn 0.3463 0.9241 -0.1618
vn 0.2725 0.9164 0.2931
vn -0.7022 0.7059 -0.0928
vn -0.0336 0.9949 -0.0948
vn -0.6632 0.4142 -0.6234
vn -0.6004 0.7482 0.2824
vn 0.3322 0.9165 0.2231
vn 0.9801 0.1165 -0.1606
vn 0.1543 0.9831 0.0989
vn -0.0000 0.9907 -0.1359
vn 0.0916 0.9449 0.3143
vn -0.4254 0.8660 -0.2628
vn -0.2367 0.9672 0.0924
vn -0.7244 0.5179 -0.4549
vn 0.1506 0.9828 -0.1069
vn -0.5665 -0.4810 0.6691
vn 0.1416 0.9835 0.1125
vn -0.3934 0.8589 0.3279
vn 0.0580 0.9975 0.0413
vn -0.7388 -0.6322 0.2333
vn 0.3120 0.9053 0.2883
vn -0.3180 0.9479 -0.0209
vn 0.3030 0.8493 -0.4322
vn -0.0493 0.8494 0.5255
vn -0.5906 0.1281 -0.7968
vn -0.2452 0.9695 -0.0026
vn 0.5875 0.5803 -0.5640
vn 0.1527 0.9467 0.2837
vn -0.2714 0.9391 0.2108
vn 0.8569 0.5138 -0.0420
vn 0.5304 0.8140 0.2366
vn -0.1889 0.9819 0.0102
vn -0.0078 0.9973 -0.0726
vn 0.8704 -0.2172 0.4418
vn -0.2233 0.9730 -0.0581
vn 0.1870 0.9714 0.1464
vn -0.9127 0.3896 0.1232
vn -0.1768 0.9837 0.0327
vn -0.0854 0.9782 0.1892
vn 0.9663 0.0595 0.2504
vn 0.9242 0.3258 0.1992
vn 0.1920 0.9773 0.0899
vn -0.9127 0.3928 0.1127
vn 0.6553 0.7438 -0.1315
vn 0.8820 0.4323 -0.1875
vn -0.2007 0.9796 0.0134
vn 0.1096 0.9920 -0.0626
vn 0.5540 0.8176 0.1569
vn -0.4245 0.8648 0.2681
vn 0.1698 0.7766 0.6067
vn 0.6318 0.7517 -0.1891
vn 0.2045 0.9675 0.1487
vn 0.1093 0.9927 -0.0518
vn 0.5611 0.7113 -0.4233
vn -0.4496 0.8875 -0.1009
vn 0.0864 0.9566 -0.2784
vn -0.3227 0.9465 0.0010
vn 0.3299 0.9274 -0.1763
vn 0.3078 0.9487 -0.0716
vn 0.2058 0.9572 0.2035
vn -0.2455 0.9687 -0.0368
vn 0.0656 0.9885 0.1362
vn 0.9464 -0.0847 -0.3118
vn -0.1086 0.9579 -0.2657
vn -0.5884 -0.8073 -0.0453
vn 0.2933 -0.9557 0.0254
vn -0.0735 0.9592 0.2731
vn 0.4367 0.3989 -0.8063
vn 0.5143 0.8559 0.0549
vn -0.4621 0.8854 0.0508
vn 0.0600 -0.8583 -0.5096
vn -0.5878 0.7960 -0.1446
vn 0.0172 0.9701 -0.2422
vn 0.3290 0.9127 0.2423
vn 0.0429 0.9988 -0.0256
vn 0.1116 0.8899 0.4423
vn 0.4702 0.8447 0.2558
vn -0.5763 0.8062 0.1342
vn 0.1028 0.9735 0.2041
vn -0.0980 0.9930 -0.0657
vn 0.8263 0.5319 0.1851
vn 0.1098 0.9867 -0.1199
vn 0.2954 0.8157 -0.4974
vn -0.6331 0.7735 0.0311
vn 0.4346 0.9006 -0.0050
vn -0.1391 0.9801 0.1413
vn 0.8556 0.5065 -0.1071
vn -0.3976 0.9176 -0.0038
vn 0.2451 0.9694 -0.0122
vn -0.2762 0.9375 0.2118
vn 0.5318 -0.6922 -0.4880
vn 0.2801 0.9360 0.2133
vn -0.8101 0.5554 -0.1878
vn 0.8517 0.4756 0.2201
vn 0.8151 0.5760 -0.0614
vn -0.0809 0.9959 -0.0412
vn 0.5932 -0.8037 -0.0474
vn 0.1087 0.9205 -0.3753
vn 0.0764 0.8013 0.5934
vn 0.5217 0.8500 0.0726
vn 0.4173 -0.8685 0.2677
vn 0.0252 0.9982 0.0545
vn 0.1625 0.9628 0.2159
vn 0.1749 0.9821 -0.0696
vn 0.0316 0.9975 -0.0627
vn 0.4744 0.8630 -0.1736
vn 0.9493 0.3144 0.0083
vn 0.0720 0.9377 0.3398
vn 0.1395 0.9874 -0.0742
vn -0.0261 0.9996 0.0132
vn 0.0035 0.9980 0.0629
vn 0.0857 0.9841 -0.1553
vn 0.9183 0.1881 -0.3483
vn 0.0126 0.9144 -0.4045
vn 0.0390 0.9833 -0.1776
vn -0.2936 0.7380 -0.6076
vn 0.5558 -0.8292 0.0593
vn -0.1052 0.9940 0.0300
vn -0.9484 0.2928 0.1218
vn -0.0889 0.9786 0.1856
vn 0.0768 0.9688 0.2355
vn -0.3560 0.9262 0.1245
vn 0.9095 0.4083 0.0784
vn 0.0637 0.9979 0.0096
vn 0.3171 0.9472 -0.0483
vn -0.1510 0.9747 0.1645
vn -0.5205 0.7951 -0.3112
vn -0.8054 0.4876 0.3371
vn 0.2256 0.9741 0.0151
vn -0.0379 0.9898 0.1371
vn 0.3658 0.8244 -0.4320
vn -0.1527 0.9870 -0.0497
vn 0.7374 0.4857 -0.4694
vn 0.3404 0.9212 0.1885
vn -0.0435 0.9800 0.1942
vn -0.4542 0.8118 -0.3670
vt 1.000000 0.981257
vt 0.857143 1.000000
vt 0.857143 0.981257
vt 1.000000 0.000000
vt 0.857143 0.020473
vt 0.857143 0.000000
vt 1.000000 0.020473
vt 0.857143 0.040081
vt 1.000000 0.059689
vt 0.857143 0.059689
vt 1.000000 0.079296
vt 0.857143 0.079296
vt 0.857143 0.098904
vt 1.000000 0.118512
vt 0.857143 0.118512
vt 0.857143 0.138120
vt 1.000000 0.138120
vt 0.857143 0.157728
vt 1.000000 0.157728
vt 0.857143 0.177336
vt 1.000000 0.196944
vt 0.857143 0.196944
vt 1.000000 0.216551
vt 0.857143 0.216551
vt 1.000000 0.236159
vt 0.857143 0.236159
vt 0.857143 0.255767
vt 1.000000 0.255767
vt 0.857143 0.275375
vt 1.000000 0.275375
vt 0.857143 0.294983
vt 1.000000 0.294983
vt 0.857143 0.314591
vt 1.000000 0.314591
vt 0.857143 0.334198
vt 1.000000 0.353806
vt 0.857143 0.353806
vt 1.000000 0.373414
vt 0.857143 0.373414
vt 1.000000 0.393022
vt 0.857143 0.393022
vt 1.000000 0.412630
vt 0.857143 0.412630
vt 0.857143 0.432238
vt 1.000000 0.432238
vt 0.857143 0.451845
vt 1.000000 0.451845
vt 0.857143 0.471453
vt 1.000000 0.471453
vt 0.857143 0.491061
vt 1.000000 0.510669
vt 0.857143 0.510669
vt 1.000000 0.530277
vt 0.857143 0.530277
vt 1.000000 0.549885
vt 0.857143 0.549885
vt 0.857143 0.569493
vt 1.000000 0.589100
vt 0.857143 0.589100
vt 1.000000 0.608708
vt 0.857143 0.608708
vt 1.000000 0.628316
vt 0.857143 0.628316
vt 0.857143 0.647924
vt 1.000000 0.647924
vt 0.857143 0.667532
vt 1.000000 0.687140
vt 0.857143 0.687140
vt 1.000000 0.706747
vt 0.857143 0.706748
vt 0.857143 0.726355
vt 1.000000 0.726355
vt 0.857143 0.745963
vt 1.000000 0.745963
vt 0.857143 0.765571
vt 1.000000 0.785179
vt 0.857143 0.785179
vt 1.000000 0.804787
vt 0.857143 0.804787
vt 1.000000 0.824394
vt 0.857143 0.824394
vt 1.000000 0.844002
vt 0.857143 0.844002
vt 1.000000 0.863610
vt 0.857143 0.863610
vt 1.000000 0.883218
vt 0.857143 0.883218
vt 1.000000 0.902826
vt 0.857143 0.902826
vt 1.000000 0.922434
vt 0.857143 0.922434
vt 1.000000 0.942042
vt 0.857143 0.942042
vt 1.000000 0.961649
vt 0.857143 0.961649
vt 0.142857 0.961649
vt 0.000000 0.981257
vt 0.000000 0.961649
vt 0.285714 0.981257
vt 0.142857 0.981257
vt 0.428571 0.961649
vt 0.285714 0.961649
vt 0.571429 0.981257
vt 0.428571 0.981257
vt 0.714286 0.961649
vt 0.571429 0.961649
vt 0.714286 0.981257
vt 0.000000 0.942042
vt 0.142857 0.942042
vt 0.428571 0.942042
vt 0.285714 0.942041
vt 0.571429 0.942042
vt 0.714286 0.942042
vt 0.142857 0.922434
vt 0.000000 0.922434
vt 0.285714 0.922434
vt 0.571429 0.922434
vt 0.428571 0.922434
vt 0.714286 0.922434
vt 0.000000 0.902826
vt 0.142857 0.902826
vt 0.428571 0.902826
vt 0.285714 0.902826
vt 0.571429 0.902826
vt 0.714286 0.902826
vt 0.142857 0.883218
vt 0.000000 0.883218
vt 0.285714 0.883218
vt 0.571429 0.883218
vt 0.428571 0.883218
vt 0.714286 0.883218
vt 0.142857 0.863610
vt 0.000000 0.863610
vt 0.285714 0.863610
vt 0.571429 0.863610
vt 0.428571 0.863610
vt 0.714286 0.863610
vt 0.142857 0.844002
vt 0.000000 0.844002
vt 0.285714 0.844002
vt 0.571429 0.844002
vt 0.428571 0.844002
vt 0.714286 0.844002
vt 0.000000 0.824394
vt 0.285714 0.824394
vt 0.142857 0.824394
vt 0.571429 0.824394
vt 0.428571 0.824395
vt 0.714286 0.824395
vt 0.000000 0.804787
vt 0.142857 0.804787
vt 0.428571 0.804787
vt 0.285714 0.804787
vt 0.571429 0.804787
vt 0.714286 0.804787
vt 0.142857 0.785179
vt 0.000000 0.785179
vt 0.428571 0.785179
vt 0.285714 0.785179
vt 0.571429 0.785179
vt 0.714286 0.785179
vt 0.142857 0.765571
vt 0.000000 0.765571
vt 0.285714 0.765571
vt 0.428571 0.765571
vt 0.571429 0.765571
vt 0.714286 0.765571
vt 0.142857 0.745963
vt 0.000000 0.745963
vt 0.428571 0.745963
vt 0.285714 0.745963
vt 0.571429 0.745963
vt 0.714286 0.745963
vt 0.142857 0.726355
vt 0.000000 0.726355
vt 0.285714 0.726355
vt 0.428571 0.726355
vt 0.714286 0.726355
vt 0.571429 0.726355
vt 0.000000 0.706747
vt 0.285714 0.706747
vt 0.142857 0.706747
vt 0.428571 0.706747
vt 0.571429 0.706748
vt 0.714286 0.706747
vt 0.000000 0.687140
vt 0.285714 0.687140
vt 0.142857 0.687140
vt 0.571429 0.687140
vt 0.428571 0.687140
vt 0.714286 0.687140
vt 0.000000 0.667532
vt 0.142857 0.667532
vt 0.428571 0.667532
vt 0.285714 0.667532
vt 0.571429 0.667532
vt 0.714286 0.667532
vt 0.142857 0.647924
vt 0.000000 0.647924
vt 0.285714 0.647924
vt 0.571429 0.647924
vt 0.428571 0.647924
vt 0.714286 0.647924
vt 0.000000 0.628316
vt 0.285714 0.628316
vt 0.142857 0.628316
vt 0.571429 0.628316
vt 0.428571 0.628316
vt 0.714286 0.628316
vt 0.000000 0.608708
vt 0.142857 0.608708
vt 0.285714 0.608708
vt 0.571429 0.608708
vt 0.428571 0.608708
vt 0.714286 0.608708
vt 0.142857 0.589100
vt 0.000000 0.589100
vt 0.285714 0.589100
vt 0.571429 0.589100
vt 0.428571 0.589100
vt 0.714286 0.589100
vt 0.142857 0.569493
vt 0.000000 0.569493
vt 0.428571 0.569493
vt 0.285714 0.569493
vt 0.571429 0.569493
vt 0.714286 0.569493
vt 0.000000 0.549885
vt 0.142857 0.549885
vt 0.428571 0.549885
vt 0.285714 0.549885
vt 0.571429 0.549885
vt 0.714286 0.549885
vt 0.142857 0.530277
vt 0.000000 0.530277
vt 0.285714 0.530277
vt 0.428571 0.530277
vt 0.571429 0.530277
vt 0.714286 0.530277
vt 0.000000 0.510669
vt 0.285714 0.510669
vt 0.142857 0.510669
vt 0.571429 0.510669
vt 0.428571 0.510669
vt 0.714286 0.510669
vt 0.000000 0.491061
vt 0.285714 0.491061
vt 0.142857 0.491061
vt 0.428571 0.491061
vt 0.571429 0.491061
vt 0.714286 0.491061
vt 0.000000 0.471453
vt 0.285714 0.471453
vt 0.142857 0.471453
vt 0.428571 0.471453
vt 0.571429 0.471453
vt 0.714286 0.471453
vt 0.142857 0.451845
vt 0.000000 0.451845
vt 0.285714 0.451845
vt 0.428571 0.451845
vt 0.714286 0.451845
vt 0.571429 0.451845
vt 0.142857 0.432238
vt 0.000000 0.432238
vt 0.428571 0.432238
vt 0.285714 0.432238
vt 0.571429 0.432238
vt 0.714286 0.432238
vt 0.000000 0.412630
vt 0.142857 0.412630
vt 0.428571 0.412630
vt 0.285714 0.412630
vt 0.571429 0.412630
vt 0.714286 0.412630
vt 0.000000 0.393022
vt 0.285714 0.393022
vt 0.142857 0.393022
vt 0.428571 0.393022
vt 0.571429 0.393022
vt 0.714286 0.393022
vt 0.000000 0.373414
vt 0.142857 0.373414
vt 0.428571 0.373414
vt 0.285714 0.373414
vt 0.714286 0.373414
vt 0.571429 0.373414
vt 0.000000 0.353806
vt 0.285714 0.353806
vt 0.142857 0.353806
vt 0.571429 0.353806
vt 0.428571 0.353806
vt 0.714286 0.353806
vt 0.142857 0.334198
vt 0.000000 0.334198
vt 0.285714 0.334198
vt 0.571429 0.334198
vt 0.428571 0.334198
vt 0.714286 0.334198
vt 0.142857 0.314591
vt 0.000000 0.314591
vt 0.285714 0.314591
vt 0.428571 0.314591
vt 0.714286 0.314591
vt 0.571429 0.314591
vt 0.142857 0.294983
vt 0.000000 0.294983
vt 0.285714 0.294983
vt 0.571429 0.294983
vt 0.428571 0.294983
vt 0.714286 0.294983
vt 0.000000 0.275375
vt 0.285714 0.275375
vt 0.142857 0.275375
vt 0.428571 0.275375
vt 0.714286 0.275375
vt 0.571429 0.275375
vt 0.000000 0.255767
vt 0.142857 0.255767
vt 0.428571 0.255767
vt 0.285714 0.255767
vt 0.714286 0.255767
vt 0.571429 0.255767
vt 0.142857 0.236159
vt 0.000000 0.236159
vt 0.285714 0.236159
vt 0.428571 0.236159
vt 0.714286 0.236159
vt 0.571429 0.236159
vt 0.000000 0.216551
vt 0.285714 0.216551
vt 0.142857 0.216551
vt 0.571429 0.216551
vt 0.428571 0.216551
vt 0.714286 0.216551
vt 0.000000 0.196943
vt 0.285714 0.196943
vt 0.142857 0.196943
vt 0.571429 0.196944
vt 0.428571 0.196943
vt 0.714286 0.196943
vt 0.142857 0.177336
vt 0.000000 0.177336
vt 0.285714 0.177336
vt 0.428571 0.177336
vt 0.571429 0.177336
vt 0.714286 0.177336
vt 0.000000 0.157728
vt 0.285714 0.157728
vt 0.142857 0.157728
vt 0.428571 0.157728
vt 0.571429 0.157728
vt 0.714286 0.157728
vt 0.000000 0.138120
vt 0.285714 0.138120
vt 0.142857 0.138120
vt 0.571429 0.138120
vt 0.428571 0.138120
vt 0.714286 0.138120
vt 0.000000 0.118512
vt 0.285714 0.118512
vt 0.142857 0.118512
vt 0.428571 0.118512
vt 0.571429 0.118512
vt 0.714286 0.118512
vt 0.000000 0.098904
vt 0.285714 0.098904
vt 0.142857 0.098904
vt 0.428571 0.098904
vt 0.571429 0.098904
vt 0.714286 0.098904
vt 0.000000 0.079296
vt 0.285714 0.079296
vt 0.142857 0.079296
vt 0.571429 0.079296
vt 0.428571 0.079296
vt 0.714286 0.079296
vt 0.000000 0.059689
vt 0.285714 0.059689
vt 0.142857 0.059689
vt 0.428571 0.059689
vt 0.714286 0.059689
vt 0.571429 0.059689
vt 0.142857 0.040081
vt 0.000000 0.040081
vt 0.285714 0.040081
vt 0.428571 0.040081
vt 0.714286 0.040081
vt 0.571429 0.040081
vt 0.142857 0.020473
vt 0.000000 0.020473
vt 0.285714 0.020473
vt 0.571429 0.020473
vt 0.428571 0.020473
vt 0.714286 0.020473
vt 0.000000 0.000000
vt 0.285714 0.000000
vt 0.142857 0.000000
vt 0.571429 0.000000
vt 0.428571 0.000000
vt 0.714286 0.000000
vt 0.000000 1.000000
vt 0.285714 1.000000
vt 0.142857 1.000000
vt 0.571429 1.000000
vt 0.428571 1.000000
vt 0.714286 1.000000
vt 1.000000 1.000000
vt 1.000000 0.040081
vt 1.000000 0.098904
vt 1.000000 0.177336
vt 1.000000 0.334198
vt 1.000000 0.491061
vt 1.000000 0.569493
vt 1.000000 0.667532
vt 1.000000 0.765571
s 0
usemtl マテリアル
f 104/1/1 111/2/1 411/3/1
f 2/4/2 117/5/2 110/6/2
f 55/7/3 123/8/3 117/5/3
f 123/8/4 57/9/4 129/10/4
f 129/10/5 58/11/5 135/12/5
f 58/11/6 141/13/6 135/12/6
f 141/13/7 60/14/7 147/15/7
f 60/14/8 153/16/8 147/15/8
f 61/17/9 159/18/9 153/16/9
f 62/19/10 165/20/10 159/18/10
f 165/20/11 64/21/11 171/22/11
f 171/22/12 65/23/12 177/24/12
f 177/24/13 66/25/13 183/26/13
f 66/25/14 189/27/14 183/26/14
f 67/28/15 195/29/15 189/27/15
f 68/30/16 201/31/16 195/29/16
f 69/32/17 207/33/17 201/31/17
f 70/34/18 213/35/18 207/33/18
f 213/35/19 72/36/19 219/37/19
f 219/37/20 73/38/20 225/39/20
f 225/39/21 74/40/21 231/41/21
f 231/41/22 75/42/22 237/43/22
f 75/42/23 243/44/23 237/43/23
f 76/45/24 249/46/24 243/44/24
f 77/47/25 255/48/25 249/46/25
f 78/49/26 261/50/26 255/48/26
f 261/50/27 80/51/27 267/52/27
f 267/52/28 81/53/28 273/54/28
f 273/54/29 82/55/29 279/56/29
f 82/55/30 285/57/30 279/56/30
f 285/57/31 84/58/31 291/59/31
f 291/59/32 85/60/32 297/61/32
f 297/61/33 86/62/33 303/63/33
f 86/62/34 309/64/34 303/63/34
f 87/65/35 315/66/35 309/64/35
f 315/66/36 89/67/36 321/68/36
f 321/68/37 90/69/37 327/70/37
f 90/69/38 333/71/38 327/70/38
f 91/72/39 339/73/39 333/71/39
f 92/74/40 345/75/40 339/73/40
f 345/75/41 94/76/41 351/77/41
f 351/77/42 95/78/42 357/79/42
f 357/79/43 96/80/43 363/81/43
f 363/81/44 97/82/44 369/83/44
f 369/83/45 98/84/45 375/85/45
f 375/85/46 99/86/46 381/87/46
f 381/87/47 100/88/47 387/89/47
f 387/89/48 101/90/48 393/91/48
f 393/91/49 102/92/49 399/93/49
f 399/93/50 103/94/50 405/95/50
f 103/94/51 411/3/51 405/95/51
f 410/96/52 5/97/52 6/98/52
f 410/96/53 415/99/53 416/100/53
f 408/101/54 415/99/54 409/102/54
f 408/101/55 413/103/55 414/104/55
f 406/105/56 413/103/56 407/106/56
f 405/95/57 412/107/57 406/105/57
f 7/108/58 410/96/58 6/98/58
f 404/109/59 409/102/59 410/96/59
f 402/110/60 409/102/60 403/111/60
f 402/110/61 407/106/61 408/101/61
f 401/112/62 406/105/62 407/106/62
f 400/113/63 405/95/63 406/105/63
f 398/114/64 7/108/64 8/115/64
f 398/114/65 403/111/65 404/109/65
f 397/116/66 402/110/66 403/111/66
f 395/117/67 402/110/67 396/118/67
f 395/117/68 400/113/68 401/112/68
f 393/91/69 400/113/69 394/119/69
f 9/120/70 398/114/70 8/115/70
f 392/121/71 397/116/71 398/114/71
f 390/122/72 397/116/72 391/123/72
f 389/124/73 396/118/73 390/122/73
f 389/124/74 394/119/74 395/117/74
f 387/89/75 394/119/75 388/125/75
f 386/126/76 9/120/76 10/127/76
f 385/128/77 392/121/77 386/126/77
f 385/128/78 390/122/78 391/123/78
f 383/129/79 390/122/79 384/130/79
f 382/131/80 389/124/80 383/129/80
f 382/131/81 387/89/81 388/125/81
f 380/132/82 10/127/82 11/133/82
f 379/134/83 386/126/83 380/132/83
f 379/134/84 384/130/84 385/128/84
f 377/135/85 384/130/85 378/136/85
f 376/137/86 383/129/86 377/135/86
f 375/85/87 382/131/87 376/137/87
f 374/138/88 11/133/88 12/139/88
f 373/140/89 380/132/89 374/138/89
f 373/140/90 378/136/90 379/134/90
f 371/141/91 378/136/91 372/142/91
f 371/141/92 376/137/92 377/135/92
f 369/83/93 376/137/93 370/143/93
f 13/144/94 374/138/94 12/139/94
f 367/145/95 374/138/95 368/146/95
f 367/145/96 372/142/96 373/140/96
f 365/147/97 372/142/97 366/148/97
f 364/149/98 371/141/98 365/147/98
f 364/149/99 369/83/99 370/143/99
f 14/150/100 368/146/100 13/144/100
f 362/151/101 367/145/101 368/146/101
f 360/152/102 367/145/102 361/153/102
f 359/154/103 366/148/103 360/152/103
f 359/154/104 364/149/104 365/147/104
f 357/79/105 364/149/105 358/155/105
f 356/156/106 14/150/106 15/157/106
f 356/156/107 361/153/107 362/151/107
f 354/158/108 361/153/108 355/159/108
f 354/158/109 359/154/109 360/152/109
f 353/160/110 358/155/110 359/154/110
f 351/77/111 358/155/111 352/161/111
f 350/162/112 15/157/112 16/163/112
f 349/164/113 356/156/113 350/162/113
f 348/165/114 355/159/114 349/164/114
f 348/165/115 353/160/115 354/158/115
f 347/166/116 352/161/116 353/160/116
f 345/75/117 352/161/117 346/167/117
f 344/168/118 16/163/118 17/169/118
f 344/168/119 349/164/119 350/162/119
f 342/170/120 349/164/120 343/171/120
f 342/170/121 347/166/121 348/165/121
f 341/172/122 346/167/122 347/166/122
f 340/173/123 345/75/123 346/167/123
f 338/174/124 17/169/124 18/175/124
f 337/176/125 344/168/125 338/174/125
f 337/176/126 342/170/126 343/171/126
f 336/177/127 341/172/127 342/170/127
f 334/178/128 341/172/128 335/179/128
f 334/178/129 339/73/129 340/173/129
f 19/180/130 338/174/130 18/175/130
f 331/181/131 338/174/131 332/182/131
f 330/183/132 337/176/132 331/181/132
f 329/184/133 336/177/133 330/183/133
f 329/184/134 334/178/134 335/179/134
f 327/70/135 334/178/135 328/185/135
f 20/186/136 332/182/136 19/180/136
f 325/187/137 332/182/137 326/188/137
f 325/187/138 330/183/138 331/181/138
f 323/189/139 330/183/139 324/190/139
f 323/189/140 328/185/140 329/184/140
f 321/68/141 328/185/141 322/191/141
f 21/192/142 326/188/142 20/186/142
f 320/193/143 325/187/143 326/188/143
f 318/194/144 325/187/144 319/195/144
f 317/196/145 324/190/145 318/194/145
f 317/196/146 322/191/146 323/189/146
f 315/66/147 322/191/147 316/197/147
f 314/198/148 21/192/148 22/199/148
f 313/200/149 320/193/149 314/198/149
f 313/200/150 318/194/150 319/195/150
f 311/201/151 318/194/151 312/202/151
f 311/201/152 316/197/152 317/196/152
f 309/64/153 316/197/153 310/203/153
f 23/204/154 314/198/154 22/199/154
f 307/205/155 314/198/155 308/206/155
f 307/205/156 312/202/156 313/200/156
f 305/207/157 312/202/157 306/208/157
f 305/207/158 310/203/158 311/201/158
f 304/209/159 309/64/159 310/203/159
f 24/210/160 308/206/160 23/204/160
f 302/211/161 307/205/161 308/206/161
f 301/212/162 306/208/162 307/205/162
f 299/213/163 306/208/163 300/214/163
f 299/213/164 304/209/164 305/207/164
f 297/61/165 304/209/165 298/215/165
f 296/216/166 24/210/166 25/217/166
f 296/216/167 301/212/167 302/211/167
f 295/218/168 300/214/168 301/212/168
f 293/219/169 300/214/169 294/220/169
f 293/219/170 298/215/170 299/213/170
f 291/59/171 298/215/171 292/221/171
f 290/222/172 25/217/172 26/223/172
f 290/222/173 295/218/173 296/216/173
f 288/224/174 295/218/174 289/225/174
f 287/226/175 294/220/175 288/224/175
f 286/227/176 293/219/176 287/226/176
f 286/227/177 291/59/177 292/221/177
f 27/228/178 290/222/178 26/223/178
f 284/229/179 289/225/179 290/222/179
f 282/230/180 289/225/180 283/231/180
f 281/232/181 288/224/181 282/230/181
f 281/232/182 286/227/182 287/226/182
f 279/56/183 286/227/183 280/233/183
f 278/234/184 27/228/184 28/235/184
f 277/236/185 284/229/185 278/234/185
f 276/237/186 283/231/186 277/236/186
f 275/238/187 282/230/187 276/237/187
f 275/238/188 280/233/188 281/232/188
f 273/54/189 280/233/189 274/239/189
f 29/240/190 278/234/190 28/235/190
f 271/241/191 278/234/191 272/242/191
f 271/241/192 276/237/192 277/236/192
f 269/243/193 276/237/193 270/244/193
f 269/243/194 274/239/194 275/238/194
f 267/52/195 274/239/195 268/245/195
f 30/246/196 272/242/196 29/240/196
f 265/247/197 272/242/197 266/248/197
f 265/247/198 270/244/198 271/241/198
f 264/249/199 269/243/199 270/244/199
f 263/250/200 268/245/200 269/243/200
f 261/50/201 268/245/201 262/251/201
f 31/252/202 266/248/202 30/246/202
f 259/253/203 266/248/203 260/254/203
f 258/255/204 265/247/204 259/253/204
f 257/256/205 264/249/205 258/255/205
f 257/256/206 262/251/206 263/250/206
f 256/257/207 261/50/207 262/251/207
f 254/258/208 31/252/208 32/259/208
f 253/260/209 260/254/209 254/258/209
f 253/260/210 258/255/210 259/253/210
f 252/261/211 257/256/211 258/255/211
f 250/262/212 257/256/212 251/263/212
f 250/262/213 255/48/213 256/257/213
f 248/264/214 32/259/214 33/265/214
f 248/264/215 253/260/215 254/258/215
f 246/266/216 253/260/216 247/267/216
f 245/268/217 252/261/217 246/266/217
f 245/268/218 250/262/218 251/263/218
f 243/44/219 250/262/219 244/269/219
f 34/270/220 248/264/220 33/265/220
f 242/271/221 247/267/221 248/264/221
f 240/272/222 247/267/222 241/273/222
f 239/274/223 246/266/223 240/272/223
f 239/274/224 244/269/224 245/268/224
f 238/275/225 243/44/225 244/269/225
f 35/276/226 242/271/226 34/270/226
f 235/277/227 242/271/227 236/278/227
f 234/279/228 241/273/228 235/277/228
f 233/280/229 240/272/229 234/279/229
f 233/280/230 238/275/230 239/274/230
f 231/41/231 238/275/231 232/281/231
f 36/282/232 236/278/232 35/276/232
f 230/283/233 235/277/233 236/278/233
f 228/284/234 235/277/234 229/285/234
f 228/284/235 233/280/235 234/279/235
f 226/286/236 233/280/236 227/287/236
f 225/39/237 232/281/237 226/286/237
f 37/288/238 230/283/238 36/282/238
f 223/289/239 230/283/239 224/290/239
f 223/289/240 228/284/240 229/285/240
f 221/291/241 228/284/241 222/292/241
f 220/293/242 227/287/242 221/291/242
f 219/37/243 226/286/243 220/293/243
f 218/294/244 37/288/244 38/295/244
f 217/296/245 224/290/245 218/294/245
f 217/296/246 222/292/246 223/289/246
f 215/297/247 222/292/247 216/298/247
f 214/299/248 221/291/248 215/297/248
f 214/299/249 219/37/249 220/293/249
f 212/300/250 38/295/250 39/301/250
f 211/302/251 218/294/251 212/300/251
f 211/302/252 216/298/252 217/296/252
f 210/303/253 215/297/253 216/298/253
f 208/304/254 215/297/254 209/305/254
f 208/304/255 213/35/255 214/299/255
f 206/306/256 39/301/256 40/307/256
f 206/306/257 211/302/257 212/300/257
f 205/308/258 210/303/258 211/302/258
f 203/309/259 210/303/259 204/310/259
f 202/311/260 209/305/260 203/309/260
f 201/31/261 208/304/261 202/311/261
f 41/312/262 206/306/262 40/307/262
f 199/313/263 206/306/263 200/314/263
f 198/315/264 205/308/264 199/313/264
f 198/315/265 203/309/265 204/310/265
f 196/316/266 203/309/266 197/317/266
f 196/316/267 201/31/267 202/311/267
f 42/318/268 200/314/268 41/312/268
f 194/319/269 199/313/269 200/314/269
f 192/320/270 199/313/270 193/321/270
f 192/320/271 197/317/271 198/315/271
f 190/322/272 197/317/272 191/323/272
f 190/322/273 195/29/273 196/316/273
f 188/324/274 42/318/274 43/325/274
f 187/326/275 194/319/275 188/324/275
f 187/326/276 192/320/276 193/321/276
f 186/327/277 191/323/277 192/320/277
f 184/328/278 191/323/278 185/329/278
f 183/26/279 190/322/279 184/328/279
f 44/330/280 188/324/280 43/325/280
f 181/331/281 188/324/281 182/332/281
f 181/331/282 186/327/282 187/326/282
f 179/333/283 186/327/283 180/334/283
f 178/335/284 185/329/284 179/333/284
f 178/335/285 183/26/285 184/328/285
f 45/336/286 182/332/286 44/330/286
f 175/337/287 182/332/287 176/338/287
f 175/337/288 180/334/288 181/331/288
f 173/339/289 180/334/289 174/340/289
f 173/339/290 178/335/290 179/333/290
f 172/341/291 177/24/291 178/335/291
f 170/342/292 45/336/292 46/343/292
f 170/342/293 175/337/293 176/338/293
f 169/344/294 174/340/294 175/337/294
f 168/345/295 173/339/295 174/340/295
f 167/346/296 172/341/296 173/339/296
f 166/347/297 171/22/297 172/341/297
f 47/348/298 170/342/298 46/343/298
f 163/349/299 170/342/299 164/350/299
f 162/351/300 169/344/300 163/349/300
f 162/351/301 167/346/301 168/345/301
f 161/352/302 166/347/302 167/346/302
f 159/18/303 166/347/303 160/353/303
f 48/354/304 164/350/304 47/348/304
f 157/355/305 164/350/305 158/356/305
f 157/355/306 162/351/306 163/349/306
f 155/357/307 162/351/307 156/358/307
f 154/359/308 161/352/308 155/357/308
f 153/16/309 160/353/309 154/359/309
f 49/360/310 158/356/310 48/354/310
f 151/361/311 158/356/311 152/362/311
f 151/361/312 156/358/312 157/355/312
f 150/363/313 155/357/313 156/358/313
f 149/364/314 154/359/314 155/357/314
f 148/365/315 153/16/315 154/359/315
f 50/366/316 152/362/316 49/360/316
f 145/367/317 152/362/317 146/368/317
f 144/369/318 151/361/318 145/367/318
f 144/369/319 149/364/319 150/363/319
f 143/370/320 148/365/320 149/364/320
f 142/371/321 147/15/321 148/365/321
f 51/372/322 146/368/322 50/366/322
f 139/373/323 146/368/323 140/374/323
f 139/373/324 144/369/324 145/367/324
f 137/375/325 144/369/325 138/376/325
f 137/375/326 142/371/326 143/370/326
f 135/12/327 142/371/327 136/377/327
f 52/378/328 140/374/328 51/372/328
f 133/379/329 140/374/329 134/380/329
f 132/381/330 139/373/330 133/379/330
f 132/381/331 137/375/331 138/376/331
f 130/382/332 137/375/332 131/383/332
f 129/10/333 136/377/333 130/382/333
f 128/384/334 52/378/334 53/385/334
f 127/386/335 134/380/335 128/384/335
f 127/386/336 132/381/336 133/379/336
f 126/387/337 131/383/337 132/381/337
f 124/388/338 131/383/338 125/389/338
f 123/8/339 130/382/339 124/388/339
f 122/390/340 53/385/340 54/391/340
f 121/392/341 128/384/341 122/390/341
f 121/392/342 126/387/342 127/386/342
f 119/393/343 126/387/343 120/394/343
f 118/395/344 125/389/344 119/393/344
f 117/5/345 124/388/345 118/395/345
f 1/396/346 122/390/346 54/391/346
f 106/397/347 122/390/347 105/398/347
f 106/397/348 120/394/348 121/392/348
f 108/399/349 120/394/349 107/400/349
f 108/399/350 118/395/350 119/393/350
f 110/6/351 118/395/351 109/401/351
f 416/100/352 3/402/352 5/97/352
f 416/100/353 115/403/353 116/404/353
f 414/104/354 115/403/354 415/99/354
f 414/104/355 113/405/355 114/406/355
f 412/107/356 113/405/356 413/103/356
f 412/107/357 111/2/357 112/407/357
f 104/1/358 4/408/358 111/2/358
f 2/4/359 55/7/359 117/5/359
f 55/7/360 56/409/360 123/8/360
f 123/8/361 56/409/361 57/9/361
f 129/10/362 57/9/362 58/11/362
f 58/11/363 59/410/363 141/13/363
f 141/13/364 59/410/364 60/14/364
f 60/14/365 61/17/365 153/16/365
f 61/17/366 62/19/366 159/18/366
f 62/19/367 63/411/367 165/20/367
f 165/20/368 63/411/368 64/21/368
f 171/22/369 64/21/369 65/23/369
f 177/24/370 65/23/370 66/25/370
f 66/25/371 67/28/371 189/27/371
f 67/28/372 68/30/372 195/29/372
f 68/30/373 69/32/373 201/31/373
f 69/32/374 70/34/374 207/33/374
f 70/34/375 71/412/375 213/35/375
f 213/35/376 71/412/376 72/36/376
f 219/37/377 72/36/377 73/38/377
f 225/39/378 73/38/378 74/40/378
f 231/41/379 74/40/379 75/42/379
f 75/42/380 76/45/380 243/44/380
f 76/45/381 77/47/381 249/46/381
f 77/47/382 78/49/382 255/48/382
f 78/49/383 79/413/383 261/50/383
f 261/50/384 79/413/384 80/51/384
f 267/52/385 80/51/385 81/53/385
f 273/54/386 81/53/386 82/55/386
f 82/55/387 83/414/387 285/57/387
f 285/57/388 83/414/388 84/58/388
f 291/59/389 84/58/389 85/60/389
f 297/61/390 85/60/390 86/62/390
f 86/62/391 87/65/391 309/64/391
f 87/65/392 88/415/392 315/66/392
f 315/66/393 88/415/393 89/67/393
f 321/68/394 89/67/394 90/69/394
f 90/69/395 91/72/395 333/71/395
f 91/72/396 92/74/396 339/73/396
f 92/74/397 93/416/397 345/75/397
f 345/75/398 93/416/398 94/76/398
f 351/77/399 94/76/399 95/78/399
f 357/79/400 95/78/400 96/80/400
f 363/81/401 96/80/401 97/82/401
f 369/83/402 97/82/402 98/84/402
f 375/85/403 98/84/403 99/86/403
f 381/87/404 99/86/404 100/88/404
f 387/89/405 100/88/405 101/90/405
f 393/91/406 101/90/406 102/92/406
f 399/93/407 102/92/407 103/94/407
f 103/94/408 104/1/408 411/3/408
f 410/96/409 416/100/409 5/97/409
f 410/96/410 409/102/410 415/99/410
f 408/101/411 414/104/411 415/99/411
f 408/101/412 407/106/412 413/103/412
f 406/105/413 412/107/413 413/103/413
f 405/95/414 411/3/414 412/107/414
f 7/108/415 404/109/415 410/96/415
f 404/109/416 403/111/416 409/102/416
f 402/110/417 408/101/417 409/102/417
f 402/110/418 401/112/418 407/106/418
f 401/112/419 400/113/419 406/105/419
f 400/113/420 399/93/420 405/95/420
f 398/114/421 404/109/421 7/108/421
f 398/114/422 397/116/422 403/111/422
f 397/116/423 396/118/423 402/110/423
f 395/117/424 401/112/424 402/110/424
f 395/117/425 394/119/425 400/113/425
f 393/91/426 399/93/426 400/113/426
f 9/120/427 392/121/427 398/114/427
f 392/121/428 391/123/428 397/116/428
f 390/122/429 396/118/429 397/116/429
f 389/124/430 395/117/430 396/118/430
f 389/124/431 388/125/431 394/119/431
f 387/89/432 393/91/432 394/119/432
f 386/126/433 392/121/433 9/120/433
f 385/128/434 391/123/434 392/121/434
f 385/128/435 384/130/435 390/122/435
f 383/129/436 389/124/436 390/122/436
f 382/131/437 388/125/437 389/124/437
f 382/131/438 381/87/438 387/89/438
f 380/132/439 386/126/439 10/127/439
f 379/134/440 385/128/440 386/126/440
f 379/134/441 378/136/441 384/130/441
f 377/135/442 383/129/442 384/130/442
f 376/137/443 382/131/443 383/129/443
f 375/85/444 381/87/444 382/131/444
f 374/138/445 380/132/445 11/133/445
f 373/140/446 379/134/446 380/132/446
f 373/140/447 372/142/447 378/136/447
f 371/141/448 377/135/448 378/136/448
f 371/141/449 370/143/449 376/137/449
f 369/83/450 375/85/450 376/137/450
f 13/144/451 368/146/451 374/138/451
f 367/145/452 373/140/452 374/138/452
f 367/145/453 366/148/453 372/142/453
f 365/147/454 371/141/454 372/142/454
f 364/149/455 370/143/455 371/141/455
f 364/149/456 363/81/456 369/83/456
f 14/150/457 362/151/457 368/146/457
f 362/151/458 361/153/458 367/145/458
f 360/152/459 366/148/459 367/145/459
f 359/154/460 365/147/460 366/148/460
f 359/154/461 358/155/461 364/149/461
f 357/79/462 363/81/462 364/149/462
f 356/156/463 362/151/463 14/150/463
f 356/156/464 355/159/464 361/153/464
f 354/158/465 360/152/465 361/153/465
f 354/158/466 353/160/466 359/154/466
f 353/160/467 352/161/467 358/155/467
f 351/77/468 357/79/468 358/155/468
f 350/162/469 356/156/469 15/157/469
f 349/164/470 355/159/470 356/156/470
f 348/165/471 354/158/471 355/159/471
f 348/165/472 347/166/472 353/160/472
f 347/166/473 346/167/473 352/161/473
f 345/75/474 351/77/474 352/161/474
f 344/168/475 350/162/475 16/163/475
f 344/168/476 343/171/476 349/164/476
f 342/170/477 348/165/477 349/164/477
f 342/170/478 341/172/478 347/166/478
f 341/172/479 340/173/479 346/167/479
f 340/173/480 339/73/480 345/75/480
f 338/174/481 344/168/481 17/169/481
f 337/176/482 343/171/482 344/168/482
f 337/176/483 336/177/483 342/170/483
f 336/177/484 335/179/484 341/172/484
f 334/178/485 340/173/485 341/172/485
f 334/178/486 333/71/486 339/73/486
f 19/180/487 332/182/487 338/174/487
f 331/181/488 337/176/488 338/174/488
f 330/183/489 336/177/489 337/176/489
f 329/184/490 335/179/490 336/177/490
f 329/184/491 328/185/491 334/178/491
f 327/70/492 333/71/492 334/178/492
f 20/186/493 326/188/493 332/182/493
f 325/187/494 331/181/494 332/182/494
f 325/187/495 324/190/495 330/183/495
f 323/189/496 329/184/496 330/183/496
f 323/189/497 322/191/497 328/185/497
f 321/68/498 327/70/498 328/185/498
f 21/192/499 320/193/499 326/188/499
f 320/193/500 319/195/500 325/187/500
f 318/194/501 324/190/501 325/187/501
f 317/196/502 323/189/502 324/190/502
f 317/196/503 316/197/503 322/191/503
f 315/66/504 321/68/504 322/191/504
f 314/198/505 320/193/505 21/192/505
f 313/200/506 319/195/506 320/193/506
f 313/200/507 312/202/507 318/194/507
f 311/201/508 317/196/508 318/194/508
f 311/201/509 310/203/509 316/197/509
f 309/64/510 315/66/510 316/197/510
f 23/204/511 308/206/511 314/198/511
f 307/205/512 313/200/512 314/198/512
f 307/205/513 306/208/513 312/202/513
f 305/207/514 311/201/514 312/202/514
f 305/207/515 304/209/515 310/203/515
f 304/209/516 303/63/516 309/64/516
f 24/210/517 302/211/517 308/206/517
f 302/211/518 301/212/518 307/205/518
f 301/212/519 300/214/519 306/208/519
f 299/213/520 305/207/520 306/208/520
f 299/213/521 298/215/521 304/209/521
f 297/61/522 303/63/522 304/209/522
f 296/216/523 302/211/523 24/210/523
f 296/216/524 295/218/524 301/212/524
f 295/218/525 294/220/525 300/214/525
f 293/219/526 299/213/526 300/214/526
f 293/219/527 292/221/527 298/215/527
f 291/59/528 297/61/528 298/215/528
f 290/222/529 296/216/529 25/217/529
f 290/222/530 289/225/530 295/218/530
f 288/224/531 294/220/531 295/218/531
f 287/226/532 293/219/532 294/220/532
f 286/227/533 292/221/533 293/219/533
f 286/227/534 285/57/534 291/59/534
f 27/228/535 284/229/535 290/222/535
f 284/229/536 283/231/536 289/225/536
f 282/230/537 288/224/537 289/225/537
f 281/232/538 287/226/538 288/224/538
f 281/232/539 280/233/539 286/227/539
f 279/56/540 285/57/540 286/227/540
f 278/234/541 284/229/541 27/228/541
f 277/236/542 283/231/542 284/229/542
f 276/237/543 282/230/543 283/231/543
f 275/238/544 281/232/544 282/230/544
f 275/238/545 274/239/545 280/233/545
f 273/54/546 279/56/546 280/233/546
f 29/240/547 272/242/547 278/234/547
f 271/241/548 277/236/548 278/234/548
f 271/241/549 270/244/549 276/237/549
f 269/243/550 275/238/550 276/237/550
f 269/243/551 268/245/551 274/239/551
f 267/52/552 273/54/552 274/239/552
f 30/246/553 266/248/553 272/242/553
f 265/247/554 271/241/554 272/242/554
f 265/247/555 264/249/555 270/244/555
f 264/249/556 263/250/556 269/243/556
f 263/250/557 262/251/557 268/245/557
f 261/50/558 267/52/558 268/245/558
f 31/252/559 260/254/559 266/248/559
f 259/253/560 265/247/560 266/248/560
f 258/255/561 264/249/561 265/247/561
f 257/256/562 263/250/562 264/249/562
f 257/256/563 256/257/563 262/251/563
f 256/257/564 255/48/564 261/50/564
f 254/258/565 260/254/565 31/252/565
f 253/260/566 259/253/566 260/254/566
f 253/260/567 252/261/567 258/255/567
f 252/261/568 251/263/568 257/256/568
f 250/262/569 256/257/569 257/256/569
f 250/262/570 249/46/570 255/48/570
f 248/264/571 254/258/571 32/259/571
f 248/264/572 247/267/572 253/260/572
f 246/266/573 252/261/573 253/260/573
f 245/268/574 251/263/574 252/261/574
f 245/268/575 244/269/575 250/262/575
f 243/44/576 249/46/576 250/262/576
f 34/270/577 242/271/577 248/264/577
f 242/271/578 241/273/578 247/267/578
f 240/272/579 246/266/579 247/267/579
f 239/274/580 245/268/580 246/266/580
f 239/274/581 238/275/581 244/269/581
f 238/275/582 237/43/582 243/44/582
f 35/276/583 236/278/583 242/271/583
f 235/277/584 241/273/584 242/271/584
f 234/279/585 240/272/585 241/273/585
f 233/280/586 239/274/586 240/272/586
f 233/280/587 232/281/587 238/275/587
f 231/41/588 237/43/588 238/275/588
f 36/282/589 230/283/589 236/278/589
f 230/283/590 229/285/590 235/277/590
f 228/284/591 234/279/591 235/277/591
f 228/284/592 227/287/592 233/280/592
f 226/286/593 232/281/593 233/280/593
f 225/39/594 231/41/594 232/281/594
f 37/288/595 224/290/595 230/283/595
f 223/289/596 229/285/596 230/283/596
f 223/289/597 222/292/597 228/284/597
f 221/291/598 227/287/598 228/284/598
f 220/293/599 226/286/599 227/287/599
f 219/37/600 225/39/600 226/286/600
f 218/294/601 224/290/601 37/288/601
f 217/296/602 223/289/602 224/290/602
f 217/296/603 216/298/603 222/292/603
f 215/297/604 221/291/604 222/292/604
f 214/299/605 220/293/605 221/291/605
f 214/299/606 213/35/606 219/37/606
f 212/300/607 218/294/607 38/295/607
f 211/302/608 217/296/608 218/294/608
f 211/302/609 210/303/609 216/298/609
f 210/303/610 209/305/610 215/297/610
f 208/304/611 214/299/611 215/297/611
f 208/304/612 207/33/612 213/35/612
f 206/306/613 212/300/613 39/301/613
f 206/306/614 205/308/614 211/302/614
f 205/308/615 204/310/615 210/303/615
f 203/309/616 209/305/616 210/303/616
f 202/311/617 208/304/617 209/305/617
f 201/31/618 207/33/618 208/304/618
f 41/312/619 200/314/619 206/306/619
f 199/313/620 205/308/620 206/306/620
f 198/315/621 204/310/621 205/308/621
f 198/315/622 197/317/622 203/309/622
f 196/316/623 202/311/623 203/309/623
f 196/316/624 195/29/624 201/31/624
f 42/318/625 194/319/625 200/314/625
f 194/319/626 193/321/626 199/313/626
f 192/320/627 198/315/627 199/313/627
f 192/320/628 191/323/628 197/317/628
f 190/322/629 196/316/629 197/317/629
f 190/322/630 189/27/630 195/29/630
f 188/324/631 194/319/631 42/318/631
f 187/326/632 193/321/632 194/319/632
f 187/326/633 186/327/633 192/320/633
f 186/327/634 185/329/634 191/323/634
f 184/328/635 190/322/635 191/323/635
f 183/26/636 189/27/636 190/322/636
f 44/330/637 182/332/637 188/324/637
f 181/331/638 187/326/638 188/324/638
f 181/331/639 180/334/639 186/327/639
f 179/333/640 185/329/640 186/327/640
f 178/335/641 184/328/641 185/329/641
f 178/335/642 177/24/642 183/26/642
f 45/336/643 176/338/643 182/332/643
f 175/337/644 181/331/644 182/332/644
f 175/337/645 174/340/645 180/334/645
f 173/339/646 179/333/646 180/334/646
f 173/339/647 172/341/647 178/335/647
f 172/341/648 171/22/648 177/24/648
f 170/342/649 176/338/649 45/336/649
f 170/342/650 169/344/650 175/337/650
f 169/344/651 168/345/651 174/340/651
f 168/345/652 167/346/652 173/339/652
f 167/346/653 166/347/653 172/341/653
f 166/347/654 165/20/654 171/22/654
f 47/348/655 164/350/655 170/342/655
f 163/349/656 169/344/656 170/342/656
f 162/351/657 168/345/657 169/344/657
f 162/351/658 161/352/658 167/346/658
f 161/352/659 160/353/659 166/347/659
f 159/18/660 165/20/660 166/347/660
f 48/354/661 158/356/661 164/350/661
f 157/355/662 163/349/662 164/350/662
f 157/355/663 156/358/663 162/351/663
f 155/357/664 161/352/664 162/351/664
f 154/359/665 160/353/665 161/352/665
f 153/16/666 159/18/666 160/353/666
f 49/360/667 152/362/667 158/356/667
f 151/361/668 157/355/668 158/356/668
f 151/361/669 150/363/669 156/358/669
f 150/363/670 149/364/670 155/357/670
f 149/364/671 148/365/671 154/359/671
f 148/365/672 147/15/672 153/16/672
f 50/366/673 146/368/673 152/362/673
f 145/367/674 151/361/674 152/362/674
f 144/369/675 150/363/675 151/361/675
f 144/369/676 143/370/676 149/364/676
f 143/370/677 142/371/677 148/365/677
f 142/371/678 141/13/678 147/15/678
f 51/372/679 140/374/679 146/368/679
f 139/373/680 145/367/680 146/368/680
f 139/373/681 138/376/681 144/369/681
f 137/375/682 143/370/682 144/369/682
f 137/375/683 136/377/683 142/371/683
f 135/12/684 141/13/684 142/371/684
f 52/378/685 134/380/685 140/374/685
f 133/379/686 139/373/686 140/374/686
f 132/381/687 138/376/687 139/373/687
f 132/381/688 131/383/688 137/375/688
f 130/382/689 136/377/689 137/375/689
f 129/10/690 135/12/690 136/377/690
f 128/384/691 134/380/691 52/378/691
f 127/386/692 133/379/692 134/380/692
f 127/386/693 126/387/693 132/381/693
f 126/387/694 125/389/694 131/383/694
f 124/388/695 130/382/695 131/383/695
f 123/8/696 129/10/696 130/382/696
f 122/390/697 128/384/697 53/385/697
f 121/392/698 127/386/698 128/384/698
f 121/392/699 120/394/699 126/387/699
f 119/393/700 125/389/700 126/387/700
f 118/395/701 124/388/701 125/389/701
f 117/5/702 123/8/702 124/388/702
f 1/396/703 105/398/703 122/390/703
f 106/397/704 121/392/704 122/390/704
f 106/397/705 107/400/705 120/394/705
f 108/399/706 119/393/706 120/394/706
f 108/399/707 109/401/707 118/395/707
f 110/6/708 117/5/708 118/395/708
f 416/100/709 116/404/709 3/402/709
f 416/100/710 415/99/710 115/403/710
f 414/104/711 114/406/711 115/403/711
f 414/104/712 413/103/712 113/405/712
f 412/107/713 112/407/713 113/405/713
f 412/107/714 411/3/714 111/2/714
