# Blender 4.5.2 LTS
# www.blender.org
mtllib hangar.mtl
o 円柱
v -0.000000 33.809460 54.635807
v -0.000000 33.809460 -54.635807
v -12.938322 31.235868 54.635807
v -12.938322 31.235868 -54.635807
v -23.906898 23.906898 54.635807
v -23.906898 23.906898 -54.635807
v -31.235868 12.938323 54.635807
v -31.235868 12.938320 -54.635807
v -33.809460 0.000001 54.635807
v -33.809460 -0.000001 -54.635807
v -31.235868 -12.938320 54.635807
v -31.235868 -12.938323 -54.635807
v -23.906898 -23.906898 54.635807
v -23.906898 -23.906898 -54.635807
v -12.938322 -31.235868 54.635807
v -12.938322 -31.235868 -54.635807
v -0.000000 -33.809460 54.635807
v -0.000000 -33.809460 -54.635807
v 12.938322 -31.235868 54.635807
v 12.938322 -31.235868 -54.635807
v 23.906898 -23.906898 54.635807
v 23.906898 -23.906898 -54.635807
v 31.235868 -12.938320 54.635807
v 31.235868 -12.938323 -54.635807
v 33.809460 0.000001 54.635807
v 33.809460 -0.000001 -54.635807
v 31.235868 12.938323 54.635807
v 31.235868 12.938320 -54.635807
v 23.906898 23.906898 54.635807
v 23.906898 23.906898 -54.635807
v 12.938322 31.235868 54.635807
v 12.938322 31.235868 -54.635807
vn 0.1951 -0.9808 -0.0000
vn 0.5556 -0.8315 -0.0000
vn 0.8315 -0.5556 -0.0000
vn 0.9808 -0.1951 -0.0000
vn 0.9808 0.1951 -0.0000
vn 0.8315 0.5556 -0.0000
vn 0.5556 0.8315 -0.0000
vn 0.1951 0.9808 -0.0000
vn -0.1951 0.9808 -0.0000
vn -0.5556 0.8315 -0.0000
vn -0.8315 0.5556 -0.0000
vn -0.9808 0.1951 -0.0000
vn -0.9808 -0.1951 -0.0000
vn -0.8315 -0.5556 -0.0000
vn -0.0000 -0.0000 1.0000
vn -0.5556 -0.8315 -0.0000
vn -0.1951 -0.9808 -0.0000
vn -0.0000 -0.0000 -1.0000
vt 1.000000 0.500000
vt 0.937500 0.500000
vt 0.937500 1.000000
vt 1.000000 1.000000
vt 0.875000 0.500000
vt 0.875000 1.000000
vt 0.812500 0.500000
vt 0.812500 1.000000
vt 0.750000 0.500000
vt 0.750000 1.000000
vt 0.687500 0.500000
vt 0.687500 1.000000
vt 0.625000 0.500000
vt 0.625000 1.000000
vt 0.562500 0.500000
vt 0.562500 1.000000
vt 0.500000 0.500000
vt 0.500000 1.000000
vt 0.437500 0.500000
vt 0.437500 1.000000
vt 0.375000 0.500000
vt 0.375000 1.000000
vt 0.312500 0.500000
vt 0.312500 1.000000
vt 0.250000 0.500000
vt 0.250000 1.000000
vt 0.187500 0.500000
vt 0.187500 1.000000
vt 0.125000 0.500000
vt 0.125000 1.000000
vt 0.341844 0.471731
vt 0.419706 0.419706
vt 0.471731 0.341844
vt 0.490000 0.250000
vt 0.471731 0.158156
vt 0.419706 0.080294
vt 0.341844 0.028269
vt 0.250000 0.010000
vt 0.158156 0.028269
vt 0.080294 0.080294
vt 0.028269 0.158156
vt 0.010000 0.250000
vt 0.028269 0.341844
vt 0.080294 0.419706
vt 0.158156 0.471731
vt 0.250000 0.490000
vt 0.062500 0.500000
vt 0.062500 1.000000
vt 0.000000 0.500000
vt 0.000000 1.000000
vt 0.750000 0.490000
vt 0.658156 0.471731
vt 0.580294 0.419706
vt 0.528269 0.341844
vt 0.510000 0.250000
vt 0.528269 0.158156
vt 0.580294 0.080294
vt 0.658156 0.028269
vt 0.750000 0.010000
vt 0.841844 0.028269
vt 0.919706 0.080294
vt 0.971731 0.158156
vt 0.990000 0.250000
vt 0.971731 0.341844
vt 0.919706 0.419706
vt 0.841844 0.471731
s 0
f 1/1/1 3/2/1 4/3/1 2/4/1
f 3/2/2 5/5/2 6/6/2 4/3/2
f 5/5/3 7/7/3 8/8/3 6/6/3
f 7/7/4 9/9/4 10/10/4 8/8/4
f 9/9/5 11/11/5 12/12/5 10/10/5
f 11/11/6 13/13/6 14/14/6 12/12/6
f 13/13/7 15/15/7 16/16/7 14/14/7
f 15/15/8 17/17/8 18/18/8 16/16/8
f 17/17/9 19/19/9 20/20/9 18/18/9
f 19/19/10 21/21/10 22/22/10 20/20/10
f 21/21/11 23/23/11 24/24/11 22/22/11
f 23/23/12 25/25/12 26/26/12 24/24/12
f 25/25/13 27/27/13 28/28/13 26/26/13
f 27/27/14 29/29/14 30/30/14 28/28/14
f 4/31/15 6/32/15 8/33/15 10/34/15 12/35/15 14/36/15 16/37/15 18/38/15 20/39/15 22/40/15 24/41/15 26/42/15 28/43/15 30/44/15 32/45/15 2/46/15
f 29/29/16 31/47/16 32/48/16 30/30/16
f 31/47/17 1/49/17 2/50/17 32/48/17
f 1/51/18 31/52/18 29/53/18 27/54/18 25/55/18 23/56/18 21/57/18 19/58/18 17/59/18 15/60/18 13/61/18 11/62/18 9/63/18 7/64/18 5/65/18 3/66/18
