# Blender 4.5.2 LTS
# www.blender.org
mtllib player.mtl
o 立方体
v -3.539929 0.728825 -9.073697
v -0.758549 -0.652848 8.030998
v -2.241714 -0.272792 -9.073697
v -1.190058 0.728825 8.030998
v -3.488396 -0.019014 -9.073696
v -4.175277 0.149075 -9.073697
v -1.169374 -0.652848 7.252641
v -2.164942 0.226153 6.321885
v 0.000000 0.661216 10.446349
v -0.903684 -1.136721 6.573411
v -0.903684 -1.041465 4.653106
v -3.106936 -0.447333 -0.770586
v -0.903684 -0.449755 -2.595644
v -0.903684 -0.526985 -5.848985
v -2.671665 -0.491014 -5.848985
v -1.431059 -0.649818 -2.595644
v -3.294596 -0.615510 -0.786228
v -2.054354 -0.576346 5.002666
v -1.169374 -1.136721 6.573411
v -2.397349 0.226153 6.025014
v -2.870878 0.219516 5.781586
v -4.268553 -0.446382 -0.101281
v -2.671665 -0.446382 -2.797125
v -1.213590 0.728825 7.164379
v -2.201900 0.538620 3.304731
v -2.201900 0.728825 -3.015432
v 0.000000 1.145507 8.409441
v 0.000000 1.806485 5.679046
v 0.000000 1.946767 3.384414
v 0.000000 0.775117 -6.715477
v 0.000000 -1.135513 7.164379
v 0.000000 -1.041465 3.911037
v 0.000000 -0.647438 -2.595644
v 0.000000 -0.929923 -7.276910
v -0.573230 0.280162 9.745943
v -2.469266 0.728825 -9.073697
v -0.949688 0.728825 7.164379
v -1.386522 0.728825 3.911037
v -5.751190 0.728825 -1.141425
v -1.375203 0.728825 -3.025624
v -0.949688 0.728825 -5.848985
v 0.007404 -1.097332 7.164379
v -0.573230 -0.449755 -2.595644
v -0.643782 0.680821 9.745943
v -6.919655 -0.203544 2.507315
v -9.566776 0.111945 -0.248414
v -9.566776 0.111945 -1.689464
v -6.250676 0.305764 0.839651
v -9.097009 0.305764 -0.248414
v -9.097009 0.305764 -2.005429
v -6.107265 -0.361236 -5.848985
v -6.107265 -0.361236 -7.418977
v -5.637499 -0.035001 -7.002914
v -5.637499 -0.035001 -5.848985
v -3.795254 2.724968 -6.644014
v -3.795254 2.724968 -7.755823
v -3.578767 2.724968 -6.644014
v -3.578767 2.724968 -7.755823
v -0.286615 0.470689 10.096146
v -0.286615 -0.571252 -2.595644
v -0.286615 -0.998955 -6.562947
v -0.474844 1.093566 7.786911
v -0.648387 1.337796 4.795042
v -0.620210 1.337796 3.443423
v -0.474844 0.751971 -6.120391
v -0.321891 0.671018 10.096146
v 0.000000 0.304642 -1.666491
v -0.949688 0.527429 -4.165502
v -0.474844 0.135777 -2.440824
v -2.890821 0.228016 -9.073697
v -3.831836 0.065031 -9.073697
v -0.761459 -0.146925 -5.848985
v -1.682008 0.257868 -9.073697
v -2.671665 -0.498618 -4.432452
v 0.000000 0.021438 -8.662531
v -0.380730 -0.062743 -7.469923
v -1.139444 0.139535 -2.810634
v -4.112226 -0.105850 -1.010199
v -0.761947 0.786532 2.781152
v 0.000000 1.091018 1.810833
v 3.539929 0.728825 -9.073697
v 0.758549 -0.652848 8.030998
v 2.241714 -0.272792 -9.073697
v 1.190058 0.728825 8.030998
v 3.488396 -0.019014 -9.073696
v 4.175277 0.149075 -9.073697
v 1.169374 -0.652848 7.252641
v 2.164942 0.226153 6.321885
v 0.903684 -1.136721 6.573411
v 0.903684 -1.041465 4.653106
v 3.106936 -0.447333 -0.770586
v 0.903684 -0.449755 -2.595644
v 0.903684 -0.526985 -5.848985
v 2.671665 -0.491014 -5.848985
v 1.431059 -0.649818 -2.595644
v 3.294596 -0.615510 -0.786228
v 2.054354 -0.576346 5.002666
v 1.169374 -1.136721 6.573411
v 2.397349 0.226153 6.025014
v 2.870878 0.219516 5.781586
v 4.268553 -0.446382 -0.101281
v 2.671665 -0.446382 -2.797125
v 1.213590 0.728825 7.164379
v 2.201900 0.538620 3.304731
v 2.201900 0.728825 -3.015432
v 0.573230 0.280162 9.745943
v 2.469266 0.728825 -9.073697
v 0.949688 0.728825 7.164379
v 1.386522 0.728825 3.911037
v 5.751190 0.728825 -1.141425
v 1.375203 0.728825 -3.025624
v 0.949688 0.728825 -5.848985
v -0.007404 -1.097332 7.164379
v 0.573230 -0.449755 -2.595644
v 0.643782 0.680821 9.745943
v 6.919655 -0.203544 2.507315
v 9.566776 0.111945 -0.248414
v 9.566776 0.111945 -1.689464
v 6.250676 0.305764 0.839651
v 9.097009 0.305764 -0.248414
v 9.097009 0.305764 -2.157603
v 6.107265 -0.361236 -5.848985
v 6.107265 -0.361236 -7.418977
v 5.637499 -0.035001 -7.002914
v 5.637499 -0.035001 -5.848985
v 3.795254 2.724968 -6.644014
v 3.795254 2.724968 -7.755823
v 3.578767 2.724968 -6.644014
v 3.578767 2.724968 -7.755823
v 0.286615 0.470689 10.096146
v 0.286615 -0.571252 -2.595644
v 0.286615 -0.998955 -6.562947
v 0.474844 1.093566 7.786911
v 0.648387 1.337796 4.795042
v 0.620210 1.337796 3.443423
v 0.474844 0.751971 -6.120391
v 0.321891 0.671018 10.096146
v 0.949688 0.527429 -4.165502
v 0.474844 0.135777 -2.440824
v 2.890821 0.228016 -9.073697
v 3.831836 0.065031 -9.073697
v 0.761459 -0.146925 -5.848985
v 1.682008 0.257868 -9.073697
v 2.671665 -0.498618 -4.432452
v 0.380730 -0.062743 -7.469923
v 1.139444 0.139535 -2.810634
v 4.112226 -0.105850 -1.010199
v 0.761947 0.786532 2.781152
vn -0.9410 -0.1657 0.2951
vn -0.7887 -0.4525 0.4163
vn -0.2373 -0.9697 -0.0584
vn -0.0203 -0.9973 -0.0702
vn -0.4750 0.6839 0.5538
vn -0.0000 -0.0000 -1.0000
vn -0.3507 0.9168 0.1910
vn -0.6680 0.7375 0.0990
vn -0.7012 0.7128 -0.0146
vn -0.5270 0.8382 0.1404
vn -0.7161 0.4157 0.5606
vn -0.0699 0.9916 0.1089
vn -0.1582 0.9730 0.1679
vn -0.1044 -0.9944 -0.0135
vn -0.5829 -0.7520 0.3077
vn -0.0000 -0.9988 -0.0495
vn -0.3625 -0.9309 0.0453
vn 0.3259 -0.8591 0.3946
vn 0.3546 -0.9348 0.0222
vn 0.0276 -0.8793 0.4754
vn -0.0141 -0.9998 -0.0171
vn -0.1011 -0.2384 0.9659
vn -0.0000 -0.2556 0.9668
vn -0.0000 -0.9997 0.0237
vn -0.7583 -0.5310 0.3783
vn -0.7670 -0.6039 0.2167
vn -0.1451 -0.9887 0.0378
vn -0.1405 -0.9820 -0.1261
vn -0.1132 -0.9936 -0.0053
vn -0.5369 -0.8388 0.0904
vn 0.8656 0.4361 0.2461
vn 0.4330 0.4567 0.7771
vn 0.0088 -0.8814 0.4723
vn 0.2596 0.9589 0.1147
vn -0.0000 1.0000 -0.0000
vn -0.4941 0.7575 0.4268
vn -0.2360 0.9717 0.0125
vn -0.0000 0.5510 -0.8345
vn 0.9479 0.2037 -0.2450
vn -0.7319 -0.1289 0.6691
vn -0.3449 0.8359 0.4270
vn -0.3814 0.9244 -0.0000
vn -0.1360 -0.1281 -0.9824
vn -0.2519 0.9492 0.1888
vn -0.0890 -0.9946 -0.0527
vn -0.1254 0.9921 -0.0000
vn -0.5704 0.8214 -0.0000
vn 0.2554 -0.9668 -0.0000
vn -0.2619 0.9634 0.0578
vn -0.6236 0.6834 -0.3796
vn -0.9919 -0.1269 -0.0000
vn 0.6328 0.7146 -0.2982
vn -0.0000 0.8762 0.4820
vn -0.8008 0.5586 -0.2162
vn -0.9480 0.2388 -0.2103
vn -0.0037 -0.8772 0.4802
vn -0.9817 0.1904 0.0055
vn 0.4159 0.7319 -0.5398
vn -0.5096 -0.5960 -0.6206
vn 0.3637 -0.9298 0.0561
vn 0.0195 0.9927 0.1188
vn -0.4288 0.8240 0.3704
vn -0.6980 0.7100 0.0937
vn -0.6812 0.7260 0.0942
vn -0.7998 -0.4572 -0.3890
vn -0.8172 -0.4413 -0.3707
vn 0.8647 -0.3236 -0.3843
vn -0.2369 -0.9681 -0.0817
vn -0.7033 0.6131 -0.3598
vn 0.8092 -0.4498 -0.3780
vn 0.5625 0.4726 0.6784
vn 0.9410 -0.1657 0.2951
vn 0.8068 -0.2520 0.5343
vn 0.4677 -0.8835 0.0282
vn 0.0203 -0.9973 -0.0702
vn 0.6374 0.3794 0.6706
vn 0.2167 0.9498 0.2258
vn 0.3831 0.8978 0.2173
vn 0.6269 0.7776 0.0475
vn 0.5270 0.8382 0.1404
vn 0.4761 0.8793 0.0129
vn 0.4465 0.8920 0.0704
vn 0.1582 0.9730 0.1679
vn -0.0159 -0.9939 0.1087
vn 0.5829 -0.7520 0.3077
vn 0.3625 -0.9309 0.0453
vn -0.5284 -0.6413 0.5563
vn -0.3546 -0.9348 0.0222
vn -0.0276 -0.8793 0.4754
vn -0.0751 -0.9960 -0.0494
vn 0.1011 -0.2384 0.9659
vn 0.8004 0.4981 0.3335
vn 0.7658 -0.2326 0.5995
vn 0.7670 -0.6039 0.2167
vn 0.5624 -0.7960 0.2237
vn 0.2813 -0.9450 -0.1666
vn 0.1667 -0.9855 0.0315
vn 0.3896 -0.9190 0.0614
vn -0.8656 0.4361 0.2461
vn -0.4330 0.4567 0.7771
vn -0.0088 -0.8814 0.4723
vn 0.0022 0.9846 -0.1748
vn 0.4941 0.7575 0.4268
vn -0.0469 0.9988 0.0130
vn -0.9479 0.2037 -0.2450
vn 0.7319 -0.1289 0.6691
vn 0.0974 0.9621 0.2548
vn 0.3814 0.9244 -0.0000
vn 0.1140 -0.1372 -0.9840
vn 0.1154 0.9886 0.0962
vn 0.0890 -0.9946 -0.0527
vn 0.0791 0.9855 -0.1498
vn 0.5704 0.8214 -0.0000
vn -0.0749 -0.9909 -0.1119
vn 0.2619 0.9634 0.0578
vn 0.6236 0.6834 -0.3796
vn 0.9105 -0.3612 0.2011
vn -0.6328 0.7146 -0.2982
vn -0.5404 0.8068 0.2388
vn 0.5921 0.6710 -0.4464
vn 0.4896 -0.1052 -0.8656
vn 0.0037 -0.8772 0.4802
vn 0.9817 0.1904 0.0055
vn -0.4159 0.7319 -0.5398
vn 0.5312 -0.5945 -0.6037
vn 0.2555 -0.9612 0.1036
vn -0.2089 0.9645 0.1615
vn 0.6270 0.7789 -0.0131
vn 0.6843 0.7225 0.0987
vn 0.1756 0.9663 0.1884
vn 0.9181 0.3436 -0.1978
vn 0.8172 -0.4413 -0.3707
vn -0.8647 -0.3236 -0.3843
vn 0.4212 -0.9070 -0.0049
vn 0.6722 0.6504 -0.3537
vn -0.3832 0.7643 -0.5186
vn -0.5625 0.4726 0.6784
vn -0.9226 -0.2881 0.2565
vn -0.8068 -0.2520 0.5343
vn -0.4677 -0.8835 0.0282
vn -0.1986 -0.9757 -0.0925
vn -0.6374 0.3794 0.6706
vn -0.2167 0.9498 0.2258
vn -0.3831 0.8978 0.2173
vn -0.6269 0.7776 0.0475
vn 0.0676 0.9934 0.0926
vn -0.4761 0.8793 0.0129
vn -0.4465 0.8920 0.0704
vn -0.0729 0.9789 0.1907
vn 0.0159 -0.9939 0.1087
vn -0.0000 -0.8145 0.5802
vn -0.3989 -0.9115 -0.1004
vn 0.6674 -0.7318 -0.1380
vn 0.5284 -0.6413 0.5563
vn -0.0203 -0.9990 -0.0410
vn -0.1711 -0.9299 0.3257
vn 0.0751 -0.9960 -0.0494
vn -0.1825 -0.6867 0.7036
vn -0.7729 -0.3251 0.5449
vn -0.8004 0.4981 0.3335
vn -0.7658 -0.2326 0.5995
vn -0.2656 -0.7996 0.5385
vn -0.5624 -0.7960 0.2237
vn -0.2813 -0.9450 -0.1666
vn -0.1667 -0.9855 0.0315
vn -0.3896 -0.9190 0.0614
vn 0.2909 0.6774 0.6756
vn -0.0022 0.9846 -0.1748
vn 0.0469 0.9988 0.0130
vn 0.4990 0.8341 -0.2351
vn -0.0974 0.9621 0.2548
vn -0.1674 -0.7098 -0.6843
vn -0.1154 0.9886 0.0962
vn -0.1048 -0.9945 -0.0000
vn -0.0835 0.9839 -0.1582
vn 0.0749 -0.9909 -0.1119
vn -0.3422 0.9396 -0.0000
vn -0.4193 0.8814 -0.2177
vn -0.9105 -0.3612 0.2011
vn 0.8741 0.4858 -0.0000
vn 0.5404 0.8068 0.2388
vn -0.5921 0.6710 -0.4464
vn -0.4896 -0.1052 -0.8656
vn -0.9626 0.1867 -0.1964
vn 0.4800 0.6210 -0.6196
vn -0.5312 -0.5945 -0.6037
vn -0.2555 -0.9612 0.1036
vn 0.2089 0.9645 0.1615
vn -0.6270 0.7789 -0.0131
vn -0.6843 0.7225 0.0987
vn -0.1756 0.9663 0.1884
vn -0.9181 0.3436 -0.1978
vn -0.8466 -0.4387 -0.3012
vn 0.6612 -0.6974 -0.2763
vn -0.4212 -0.9070 -0.0049
vn -0.6722 0.6504 -0.3537
vn 0.3832 0.7643 -0.5186
vn 0.1934 0.8774 0.4390
vn 0.9226 -0.2881 0.2565
vn 0.7887 -0.4525 0.4163
vn 0.2373 -0.9697 -0.0584
vn 0.1986 -0.9757 -0.0925
vn 0.4750 0.6839 0.5538
vn 0.3507 0.9168 0.1910
vn 0.6680 0.7375 0.0990
vn 0.7012 0.7128 -0.0146
vn -0.0676 0.9934 0.0926
vn 0.7161 0.4157 0.5606
vn 0.0699 0.9916 0.1089
vn 0.0729 0.9789 0.1907
vn 0.1044 -0.9944 -0.0135
vn 0.3989 -0.9115 -0.1004
vn -0.6674 -0.7318 -0.1380
vn -0.3259 -0.8591 0.3946
vn 0.0203 -0.9990 -0.0410
vn 0.1711 -0.9299 0.3257
vn 0.0141 -0.9998 -0.0171
vn 0.7729 -0.3251 0.5449
vn 0.1825 -0.6867 0.7036
vn 0.7583 -0.5310 0.3783
vn 0.2656 -0.7996 0.5385
vn 0.1451 -0.9887 0.0378
vn 0.1405 -0.9820 -0.1261
vn 0.1132 -0.9936 -0.0053
vn 0.5369 -0.8388 0.0904
vn -0.2909 0.6774 0.6756
vn -0.2596 0.9589 0.1147
vn 0.2360 0.9717 0.0125
vn -0.4990 0.8341 -0.2351
vn 0.3449 0.8359 0.4270
vn 0.1497 -0.8514 -0.5027
vn 0.2519 0.9492 0.1888
vn 0.1048 -0.9945 -0.0000
vn 0.1254 0.9921 -0.0000
vn -0.2554 -0.9668 -0.0000
vn 0.3422 0.9396 -0.0000
vn 0.4193 0.8814 -0.2177
vn 0.9919 -0.1269 -0.0000
vn -0.8741 0.4858 -0.0000
vn 0.8008 0.5586 -0.2162
vn 0.9480 0.2388 -0.2103
vn 0.9626 0.1867 -0.1964
vn -0.4800 0.6210 -0.6196
vn 0.5096 -0.5960 -0.6206
vn -0.3637 -0.9298 0.0561
vn -0.0195 0.9927 0.1188
vn 0.4288 0.8240 0.3704
vn 0.6980 0.7100 0.0937
vn 0.6812 0.7260 0.0942
vn 0.7998 -0.4572 -0.3890
vn 0.8466 -0.4387 -0.3012
vn -0.6612 -0.6974 -0.2763
vn 0.2369 -0.9681 -0.0817
vn 0.7033 0.6131 -0.3598
vn -0.8092 -0.4498 -0.3780
vn -0.1934 0.8774 0.4390
vt 0.625000 0.437500
vt 0.552505 0.393124
vt 0.625000 0.393124
vt 0.375000 0.437500
vt 0.625000 0.500000
vt 0.375000 0.500000
vt 0.500000 0.708700
vt 0.625000 0.750000
vt 0.500000 0.750000
vt 0.375000 0.708700
vt 0.312500 0.750000
vt 0.312500 0.708700
vt 0.625000 0.708700
vt 0.687500 0.708700
vt 0.500000 0.812500
vt 0.740938 0.500000
vt 0.750000 0.542033
vt 0.740938 0.542033
vt 0.750000 0.583700
vt 0.740938 0.583700
vt 0.750000 0.625367
vt 0.740938 0.625367
vt 0.750000 0.687867
vt 0.740938 0.708700
vt 0.740938 0.687867
vt 0.687500 0.542033
vt 0.625000 0.542033
vt 0.687500 0.583700
vt 0.625000 0.583700
vt 0.687500 0.625367
vt 0.625000 0.625367
vt 0.312500 0.542033
vt 0.312500 0.500000
vt 0.375000 0.542033
vt 0.312500 0.583700
vt 0.375000 0.583700
vt 0.312500 0.625367
vt 0.375000 0.667033
vt 0.312500 0.667033
vt 0.268124 0.542033
vt 0.268124 0.500000
vt 0.268124 0.583700
vt 0.268124 0.667033
vt 0.259062 0.667033
vt 0.268124 0.708700
vt 0.375000 0.625367
vt 0.625000 0.667033
vt 0.259062 0.708700
vt 0.731876 0.687867
vt 0.522188 0.667033
vt 0.731876 0.667033
vt 0.522188 0.625367
vt 0.259062 0.500000
vt 0.259062 0.542033
vt 0.687500 0.667033
vt 0.731876 0.708700
vt 0.731876 0.625367
vt 0.731876 0.583700
vt 0.687500 0.500000
vt 0.731876 0.542033
vt 0.625000 0.856876
vt 0.500000 0.856876
vt 0.625000 0.812500
vt 0.446562 0.803438
vt 0.500000 0.708700
vt 0.588752 0.384062
vt 0.625000 0.384062
vt 0.687500 0.750000
vt 0.731876 0.750000
vt 0.500000 0.708700
vt 0.750000 0.708700
vt 0.625000 0.375000
vt 0.250000 0.542033
vt 0.250000 0.500000
vt 0.250000 0.583700
vt 0.370469 0.312683
vt 0.000000 0.000000
vt 0.250000 0.667033
vt 0.250000 0.708700
vt 0.731876 0.500000
vt 0.268124 0.750000
vt 0.375000 0.812500
vt 0.375000 0.750000
vt 0.375000 0.312683
vt 0.750000 0.500000
s 0
usemtl マテリアル
f 4/1/1 35/2/1 44/3/1
f 2/4/2 8/5/2 7/6/2
f 74/7/3 6/8/3 71/9/3
f 15/10/4 3/11/4 14/12/4
f 23/13/5 54/14/5 51/13/5
f 6/8/6 70/15/6 71/9/6
f 66/16/7 27/17/7 62/18/7
f 62/18/8 28/19/8 63/20/8
f 63/20/9 29/21/9 64/22/9
f 67/23/10 65/24/10 69/25/10
f 8/5/11 24/26/11 20/27/11
f 20/27/12 25/28/12 21/29/12
f 39/30/13 48/28/13 25/28/13
f 22/31/14 45/29/14 46/31/14
f 7/6/15 10/32/15 2/33/15
f 19/34/16 11/35/16 10/32/16
f 18/36/17 12/37/17 11/35/17
f 12/37/18 16/38/18 13/39/18
f 16/38/19 14/12/19 13/39/19
f 2/33/20 42/40/20 35/41/20
f 42/40/21 11/35/21 32/42/21
f 69/25/22 43/43/22 60/44/22
f 69/25/23 13/39/23 43/43/23
f 43/43/24 13/39/24 14/45/24
f 7/6/25 20/27/25 19/34/25
f 20/27/26 18/36/26 19/34/26
f 18/36/27 22/31/27 17/46/27
f 17/46/28 23/47/28 16/38/28
f 16/38/29 74/7/29 15/10/29
f 60/44/30 14/45/30 61/48/30
f 68/49/31 77/50/31 13/39/31
f 40/51/32 78/52/32 77/50/32
f 59/53/33 35/41/33 42/54/33
f 26/55/34 68/49/34 41/56/34
f 39/57/35 40/51/35 26/55/35
f 25/28/36 38/58/36 39/30/36
f 24/26/37 38/58/37 25/28/37
f 4/59/35 37/60/35 24/26/35
f 70/15/6 36/61/6 73/62/6
f 1/63/38 58/61/38 36/61/38
f 73/64/39 41/56/39 72/65/39
f 44/3/40 59/66/40 66/67/40
f 45/29/41 49/30/41 46/31/41
f 46/31/42 50/55/42 47/47/42
f 23/47/43 50/55/43 26/55/43
f 21/29/44 48/28/44 45/29/44
f 22/31/45 47/47/45 23/47/45
f 39/30/46 50/55/46 49/30/46
f 51/13/47 53/68/47 52/8/47
f 6/8/48 51/13/48 52/8/48
f 1/68/49 54/14/49 26/14/49
f 6/8/50 53/63/50 1/63/50
f 57/56/35 56/68/35 55/14/35
f 1/68/51 55/14/51 56/68/51
f 36/69/52 57/56/52 41/56/52
f 26/14/53 57/56/53 55/14/53
f 76/70/54 30/71/54 75/7/54
f 72/65/55 65/24/55 76/70/55
f 9/72/40 66/67/40 59/66/40
f 59/53/56 31/73/56 9/74/56
f 31/73/57 42/54/57 32/75/57
f 39/57/58 79/76/58 78/52/58
f 79/76/59 32/77/59 11/77/59
f 33/78/60 61/48/60 34/79/60
f 68/49/61 65/24/61 41/56/61
f 38/58/62 64/22/62 39/57/62
f 37/60/63 63/20/63 38/58/63
f 44/80/64 62/18/64 37/60/64
f 14/45/65 76/70/65 61/48/65
f 76/70/66 34/79/66 61/48/66
f 3/81/67 72/65/67 14/45/67
f 3/82/6 70/15/6 73/62/6
f 5/83/6 70/15/6 3/82/6
f 15/10/68 71/9/68 5/83/68
f 64/22/69 80/84/69 79/76/69
f 12/37/70 79/76/70 11/77/70
f 77/50/71 12/37/71 13/39/71
f 106/2/72 84/1/72 115/3/72
f 82/4/73 88/5/73 84/1/73
f 144/7/74 86/8/74 102/13/74
f 83/11/75 94/10/75 93/12/75
f 102/13/76 125/14/76 105/14/76
f 140/15/6 86/8/6 141/9/6
f 137/16/77 27/17/77 9/85/77
f 133/18/78 28/19/78 27/17/78
f 134/20/79 29/21/79 28/19/79
f 136/24/80 67/23/80 139/25/80
f 88/5/81 103/26/81 84/59/81
f 99/27/82 104/28/82 103/26/82
f 119/28/83 110/30/83 104/28/83
f 101/31/84 116/29/84 100/29/84
f 89/32/85 87/6/85 82/33/85
f 90/35/16 98/34/16 89/32/16
f 91/37/86 97/36/86 90/35/86
f 91/37/87 95/38/87 96/46/87
f 93/12/88 95/38/88 92/39/88
f 113/40/89 82/33/89 106/41/89
f 113/40/90 90/35/90 89/32/90
f 131/44/91 114/43/91 139/25/91
f 139/25/92 92/39/92 138/49/92
f 114/43/24 93/45/24 92/39/24
f 87/6/93 99/27/93 88/5/93
f 97/36/94 99/27/94 98/34/94
f 97/36/95 101/31/95 100/29/95
f 96/46/96 102/47/96 101/31/96
f 95/38/97 144/7/97 102/13/97
f 131/44/98 93/45/98 114/43/98
f 138/49/99 146/50/99 111/51/99
f 147/52/100 111/51/100 146/50/100
f 130/53/101 113/54/101 106/41/101
f 105/55/102 138/49/102 111/51/102
f 110/57/35 105/55/35 111/51/35
f 104/28/103 110/30/103 109/58/103
f 103/26/35 109/58/35 108/60/35
f 84/59/104 108/60/104 115/80/104
f 140/15/6 107/61/6 81/63/6
f 129/61/38 81/63/38 107/61/38
f 112/56/105 143/64/105 142/65/105
f 130/66/106 115/3/106 137/67/106
f 116/29/107 120/30/107 119/28/107
f 117/31/108 121/55/108 120/30/108
f 121/55/109 102/47/109 105/55/109
f 100/29/110 119/28/110 104/28/110
f 118/47/111 101/31/111 102/47/111
f 110/30/112 121/55/112 105/55/112
f 122/13/113 124/68/113 125/14/113
f 86/8/114 122/13/114 102/13/114
f 125/14/115 81/68/115 105/14/115
f 124/63/116 86/8/116 81/63/116
f 127/68/35 128/56/35 126/14/35
f 81/68/117 126/14/117 105/14/117
f 128/56/118 107/69/118 112/56/118
f 105/14/119 128/56/119 112/56/119
f 145/70/120 30/71/120 136/24/120
f 142/65/121 136/24/121 112/56/121
f 9/72/106 130/66/106 137/67/106
f 31/73/122 130/53/122 9/74/122
f 31/73/123 32/75/123 113/54/123
f 148/76/124 110/57/124 147/52/124
f 148/76/125 32/77/125 80/84/125
f 33/78/126 132/48/126 131/44/126
f 138/49/127 136/24/127 139/25/127
f 109/58/128 135/22/128 134/20/128
f 108/60/129 134/20/129 133/18/129
f 115/80/130 133/18/130 137/16/130
f 93/45/131 145/70/131 142/65/131
f 34/79/132 145/70/132 132/48/132
f 142/65/133 83/81/133 93/45/133
f 83/82/6 143/62/6 140/15/6
f 85/83/6 140/15/6 141/9/6
f 94/10/134 141/9/134 144/7/134
f 135/22/135 80/84/135 29/21/135
f 91/37/136 148/76/136 147/52/136
f 91/37/137 146/50/137 92/39/137
f 4/1/138 2/4/138 35/2/138
f 2/4/139 4/1/139 8/5/139
f 74/7/140 23/13/140 6/8/140
f 15/10/141 5/83/141 3/11/141
f 23/13/142 26/14/142 54/14/142
f 6/8/6 1/63/6 70/15/6
f 66/16/143 9/85/143 27/17/143
f 62/18/144 27/17/144 28/19/144
f 63/20/145 28/19/145 29/21/145
f 67/23/146 30/71/146 65/24/146
f 8/5/147 4/59/147 24/26/147
f 20/27/148 24/26/148 25/28/148
f 39/30/149 49/30/149 48/28/149
f 22/31/150 21/29/150 45/29/150
f 7/6/151 19/34/151 10/32/151
f 19/34/152 18/36/152 11/35/152
f 18/36/153 17/46/153 12/37/153
f 12/37/154 17/46/154 16/38/154
f 16/38/155 15/10/155 14/12/155
f 2/33/156 10/32/156 42/40/156
f 42/40/157 10/32/157 11/35/157
f 33/78/158 67/23/158 60/44/158
f 67/23/159 69/25/159 60/44/159
f 69/25/160 68/49/160 13/39/160
f 7/6/161 8/5/161 20/27/161
f 20/27/162 21/29/162 18/36/162
f 18/36/163 21/29/163 22/31/163
f 17/46/164 22/31/164 23/47/164
f 16/38/165 23/13/165 74/7/165
f 60/44/166 43/43/166 14/45/166
f 68/49/31 40/51/31 77/50/31
f 40/51/167 39/57/167 78/52/167
f 26/55/168 40/51/168 68/49/168
f 24/26/35 37/60/35 38/58/35
f 4/59/169 44/80/169 37/60/169
f 70/15/6 1/63/6 36/61/6
f 1/63/38 56/63/38 58/61/38
f 73/64/170 36/61/170 41/56/170
f 44/3/40 35/2/40 59/66/40
f 45/29/171 48/28/171 49/30/171
f 46/31/42 49/30/42 50/55/42
f 23/47/172 47/47/172 50/55/172
f 21/29/173 25/28/173 48/28/173
f 22/31/174 46/31/174 47/47/174
f 39/30/175 26/55/175 50/55/175
f 51/13/47 54/14/47 53/68/47
f 6/8/176 23/13/176 51/13/176
f 1/68/177 53/68/177 54/14/177
f 6/8/178 52/8/178 53/63/178
f 57/56/35 58/69/35 56/68/35
f 1/68/179 26/14/179 55/14/179
f 36/69/180 58/69/180 57/56/180
f 26/14/181 41/56/181 57/56/181
f 76/70/182 65/24/182 30/71/182
f 72/65/183 41/56/183 65/24/183
f 59/53/184 42/54/184 31/73/184
f 39/57/185 64/22/185 79/76/185
f 79/76/186 80/84/186 32/77/186
f 33/78/187 60/44/187 61/48/187
f 68/49/188 69/25/188 65/24/188
f 38/58/189 63/20/189 64/22/189
f 37/60/190 62/18/190 63/20/190
f 44/80/191 66/16/191 62/18/191
f 14/45/192 72/65/192 76/70/192
f 76/70/193 75/7/193 34/79/193
f 3/81/194 73/64/194 72/65/194
f 5/83/6 71/9/6 70/15/6
f 15/10/195 74/7/195 71/9/195
f 64/22/196 29/21/196 80/84/196
f 12/37/197 78/52/197 79/76/197
f 77/50/198 78/52/198 12/37/198
f 106/2/199 82/4/199 84/1/199
f 82/4/200 87/6/200 88/5/200
f 144/7/201 141/9/201 86/8/201
f 83/11/202 85/83/202 94/10/202
f 102/13/203 122/13/203 125/14/203
f 140/15/6 81/63/6 86/8/6
f 137/16/204 133/18/204 27/17/204
f 133/18/205 134/20/205 28/19/205
f 134/20/206 135/22/206 29/21/206
f 136/24/207 30/71/207 67/23/207
f 88/5/208 99/27/208 103/26/208
f 99/27/209 100/29/209 104/28/209
f 119/28/210 120/30/210 110/30/210
f 101/31/211 117/31/211 116/29/211
f 89/32/151 98/34/151 87/6/151
f 90/35/212 97/36/212 98/34/212
f 91/37/213 96/46/213 97/36/213
f 91/37/214 92/39/214 95/38/214
f 93/12/215 94/10/215 95/38/215
f 113/40/216 89/32/216 82/33/216
f 113/40/217 32/42/217 90/35/217
f 139/25/218 67/23/218 131/44/218
f 67/23/219 33/78/219 131/44/219
f 139/25/23 114/43/23 92/39/23
f 87/6/220 98/34/220 99/27/220
f 97/36/221 100/29/221 99/27/221
f 97/36/222 96/46/222 101/31/222
f 96/46/223 95/38/223 102/47/223
f 95/38/224 94/10/224 144/7/224
f 131/44/225 132/48/225 93/45/225
f 138/49/99 92/39/99 146/50/99
f 147/52/226 110/57/226 111/51/226
f 105/55/227 112/56/227 138/49/227
f 103/26/228 104/28/228 109/58/228
f 84/59/35 103/26/35 108/60/35
f 140/15/6 143/62/6 107/61/6
f 129/61/38 127/63/38 81/63/38
f 112/56/229 107/61/229 143/64/229
f 130/66/106 106/2/106 115/3/106
f 116/29/230 117/31/230 120/30/230
f 117/31/108 118/47/108 121/55/108
f 121/55/231 118/47/231 102/47/231
f 100/29/232 116/29/232 119/28/232
f 118/47/233 117/31/233 101/31/233
f 110/30/234 120/30/234 121/55/234
f 122/13/113 123/8/113 124/68/113
f 86/8/235 123/8/235 122/13/235
f 125/14/236 124/68/236 81/68/236
f 124/63/237 123/8/237 86/8/237
f 127/68/35 129/69/35 128/56/35
f 81/68/238 127/68/238 126/14/238
f 128/56/239 129/69/239 107/69/239
f 105/14/53 126/14/53 128/56/53
f 145/70/240 75/7/240 30/71/240
f 142/65/241 145/70/241 136/24/241
f 31/73/242 113/54/242 130/53/242
f 148/76/243 135/22/243 110/57/243
f 148/76/244 90/77/244 32/77/244
f 33/78/245 34/79/245 132/48/245
f 138/49/246 112/56/246 136/24/246
f 109/58/247 110/57/247 135/22/247
f 108/60/248 109/58/248 134/20/248
f 115/80/249 108/60/249 133/18/249
f 93/45/250 132/48/250 145/70/250
f 34/79/251 75/7/251 145/70/251
f 142/65/252 143/64/252 83/81/252
f 85/83/6 83/82/6 140/15/6
f 94/10/253 85/83/253 141/9/253
f 135/22/254 148/76/254 80/84/254
f 91/37/255 90/77/255 148/76/255
f 91/37/256 147/52/256 146/50/256
