# Blender 4.5.2 LTS
# www.blender.org
mtllib ring.mtl
o トーラス
v 1.250000 0.000000 0.000000
v 1.176777 0.176777 0.000000
v 1.000000 0.250000 0.000000
v 0.823223 0.176777 0.000000
v 0.750000 0.000000 0.000000
v 0.823223 -0.176777 0.000000
v 1.000000 -0.250000 0.000000
v 1.176777 -0.176777 0.000000
v 1.154849 0.000000 -0.478354
v 1.087200 0.176777 -0.450333
v 0.923880 0.250000 -0.382683
v 0.760559 0.176777 -0.315034
v 0.692910 0.000000 -0.287013
v 0.760559 -0.176777 -0.315034
v 0.923880 -0.250000 -0.382683
v 1.087200 -0.176777 -0.450333
v 0.883883 0.000000 -0.883884
v 0.832107 0.176777 -0.832107
v 0.707107 0.250000 -0.707107
v 0.582107 0.176777 -0.582107
v 0.530330 0.000000 -0.530330
v 0.582107 -0.176777 -0.582107
v 0.707107 -0.250000 -0.707107
v 0.832107 -0.176777 -0.832107
v 0.478355 0.000000 -1.154849
v 0.450333 0.176777 -1.087200
v 0.382684 0.250000 -0.923879
v 0.315034 0.176777 -0.760559
v 0.287013 0.000000 -0.692910
v 0.315034 -0.176777 -0.760559
v 0.382684 -0.250000 -0.923879
v 0.450333 -0.176777 -1.087200
v 0.000000 0.000000 -1.250000
v 0.000000 0.176777 -1.176777
v 0.000000 0.250000 -1.000000
v 0.000000 0.176777 -0.823223
v 0.000000 0.000000 -0.750000
v 0.000000 -0.176777 -0.823223
v 0.000000 -0.250000 -1.000000
v 0.000000 -0.176777 -1.176777
v -0.478354 0.000000 -1.154849
v -0.450333 0.176777 -1.087200
v -0.382684 0.250000 -0.923880
v -0.315034 0.176777 -0.760559
v -0.287013 0.000000 -0.692910
v -0.315034 -0.176777 -0.760559
v -0.382684 -0.250000 -0.923880
v -0.450333 -0.176777 -1.087200
v -0.883884 0.000000 -0.883883
v -0.832107 0.176777 -0.832107
v -0.707107 0.250000 -0.707107
v -0.582107 0.176777 -0.582107
v -0.530330 0.000000 -0.530330
v -0.582107 -0.176777 -0.582107
v -0.707107 -0.250000 -0.707107
v -0.832107 -0.176777 -0.832107
v -1.154849 0.000000 -0.478354
v -1.087200 0.176777 -0.450333
v -0.923880 0.250000 -0.382683
v -0.760559 0.176777 -0.315034
v -0.692910 0.000000 -0.287013
v -0.760559 -0.176777 -0.315034
v -0.923880 -0.250000 -0.382683
v -1.087200 -0.176777 -0.450333
v -1.250000 0.000000 -0.000000
v -1.176777 0.176777 -0.000000
v -1.000000 0.250000 -0.000000
v -0.823223 0.176777 -0.000000
v -0.750000 0.000000 -0.000000
v -0.823223 -0.176777 -0.000000
v -1.000000 -0.250000 -0.000000
v -1.176777 -0.176777 -0.000000
v 0.000000 0.000000 1.250000
v 0.000000 0.176777 1.176777
v 0.000000 0.250000 1.000000
v 0.000000 0.176777 0.823223
v 0.000000 0.000000 0.750000
v 0.000000 -0.176777 0.823223
v 0.000000 -0.250000 1.000000
v 0.000000 -0.176777 1.176777
v 0.478355 0.000000 1.154849
v 0.450333 0.176777 1.087200
v 0.382684 0.250000 0.923879
v 0.315034 0.176777 0.760559
v 0.287013 0.000000 0.692910
v 0.315034 -0.176777 0.760559
v 0.382684 -0.250000 0.923879
v 0.450333 -0.176777 1.087200
v 0.883883 0.000000 0.883884
v 0.832106 0.176777 0.832107
v 0.707106 0.250000 0.707107
v 0.582106 0.176777 0.582107
v 0.530330 0.000000 0.530330
v 0.582106 -0.176777 0.582107
v 0.707106 -0.250000 0.707107
v 0.832106 -0.176777 0.832107
v 1.154849 0.000000 0.478355
v 1.087200 0.176777 0.450333
v 0.923879 0.250000 0.382684
v 0.760559 0.176777 0.315034
v 0.692910 0.000000 0.287013
v 0.760559 -0.176777 0.315034
v 0.923879 -0.250000 0.382684
v 1.087200 -0.176777 0.450333
vn 0.9087 0.3764 -0.1807
vn 0.3816 0.9212 -0.0759
vn -0.3816 0.9212 0.0759
vn -0.9087 0.3764 0.1807
vn -0.9087 -0.3764 0.1807
vn -0.3816 -0.9212 0.0759
vn 0.3816 -0.9212 -0.0759
vn 0.9087 -0.3764 -0.1807
vn 0.7703 0.3764 -0.5147
vn 0.3235 0.9212 -0.2161
vn -0.3235 0.9212 0.2161
vn -0.7703 0.3764 0.5147
vn -0.7703 -0.3764 0.5147
vn -0.3235 -0.9212 0.2161
vn 0.3235 -0.9212 -0.2161
vn 0.7703 -0.3764 -0.5147
vn 0.5147 0.3764 -0.7703
vn 0.2161 0.9212 -0.3235
vn -0.2161 0.9212 0.3235
vn -0.5147 0.3764 0.7703
vn -0.5147 -0.3764 0.7703
vn -0.2161 -0.9212 0.3235
vn 0.2161 -0.9212 -0.3235
vn 0.5147 -0.3764 -0.7703
vn 0.1807 0.3764 -0.9087
vn 0.0759 0.9212 -0.3816
vn -0.0759 0.9212 0.3816
vn -0.1807 0.3764 0.9087
vn -0.1807 -0.3764 0.9087
vn -0.0759 -0.9212 0.3816
vn 0.0759 -0.9212 -0.3816
vn 0.1807 -0.3764 -0.9087
vn -0.1807 0.3764 -0.9087
vn -0.0759 0.9212 -0.3816
vn 0.0759 0.9212 0.3816
vn 0.1807 0.3764 0.9087
vn 0.1807 -0.3764 0.9087
vn 0.0759 -0.9212 0.3816
vn -0.0759 -0.9212 -0.3816
vn -0.1807 -0.3764 -0.9087
vn -0.5147 0.3764 -0.7703
vn -0.2161 0.9212 -0.3235
vn 0.2161 0.9212 0.3235
vn 0.5147 0.3764 0.7703
vn 0.5147 -0.3764 0.7703
vn 0.2161 -0.9212 0.3235
vn -0.2161 -0.9212 -0.3235
vn -0.5147 -0.3764 -0.7703
vn -0.7703 0.3764 -0.5147
vn -0.3235 0.9212 -0.2161
vn 0.3235 0.9212 0.2161
vn 0.7703 0.3764 0.5147
vn 0.7703 -0.3764 0.5147
vn 0.3235 -0.9212 0.2161
vn -0.3235 -0.9212 -0.2161
vn -0.7703 -0.3764 -0.5147
vn -0.9087 0.3764 -0.1807
vn -0.3816 0.9212 -0.0759
vn 0.3816 0.9212 0.0759
vn 0.9087 0.3764 0.1807
vn 0.9087 -0.3764 0.1807
vn 0.3816 -0.9212 0.0759
vn -0.3816 -0.9212 -0.0759
vn -0.9087 -0.3764 -0.1807
vn -1.0000 -0.0000 -0.0000
vn -0.0000 -0.0000 1.0000
vt 0.562500 0.500000
vt 0.500000 0.625000
vt 0.500000 0.500000
vt 0.562500 0.625000
vt 0.500000 0.750000
vt 0.562500 0.875000
vt 0.500000 0.875000
vt 0.500000 1.000000
vt 0.562500 0.000000
vt 0.500000 0.125000
vt 0.500000 0.000000
vt 0.562500 0.125000
vt 0.500000 0.250000
vt 0.562500 0.250000
vt 0.500000 0.375000
vt 0.562500 0.375000
vt 0.625000 0.625000
vt 0.562500 0.750000
vt 0.625000 0.750000
vt 0.625000 0.875000
vt 0.562500 1.000000
vt 0.625000 0.000000
vt 0.625000 0.250000
vt 0.625000 0.375000
vt 0.687500 0.500000
vt 0.625000 0.500000
vt 0.687500 0.750000
vt 0.687500 1.000000
vt 0.625000 1.000000
vt 0.687500 0.000000
vt 0.625000 0.125000
vt 0.687500 0.125000
vt 0.687500 0.250000
vt 0.687500 0.375000
vt 0.750000 0.500000
vt 0.687500 0.625000
vt 0.750000 0.625000
vt 0.750000 0.750000
vt 0.687500 0.875000
vt 0.750000 0.875000
vt 0.750000 0.000000
vt 0.750000 0.125000
vt 0.750000 0.375000
vt 0.812500 0.500000
vt 0.812500 0.750000
vt 0.812500 0.875000
vt 0.750000 1.000000
vt 0.812500 0.125000
vt 0.750000 0.250000
vt 0.812500 0.250000
vt 0.812500 0.375000
vt 0.875000 0.500000
vt 0.812500 0.625000
vt 0.875000 0.625000
vt 0.875000 0.750000
vt 0.875000 0.875000
vt 0.812500 1.000000
vt 0.812500 0.000000
vt 0.875000 0.125000
vt 0.875000 0.250000
vt 0.937500 0.625000
vt 0.937500 0.875000
vt 0.937500 1.000000
vt 0.875000 1.000000
vt 0.937500 0.000000
vt 0.875000 0.000000
vt 0.937500 0.125000
vt 0.937500 0.250000
vt 0.875000 0.375000
vt 0.937500 0.375000
vt 1.000000 0.500000
vt 0.937500 0.500000
vt 1.000000 0.750000
vt 0.937500 0.750000
vt 1.000000 0.875000
vt 1.000000 0.000000
vt 1.000000 0.125000
vt 1.000000 0.250000
vt 1.000000 0.375000
vt 0.250000 0.875000
vt 0.250000 0.125000
vt 0.250000 0.375000
vt 1.000000 0.625000
vt 0.312500 0.500000
vt 0.250000 0.625000
vt 0.250000 0.500000
vt 0.312500 0.750000
vt 0.250000 0.750000
vt 0.312500 0.875000
vt 0.250000 1.000000
vt 0.312500 0.000000
vt 0.250000 0.000000
vt 0.312500 0.125000
vt 0.250000 0.250000
vt 0.312500 0.250000
vt 0.312500 0.375000
vt 0.375000 0.625000
vt 0.312500 0.625000
vt 0.375000 0.875000
vt 0.375000 1.000000
vt 0.312500 1.000000
vt 0.375000 0.000000
vt 0.375000 0.125000
vt 0.375000 0.375000
vt 0.375000 0.500000
vt 0.437500 0.625000
vt 0.375000 0.750000
vt 0.437500 0.875000
vt 0.437500 0.000000
vt 0.437500 0.125000
vt 0.375000 0.250000
vt 0.437500 0.375000
vt 0.437500 0.500000
vt 0.437500 0.750000
vt 0.437500 1.000000
vt 0.437500 0.250000
vt 1.000000 1.000000
s 0
f 9/1/1 2/2/1 1/3/1
f 10/4/2 3/5/2 2/2/2
f 3/5/3 12/6/3 4/7/3
f 12/6/4 5/8/4 4/7/4
f 13/9/5 6/10/5 5/11/5
f 14/12/6 7/13/6 6/10/6
f 15/14/7 8/15/7 7/13/7
f 16/16/8 1/3/8 8/15/8
f 9/1/9 18/17/9 10/4/9
f 18/17/10 11/18/10 10/4/10
f 19/19/11 12/6/11 11/18/11
f 20/20/12 13/21/12 12/6/12
f 21/22/13 14/12/13 13/9/13
f 14/12/14 23/23/14 15/14/14
f 15/14/15 24/24/15 16/16/15
f 24/24/16 9/1/16 16/16/16
f 25/25/17 18/17/17 17/26/17
f 18/17/18 27/27/18 19/19/18
f 27/27/19 20/20/19 19/19/19
f 20/20/20 29/28/20 21/29/20
f 29/30/21 22/31/21 21/22/21
f 30/32/22 23/23/22 22/31/22
f 31/33/23 24/24/23 23/23/23
f 32/34/24 17/26/24 24/24/24
f 33/35/25 26/36/25 25/25/25
f 34/37/26 27/27/26 26/36/26
f 35/38/27 28/39/27 27/27/27
f 36/40/28 29/28/28 28/39/28
f 37/41/29 30/32/29 29/30/29
f 38/42/30 31/33/30 30/32/30
f 31/33/31 40/43/31 32/34/31
f 40/43/32 25/25/32 32/34/32
f 41/44/33 34/37/33 33/35/33
f 34/37/34 43/45/34 35/38/34
f 35/38/35 44/46/35 36/40/35
f 44/46/36 37/47/36 36/40/36
f 37/41/37 46/48/37 38/42/37
f 46/48/38 39/49/38 38/42/38
f 47/50/39 40/43/39 39/49/39
f 48/51/40 33/35/40 40/43/40
f 49/52/41 42/53/41 41/44/41
f 50/54/42 43/45/42 42/53/42
f 51/55/43 44/46/43 43/45/43
f 52/56/44 45/57/44 44/46/44
f 45/58/45 54/59/45 46/48/45
f 46/48/46 55/60/46 47/50/46
f 55/60/47 48/51/47 47/50/47
f 48/51/48 49/52/48 41/44/48
f 49/52/49 58/61/49 50/54/49
f 58/61/50 51/55/50 50/54/50
f 51/55/51 60/62/51 52/56/51
f 52/56/52 61/63/52 53/64/52
f 61/65/53 54/59/53 53/66/53
f 62/67/54 55/60/54 54/59/54
f 63/68/55 56/69/55 55/60/55
f 64/70/56 49/52/56 56/69/56
f 65/71/57 58/61/57 57/72/57
f 58/61/58 67/73/58 59/74/58
f 67/73/59 60/62/59 59/74/59
f 68/75/60 61/63/60 60/62/60
f 69/76/61 62/67/61 61/65/61
f 70/77/62 63/68/62 62/67/62
f 71/78/63 64/70/63 63/68/63
f 72/79/64 57/72/64 64/70/64
f 76/80/65 78/81/65 80/82/65
f 70/77/66 68/75/66 66/83/66
f 81/84/36 74/85/36 73/86/36
f 74/85/35 83/87/35 75/88/35
f 83/87/34 76/80/34 75/88/34
f 84/89/33 77/90/33 76/80/33
f 85/91/40 78/81/40 77/92/40
f 86/93/39 79/94/39 78/81/39
f 87/95/38 80/82/38 79/94/38
f 88/96/37 73/86/37 80/82/37
f 81/84/44 90/97/44 82/98/44
f 90/97/43 83/87/43 82/98/43
f 83/87/42 92/99/42 84/89/42
f 84/89/41 93/100/41 85/101/41
f 93/102/48 86/93/48 85/91/48
f 94/103/47 87/95/47 86/93/47
f 87/95/46 96/104/46 88/96/46
f 96/104/45 81/84/45 88/96/45
f 89/105/52 98/106/52 90/97/52
f 98/106/51 91/107/51 90/97/51
f 91/107/50 100/108/50 92/99/50
f 100/108/49 93/100/49 92/99/49
f 101/109/56 94/103/56 93/102/56
f 102/110/55 95/111/55 94/103/55
f 95/111/54 104/112/54 96/104/54
f 104/112/53 89/105/53 96/104/53
f 1/3/60 98/106/60 97/113/60
f 2/2/59 99/114/59 98/106/59
f 99/114/58 4/7/58 100/108/58
f 100/108/57 5/8/57 101/115/57
f 5/11/64 102/110/64 101/109/64
f 6/10/63 103/116/63 102/110/63
f 103/116/62 8/15/62 104/112/62
f 8/15/61 97/113/61 104/112/61
f 9/1/1 10/4/1 2/2/1
f 10/4/2 11/18/2 3/5/2
f 3/5/3 11/18/3 12/6/3
f 12/6/4 13/21/4 5/8/4
f 13/9/5 14/12/5 6/10/5
f 14/12/6 15/14/6 7/13/6
f 15/14/7 16/16/7 8/15/7
f 16/16/8 9/1/8 1/3/8
f 9/1/9 17/26/9 18/17/9
f 18/17/10 19/19/10 11/18/10
f 19/19/11 20/20/11 12/6/11
f 20/20/12 21/29/12 13/21/12
f 21/22/13 22/31/13 14/12/13
f 14/12/14 22/31/14 23/23/14
f 15/14/15 23/23/15 24/24/15
f 24/24/16 17/26/16 9/1/16
f 25/25/17 26/36/17 18/17/17
f 18/17/18 26/36/18 27/27/18
f 27/27/19 28/39/19 20/20/19
f 20/20/20 28/39/20 29/28/20
f 29/30/21 30/32/21 22/31/21
f 30/32/22 31/33/22 23/23/22
f 31/33/23 32/34/23 24/24/23
f 32/34/24 25/25/24 17/26/24
f 33/35/25 34/37/25 26/36/25
f 34/37/26 35/38/26 27/27/26
f 35/38/27 36/40/27 28/39/27
f 36/40/28 37/47/28 29/28/28
f 37/41/29 38/42/29 30/32/29
f 38/42/30 39/49/30 31/33/30
f 31/33/31 39/49/31 40/43/31
f 40/43/32 33/35/32 25/25/32
f 41/44/33 42/53/33 34/37/33
f 34/37/34 42/53/34 43/45/34
f 35/38/35 43/45/35 44/46/35
f 44/46/36 45/57/36 37/47/36
f 37/41/37 45/58/37 46/48/37
f 46/48/38 47/50/38 39/49/38
f 47/50/39 48/51/39 40/43/39
f 48/51/40 41/44/40 33/35/40
f 49/52/41 50/54/41 42/53/41
f 50/54/42 51/55/42 43/45/42
f 51/55/43 52/56/43 44/46/43
f 52/56/44 53/64/44 45/57/44
f 45/58/45 53/66/45 54/59/45
f 46/48/46 54/59/46 55/60/46
f 55/60/47 56/69/47 48/51/47
f 48/51/48 56/69/48 49/52/48
f 49/52/49 57/72/49 58/61/49
f 58/61/50 59/74/50 51/55/50
f 51/55/51 59/74/51 60/62/51
f 52/56/52 60/62/52 61/63/52
f 61/65/53 62/67/53 54/59/53
f 62/67/54 63/68/54 55/60/54
f 63/68/55 64/70/55 56/69/55
f 64/70/56 57/72/56 49/52/56
f 65/71/57 66/83/57 58/61/57
f 58/61/58 66/83/58 67/73/58
f 67/73/59 68/75/59 60/62/59
f 68/75/60 69/117/60 61/63/60
f 69/76/61 70/77/61 62/67/61
f 70/77/62 71/78/62 63/68/62
f 71/78/63 72/79/63 64/70/63
f 72/79/64 65/71/64 57/72/64
f 80/82/65 73/86/65 74/85/65
f 74/85/65 75/88/65 76/80/65
f 76/80/65 77/92/65 78/81/65
f 78/81/65 79/94/65 80/82/65
f 80/82/65 74/85/65 76/80/65
f 66/83/66 65/71/66 72/79/66
f 72/79/66 71/78/66 70/77/66
f 70/77/66 69/76/66 68/75/66
f 68/75/66 67/73/66 66/83/66
f 66/83/66 72/79/66 70/77/66
f 81/84/36 82/98/36 74/85/36
f 74/85/35 82/98/35 83/87/35
f 83/87/34 84/89/34 76/80/34
f 84/89/33 85/101/33 77/90/33
f 85/91/40 86/93/40 78/81/40
f 86/93/39 87/95/39 79/94/39
f 87/95/38 88/96/38 80/82/38
f 88/96/37 81/84/37 73/86/37
f 81/84/44 89/105/44 90/97/44
f 90/97/43 91/107/43 83/87/43
f 83/87/42 91/107/42 92/99/42
f 84/89/41 92/99/41 93/100/41
f 93/102/48 94/103/48 86/93/48
f 94/103/47 95/111/47 87/95/47
f 87/95/46 95/111/46 96/104/46
f 96/104/45 89/105/45 81/84/45
f 89/105/52 97/113/52 98/106/52
f 98/106/51 99/114/51 91/107/51
f 91/107/50 99/114/50 100/108/50
f 100/108/49 101/115/49 93/100/49
f 101/109/56 102/110/56 94/103/56
f 102/110/55 103/116/55 95/111/55
f 95/111/54 103/116/54 104/112/54
f 104/112/53 97/113/53 89/105/53
f 1/3/60 2/2/60 98/106/60
f 2/2/59 3/5/59 99/114/59
f 99/114/58 3/5/58 4/7/58
f 100/108/57 4/7/57 5/8/57
f 5/11/64 6/10/64 102/110/64
f 6/10/63 7/13/63 103/116/63
f 103/116/62 7/13/62 8/15/62
f 8/15/61 1/3/61 97/113/61
