# Blender 4.4.1
# www.blender.org
mtllib anchor.mtl
o 球
v 0.050000 0.070711 -0.050000
v 0.070711 0.000000 -0.070711
v 0.050000 -0.070711 -0.050000
v 0.070711 0.070711 0.000000
v 0.100000 0.000000 0.000000
v 0.070711 -0.070711 0.000000
v 0.050000 0.070711 0.050000
v 0.070711 0.000000 0.070711
v 0.050000 -0.070711 0.050000
v 0.000000 0.070711 0.070711
v 0.000000 0.000000 0.100000
v 0.000000 -0.070711 0.070711
v -0.050000 0.070711 0.050000
v -0.070711 0.000000 0.070711
v -0.050000 -0.070711 0.050000
v 0.000000 -0.100000 0.000000
v -0.070711 0.070711 0.000000
v -0.100000 0.000000 0.000000
v -0.070711 -0.070711 0.000000
v -0.050000 0.070711 -0.050000
v -0.070711 0.000000 -0.070711
v -0.050000 -0.070711 -0.050000
v 0.000000 0.100000 0.000000
v 0.000000 0.070711 -0.070711
v 0.000000 0.000000 -0.100000
v 0.000000 -0.070711 -0.070711
vn 0.1566 0.9125 -0.3780
vn 0.1566 -0.9125 -0.3780
vn 0.3574 0.3574 -0.8629
vn 0.3574 -0.3574 -0.8629
vn 0.3780 -0.9125 -0.1566
vn 0.8629 0.3574 -0.3574
vn 0.8629 -0.3574 -0.3574
vn 0.3780 0.9125 -0.1566
vn 0.3780 -0.9125 0.1566
vn 0.8629 0.3574 0.3574
vn 0.8629 -0.3574 0.3574
vn 0.3780 0.9125 0.1566
vn 0.1566 0.9125 0.3780
vn 0.1566 -0.9125 0.3780
vn 0.3574 0.3574 0.8629
vn 0.3574 -0.3574 0.8629
vn -0.3574 -0.3574 0.8629
vn -0.1566 0.9125 0.3780
vn -0.1566 -0.9125 0.3780
vn -0.3574 0.3574 0.8629
vn -0.8629 -0.3574 0.3574
vn -0.3780 0.9125 0.1566
vn -0.3780 -0.9125 0.1566
vn -0.8629 0.3574 0.3574
vn -0.8629 -0.3574 -0.3574
vn -0.3780 0.9125 -0.1566
vn -0.3780 -0.9125 -0.1566
vn -0.8629 0.3574 -0.3574
vn -0.3574 -0.3574 -0.8629
vn -0.1566 0.9125 -0.3780
vn -0.1566 -0.9125 -0.3780
vn -0.3574 0.3574 -0.8629
vt 0.750000 0.750000
vt 0.687500 1.000000
vt 0.625000 0.750000
vt 0.687500 0.000000
vt 0.750000 0.250000
vt 0.625000 0.250000
vt 0.750000 0.500000
vt 0.625000 0.500000
vt 0.562500 0.000000
vt 0.500000 0.250000
vt 0.500000 0.750000
vt 0.500000 0.500000
vt 0.562500 1.000000
vt 0.437500 0.000000
vt 0.375000 0.250000
vt 0.375000 0.750000
vt 0.375000 0.500000
vt 0.437500 1.000000
vt 0.312500 1.000000
vt 0.250000 0.750000
vt 0.312500 0.000000
vt 0.250000 0.250000
vt 0.250000 0.500000
vt 0.125000 0.500000
vt 0.125000 0.250000
vt 0.187500 1.000000
vt 0.125000 0.750000
vt 0.187500 0.000000
vt 0.000000 0.500000
vt 0.000000 0.250000
vt 0.062500 1.000000
vt 0.000000 0.750000
vt 0.062500 0.000000
vt 1.000000 0.250000
vt 1.000000 0.500000
vt 0.875000 0.500000
vt 0.875000 0.250000
vt 1.000000 0.750000
vt 0.937500 1.000000
vt 0.875000 0.750000
vt 0.937500 0.000000
vt 0.812500 1.000000
vt 0.812500 0.000000
s 0
usemtl マテリアル
f 24/1/1 23/2/1 1/3/1
f 16/4/2 26/5/2 3/6/2
f 25/7/3 24/1/3 1/3/3 2/8/3
f 26/5/4 25/7/4 2/8/4 3/6/4
f 16/9/5 3/6/5 6/10/5
f 2/8/6 1/3/6 4/11/6 5/12/6
f 3/6/7 2/8/7 5/12/7 6/10/7
f 1/3/8 23/13/8 4/11/8
f 16/14/9 6/10/9 9/15/9
f 5/12/10 4/11/10 7/16/10 8/17/10
f 6/10/11 5/12/11 8/17/11 9/15/11
f 4/11/12 23/18/12 7/16/12
f 7/16/13 23/19/13 10/20/13
f 16/21/14 9/15/14 12/22/14
f 8/17/15 7/16/15 10/20/15 11/23/15
f 9/15/16 8/17/16 11/23/16 12/22/16
f 12/22/17 11/23/17 14/24/17 15/25/17
f 10/20/18 23/26/18 13/27/18
f 16/28/19 12/22/19 15/25/19
f 11/23/20 10/20/20 13/27/20 14/24/20
f 15/25/21 14/24/21 18/29/21 19/30/21
f 13/27/22 23/31/22 17/32/22
f 16/33/23 15/25/23 19/30/23
f 14/24/24 13/27/24 17/32/24 18/29/24
f 19/34/25 18/35/25 21/36/25 22/37/25
f 17/38/26 23/39/26 20/40/26
f 16/41/27 19/34/27 22/37/27
f 18/35/28 17/38/28 20/40/28 21/36/28
f 22/37/29 21/36/29 25/7/29 26/5/29
f 20/40/30 23/42/30 24/1/30
f 16/43/31 22/37/31 26/5/31
f 21/36/32 20/40/32 24/1/32 25/7/32
