# Blender 4.4.1
# www.blender.org
mtllib Bullet.mtl
o Cube
v 0.000000 0.000000 1.344838
v 0.000000 0.000000 -1.344838
v 0.089432 -0.089432 0.215440
v 0.161800 -0.161800 -0.456979
v 0.120994 -0.120994 -1.129399
v -0.089432 0.089432 0.215440
v -0.161800 0.161800 -0.456979
v -0.120994 0.120994 -1.129399
v 0.120994 0.120994 -1.129399
v 0.161800 0.161800 -0.456979
v 0.089432 0.089432 0.215440
v -0.120994 -0.120994 -1.129399
v -0.161800 -0.161800 -0.456979
v -0.089432 -0.089432 0.215440
v 0.000000 -0.089432 0.215440
v 0.000000 -0.161800 -0.456979
v 0.000000 -0.120994 -1.129399
v 0.000000 0.089432 0.215440
v 0.000000 0.161800 -0.456979
v 0.000000 0.120994 -1.129399
v -0.089432 0.000000 0.215440
v -0.161800 0.000000 -0.456979
v -0.120994 0.000000 -1.129399
v 0.120994 0.000000 -1.129399
v 0.161800 0.000000 -0.456979
v 0.089432 0.000000 0.215440
v 0.202823 -0.202823 -0.793189
v -0.202823 0.202823 -0.793189
v 0.202823 0.202823 -0.793189
v -0.202823 -0.202823 -0.793189
v 0.000000 -0.202823 -0.793189
v 0.000000 0.202823 -0.793189
v -0.202823 0.000000 -0.793189
v 0.202823 0.000000 -0.793189
v 0.179681 -0.179681 -0.961294
v -0.179681 0.179681 -0.961294
v 0.000000 -0.179681 -0.961294
v 0.000000 0.179681 -0.961294
v -0.179681 0.000000 -0.961294
v 0.179681 0.179681 -0.961294
v -0.179681 -0.179681 -0.961294
v 0.179681 0.000000 -0.961294
vn -0.0000 0.8719 -0.4897
vn 0.9969 -0.0000 0.0789
vn -0.0000 -0.8719 -0.4897
vn -0.8719 -0.0000 -0.4897
vn 0.8719 -0.0000 -0.4897
vn 0.9926 -0.0000 0.1211
vn 0.9943 -0.0000 0.1070
vn -0.9969 -0.0000 0.0789
vn -0.9943 -0.0000 0.1070
vn -0.9441 -0.0000 -0.3296
vn -0.0000 0.9969 0.0789
vn -0.0000 0.9943 0.1070
vn -0.0000 0.9441 -0.3296
vn -0.0000 -0.9969 0.0789
vn -0.0000 -0.9943 0.1070
vn -0.0000 -0.9441 -0.3296
vn -0.0000 0.9926 0.1211
vn 0.9907 -0.0000 -0.1364
vn -0.0000 -0.9926 0.1211
vn -0.9926 -0.0000 0.1211
vn 0.9441 -0.0000 -0.3296
vn -0.0000 0.9907 -0.1364
vn -0.0000 -0.9907 -0.1364
vn -0.9907 -0.0000 -0.1364
vt 0.750000 0.729975
vt 0.875000 0.729975
vt 0.750000 0.750000
vt 0.500000 0.145025
vt 0.625000 0.145025
vt 0.500000 0.250000
vt 0.250000 0.729975
vt 0.375000 0.729975
vt 0.250000 0.750000
vt 0.500000 0.729975
vt 0.625000 0.729975
vt 0.500000 0.750000
vt 0.125000 0.729975
vt 0.125000 0.750000
vt 0.625000 0.750000
vt 0.375000 0.750000
vt 0.375000 0.145025
vt 0.375000 0.250000
vt 0.500000 0.000000
vt 0.500000 0.020025
vt 0.375000 0.020025
vt 0.500000 0.051275
vt 0.375000 0.082525
vt 0.375000 0.051275
vt 0.500000 0.082525
vt 0.500000 0.500000
vt 0.500000 0.604975
vt 0.375000 0.604975
vt 0.500000 0.667475
vt 0.375000 0.667475
vt 0.500000 0.714350
vt 0.375000 0.714350
vt 0.750000 0.500000
vt 0.750000 0.604975
vt 0.625000 0.604975
vt 0.750000 0.667475
vt 0.625000 0.667475
vt 0.750000 0.714350
vt 0.625000 0.714350
vt 0.250000 0.500000
vt 0.250000 0.604975
vt 0.125000 0.604975
vt 0.250000 0.667475
vt 0.125000 0.667475
vt 0.250000 0.714350
vt 0.125000 0.714350
vt 0.625000 0.500000
vt 0.375000 0.500000
vt 0.625000 0.000000
vt 0.625000 0.020025
vt 0.625000 0.082525
vt 0.875000 0.500000
vt 0.875000 0.604975
vt 0.875000 0.667475
vt 0.750000 0.698725
vt 0.625000 0.035650
vt 0.500000 0.035650
vt 0.250000 0.698725
vt 0.500000 0.698725
vt 0.125000 0.698725
vt 0.625000 0.698725
vt 0.375000 0.698725
vt 0.375000 0.035650
vt 0.875000 0.714350
vt 0.625000 0.051275
vt 0.875000 0.698725
s 0
usemtl Material
f 20/1/1 9/2/1 2/3/1
f 26/4/2 11/5/2 1/6/2
f 17/7/3 12/8/3 2/9/3
f 23/10/4 8/11/4 2/12/4
f 5/13/3 17/7/3 2/14/3
f 8/11/1 20/1/1 2/15/1
f 12/8/4 23/10/4 2/16/4
f 3/17/2 26/4/2 1/18/2
f 2/19/5 24/20/5 5/21/5
f 34/22/6 4/23/6 27/24/6
f 25/25/7 3/17/7 4/23/7
f 1/26/8 21/27/8 14/28/8
f 14/28/9 22/29/9 13/30/9
f 39/31/10 12/8/10 41/32/10
f 1/33/11 18/34/11 6/35/11
f 6/35/12 19/36/12 7/37/12
f 38/38/13 8/11/13 36/39/13
f 1/40/14 15/41/14 3/42/14
f 3/42/15 16/43/15 4/44/15
f 37/45/16 5/13/16 35/46/16
f 1/47/8 6/35/8 21/27/8
f 6/35/9 22/29/9 21/27/9
f 39/31/10 8/11/10 23/10/10
f 1/48/14 14/28/14 15/41/14
f 14/28/15 16/43/15 15/41/15
f 37/45/16 12/8/16 17/7/16
f 2/49/5 9/50/5 24/20/5
f 34/22/6 10/51/6 25/25/6
f 25/25/7 11/5/7 26/4/7
f 1/52/11 11/53/11 18/34/11
f 11/53/12 19/36/12 18/34/12
f 38/38/13 9/2/13 20/1/13
f 10/54/17 32/55/17 19/36/17
f 40/56/18 34/22/18 42/57/18
f 13/30/19 31/58/19 16/43/19
f 7/37/20 33/59/20 22/29/20
f 4/44/19 31/58/19 27/60/19
f 7/37/17 32/55/17 28/61/17
f 13/30/20 33/59/20 30/62/20
f 35/63/18 34/22/18 27/24/18
f 5/21/21 42/57/21 35/63/21
f 9/50/21 42/57/21 24/20/21
f 32/55/22 40/64/22 38/38/22
f 31/58/23 41/32/23 37/45/23
f 33/59/24 36/39/24 39/31/24
f 31/58/23 35/46/23 27/60/23
f 32/55/22 36/39/22 28/61/22
f 33/59/24 41/32/24 30/62/24
f 34/22/6 25/25/6 4/23/6
f 25/25/7 26/4/7 3/17/7
f 14/28/9 21/27/9 22/29/9
f 39/31/10 23/10/10 12/8/10
f 6/35/12 18/34/12 19/36/12
f 38/38/13 20/1/13 8/11/13
f 3/42/15 15/41/15 16/43/15
f 37/45/16 17/7/16 5/13/16
f 6/35/9 7/37/9 22/29/9
f 39/31/10 36/39/10 8/11/10
f 14/28/15 13/30/15 16/43/15
f 37/45/16 41/32/16 12/8/16
f 34/22/6 29/65/6 10/51/6
f 25/25/7 10/51/7 11/5/7
f 11/53/12 10/54/12 19/36/12
f 38/38/13 40/64/13 9/2/13
f 10/54/17 29/66/17 32/55/17
f 40/56/18 29/65/18 34/22/18
f 13/30/19 30/62/19 31/58/19
f 7/37/20 28/61/20 33/59/20
f 4/44/19 16/43/19 31/58/19
f 7/37/17 19/36/17 32/55/17
f 13/30/20 22/29/20 33/59/20
f 35/63/18 42/57/18 34/22/18
f 5/21/21 24/20/21 42/57/21
f 9/50/21 40/56/21 42/57/21
f 32/55/22 29/66/22 40/64/22
f 31/58/23 30/62/23 41/32/23
f 33/59/24 28/61/24 36/39/24
f 31/58/23 37/45/23 35/46/23
f 32/55/22 38/38/22 36/39/22
f 33/59/24 39/31/24 41/32/24
