# Blender 4.4.1
# www.blender.org
mtllib missile.mtl
o Cube
v 0.000000 -0.002431 -2.237252
v 0.188967 0.186995 2.237252
v 0.188967 -0.190938 2.237252
v -0.188967 0.186995 2.237252
v -0.188967 -0.190938 2.237252
v 0.000000 0.520512 2.237252
v 0.000000 -0.354474 2.237252
v -1.119658 -0.003349 2.237252
v 1.119658 -0.003349 2.237252
v 0.000000 -0.003349 1.968701
v -0.188967 -0.190938 -1.369205
v 0.188967 0.186995 -1.369205
v -0.188967 0.186995 -1.369205
v 0.188967 -0.190938 -1.369205
v 0.000000 -0.190938 -1.369205
v 0.000000 0.186995 -1.369205
v 0.226241 -0.003349 -1.369205
v -0.226241 -0.003349 -1.369205
v -0.188967 -0.190938 1.270386
v 0.188967 0.186995 1.270386
v 0.000000 -0.354474 1.270386
v 0.000000 0.520512 1.270386
v 1.119658 -0.003349 1.270386
v -0.188967 0.186995 1.270386
v 0.188967 -0.190938 1.270386
v -1.119658 -0.003349 1.270386
v -0.237097 0.235214 0.683605
v 0.237097 -0.238981 0.683605
v -0.274371 -0.003613 0.683605
v -0.237097 -0.238981 0.683605
v 0.237097 0.235214 0.683605
v 0.000000 -0.238981 0.683605
v 0.000000 0.235214 0.683605
v 0.274371 -0.003613 0.683605
vn -0.8701 0.4930 -0.0000
vn 0.1538 -0.7519 0.6411
vn -0.9508 0.1862 -0.2476
vn 0.6544 -0.7562 -0.0000
vn 0.2004 0.9797 -0.0000
vn -0.6544 -0.7562 -0.0000
vn -0.1538 -0.7519 0.6411
vn 0.8701 0.4930 -0.0000
vn -0.4654 0.5377 0.7031
vn 0.1976 -0.9803 -0.0000
vn -0.9502 -0.1888 -0.2479
vn 0.4654 0.5377 0.7031
vn -0.9873 -0.1564 -0.0268
vn 0.9502 -0.1888 -0.2479
vn -0.0000 0.9770 -0.2132
vn -0.0000 -0.9772 -0.2122
vn 0.9508 0.1862 -0.2476
vn -0.9811 0.1921 -0.0230
vn -0.2004 0.9797 -0.0000
vn -0.1976 -0.9803 -0.0000
vn 0.9834 -0.1557 0.0934
vn -0.0000 0.9966 0.0819
vn -0.0000 -0.9967 0.0816
vn 0.1925 0.9412 -0.2777
vn 0.6473 -0.7479 -0.1472
vn -0.8461 0.4794 -0.2331
vn -0.0000 0.9997 -0.0235
vn -0.0000 -0.9997 -0.0234
vn 0.9811 0.1921 -0.0230
vn 0.9873 -0.1564 -0.0268
vn -0.1925 0.9412 -0.2777
vn -0.9834 -0.1557 0.0934
vn 0.6271 -0.3553 0.6931
vn -0.6271 -0.3553 0.6931
vn -0.1525 0.7566 0.6358
vn 0.1525 0.7566 0.6358
vn -0.9806 -0.1948 -0.0230
vn -0.9877 0.1541 -0.0268
vn 0.1901 -0.9429 -0.2734
vn 0.8461 0.4794 -0.2331
vn -0.6473 -0.7479 -0.1472
vn 0.9837 0.1535 0.0933
vn 0.9877 0.1541 -0.0268
vn 0.9806 -0.1948 -0.0230
vn -0.9837 0.1535 0.0933
vn -0.1901 -0.9429 -0.2734
vt 0.750000 0.695979
vt 0.875000 0.750000
vt 0.750000 0.750000
vt 0.499088 0.875000
vt 0.625000 1.000000
vt 0.499088 1.000000
vt 0.499088 0.201500
vt 0.625000 0.201500
vt 0.499088 0.250000
vt 0.250000 0.695979
vt 0.375000 0.750000
vt 0.250000 0.750000
vt 0.625000 0.695979
vt 0.499088 0.750000
vt 0.499088 0.695979
vt 0.125000 0.750000
vt 0.125000 0.695979
vt 0.625000 0.750000
vt 0.375000 0.875000
vt 0.375000 0.695979
vt 0.375000 0.201500
vt 0.375000 0.250000
vt 0.375000 1.000000
vt 0.499088 0.086806
vt 0.375000 0.086806
vt 0.499088 0.500000
vt 0.499088 0.548500
vt 0.375000 0.548500
vt 0.750000 0.500000
vt 0.750000 0.548500
vt 0.625000 0.548500
vt 0.250000 0.500000
vt 0.250000 0.548500
vt 0.125000 0.548500
vt 0.625000 0.500000
vt 0.375000 0.500000
vt 0.875000 0.500000
vt 0.875000 0.548500
vt 0.625000 0.000000
vt 0.499088 0.054021
vt 0.499088 0.000000
vt 0.375000 0.054021
vt 0.375000 0.000000
vt 0.499088 0.663194
vt 0.375000 0.663194
vt 0.750000 0.663194
vt 0.625000 0.663194
vt 0.250000 0.663194
vt 0.125000 0.663194
vt 0.875000 0.695979
vt 0.625000 0.054021
vt 0.625000 0.875000
vt 0.625000 0.086806
vt 0.875000 0.663194
s 0
usemtl Material
f 22/1/1 4/2/1 6/3/1
f 10/4/2 4/5/2 8/6/2
f 18/7/3 13/8/3 1/9/3
f 21/10/4 3/11/4 7/12/4
f 20/13/5 9/14/5 23/15/5
f 21/10/6 5/16/6 19/17/6
f 2/18/7 10/4/7 9/14/7
f 22/1/8 2/18/8 20/13/8
f 3/11/9 10/4/9 7/19/9
f 23/15/10 3/11/10 25/20/10
f 11/21/11 18/7/11 1/22/11
f 10/4/12 5/23/12 7/19/12
f 29/24/13 11/21/13 30/25/13
f 1/26/14 17/27/14 14/28/14
f 1/29/15 16/30/15 12/31/15
f 1/32/16 15/33/16 11/34/16
f 1/35/17 12/31/17 17/27/17
f 1/36/16 14/28/16 15/33/16
f 29/24/18 13/8/18 18/7/18
f 1/37/15 13/38/15 16/30/15
f 4/39/19 26/40/19 8/41/19
f 8/41/20 19/42/20 5/43/20
f 34/44/21 25/20/21 28/45/21
f 33/46/22 20/13/22 31/47/22
f 32/48/23 19/17/23 30/49/23
f 34/44/24 20/13/24 23/15/24
f 32/48/25 25/20/25 21/10/25
f 33/46/26 24/50/26 22/1/26
f 13/38/27 33/46/27 16/30/27
f 14/28/28 32/48/28 15/33/28
f 12/31/29 34/44/29 17/27/29
f 11/34/28 32/48/28 30/49/28
f 12/31/27 33/46/27 31/47/27
f 14/28/30 34/44/30 28/45/30
f 24/51/31 29/24/31 26/40/31
f 19/42/32 29/24/32 30/25/32
f 22/1/1 24/50/1 4/2/1
f 10/4/33 6/52/33 4/5/33
f 21/10/4 25/20/4 3/11/4
f 20/13/5 2/18/5 9/14/5
f 21/10/6 7/12/6 5/16/6
f 2/18/34 6/52/34 10/4/34
f 22/1/8 6/3/8 2/18/8
f 3/11/35 9/14/35 10/4/35
f 23/15/10 9/14/10 3/11/10
f 10/4/36 8/6/36 5/23/36
f 29/24/37 18/7/37 11/21/37
f 29/24/38 27/53/38 13/8/38
f 4/39/19 24/51/19 26/40/19
f 8/41/20 26/40/20 19/42/20
f 34/44/39 23/15/39 25/20/39
f 33/46/40 22/1/40 20/13/40
f 32/48/41 21/10/41 19/17/41
f 34/44/42 31/47/42 20/13/42
f 32/48/23 28/45/23 25/20/23
f 33/46/22 27/54/22 24/50/22
f 13/38/27 27/54/27 33/46/27
f 14/28/28 28/45/28 32/48/28
f 12/31/43 31/47/43 34/44/43
f 11/34/28 15/33/28 32/48/28
f 12/31/27 16/30/27 33/46/27
f 14/28/44 17/27/44 34/44/44
f 24/51/45 27/53/45 29/24/45
f 19/42/46 26/40/46 29/24/46
